<svg width="577" height="580" viewBox="0 0 577 580" fill="none" xmlns="http://www.w3.org/2000/svg">
<style>
  .synara-logo-fill { fill: #1c2933; }
  @media (prefers-color-scheme: dark) {
    .synara-logo-fill { fill: #f5f5f5; }
  }
</style>
<path class="synara-logo-fill" d="M3.2556 2.68573C-0.774279 6.71564 -1.22204 139.702 2.80784 149.553C4.5989 153.582 44.0022 184.03 91.4653 216.717C181.914 279.852 195.347 291.942 209.227 319.255L217.735 336.271L238.332 310.3C249.526 295.972 260.72 280.3 262.959 275.374C279.974 242.688 270.571 194.777 241.019 162.986C223.108 143.732 28.3304 5.37234 14.002 1.34244C9.97208 0.44693 5.04666 0.894684 3.2556 2.68573Z"/>
<path class="synara-logo-fill" d="M573.744 1.7912C577.774 5.82111 578.222 138.807 574.192 148.658C572.401 152.688 532.998 183.136 485.535 215.823C395.086 278.958 381.653 291.047 367.773 318.361L359.265 335.376L338.668 309.406C327.474 295.077 316.28 279.405 314.041 274.48C297.026 241.793 306.429 193.882 335.981 162.091C353.892 142.837 548.67 4.47781 562.998 0.447906C567.028 -0.447601 571.953 0.000152588 573.744 1.7912Z"/>
<path class="synara-logo-fill" d="M269.676 342.091C235.646 379.256 235.198 380.599 235.198 485.824V579.854H288.93H342.661V483.585C342.661 408.808 341.318 384.629 336.393 376.122C328.781 362.689 294.303 322.39 290.721 322.39C288.93 322.39 279.526 331.345 269.676 342.091Z"/>
</svg>
