<svg width="24px" height="24px" viewBox="0 0 24 24" fill="none" xmlns="http://www.w3.org/2000/svg"><g><path d="M10.3998 21.326C10.9827 21.6626 11.2741 21.8308 11.584 21.8967C11.8581 21.955 12.1415 21.955 12.4156 21.8967C12.7255 21.8308 13.0169 21.6626 13.5998 21.326L19.2766 18.0486C19.8595 17.712 20.1509 17.5438 20.3629 17.3084C20.5504 17.1001 20.6921 16.8547 20.7787 16.5881C20.8766 16.2869 20.8766 15.9503 20.8766 15.2773V8.72233C20.8766 8.04927 20.8766 7.71274 20.7787 7.41147C20.6921 7.14491 20.5504 6.89953 20.3629 6.69124C20.1509 6.45584 19.8595 6.28757 19.2766 5.95104L13.5998 2.67356C13.0169 2.33704 12.7255 2.16877 12.4156 2.10291C12.1415 2.04464 11.8581 2.04464 11.584 2.10291C11.2741 2.16877 10.9827 2.33704 10.3998 2.67356L4.72305 5.95104C4.14016 6.28757 3.84872 6.45584 3.63676 6.69124C3.44921 6.89953 3.30754 7.14491 3.22093 7.41147C3.12305 7.71274 3.12305 8.04927 3.12305 8.72233V15.2773C3.12305 15.9503 3.12305 16.2869 3.22093 16.5881C3.30754 16.8547 3.44921 17.1001 3.63676 17.3084C3.84872 17.5438 4.14016 17.712 4.72305 18.0486L10.3998 21.326Z" stroke="currentColor" stroke-width="1.5" stroke-linecap="round" stroke-linejoin="round"></path><path d="M3.70703 16.7871L11.9994 11.9995M11.9994 11.9995L20.2917 16.7871M11.9994 11.9995L11.9995 2.45477" stroke="currentColor" stroke-width="1.5" stroke-linecap="round" stroke-linejoin="round"></path></g></svg>