<svg width="24px" height="24px" viewBox="0 0 24 24" fill="none" xmlns="http://www.w3.org/2000/svg"><g><path d="M10.3998 2.67375C10.9827 2.33722 11.2741 2.16895 11.584 2.10309C11.8581 2.04482 12.1415 2.04482 12.4156 2.10309C12.7255 2.16895 13.0169 2.33722 13.5998 2.67375L19.2766 5.95123C19.8595 6.28776 20.1509 6.45602 20.3629 6.69143C20.5504 6.89971 20.6921 7.14509 20.7787 7.41165C20.8766 7.71292 20.8766 8.04945 20.8766 8.72251V15.2775C20.8766 15.9505 20.8766 16.2871 20.7787 16.5883C20.6921 16.8549 20.5504 17.1003 20.3629 17.3085C20.1509 17.544 19.8595 17.7122 19.2766 18.0487L13.5998 21.3262C13.0169 21.6628 12.7255 21.831 12.4156 21.8969C12.1415 21.9552 11.8581 21.9552 11.584 21.8969C11.2741 21.831 10.9827 21.6628 10.3998 21.3262L4.72305 18.0487C4.14016 17.7122 3.84872 17.544 3.63676 17.3085C3.44921 17.1003 3.30754 16.8549 3.22093 16.5883C3.12305 16.2871 3.12305 15.9505 3.12305 15.2775V8.72251C3.12305 8.04945 3.12305 7.71292 3.22093 7.41165C3.30754 7.14509 3.44921 6.89971 3.63676 6.69143C3.84872 6.45602 4.14016 6.28776 4.72305 5.95123L10.3998 2.67375Z" stroke="currentColor" stroke-width="1.5" stroke-linecap="round" stroke-linejoin="round"></path><path d="M11.9994 12.0005L3.70703 7.21289M11.9994 12.0005L20.2917 7.21289M11.9994 12.0005L11.9995 21.5452" stroke="currentColor" stroke-width="1.5" stroke-linecap="round" stroke-linejoin="round"></path></g></svg>