<svg width="24px" height="24px" viewBox="0 0 24 24" fill="none" xmlns="http://www.w3.org/2000/svg"><g><path d="M10.4018 2.67393C10.9846 2.3374 11.2761 2.16914 11.5859 2.10328C11.8601 2.045 12.1434 2.045 12.4176 2.10328C12.7274 2.16914 13.0189 2.3374 13.6018 2.67393L19.2785 5.95141C19.8614 6.28794 20.1529 6.4562 20.3648 6.69161C20.5524 6.8999 20.694 7.14528 20.7806 7.41184C20.8785 7.7131 20.8785 8.04963 20.8785 8.72269V15.2776C20.8785 15.9507 20.8785 16.2872 20.7806 16.5885C20.694 16.8551 20.5524 17.1004 20.3648 17.3087C20.1529 17.5441 19.8614 17.7124 19.2785 18.0489L13.6018 21.3264C13.0189 21.6629 12.7274 21.8312 12.4176 21.8971C12.1434 21.9553 11.8601 21.9553 11.5859 21.8971C11.2761 21.8312 10.9846 21.6629 10.4018 21.3264L4.725 18.0489C4.14211 17.7124 3.85067 17.5441 3.63871 17.3087C3.45117 17.1004 3.3095 16.8551 3.22289 16.5885C3.125 16.2872 3.125 15.9507 3.125 15.2776V8.72269C3.125 8.04963 3.125 7.7131 3.22289 7.41184C3.3095 7.14528 3.45117 6.8999 3.63871 6.69161C3.85067 6.4562 4.14211 6.28794 4.725 5.95141L10.4018 2.67393Z" stroke="currentColor" stroke-width="1.5" stroke-linecap="round" stroke-linejoin="round"></path><path d="M11.9994 12.0005L3.70703 7.21289M11.9994 12.0005L20.2917 7.21289M11.9994 12.0005L11.9995 21.5452" stroke="currentColor" stroke-width="1.5" stroke-linecap="round" stroke-linejoin="round"></path><path d="M7.5625 4.3125L16.4393 9.4375" stroke="currentColor" stroke-width="1.5"></path></g></svg>