<svg width="24px" height="24px" viewBox="0 0 24 24" fill="none" xmlns="http://www.w3.org/2000/svg"><g><circle cx="12" cy="12" r="1.5" fill="currentColor"></circle><circle cx="12" cy="16" r="1.5" fill="currentColor"></circle><circle cx="8" cy="8" r="1" fill="currentColor"></circle><circle cx="4" cy="12" r="1" fill="currentColor"></circle><circle cx="20" cy="12" r="1" fill="currentColor"></circle><circle cx="12" cy="4" r="1" fill="currentColor"></circle><circle cx="12" cy="20" r="1" fill="currentColor"></circle><circle cx="8" cy="4" r="0.75" fill="currentColor"></circle><circle cx="16" cy="4" r="0.75" fill="currentColor"></circle><circle cx="4" cy="4" r="0.5" fill="currentColor"></circle><circle cx="20" cy="4" r="0.5" fill="currentColor"></circle><circle cx="4" cy="8" r="0.75" fill="currentColor"></circle><circle cx="20" cy="8" r="0.75" fill="currentColor"></circle><circle cx="4" cy="16" r="0.75" fill="currentColor"></circle><circle cx="20" cy="16" r="0.75" fill="currentColor"></circle><circle cx="4" cy="20" r="0.5" fill="currentColor"></circle><circle cx="20" cy="20" r="0.5" fill="currentColor"></circle><circle cx="12" cy="8" r="1.5" fill="currentColor"></circle><circle cx="16" cy="8" r="1" fill="currentColor"></circle><circle cx="16" cy="12" r="1.5" fill="currentColor"></circle><circle cx="8" cy="12" r="1.5" fill="currentColor"></circle><circle cx="16" cy="16" r="1" fill="currentColor"></circle><circle cx="16" cy="20" r="0.75" fill="currentColor"></circle><circle cx="8" cy="16" r="1" fill="currentColor"></circle><circle cx="8" cy="20" r="0.75" fill="currentColor"></circle></g></svg>