<svg width="24px" height="24px" viewBox="0 0 24 24" fill="none" xmlns="http://www.w3.org/2000/svg"><g><path d="M19.25 4.75H4.75C3.64543 4.75 2.75 5.64543 2.75 6.75V17.25C2.75 18.3546 3.64543 19.25 4.75 19.25H19.25C20.3546 19.25 21.25 18.3546 21.25 17.25V6.75C21.25 5.64543 20.3546 4.75 19.25 4.75Z" stroke="currentColor" stroke-width="1.5" stroke-linecap="square" stroke-linejoin="round"></path><path d="M10.0107 15.6025C9.60547 15.6025 9.3125 15.3535 9.3125 14.8848V14.2061H6.68555C6.15332 14.2061 5.79688 13.874 5.79688 13.3809C5.79688 13.0781 5.88477 12.8047 6.10449 12.4189C6.58789 11.5498 7.29102 10.4756 8.05762 9.33789C8.5459 8.59082 8.90234 8.34668 9.49805 8.34668C10.2451 8.34668 10.7139 8.75195 10.7139 9.41113V13.0293H11.1143C11.5049 13.0293 11.7197 13.2734 11.7197 13.6201C11.7197 13.9668 11.5 14.2061 11.1143 14.2061H10.7139V14.8848C10.7139 15.3535 10.416 15.6025 10.0107 15.6025ZM9.3418 13.0684V9.52344H9.3125C8.30664 10.9736 7.65723 11.9648 7.08594 13.0293V13.0684H9.3418Z" fill="currentColor"></path><path d="M13.2529 15.5928C12.7891 15.5928 12.5156 15.3096 12.5156 14.8262V9.12793C12.5156 8.63965 12.7891 8.35645 13.2529 8.35645C13.7168 8.35645 13.9902 8.63965 13.9902 9.12793V11.5693H14.0342L16.6855 8.67383C16.8906 8.44922 17.0762 8.35645 17.3203 8.35645C17.7109 8.35645 18.0137 8.6543 18.0137 9.03516C18.0137 9.24023 17.9404 9.40137 17.7549 9.59668L15.8115 11.6328L17.9258 14.2012C18.1455 14.4746 18.2432 14.6846 18.2432 14.8848C18.2432 15.2852 17.9355 15.5977 17.5303 15.5977C17.2275 15.5977 17.0225 15.4854 16.793 15.1924L14.6934 12.6094L13.9902 13.3467V14.8262C13.9902 15.3096 13.7168 15.5928 13.2529 15.5928Z" fill="currentColor"></path></g></svg>