<svg width="24px" height="24px" viewBox="0 0 24 24" fill="none" xmlns="http://www.w3.org/2000/svg"><g><path d="M3.75 6.75H20.25" stroke="currentColor" stroke-width="1.5" stroke-linecap="round" stroke-linejoin="round"></path><path d="M7.5 6.5L8.49711 4.00722C8.80084 3.2479 9.53626 2.75 10.3541 2.75H13.6459C14.4637 2.75 15.1992 3.2479 15.5029 4.00722L16.5 6.5" stroke="currentColor" stroke-width="1.5" stroke-linecap="round" stroke-linejoin="round"></path><path d="M18.1975 14.5L17.858 19.3886C17.7851 20.4368 16.9135 21.25 15.8628 21.25H8.13348C7.08269 21.25 6.2111 20.4368 6.13828 19.3886L5.86523 15.4576" stroke="currentColor" stroke-width="1.5" stroke-linecap="round"></path><path d="M4.75 7V13.75C4.75 14.7165 5.5335 15.5 6.5 15.5C7.4665 15.5 8.25 14.7165 8.25 13.75V11.5" stroke="currentColor" stroke-width="1.5" stroke-linecap="round"></path><path d="M15.75 11.5V12.75C15.75 13.7165 16.5335 14.5 17.5 14.5C18.4665 14.5 19.25 13.7165 19.25 12.75V7" stroke="currentColor" stroke-width="1.5" stroke-linecap="round"></path><path d="M15.75 11.3257V14.875C15.75 15.7725 15.0225 16.5 14.125 16.5C13.2275 16.5 12.5 15.7725 12.5 14.875V9.5" stroke="currentColor" stroke-width="1.5" stroke-linecap="round"></path></g></svg>