<svg width="24px" height="24px" viewBox="0 0 24 24" fill="none" xmlns="http://www.w3.org/2000/svg"><g><circle cx="12" cy="12" r="9.25" stroke="currentColor" stroke-width="1.5"></circle><path d="M13.6303 9.78752L12.6795 7.31531C12.5714 7.03415 12.3012 6.84863 12 6.84863C11.6988 6.84863 11.4286 7.03415 11.3205 7.31531L10.3697 9.78752C10.2935 9.98559 10.137 10.1421 9.93888 10.2183L7.46667 11.1691C7.18552 11.2773 7 11.5474 7 11.8486C7 12.1499 7.18552 12.42 7.46667 12.5281L9.93888 13.479C10.137 13.5552 10.2935 13.7117 10.3697 13.9097L11.3205 16.382C11.4286 16.6631 11.6988 16.8486 12 16.8486C12.3012 16.8486 12.5714 16.6631 12.6795 16.382L13.6303 13.9097C13.7065 13.7117 13.863 13.5552 14.0611 13.479L16.5333 12.5281C16.8145 12.42 17 12.1499 17 11.8486C17 11.5474 16.8145 11.2773 16.5333 11.1691L14.0611 10.2183C13.863 10.1421 13.7065 9.98559 13.6303 9.78752Z" fill="currentColor"></path></g></svg>