<svg width="24px" height="24px" viewBox="0 0 24 24" fill="none" xmlns="http://www.w3.org/2000/svg"><g><path d="M2.75 6.81665L11.25 6.81665" stroke="currentColor" stroke-width="1.5" stroke-linecap="round" stroke-linejoin="round"></path><path d="M7 6.75V4.75" stroke="currentColor" stroke-width="1.5" stroke-linecap="round" stroke-linejoin="round"></path><path d="M11 15.25C6.93498 14.1983 4.84489 11.6138 4.25 7" stroke="currentColor" stroke-width="1.5" stroke-linecap="round" stroke-linejoin="round"></path><path d="M3 15C7.06352 13.9798 9.15382 11.4735 9.75 7" stroke="currentColor" stroke-width="1.5" stroke-linecap="round" stroke-linejoin="round"></path><path d="M13.3438 18.1249H18.6562M20.25 20.2499L16.9355 11.4762C16.6098 10.6141 15.3902 10.6141 15.0645 11.4762L11.75 20.2499" stroke="currentColor" stroke-width="1.5" stroke-linecap="round" stroke-linejoin="round"></path><path d="M19.5655 3.86018L18.9756 2.32667C18.8999 2.12986 18.7109 2 18.5 2C18.2891 2 18.1001 2.12986 18.0244 2.32667L17.4345 3.86018C17.333 4.12427 17.1243 4.33297 16.8602 4.43455L15.3267 5.02436C15.1299 5.10005 15 5.28914 15 5.5C15 5.71086 15.1299 5.89995 15.3267 5.97564L16.8602 6.56545C17.1243 6.66703 17.333 6.87573 17.4345 7.13982L18.0244 8.67333C18.1001 8.87014 18.2891 9 18.5 9C18.7109 9 18.8999 8.87014 18.9756 8.67333L19.5655 7.13982C19.667 6.87573 19.8757 6.66703 20.1398 6.56545L21.6733 5.97564C21.8701 5.89995 22 5.71086 22 5.5C22 5.28914 21.8701 5.10005 21.6733 5.02436L20.1398 4.43455C19.8757 4.33297 19.667 4.12427 19.5655 3.86018Z" fill="currentColor"></path></g></svg>