<svg width="24px" height="24px" viewBox="0 0 24 24" fill="none" xmlns="http://www.w3.org/2000/svg"><g><path d="M11.5 12H12.5M13.25 12C13.25 12.6904 12.6904 13.25 12 13.25C11.3096 13.25 10.75 12.6904 10.75 12C10.75 11.3096 11.3096 10.75 12 10.75C12.6904 10.75 13.25 11.3096 13.25 12Z" stroke="currentColor" stroke-width="1.5" stroke-linecap="round"></path><path d="M7.37418 20.012C4.6098 18.4126 2.75 15.4235 2.75 12C2.75 6.89137 6.89137 2.75 12 2.75C17.1086 2.75 21.25 6.89137 21.25 12C21.25 15.4235 19.3902 18.4126 16.6258 20.0121" stroke="currentColor" stroke-width="1.5" stroke-linecap="round"></path><path d="M9.24679 16.471C7.74854 15.5464 6.75 13.8898 6.75 12C6.75 9.10051 9.10051 6.75 12 6.75C14.8995 6.75 17.25 9.10051 17.25 12C17.25 13.8898 16.2515 15.5464 14.7532 16.471" stroke="currentColor" stroke-width="1.5" stroke-linecap="round"></path></g></svg>