<svg width="24px" height="24px" viewBox="0 0 24 24" fill="none" xmlns="http://www.w3.org/2000/svg"><g><path d="M7.75 19.25V18.75C7.75 17.6454 8.64543 16.75 9.75 16.75H14.25C15.3546 16.75 16.25 17.6454 16.25 18.75V19.25C16.25 20.3546 15.3546 21.25 14.25 21.25H9.75C8.64543 21.25 7.75 20.3546 7.75 19.25Z" stroke="currentColor" stroke-width="1.5" stroke-linecap="round" stroke-linejoin="round"></path><path d="M3.75 10.75L10.9688 16.75M13.0312 16.75L20.25 10.75" stroke="currentColor" stroke-width="1.5" stroke-linecap="round" stroke-linejoin="round"></path><path d="M12 10.75V16.25" stroke="currentColor" stroke-width="1.5" stroke-linecap="round" stroke-linejoin="round"></path><path d="M12 2.75C7.44365 2.75 3.75 6.44365 3.75 11C3.75 11 8.77189 10.4844 12 10.4844C15.2281 10.4844 20.25 11 20.25 11C20.25 6.44365 16.5563 2.75 12 2.75Z" stroke="currentColor" stroke-width="1.5" stroke-linecap="round" stroke-linejoin="round"></path></g></svg>