<svg width="24px" height="24px" viewBox="0 0 24 24" fill="none" xmlns="http://www.w3.org/2000/svg"><g><path d="M5.35437 18.4342C1.84726 14.8141 1.88222 9.0363 5.45926 5.45926C9.07161 1.84691 14.9284 1.84691 18.5407 5.45926C22.1178 9.0363 22.1527 14.8141 18.6456 18.4342" stroke="currentColor" stroke-width="1.5" stroke-linecap="round"></path><path d="M7.19714 16C5.14731 13.5445 5.27512 9.88604 7.58058 7.58058C10.0214 5.13981 13.9786 5.13981 16.4194 7.58058C18.7249 9.88604 18.8527 13.5445 16.8029 16" stroke="currentColor" stroke-width="1.5" stroke-linecap="round"></path><path d="M14.8841 13.5C15.5215 12.2753 15.3261 10.7299 14.2981 9.7019C13.0289 8.4327 10.9711 8.4327 9.7019 9.7019C8.67387 10.7299 8.47852 12.2753 9.11588 13.5" stroke="currentColor" stroke-width="1.5" stroke-linecap="round"></path><path d="M9.00873 20.2502C8.59496 20.2502 8.36025 19.7763 8.61101 19.4471L11.6015 15.5222C11.8016 15.2595 12.1968 15.2595 12.3969 15.5222L15.3874 19.4472C15.6381 19.7763 15.4034 20.2502 14.9896 20.2502H9.00873Z" stroke="currentColor" stroke-width="1.5" stroke-linecap="square" stroke-linejoin="round"></path></g></svg>