<svg width="24px" height="24px" viewBox="0 0 24 24" fill="none" xmlns="http://www.w3.org/2000/svg"><g><path d="M16.75 20.25H7.25C5.317 20.25 3.75 18.683 3.75 16.75V9.75V7.25C3.75 5.317 5.317 3.75 7.25 3.75H16.75C18.683 3.75 20.25 5.317 20.25 7.25V9.75V16.75C20.25 18.683 18.683 20.25 16.75 20.25Z" stroke="currentColor" stroke-width="1.5" stroke-linecap="square" stroke-linejoin="round"></path><path d="M20.25 9.75H3.75" stroke="currentColor" stroke-width="1.5" stroke-linecap="square" stroke-linejoin="round"></path><path d="M12 12.75C12.4142 12.75 12.75 13.0858 12.75 13.5C12.75 13.9142 12.4142 14.25 12 14.25C11.5858 14.25 11.25 13.9142 11.25 13.5C11.25 13.0858 11.5858 12.75 12 12.75Z" fill="currentColor" stroke="currentColor" stroke-width="0.5"></path></g></svg>