<svg width="24px" height="24px" viewBox="0 0 24 24" fill="none" xmlns="http://www.w3.org/2000/svg"><g><path d="M6.25 18C6.66421 18 7 17.6642 7 17.25C7 16.8358 6.66421 16.5 6.25 16.5V18ZM17.75 16.5C17.3358 16.5 17 16.8358 17 17.25C17 17.6642 17.3358 18 17.75 18V16.5ZM21.032 16.158L20.3638 15.8175V15.8175L21.032 16.158ZM20.158 17.032L20.4985 17.7003L20.158 17.032ZM20.158 3.96799L20.4985 3.29973L20.4985 3.29973L20.158 3.96799ZM21.032 4.84202L20.3638 5.18251V5.18251L21.032 4.84202ZM2.96799 4.84202L2.29973 4.50153L2.29973 4.50153L2.96799 4.84202ZM3.84202 3.96799L3.50153 3.29973L3.50153 3.29973L3.84202 3.96799ZM3.84202 17.032L4.18251 16.3638H4.18251L3.84202 17.032ZM2.96799 16.158L3.63624 15.8175L3.63624 15.8175L2.96799 16.158ZM5.95 17.25V18H6.25V17.25V16.5H5.95V17.25ZM2.75 14.05H3.5V6.95H2.75H2V14.05H2.75ZM5.95 3.75V4.5H18.05V3.75V3H5.95V3.75ZM21.25 6.95H20.5V14.05H21.25H22V6.95H21.25ZM18.05 17.25V16.5H17.75V17.25V18H18.05V17.25ZM21.25 14.05H20.5C20.5 14.6224 20.4994 15.0066 20.4752 15.3025C20.4518 15.5896 20.4099 15.7269 20.3638 15.8175L21.032 16.158L21.7003 16.4985C21.8721 16.1612 21.9392 15.8046 21.9703 15.4247C22.0006 15.0535 22 14.5977 22 14.05H21.25ZM18.05 17.25V18C18.5977 18 19.0535 18.0006 19.4247 17.9703C19.8046 17.9392 20.1612 17.8721 20.4985 17.7003L20.158 17.032L19.8175 16.3638C19.7269 16.4099 19.5896 16.4518 19.3025 16.4752C19.0066 16.4994 18.6224 16.5 18.05 16.5V17.25ZM21.032 16.158L20.3638 15.8175C20.2439 16.0527 20.0527 16.2439 19.8175 16.3638L20.158 17.032L20.4985 17.7003C21.0159 17.4366 21.4366 17.0159 21.7003 16.4985L21.032 16.158ZM18.05 3.75V4.5C18.6224 4.5 19.0066 4.50058 19.3025 4.52476C19.5896 4.54822 19.7269 4.5901 19.8175 4.63624L20.158 3.96799L20.4985 3.29973C20.1612 3.12789 19.8046 3.06078 19.4247 3.02974C19.0535 2.99942 18.5977 3 18.05 3V3.75ZM21.25 6.95H22C22 6.40232 22.0006 5.94646 21.9703 5.57533C21.9392 5.19545 21.8721 4.83879 21.7003 4.50153L21.032 4.84202L20.3638 5.18251C20.4099 5.27307 20.4518 5.41035 20.4752 5.69748C20.4994 5.99336 20.5 6.37757 20.5 6.95H21.25ZM20.158 3.96799L19.8175 4.63624C20.0527 4.75608 20.2439 4.94731 20.3638 5.18251L21.032 4.84202L21.7003 4.50153C21.4366 3.98408 21.0159 3.56338 20.4985 3.29973L20.158 3.96799ZM2.75 6.95H3.5C3.5 6.37757 3.50058 5.99336 3.52476 5.69748C3.54822 5.41035 3.5901 5.27307 3.63624 5.18251L2.96799 4.84202L2.29973 4.50153C2.12789 4.83879 2.06078 5.19544 2.02974 5.57533C1.99942 5.94646 2 6.40232 2 6.95H2.75ZM5.95 3.75V3C5.40232 3 4.94646 2.99942 4.57533 3.02974C4.19545 3.06078 3.83879 3.12789 3.50153 3.29973L3.84202 3.96799L4.18251 4.63624C4.27307 4.5901 4.41035 4.54822 4.69748 4.52476C4.99336 4.50058 5.37757 4.5 5.95 4.5V3.75ZM2.96799 4.84202L3.63624 5.18251C3.75608 4.94731 3.94731 4.75608 4.18251 4.63624L3.84202 3.96799L3.50153 3.29973C2.98408 3.56338 2.56338 3.98408 2.29973 4.50153L2.96799 4.84202ZM5.95 17.25V16.5C5.37757 16.5 4.99336 16.4994 4.69748 16.4752C4.41035 16.4518 4.27307 16.4099 4.18251 16.3638L3.84202 17.032L3.50153 17.7003C3.83879 17.8721 4.19545 17.9392 4.57533 17.9703C4.94646 18.0006 5.40232 18 5.95 18V17.25ZM2.75 14.05H2C2 14.5977 1.99942 15.0535 2.02974 15.4247C2.06078 15.8046 2.12789 16.1612 2.29973 16.4985L2.96799 16.158L3.63624 15.8175C3.5901 15.7269 3.54822 15.5896 3.52476 15.3025C3.50058 15.0066 3.5 14.6224 3.5 14.05H2.75ZM3.84202 17.032L4.18251 16.3638C3.94731 16.2439 3.75608 16.0527 3.63624 15.8175L2.96799 16.158L2.29973 16.4985C2.56338 17.0159 2.98408 17.4366 3.50153 17.7003L3.84202 17.032Z" fill="currentColor"></path><path d="M12 15L12.5966 14.5455C12.4547 14.3593 12.2341 14.25 12 14.25C11.7659 14.25 11.5453 14.3593 11.4034 14.5455L12 15ZM8 20.25L7.40343 19.7955C7.23064 20.0222 7.20138 20.3274 7.32791 20.5829C7.45445 20.8384 7.7149 21 8 21V20.25ZM16 20.25V21C16.2851 21 16.5456 20.8384 16.6721 20.5829C16.7986 20.3274 16.7694 20.0222 16.5966 19.7955L16 20.25ZM12 15L11.4034 14.5455L7.40343 19.7955L8 20.25L8.59657 20.7045L12.5966 15.4545L12 15ZM8 20.25V21H16V20.25V19.5H8V20.25ZM16 20.25L16.5966 19.7955L12.5966 14.5455L12 15L11.4034 15.4545L15.4034 20.7045L16 20.25Z" fill="currentColor"></path></g></svg>