<svg width="24px" height="24px" viewBox="0 0 24 24" fill="none" xmlns="http://www.w3.org/2000/svg"><g><path d="M4.75 20.25V13.75H7.375C8.41053 13.75 9.25 14.5895 9.25 15.625V15.625C9.25 16.6605 8.41053 17.5 7.375 17.5H5.3125" stroke="currentColor" stroke-width="1.5" stroke-linecap="round" stroke-linejoin="round"></path><path d="M9.25988 20.25V20C9.25988 18.8603 8.5 17.5 6.5 17.5" stroke="currentColor" stroke-width="1.5" stroke-linecap="round"></path><path d="M14.4287 3.75C17.0914 3.75007 19.25 5.87669 19.25 8.5V18.75C19.25 19.5784 18.5784 20.25 17.75 20.25C16.9216 20.25 16.25 19.5784 16.25 18.75V12.8984C15.688 13.1246 15.0733 13.25 14.4287 13.25C13.8221 13.25 13.2417 13.1394 12.707 12.9377C12.0781 12.7005 11.75 12.0447 11.75 11.3725V5.62663C11.75 4.95437 12.0782 4.29854 12.7073 4.06162C13.2419 3.86028 13.8223 3.75 14.4287 3.75Z" stroke="currentColor" stroke-width="1.5" stroke-linecap="round" stroke-linejoin="round"></path><path d="M16.25 13V11.75" stroke="currentColor" stroke-width="1.5" stroke-linecap="round" stroke-linejoin="round"></path></g></svg>