<svg width="24px" height="24px" viewBox="0 0 24 24" fill="none" xmlns="http://www.w3.org/2000/svg"><g><path d="M15.75 13.75V20.25H19.25" stroke="currentColor" stroke-width="1.5" stroke-linecap="round" stroke-linejoin="round"></path><path d="M7.75 12.8984V18.75C7.75 19.5784 7.07843 20.25 6.25 20.25C5.42157 20.25 4.75 19.5784 4.75 18.75V8.5C4.75 5.87669 6.90855 3.75007 9.57129 3.75C10.1777 3.75 10.7581 3.86028 11.2927 4.06162C11.9218 4.29854 12.25 4.95437 12.25 5.62663V11.3725C12.25 12.0447 11.9219 12.7005 11.293 12.9377C10.7583 13.1394 10.1779 13.25 9.57129 13.25C8.92672 13.25 8.31201 13.1246 7.75 12.8984ZM7.75 12.8984V11.75" stroke="currentColor" stroke-width="1.5" stroke-linecap="round" stroke-linejoin="round"></path></g></svg>