<svg width="24px" height="24px" viewBox="0 0 24 24" fill="none" xmlns="http://www.w3.org/2000/svg"><g><path d="M16.4812 3.92157L13.5417 6.86111L5.99414 4.19728C5.26785 3.94094 4.4589 4.12443 3.91429 4.66905L2.75 5.83333L9.43056 10.9722L7.375 13.0278H6.14787C5.61744 13.0278 5.10873 13.2385 4.73366 13.6136L2.75 15.5972L6.0099 16.8197C6.55075 17.0225 6.9775 17.4493 7.18031 17.9901L8.40278 21.25L10.3864 19.2663C10.7615 18.8913 10.9722 18.3826 10.9722 17.8521V16.625L13.0278 14.5694L18.1667 21.25L19.331 20.0857C19.8756 19.5411 20.0591 18.7321 19.8027 18.0059L17.1389 10.4583L20.0784 7.5188C20.8286 6.76865 21.25 5.75123 21.25 4.69037V2.75H19.3096C18.2488 2.75 17.2314 3.17143 16.4812 3.92157Z" stroke="currentColor" stroke-width="1.5" stroke-linecap="round" stroke-linejoin="round"></path></g></svg>