<svg width="24px" height="24px" viewBox="0 0 24 24" fill="none" xmlns="http://www.w3.org/2000/svg"><g><path d="M7.25 12.8984V18.75C7.25 19.5784 7.92157 20.25 8.75 20.25C9.57843 20.25 10.25 19.5784 10.25 18.75V8.5C10.25 5.87669 8.09145 3.75007 5.42871 3.75C4.82228 3.75 4.24194 3.86028 3.7073 4.06162C3.07817 4.29854 2.75 4.95437 2.75 5.62663V11.3725C2.75 12.0447 3.07807 12.7005 3.707 12.9377C4.24167 13.1394 4.82205 13.25 5.42871 13.25C6.07328 13.25 6.68799 13.1246 7.25 12.8984ZM7.25 12.8984V11.75" stroke="currentColor" stroke-width="1.5" stroke-linecap="round" stroke-linejoin="round"></path><path d="M16.75 12.8984V18.75C16.75 19.5784 16.0784 20.25 15.25 20.25C14.4216 20.25 13.75 19.5784 13.75 18.75V8.5C13.75 5.87669 15.9086 3.75007 18.5713 3.75C19.1777 3.75 19.7581 3.86028 20.2927 4.06162C20.9218 4.29854 21.25 4.95437 21.25 5.62663V11.3725C21.25 12.0447 20.9219 12.7005 20.293 12.9377C19.7583 13.1394 19.1779 13.25 18.5713 13.25C17.9267 13.25 17.312 13.1246 16.75 12.8984ZM16.75 12.8984V11.75" stroke="currentColor" stroke-width="1.5" stroke-linecap="round" stroke-linejoin="round"></path></g></svg>