<svg width="24px" height="24px" viewBox="0 0 24 24" fill="none" xmlns="http://www.w3.org/2000/svg"><g><path d="M2.75 19.25H21.25" stroke="currentColor" stroke-width="1.5" stroke-linecap="round" stroke-linejoin="round"></path><path d="M7.18017 4.28639C6.93274 3.73667 6.45056 3.32789 5.86777 3.17375L4.26557 2.75L4.16025 7.12582L3.6406 7.39206C3.21775 7.6087 2.91176 8.00056 2.8041 8.46332C2.55149 9.54905 3.20715 10.6389 4.27905 10.9151L8.1347 11.9084L7.11121 13.8357C6.80905 14.4047 7.11588 15.1067 7.73871 15.2715L8.78479 15.5481C9.27524 15.6778 9.79665 15.6163 10.2435 15.376L13.9201 13.3988L19.2281 14.6511C19.8834 14.8058 20.5662 14.5428 20.9522 13.9871C21.4083 13.3304 21.3337 12.439 20.7749 11.8687L19.16 10.2207C18.899 9.95432 18.5742 9.76609 18.214 9.67458C16.5507 9.25188 11.5378 7.97612 9.42202 7.41654C8.82289 7.25808 8.32818 6.83698 8.0717 6.26715L7.18017 4.28639Z" stroke="currentColor" stroke-width="1.5" stroke-linecap="square" stroke-linejoin="round"></path></g></svg>