<svg width="24px" height="24px" viewBox="0 0 24 24" fill="none" xmlns="http://www.w3.org/2000/svg"><g><path d="M3.2661 6.72294L1.75 7.2837L4.11619 10.8437L3.90733 11.2356C3.64904 11.7202 3.61769 12.2941 3.82163 12.8039C4.19844 13.7459 5.25973 14.2133 6.20906 13.8553L10 12.4256L10.2502 14.5113C10.3272 15.1531 10.9837 15.5544 11.59 15.3301L12.5568 14.9725C13.0292 14.7978 13.4183 14.4513 13.6463 14.0022L15.5 10.3513L20.4817 8.35611C21.0968 8.10979 21.5 7.51394 21.5 6.85141C21.5 6.06858 20.9405 5.39761 20.1704 5.2569L17.9451 4.85029C17.5854 4.78458 17.2181 4.81742 16.8764 4.94754C15.2983 5.54857 10.5415 7.35838 8.52196 8.10535C7.95008 8.31688 7.31528 8.25934 6.78927 7.9483L4.97788 6.87719C4.4596 6.57072 3.83083 6.51406 3.2661 6.72294Z" stroke="currentColor" stroke-width="1.5" stroke-linecap="round" stroke-linejoin="round"></path><path d="M2.75 19.25H21.25" stroke="currentColor" stroke-width="1.5" stroke-linecap="round" stroke-linejoin="round"></path></g></svg>