<svg width="24px" height="24px" viewBox="0 0 24 24" fill="none" xmlns="http://www.w3.org/2000/svg"><g><path d="M20.25 10.9605C20.25 17.1184 14.0625 22.25 12 22.25C9.9375 22.25 3.75 17.1184 3.75 10.9605C3.75 6.42598 7.44365 2.75 12 2.75C16.5563 2.75 20.25 6.42598 20.25 10.9605Z" stroke="currentColor" stroke-width="1.5" stroke-linecap="round" stroke-linejoin="round"></path><path d="M7.25 10.7964C10.0742 10.7965 10.25 11.7025 10.25 13.1964C7.67245 13.1964 7.25 12.2964 7.25 10.7964Z" stroke="currentColor" stroke-width="1.5" stroke-linecap="round" stroke-linejoin="round"></path><path d="M8 11.4979L9.5 12.4949" stroke="currentColor" stroke-width="1.5" stroke-linecap="round" stroke-linejoin="round"></path><path d="M16.75 10.7964C13.9258 10.7965 13.75 11.7025 13.75 13.1964C16.3275 13.1964 16.75 12.2964 16.75 10.7964Z" stroke="currentColor" stroke-width="1.5" stroke-linecap="round" stroke-linejoin="round"></path><path d="M16 11.4979L14.5 12.4949" stroke="currentColor" stroke-width="1.5" stroke-linecap="round" stroke-linejoin="round"></path></g></svg>