<svg width="24px" height="24px" viewBox="0 0 24 24" fill="none" xmlns="http://www.w3.org/2000/svg"><g><path d="M19.25 4.75H4.75C3.64543 4.75 2.75 5.64543 2.75 6.75V17.25C2.75 18.3546 3.64543 19.25 4.75 19.25H19.25C20.3546 19.25 21.25 18.3546 21.25 17.25V6.75C21.25 5.64543 20.3546 4.75 19.25 4.75Z" stroke="currentColor" stroke-width="1.5" stroke-linecap="square" stroke-linejoin="round"></path><path d="M5.38159 15.0916C4.90015 15.0916 4.60547 14.8176 4.60547 14.3652C4.60547 14.2366 4.64697 14.0498 4.71338 13.8672L6.19092 9.80811C6.41089 9.198 6.78027 8.91992 7.37378 8.91992C8.00049 8.91992 8.36572 9.18555 8.59399 9.80811L10.084 13.8672C10.1545 14.0623 10.1836 14.2034 10.1836 14.3611C10.1836 14.7886 9.86401 15.0916 9.41992 15.0916C8.97998 15.0916 8.75171 14.8923 8.6189 14.4026L8.41553 13.7385H6.36523L6.16187 14.3777C6.0166 14.884 5.78833 15.0916 5.38159 15.0916ZM6.66821 12.5889H8.0835L7.38208 10.2812H7.34888L6.66821 12.5889Z" fill="currentColor"></path><path d="M11.6819 15.0002C11.2004 15.0002 10.9182 14.7097 10.9182 14.2034V9.71265C10.9182 9.2063 11.2004 8.91992 11.6819 8.91992C12.1633 8.91992 12.4414 9.2063 12.4414 9.71265V13.7717H14.3174C14.7241 13.7717 14.9939 13.9958 14.9939 14.386C14.9939 14.7761 14.7283 15.0002 14.3174 15.0002H11.6819Z" fill="currentColor"></path><path d="M17.0691 15.0916C16.5876 15.0916 16.3096 14.8052 16.3096 14.2988V10.2397H15.2595C14.8528 10.2397 14.5789 10.0156 14.5789 9.62549C14.5789 9.23535 14.8445 9.01123 15.2595 9.01123H18.8828C19.2937 9.01123 19.5593 9.23535 19.5593 9.62549C19.5593 10.0156 19.2854 10.2397 18.8828 10.2397H17.8286V14.2988C17.8286 14.8052 17.5505 15.0916 17.0691 15.0916Z" fill="currentColor"></path></g></svg>