<svg width="24px" height="24px" viewBox="0 0 24 24" fill="none" xmlns="http://www.w3.org/2000/svg"><g><path d="M10.1765 16.3094C10.6964 15.9563 11.3241 15.75 12 15.75C12.6759 15.75 13.3036 15.9563 13.8235 16.3094M10.1765 16.3094C9.85985 14.8462 8.55794 13.75 7 13.75C5.20507 13.75 3.75 15.2051 3.75 17C3.75 18.7949 5.20507 20.25 7 20.25C8.79493 20.25 10.25 18.7949 10.25 17C10.25 16.763 10.2246 16.532 10.1765 16.3094ZM13.8235 16.3094C13.7754 16.532 13.75 16.763 13.75 17C13.75 18.7949 15.2051 20.25 17 20.25C18.7949 20.25 20.25 18.7949 20.25 17C20.25 15.2051 18.7949 13.75 17 13.75C15.4421 13.75 14.1401 14.8462 13.8235 16.3094ZM2.75 11.25H4.75M4.75 11.25L5.51858 5.48567C5.65106 4.49206 6.49863 3.75 7.50103 3.75H16.499C17.5014 3.75 18.3489 4.49206 18.4814 5.48567L19.25 11.25M4.75 11.25H19.25M19.25 11.25H21.25" stroke="currentColor" stroke-width="1.5" stroke-linecap="round" stroke-linejoin="round"></path></g></svg>