<svg width="24px" height="24px" viewBox="0 0 24 24" fill="none" xmlns="http://www.w3.org/2000/svg"><g><path d="M19.25 4.75H2.75C2.19772 4.75 1.75 5.19772 1.75 5.75V6.55672C1.75 7.34744 2.21587 8.06393 2.93859 8.38473L7.56141 10.4367C8.28413 10.7575 8.75 11.474 8.75 12.2647V12.5233C8.75 13.4348 8.13371 14.231 7.25132 14.4595L6.24868 14.7191C5.36629 14.9476 4.75 15.7438 4.75 16.6552V18.25C4.75 18.8023 5.19772 19.25 5.75 19.25H19.25C19.8023 19.25 20.25 18.8023 20.25 18.25V16.6552C20.25 15.7438 19.6337 14.9476 18.7513 14.7191L17.7487 14.4595C16.8663 14.231 16.25 13.4293 16.25 12.5179C16.25 11.6064 16.8663 10.8047 17.7487 10.5762L18.7513 10.3166C19.6337 10.0881 20.25 9.29196 20.25 8.38047V5.75C20.25 5.19772 19.8023 4.75 19.25 4.75Z" stroke="currentColor" stroke-width="1.5"></path><path d="M6 5V9.5" stroke="currentColor" stroke-width="1.5"></path></g></svg>