<svg width="24px" height="24px" viewBox="0 0 24 24" fill="none" xmlns="http://www.w3.org/2000/svg"><g><path fill-rule="evenodd" clip-rule="evenodd" d="M6.48653 2.75H17.5112C19.576 2.75 21.2477 4.42194 21.25 6.487V17.513C21.25 19.5781 19.576 21.25 17.5135 21.25H6.48653C4.42173 21.25 2.75 19.5781 2.75 17.5153V6.487C2.75 4.42194 4.42173 2.75 6.48653 2.75ZM12.2948 6.35287L11.9202 7.00037L11.5526 6.35055C11.3167 5.94587 10.8057 5.80943 10.4011 6.04068C9.99646 6.27655 9.86004 6.78762 10.0913 7.1923L10.9491 8.68155L8.20218 13.443H6.05645C5.58938 13.443 5.21481 13.8176 5.21481 14.2847C5.21481 14.7519 5.58938 15.1265 6.05645 15.1265H13.7099C14.0775 14.4374 13.6035 13.443 12.7572 13.443H10.1468L13.7561 7.19462C13.9873 6.78993 13.8509 6.27424 13.4463 6.04299C13.0416 5.81174 12.526 5.94818 12.2948 6.35287ZM7.8646 17.3974L8.67387 15.9937C8.23687 15.4664 7.68425 15.3046 7.00446 15.515L6.40328 16.5556C6.17206 16.9603 6.30848 17.476 6.71312 17.7072C7.11775 17.9385 7.63338 17.8021 7.8646 17.3974ZM17.8325 13.4476H15.6429C15.4752 13.1572 15.3139 12.8778 15.159 12.6095C14.2952 11.1134 13.6305 9.96189 13.1619 9.15793C12.6647 9.57187 12.1607 10.7929 12.8659 12.0092C13.1717 12.5399 13.5463 13.1885 13.9893 13.9554C14.5444 14.9166 15.2068 16.0636 15.9758 17.3974C16.2117 17.8021 16.7227 17.9385 17.1273 17.7072C17.532 17.4714 17.6684 16.9603 17.4372 16.5556L16.6163 15.1311H17.8325C18.2996 15.1311 18.6742 14.7565 18.6742 14.2894C18.6742 13.8222 18.2996 13.4476 17.8325 13.4476Z" fill="currentColor"></path></g></svg>