<svg width="24px" height="24px" viewBox="0 0 24 24" fill="none" xmlns="http://www.w3.org/2000/svg"><g><path d="M9.48047 4.13599L11.5098 2.99451C11.8142 2.82328 12.1859 2.82328 12.4903 2.99451L14.5196 4.13599" stroke="currentColor" stroke-width="1.5" stroke-linecap="round" stroke-linejoin="round"></path><path d="M17.5703 5.85205L19.7403 7.07268C20.0552 7.2498 20.2501 7.58298 20.2501 7.94425V10.25" stroke="currentColor" stroke-width="1.5" stroke-linecap="round" stroke-linejoin="round"></path><path d="M20.25 13.75V16.0558C20.25 16.4171 20.0552 16.7502 19.7403 16.9274L17.5703 18.148" stroke="currentColor" stroke-width="1.5" stroke-linecap="round" stroke-linejoin="round"></path><path d="M14.5196 19.864L12.4903 21.0055C12.1859 21.1767 11.8142 21.1767 11.5098 21.0055L9.48047 19.864" stroke="currentColor" stroke-width="1.5" stroke-linecap="round" stroke-linejoin="round"></path><path d="M6.42973 18.148L4.25974 16.9274C3.94486 16.7502 3.75 16.4171 3.75 16.0558V13.75" stroke="currentColor" stroke-width="1.5" stroke-linecap="round" stroke-linejoin="round"></path><path d="M3.75 10.25V7.94425C3.75 7.58298 3.94486 7.2498 4.25974 7.07268L6.42974 5.85205" stroke="currentColor" stroke-width="1.5" stroke-linecap="round" stroke-linejoin="round"></path><path d="M12.0003 14.25V12M12.0003 12L13.9489 10.875M12.0003 12L10.0518 10.875" stroke="currentColor" stroke-width="1.5" stroke-linecap="round" stroke-linejoin="round"></path><path d="M12 3.21875V6.25" stroke="currentColor" stroke-width="1.5" stroke-linecap="round" stroke-linejoin="round"></path><path d="M12 17.7031V20.7812" stroke="currentColor" stroke-width="1.5" stroke-linecap="round" stroke-linejoin="round"></path><path d="M6.84847 14.8516L4.13379 16.4189" stroke="currentColor" stroke-width="1.5" stroke-linecap="round" stroke-linejoin="round"></path><path d="M4.13379 7.58112L6.80788 9.125" stroke="currentColor" stroke-width="1.5" stroke-linecap="round" stroke-linejoin="round"></path><path d="M19.8655 7.58112L17.1914 9.125" stroke="currentColor" stroke-width="1.5" stroke-linecap="round" stroke-linejoin="round"></path><path d="M17.1514 14.8516L19.866 16.4189" stroke="currentColor" stroke-width="1.5" stroke-linecap="round" stroke-linejoin="round"></path></g></svg>