<svg width="24px" height="24px" viewBox="0 0 24 24" fill="none" xmlns="http://www.w3.org/2000/svg"><g><path d="M6.75 10.1606C6.75 9.4429 7.13457 8.78021 7.75772 8.42412L11.0077 6.56698C11.6226 6.21563 12.3774 6.21563 12.9923 6.56698L16.2423 8.42412C16.8654 8.78021 17.25 9.4429 17.25 10.1606V13.8393C17.25 14.557 16.8654 15.2197 16.2423 15.5758L12.9923 17.4329C12.3774 17.7843 11.6226 17.7843 11.0077 17.4329L7.75772 15.5758C7.13457 15.2197 6.75 14.557 6.75 13.8393V10.1606Z" stroke="currentColor" stroke-width="1.5" stroke-linecap="square"></path><path d="M17.25 9L12 12M12 12L6.75 9M12 12V18" stroke="currentColor" stroke-width="1.5"></path><path d="M4 4.25C4.13807 4.25 4.25 4.13807 4.25 4C4.25 3.86193 4.13807 3.75 4 3.75C3.86193 3.75 3.75 3.86193 3.75 4C3.75 4.13807 3.86193 4.25 4 4.25Z" stroke="currentColor" stroke-width="1.5" stroke-linecap="square"></path><path d="M4 3.99999V3.98999" stroke="currentColor" stroke-width="1.5" stroke-linecap="round"></path><path d="M20 4.25C20.1381 4.25 20.25 4.13807 20.25 4C20.25 3.86193 20.1381 3.75 20 3.75C19.8619 3.75 19.75 3.86193 19.75 4C19.75 4.13807 19.8619 4.25 20 4.25Z" stroke="currentColor" stroke-width="1.5" stroke-linecap="square"></path><path d="M20 3.99999V3.98999" stroke="currentColor" stroke-width="1.5" stroke-linecap="round"></path><path d="M4 20.25C4.13807 20.25 4.25 20.1381 4.25 20C4.25 19.8619 4.13807 19.75 4 19.75C3.86193 19.75 3.75 19.8619 3.75 20C3.75 20.1381 3.86193 20.25 4 20.25Z" stroke="currentColor" stroke-width="1.5" stroke-linecap="square"></path><path d="M4 20V19.99" stroke="currentColor" stroke-width="1.5" stroke-linecap="round"></path><path d="M20 20.25C20.1381 20.25 20.25 20.1381 20.25 20C20.25 19.8619 20.1381 19.75 20 19.75C19.8619 19.75 19.75 19.8619 19.75 20C19.75 20.1381 19.8619 20.25 20 20.25Z" stroke="currentColor" stroke-width="1.5" stroke-linecap="square"></path><path d="M20 20V19.99" stroke="currentColor" stroke-width="1.5" stroke-linecap="round"></path></g></svg>