<svg width="24px" height="24px" viewBox="0 0 24 24" fill="none" xmlns="http://www.w3.org/2000/svg"><g><path d="M8.25 20.25H5.75C4.64543 20.25 3.75 19.3546 3.75 18.25V15.75" stroke="currentColor" stroke-width="1.5" stroke-linecap="round" stroke-linejoin="round"></path><path d="M15.75 20.25H18.25C19.3546 20.25 20.25 19.3546 20.25 18.25V15.75" stroke="currentColor" stroke-width="1.5" stroke-linecap="round" stroke-linejoin="round"></path><path d="M3.75 8.25V5.75C3.75 4.64543 4.64543 3.75 5.75 3.75H8.25" stroke="currentColor" stroke-width="1.5" stroke-linecap="round" stroke-linejoin="round"></path><path d="M15.75 3.75H18.25C19.3546 3.75 20.25 4.64543 20.25 5.75V8.25" stroke="currentColor" stroke-width="1.5" stroke-linecap="round" stroke-linejoin="round"></path><path d="M8.75386 9.56915L11.5039 7.99772C11.8113 7.82205 12.1887 7.82205 12.4961 7.99772L15.2461 9.56915C15.5577 9.74719 15.75 10.0785 15.75 10.4374V13.5625C15.75 13.9213 15.5577 14.2527 15.2461 14.4307L12.4961 16.0021C12.1887 16.1778 11.8113 16.1778 11.5039 16.0021L8.75386 14.4307C8.44229 14.2527 8.25 13.9213 8.25 13.5625V10.4374C8.25 10.0785 8.44229 9.7472 8.75386 9.56915Z" stroke="currentColor" stroke-width="1.5" stroke-linecap="round" stroke-linejoin="round"></path><path d="M15.25 10.3571L12 11.9999M12 11.9999L8.75 10.3571M12 11.9999V15.2856" stroke="currentColor" stroke-width="1.5" stroke-linecap="round" stroke-linejoin="round"></path></g></svg>