<svg width="24px" height="24px" viewBox="0 0 24 24" fill="none" xmlns="http://www.w3.org/2000/svg"><g><path d="M1.75 7.75C1.75 6.64543 2.64543 5.75 3.75 5.75H20.25C21.3546 5.75 22.25 6.64543 22.25 7.75V17.25C22.25 18.3546 21.3546 19.25 20.25 19.25H16.8652C16.3725 19.25 15.8971 19.0681 15.5302 18.7393L12.6675 16.1733C12.2876 15.8328 11.7124 15.8328 11.3325 16.1733L8.46977 18.7393C8.10289 19.0681 7.62754 19.25 7.13485 19.25H3.75C2.64543 19.25 1.75 18.3546 1.75 17.25V7.75Z" stroke="currentColor" stroke-width="1.5"></path><path d="M9.25 11.5C9.25 12.4665 8.4665 13.25 7.5 13.25C6.5335 13.25 5.75 12.4665 5.75 11.5C5.75 10.5335 6.5335 9.75 7.5 9.75C8.4665 9.75 9.25 10.5335 9.25 11.5Z" stroke="currentColor" stroke-width="1.5"></path><path d="M18.25 11.5C18.25 12.4665 17.4665 13.25 16.5 13.25C15.5335 13.25 14.75 12.4665 14.75 11.5C14.75 10.5335 15.5335 9.75 16.5 9.75C17.4665 9.75 18.25 10.5335 18.25 11.5Z" stroke="currentColor" stroke-width="1.5"></path></g></svg>