<svg width="24px" height="24px" viewBox="0 0 24 24" fill="none" xmlns="http://www.w3.org/2000/svg"><g><path d="M3.75 13.75C3.75 12.6454 4.64543 11.75 5.75 11.75V11.75C6.85457 11.75 7.75 12.6454 7.75 13.75V14.3214H16.25V13.75C16.25 12.6454 17.1454 11.75 18.25 11.75V11.75C19.3546 11.75 20.25 12.6454 20.25 13.75V16.25C20.25 17.3546 19.3546 18.25 18.25 18.25H5.75C4.64543 18.25 3.75 17.3546 3.75 16.25V13.75Z" stroke="currentColor" stroke-width="1.5" stroke-linecap="round" stroke-linejoin="round"></path><path d="M18.25 11.25V5.75C18.25 4.64543 17.3546 3.75 16.25 3.75H7.75C6.64543 3.75 5.75 4.64543 5.75 5.75V11.25" stroke="currentColor" stroke-width="1.5" stroke-linecap="round" stroke-linejoin="round"></path><path d="M5.75 18.25V20.25" stroke="currentColor" stroke-width="1.5" stroke-linecap="round" stroke-linejoin="round"></path><path d="M18.25 18.25V20.25" stroke="currentColor" stroke-width="1.5" stroke-linecap="round" stroke-linejoin="round"></path></g></svg>