<svg width="24px" height="24px" viewBox="0 0 24 24" fill="none" xmlns="http://www.w3.org/2000/svg"><g><path d="M21.25 6.25V18C21.25 18.5604 20.4078 19.0729 19.0145 19.4668C17.8411 19.7985 16.75 18.8377 16.75 17.6182V9.66054C16.75 8.66747 17.4836 7.84147 18.45 7.61276C20.1772 7.20399 21.25 6.63247 21.25 6C21.25 4.75736 17.1086 3.75 12 3.75C6.89137 3.75 2.75 4.75736 2.75 6C2.75 6.63247 3.82283 7.20399 5.54997 7.61276C6.51635 7.84147 7.25 8.66747 7.25 9.66054V17.6182C7.25 18.8377 6.15893 19.7985 4.98546 19.4668C3.59218 19.0729 2.75 18.5604 2.75 18V6.25" stroke="currentColor" stroke-width="1.5" stroke-linecap="round" stroke-linejoin="round"></path><path d="M16.2415 16C14.9709 15.8402 13.5286 15.75 11.9997 15.75C10.4707 15.75 9.02839 15.8402 7.75781 16" stroke="currentColor" stroke-width="1.5" stroke-linecap="round" stroke-linejoin="round"></path></g></svg>