<svg width="24px" height="24px" viewBox="0 0 24 24" fill="none" xmlns="http://www.w3.org/2000/svg"><g><path d="M19.2617 20.25V16.25H15.2617" stroke="currentColor" stroke-width="1.5" stroke-linecap="round" stroke-linejoin="round"></path><path d="M4.75 3.75V7.75H8.75" stroke="currentColor" stroke-width="1.5" stroke-linecap="round" stroke-linejoin="round"></path><path d="M3.81383 10.9688C3.7717 11.3066 3.75 11.6508 3.75 12C3.75 16.5563 7.44365 20.25 12 20.25C14.6766 20.25 17.1111 18.9754 18.6322 17" stroke="currentColor" stroke-width="1.5" stroke-linecap="round" stroke-linejoin="round"></path><path d="M11.9998 3.75C9.32326 3.75 6.88871 5.02463 5.36768 7" stroke="currentColor" stroke-width="1.5" stroke-linecap="round" stroke-linejoin="round"></path><path d="M19.2405 6.18518L18.5436 4.37334C18.4571 4.14842 18.241 4 18 4C17.759 4 17.5429 4.14842 17.4564 4.37334L16.7595 6.18518C16.658 6.44927 16.4493 6.65797 16.1852 6.75955L14.3733 7.45641C14.1484 7.54292 14 7.75901 14 8C14 8.24099 14.1484 8.45708 14.3733 8.54359L16.1852 9.24045C16.4493 9.34203 16.658 9.55073 16.7595 9.81482L17.4564 11.6267C17.5429 11.8516 17.759 12 18 12C18.241 12 18.4571 11.8516 18.5436 11.6267L19.2405 9.81482C19.342 9.55073 19.5507 9.34203 19.8148 9.24045L21.6267 8.54359C21.8516 8.45708 22 8.24099 22 8C22 7.75901 21.8516 7.54292 21.6267 7.45641L19.8148 6.75955C19.5507 6.65797 19.342 6.44927 19.2405 6.18518Z" fill="currentColor"></path></g></svg>