<svg width="24px" height="24px" viewBox="0 0 24 24" fill="none" xmlns="http://www.w3.org/2000/svg"><g><path d="M9 5.24985L11.2929 2.95696C11.6834 2.56643 12.3166 2.56643 12.7071 2.95696L15 5.24985" stroke="currentColor" stroke-width="1.5" stroke-linecap="round" stroke-linejoin="round"></path><path d="M5.24985 9L2.95696 11.2929C2.56643 11.6834 2.56643 12.3166 2.95696 12.7071L5.24985 15" stroke="currentColor" stroke-width="1.5" stroke-linecap="round" stroke-linejoin="round"></path><path d="M18.75 9L21.0429 11.2929C21.4334 11.6834 21.4334 12.3166 21.0429 12.7071L18.75 15" stroke="currentColor" stroke-width="1.5" stroke-linecap="round" stroke-linejoin="round"></path><path d="M15 18.75L12.7071 21.0429C12.3166 21.4334 11.6834 21.4334 11.2929 21.0429L9 18.75" stroke="currentColor" stroke-width="1.5" stroke-linecap="round" stroke-linejoin="round"></path><path d="M12 4V12M12 12V20M12 12H4M12 12H20" stroke="currentColor" stroke-width="1.5" stroke-linecap="round" stroke-linejoin="round"></path></g></svg>