<svg width="24px" height="24px" viewBox="0 0 24 24" fill="none" xmlns="http://www.w3.org/2000/svg"><g><path fill-rule="evenodd" clip-rule="evenodd" d="M5.30315 13C4.24945 13 3.6685 14.2237 4.33457 15.0402L10.2565 22.2993C11.1569 23.403 12.8431 23.403 13.7434 22.2993L19.6654 15.0402C20.3315 14.2237 19.7505 13 18.6968 13L16 13V4.75C16 3.23122 14.7688 2 13.25 2L10.75 2C9.2312 2 7.99998 3.23122 7.99998 4.75L7.99998 13H5.30315ZM5.82973 14.5H8.74998C9.16419 14.5 9.49998 14.1642 9.49998 13.75V4.75C9.49998 4.05964 10.0596 3.5 10.75 3.5L13.25 3.5C13.9403 3.5 14.5 4.05964 14.5 4.75V13.75C14.5 14.1642 14.8358 14.5 15.25 14.5H18.1702L12.5811 21.3512C12.281 21.719 11.7189 21.719 11.4188 21.3512L5.82973 14.5Z" fill="currentColor"></path></g></svg>