<svg width="24px" height="24px" viewBox="0 0 24 24" fill="none" xmlns="http://www.w3.org/2000/svg"><g><path d="M19.7978 8.75H13.75C13.4739 8.75 13.25 8.52614 13.25 8.25V2.3557C13.25 1.86505 12.6169 1.66792 12.3384 2.07183L3.7906 14.4661C3.56185 14.7978 3.79928 15.25 4.2022 15.25H10.25C10.5261 15.25 10.75 15.4739 10.75 15.75V21.6443C10.75 22.135 11.383 22.3321 11.6616 21.9282L20.2094 9.53387C20.4382 9.20218 20.2007 8.75 19.7978 8.75Z" stroke="currentColor" stroke-width="1.5" stroke-linejoin="round"></path><path d="M16.1069 21.8641C15.8938 22.2193 16.0089 22.68 16.3641 22.8931C16.7193 23.1062 17.18 22.9911 17.3931 22.6359L16.1069 21.8641ZM21.25 14.75L21.9854 14.6029C21.9247 14.2991 21.6833 14.0639 21.378 14.011C21.0727 13.9581 20.7663 14.0984 20.6069 14.3641L21.25 14.75ZM22.0146 22.3971C22.0958 22.8033 22.4909 23.0667 22.8971 22.9854C23.3033 22.9042 23.5667 22.5091 23.4854 22.1029L22.0146 22.3971ZM17.3931 22.6359L21.8931 15.1359L20.6069 14.3641L16.1069 21.8641L17.3931 22.6359ZM20.5146 14.8971L22.0146 22.3971L23.4854 22.1029L21.9854 14.6029L20.5146 14.8971ZM18.25 21H22V19.5H18.25V21Z" fill="currentColor"></path></g></svg>