<svg width="24px" height="24px" viewBox="0 0 24 24" fill="none" xmlns="http://www.w3.org/2000/svg"><g><path d="M12.7703 14.3126C12.7703 16.0156 11.3898 17.396 9.68691 17.396C7.984 17.396 6.60352 16.0156 6.60352 14.3126C6.60352 12.6097 7.984 11.2292 9.68691 11.2292C11.3898 11.2292 12.7703 12.6097 12.7703 14.3126Z" stroke="currentColor" stroke-width="1.5" stroke-linecap="square"></path><path fill-rule="evenodd" clip-rule="evenodd" d="M4.83047 19.2024L4.83606 19.208C7.72308 22.1002 12.5855 21.8365 15.3874 18.9444C17.2883 16.9823 19.2219 13.8906 20.3247 10.9333C20.8761 9.4546 21.22 8.00917 21.2481 6.75507C21.2763 5.49962 20.9879 4.43712 20.2767 3.7246C19.5657 3.01247 18.5058 2.72365 17.253 2.7516C16.0012 2.77952 14.5579 3.12369 13.0808 3.67649C10.1265 4.78208 7.03691 6.72225 5.07395 8.63627C2.14543 11.4918 1.8988 16.3544 4.8248 19.1968L4.83047 19.2024Z" stroke="currentColor" stroke-width="1.5" stroke-linecap="square"></path></g></svg>