<svg width="24px" height="24px" viewBox="0 0 24 24" fill="none" xmlns="http://www.w3.org/2000/svg"><g><path d="M4.35057 9.25C5.3 6 8.541 3.75 12.0053 3.75C15.4998 3.75 18.4872 6.02978 19.6917 9.25M3.75 4.75V9.25H8.25" stroke="currentColor" stroke-width="1.5" stroke-linecap="round" stroke-linejoin="round"></path><path d="M7.66406 20.1558V13.9858H7.62598L6.75635 14.6016C6.4834 14.7793 6.32471 14.8364 6.14062 14.8364C5.7915 14.8364 5.53125 14.5762 5.53125 14.2271C5.53125 13.9604 5.69629 13.7256 6.02002 13.5098L7.15625 12.7163C7.61328 12.4053 7.9751 12.2783 8.33057 12.2783C8.94629 12.2783 9.35889 12.7036 9.35889 13.3447V20.1558C9.35889 20.7397 9.04785 21.0762 8.5083 21.0762C7.9751 21.0762 7.66406 20.7334 7.66406 20.1558Z" fill="currentColor"></path><path d="M10.8569 16.8804V16.4741C10.8569 13.8716 12.1011 12.1704 14.1641 12.1704C16.2334 12.1704 17.4521 13.8525 17.4521 16.4741V16.8804C17.4521 19.4766 16.1953 21.1841 14.1387 21.1841C12.082 21.1841 10.8569 19.4956 10.8569 16.8804ZM12.5708 16.4805V16.8677C12.5708 18.6958 13.1675 19.7876 14.1514 19.7876C15.1353 19.7876 15.7319 18.6958 15.7319 16.8677V16.4805C15.7319 14.6587 15.1353 13.5669 14.1514 13.5669C13.1675 13.5669 12.5708 14.6523 12.5708 16.4805Z" fill="currentColor"></path></g></svg>