<svg width="24px" height="24px" viewBox="0 0 24 24" fill="none" xmlns="http://www.w3.org/2000/svg"><g><path d="M20.25 6.75C20.25 5.64543 19.3546 4.75 18.25 4.75H5.75C4.64543 4.75 3.75 5.64543 3.75 6.75V8.25C3.75 9.90685 5.09315 11.25 6.75 11.25H17.25C18.9069 11.25 20.25 9.90685 20.25 8.25V6.75Z" stroke="currentColor" stroke-width="1.5" stroke-linecap="round" stroke-linejoin="round"></path><path d="M4.75 10.5V18.25C4.75 19.9069 6.09315 21.25 7.75 21.25H16.25C17.9069 21.25 19.25 19.9069 19.25 18.25V10.5" stroke="currentColor" stroke-width="1.5" stroke-linecap="round" stroke-linejoin="round"></path><path d="M9.25 4.75V3.75C9.25 2.64543 10.1454 1.75 11.25 1.75H12.75C13.8546 1.75 14.75 2.64543 14.75 3.75V4.75" stroke="currentColor" stroke-width="1.5" stroke-linecap="round" stroke-linejoin="round"></path><path d="M8.75 11.25V13.25" stroke="currentColor" stroke-width="1.5" stroke-linecap="round" stroke-linejoin="round"></path><path d="M15.25 11.25V13.25" stroke="currentColor" stroke-width="1.5" stroke-linecap="round" stroke-linejoin="round"></path><path d="M9.75 17.25H14.25" stroke="currentColor" stroke-width="1.5" stroke-linecap="round" stroke-linejoin="round"></path></g></svg>