<svg width="24px" height="24px" viewBox="0 0 24 24" fill="none" xmlns="http://www.w3.org/2000/svg"><g><path d="M15.25 7.75V6C15.25 4.20507 13.7949 2.75 12 2.75C10.2051 2.75 8.75 4.20507 8.75 6V7.75" stroke="currentColor" stroke-width="1.5" stroke-linecap="round"></path><path d="M11.75 21.25H6.56812C5.34685 21.25 4.41074 20.165 4.58972 18.9569L5.99713 9.4569C6.14241 8.47624 6.98417 7.75 7.97553 7.75H16.0245C17.0158 7.75 17.8576 8.47624 18.0029 9.4569L18.4908 12.7502" stroke="currentColor" stroke-width="1.5" stroke-linecap="round" stroke-linejoin="round"></path><path d="M19.2405 17.1852L18.5436 15.3733C18.4571 15.1484 18.241 15 18 15C17.759 15 17.5429 15.1484 17.4564 15.3733L16.7595 17.1852C16.658 17.4493 16.4493 17.658 16.1852 17.7595L14.3733 18.4564C14.1484 18.5429 14 18.759 14 19C14 19.241 14.1484 19.4571 14.3733 19.5436L16.1852 20.2405C16.4493 20.342 16.658 20.5507 16.7595 20.8148L17.4564 22.6267C17.5429 22.8516 17.759 23 18 23C18.241 23 18.4571 22.8516 18.5436 22.6267L19.2405 20.8148C19.342 20.5507 19.5507 20.342 19.8148 20.2405L21.6267 19.5436C21.8516 19.4571 22 19.241 22 19C22 18.759 21.8516 18.5429 21.6267 18.4564L19.8148 17.7595C19.5507 17.658 19.342 17.4493 19.2405 17.1852Z" fill="currentColor"></path></g></svg>