<svg width="24px" height="24px" viewBox="0 0 24 24" fill="none" xmlns="http://www.w3.org/2000/svg"><g><path d="M12 19.175C15.0938 19.175 20.25 15.5875 20.25 9.46679C20.25 4.655 16.5563 1.75 12 1.75C7.44365 1.75 3.75 4.655 3.75 9.46679C3.75 15.5875 8.90625 19.175 12 19.175Z" stroke="currentColor" stroke-width="1.5" stroke-linecap="round" stroke-linejoin="round"></path><path d="M10.4537 19.1748L9.78451 20.8855C9.52799 21.5413 10.0116 22.2498 10.7158 22.2498H13.2855C13.9897 22.2498 14.4733 21.5413 14.2167 20.8854L13.5474 19.1748" stroke="currentColor" stroke-width="1.5" stroke-linecap="round" stroke-linejoin="round"></path><path d="M11.2466 5.80312C11.491 5.76793 11.7426 5.75 11.9995 5.75L11.2466 5.80312ZM11.2466 5.80312C9.40436 6.06838 7.97346 7.31441 7.77344 9.25222" stroke="currentColor" stroke-width="1.5" stroke-linecap="round" stroke-linejoin="round"></path></g></svg>