<svg width="24px" height="24px" viewBox="0 0 24 24" fill="none" xmlns="http://www.w3.org/2000/svg"><g><path d="M17.5 14C18.6629 12.8371 19.1271 11.5034 19.3527 10.6291C19.451 10.2483 19.2974 9.84806 18.9828 9.61207C18.686 9.38948 18.2913 9.352 17.9517 9.50117C14.4275 11.0489 10.0753 11.6695 6.75 8.25" stroke="currentColor" stroke-width="1.5" stroke-linejoin="round"></path><path d="M6.50092 5.26989C6.5009 4.34327 5.6691 3.6383 4.75502 3.79019C4.03139 3.91043 3.50088 4.53638 3.50088 5.26992V7.09514C3.50088 7.5165 3.35607 7.92122 3.15774 8.29298C1.16112 12.0354 4.09991 18.4 10.0674 19.9165C16.0489 21.4366 21.022 17.4529 21.4683 14.2006C21.509 13.904 21.3788 13.6172 21.1627 13.41C20.8234 13.0844 20.3158 13.014 19.8889 13.2112C14.1599 15.8579 7.30708 15.2719 6.50098 7.50008L6.50092 5.26989Z" stroke="currentColor" stroke-width="1.5" stroke-linecap="square" stroke-linejoin="round"></path></g></svg>