<svg width="24px" height="24px" viewBox="0 0 24 24" fill="none" xmlns="http://www.w3.org/2000/svg"><g><path d="M4.75 8.25H5.75M18.25 15.75H19.25M1.75 16.75V7.25C1.75 6.14543 2.64543 5.25 3.75 5.25H20.25C21.3546 5.25 22.25 6.14543 22.25 7.25V16.75C22.25 17.8546 21.3546 18.75 20.25 18.75H3.75C2.64543 18.75 1.75 17.8546 1.75 16.75ZM14 12C14 13.1046 13.1046 14 12 14C10.8954 14 10 13.1046 10 12C10 10.8954 10.8954 10 12 10C13.1046 10 14 10.8954 14 12Z" stroke="currentColor" stroke-width="1.5" stroke-linecap="round" stroke-linejoin="round"></path></g></svg>