<svg width="24px" height="24px" viewBox="0 0 24 24" fill="none" xmlns="http://www.w3.org/2000/svg"><g><path d="M2.25 7.25C2.25 6.14543 3.14543 5.25 4.25 5.25H19.75C20.8546 5.25 21.75 6.14543 21.75 7.25V16.75C21.75 17.8546 20.8546 18.75 19.75 18.75H4.25C3.14543 18.75 2.25 17.8546 2.25 16.75V7.25Z" stroke="currentColor" stroke-width="1.5" stroke-linecap="round" stroke-linejoin="round"></path><circle cx="12" cy="12" r="2.25" stroke="currentColor" stroke-width="1.5" stroke-linecap="round" stroke-linejoin="round"></circle><path d="M5.75 5.25C5.75 7.183 4.183 8.75 2.25 8.75" stroke="currentColor" stroke-width="1.5" stroke-linecap="round" stroke-linejoin="round"></path><path d="M18.25 5.25C18.25 7.183 19.817 8.75 21.75 8.75" stroke="currentColor" stroke-width="1.5" stroke-linecap="round" stroke-linejoin="round"></path><path d="M5.75 18.75C5.75 16.817 4.183 15.25 2.25 15.25" stroke="currentColor" stroke-width="1.5" stroke-linecap="round" stroke-linejoin="round"></path><path d="M18.25 18.75C18.25 16.817 19.817 15.25 21.75 15.25" stroke="currentColor" stroke-width="1.5" stroke-linecap="round" stroke-linejoin="round"></path></g></svg>