<svg width="24px" height="24px" viewBox="0 0 24 24" fill="none" xmlns="http://www.w3.org/2000/svg"><g><path d="M12.9018 2.95559C12.3347 2.6691 11.6653 2.6691 11.0982 2.9556L3.45605 6.81637C3.02304 7.03513 2.75 7.47897 2.75 7.9641C2.75 8.67428 3.32571 9.24999 4.03588 9.24999H19.9641C20.6743 9.24999 21.25 8.67428 21.25 7.9641C21.25 7.47897 20.977 7.03513 20.5439 6.81637L12.9018 2.95559Z" stroke="currentColor" stroke-width="1.5" stroke-linecap="square" stroke-linejoin="round"></path><path d="M20.8113 18.9338C21.0272 19.5813 20.5452 20.25 19.8626 20.25H4.13749C3.45493 20.25 2.97296 19.5813 3.1888 18.9338L3.29421 18.6175C3.56644 17.8009 4.33072 17.25 5.19158 17.25H18.8085C19.6694 17.25 20.4337 17.8009 20.7059 18.6175L20.8113 18.9338Z" stroke="currentColor" stroke-width="1.5" stroke-linecap="square" stroke-linejoin="round"></path><path d="M19.25 9.25V17.25" stroke="currentColor" stroke-width="1.5" stroke-linecap="square" stroke-linejoin="round"></path><path d="M15.25 17.25V9.25" stroke="currentColor" stroke-width="1.5" stroke-linecap="square" stroke-linejoin="round"></path><path d="M4.75 9.25V17.25" stroke="currentColor" stroke-width="1.5" stroke-linecap="square" stroke-linejoin="round"></path><path d="M8.75 17.25V9.25" stroke="currentColor" stroke-width="1.5" stroke-linecap="square" stroke-linejoin="round"></path></g></svg>