<svg width="24px" height="24px" viewBox="0 0 24 24" fill="none" xmlns="http://www.w3.org/2000/svg"><g><path d="M21.25 19.5C21.6642 19.5 22 19.8358 22 20.25C22 20.6642 21.6642 21 21.25 21H2.75C2.33579 21 2 20.6642 2 20.25C2 19.8358 2.33579 19.5 2.75 19.5H21.25Z" fill="currentColor"></path><path d="M3.93284 6.4885L11.2062 3.34327C11.7127 3.12423 12.2873 3.12423 12.7938 3.34327L20.0672 6.4885C20.7852 6.79899 21.25 7.50644 21.25 8.2887C21.25 9.37189 20.3719 10.25 19.2887 10.25H4.7113C3.62811 10.25 2.75 9.37189 2.75 8.2887C2.75 7.50644 3.21484 6.79899 3.93284 6.4885Z" stroke="currentColor" stroke-width="1.5" stroke-linecap="round" stroke-linejoin="round"></path><path d="M3.75 20V10.5" stroke="currentColor" stroke-width="1.5" stroke-linecap="round" stroke-linejoin="round"></path><path d="M20.25 20V10.5" stroke="currentColor" stroke-width="1.5" stroke-linecap="round" stroke-linejoin="round"></path><path d="M9.25 20V13.75" stroke="currentColor" stroke-width="1.5" stroke-linecap="round" stroke-linejoin="round"></path><path d="M14.75 20V13.75" stroke="currentColor" stroke-width="1.5" stroke-linecap="round" stroke-linejoin="round"></path><circle cx="12" cy="7" r="1" fill="currentColor"></circle></g></svg>