<svg width="24px" height="24px" viewBox="0 0 24 24" fill="none" xmlns="http://www.w3.org/2000/svg"><g><path fill-rule="evenodd" clip-rule="evenodd" d="M12 3.5C7.30558 3.5 3.5 7.30558 3.5 12C3.5 16.6944 7.30558 20.5 12 20.5C16.6944 20.5 20.5 16.6944 20.5 12C20.5 7.30558 16.6944 3.5 12 3.5ZM2 12C2 6.47715 6.47715 2 12 2C17.5228 2 22 6.47715 22 12C22 17.5228 17.5228 22 12 22C6.47715 22 2 17.5228 2 12Z" fill="currentColor"></path><path fill-rule="evenodd" clip-rule="evenodd" d="M7.78942 7.83969C7.50782 7.99043 7.15864 7.88237 6.98851 7.61205C6.81837 7.34173 6.87304 6.98155 7.13082 6.79296L7.32311 6.65229C7.62774 6.42944 8.05694 6.49361 8.25799 6.81305C8.45904 7.13248 8.33224 7.54913 7.99947 7.72725L7.78942 7.83969ZM16.0021 7.72725C15.6694 7.54913 15.5426 7.13248 15.7436 6.81305C15.9447 6.49361 16.3739 6.42944 16.6785 6.65229L16.8708 6.79296C17.1286 6.98155 17.1832 7.34173 17.0131 7.61205C16.843 7.88237 16.4938 7.99043 16.2122 7.83969L16.0021 7.72725ZM8.63599 10.1567C8.32379 10.223 8.01838 10.0205 7.93012 9.71377C7.84186 9.40706 7.99469 9.07802 8.29444 8.96843L8.51825 8.88659C8.87294 8.75691 9.26719 8.93604 9.37163 9.29897C9.47606 9.6619 9.23851 10.0287 8.86909 10.1072L8.63599 10.1567ZM15.1325 10.1072C14.7631 10.0287 14.5255 9.6619 14.63 9.29897C14.7344 8.93604 15.1287 8.75691 15.4834 8.88659L15.7072 8.96843C16.0069 9.07802 16.1597 9.40706 16.0715 9.71377C15.9832 10.0205 15.6778 10.223 15.3656 10.1567L15.1325 10.1072ZM8.2508 12C8.2508 11.6801 8.48956 11.4033 8.8087 11.3812L9.04601 11.3648C9.42226 11.3388 9.7508 11.6228 9.7508 12C9.7508 12.3771 9.42226 12.6612 9.04601 12.6352L8.8087 12.6188C8.48956 12.5967 8.2508 12.3199 8.2508 12ZM14.2508 12C14.2508 11.6228 14.5793 11.3388 14.9556 11.3648L15.1929 11.3812C15.512 11.4033 15.7508 11.6801 15.7508 12C15.7508 12.3199 15.512 12.5967 15.1929 12.6188L14.9556 12.6352C14.5793 12.6612 14.2508 12.3771 14.2508 12ZM8.29444 15.0315C7.99469 14.9219 7.84186 14.5929 7.93012 14.2862C8.01838 13.9795 8.32379 13.777 8.63599 13.8433L8.86909 13.8928C9.23851 13.9713 9.47606 14.3381 9.37163 14.701C9.26719 15.0639 8.87294 15.2431 8.51825 15.1134L8.29444 15.0315ZM15.4834 15.1134C15.1287 15.2431 14.7344 15.0639 14.63 14.701C14.5255 14.3381 14.7631 13.9713 15.1325 13.8928L15.3656 13.8433C15.6778 13.777 15.9832 13.9795 16.0715 14.2862C16.1597 14.5929 16.0069 14.9219 15.7072 15.0315L15.4834 15.1134ZM7.13082 17.207C6.87304 17.0184 6.81837 16.6582 6.98851 16.3879C7.15864 16.1176 7.50782 16.0095 7.78942 16.1603L7.99947 16.2727C8.33224 16.4508 8.45904 16.8675 8.25799 17.1869C8.05694 17.5064 7.62774 17.5705 7.32311 17.3477L7.13082 17.207ZM16.6785 17.3477C16.3739 17.5705 15.9447 17.5064 15.7436 17.1869C15.5426 16.8675 15.6694 16.4508 16.0021 16.2727L16.2122 16.1603C16.4938 16.0095 16.843 16.1176 17.0131 16.3879C17.1832 16.6582 17.1286 17.0184 16.8708 17.207L16.6785 17.3477Z" fill="currentColor"></path></g></svg>