<svg width="24px" height="24px" viewBox="0 0 24 24" fill="none" xmlns="http://www.w3.org/2000/svg"><g><path d="M1.75 2.75H2.27029C2.98532 2.75 3.60094 3.25469 3.74117 3.95583L5.67845 13.6422C5.86542 14.5771 6.68625 15.25 7.63961 15.25H17.8772C18.823 15.25 19.6395 14.5875 19.8343 13.662L21.2461 6.95601C21.377 6.33446 20.9027 5.75 20.2676 5.75H4.5M9.25 19C9.25 19.6904 8.69036 20.25 8 20.25C7.30964 20.25 6.75 19.6904 6.75 19C6.75 18.3096 7.30964 17.75 8 17.75C8.69036 17.75 9.25 18.3096 9.25 19ZM18.25 19C18.25 19.6904 17.6904 20.25 17 20.25C16.3096 20.25 15.75 19.6904 15.75 19C15.75 18.3096 16.3096 17.75 17 17.75C17.6904 17.75 18.25 18.3096 18.25 19Z" stroke="currentColor" stroke-width="1.5" stroke-linecap="round" stroke-linejoin="round"></path></g></svg>