<svg width="24px" height="24px" viewBox="0 0 24 24" fill="none" xmlns="http://www.w3.org/2000/svg"><g><path d="M21.25 12C21.25 17.1086 17.1086 21.25 12 21.25C6.89137 21.25 2.75 17.1086 2.75 12C2.75 6.89137 6.89137 2.75 12 2.75C17.1086 2.75 21.25 6.89137 21.25 12Z" stroke="currentColor" stroke-width="1.5"></path><path d="M2.75 12H21.25" stroke="currentColor" stroke-width="1.5"></path><path d="M18.4597 6C17.0818 7.61524 16.25 9.71048 16.25 12C16.25 14.2895 17.0818 16.3848 18.4597 18" stroke="currentColor" stroke-width="1.5"></path><path d="M5.53906 18C6.91696 16.3848 7.74876 14.2895 7.74876 12C7.74876 9.71048 6.91696 7.61524 5.53906 6" stroke="currentColor" stroke-width="1.5"></path><path d="M12 3V21" stroke="currentColor" stroke-width="1.5"></path></g></svg>