<svg width="24px" height="24px" viewBox="0 0 24 24" fill="none" xmlns="http://www.w3.org/2000/svg"><g><path d="M7.75 5.75H3.75C2.64543 5.75 1.75 6.64543 1.75 7.75V16.25C1.75 17.3546 2.64543 18.25 3.75 18.25H5.25M15.75 5.75H17.25C18.3546 5.75 19.25 6.64543 19.25 7.75V16.25C19.25 17.3546 18.3546 18.25 17.25 18.25H13.25M12.25 5.75L7.5 12H13.5L8.75 18.25M19.25 8.75H21.25C21.8023 8.75 22.25 9.19772 22.25 9.75V14.25C22.25 14.8023 21.8023 15.25 21.25 15.25H19.25V8.75Z" stroke="currentColor" stroke-width="1.5" stroke-linecap="round" stroke-linejoin="round"></path></g></svg>