<svg width="24px" height="24px" viewBox="0 0 24 24" fill="none" xmlns="http://www.w3.org/2000/svg"><g><path d="M10.5 5L8.5 2" stroke="currentColor" stroke-width="1.5" stroke-linecap="round" stroke-linejoin="round"></path><path d="M13.5 5L15.5 2" stroke="currentColor" stroke-width="1.5" stroke-linecap="round" stroke-linejoin="round"></path><path d="M10.25 10.75V12.25C10.25 15.5637 7.56371 18.25 4.25 18.25H3.75C3.19772 18.25 2.75 17.8023 2.75 17.25V15.75C2.75 12.4363 5.43629 9.75 8.75 9.75H9" stroke="currentColor" stroke-width="1.5" stroke-linecap="round" stroke-linejoin="round"></path><path d="M13.75 10.75V12.25C13.75 15.5637 16.4363 18.25 19.75 18.25H20.25C20.8023 18.25 21.25 17.8023 21.25 17.25V15.75C21.25 12.4363 18.5637 9.75 15.25 9.75H15" stroke="currentColor" stroke-width="1.5" stroke-linecap="round" stroke-linejoin="round"></path><path d="M12 22.25V21.25" stroke="currentColor" stroke-width="1.5" stroke-linecap="round" stroke-linejoin="round"></path><path d="M15.25 8C15.25 9.79493 13.7949 11.25 12 11.25C10.2051 11.25 8.75 9.79493 8.75 8C8.75 6.20507 10.2051 4.75 12 4.75C13.7949 4.75 15.25 6.20507 15.25 8Z" stroke="currentColor" stroke-width="1.5" stroke-linecap="round" stroke-linejoin="round"></path><path d="M8.10547 17C8.67245 19.3304 10.2023 21 12.0006 21C13.7989 21 15.3287 19.3304 15.8957 17" stroke="currentColor" stroke-width="1.5" stroke-linecap="round" stroke-linejoin="round"></path></g></svg>