<svg width="24px" height="24px" viewBox="0 0 24 24" fill="none" xmlns="http://www.w3.org/2000/svg"><g><path d="M4.75 7V18.25C4.75 19.3546 5.64543 20.25 6.75 20.25H15.25C16.3546 20.25 17.25 19.3546 17.25 18.25V7" stroke="currentColor" stroke-width="1.5" stroke-linecap="round" stroke-linejoin="round"></path><path d="M17.25 8.75H18C19.7949 8.75 21.25 10.2051 21.25 12C21.25 13.7949 19.7949 15.25 18 15.25H17.25" stroke="currentColor" stroke-width="1.5" stroke-linecap="round" stroke-linejoin="round"></path><path d="M8.00042 8.99992V7.99992C8.00042 7.44763 7.55271 6.99992 7.00042 6.99992H5.52225C5.03441 6.99992 4.57302 6.77816 4.26827 6.39722L4.21237 6.32734C3.92257 5.9651 3.82613 5.48495 3.95357 5.0389C4.12928 4.42391 4.69139 3.99992 5.33098 3.99992H6.76364C6.9213 3.99992 7.07876 3.98873 7.23483 3.96643L9.93474 3.58073C10.31 3.52713 10.6909 3.52713 11.0661 3.58073L13.719 3.95972C13.9064 3.98648 14.0954 3.99992 14.2847 3.99992H16.4786C16.9664 3.99992 17.4278 4.22167 17.7326 4.60261L17.848 4.74684C18.1004 5.06244 18.1845 5.48076 18.0734 5.86938C17.892 6.50437 17.2473 6.88812 16.6026 6.74485L16.0116 6.61352C15.6771 6.53919 15.3287 6.55716 15.0036 6.66552L14.502 6.83273C14.1726 6.94252 13.8214 6.97008 13.4789 6.913L13.1365 6.85593C12.0183 6.66957 11.0004 7.53185 11.0004 8.66544V8.99992C11.0004 9.82834 10.3289 10.4999 9.50042 10.4999C8.672 10.4999 8.00042 9.82834 8.00042 8.99992Z" stroke="currentColor" stroke-width="1.5" stroke-linecap="round" stroke-linejoin="round"></path></g></svg>