<svg width="24px" height="24px" viewBox="0 0 24 24" fill="none" xmlns="http://www.w3.org/2000/svg"><g><path d="M20.25 16.2441C20.25 16.7996 19.7996 17.25 19.2441 17.25H4.75593C4.20037 17.25 3.75 16.7996 3.75 16.2441V16.2441C3.75 16.0837 3.78835 15.9256 3.86186 15.7831L5.09883 13.3841C5.22935 13.131 5.30431 12.8529 5.31867 12.5684L5.50351 8.90897C5.6766 5.45882 8.53386 2.75 12 2.75C15.4661 2.75 18.3234 5.45882 18.4965 8.90897L18.6813 12.5684C18.6957 12.8529 18.7706 13.131 18.9012 13.3841L20.1381 15.7831C20.2116 15.9256 20.25 16.0837 20.25 16.2441V16.2441Z" stroke="currentColor" stroke-width="1.5" stroke-linecap="round" stroke-linejoin="round"></path><path d="M16 17.25C16 19.4591 14.2091 21.25 12 21.25C9.79086 21.25 8 19.4591 8 17.25" stroke="currentColor" stroke-width="1.5" stroke-linecap="round" stroke-linejoin="round"></path></g></svg>