<svg width="24px" height="24px" viewBox="0 0 24 24" fill="none" xmlns="http://www.w3.org/2000/svg"><g><path d="M3.75 4.75C3.75 4.19772 4.19772 3.75 4.75 3.75H7.25C7.80228 3.75 8.25 4.19772 8.25 4.75V7.25C8.25 7.80228 7.80228 8.25 7.25 8.25H4.75C4.19772 8.25 3.75 7.80228 3.75 7.25V4.75Z" stroke="currentColor" stroke-width="1.5" stroke-linecap="square" stroke-linejoin="round"></path><path d="M15.75 4.75C15.75 4.19772 16.1977 3.75 16.75 3.75H19.25C19.8023 3.75 20.25 4.19772 20.25 4.75V7.25C20.25 7.80228 19.8023 8.25 19.25 8.25H18H16.75C16.1977 8.25 15.75 7.80228 15.75 7.25V6V4.75Z" stroke="currentColor" stroke-width="1.5" stroke-linecap="square" stroke-linejoin="round"></path><path d="M3.75 16.75C3.75 16.1977 4.19772 15.75 4.75 15.75H7C7.55228 15.75 8 16.1977 8 16.75V18V19.25C8 19.8023 7.55228 20.25 7 20.25H4.75C4.19772 20.25 3.75 19.8023 3.75 19.25V16.75Z" stroke="currentColor" stroke-width="1.5" stroke-linecap="square" stroke-linejoin="round"></path><path d="M19.7473 14.2136L12.9157 12.2617C12.5164 12.1476 12.1471 12.5169 12.2613 12.9162L14.2131 19.7478C14.3436 20.2045 14.9631 20.2716 15.1883 19.8533L16.7456 16.9612C16.7947 16.87 16.8695 16.7952 16.9607 16.7461L19.8528 15.1888C20.2711 14.9636 20.204 14.3441 19.7473 14.2136Z" stroke="currentColor" stroke-width="1.5" stroke-linecap="square" stroke-linejoin="round"></path><path d="M15.75 6H8.25" stroke="currentColor" stroke-width="1.5" stroke-linecap="round" stroke-linejoin="round"></path><path d="M6 8.25V15.75" stroke="currentColor" stroke-width="1.5" stroke-linecap="round" stroke-linejoin="round"></path><path d="M18 8.25V10.25" stroke="currentColor" stroke-width="1.5" stroke-linecap="round" stroke-linejoin="round"></path><path d="M8 18H10.25" stroke="currentColor" stroke-width="1.5" stroke-linecap="round" stroke-linejoin="round"></path></g></svg>