<svg width="24px" height="24px" viewBox="0 0 24 24" fill="none" xmlns="http://www.w3.org/2000/svg"><g><path d="M17.75 16.75C17.75 15.6454 18.6454 14.75 19.75 14.75H20.25C21.3546 14.75 22.25 15.6454 22.25 16.75V17.25C22.25 18.3546 21.3546 19.25 20.25 19.25H19.75C18.6454 19.25 17.75 18.3546 17.75 17.25V16.75Z" stroke="currentColor" stroke-width="1.5" stroke-linecap="round" stroke-linejoin="round"></path><path d="M1.75 16.75C1.75 15.6454 2.64543 14.75 3.75 14.75H4.25C5.35457 14.75 6.25 15.6454 6.25 16.75V17.25C6.25 18.3546 5.35457 19.25 4.25 19.25H3.75C2.64543 19.25 1.75 18.3546 1.75 17.25V16.75Z" stroke="currentColor" stroke-width="1.5" stroke-linecap="round" stroke-linejoin="round"></path><path d="M4.25 7C4.25 7.69036 3.69036 8.25 3 8.25C2.30964 8.25 1.75 7.69036 1.75 7C1.75 6.30964 2.30964 5.75 3 5.75C3.69036 5.75 4.25 6.30964 4.25 7Z" stroke="currentColor" stroke-width="1.5" stroke-linecap="round" stroke-linejoin="round"></path><path d="M22.25 7C22.25 7.69036 21.6904 8.25 21 8.25C20.3096 8.25 19.75 7.69036 19.75 7C19.75 6.30964 20.3096 5.75 21 5.75C21.6904 5.75 22.25 6.30964 22.25 7Z" stroke="currentColor" stroke-width="1.5" stroke-linecap="round" stroke-linejoin="round"></path><path d="M11.75 9.25H12.25C13.3546 9.25 14.25 8.35457 14.25 7.25V6.75C14.25 5.64543 13.3546 4.75 12.25 4.75H11.75C10.6454 4.75 9.75 5.64543 9.75 6.75V7.25C9.75 8.35457 10.6454 9.25 11.75 9.25Z" stroke="currentColor" stroke-width="1.5" stroke-linecap="round" stroke-linejoin="round"></path><path d="M3 7H9.5" stroke="currentColor" stroke-width="1.5" stroke-linecap="round" stroke-linejoin="round"></path><path d="M14.5 7H21" stroke="currentColor" stroke-width="1.5" stroke-linecap="round" stroke-linejoin="round"></path><path d="M4.00781 14.3889C4.15819 11.0017 6.41484 8.16217 9.49982 7.14819" stroke="currentColor" stroke-width="1.5" stroke-linecap="round" stroke-linejoin="round"></path><path d="M14.5 7.14819C17.585 8.16217 19.8416 11.0017 19.992 14.3889" stroke="currentColor" stroke-width="1.5" stroke-linecap="round" stroke-linejoin="round"></path><path d="M3 7.5V6.5" stroke="currentColor" stroke-width="1.5" stroke-linecap="round" stroke-linejoin="round"></path><path d="M21 7.5V6.5" stroke="currentColor" stroke-width="1.5" stroke-linecap="round" stroke-linejoin="round"></path></g></svg>