<svg width="24px" height="24px" viewBox="0 0 24 24" fill="none" xmlns="http://www.w3.org/2000/svg"><g><path d="M3.75 4.75C3.75 4.19772 4.19772 3.75 4.75 3.75H7.25C7.80228 3.75 8.25 4.19772 8.25 4.75V7.25C8.25 7.80228 7.80228 8.25 7.25 8.25H4.75C4.19772 8.25 3.75 7.80228 3.75 7.25V4.75Z" stroke="currentColor" stroke-width="1.5" stroke-linecap="square" stroke-linejoin="round"></path><path d="M15.75 4.75C15.75 4.19772 16.1977 3.75 16.75 3.75H19.25C19.8023 3.75 20.25 4.19772 20.25 4.75V7.25C20.25 7.80228 19.8023 8.25 19.25 8.25H18H16.75C16.1977 8.25 15.75 7.80228 15.75 7.25V6V4.75Z" stroke="currentColor" stroke-width="1.5" stroke-linecap="square" stroke-linejoin="round"></path><path d="M3.75 16.75C3.75 16.1977 4.19772 15.75 4.75 15.75H7C7.55228 15.75 8 16.1977 8 16.75V18V19.25C8 19.8023 7.55228 20.25 7 20.25H4.75C4.19772 20.25 3.75 19.8023 3.75 19.25V16.75Z" stroke="currentColor" stroke-width="1.5" stroke-linecap="square" stroke-linejoin="round"></path><path d="M13.75 20.2499V17.9166L17.5 14.1666C18.1443 13.5223 19.189 13.5223 19.8333 14.1666C20.4777 14.8109 20.4777 15.8556 19.8333 16.4999L16.0833 20.2499H13.75Z" stroke="currentColor" stroke-width="1.5" stroke-linecap="square" stroke-linejoin="round"></path><path d="M15.75 6H8.25" stroke="currentColor" stroke-width="1.5" stroke-linecap="round" stroke-linejoin="round"></path><path d="M6 8.25V15.75" stroke="currentColor" stroke-width="1.5" stroke-linecap="round" stroke-linejoin="round"></path><path d="M18 8.25V10.25" stroke="currentColor" stroke-width="1.5" stroke-linecap="round" stroke-linejoin="round"></path><path d="M8 18H10.25" stroke="currentColor" stroke-width="1.5" stroke-linecap="round" stroke-linejoin="round"></path></g></svg>