<svg width="24px" height="24px" viewBox="0 0 24 24" fill="none" xmlns="http://www.w3.org/2000/svg"><g><path d="M9.75 17.75C9.75 17.1977 10.1977 16.75 10.75 16.75H13.25C13.8023 16.75 14.25 17.1977 14.25 17.75V20.25C14.25 20.8023 13.8023 21.25 13.25 21.25H10.75C10.1977 21.25 9.75 20.8023 9.75 20.25V17.75Z" stroke="currentColor" stroke-width="1.5" stroke-linecap="round" stroke-linejoin="round"></path><path d="M9.75 3.75C9.75 3.19772 10.1977 2.75 10.75 2.75H13.25C13.8023 2.75 14.25 3.19772 14.25 3.75V6.25C14.25 6.80228 13.8023 7.25 13.25 7.25H10.75C10.1977 7.25 9.75 6.80228 9.75 6.25V3.75Z" stroke="currentColor" stroke-width="1.5" stroke-linecap="round" stroke-linejoin="round"></path><path d="M20.25 9.75C20.8023 9.75 21.25 10.1977 21.25 10.75V13.25C21.25 13.8023 20.8023 14.25 20.25 14.25H17.75C17.1977 14.25 16.75 13.8023 16.75 13.25V10.75C16.75 10.1977 17.1977 9.75 17.75 9.75H20.25Z" stroke="currentColor" stroke-width="1.5" stroke-linecap="round" stroke-linejoin="round"></path><path d="M6.25 9.75C6.80228 9.75 7.25 10.1977 7.25 10.75V13.25C7.25 13.8023 6.80228 14.25 6.25 14.25H3.75C3.19772 14.25 2.75 13.8023 2.75 13.25V10.75C2.75 10.1977 3.19772 9.75 3.75 9.75H6.25Z" stroke="currentColor" stroke-width="1.5" stroke-linecap="round" stroke-linejoin="round"></path><path d="M5.5 9.39691C6.2104 7.62463 7.62463 6.2104 9.39691 5.5" stroke="currentColor" stroke-width="1.5" stroke-linecap="round" stroke-linejoin="round"></path><path d="M14.6035 5.5C16.3758 6.2104 17.79 7.62463 18.5004 9.39691" stroke="currentColor" stroke-width="1.5" stroke-linecap="round" stroke-linejoin="round"></path><path d="M18.5004 14.603C17.79 16.3753 16.3758 17.7895 14.6035 18.4999" stroke="currentColor" stroke-width="1.5" stroke-linecap="round" stroke-linejoin="round"></path><path d="M9.39691 18.4999C7.62463 17.7895 6.2104 16.3753 5.5 14.603" stroke="currentColor" stroke-width="1.5" stroke-linecap="round" stroke-linejoin="round"></path></g></svg>