<svg width="24px" height="24px" viewBox="0 0 24 24" fill="none" xmlns="http://www.w3.org/2000/svg"><g><path d="M19.75 11.75C19.75 10.6454 18.8546 9.75 17.75 9.75H12H6.25C5.14543 9.75 4.25 10.6454 4.25 11.75V13.5627C4.25 14.2946 4.64977 14.9681 5.2923 15.3185L5.99497 15.7018C6.6176 16.0414 7.37352 16.0259 7.98167 15.661L8.47101 15.3674C9.10437 14.9874 9.89563 14.9874 10.529 15.3674L10.971 15.6326C11.6044 16.0126 12.3956 16.0126 13.029 15.6326L13.471 15.3674C14.1044 14.9874 14.8956 14.9874 15.529 15.3674L16.0183 15.661C16.6265 16.0259 17.3824 16.0414 18.005 15.7018L18.7077 15.3185C19.3502 14.9681 19.75 14.2946 19.75 13.5627V11.75Z" stroke="currentColor" stroke-width="1.5" stroke-linecap="round" stroke-linejoin="round"></path><path d="M11.9997 7.24997C11.4233 7.25038 10.8468 7.03071 10.4071 6.59096C9.52838 5.71228 9.52838 4.28766 10.4071 3.40898L11.998 1.81799L13.589 3.40898C14.4677 4.28766 14.4677 5.71228 13.589 6.59096C13.1501 7.02989 12.5749 7.24956 11.9997 7.24997Z" stroke="currentColor" stroke-width="1.5" stroke-linecap="round" stroke-linejoin="round"></path><path d="M4.75 15.25V19.25C4.75 20.3546 5.64543 21.25 6.75 21.25H17.25C18.3546 21.25 19.25 20.3546 19.25 19.25V15.25" stroke="currentColor" stroke-width="1.5" stroke-linecap="round" stroke-linejoin="round"></path><path d="M12 9.75V7.25" stroke="currentColor" stroke-width="1.5" stroke-linecap="round" stroke-linejoin="round"></path></g></svg>