<svg width="24px" height="24px" viewBox="0 0 24 24" fill="none" xmlns="http://www.w3.org/2000/svg"><g><path d="M9.75 8.25V12M9.75 8.25H8.25M9.75 8.25H13.375C14.4105 8.25 15.25 9.08947 15.25 10.125C15.25 11.1605 14.4105 12 13.375 12M9.75 12V15.75M9.75 12H13.375M9.75 15.75H8.25M9.75 15.75H13.375C14.4105 15.75 15.25 14.9105 15.25 13.875C15.25 12.8395 14.4105 12 13.375 12M12 6.75V8.25M12 15.75V17.25M21.25 12C21.25 17.1086 17.1086 21.25 12 21.25C6.89137 21.25 2.75 17.1086 2.75 12C2.75 6.89137 6.89137 2.75 12 2.75C17.1086 2.75 21.25 6.89137 21.25 12Z" stroke="currentColor" stroke-width="1.5" stroke-linecap="round" stroke-linejoin="round"></path></g></svg>