<svg width="24px" height="24px" viewBox="0 0 24 24" fill="none" xmlns="http://www.w3.org/2000/svg"><g><path d="M7.51566 8.04184L6.74043 3.91588L7.42529 3.36249C8.91682 2.15726 11.2021 2.81328 11.7649 4.60823M15.4645 14.5175C16.3784 13.779 17.741 13.8938 18.5078 14.7739L18.6814 14.9731C19.5441 15.9632 19.41 17.4393 18.3818 18.2701L16.7271 19.6073C13.6426 22.0997 9.04401 21.7122 6.45584 18.7419C3.86767 15.7716 4.26999 11.3432 7.35446 8.85082L13.9736 3.50223C15.0018 2.67143 16.5346 2.80058 17.3974 3.79068C18.2601 4.78079 18.126 6.25692 17.0978 7.08772L13.1677 10.2634L13.7882 9.76201C14.8164 8.93122 16.3493 9.06036 17.212 10.0505C18.0747 11.0406 17.9406 12.5167 16.9124 13.3475L16.2919 13.8489" stroke="currentColor" stroke-width="1.5" stroke-linecap="round" stroke-linejoin="round"></path></g></svg>