<svg width="24px" height="24px" viewBox="0 0 24 24" fill="none" xmlns="http://www.w3.org/2000/svg"><g><path d="M7.375 12C4.82068 12 2.75 9.92932 2.75 7.375C2.75 4.82068 4.82068 2.75 7.375 2.75C9.92932 2.75 12 4.82068 12 7.375M7.375 12C4.82068 12 2.75 14.0707 2.75 16.625C2.75 19.1793 4.82068 21.25 7.375 21.25C9.92932 21.25 12 19.1793 12 16.625M7.375 12H8.5M12 7.375C12 4.82068 14.0707 2.75 16.625 2.75C19.1793 2.75 21.25 4.82068 21.25 7.375C21.25 9.92932 19.1793 12 16.625 12M12 7.375V8.5M16.625 12C19.1793 12 21.25 14.0707 21.25 16.625C21.25 19.1793 19.1793 21.25 16.625 21.25C14.0707 21.25 12 19.1793 12 16.625M16.625 12H15.5M12 16.625V15.5" stroke="currentColor" stroke-width="1.5" stroke-linecap="round" stroke-linejoin="round"></path><path d="M12 15.25C13.7949 15.25 15.25 13.7949 15.25 12C15.25 10.2051 13.7949 8.75 12 8.75C10.2051 8.75 8.75 10.2051 8.75 12C8.75 13.7949 10.2051 15.25 12 15.25Z" stroke="currentColor" stroke-width="1.5" stroke-linecap="round" stroke-linejoin="round"></path><path d="M9.5 9.5L7.5 7.5M14.5 9.5L16.5 7.5M14.5 14.5L16.5 16.5M9.5 14.5L7.5 16.5" stroke="currentColor" stroke-width="1.5" stroke-linecap="round" stroke-linejoin="round"></path></g></svg>