<svg width="24px" height="24px" viewBox="0 0 24 24" fill="none" xmlns="http://www.w3.org/2000/svg"><g><path d="M5.1581 20.6233L3.09294 18.4366C2.49063 17.7989 2.94275 16.75 3.81995 16.75H20.1823C21.0592 16.75 21.5114 17.7982 20.9098 18.4361L18.8481 20.6222C18.4702 21.0229 17.9438 21.25 17.3931 21.25H6.61212C6.06187 21.25 5.53592 21.0233 5.1581 20.6233Z" stroke="currentColor" stroke-width="1.5" stroke-linecap="round" stroke-linejoin="round"></path><path d="M12.8 16.5L12.7559 3.7204C12.7533 2.9532 11.9392 2.49827 11.3135 2.94228C9.27841 4.38653 5.60237 7.42009 3.79073 11.5491C3.49895 12.2141 4.06623 12.8988 4.78938 12.8323C9.14269 12.432 13.9559 12.5842 18.2999 12.9687C18.9992 13.0306 19.5482 12.3781 19.2881 11.7261C18.0089 8.51916 15.586 6.18617 13.3167 4.82143" stroke="currentColor" stroke-width="1.5" stroke-linecap="round" stroke-linejoin="round"></path></g></svg>