<svg width="24px" height="24px" viewBox="0 0 24 24" fill="none" xmlns="http://www.w3.org/2000/svg"><g><path d="M2.75 6.75C2.75 6.19772 3.19772 5.75 3.75 5.75H5.75C6.30228 5.75 6.75 6.19772 6.75 6.75V19.25C6.75 19.8023 6.30228 20.25 5.75 20.25H3.75C3.19772 20.25 2.75 19.8023 2.75 19.25V6.75Z" stroke="currentColor" stroke-width="1.5" stroke-linecap="square" stroke-linejoin="round"></path><path d="M14.257 8.46569C14.114 7.93222 14.4306 7.38388 14.9641 7.24094L17.3789 6.59389C17.9124 6.45095 18.4607 6.76753 18.6036 7.301L21.5801 18.4091C21.723 18.9426 21.4064 19.4909 20.873 19.6339L18.4581 20.2809C17.9247 20.4239 17.3763 20.1073 17.2334 19.5738L14.257 8.46569Z" stroke="currentColor" stroke-width="1.5" stroke-linecap="square" stroke-linejoin="round"></path><path d="M6.75 4.75C6.75 4.19772 7.19772 3.75 7.75 3.75H12.25C12.8023 3.75 13.25 4.19772 13.25 4.75V19.25C13.25 19.8023 12.8023 20.25 12.25 20.25H7.75C7.19772 20.25 6.75 19.8023 6.75 19.25V4.75Z" stroke="currentColor" stroke-width="1.5" stroke-linecap="square" stroke-linejoin="round"></path><path d="M6.75 7.875H13.25" stroke="currentColor" stroke-width="1.5" stroke-linecap="square" stroke-linejoin="round"></path><path d="M6.75 16.125H13.25" stroke="currentColor" stroke-width="1.5" stroke-linecap="square" stroke-linejoin="round"></path></g></svg>