<svg width="24px" height="24px" viewBox="0 0 24 24" fill="none" xmlns="http://www.w3.org/2000/svg"><g><path d="M19.25 12V14.75C19.25 15.8546 18.3546 16.75 17.25 16.75H7C5.75736 16.75 4.75 17.7574 4.75 19C4.75 20.2426 5.75736 21.25 7 21.25H10M8.75 7H15.25M8.75 11H12.25M6.75 2.75H17.25C18.3546 2.75 19.25 3.64543 19.25 4.75V19.25C19.25 20.3546 18.3546 21.25 17.25 21.25H6.75C5.64543 21.25 4.75 20.3546 4.75 19.25V4.75C4.75 3.64543 5.64543 2.75 6.75 2.75Z" stroke="currentColor" stroke-width="1.5" stroke-linecap="round" stroke-linejoin="round"></path></g></svg>