<svg width="24px" height="24px" viewBox="0 0 24 24" fill="none" xmlns="http://www.w3.org/2000/svg"><g><path d="M19.25 18.9529V5.95C19.25 4.8299 19.25 4.26984 19.032 3.84202C18.8403 3.46569 18.5343 3.15973 18.158 2.96799C17.7302 2.75 17.1701 2.75 16.05 2.75H7.95C6.8299 2.75 6.26984 2.75 5.84202 2.96799C5.46569 3.15973 5.15973 3.46569 4.96799 3.84202C4.75 4.26984 4.75 4.8299 4.75 5.95V18.953C4.75 19.9402 4.75 20.4339 4.95535 20.7027C5.13419 20.9368 5.40715 21.0801 5.7014 21.0944C6.03927 21.1109 6.44564 20.8306 7.25837 20.2701L10.1833 18.2529C10.8385 17.8011 11.1661 17.5751 11.5217 17.4875C11.8359 17.4102 12.1641 17.4102 12.4783 17.4875C12.834 17.5751 13.1616 17.8011 13.8168 18.2529L16.7416 20.2701C17.5544 20.8306 17.9607 21.1108 18.2986 21.0944C18.5928 21.0801 18.8658 20.9368 19.0447 20.7027C19.25 20.4339 19.25 19.9402 19.25 18.9529Z" stroke="currentColor" stroke-width="1.5" stroke-linecap="round" stroke-linejoin="round"></path><path d="M9.34998 10.35L11 12L14.85 8.15002" stroke="currentColor" stroke-width="1.5" stroke-linecap="round" stroke-linejoin="round"></path></g></svg>