<svg width="24px" height="24px" viewBox="0 0 24 24" fill="none" xmlns="http://www.w3.org/2000/svg"><g><path d="M8.75 8.75H4.75C3.64543 8.75 2.75 9.64543 2.75 10.75V19.25C2.75 20.3546 3.64543 21.25 4.75 21.25H13.25C14.3546 21.25 15.25 20.3546 15.25 19.25V15.25" stroke="currentColor" stroke-width="1.5" stroke-linecap="round" stroke-linejoin="round"></path><path d="M8.75 8.75V10V13V13.25C8.75 14.3546 9.64543 15.25 10.75 15.25H11H14H15.25M8.75 5V4.75C8.75 3.64543 9.64543 2.75 10.75 2.75H11M19 2.75H19.25C20.3546 2.75 21.25 3.64543 21.25 4.75V5M14 2.75H16M21.25 8V10M21.25 13V13.25C21.25 14.3546 20.3546 15.25 19.25 15.25H19" stroke="currentColor" stroke-width="1.5" stroke-linecap="round" stroke-linejoin="round"></path></g></svg>