<svg width="24px" height="24px" viewBox="0 0 24 24" fill="none" xmlns="http://www.w3.org/2000/svg"><g><path d="M10 6.37434V3.75C10 2.64543 10.8954 1.75 12 1.75C13.1046 1.75 14 2.64543 14 3.75V6.37434C14 6.93253 14.2333 7.46533 14.6434 7.84394L16.6066 9.65606C17.0167 10.0347 17.25 10.5675 17.25 11.1257V20.25C17.25 21.3546 16.3546 22.25 15.25 22.25H8.75C7.64543 22.25 6.75 21.3546 6.75 20.25V11.1257C6.75 10.5675 6.98327 10.0347 7.39344 9.65606L9.35656 7.84394C9.76672 7.46533 10 6.93253 10 6.37434Z" stroke="currentColor" stroke-width="1.5" stroke-linecap="round" stroke-linejoin="round"></path><path d="M10 1.75H9.375" stroke="currentColor" stroke-width="1.5" stroke-linecap="round" stroke-linejoin="round"></path><path d="M14.625 1.75H14" stroke="currentColor" stroke-width="1.5" stroke-linecap="round" stroke-linejoin="round"></path></g></svg>