<svg width="24px" height="24px" viewBox="0 0 24 24" fill="none" xmlns="http://www.w3.org/2000/svg"><g><path d="M8.25 3.75H6.75C5.64543 3.75 4.75 4.64543 4.75 5.75V10C4.75 11.1046 3.85457 12 2.75 12C3.85457 12 4.75 12.8954 4.75 14V18.25C4.75 19.3546 5.64543 20.25 6.75 20.25H8.25M15.75 3.75H17.25C18.3546 3.75 19.25 4.64543 19.25 5.75V10C19.25 11.1046 20.1454 12 21.25 12C20.1454 12 19.25 12.8954 19.25 14V18.25C19.25 19.3546 18.3546 20.25 17.25 20.25H15.75" stroke="currentColor" stroke-width="1.5" stroke-linecap="round" stroke-linejoin="round"></path></g></svg>