<svg width="24px" height="24px" viewBox="0 0 24 24" fill="none" xmlns="http://www.w3.org/2000/svg"><g><path d="M21.25 14.5694C21.25 16.0734 20.3271 17.3617 19.0167 17.8991C18.4635 19.8338 16.6819 21.25 14.5694 21.25C13.6187 21.25 12.7349 20.9631 12 20.4712C11.2651 20.9631 10.3813 21.25 9.43056 21.25C7.31815 21.25 5.5365 19.8338 4.98327 17.8991C3.67291 17.3617 2.75 16.0734 2.75 14.5694C2.75 13.5629 3.16341 12.6529 3.82969 12C3.16341 11.3471 2.75 10.4371 2.75 9.43056C2.75 7.57553 4.15413 6.04846 5.95754 5.8542C6.40662 4.07047 8.02133 2.75 9.94444 2.75C10.6933 2.75 11.3953 2.9502 12 3.29999C12.6047 2.9502 13.3067 2.75 14.0556 2.75C15.9787 2.75 17.5934 4.07047 18.0425 5.8542C19.8459 6.04846 21.25 7.57553 21.25 9.43056C21.25 10.4371 20.8366 11.3471 20.1703 12C20.8366 12.6529 21.25 13.5629 21.25 14.5694Z" stroke="currentColor" stroke-width="1.5" stroke-linecap="round" stroke-linejoin="round"></path><path d="M12 3.30005L12 20.4712" stroke="currentColor" stroke-width="1.5" stroke-linecap="round" stroke-linejoin="round"></path><path d="M8.75 13.75C10.5449 13.75 12 15.2051 12 17" stroke="currentColor" stroke-width="1.5" stroke-linecap="round" stroke-linejoin="round"></path><path d="M15.25 10.25C13.4551 10.25 12 8.79493 12 7" stroke="currentColor" stroke-width="1.5" stroke-linecap="round" stroke-linejoin="round"></path></g></svg>