<svg width="24px" height="24px" viewBox="0 0 24 24" fill="none" xmlns="http://www.w3.org/2000/svg"><g><path d="M4.08682 11C3.87085 10.5454 3.75 10.0368 3.75 9.50002C3.75 7.82446 4.92741 6.4239 6.5 6.08057" stroke="currentColor" stroke-width="1.5" stroke-linecap="round"></path><path d="M4.08682 11C3.87085 10.5454 3.75 10.0368 3.75 9.50002C3.75 7.82446 4.92741 6.4239 6.5 6.08057" stroke="currentColor" stroke-width="1.5" stroke-linecap="round"></path><path d="M4.08682 11C3.87085 10.5454 3.75 10.0368 3.75 9.50002C3.75 7.82446 4.92741 6.4239 6.5 6.08057" stroke="currentColor" stroke-width="1.5" stroke-linecap="round"></path><path d="M19.9132 11C20.1292 10.5454 20.25 10.0368 20.25 9.50002C20.25 7.82446 19.0726 6.4239 17.5 6.08057" stroke="currentColor" stroke-width="1.5" stroke-linecap="round"></path><path d="M19.9132 11C20.1292 10.5454 20.25 10.0368 20.25 9.50002C20.25 7.82446 19.0726 6.4239 17.5 6.08057" stroke="currentColor" stroke-width="1.5" stroke-linecap="round"></path><path d="M19.9132 11C20.1292 10.5454 20.25 10.0368 20.25 9.50002C20.25 7.82446 19.0726 6.4239 17.5 6.08057" stroke="currentColor" stroke-width="1.5" stroke-linecap="round"></path><path d="M7 16.7282C6.61947 16.9028 6.19611 17.0002 5.75 17.0002C4.09315 17.0002 2.75 15.6571 2.75 14.0002C2.75 12.6023 3.70608 11.4278 5 11.0947" stroke="currentColor" stroke-width="1.5" stroke-linecap="round"></path><path d="M17 16.7282C17.3805 16.9028 17.8039 17.0002 18.25 17.0002C19.9069 17.0002 21.25 15.6571 21.25 14.0002C21.25 12.6023 20.2939 11.4278 19 11.0947" stroke="currentColor" stroke-width="1.5" stroke-linecap="round"></path><path d="M12 5.375C12 3.92525 10.8247 2.75 9.375 2.75C7.92525 2.75 6.75 3.92525 6.75 5.375C6.75 5.98861 6.96054 6.55304 7.31331 7" stroke="currentColor" stroke-width="1.5" stroke-linecap="round"></path><path d="M12 5.375C12 3.92525 13.1753 2.75 14.625 2.75C16.0747 2.75 17.25 3.92525 17.25 5.375C17.25 5.98861 17.0395 6.55304 16.6867 7" stroke="currentColor" stroke-width="1.5" stroke-linecap="round"></path><path d="M12 5.25V17.5" stroke="currentColor" stroke-width="1.5" stroke-linecap="round"></path><path d="M12 17.5C12 19.5711 10.3211 21.25 8.25 21.25C6.17893 21.25 4.5 19.5711 4.5 17.5V17" stroke="currentColor" stroke-width="1.5" stroke-linecap="round"></path><path d="M12 17.5C12 19.5711 13.6789 21.25 15.75 21.25C17.8211 21.25 19.5 19.5711 19.5 17.5V17" stroke="currentColor" stroke-width="1.5" stroke-linecap="round"></path></g></svg>