<svg width="24px" height="24px" viewBox="0 0 24 24" fill="none" xmlns="http://www.w3.org/2000/svg"><g><path d="M5.74556 4.73201L8.11786 3.24932C8.62375 2.93315 9.24436 2.8593 9.81031 3.04795L11.3675 3.56703C11.7781 3.70387 12.2219 3.70387 12.6325 3.56703L14.1897 3.04795C14.7556 2.8593 15.3763 2.93314 15.8821 3.24932L18.2544 4.73201C18.8392 5.09749 19.1944 5.73843 19.1944 6.42801V6.88896C19.1944 7.51847 19.4908 8.11125 19.9944 8.48896L20.45 8.83063C20.9536 9.20833 21.25 9.80111 21.25 10.4306V12.5417C21.25 13.1713 20.9536 13.764 20.45 14.1417L19.9944 14.4834C19.4908 14.8611 19.1944 15.4539 19.1944 16.0834V17.5721C19.1944 18.2617 18.8392 18.9027 18.2544 19.2681L15.8821 20.7508C15.3763 21.067 14.7556 21.1408 14.1897 20.9522L12.6325 20.4331C12.2219 20.2963 11.7781 20.2963 11.3675 20.4331L9.81032 20.9522C9.24437 21.1408 8.62375 21.067 8.11786 20.7508L5.74556 19.2681C5.16079 18.9027 4.80556 18.2617 4.80556 17.5721V16.0834C4.80556 15.4539 4.50917 14.8611 4.00556 14.4834L3.55 14.1417C3.04639 13.764 2.75 13.1713 2.75 12.5417V10.4306C2.75 9.80111 3.04639 9.20833 3.55 8.83063L4.00556 8.48896C4.50917 8.11125 4.80556 7.51847 4.80556 6.88896V6.42801C4.80556 5.73843 5.16079 5.09749 5.74556 4.73201Z" stroke="currentColor" stroke-width="1.5" stroke-linecap="round" stroke-linejoin="round"></path><path d="M12 4V7.17157C12 7.70201 12.2107 8.21071 12.5858 8.58579L15 11" stroke="currentColor" stroke-width="1.5" stroke-linecap="round" stroke-linejoin="round"></path><path d="M12 20V16.8284C12 16.298 11.7893 15.7893 11.4142 15.4142L9 13" stroke="currentColor" stroke-width="1.5" stroke-linecap="round" stroke-linejoin="round"></path><circle cx="9" cy="13" r="1" stroke="currentColor" stroke-width="1.5" stroke-linecap="round" stroke-linejoin="round"></circle><circle cx="15" cy="11" r="1" stroke="currentColor" stroke-width="1.5" stroke-linecap="round" stroke-linejoin="round"></circle></g></svg>