<svg width="24px" height="24px" viewBox="0 0 24 24" fill="none" xmlns="http://www.w3.org/2000/svg"><g><path d="M8.25 3.25C8.25 3.66421 8.58579 4 9 4C9.41421 4 9.75 3.66421 9.75 3.25H8.25ZM9.75 1.75C9.75 1.33579 9.41421 1 9 1C8.58579 1 8.25 1.33579 8.25 1.75H9.75ZM15.75 20.75C15.75 20.3358 15.4142 20 15 20C14.5858 20 14.25 20.3358 14.25 20.75H15.75ZM14.25 22.25C14.25 22.6642 14.5858 23 15 23C15.4142 23 15.75 22.6642 15.75 22.25H14.25ZM3.25 9.75C3.66421 9.75 4 9.41421 4 9C4 8.58579 3.66421 8.25 3.25 8.25V9.75ZM1.75 8.25C1.33579 8.25 1 8.58579 1 9C1 9.41421 1.33579 9.75 1.75 9.75V8.25ZM20.75 14.25C20.3358 14.25 20 14.5858 20 15C20 15.4142 20.3358 15.75 20.75 15.75V14.25ZM22.25 15.75C22.6642 15.75 23 15.4142 23 15C23 14.5858 22.6642 14.25 22.25 14.25V15.75ZM4.21967 5.28033C4.51256 5.57322 4.98744 5.57322 5.28033 5.28033C5.57322 4.98744 5.57322 4.51256 5.28033 4.21967L4.21967 5.28033ZM3.78033 2.71967C3.48744 2.42678 3.01256 2.42678 2.71967 2.71967C2.42678 3.01256 2.42678 3.48744 2.71967 3.78033L3.78033 2.71967ZM19.7803 18.7197C19.4874 18.4268 19.0126 18.4268 18.7197 18.7197C18.4268 19.0126 18.4268 19.4874 18.7197 19.7803L19.7803 18.7197ZM20.2197 21.2803C20.5126 21.5732 20.9874 21.5732 21.2803 21.2803C21.5732 20.9874 21.5732 20.5126 21.2803 20.2197L20.2197 21.2803ZM3.91421 15.9142L4.44454 15.3839L4.44454 15.3839L3.91421 15.9142ZM8.08579 20.0858L7.55546 20.6161H7.55546L8.08579 20.0858ZM20.0858 8.08579L20.6161 7.55546V7.55546L20.0858 8.08579ZM15.9142 3.91421L16.4445 3.38388V3.38388L15.9142 3.91421ZM13.0858 3.91421L12.5555 3.38388V3.38388L13.0858 3.91421ZM10.2197 5.71967C9.92678 6.01256 9.92678 6.48744 10.2197 6.78033C10.5126 7.07322 10.9874 7.07322 11.2803 6.78033L10.2197 5.71967ZM6.78033 11.2803C7.07322 10.9874 7.07322 10.5126 6.78033 10.2197C6.48744 9.92678 6.01256 9.92678 5.71967 10.2197L6.78033 11.2803ZM3.91421 13.0858L3.38388 12.5555H3.38388L3.91421 13.0858ZM17.2197 12.7197C16.9268 13.0126 16.9268 13.4874 17.2197 13.7803C17.5126 14.0732 17.9874 14.0732 18.2803 13.7803L17.2197 12.7197ZM20.0858 10.9142L20.6161 11.4445V11.4445L20.0858 10.9142ZM10.9142 20.0858L11.4445 20.6161L10.9142 20.0858ZM13.7803 18.2803C14.0732 17.9874 14.0732 17.5126 13.7803 17.2197C13.4874 16.9268 13.0126 16.9268 12.7197 17.2197L13.7803 18.2803ZM9.75 3.25V1.75H8.25V3.25H9.75ZM14.25 20.75V22.25H15.75V20.75H14.25ZM3.25 8.25H1.75V9.75H3.25V8.25ZM20.75 15.75H22.25V14.25H20.75V15.75ZM5.28033 4.21967L3.78033 2.71967L2.71967 3.78033L4.21967 5.28033L5.28033 4.21967ZM18.7197 19.7803L20.2197 21.2803L21.2803 20.2197L19.7803 18.7197L18.7197 19.7803ZM3.38388 16.4445L7.55546 20.6161L8.61612 19.5555L4.44454 15.3839L3.38388 16.4445ZM20.6161 7.55546L16.4445 3.38388L15.3839 4.44454L19.5555 8.61612L20.6161 7.55546ZM12.5555 3.38388L10.2197 5.71967L11.2803 6.78033L13.6161 4.44454L12.5555 3.38388ZM5.71967 10.2197L3.38388 12.5555L4.44454 13.6161L6.78033 11.2803L5.71967 10.2197ZM18.2803 13.7803L20.6161 11.4445L19.5555 10.3839L17.2197 12.7197L18.2803 13.7803ZM11.4445 20.6161L13.7803 18.2803L12.7197 17.2197L10.3839 19.5555L11.4445 20.6161ZM19.5555 8.61612C20.0436 9.10427 20.0436 9.89573 19.5555 10.3839L20.6161 11.4445C21.6901 10.3706 21.6901 8.6294 20.6161 7.55546L19.5555 8.61612ZM7.55546 20.6161C8.6294 21.6901 10.3706 21.6901 11.4445 20.6161L10.3839 19.5555C9.89573 20.0436 9.10427 20.0436 8.61612 19.5555L7.55546 20.6161ZM4.44454 15.3839C3.95639 14.8957 3.95639 14.1043 4.44454 13.6161L3.38388 12.5555C2.30994 13.6294 2.30994 15.3706 3.38388 16.4445L4.44454 15.3839ZM16.4445 3.38388C15.3706 2.30994 13.6294 2.30994 12.5555 3.38388L13.6161 4.44454C14.1043 3.95639 14.8957 3.95639 15.3839 4.44454L16.4445 3.38388Z" fill="currentColor"></path></g></svg>