<svg width="24px" height="24px" viewBox="0 0 24 24" fill="none" xmlns="http://www.w3.org/2000/svg"><g><circle cx="12" cy="10" r="7.75" stroke="currentColor" stroke-width="1.5" stroke-linecap="round" stroke-linejoin="round"></circle><path d="M7.75 16.5V22.25L12 21.2L16.25 22.25V16.5" stroke="currentColor" stroke-width="1.5" stroke-linecap="round" stroke-linejoin="round"></path><path d="M11.7711 13.854C11.2143 13.854 10.7184 13.7583 10.2834 13.5669C9.85085 13.373 9.50905 13.107 9.25799 12.7689C9.17444 12.6545 9.10451 12.5341 9.04821 12.4078C8.85988 11.9856 9.2529 11.5906 9.71525 11.5906H9.96595C10.2652 11.5906 10.4969 11.848 10.6823 12.0828C10.7967 12.222 10.9483 12.3302 11.1373 12.4072C11.3262 12.4843 11.5387 12.5228 11.7749 12.5228C12.021 12.5228 12.2385 12.4793 12.4274 12.3923C12.6163 12.3053 12.7642 12.1847 12.8711 12.0306C12.978 11.8765 13.0314 11.6988 13.0314 11.4974C13.0314 11.2936 12.9743 11.1134 12.8599 10.9568C12.748 10.7977 12.5865 10.6734 12.3752 10.5839C12.1664 10.4944 11.9178 10.4497 11.6294 10.4497H11.5101C11.1827 10.4497 10.9173 10.1842 10.9173 9.8568C10.9173 9.52937 11.1827 9.26394 11.5101 9.26394H11.6294C11.873 9.26394 12.0881 9.22168 12.2745 9.13716C12.4634 9.05265 12.6101 8.93581 12.7145 8.78667C12.8189 8.63503 12.8711 8.45854 12.8711 8.25719C12.8711 8.06579 12.8251 7.89799 12.7331 7.75382C12.6436 7.60716 12.5169 7.49281 12.3528 7.41078C12.1912 7.32875 12.0023 7.28773 11.786 7.28773C11.5673 7.28773 11.3672 7.3275 11.1857 7.40705C11.0043 7.48411 10.8588 7.59473 10.7495 7.7389C10.5654 7.98147 10.3334 8.246 10.029 8.246H9.82194C9.385 8.246 9.01414 7.87417 9.18365 7.47145C9.24114 7.33488 9.31439 7.20528 9.40341 7.08265C9.64702 6.74707 9.97514 6.48482 10.3878 6.2959C10.8029 6.10449 11.2715 6.00879 11.7935 6.00879C12.3205 6.00879 12.7816 6.10449 13.1768 6.2959C13.5721 6.4873 13.8791 6.74583 14.0978 7.07147C14.3191 7.39462 14.4284 7.75755 14.426 8.16024C14.4284 8.5878 14.2955 8.94451 14.027 9.23038C13.767 9.50984 13.4297 9.68953 13.0153 9.76943C12.9988 9.77262 12.9867 9.78701 12.9867 9.80383C12.9867 9.82133 12.9998 9.83609 13.0171 9.83847C13.5639 9.91363 13.9813 10.1074 14.2694 10.4198C14.5652 10.7355 14.7118 11.1308 14.7093 11.6056C14.7118 12.0406 14.5863 12.4271 14.3327 12.7652C14.0817 13.1032 13.7349 13.3692 13.2924 13.5631C12.85 13.757 12.3429 13.854 11.7711 13.854Z" fill="currentColor"></path></g></svg>