<svg width="24px" height="24px" viewBox="0 0 24 24" fill="none" xmlns="http://www.w3.org/2000/svg"><g><path d="M11.3819 8.76362C10.4178 8.23201 9.20537 8.57956 8.66923 9.54116C8.4097 10.0066 8.15016 10.4721 7.89062 10.9376L18.1482 16.5903C18.405 16.1299 18.6618 15.6695 18.9184 15.2091C19.4571 14.2425 19.1063 13.0228 18.1372 12.4885L11.3819 8.76362Z" stroke="currentColor" stroke-width="1.5" stroke-linecap="square" stroke-linejoin="round"></path><path d="M12.9883 9.00512L15.8934 3.92207C16.5242 2.81843 17.9311 2.42534 19.0478 3.04074C20.1729 3.66076 20.5795 5.07016 19.9558 6.18872L17.0911 11.3267" stroke="currentColor" stroke-width="1.5" stroke-linecap="square" stroke-linejoin="round"></path><path d="M8.92867 11.8184C7.2347 13.8083 5.31367 14.409 2.75 13.8659C3.77941 20.6894 15.6222 25.1274 16.652 16.4253" stroke="currentColor" stroke-width="1.5" stroke-linecap="square" stroke-linejoin="round"></path></g></svg>