<svg width="24px" height="24px" viewBox="0 0 24 24" fill="none" xmlns="http://www.w3.org/2000/svg"><g><path d="M20.085 11.9142L14.4993 17.5C13.9471 18.0523 13.0517 18.052 12.4998 17.4996C11.6718 16.6708 10.3287 16.6705 9.50038 17.4989L6.91399 20.0855C6.13305 20.8665 4.86688 20.8666 4.08577 20.0858L3.91417 19.9142C3.1329 19.1332 3.13276 17.8667 3.91386 17.0856L6.50057 14.4987C7.32879 13.6704 7.32842 12.3275 6.49975 11.4997C5.9473 10.9478 5.94706 10.0525 6.49921 9.50029L12.085 3.91425C12.866 3.13317 14.1324 3.13315 14.9135 3.91422L17.4992 6.49997L17.4992 8.49997H19.4992L20.085 9.08577C20.8661 9.86682 20.8661 11.1331 20.085 11.9142Z" stroke="currentColor" stroke-width="1.5" stroke-linecap="round" stroke-linejoin="round"></path><path d="M16.5 15.5L8.5 7.5" stroke="currentColor" stroke-width="1.5" stroke-linecap="round" stroke-linejoin="round"></path></g></svg>