<svg width="24px" height="24px" viewBox="0 0 24 24" fill="none" xmlns="http://www.w3.org/2000/svg"><g><path d="M4.75195 7.75H15.252C16.3565 7.75 17.252 8.64543 17.252 9.75V16.25C17.252 17.3546 16.3565 18.25 15.252 18.25H10.502L6.00195 20.75V18.25H4.75195C3.64738 18.25 2.75195 17.3546 2.75195 16.25V9.75C2.75195 8.64543 3.64738 7.75 4.75195 7.75Z" stroke="currentColor" stroke-width="1.5" stroke-linecap="round" stroke-linejoin="round"></path><path d="M17.2498 14.25H19.252C20.3565 14.25 21.252 13.3546 21.252 12.25V5.75C21.252 4.64543 20.3565 3.75 19.252 3.75H9.00195C7.89738 3.75 7.00195 4.64543 7.00195 5.75V7.75" stroke="currentColor" stroke-width="1.5" stroke-linecap="round" stroke-linejoin="round"></path></g></svg>