<svg width="24px" height="24px" viewBox="0 0 24 24" fill="none" xmlns="http://www.w3.org/2000/svg"><g><path d="M3.75 5.75C3.75 4.64543 4.64543 3.75 5.75 3.75H18.25C19.3546 3.75 20.25 4.64543 20.25 5.75V16.25C20.25 17.3546 19.3546 18.25 18.25 18.25H15.3759C15.143 18.25 14.9173 18.3313 14.738 18.4799L12.6397 20.2183C12.2679 20.5263 11.7292 20.5248 11.3593 20.2147L9.29422 18.4836C9.11418 18.3327 8.88675 18.25 8.65182 18.25H5.75C4.64543 18.25 3.75 17.3546 3.75 16.25V5.75Z" stroke="currentColor" stroke-width="1.5" stroke-linejoin="round"></path><path d="M12.5714 7.57143C12.5714 7.25584 12.3156 7 12 7C11.6844 7 11.4286 7.25584 11.4286 7.57143C11.4286 8.69215 11.1803 9.36869 10.7745 9.77451C10.3687 10.1803 9.69215 10.4286 8.57143 10.4286C8.25584 10.4286 8 10.6844 8 11C8 11.3156 8.25584 11.5714 8.57143 11.5714C9.69215 11.5714 10.3687 11.8197 10.7745 12.2255C11.1803 12.6313 11.4286 13.3079 11.4286 14.4286C11.4286 14.7442 11.6844 15 12 15C12.3156 15 12.5714 14.7442 12.5714 14.4286C12.5714 13.3079 12.8197 12.6313 13.2255 12.2255C13.6313 11.8197 14.3079 11.5714 15.4286 11.5714C15.7442 11.5714 16 11.3156 16 11C16 10.6844 15.7442 10.4286 15.4286 10.4286C14.3079 10.4286 13.6313 10.1803 13.2255 9.77451C12.8197 9.36869 12.5714 8.69215 12.5714 7.57143Z" fill="currentColor"></path></g></svg>