<svg width="24px" height="24px" viewBox="0 0 24 24" fill="none" xmlns="http://www.w3.org/2000/svg"><g><path d="M4.75195 3.75H19.252C20.3565 3.75 21.252 4.64543 21.252 5.75V16.25C21.252 17.3546 20.3565 18.25 19.252 18.25H12.002L7.00195 21V18.25H4.75195C3.64738 18.25 2.75195 17.3546 2.75195 16.25V5.75C2.75195 4.64543 3.64738 3.75 4.75195 3.75Z" stroke="currentColor" stroke-width="1.5" stroke-linecap="square" stroke-linejoin="round"></path><path d="M6.75 11C6.75 11.4142 7.08579 11.75 7.5 11.75C7.91421 11.75 8.25 11.4142 8.25 11C8.25 10.5858 7.91421 10.25 7.5 10.25C7.08579 10.25 6.75 10.5858 6.75 11ZM11.25 11C11.25 11.4142 11.5858 11.75 12 11.75C12.4142 11.75 12.75 11.4142 12.75 11C12.75 10.5858 12.4142 10.25 12 10.25C11.5858 10.25 11.25 10.5858 11.25 11ZM15.75 11C15.75 11.4142 16.0858 11.75 16.5 11.75C16.9142 11.75 17.25 11.4142 17.25 11C17.25 10.5858 16.9142 10.25 16.5 10.25C16.0858 10.25 15.75 10.5858 15.75 11Z" fill="currentColor" stroke="currentColor" stroke-width="0.5" stroke-linecap="square"></path></g></svg>