<svg width="24px" height="24px" viewBox="0 0 24 24" fill="none" xmlns="http://www.w3.org/2000/svg"><g><path d="M12 7.75V11.25M9.29422 18.4836L11.3593 20.2147C11.7292 20.5248 12.2679 20.5263 12.6397 20.2183L14.738 18.4799C14.9173 18.3313 15.143 18.25 15.3759 18.25H18.25C19.3546 18.25 20.25 17.3546 20.25 16.25V5.75C20.25 4.64543 19.3546 3.75 18.25 3.75H5.75C4.64543 3.75 3.75 4.64543 3.75 5.75V16.25C3.75 17.3546 4.64543 18.25 5.75 18.25H8.65182C8.88675 18.25 9.11418 18.3327 9.29422 18.4836Z" stroke="currentColor" stroke-width="1.5" stroke-linecap="round"></path><path d="M12 13.75H12.01" stroke="currentColor" stroke-width="2" stroke-linecap="round"></path></g></svg>