<svg width="24px" height="24px" viewBox="0 0 24 24" fill="none" xmlns="http://www.w3.org/2000/svg"><g><path d="M3.75 5.75C3.75 4.64543 4.64543 3.75 5.75 3.75H18.25C19.3546 3.75 20.25 4.64543 20.25 5.75V16.25C20.25 17.3546 19.3546 18.25 18.25 18.25H15.3759C15.143 18.25 14.9173 18.3313 14.738 18.4799L12.6397 20.2183C12.2679 20.5263 11.7292 20.5248 11.3593 20.2147L9.29422 18.4836C9.11418 18.3327 8.88675 18.25 8.65182 18.25H5.75C4.64543 18.25 3.75 17.3546 3.75 16.25V5.75Z" stroke="currentColor" stroke-width="1.5" stroke-linejoin="round"></path><path d="M15.2507 10.6675C15.2507 12.7448 12.2703 14.2801 11.9994 14.2801C11.7284 14.2801 8.74805 12.7448 8.74805 10.6675C8.74805 9.22251 9.65119 8.5 10.5543 8.5C11.4575 8.5 11.9994 9.04189 11.9994 9.04189C11.9994 9.04189 12.5412 8.5 13.4444 8.5C14.3475 8.5 15.2507 9.22251 15.2507 10.6675Z" stroke="currentColor" stroke-width="1.5" stroke-linejoin="round"></path></g></svg>