<svg width="24px" height="24px" viewBox="0 0 24 24" fill="none" xmlns="http://www.w3.org/2000/svg"><g><path d="M12.022 11.9133C12.1237 11.2368 12.5022 10.8714 12.8816 10.6136C13.2526 10.3613 13.6237 10.0339 13.6237 9.42768C13.6237 8.59098 12.9524 7.91333 12.1237 7.91333C11.2949 7.91333 10.6237 8.59098 10.6237 9.42768M9.29422 18.4836L11.3593 20.2147C11.7292 20.5248 12.2679 20.5263 12.6397 20.2183L14.738 18.4799C14.9173 18.3313 15.143 18.25 15.3759 18.25H18.25C19.3546 18.25 20.25 17.3546 20.25 16.25V5.75C20.25 4.64543 19.3546 3.75 18.25 3.75H5.75C4.64543 3.75 3.75 4.64543 3.75 5.75V16.25C3.75 17.3546 4.64543 18.25 5.75 18.25H8.65182C8.88675 18.25 9.11418 18.3327 9.29422 18.4836Z" stroke="currentColor" stroke-width="1.5" stroke-linecap="round"></path><path d="M12 13.5C12.4142 13.5 12.75 13.8358 12.75 14.25C12.75 14.6642 12.4142 15 12 15C11.5858 15 11.25 14.6642 11.25 14.25C11.25 13.8358 11.5858 13.5 12 13.5Z" fill="currentColor" stroke="currentColor" stroke-width="0.5"></path></g></svg>