<svg width="24px" height="24px" viewBox="0 0 24 24" fill="none" xmlns="http://www.w3.org/2000/svg"><g><path d="M21.75 12C21.75 6.84375 17.9583 3.75 12 3.75C6.04167 3.75 2.25 6.84375 2.25 12C2.25 13.3368 3.17054 15.6055 3.3145 15.9522C3.32742 15.9833 3.34021 16.0117 3.3518 16.0433C3.45089 16.3136 3.85722 17.7527 2.25 19.8828C4.41667 20.914 6.71766 19.2188 6.71766 19.2188C8.30963 20.0597 10.2038 20.25 12 20.25C17.9583 20.25 21.75 17.1562 21.75 12Z" stroke="currentColor" stroke-width="1.5" stroke-linecap="square" stroke-linejoin="round"></path><path d="M6.75 12C6.75 12.4142 7.08579 12.75 7.5 12.75C7.91421 12.75 8.25 12.4142 8.25 12C8.25 11.5858 7.91421 11.25 7.5 11.25C7.08579 11.25 6.75 11.5858 6.75 12ZM11.25 12C11.25 12.4142 11.5858 12.75 12 12.75C12.4142 12.75 12.75 12.4142 12.75 12C12.75 11.5858 12.4142 11.25 12 11.25C11.5858 11.25 11.25 11.5858 11.25 12ZM15.75 12C15.75 12.4142 16.0858 12.75 16.5 12.75C16.9142 12.75 17.25 12.4142 17.25 12C17.25 11.5858 16.9142 11.25 16.5 11.25C16.0858 11.25 15.75 11.5858 15.75 12Z" fill="currentColor" stroke="currentColor" stroke-width="0.5" stroke-linecap="square"></path></g></svg>