<svg width="24px" height="24px" viewBox="0 0 24 24" fill="none" xmlns="http://www.w3.org/2000/svg"><g><path d="M12.75 3.75H4.75C3.64543 3.75 2.75 4.64543 2.75 5.75V16.25C2.75 17.3546 3.64543 18.25 4.75 18.25H8.65182C8.88675 18.25 9.11418 18.3327 9.29422 18.4836L11.3593 20.2147C11.7292 20.5248 12.2679 20.5263 12.6397 20.2183L14.738 18.4799C14.9173 18.3313 15.143 18.25 15.3759 18.25H19.25C20.3546 18.25 21.25 17.3546 21.25 16.25V12.25M22.25 6C22.25 7.79493 20.7949 9.25 19 9.25C17.2051 9.25 15.75 7.79493 15.75 6C15.75 4.20507 17.2051 2.75 19 2.75C20.7949 2.75 22.25 4.20507 22.25 6Z" stroke="currentColor" stroke-width="1.5" stroke-linecap="round"></path></g></svg>