<svg width="24px" height="24px" viewBox="0 0 24 24" fill="none" xmlns="http://www.w3.org/2000/svg"><g><path d="M3.75 5.75C3.75 4.64543 4.64543 3.75 5.75 3.75H18.25C19.3546 3.75 20.25 4.64543 20.25 5.75V16.25C20.25 17.3546 19.3546 18.25 18.25 18.25H15.3759C15.143 18.25 14.9173 18.3313 14.738 18.4799L12.6397 20.2183C12.2679 20.5263 11.7292 20.5248 11.3593 20.2147L9.29422 18.4836C9.11418 18.3327 8.88675 18.25 8.65182 18.25H5.75C4.64543 18.25 3.75 17.3546 3.75 16.25V5.75Z" stroke="currentColor" stroke-width="1.5" stroke-linejoin="round"></path><path d="M7.25 11.25C7.25 11.6642 7.58579 12 8 12C8.41421 12 8.75 11.6642 8.75 11.25C8.75 10.8358 8.41421 10.5 8 10.5C7.58579 10.5 7.25 10.8358 7.25 11.25ZM11.25 11.25C11.25 11.6642 11.5858 12 12 12C12.4142 12 12.75 11.6642 12.75 11.25C12.75 10.8358 12.4142 10.5 12 10.5C11.5858 10.5 11.25 10.8358 11.25 11.25ZM15.25 11.25C15.25 11.6642 15.5858 12 16 12C16.4142 12 16.75 11.6642 16.75 11.25C16.75 10.8358 16.4142 10.5 16 10.5C15.5858 10.5 15.25 10.8358 15.25 11.25Z" fill="currentColor" stroke="currentColor" stroke-width="0.5" stroke-linecap="square"></path></g></svg>