<svg width="24px" height="24px" viewBox="0 0 24 24" fill="none" xmlns="http://www.w3.org/2000/svg"><g><path d="M19.3688 5.58247L14.6885 2.94979C14.0749 2.60463 13.7681 2.43204 13.4442 2.37117C13.1577 2.31734 12.8629 2.32677 12.5805 2.39881C12.2611 2.48027 11.966 2.67211 11.3757 3.05581L4.45604 7.55358L4.45603 7.55358C3.92402 7.89938 3.65802 8.07229 3.4653 8.30292C3.29469 8.50708 3.16654 8.74323 3.08834 8.99753C3 9.28481 3 9.60207 3 10.2366V15.6285C3 16.3098 3 16.6505 3.09998 16.9547C3.18843 17.2239 3.33305 17.4711 3.52426 17.6802C3.74038 17.9165 4.03731 18.0835 4.63115 18.4175L4.63116 18.4175L9.3115 21.0502C9.92512 21.3954 10.2319 21.568 10.5558 21.6288C10.8423 21.6827 11.1371 21.6732 11.4195 21.6012C11.7389 21.5197 12.034 21.3279 12.6243 20.9442L19.5439 16.4464C20.0759 16.1006 20.3419 15.9277 20.5346 15.6971C20.7052 15.4929 20.8334 15.2568 20.9116 15.0025C20.9999 14.7152 20.9999 14.3979 20.9999 13.7634V8.3715C20.9999 7.69015 20.9999 7.34947 20.8999 7.04526C20.8115 6.77613 20.6669 6.52885 20.4757 6.31981C20.2595 6.08353 19.9626 5.91651 19.3688 5.58247Z" stroke="currentColor" stroke-width="1.5" stroke-linecap="round" stroke-linejoin="round"></path><path d="M3.5 8.78053L11 12.9993L20.5 6.82422" stroke="currentColor" stroke-width="1.5" stroke-linecap="round" stroke-linejoin="round"></path><path d="M20.9999 11L11 17.5L3 13" stroke="currentColor" stroke-width="1.5" stroke-linecap="round" stroke-linejoin="round"></path><path d="M11 21.5V13" stroke="currentColor" stroke-width="1.5" stroke-linecap="round" stroke-linejoin="round"></path></g></svg>