<svg width="24px" height="24px" viewBox="0 0 24 24" fill="none" xmlns="http://www.w3.org/2000/svg"><g><path d="M2.75 14C2.75 13.0335 3.5335 12.25 4.5 12.25H19.5C20.4665 12.25 21.25 13.0335 21.25 14C21.25 14.9665 20.4665 15.75 19.5 15.75H4.5C3.5335 15.75 2.75 14.9665 2.75 14Z" stroke="currentColor" stroke-width="1.5" stroke-linecap="square"></path><path d="M20.0391 19.144L20.71 19.4792L20.0391 19.144ZM19.144 20.0391L19.4792 20.71L19.144 20.0391ZM4.85604 20.0391L4.52081 20.71L4.85604 20.0391ZM3.96091 19.144L3.29 19.4792L3.96091 19.144ZM3.75 15.75V15C3.33579 15 3 15.3358 3 15.75H3.75ZM20.25 15.75H21C21 15.3358 20.6642 15 20.25 15V15.75ZM20.25 17.07H19.5C19.5 17.6328 19.4994 18.0105 19.476 18.3016C19.4533 18.5841 19.4128 18.7195 19.3682 18.8087L20.0391 19.144L20.71 19.4792C20.8763 19.1464 20.9412 18.7954 20.9712 18.4217C21.0006 18.0567 21 17.6085 21 17.07H20.25ZM19.144 20.0391L19.4792 20.71C20.0119 20.4438 20.4438 20.0119 20.71 19.4792L20.0391 19.144L19.3682 18.8087C19.2472 19.0509 19.0509 19.2472 18.8087 19.3682L19.144 20.0391ZM17.07 20.25V21C17.6085 21 18.0567 21.0006 18.4217 20.9712C18.7954 20.9412 19.1464 20.8763 19.4792 20.71L19.144 20.0391L18.8087 19.3682C18.7195 19.4128 18.5841 19.4533 18.3016 19.476C18.0105 19.4994 17.6328 19.5 17.07 19.5V20.25ZM17.07 20.25V19.5H6.93V20.25V21H17.07V20.25ZM6.93 20.25V19.5C6.36722 19.5 5.98948 19.4994 5.69842 19.476C5.4159 19.4533 5.28054 19.4128 5.19128 19.3682L4.85604 20.0391L4.52081 20.71C4.85364 20.8763 5.20465 20.9412 5.57827 20.9712C5.94335 21.0006 6.39154 21 6.93 21V20.25ZM4.85604 20.0391L5.19128 19.3682C4.94913 19.2472 4.75281 19.0509 4.63182 18.8087L3.96091 19.144L3.29 19.4792C3.55618 20.0119 3.9881 20.4438 4.52081 20.71L4.85604 20.0391ZM3.75 17.07H3C3 17.6085 2.99944 18.0566 3.02877 18.4217C3.0588 18.7954 3.1237 19.1464 3.29 19.4792L3.96091 19.144L4.63182 18.8087C4.58721 18.7195 4.54666 18.5841 4.52395 18.3016C4.50056 18.0105 4.5 17.6328 4.5 17.07H3.75ZM3.75 17.07H4.5V15.75H3.75H3V17.07H3.75ZM3.75 15.75V16.5H20.25V15.75V15H3.75V15.75ZM20.25 15.75H19.5V17.07H20.25H21V15.75H20.25Z" fill="currentColor"></path><path d="M20.25 11.0938C20.25 5.4079 15.5 3.75 12 3.75C8.5 3.75 3.75 5.4079 3.75 11.0938V12.25H20.25V11.0938Z" stroke="currentColor" stroke-width="1.5" stroke-linecap="square"></path></g></svg>