<svg width="24px" height="24px" viewBox="0 0 24 24" fill="none" xmlns="http://www.w3.org/2000/svg"><g><path d="M20.069 13.0989C20.7793 13.7785 21.0859 14.6562 21.2008 15.5723C21.9302 21.3337 14.3432 23.3999 12.1341 18.5067C11.4797 17.0528 11.6831 15.6166 12.5792 14.3075C12.8828 13.8642 13.2601 13.4623 13.6462 13.09C14.6749 12.1 15.68 11.3073 16.1222 9.75C18.1059 11.2512 18.6806 12.9068 18.2857 15.1556H18.4656C18.8688 14.7105 19.8136 13.4605 20.069 13.0989Z" stroke="currentColor" stroke-width="1.5" stroke-linecap="round" stroke-linejoin="round"></path><path d="M18.2648 8C17.1434 4.93643 14.202 2.75 10.75 2.75C6.33172 2.75 2.75 6.33172 2.75 10.75C2.75 14.5672 5.42341 17.7599 9 18.558" stroke="currentColor" stroke-width="1.5" stroke-linecap="round" stroke-linejoin="round"></path><path d="M12.978 8.28621L11.2502 7.28868C10.9408 7.11004 10.5596 7.11004 10.2502 7.28868L7.78613 8.71132C7.47673 8.88996 7.28613 9.22008 7.28613 9.57735V12.4226C7.28613 12.7799 7.47673 13.11 7.78613 13.2887L9.1744 14.0902" stroke="currentColor" stroke-width="1.5" stroke-linecap="round" stroke-linejoin="round"></path></g></svg>