<svg width="24px" height="24px" viewBox="0 0 24 24" fill="none" xmlns="http://www.w3.org/2000/svg"><g><path d="M3.75 5.75C3.75 4.64543 4.64543 3.75 5.75 3.75H18.25C19.3546 3.75 20.25 4.64543 20.25 5.75V7.25V18.25C20.25 19.3546 19.3546 20.25 18.25 20.25H5.75C4.64543 20.25 3.75 19.3546 3.75 18.25V7.25V5.75Z" stroke="currentColor" stroke-width="1.5" stroke-linejoin="round"></path><path d="M13.75 13.75C13.75 14.7165 12.9665 15.5 12 15.5C11.0335 15.5 10.25 14.7165 10.25 13.75C10.25 12.7835 11.0335 12 12 12C12.9665 12 13.75 12.7835 13.75 13.75Z" stroke="currentColor" stroke-width="1.5" stroke-linejoin="round"></path><path d="M3.75 7.25H20.25" stroke="currentColor" stroke-width="1.5" stroke-linecap="square" stroke-linejoin="round"></path></g></svg>