<svg width="24px" height="24px" viewBox="0 0 24 24" fill="none" xmlns="http://www.w3.org/2000/svg"><g><path d="M7.75 4.75H5.75C4.64543 4.75 3.75 5.64543 3.75 6.75V9.25H20.25V6.75C20.25 5.64543 19.3546 4.75 18.25 4.75H16.25H7.75Z" stroke="currentColor" stroke-width="1.5" stroke-linecap="round" stroke-linejoin="round"></path><path d="M7.75 4.75V2.75" stroke="currentColor" stroke-width="1.5" stroke-linecap="round" stroke-linejoin="round"></path><path d="M16.25 4.75V2.75" stroke="currentColor" stroke-width="1.5" stroke-linecap="round" stroke-linejoin="round"></path><path d="M20.25 9.25V11.25" stroke="currentColor" stroke-width="1.5" stroke-linecap="round" stroke-linejoin="round"></path><path d="M3.75 9.25V18.25C3.75 19.3546 4.64543 20.25 5.75 20.25H11.25" stroke="currentColor" stroke-width="1.5" stroke-linecap="round" stroke-linejoin="round"></path><path d="M19.3713 19.364C18.1997 20.5356 16.3003 20.5356 15.1287 19.364C13.9571 18.1924 13.9571 16.2929 15.1287 15.1214C16.3003 13.9498 18.1997 13.9498 19.3713 15.1214C20.5429 16.2929 20.5429 18.1924 19.3713 19.364ZM19.3713 19.364L21.25 21.2427" stroke="currentColor" stroke-width="1.5" stroke-linecap="round" stroke-linejoin="round"></path></g></svg>