<svg width="24px" height="24px" viewBox="0 0 24 24" fill="none" xmlns="http://www.w3.org/2000/svg"><g><path d="M7.75 4.75H5.75C4.64543 4.75 3.75 5.64543 3.75 6.75V9.25M7.75 4.75H16.25M7.75 4.75V2.75M16.25 4.75H18.25C19.3546 4.75 20.25 5.64543 20.25 6.75V9.25M16.25 4.75V2.75M20.25 9.25H3.75M20.25 9.25V10.25M3.75 9.25V18.25C3.75 19.3546 4.64543 20.25 5.75 20.25H11.25" stroke="currentColor" stroke-width="1.5" stroke-linecap="round" stroke-linejoin="round"></path><path d="M21.25 14.75C21.8023 15.3023 21.8023 16.1977 21.25 16.75L17.3358 20.6642C16.9607 21.0393 16.452 21.25 15.9216 21.25H14.75V20.0785C14.75 19.548 14.9607 19.0393 15.3358 18.6642L19.25 14.75C19.8023 14.1977 20.6977 14.1977 21.25 14.75Z" stroke="currentColor" stroke-width="1.5" stroke-linecap="round" stroke-linejoin="round"></path></g></svg>