<svg width="24px" height="24px" viewBox="0 0 24 24" fill="none" xmlns="http://www.w3.org/2000/svg"><g><path d="M2.46005 9.95628L3.58876 16.3575C3.78057 17.4453 4.81789 18.1717 5.90567 17.9799L10.1141 17.2378M2.46005 9.95628L2.11275 7.98667C1.92094 6.89888 2.64728 5.86156 3.73507 5.66976L13.0907 4.0201C14.1785 3.82829 15.2158 4.55463 15.4077 5.64242L15.755 7.61203L2.46005 9.95628Z" stroke="currentColor" stroke-width="1.5" stroke-linecap="round" stroke-linejoin="round"></path><path d="M16 20.25C19.4518 20.25 22.25 17.4518 22.25 14C22.25 10.5482 19.4518 7.75 16 7.75C12.5482 7.75 9.75 10.5482 9.75 14C9.75 17.4518 12.5482 20.25 16 20.25Z" stroke="currentColor" stroke-width="1.5" stroke-linecap="round" stroke-linejoin="round"></path><path d="M16 11.75V14L18 16" stroke="currentColor" stroke-width="1.5" stroke-linecap="round" stroke-linejoin="round"></path></g></svg>