<svg width="24px" height="24px" viewBox="0 0 24 24" fill="none" xmlns="http://www.w3.org/2000/svg"><g><path d="M22.281 19.125V21.5612C22.281 22.0345 21.7088 22.2715 21.3741 21.9368L18.4067 18.9694C18.072 18.6347 18.309 18.0625 18.7823 18.0625H21.2185C21.8053 18.0625 22.281 18.5382 22.281 19.125Z" fill="currentColor"></path><path d="M12.7188 14.875V12.4388C12.7188 11.9655 13.291 11.7285 13.6257 12.0632L16.5931 15.0306C16.9278 15.3653 16.6907 15.9375 16.2174 15.9375H13.7812C13.1944 15.9375 12.7188 15.4618 12.7188 14.875Z" fill="currentColor"></path><path d="M7.75 4.75H5.75C4.64543 4.75 3.75 5.64543 3.75 6.75V9.25H20.25C20.25 8.41667 20.25 7.58333 20.25 6.75C20.25 5.64543 19.3546 4.75 18.25 4.75H16.25H7.75Z" stroke="currentColor" stroke-width="1.59375" stroke-linecap="round" stroke-linejoin="round"></path><path d="M7.75 4.75V2.75" stroke="currentColor" stroke-width="1.59375" stroke-linecap="round" stroke-linejoin="round"></path><path d="M16.25 4.75V2.75" stroke="currentColor" stroke-width="1.59375" stroke-linecap="round" stroke-linejoin="round"></path><path d="M3.75 9.25V18.25C3.75 19.3546 4.64543 20.25 5.75 20.25H10.25" stroke="currentColor" stroke-width="1.59375" stroke-linecap="round" stroke-linejoin="round"></path><path d="M20.3387 20.1875C19.5784 20.8488 18.5768 21.25 17.4989 21.25C15.5186 21.25 13.8546 19.8956 13.3828 18.0625" stroke="currentColor" stroke-width="1.59375" stroke-linecap="round" stroke-linejoin="round"></path><path d="M14.418 14.0388C15.2006 13.2439 16.3026 12.75 17.4985 12.75C19.4788 12.75 21.1428 14.1044 21.6146 15.9375" stroke="currentColor" stroke-width="1.59375" stroke-linecap="round" stroke-linejoin="round"></path></g></svg>