<svg width="24px" height="24px" viewBox="0 0 24 24" fill="none" xmlns="http://www.w3.org/2000/svg"><g><path d="M15.7504 3.75H20.2504V8.25M14.7504 9.25L19.752 4.24839M9.42268 5.18567L9.91742 6.86777C10.122 7.56343 9.92215 8.31514 9.39906 8.81732C8.78521 9.40661 8.61416 10.3355 9.07624 11.05C10.0783 12.5995 11.401 13.9222 12.9504 14.9242C13.665 15.3863 14.5938 15.2152 15.1831 14.6014C15.6853 14.0783 16.437 13.8784 17.1327 14.083L18.8148 14.5777C19.6659 14.8281 20.2504 15.6093 20.2504 16.4965V18.25C20.2504 19.3546 19.3522 20.2625 18.2544 20.1409C16.0082 19.8922 13.8369 19.2141 11.8574 18.0656C9.40444 16.6424 7.35799 14.596 5.93481 12.143C4.79233 10.1738 4.08232 7.97389 3.84204 5.71684C3.72635 4.63017 4.62957 3.75 5.72238 3.75H7.50395C8.39117 3.75 9.17234 4.3345 9.42268 5.18567Z" stroke="currentColor" stroke-width="1.5" stroke-linecap="round" stroke-linejoin="round"></path></g></svg>