<svg width="24px" height="24px" viewBox="0 0 24 24" fill="none" xmlns="http://www.w3.org/2000/svg"><g><path fill-rule="evenodd" clip-rule="evenodd" d="M10.8242 12.1151C10.4161 11.654 10.0422 11.1618 9.70649 10.6427C9.46639 10.2715 9.52689 9.73471 9.91892 9.35836C10.644 8.66231 10.921 7.62038 10.6374 6.65615L10.1427 4.97404C9.79845 3.80369 8.72434 3 7.50442 3H5.72284C4.24801 3 2.92738 4.20552 3.09672 5.79624C3.34796 8.15623 4.09035 10.4576 5.28656 12.5194C5.90448 13.5844 6.63466 14.5761 7.46096 15.4784L3.21967 19.7197C2.92678 20.0126 2.92678 20.4874 3.21967 20.7803C3.51256 21.0732 3.98744 21.0732 4.28033 20.7803L20.7803 4.28033C21.0732 3.98744 21.0732 3.51256 20.7803 3.21967C20.4874 2.92678 20.0126 2.92678 19.7197 3.21967L10.8242 12.1151ZM8.52274 14.4166C7.78731 13.6067 7.13641 12.7188 6.584 11.7666C5.49525 9.89004 4.81761 7.79155 4.58829 5.63745C4.52627 5.05482 5.01206 4.5 5.72284 4.5H7.50442C8.05893 4.5 8.54716 4.86531 8.70363 5.39729L9.19836 7.07939C9.32398 7.50648 9.20127 7.96798 8.88013 8.27628C8.04447 9.0785 7.76286 10.3995 8.44692 11.4573C8.84021 12.0654 9.2802 12.6405 9.76181 13.1775L8.52274 14.4166Z" fill="currentColor"></path><path d="M12.2343 17.4169C11.7185 17.1177 11.2216 16.7895 10.7457 16.4347L9.67479 17.5056C10.2492 17.9454 10.8526 18.3494 11.4815 18.7143C13.5573 19.9187 15.8298 20.627 18.1723 20.8864C19.7705 21.0633 21.0009 19.743 21.0009 18.25V16.4965C21.0009 15.2766 20.1972 14.2024 19.0269 13.8582L17.3448 13.3635C16.3805 13.0799 15.3386 13.3569 14.6425 14.082C14.2662 14.474 13.7294 14.5345 13.3582 14.2944C13.2628 14.2327 13.1683 14.1698 13.0748 14.1055L11.998 15.1823C12.1767 15.3104 12.3587 15.4344 12.5436 15.554C13.6014 16.238 14.9224 15.9564 15.7246 15.1208C16.0329 14.7996 16.4944 14.6769 16.9215 14.8025L18.6036 15.2973C19.1356 15.4537 19.5009 15.942 19.5009 16.4965V18.25C19.5009 18.9662 18.9349 19.4616 18.3374 19.3955C16.1875 19.1574 14.1175 18.5095 12.2343 17.4169Z" fill="currentColor"></path></g></svg>