<svg width="24px" height="24px" viewBox="0 0 24 24" fill="none" xmlns="http://www.w3.org/2000/svg"><g><path d="M9.99833 11.5L14 15.5017M14.0017 11.5L10 15.5017M6.42963 6.75H4.75C3.64543 6.75 2.75 7.64543 2.75 8.75V18.25C2.75 19.3546 3.64543 20.25 4.75 20.25H19.25C20.3546 20.25 21.25 19.3546 21.25 18.25V8.75C21.25 7.64543 20.3546 6.75 19.25 6.75H17.5704C16.9017 6.75 16.2772 6.4158 15.9063 5.8594L15.0937 4.6406C14.7228 4.0842 14.0983 3.75 13.4296 3.75H10.5704C9.90166 3.75 9.2772 4.0842 8.90627 4.6406L8.09373 5.8594C7.7228 6.4158 7.09834 6.75 6.42963 6.75Z" stroke="currentColor" stroke-width="1.5" stroke-linecap="round" stroke-linejoin="round"></path></g></svg>