<svg width="24px" height="24px" viewBox="0 0 24 24" fill="none" xmlns="http://www.w3.org/2000/svg"><g><path d="M9.75 3.75H13.4296C14.0983 3.75 14.7228 4.0842 15.0937 4.6406L15.9063 5.8594C16.2772 6.4158 16.9017 6.75 17.5704 6.75H19.25C20.3546 6.75 21.25 7.64543 21.25 8.75V16.25M2.75 2.75L6.75 6.75M6.75 6.75H4.75C3.64543 6.75 2.75 7.64543 2.75 8.75V18.25C2.75 19.3546 3.64543 20.25 4.75 20.25H20.25M6.75 6.75L20.25 20.25M20.25 20.25L21.25 21.25M14.5619 15C13.9671 15.7609 13.0407 16.25 12 16.25C10.2051 16.25 8.75 14.7949 8.75 13C8.75 11.9593 9.23912 11.0329 10 10.4381" stroke="currentColor" stroke-width="1.5" stroke-linecap="round" stroke-linejoin="round"></path></g></svg>