<svg width="24px" height="24px" viewBox="0 0 24 24" fill="none" xmlns="http://www.w3.org/2000/svg"><g><path d="M15.4649 5.75L14.8157 6.12554C14.9497 6.35729 15.1971 6.5 15.4649 6.5V5.75ZM8.53513 5.75V6.5C8.80285 6.5 9.05028 6.35729 9.18433 6.12554L8.53513 5.75ZM2 7.75V18.25H3.5V7.75H2ZM4.75 21H19.25V19.5H4.75V21ZM22 18.25V7.75H20.5V18.25H22ZM12 4.5C13.202 4.5 14.2526 5.15216 14.8157 6.12554L16.1141 5.37446C15.2939 3.95663 13.7591 3 12 3V4.5ZM9.18433 6.12554C9.74741 5.15216 10.798 4.5 12 4.5V3C10.2409 3 8.70609 3.95663 7.88592 5.37446L9.18433 6.12554ZM19.25 5H15.4649V6.5H19.25V5ZM8.53513 5H4.75V6.5H8.53513V5ZM22 7.75C22 6.23122 20.7688 5 19.25 5V6.5C19.9404 6.5 20.5 7.05964 20.5 7.75H22ZM19.25 21C20.7688 21 22 19.7688 22 18.25H20.5C20.5 18.9404 19.9404 19.5 19.25 19.5V21ZM2 18.25C2 19.7688 3.23122 21 4.75 21V19.5C4.05964 19.5 3.5 18.9404 3.5 18.25H2ZM3.5 7.75C3.5 7.05964 4.05964 6.5 4.75 6.5V5C3.23122 5 2 6.23122 2 7.75H3.5ZM14.5 12.5C14.5 13.8807 13.3807 15 12 15V16.5C14.2091 16.5 16 14.7091 16 12.5H14.5ZM12 15C10.6193 15 9.5 13.8807 9.5 12.5H8C8 14.7091 9.79086 16.5 12 16.5V15ZM9.5 12.5C9.5 11.1193 10.6193 10 12 10V8.5C9.79086 8.5 8 10.2909 8 12.5H9.5ZM12 10C13.3807 10 14.5 11.1193 14.5 12.5H16C16 10.2909 14.2091 8.5 12 8.5V10Z" fill="currentColor"></path></g></svg>