<svg width="24px" height="24px" viewBox="0 0 24 24" fill="none" xmlns="http://www.w3.org/2000/svg"><g><path d="M2.75 5.75C2.75 4.64543 3.64543 3.75 4.75 3.75H19.25C20.3546 3.75 21.25 4.64543 21.25 5.75V18.25C21.25 19.3546 20.3546 20.25 19.25 20.25H4.75C3.64543 20.25 2.75 19.3546 2.75 18.25V5.75Z" stroke="currentColor" stroke-width="1.5" stroke-linejoin="round"></path><path d="M15.25 12C15.25 13.7949 13.7949 15.25 12 15.25C10.2051 15.25 8.75 13.7949 8.75 12C8.75 10.2051 10.2051 8.75 12 8.75C13.7949 8.75 15.25 10.2051 15.25 12Z" stroke="currentColor" stroke-width="1.5" stroke-linejoin="round"></path><path d="M17.5 7.5V7.49M17.75 7.5C17.75 7.63807 17.6381 7.75 17.5 7.75C17.3619 7.75 17.25 7.63807 17.25 7.5C17.25 7.36193 17.3619 7.25 17.5 7.25C17.6381 7.25 17.75 7.36193 17.75 7.5Z" stroke="currentColor" stroke-width="1.5" stroke-linecap="round"></path></g></svg>