<svg width="24px" height="24px" viewBox="0 0 24 24" fill="none" xmlns="http://www.w3.org/2000/svg"><g><path d="M6.75 16.25H9.25M9.75 4.75H4.75C3.64543 4.75 2.75 5.64543 2.75 6.75V18.25C2.75 19.3546 3.64543 20.25 4.75 20.25H19.25C20.3546 20.25 21.25 19.3546 21.25 18.25V16.25M14.75 13.253H19.25C20.3546 13.253 21.25 12.3576 21.25 11.253V6.75C21.25 5.64543 20.3546 4.75 19.25 4.75H14.75C13.6454 4.75 12.75 5.64543 12.75 6.75V11.253C12.75 12.3576 13.6454 13.253 14.75 13.253Z" stroke="currentColor" stroke-width="1.5" stroke-linecap="round" stroke-linejoin="round"></path><path d="M17 9V8.99M17.25 9C17.25 9.13807 17.1381 9.25 17 9.25C16.8619 9.25 16.75 9.13807 16.75 9C16.75 8.86193 16.8619 8.75 17 8.75C17.1381 8.75 17.25 8.86193 17.25 9Z" stroke="currentColor" stroke-width="1.5" stroke-linecap="round"></path></g></svg>