<svg width="24px" height="24px" viewBox="0 0 24 24" fill="none" xmlns="http://www.w3.org/2000/svg"><g><path d="M21.25 17.25V6.75C21.25 5.64543 20.3546 4.75 19.25 4.75H9.35798L9.0986 4.44769C8.71864 4.00483 8.16423 3.75 7.58071 3.75H6.42045C5.83627 3.75 5.28128 4.00542 4.90131 4.44915L4.6412 4.75291C3.58723 4.80941 2.75 5.68193 2.75 6.75V17.25C2.75 18.3546 3.64543 19.25 4.75 19.25H19.25C20.3546 19.25 21.25 18.3546 21.25 17.25Z" stroke="currentColor" stroke-width="1.5" stroke-linecap="square" stroke-linejoin="round"></path><path d="M17.25 12C17.25 13.7949 15.7949 15.25 14 15.25C12.2051 15.25 10.75 13.7949 10.75 12C10.75 10.2051 12.2051 8.75 14 8.75C15.7949 8.75 17.25 10.2051 17.25 12Z" stroke="currentColor" stroke-width="1.5" stroke-linecap="square" stroke-linejoin="round"></path><path d="M7 9V8.99M7.25 9C7.25 9.13807 7.13807 9.25 7 9.25C6.86193 9.25 6.75 9.13807 6.75 9C6.75 8.86193 6.86193 8.75 7 8.75C7.13807 8.75 7.25 8.86193 7.25 9Z" stroke="currentColor" stroke-width="1.5" stroke-linecap="round" stroke-linejoin="round"></path></g></svg>