<svg width="24px" height="24px" viewBox="0 0 24 24" fill="none" xmlns="http://www.w3.org/2000/svg"><g><circle cx="12" cy="12" r="5.25" stroke="currentColor" stroke-width="1.5" stroke-linecap="round" stroke-linejoin="round"></circle><path d="M16.9643 10.25C18.19 9.95047 19.5641 9.44363 20.6762 8.69158C21.5196 8.12122 21.4557 6.95575 20.7358 6.23581L17.7642 3.26421C17.0443 2.54427 15.8788 2.48043 15.3084 3.32382C14.5564 4.43587 14.0495 5.81004 13.75 7.03573" stroke="currentColor" stroke-width="1.5" stroke-linecap="round" stroke-linejoin="round"></path><path d="M10.2493 16.9643C9.94973 18.19 9.44289 19.5641 8.69085 20.6762C8.12049 21.5196 6.95502 21.4557 6.23508 20.7358L3.26348 17.7642C2.54354 17.0443 2.4797 15.8788 3.32309 15.3084C4.43514 14.5564 5.80931 14.0495 7.03499 13.75" stroke="currentColor" stroke-width="1.5" stroke-linecap="round" stroke-linejoin="round"></path></g></svg>