<svg width="24px" height="24px" viewBox="0 0 24 24" fill="none" xmlns="http://www.w3.org/2000/svg"><g><path d="M2.75 12.75V18.1792C2.75 18.911 3.51244 19.3966 4.19257 19.1265C9.4439 17.0416 14.5561 17.0416 19.8074 19.1265C20.4876 19.3966 21.25 18.911 21.25 18.1792V12.75C21.25 7.77944 17.2206 3.75 12.25 3.75H11.75C6.77944 3.75 2.75 7.77944 2.75 12.75Z" stroke="currentColor" stroke-width="1.5" stroke-linecap="round" stroke-linejoin="round"></path><path d="M3 14.837C9.23113 12.0543 14.7689 12.0543 21 14.837" stroke="currentColor" stroke-width="1.5" stroke-linecap="round" stroke-linejoin="round"></path><path d="M12.3984 4.09717C13.593 5.65113 15.3984 9.21418 15.3984 12.8472" stroke="currentColor" stroke-width="1.5" stroke-linecap="round" stroke-linejoin="round"></path><path d="M11.6016 4.09717C10.407 5.65113 8.60156 9.21418 8.60156 12.8472" stroke="currentColor" stroke-width="1.5" stroke-linecap="round" stroke-linejoin="round"></path></g></svg>