<svg width="24px" height="24px" viewBox="0 0 24 24" fill="none" xmlns="http://www.w3.org/2000/svg"><g><path d="M8.25 20.25H5.75C4.64543 20.25 3.75 19.3546 3.75 18.25V15.75M15.75 20.25H18.25C19.3546 20.25 20.25 19.3546 20.25 18.25V15.75M3.75 8.25V5.75C3.75 4.64543 4.64543 3.75 5.75 3.75H8.25M15.75 3.75H18.25C19.3546 3.75 20.25 4.64543 20.25 5.75V8.25" stroke="currentColor" stroke-width="1.5" stroke-linecap="round" stroke-linejoin="round"></path><path d="M7.75 13.75V10.1642C7.75 9.38317 8.38316 8.75 9.16421 8.75C9.53929 8.75 9.899 8.601 10.1642 8.33579L10.3107 8.18934C10.592 7.90804 10.9735 7.75 11.3713 7.75H12.6287C13.0265 7.75 13.408 7.90804 13.6893 8.18934L13.8358 8.33579C14.101 8.601 14.4607 8.75 14.8358 8.75C15.6168 8.75 16.25 9.38317 16.25 10.1642V13.75C16.25 14.5784 15.5784 15.25 14.75 15.25H9.25C8.42157 15.25 7.75 14.5784 7.75 13.75Z" stroke="currentColor" stroke-width="1.5" stroke-linecap="round" stroke-linejoin="round"></path><path d="M12 11.85V11.835M12.75 11.85C12.75 12.2642 12.4142 12.6 12 12.6C11.5858 12.6 11.25 12.2642 11.25 11.85C11.25 11.4358 11.5858 11.1 12 11.1C12.4142 11.1 12.75 11.4358 12.75 11.85Z" stroke="currentColor" stroke-width="1.5" stroke-linecap="round" stroke-linejoin="round"></path></g></svg>