<svg width="24px" height="24px" viewBox="0 0 24 24" fill="none" xmlns="http://www.w3.org/2000/svg"><g><path d="M19.75 17.25H20.25C21.3546 17.25 22.25 16.3546 22.25 15.25V11.405C22.25 10.4447 21.5675 9.62001 20.6242 9.44033L17.761 8.89495C17.2714 8.80169 16.8342 8.52899 16.5352 8.13027L14.6 5.55C14.2223 5.04639 13.6295 4.75 13 4.75L3.75 4.75C2.64543 4.75 1.75 5.64543 1.75 6.75V15.25C1.75 16.3546 2.64543 17.25 3.75 17.25H4.25" stroke="currentColor" stroke-width="1.5" stroke-linecap="round" stroke-linejoin="round"></path><path d="M9.75 17.25H14.25" stroke="currentColor" stroke-width="1.5" stroke-linecap="round" stroke-linejoin="round"></path><circle cx="7" cy="16.75" r="2.5" stroke="currentColor" stroke-width="1.5" stroke-linecap="round" stroke-linejoin="round"></circle><circle cx="17" cy="16.75" r="2.5" stroke="currentColor" stroke-width="1.5" stroke-linecap="round" stroke-linejoin="round"></circle><path d="M13.9949 9.99935H11.9183L12.2046 7.93759C12.24 7.68326 11.9148 7.54731 11.7586 7.75109L8.80987 11.5972C8.68378 11.7617 8.80104 11.9994 9.00827 11.9994H11.0849L10.7986 14.0611C10.7633 14.3155 11.0884 14.4514 11.2446 14.2476L14.1933 10.4015C14.3194 10.237 14.2022 9.99935 13.9949 9.99935Z" fill="currentColor"></path></g></svg>