<svg width="24px" height="24px" viewBox="0 0 24 24" fill="none" xmlns="http://www.w3.org/2000/svg"><g><path d="M20 17.25H20.25C21.3546 17.25 22.25 16.3546 22.25 15.25V15.099C22.25 12.3763 20.4851 9.79033 17.9453 8.93579C17.5042 8.78739 17.0894 8.5524 16.796 8.19122L14.6003 5.48881C14.2205 5.02139 13.6503 4.75 13.0481 4.75H7.46208C4.21434 4.75 1.75 7.25 1.75 11.3319V15.25C1.75 16.3546 2.64543 17.25 3.75 17.25H4.25" stroke="currentColor" stroke-width="1.5" stroke-linecap="round" stroke-linejoin="round"></path><path d="M9.75 17.25H14.25" stroke="currentColor" stroke-width="1.5" stroke-linecap="round" stroke-linejoin="round"></path><circle cx="7" cy="16.75" r="2.5" stroke="currentColor" stroke-width="1.5" stroke-linecap="round" stroke-linejoin="round"></circle><circle cx="17" cy="16.75" r="2.5" stroke="currentColor" stroke-width="1.5" stroke-linecap="round" stroke-linejoin="round"></circle><path d="M13.9949 10.0003H11.9183L12.2046 7.93856C12.24 7.68423 11.9148 7.54829 11.7586 7.75206L8.80987 11.5982C8.68378 11.7627 8.80104 12.0003 9.00827 12.0003H11.0849L10.7986 14.0621C10.7633 14.3164 11.0884 14.4524 11.2446 14.2486L14.1933 10.4024C14.3194 10.238 14.2022 10.0003 13.9949 10.0003Z" fill="currentColor"></path></g></svg>