<svg width="24px" height="24px" viewBox="0 0 24 24" fill="none" xmlns="http://www.w3.org/2000/svg"><g><path d="M19.7488 17.25H20.2488C21.3533 17.25 22.2488 16.3546 22.2488 15.25V11.4554C22.2488 10.4728 21.535 9.6358 20.5648 9.48056L16.7975 8.87779C16.2852 8.79582 15.8248 8.51797 15.5135 8.10291L13.5988 5.55C13.2211 5.04639 12.6283 4.75 11.9988 4.75L5.45421 4.75C4.47162 4.75 3.63457 5.46377 3.47933 6.43402L2.11933 14.934C1.9249 16.1492 2.86359 17.25 4.09421 17.25H4.24877" stroke="currentColor" stroke-width="1.5" stroke-linejoin="round"></path><path d="M9.75 17.25H14.25" stroke="currentColor" stroke-width="1.5" stroke-linejoin="round"></path><circle cx="7" cy="16.75" r="2.5" stroke="currentColor" stroke-width="1.5" stroke-linejoin="round"></circle><circle cx="17" cy="16.75" r="2.5" stroke="currentColor" stroke-width="1.5" stroke-linejoin="round"></circle><path d="M13.9949 9.99935H11.9183L12.2046 7.93759C12.24 7.68326 11.9148 7.54731 11.7586 7.75109L8.80987 11.5972C8.68378 11.7617 8.80104 11.9994 9.00827 11.9994H11.0849L10.7986 14.0611C10.7633 14.3155 11.0884 14.4514 11.2446 14.2476L14.1933 10.4015C14.3194 10.237 14.2022 9.99935 13.9949 9.99935Z" fill="currentColor"></path></g></svg>