<svg width="24px" height="24px" viewBox="0 0 24 24" fill="none" xmlns="http://www.w3.org/2000/svg"><g><path d="M4.25 17.25H3.75C2.64543 17.25 1.75 16.3546 1.75 15.25V6.75C1.75 5.64543 2.64543 4.75 3.75 4.75H15.1319C15.9567 4.75 16.6969 5.25636 16.9959 6.02511L17.9488 8.47561C18.1416 8.97133 18.5239 9.36984 19.0112 9.58303L21.0516 10.4757C21.7796 10.7942 22.25 11.5134 22.25 12.308V15.25C22.25 16.3546 21.3546 17.25 20.25 17.25H19.75" stroke="currentColor" stroke-width="1.5" stroke-linecap="round" stroke-linejoin="round"></path><path d="M9.75 17.25H14.25" stroke="currentColor" stroke-width="1.5" stroke-linecap="round" stroke-linejoin="round"></path><circle cx="7" cy="16.75" r="2.5" stroke="currentColor" stroke-width="1.5" stroke-linecap="round" stroke-linejoin="round"></circle><circle cx="17" cy="16.75" r="2.5" stroke="currentColor" stroke-width="1.5" stroke-linecap="round" stroke-linejoin="round"></circle><path d="M13.9949 9.99935H11.9183L12.2046 7.93759C12.24 7.68326 11.9148 7.54731 11.7586 7.75109L8.80987 11.5972C8.68378 11.7617 8.80104 11.9994 9.00827 11.9994H11.0849L10.7986 14.0611C10.7633 14.3155 11.0884 14.4514 11.2446 14.2476L14.1933 10.4015C14.3194 10.237 14.2022 9.99935 13.9949 9.99935Z" fill="currentColor"></path></g></svg>