<svg width="24px" height="24px" viewBox="0 0 24 24" fill="none" xmlns="http://www.w3.org/2000/svg"><g><path d="M3.5 19.25C3.08579 19.25 2.75 18.9142 2.75 18.5V11.6156C2.75 11.2145 2.8706 10.8226 3.09615 10.491L6.40474 5.62538C6.77711 5.07778 7.39639 4.75 8.05859 4.75H15.9414C16.6036 4.75 17.2229 5.07778 17.5953 5.62538L20.9039 10.491C21.1294 10.8226 21.25 11.2145 21.25 11.6156V18.5C21.25 18.9142 20.9142 19.25 20.5 19.25H18C17.5858 19.25 17.25 18.9142 17.25 18.5V17.1786H6.75V18.5C6.75 18.9142 6.41421 19.25 6 19.25H3.5Z" stroke="currentColor" stroke-width="1.5" stroke-linecap="round" stroke-linejoin="round"></path><path d="M1.75 10.25H3" stroke="currentColor" stroke-width="1.5" stroke-linecap="round" stroke-linejoin="round"></path><path d="M21 10.25H22.75" stroke="currentColor" stroke-width="1.5" stroke-linecap="round" stroke-linejoin="round"></path><path d="M5.75 13.25H7.25" stroke="currentColor" stroke-width="1.5" stroke-linecap="round" stroke-linejoin="round"></path><path d="M16.75 13.25H18.25" stroke="currentColor" stroke-width="1.5" stroke-linecap="round" stroke-linejoin="round"></path></g></svg>