<svg width="24px" height="24px" viewBox="0 0 24 24" fill="none" xmlns="http://www.w3.org/2000/svg"><g><path d="M19.75 17.25H20.25C21.3546 17.25 22.25 16.3546 22.25 15.25V11.655C22.25 10.6947 21.5675 9.87001 20.6242 9.69033L17.7937 9.15119C17.2846 9.0542 16.8329 8.76333 16.534 8.33988L14.5976 5.59663C14.2229 5.06573 13.6135 4.75 12.9637 4.75H8.11759C7.42307 4.75 6.77827 5.11031 6.41427 5.70181L5.24957 7.59445C5.08548 7.86109 4.86109 8.08548 4.59445 8.24957L2.7018 9.41427C2.11031 9.77827 1.75 10.4231 1.75 11.1176V15.25C1.75 16.3546 2.64543 17.25 3.75 17.25H4.25" stroke="currentColor" stroke-width="1.5" stroke-linecap="round" stroke-linejoin="round"></path><circle cx="7" cy="16.75" r="2.5" stroke="currentColor" stroke-width="1.5" stroke-linecap="round" stroke-linejoin="round"></circle><circle cx="17" cy="16.75" r="2.5" stroke="currentColor" stroke-width="1.5" stroke-linecap="round" stroke-linejoin="round"></circle><path d="M9.75 17.25H14.25" stroke="currentColor" stroke-width="1.5" stroke-linecap="round" stroke-linejoin="round"></path><path d="M13.9949 10.0003H11.9183L12.2046 7.93856C12.24 7.68423 11.9148 7.54829 11.7586 7.75206L8.80987 11.5982C8.68378 11.7627 8.80104 12.0003 9.00827 12.0003H11.0849L10.7986 14.0621C10.7633 14.3164 11.0884 14.4524 11.2446 14.2486L14.1933 10.4024C14.3194 10.238 14.2022 10.0003 13.9949 10.0003Z" fill="currentColor"></path></g></svg>