<svg width="24px" height="24px" viewBox="0 0 24 24" fill="none" xmlns="http://www.w3.org/2000/svg"><g><path d="M19.75 17.25H20.25C21.3546 17.25 22.25 16.3546 22.25 15.25V11.5797C22.25 10.6536 21.6142 9.84861 20.7132 9.63411L17.7031 8.91741C17.2487 8.80923 16.8466 8.54544 16.5663 8.17179L14.6 5.55C14.2223 5.04639 13.6295 4.75 13 4.75H7.82843C7.29799 4.75 6.78929 4.96071 6.41421 5.33579L2.33579 9.41421C1.96071 9.78929 1.75 10.298 1.75 10.8284V15.25C1.75 16.3546 2.64543 17.25 3.75 17.25H4.25" stroke="currentColor" stroke-width="1.5" stroke-linecap="round" stroke-linejoin="round"></path><circle cx="7" cy="16.75" r="2.5" stroke="currentColor" stroke-width="1.5" stroke-linecap="round" stroke-linejoin="round"></circle><circle cx="17" cy="16.75" r="2.5" stroke="currentColor" stroke-width="1.5" stroke-linecap="round" stroke-linejoin="round"></circle><path d="M9.75 17.25H14.25" stroke="currentColor" stroke-width="1.5" stroke-linecap="round" stroke-linejoin="round"></path><path d="M13.9949 10.0003H11.9183L12.2046 7.93856C12.24 7.68423 11.9148 7.54829 11.7586 7.75206L8.80987 11.5982C8.68378 11.7627 8.80104 12.0003 9.00827 12.0003H11.0849L10.7986 14.0621C10.7633 14.3164 11.0884 14.4524 11.2446 14.2486L14.1933 10.4024C14.3194 10.238 14.2022 10.0003 13.9949 10.0003Z" fill="currentColor"></path></g></svg>