<svg width="24px" height="24px" viewBox="0 0 24 24" fill="none" xmlns="http://www.w3.org/2000/svg"><g><path d="M4.5 17.25H3.75C2.64543 17.25 1.75 16.3546 1.75 15.25V6.75C1.75 5.64543 2.64543 4.75 3.75 4.75H11.75C12.3023 4.75 12.75 5.19772 12.75 5.75V6.75H17.6796C18.3483 6.75 18.9728 7.0842 19.3437 7.6406L21.9141 11.4962C22.1331 11.8247 22.25 12.2107 22.25 12.6056V15.25C22.25 16.3546 21.3546 17.25 20.25 17.25H19.75" stroke="currentColor" stroke-width="1.5" stroke-linecap="round" stroke-linejoin="round"></path><path d="M12.75 6V16.5" stroke="currentColor" stroke-width="1.5" stroke-linecap="round" stroke-linejoin="round"></path><path d="M9.75 17.25H14.25" stroke="currentColor" stroke-width="1.5"></path><circle cx="7" cy="16.75" r="2.5" stroke="currentColor" stroke-width="1.5"></circle><circle cx="17" cy="16.75" r="2.5" stroke="currentColor" stroke-width="1.5"></circle><path d="M9.77179 9.10368H7.87965L8.14057 7.25567C8.17275 7.02771 7.87652 6.90586 7.73417 7.08851L5.04743 10.5359C4.93255 10.6833 5.03939 10.8963 5.22821 10.8963H7.12034L6.85944 12.7443C6.82726 12.9723 7.12349 13.0941 7.26584 12.9115L9.95257 9.46409C10.0675 9.31668 9.96061 9.10368 9.77179 9.10368Z" fill="currentColor"></path></g></svg>