<svg width="24px" height="24px" viewBox="0 0 24 24" fill="none" xmlns="http://www.w3.org/2000/svg"><g><path d="M20 17.5H20.5C21.6046 17.5 22.5 16.6046 22.5 15.5V11.584C22.5 10.6559 21.8615 9.84977 20.9581 9.6372L18.9565 9.16623C18.5 9.05884 18.0959 8.7945 17.8145 8.41939L15.85 5.8C15.4723 5.29639 14.8795 5 14.25 5H10C9.44772 5 9 5.44772 9 6V10H4C2.89543 10 2 10.8954 2 12V15.5C2 16.6046 2.89543 17.5 4 17.5H4.5" stroke="currentColor" stroke-width="1.5" stroke-linecap="round" stroke-linejoin="round"></path><path d="M9.75 17.25H14.25" stroke="currentColor" stroke-width="1.5" stroke-linecap="round" stroke-linejoin="round"></path><circle cx="7" cy="16.75" r="2.5" stroke="currentColor" stroke-width="1.5" stroke-linecap="round" stroke-linejoin="round"></circle><circle cx="17" cy="16.75" r="2.5" stroke="currentColor" stroke-width="1.5" stroke-linecap="round" stroke-linejoin="round"></circle><path d="M15.7718 10.1037H13.8797L14.1406 8.25567C14.1728 8.02771 13.8765 7.90586 13.7342 8.08851L11.0474 11.5359C10.9325 11.6833 11.0394 11.8963 11.2282 11.8963H13.1203L12.8594 13.7443C12.8273 13.9723 13.1235 14.0941 13.2658 13.9115L15.9526 10.4641C16.0675 10.3167 15.9606 10.1037 15.7718 10.1037Z" fill="currentColor"></path></g></svg>