<svg width="24px" height="24px" viewBox="0 0 24 24" fill="none" xmlns="http://www.w3.org/2000/svg"><g><path d="M4.75 5.95C4.75 4.8299 4.75 4.26984 4.96799 3.84202C5.15973 3.46569 5.46569 3.15973 5.84202 2.96799C6.26984 2.75 6.82989 2.75 7.95 2.75H16.05C17.1701 2.75 17.7302 2.75 18.158 2.96799C18.5343 3.15973 18.8403 3.46569 19.032 3.84202C19.25 4.26984 19.25 4.8299 19.25 5.95V18.05C19.25 19.1701 19.25 19.7302 19.032 20.158C18.8403 20.5343 18.5343 20.8403 18.158 21.032C17.7302 21.25 17.1701 21.25 16.05 21.25H7.95C6.82989 21.25 6.26984 21.25 5.84202 21.032C5.46569 20.8403 5.15973 20.5343 4.96799 20.158C4.75 19.7302 4.75 19.1701 4.75 18.05V5.95Z" stroke="currentColor" stroke-width="1.5" stroke-linecap="round" stroke-linejoin="round"></path><circle cx="12" cy="9" r="2.25" stroke="currentColor" stroke-width="1.5" stroke-linecap="round" stroke-linejoin="round"></circle><path d="M8.75 14.25H15.25" stroke="currentColor" stroke-width="1.5" stroke-linecap="round" stroke-linejoin="round"></path><path d="M8.75 17.25H15.25" stroke="currentColor" stroke-width="1.5" stroke-linecap="round" stroke-linejoin="round"></path></g></svg>