<svg width="24px" height="24px" viewBox="0 0 24 24" fill="none" xmlns="http://www.w3.org/2000/svg"><g><path d="M15.5 3.75H8.5C7.39543 3.75 6.5 4.64543 6.5 5.75V18.25C6.5 19.3546 7.39543 20.25 8.5 20.25H15.5C16.6046 20.25 17.5 19.3546 17.5 18.25V5.75C17.5 4.64543 16.6046 3.75 15.5 3.75Z" stroke="currentColor" stroke-width="1.5" stroke-linecap="round" stroke-linejoin="round"></path><path d="M17.5 5.75H19.25C20.3546 5.75 21.25 6.64543 21.25 7.75V16.25C21.25 17.3546 20.3546 18.25 19.25 18.25H17.5" stroke="currentColor" stroke-width="1.5" stroke-linecap="round" stroke-linejoin="round"></path><path d="M6.5 18.25H4.75C3.64543 18.25 2.75 17.3546 2.75 16.25V7.75C2.75 6.64543 3.64543 5.75 4.75 5.75H6.5" stroke="currentColor" stroke-width="1.5" stroke-linecap="round" stroke-linejoin="round"></path></g></svg>