<svg width="24px" height="24px" viewBox="0 0 24 24" fill="none" xmlns="http://www.w3.org/2000/svg"><g><path d="M15.989 13.983C17.0116 15.0038 16.6495 16.7384 15.304 17.2651L5.48839 21.1073C3.86091 21.7444 2.25504 20.1378 2.89334 18.511L6.73936 8.70944C7.26641 7.36624 8.99824 7.00416 10.0195 8.02365L15.989 13.983Z" stroke="currentColor" stroke-width="1.5" stroke-linecap="round" stroke-linejoin="round"></path><path d="M14.038 1.75C14.038 1.75 14.2211 2.81957 14.038 3.80684C13.8407 4.87016 13.0078 5.86368 13.0078 5.86368" stroke="currentColor" stroke-width="1.5" stroke-linecap="round" stroke-linejoin="round"></path><path d="M15.5859 8.43467L16.6161 7.40625" stroke="currentColor" stroke-width="1.5" stroke-linecap="round" stroke-linejoin="round"></path><path d="M18.4688 4.57801L18.9323 3.29248" stroke="currentColor" stroke-width="1.5" stroke-linecap="round" stroke-linejoin="round"></path><path d="M20.2188 7.92046L21.2489 7.40625" stroke="currentColor" stroke-width="1.5" stroke-linecap="round" stroke-linejoin="round"></path><path d="M18.1602 11.0059C18.1602 11.0059 18.9391 11.0387 19.7054 11.2835C20.3962 11.5042 21.2507 12.0343 21.2507 12.0343" stroke="currentColor" stroke-width="1.5" stroke-linecap="round" stroke-linejoin="round"></path></g></svg>