<svg width="24px" height="24px" viewBox="0 0 24 24" fill="none" xmlns="http://www.w3.org/2000/svg"><g><path d="M5.25856 11.3501C5.71031 10.8983 6.46405 10.9803 6.80819 11.5185L7.66282 12.8553C8.45588 14.0957 8.27923 15.7209 7.23817 16.7619L5.76857 18.2315L4.24389 15.8468C3.45083 14.6063 3.62748 12.9812 4.66854 11.9401L5.25856 11.3501Z" stroke="currentColor" stroke-width="1.5" stroke-linecap="round" stroke-linejoin="round"></path><path d="M12.651 18.7414C13.1028 18.2897 13.0208 17.5359 12.4826 17.1918L11.1458 16.3372C9.90541 15.5441 8.28019 15.7208 7.23913 16.7618L5.76953 18.2314L8.15439 19.7561C9.39482 20.5492 11.0199 20.3725 12.061 19.3315L12.651 18.7414Z" stroke="currentColor" stroke-width="1.5" stroke-linecap="round" stroke-linejoin="round"></path><path d="M8.58473 8.02392C9.03649 7.57215 9.79022 7.65408 10.1344 8.19236L10.989 9.5291C11.7821 10.7695 11.6054 12.3947 10.5643 13.4358L9.09474 14.9054L7.57007 12.5206C6.77701 11.2801 6.95365 9.65501 7.99471 8.61394L8.58473 8.02392Z" stroke="currentColor" stroke-width="1.5" stroke-linecap="round" stroke-linejoin="round"></path><path d="M15.9751 15.4153C16.4269 14.9635 16.3449 14.2098 15.8067 13.8656L14.4699 13.011C13.2295 12.2179 11.6044 12.3946 10.5633 13.4357L9.09375 14.9053L11.4785 16.4299C12.7189 17.223 14.344 17.0464 15.3851 16.0053L15.9751 15.4153Z" stroke="currentColor" stroke-width="1.5" stroke-linecap="round" stroke-linejoin="round"></path><path d="M11.9109 4.69774C12.3627 4.24598 13.1164 4.32791 13.4605 4.86619L14.3152 6.20293C15.1082 7.44337 14.9316 9.06851 13.8905 10.1096L12.4209 11.5792L10.8962 9.19442C10.1032 7.95397 10.2798 6.32884 11.3209 5.28776L11.9109 4.69774Z" stroke="currentColor" stroke-width="1.5" stroke-linecap="round" stroke-linejoin="round"></path><path d="M19.3013 12.0893C19.753 11.6376 19.6711 10.8838 19.1328 10.5397L17.7961 9.68505C16.5557 8.89198 14.9306 9.06866 13.8895 10.1097L12.4199 11.5793L14.8047 13.104C16.0451 13.8971 17.6702 13.7204 18.7113 12.6794L19.3013 12.0893Z" stroke="currentColor" stroke-width="1.5" stroke-linecap="round" stroke-linejoin="round"></path><path d="M16.1493 8.68647C15.6938 8.67076 15.3286 8.30558 15.3129 7.85012C15.2186 5.11742 16.676 3.66003 19.4087 3.7543C19.8641 3.77002 20.2293 4.1352 20.245 4.59066C20.3393 7.32336 18.8819 8.78075 16.1493 8.68647Z" stroke="currentColor" stroke-width="1.5" stroke-linecap="round" stroke-linejoin="round"></path><path d="M6.13734 17.8618L3.91992 20.0793" stroke="currentColor" stroke-width="1.5" stroke-linecap="round" stroke-linejoin="round"></path></g></svg>