<svg width="24px" height="24px" viewBox="0 0 24 24" fill="none" xmlns="http://www.w3.org/2000/svg"><g><path d="M6.75 11.25C6.33579 11.25 6 11.5858 6 12C6 12.4142 6.33579 12.75 6.75 12.75V11.25ZM17.25 12.75C17.6642 12.75 18 12.4142 18 12C18 11.5858 17.6642 11.25 17.25 11.25V12.75ZM15.75 16.5C15.3358 16.5 15 16.8358 15 17.25C15 17.6642 15.3358 18 15.75 18V16.5ZM15.75 6C15.3358 6 15 6.33579 15 6.75C15 7.16421 15.3358 7.5 15.75 7.5V6ZM8.25 18C8.66421 18 9 17.6642 9 17.25C9 16.8358 8.66421 16.5 8.25 16.5V18ZM8.25 7.5C8.66421 7.5 9 7.16421 9 6.75C9 6.33579 8.66421 6 8.25 6V7.5ZM6.75 12.75H17.25V11.25H6.75V12.75ZM21.5 8.75V15.25H23V8.75H21.5ZM20.25 16.5H15.75V18H20.25V16.5ZM15.75 7.5H20.25V6H15.75V7.5ZM1 8.75V15.25H2.5V8.75H1ZM3.75 18H8.25V16.5H3.75V18ZM8.25 6H3.75V7.5H8.25V6ZM2.5 8.75C2.5 8.05964 3.05964 7.5 3.75 7.5V6C2.23122 6 1 7.23122 1 8.75H2.5ZM21.5 15.25C21.5 15.9404 20.9404 16.5 20.25 16.5V18C21.7688 18 23 16.7688 23 15.25H21.5ZM1 15.25C1 16.7688 2.23122 18 3.75 18V16.5C3.05964 16.5 2.5 15.9404 2.5 15.25H1ZM23 8.75C23 7.23122 21.7688 6 20.25 6V7.5C20.9404 7.5 21.5 8.05964 21.5 8.75H23Z" fill="currentColor"></path></g></svg>