<svg width="24px" height="24px" viewBox="0 0 24 24" fill="none" xmlns="http://www.w3.org/2000/svg"><g><path d="M5.665 13.5273C4.60737 13.5273 3.75 14.3847 3.75 15.4423V18.3346C3.75 19.3922 4.60737 20.2496 5.665 20.2496C6.72263 20.2496 7.58 19.3922 7.58 18.3346V15.4423C7.58 14.3847 6.72263 13.5273 5.665 13.5273Z" stroke="currentColor" stroke-width="1.5" stroke-linecap="square" stroke-linejoin="round"></path><path d="M11.995 9.08398C10.9374 9.08398 10.08 9.94136 10.08 10.999V18.3356C10.08 19.3933 10.9374 20.2507 11.995 20.2507C13.0526 20.2507 13.91 19.3933 13.91 18.3356V10.999C13.91 9.94136 13.0526 9.08398 11.995 9.08398Z" stroke="currentColor" stroke-width="1.5" stroke-linecap="square" stroke-linejoin="round"></path><path d="M18.335 3.75C17.2774 3.75 16.42 4.60738 16.42 5.665V18.335C16.42 19.3926 17.2774 20.25 18.335 20.25C19.3926 20.25 20.25 19.3926 20.25 18.335V5.665C20.25 4.60738 19.3926 3.75 18.335 3.75Z" stroke="currentColor" stroke-width="1.5" stroke-linecap="square" stroke-linejoin="round"></path></g></svg>