<svg width="24px" height="24px" viewBox="0 0 24 24" fill="none" xmlns="http://www.w3.org/2000/svg"><g><path d="M9.25 14.75H10C10 14.3358 9.66421 14 9.25 14V14.75ZM3.75 20.25H3V21H3.75V20.25ZM14.75 9.25H15.5C15.5 8.83579 15.1642 8.5 14.75 8.5V9.25ZM20.25 20.25V21H21V20.25H20.25ZM1.75 19.5C1.33579 19.5 1 19.8358 1 20.25C1 20.6642 1.33579 21 1.75 21V19.5ZM22.25 21C22.6642 21 23 20.6642 23 20.25C23 19.8358 22.6642 19.5 22.25 19.5V21ZM4.75 15.5H9.25V14H4.75V15.5ZM8.5 14.75V20.25H10V14.75H8.5ZM9.25 19.5H3.75V21H9.25V19.5ZM4.5 20.25V15.75H3V20.25H4.5ZM4.75 14C3.7835 14 3 14.7835 3 15.75H4.5C4.5 15.6119 4.61193 15.5 4.75 15.5V14ZM10.25 10H14.75V8.5H10.25V10ZM14 9.25V20.25H15.5V9.25H14ZM14.75 19.5H9.25V21H14.75V19.5ZM10 20.25V10.25H8.5V20.25H10ZM10.25 8.5C9.2835 8.5 8.5 9.2835 8.5 10.25H10C10 10.1119 10.1119 10 10.25 10V8.5ZM15.75 4.5H19.25V3H15.75V4.5ZM19.5 4.75V20.25H21V4.75H19.5ZM20.25 19.5H14.75V21H20.25V19.5ZM15.5 20.25V4.75H14V20.25H15.5ZM19.25 4.5C19.3881 4.5 19.5 4.61193 19.5 4.75H21C21 3.7835 20.2165 3 19.25 3V4.5ZM15.75 3C14.7835 3 14 3.7835 14 4.75H15.5C15.5 4.61193 15.6119 4.5 15.75 4.5V3ZM1.75 21H22.25V19.5H1.75V21Z" fill="currentColor"></path></g></svg>