<svg width="24px" height="24px" viewBox="0 0 24 24" fill="none" xmlns="http://www.w3.org/2000/svg"><g><path d="M13.25 14.75V5.75C13.25 4.64543 12.3546 3.75 11.25 3.75H5.75C4.64543 3.75 3.75 4.64543 3.75 5.75V14.75M13.25 14.75V20.25H3.75V14.75M13.25 14.75H3.75" stroke="currentColor" stroke-width="1.5" stroke-linecap="round" stroke-linejoin="round"></path><path d="M3.75 20.25H20.25" stroke="currentColor" stroke-width="1.5" stroke-linecap="round" stroke-linejoin="round"></path><path d="M16.75 10.75V14.5C16.75 15.4665 17.5335 16.25 18.5 16.25C19.4665 16.25 20.25 15.4665 20.25 14.5V8.65512C20.25 7.76479 19.8545 6.92044 19.1706 6.35046L17.25 4.75" stroke="currentColor" stroke-width="1.5" stroke-linecap="round" stroke-linejoin="round"></path><path d="M9.31627 6.91746C9.31627 6.52592 8.83606 6.35059 8.59364 6.65363L6.19441 9.65281C5.9768 9.92484 6.16603 10.3333 6.50969 10.3333H7.68685V12.0825C7.68685 12.4741 8.16706 12.6494 8.40948 12.3464L10.8087 9.34719C11.0263 9.07516 10.8371 8.66673 10.4934 8.66673H9.31627V6.91746Z" fill="currentColor"></path></g></svg>