<svg width="24px" height="24px" viewBox="0 0 24 24" fill="none" xmlns="http://www.w3.org/2000/svg"><g><path d="M9.25 9.25V10L10 10V9.25H9.25ZM3.75 9.25H3H3.75ZM3.75 3.75L3.75 3C3.33579 3 3 3.33579 3 3.75H3.75ZM9.25 4.75H8.5H9.25ZM8.25 3.75V3V3.75ZM14.75 14.75V15.5H15.5V14.75H14.75ZM14.75 10.25H14H14.75ZM13.75 9.25V10V9.25ZM3.75 20.25H3C3 20.6642 3.33579 21 3.75 21V20.25ZM20.25 19.25H21H20.25ZM19.25 20.25V19.5V20.25ZM20.25 15.75H19.5H20.25ZM19.25 14.75V14V14.75ZM4.5 1.75C4.5 1.33579 4.16421 1 3.75 1C3.33579 1 3 1.33579 3 1.75H4.5ZM3 22.25C3 22.6642 3.33579 23 3.75 23C4.16421 23 4.5 22.6642 4.5 22.25H3ZM8.5 4.75V9.25H10V4.75H8.5ZM9.25 8.5L3.75 8.5L3.75 10H9.25V8.5ZM4.5 9.25L4.5 3.75H3L3 9.25H4.5ZM3.75 4.5L8.25 4.5V3L3.75 3L3.75 4.5ZM10 4.75C10 3.7835 9.2165 3 8.25 3V4.5C8.38807 4.5 8.5 4.61193 8.5 4.75H10ZM14 10.25V14.75H15.5V10.25H14ZM14.75 14L3.75 14L3.75 15.5L14.75 15.5V14ZM4.5 14.75V9.25H3V14.75H4.5ZM3.75 10H13.75V8.5L3.75 8.5L3.75 10ZM15.5 10.25C15.5 9.2835 14.7165 8.5 13.75 8.5V10C13.8881 10 14 10.1119 14 10.25H15.5ZM19.5 15.75V19.25H21V15.75H19.5ZM19.25 19.5H3.75V21H19.25V19.5ZM4.5 20.25V14.75H3V20.25H4.5ZM3.75 15.5H19.25V14H3.75V15.5ZM19.5 19.25C19.5 19.3881 19.3881 19.5 19.25 19.5V21C20.2165 21 21 20.2165 21 19.25H19.5ZM21 15.75C21 14.7835 20.2165 14 19.25 14V15.5C19.3881 15.5 19.5 15.6119 19.5 15.75H21ZM3 1.75V22.25H4.5V1.75H3Z" fill="currentColor"></path></g></svg>