<svg width="24px" height="24px" viewBox="0 0 24 24" fill="none" xmlns="http://www.w3.org/2000/svg"><g><path d="M15.5 21.25C12.3244 21.25 9.75 18.8995 9.75 16C9.75 13.1005 12.3244 10.75 15.5 10.75C18.6756 10.75 21.25 13.1005 21.25 16C21.25 16.8655 21.0206 17.6821 20.6144 18.4018C20.3182 18.9264 20.1287 19.5306 20.3105 20.105C20.3994 20.3859 20.501 20.6641 20.6111 20.9412C20.0861 20.9099 19.5813 20.8467 19.0901 20.7502C18.5969 20.6535 18.0862 20.7133 17.6135 20.884C16.9592 21.1202 16.2462 21.25 15.5 21.25Z" stroke="currentColor" stroke-width="1.5" stroke-linecap="round" stroke-linejoin="round"></path><path d="M7.25161 15.7481C7.21959 15.7359 7.18768 15.7235 7.15589 15.7108C6.68047 15.5219 6.15944 15.4613 5.65929 15.5689C4.98147 15.7147 4.284 15.8087 3.55556 15.8529C3.72946 15.4065 3.88674 14.9579 4.01651 14.5031C4.17927 13.9326 4.00163 13.3369 3.69255 12.8306C3.09262 11.8478 2.75 10.7112 2.75 9.5C2.75 5.77208 5.99594 2.75 10 2.75C13.5468 2.75 16.4987 5.12118 17.1267 8.25375" stroke="currentColor" stroke-width="1.5" stroke-linecap="round" stroke-linejoin="round"></path></g></svg>