<svg width="24px" height="24px" viewBox="0 0 24 24" fill="none" xmlns="http://www.w3.org/2000/svg"><g><path d="M21.25 16.07C21.25 17.1712 21.25 17.7219 21.0391 18.144C20.8455 18.5314 20.5314 18.8455 20.144 19.0391C19.7219 19.25 19.1712 19.25 18.07 19.25H5.93C4.82876 19.25 4.27814 19.25 3.85604 19.0391C3.46862 18.8455 3.1545 18.5314 2.96091 18.144C2.75 17.7219 2.75 17.1712 2.75 16.07V15.75H21.25V16.07Z" stroke="currentColor" stroke-width="1.5" stroke-linecap="round" stroke-linejoin="round"></path><path d="M21.2495 12.675C20.7397 12.6749 19.9798 12.5749 19.5 12.375C18.54 11.975 17.46 11.975 16.5 12.375C15.54 12.775 14.46 12.775 13.5 12.375C12.54 11.975 11.46 11.975 10.5 12.375C9.54 12.775 8.46 12.775 7.5 12.375C6.54 11.975 5.46 11.975 4.5 12.375C4.02 12.575 3.26 12.675 2.75 12.675" stroke="currentColor" stroke-width="1.5" stroke-linecap="round" stroke-linejoin="round"></path><path d="M12 4.75C8.30474 4.75 3 6.0994 3 9.25H21C21 6.0994 15.6953 4.75 12 4.75Z" stroke="currentColor" stroke-width="1.5" stroke-linecap="round" stroke-linejoin="round"></path></g></svg>