<svg width="24px" height="24px" viewBox="0 0 24 24" fill="none" xmlns="http://www.w3.org/2000/svg"><g><path d="M7.375 7.61631L3.57243 10.3862C3.05566 10.7626 2.75 11.3635 2.75 12.0028V18.25C2.75 19.3546 3.64543 20.25 4.75 20.25H19.25C20.3546 20.25 21.25 19.3546 21.25 18.25V11.2887C21.25 11.0876 21.2203 10.8869 21.1576 10.6958C20.0331 7.27081 18.1537 4.94127 15.1043 3.27582C14.4686 2.92859 13.6928 3.01424 13.1073 3.44076L12 4.24733" stroke="currentColor" stroke-width="1.5" stroke-linecap="round" stroke-linejoin="round"></path><path d="M2.75 11.75H21.25" stroke="currentColor" stroke-width="1.5" stroke-linecap="round" stroke-linejoin="round"></path><path d="M2.75 16H14.25" stroke="currentColor" stroke-width="1.5" stroke-linecap="round" stroke-linejoin="round"></path><path d="M10 9.25C11.5188 9.25 12.75 8.01878 12.75 6.5C12.75 4.98122 11.5188 3.75 10 3.75C8.48122 3.75 7.25 4.98122 7.25 6.5C7.25 8.01878 8.48122 9.25 10 9.25Z" stroke="currentColor" stroke-width="1.5" stroke-linecap="round" stroke-linejoin="round"></path></g></svg>