<svg width="24px" height="24px" viewBox="0 0 24 24" fill="none" xmlns="http://www.w3.org/2000/svg"><g><path d="M16 12C15.2422 8.01824 13.0338 5.15326 10 2.75003C10.8746 6.02156 10.6531 9.33793 9 12.25" stroke="currentColor" stroke-width="1.5" stroke-linecap="round" stroke-linejoin="round"></path><path d="M21.25 16.2334C21.25 19.1497 18.8995 21.2499 16 21.2499C13.1005 21.2499 10.75 19.1497 10.75 16.2334C10.75 12.0643 13.375 11.2169 16 12.273C18.625 11.2169 21.25 12.0643 21.25 16.2334Z" stroke="currentColor" stroke-width="1.5" stroke-linecap="round" stroke-linejoin="round"></path><path d="M14.5 7H16.1C17.8397 7 19.25 5.5897 19.25 3.85V2.75C19.25 2.19772 18.8023 1.75 18.25 1.75H17.15C15.4103 1.75 14 3.1603 14 4.9V6.5" stroke="currentColor" stroke-width="1.5" stroke-linecap="round" stroke-linejoin="round"></path><path d="M11.5005 19.5332C10.3223 21.0105 8.3111 21.6357 6.3054 21.0983C-0.129119 19.3742 3.12764 8.86472 8.50537 12.8879C9.49132 12.7703 10.4138 12.8895 11.1344 13.278" stroke="currentColor" stroke-width="1.5" stroke-linecap="square"></path></g></svg>