<svg width="24px" height="24px" viewBox="0 0 24 24" fill="none" xmlns="http://www.w3.org/2000/svg"><g><path d="M7.75 5.25V3.75M12 5.25V3.75M16.25 5.25V3.75M7.75 20.25V18.75M12 20.25V18.75M16.25 20.25V18.75M8.75 15.25H15.25C15.8023 15.25 16.25 14.8023 16.25 14.25V9.75C16.25 9.19772 15.8023 8.75 15.25 8.75H8.75C8.19772 8.75 7.75 9.19772 7.75 9.75V14.25C7.75 14.8023 8.19772 15.25 8.75 15.25ZM5.75 20.25H18.25C19.3546 20.25 20.25 19.3546 20.25 18.25V5.75C20.25 4.64543 19.3546 3.75 18.25 3.75H5.75C4.64543 3.75 3.75 4.64543 3.75 5.75V18.25C3.75 19.3546 4.64543 20.25 5.75 20.25Z" stroke="currentColor" stroke-width="1.5" stroke-linecap="round" stroke-linejoin="round"></path></g></svg>