<svg width="24px" height="24px" viewBox="0 0 24 24" fill="none" xmlns="http://www.w3.org/2000/svg"><g><path d="M12 2.76027V2.75M12 21.2397V21.25M15.5359 3.4636L15.5398 3.45411M8.46411 20.5364L8.46018 20.5459M18.5335 5.46661L18.5407 5.45935M5.46651 18.5336L5.45924 18.5408M20.5363 8.46431L20.5458 8.46038M3.46354 15.5361L3.45405 15.54M2.76027 12H2.75M21.2397 12H21.25M5.46675 5.46647L5.45949 5.4592M18.5337 18.5334L18.541 18.5407M3.46392 8.4638L3.45443 8.45987M20.5367 15.5356L20.5462 15.5395M8.46409 3.46357L8.46016 3.45408M15.5359 20.5364L15.5398 20.5459" stroke="currentColor" stroke-width="1.5" stroke-linecap="round" stroke-linejoin="round"></path></g></svg>