<svg width="24px" height="24px" viewBox="0 0 24 24" fill="none" xmlns="http://www.w3.org/2000/svg"><g><path d="M10.7998 14.0147L8.78539 13.4853L8.28179 11.8971L6.77099 11.3676L6.53209 10.3631C6.37692 9.71056 5.79399 9.25 5.12329 9.25C4.4703 9.25 3.9 9.68951 3.83879 10.3396C3.7639 11.1349 3.7654 12.2732 4.13328 13.4372C4.85399 15.7174 7.73342 18.25 7.73342 18.25" stroke="currentColor" stroke-width="1.5" stroke-linecap="round" stroke-linejoin="round"></path><path d="M9.41183 21.2998H17.8574C23.1531 14.1426 19.3131 0.0716867 9.73622 3.26372L10.6287 5.39186L10.233 6.69549L11.399 7.65333L10.9023 9.67504L11.8958 11.1912L11.399 14.7292L7.75 18.1078C7.75 20.236 9.41183 21.2998 9.41183 21.2998Z" stroke="currentColor" stroke-width="1.5" stroke-linecap="round" stroke-linejoin="round"></path><path d="M6.89045 3.53518L6.40769 2.28C6.34281 2.11131 6.18074 2 6 2C5.81926 2 5.65719 2.11131 5.59231 2.28L5.10955 3.53518C5.00797 3.79927 4.79927 4.00797 4.53518 4.10955L3.28 4.59231C3.11131 4.65719 3 4.81926 3 5C3 5.18074 3.11131 5.34281 3.28 5.40769L4.53518 5.89045C4.79927 5.99203 5.00797 6.20073 5.10955 6.46482L5.59231 7.72C5.65719 7.88869 5.81926 8 6 8C6.18074 8 6.34281 7.88869 6.40769 7.72L6.89045 6.46482C6.99203 6.20073 7.20073 5.99203 7.46482 5.89045L8.72 5.40769C8.88869 5.34281 9 5.18074 9 5C9 4.81926 8.88869 4.65719 8.72 4.59231L7.46482 4.10955C7.20073 4.00797 6.99203 3.79927 6.89045 3.53518Z" fill="currentColor"></path></g></svg>