<svg width="24px" height="24px" viewBox="0 0 24 24" fill="none" xmlns="http://www.w3.org/2000/svg"><g><path fill-rule="evenodd" clip-rule="evenodd" d="M10.2997 10.5993C9.61468 10.084 8.63619 10.1389 8.01256 10.7625C7.32915 11.4459 7.32915 12.554 8.01256 13.2374C8.63619 13.861 9.61468 13.9159 10.2997 13.4006C10.6307 13.1516 11.1009 13.2181 11.3499 13.5491C11.5989 13.8801 11.5324 14.3503 11.2014 14.5993C9.92761 15.5575 8.11135 15.4575 6.9519 14.2981C5.6827 13.0289 5.6827 10.9711 6.9519 9.70186C8.11135 8.54241 9.92761 8.44244 11.2014 9.4006C11.5324 9.6496 11.5989 10.1198 11.3499 10.4508C11.1009 10.7818 10.6307 10.8483 10.2997 10.5993ZM16.7997 10.5993C16.1147 10.084 15.1362 10.1389 14.5126 10.7625C13.8291 11.4459 13.8291 12.554 14.5126 13.2374C15.1362 13.861 16.1147 13.9159 16.7997 13.4006C17.1307 13.1516 17.6009 13.2181 17.8499 13.5491C18.0989 13.8801 18.0324 14.3503 17.7014 14.5993C16.4276 15.5575 14.6114 15.4575 13.4519 14.2981C12.1827 13.0289 12.1827 10.9711 13.4519 9.70186C14.6114 8.54241 16.4276 8.44244 17.7014 9.4006C18.0324 9.6496 18.0989 10.1198 17.8499 10.4508C17.6009 10.7818 17.1307 10.8483 16.7997 10.5993Z" fill="currentColor"></path><path d="M18.25 3.75H5.75C4.64543 3.75 3.75 4.64543 3.75 5.75V18.25C3.75 19.3546 4.64543 20.25 5.75 20.25H18.25C19.3546 20.25 20.25 19.3546 20.25 18.25V5.75C20.25 4.64543 19.3546 3.75 18.25 3.75Z" stroke="currentColor" stroke-width="1.5" stroke-linecap="square" stroke-linejoin="round"></path></g></svg>