<svg width="24px" height="24px" viewBox="0 0 24 24" fill="none" xmlns="http://www.w3.org/2000/svg"><g><path d="M8.25 4.75H4.75C3.64543 4.75 2.75 5.64543 2.75 6.75V11.0357C2.75 12.1403 3.64543 13.0357 4.75 13.0357H6.25V19.25C6.25 19.25 10.25 17.6964 10.25 13.0357V6.74862C10.25 5.64405 9.35457 4.75 8.25 4.75Z" stroke="currentColor" stroke-width="1.5" stroke-linejoin="round"></path><path d="M19.25 4.75H15.75C14.6454 4.75 13.75 5.64543 13.75 6.75V11.0357C13.75 12.1403 14.6454 13.0357 15.75 13.0357H17.25V19.25C17.25 19.25 21.25 17.6964 21.25 13.0357V6.74862C21.25 5.64405 20.3546 4.75 19.25 4.75Z" stroke="currentColor" stroke-width="1.5" stroke-linejoin="round"></path></g></svg>