<svg width="24px" height="24px" viewBox="0 0 24 24" fill="none" xmlns="http://www.w3.org/2000/svg"><g><path d="M10.2297 9.39583C10.2297 11.4094 8.55533 13.0417 6.48986 13.0417C4.42439 13.0417 2.75 11.4094 2.75 9.39583C2.75 7.3823 4.42439 5.75 6.48986 5.75C8.55533 5.75 10.2297 7.3823 10.2297 9.39583Z" stroke="currentColor" stroke-width="1.5" stroke-linecap="round" stroke-linejoin="round"></path><path d="M21.2297 9.39583C21.2297 11.4094 19.5553 13.0417 17.4899 13.0417C15.4244 13.0417 13.75 11.4094 13.75 9.39583C13.75 7.3823 15.4244 5.75 17.4899 5.75C19.5553 5.75 21.2297 7.3823 21.2297 9.39583Z" stroke="currentColor" stroke-width="1.5" stroke-linecap="round" stroke-linejoin="round"></path><path d="M10.2333 9.396C10.5004 14.3439 8.09622 16.1668 4.89062 18.2502" stroke="currentColor" stroke-width="1.5" stroke-linecap="round" stroke-linejoin="round"></path><path d="M21.2333 9.396C21.5004 14.3439 19.0962 16.1668 15.8906 18.2502" stroke="currentColor" stroke-width="1.5" stroke-linecap="round" stroke-linejoin="round"></path></g></svg>