<svg width="24px" height="24px" viewBox="0 0 24 24" fill="none" xmlns="http://www.w3.org/2000/svg"><g><path d="M18.6152 10C18.9831 9.38088 19.1944 8.65692 19.1944 7.88333C19.1944 5.60056 17.3538 3.75 15.0833 3.75C13.171 3.75 11.5637 5.06271 11.1041 6.84075M16.625 9.95C16.236 9.95 15.8583 9.99828 15.4973 10.0892C14.9444 10.2285 14.3274 10.019 14.0061 9.548C13.2842 8.48955 12.2442 7.66765 11.0246 7.22168C10.3669 6.98118 9.65704 6.85 8.91667 6.85C5.51091 6.85 2.75 9.62583 2.75 13.05C2.75 16.4742 5.51091 19.25 8.91667 19.25H16.625C19.1793 19.25 21.25 17.1681 21.25 14.6C21.25 12.6687 20.079 11.0125 18.4119 10.3098C17.8621 10.078 17.2584 9.95 16.625 9.95Z" stroke="currentColor" stroke-width="1.5" stroke-linecap="round" stroke-linejoin="round"></path></g></svg>