<svg width="24px" height="24px" viewBox="0 0 24 24" fill="none" xmlns="http://www.w3.org/2000/svg"><g><path d="M9.9502 4.35986C11.3509 4.35992 12.6192 4.92263 13.544 5.83358C13.8489 6.13397 14.2891 6.26505 14.7122 6.20059C14.914 6.16984 15.1207 6.15383 15.3311 6.15381C17.5954 6.15381 19.4316 7.99003 19.4316 10.2544C19.4316 10.7837 19.7274 11.3003 20.1865 11.5636C21.4194 12.2705 22.25 13.5995 22.25 15.1226C22.2499 17.316 20.5274 19.1073 18.3613 19.2173L18.1504 19.2222H6.875C4.04454 19.2222 1.75 16.9276 1.75 14.0972C1.75007 12.224 2.75533 10.5863 4.25554 9.69252C4.592 9.49206 4.82254 9.1458 4.87757 8.75803C5.23038 6.27181 7.36648 4.35986 9.9502 4.35986Z" stroke="currentColor" stroke-width="1.5" stroke-linejoin="round"></path></g></svg>