<svg width="24px" height="24px" viewBox="0 0 24 24" fill="none" xmlns="http://www.w3.org/2000/svg"><g><path d="M17.9948 11.002C17.9983 10.9184 18 10.8344 18 10.75C18 7.43629 15.3137 4.75 12 4.75C9.3716 4.75 7.13793 6.44009 6.32647 8.7928C3.74507 9.12339 1.75 11.3287 1.75 14C1.75 16.8995 4.10051 19.25 7 19.25H18.125C20.4032 19.25 22.25 17.4032 22.25 15.125C22.25 12.8468 20.4032 11 18.125 11C18.0814 11 18.038 11.0007 17.9948 11.002Z" stroke="currentColor" stroke-width="1.5" stroke-linecap="round" stroke-linejoin="round"></path><path d="M14.3831 10.3068L12.6566 11.7508C12.3962 11.9686 12 11.7834 12 11.444V10.75C10.8954 10.75 10 11.6455 10 12.75C10 13.8546 10.8954 14.75 12 14.75C12.9808 14.75 13.7982 14.0432 13.9676 13.111C14.0417 12.7034 14.4322 12.4331 14.8397 12.5072C15.2472 12.5813 15.5175 12.9718 15.4435 13.3793C15.1466 15.012 13.7187 16.25 12 16.25C10.067 16.25 8.5 14.683 8.5 12.75C8.5 10.817 10.067 9.25002 12 9.25002V8.55598C12 8.21651 12.3962 8.03136 12.6566 8.24915L14.3831 9.69314C14.5743 9.85303 14.5743 10.1469 14.3831 10.3068Z" fill="currentColor"></path></g></svg>