<svg width="24px" height="24px" viewBox="0 0 24 24" fill="none" xmlns="http://www.w3.org/2000/svg"><g><path d="M6.25 18C6.25 18.1381 6.13807 18.25 6 18.25M6.25 18C6.25 17.8619 6.13807 17.75 6 17.75M6.25 18H6M6 18.25C5.86193 18.25 5.75 18.1381 5.75 18M6 18.25V18M5.75 18C5.75 17.8619 5.86193 17.75 6 17.75M5.75 18H6M6 17.75V18M6 18L5.82322 18.1768M6 18L6.17678 17.8232M6 18L5.82322 17.8232M6 18L6.17678 18.1768M6.17678 17.8232C6.27441 17.9209 6.27441 18.0791 6.17678 18.1768M6.17678 17.8232C6.07915 17.7256 5.92085 17.7256 5.82322 17.8232M6.17678 18.1768C6.07915 18.2744 5.92085 18.2744 5.82322 18.1768M5.82322 18.1768C5.72559 18.0791 5.72559 17.9209 5.82322 17.8232M12.25 18C12.25 18.1381 12.1381 18.25 12 18.25M12.25 18C12.25 17.8619 12.1381 17.75 12 17.75M12.25 18H12M12 18.25C11.8619 18.25 11.75 18.1381 11.75 18M12 18.25V18M11.75 18C11.75 17.8619 11.8619 17.75 12 17.75M11.75 18H12M12 17.75V18M12 18L11.8232 18.1768M12 18L12.1768 17.8232M12 18L11.8232 17.8232M12 18L12.1768 18.1768M12.1768 17.8232C12.2744 17.9209 12.2744 18.0791 12.1768 18.1768M12.1768 17.8232C12.0791 17.7256 11.9209 17.7256 11.8232 17.8232M12.1768 18.1768C12.0791 18.2744 11.9209 18.2744 11.8232 18.1768M11.8232 18.1768C11.7256 18.0791 11.7256 17.9209 11.8232 17.8232M18.25 18C18.25 18.1381 18.1381 18.25 18 18.25M18.25 18C18.25 17.8619 18.1381 17.75 18 17.75M18.25 18H18M18 18.25C17.8619 18.25 17.75 18.1381 17.75 18M18 18.25V18M17.75 18C17.75 17.8619 17.8619 17.75 18 17.75M17.75 18H18M18 17.75V18M18 18L17.8232 18.1768M18 18L18.1768 17.8232M18 18L17.8232 17.8232M18 18L18.1768 18.1768M18.1768 17.8232C18.2744 17.9209 18.2744 18.0791 18.1768 18.1768M18.1768 17.8232C18.0791 17.7256 17.9209 17.7256 17.8232 17.8232M18.1768 18.1768C18.0791 18.2744 17.9209 18.2744 17.8232 18.1768M17.8232 18.1768C17.7256 18.0791 17.7256 17.9209 17.8232 17.8232M15.25 20C15.25 20.1381 15.1381 20.25 15 20.25M15.25 20C15.25 19.8619 15.1381 19.75 15 19.75M15.25 20H15M15 20.25C14.8619 20.25 14.75 20.1381 14.75 20M15 20.25V20M14.75 20C14.75 19.8619 14.8619 19.75 15 19.75M14.75 20H15M15 19.75V20M15 20L14.8232 20.1768M15 20L15.1768 19.8232M15 20L14.8232 19.8232M15 20L15.1768 20.1768M15.1768 19.8232C15.2744 19.9209 15.2744 20.0791 15.1768 20.1768M15.1768 19.8232C15.0791 19.7256 14.9209 19.7256 14.8232 19.8232M15.1768 20.1768C15.0791 20.2744 14.9209 20.2744 14.8232 20.1768M14.8232 20.1768C14.7256 20.0791 14.7256 19.9209 14.8232 19.8232M9.25 20C9.25 20.1381 9.13807 20.25 9 20.25M9.25 20C9.25 19.8619 9.13807 19.75 9 19.75M9.25 20H9M9 20.25C8.86193 20.25 8.75 20.1381 8.75 20M9 20.25V20M8.75 20C8.75 19.8619 8.86193 19.75 9 19.75M8.75 20H9M9 19.75V20M9 20L8.82322 20.1768M9 20L9.17678 19.8232M9 20L8.82322 19.8232M9 20L9.17678 20.1768M9.17678 19.8232C9.27441 19.9209 9.27441 20.0791 9.17678 20.1768M9.17678 19.8232C9.07915 19.7256 8.92085 19.7256 8.82322 19.8232M9.17678 20.1768C9.07915 20.2744 8.92085 20.2744 8.82322 20.1768M8.82322 20.1768C8.72559 20.0791 8.72559 19.9209 8.82322 19.8232M9.42188 15.25H16.125C18.4032 15.25 20.25 13.3777 20.25 11.0682C20.25 8.75863 18.4032 6.88636 16.125 6.88636C15.9286 6.88636 15.7354 6.90028 15.5463 6.92719C15.0114 7.00333 14.4471 6.77668 14.1512 6.32464C13.1354 4.77296 11.3965 3.75 9.42188 3.75C6.28939 3.75 3.75 6.32436 3.75 9.5C3.75 12.6756 6.28939 15.25 9.42188 15.25Z" stroke="currentColor" stroke-width="1.5" stroke-linejoin="round"></path></g></svg>