<svg width="24px" height="24px" viewBox="0 0 24 24" fill="none" xmlns="http://www.w3.org/2000/svg"><g><path d="M18.5 19.0615C20.6627 18.4544 22.25 16.4502 22.25 14.0714C22.25 11.2114 19.9555 8.89286 17.125 8.89286C16.8865 8.89286 16.6519 8.90931 16.4221 8.94116C15.9058 9.01272 15.3741 8.77588 15.1116 8.32557C13.8642 6.18583 11.5605 4.75 8.925 4.75C4.96236 4.75 1.75 7.99594 1.75 12C1.75 14.7508 3.26609 17.1437 5.5 18.3722M14.25 15.75L12 18M12 18L9.75 20.25M12 18L9.75 15.75M12 18L14.25 20.25" stroke="currentColor" stroke-width="1.5" stroke-linecap="round" stroke-linejoin="round"></path></g></svg>