<svg width="24px" height="24px" viewBox="0 0 24 24" fill="none" xmlns="http://www.w3.org/2000/svg"><g><path d="M9.52521 5.28254C10.2797 4.94047 11.1176 4.75 12 4.75C15.3137 4.75 18 7.43629 18 10.75C18 10.8344 17.9983 10.9184 17.9948 11.002C18.038 11.0007 18.0814 11 18.125 11C20.4032 11 22.25 12.8468 22.25 15.125C22.25 15.9461 22.0101 16.7111 21.5966 17.3539M3 3L21 21M6.32647 8.7928C3.74507 9.12339 1.75 11.3287 1.75 14C1.75 16.8995 4.10051 19.25 7 19.25H18.125C18.4707 19.25 18.8065 19.2075 19.1274 19.1274L7.17838 7.17838C6.81719 7.66517 6.52798 8.20855 6.32647 8.7928Z" stroke="currentColor" stroke-width="1.5" stroke-linecap="round" stroke-linejoin="round"></path></g></svg>