<svg width="24px" height="24px" viewBox="0 0 24 24" fill="none" xmlns="http://www.w3.org/2000/svg"><g><path d="M12.25 3.75H6.95C5.8299 3.75 5.26984 3.75 4.84202 3.96799C4.46569 4.15973 4.15973 4.46569 3.96799 4.84202C3.75 5.26984 3.75 5.8299 3.75 6.95V17.05C3.75 18.1701 3.75 18.7302 3.96799 19.158C4.15973 19.5343 4.46569 19.8403 4.84202 20.032C5.26984 20.25 5.8299 20.25 6.95 20.25H17.05C18.1701 20.25 18.7302 20.25 19.158 20.032C19.5343 19.8403 19.8403 19.5343 20.032 19.158C20.25 18.7302 20.25 18.1701 20.25 17.05V11.75" stroke="currentColor" stroke-width="1.5" stroke-linecap="round" stroke-linejoin="round"></path><path d="M18.9847 2.4329C18.9568 2.18651 18.7485 2.00025 18.5005 2C18.2525 1.99975 18.0438 2.18557 18.0154 2.43191C17.838 3.96993 16.9699 4.83801 15.4319 5.01541C15.1856 5.04382 14.9997 5.25253 15 5.5005C15.0003 5.74847 15.1865 5.9568 15.4329 5.9847C16.9491 6.15645 17.8774 7.01617 18.0141 8.55536C18.0365 8.80725 18.2477 9.00028 18.5005 9C18.7534 8.99971 18.9642 8.80621 18.986 8.55426C19.1173 7.03683 20.0368 6.11734 21.5543 5.98599C21.8062 5.96418 21.9997 5.75344 22 5.50055C22.0003 5.24766 21.8073 5.03648 21.5554 5.01411C20.0162 4.87738 19.1564 3.94911 18.9847 2.4329Z" fill="currentColor"></path><path d="M7.75 8.25H12.25" stroke="currentColor" stroke-width="1.5" stroke-linecap="round" stroke-linejoin="round"></path><path d="M7.75 12H10.25" stroke="currentColor" stroke-width="1.5" stroke-linecap="round" stroke-linejoin="round"></path><path d="M12.75 12H16.25" stroke="currentColor" stroke-width="1.5" stroke-linecap="round" stroke-linejoin="round"></path><path d="M7.75 15.75H13.25" stroke="currentColor" stroke-width="1.5" stroke-linecap="round" stroke-linejoin="round"></path></g></svg>