<svg width="24px" height="24px" viewBox="0 0 24 24" fill="none" xmlns="http://www.w3.org/2000/svg"><g><path d="M21.25 12C21.25 17.1086 17.1086 21.25 12 21.25C6.89137 21.25 2.75 17.1086 2.75 12C2.75 6.89137 6.89137 2.75 12 2.75C17.1086 2.75 21.25 6.89137 21.25 12Z" stroke="currentColor" stroke-width="1.5" stroke-linejoin="round"></path><path d="M8.70696 11.2927L11.2927 8.70696C11.6833 8.31643 12.3164 8.31643 12.707 8.70696L15.2927 11.2927C15.6833 11.6833 15.6833 12.3164 15.2927 12.707L12.707 15.2927C12.3164 15.6833 11.6833 15.6833 11.2927 15.2927L8.70696 12.707C8.31643 12.3164 8.31643 11.6833 8.70696 11.2927Z" stroke="currentColor" stroke-width="1.5" stroke-linecap="square" stroke-linejoin="round"></path></g></svg>