<svg width="24px" height="24px" viewBox="0 0 24 24" fill="none" xmlns="http://www.w3.org/2000/svg"><g><ellipse cx="8.5" cy="14" rx="5.75" ry="2.25" stroke="currentColor" stroke-width="1.5"></ellipse><path d="M14.25 18C14.25 19.2426 11.6756 20.25 8.5 20.25C5.32436 20.25 2.75 19.2426 2.75 18" stroke="currentColor" stroke-width="1.5"></path><path d="M14.25 14V18" stroke="currentColor" stroke-width="1.5"></path><path d="M2.75 14V18" stroke="currentColor" stroke-width="1.5"></path><ellipse cx="15.5" cy="6" rx="5.75" ry="2.25" stroke="currentColor" stroke-width="1.5"></ellipse><path d="M21.25 10C21.25 11.2426 18.6756 12.25 15.5 12.25C12.3244 12.25 9.75 11.2426 9.75 10" stroke="currentColor" stroke-width="1.5"></path><path d="M21.25 6V14" stroke="currentColor" stroke-width="1.5"></path><path d="M9.75 6V12" stroke="currentColor" stroke-width="1.5"></path><path d="M21.25 14C21.25 15.2426 18.6756 16.25 15.5 16.25C14.9811 16.25 14.4782 16.2231 14 16.1727" stroke="currentColor" stroke-width="1.5"></path></g></svg>