<svg width="24px" height="24px" viewBox="0 0 24 24" fill="none" xmlns="http://www.w3.org/2000/svg"><g><path d="M12 2.75C17.1086 2.75 21.25 6.89137 21.25 12C21.25 12.5522 21.201 13.0929 21.1076 13.6183C20.958 14.4597 20.1759 15 19.3213 15H14C12.8954 15 12 15.8954 12 17V19.25C12 20.3546 11.0939 21.2724 10.0148 21.0365C5.86019 20.1279 2.75 16.4272 2.75 12C2.75 6.89137 6.89137 2.75 12 2.75Z" stroke="currentColor" stroke-width="1.5"></path><circle cx="17.1504" cy="10.4497" r="1.25" fill="currentColor"></circle><circle cx="13.25" cy="6.75" r="1.25" fill="currentColor"></circle><circle cx="8.15039" cy="7.9502" r="1.25" fill="currentColor"></circle><circle cx="6.94922" cy="13.0498" r="1.25" fill="currentColor"></circle></g></svg>