<svg width="24px" height="24px" viewBox="0 0 24 24" fill="none" xmlns="http://www.w3.org/2000/svg"><g><path d="M7.30327 9.98894C7.01907 9.34978 6.86111 8.64189 6.86111 7.89706C6.86111 5.05442 9.16187 2.75 12 2.75C14.8381 2.75 17.1389 5.05442 17.1389 7.89706C17.1389 8.64189 16.9809 9.34978 16.6967 9.98894M7.30327 9.98894C4.7409 10.2801 2.75 12.4586 2.75 15.1029C2.75 17.9456 5.05076 20.25 7.88889 20.25C9.56992 20.25 11.0624 19.4416 12 18.1917M7.30327 9.98894C8.02803 11.6189 9.57377 12.8019 11.4144 13.0111M16.6967 9.98894C16.5045 9.9671 16.3091 9.95588 16.1111 9.95588C14.4301 9.95588 12.9376 10.7643 12 12.0142M16.6967 9.98894C19.2591 10.2801 21.25 12.4586 21.25 15.1029C21.25 17.9456 18.9492 20.25 16.1111 20.25C14.4301 20.25 12.9376 19.4416 12 18.1917M12 12.0142C11.7694 12.3216 11.5724 12.6557 11.4144 13.0111M12 12.0142C12.2306 12.3216 12.4276 12.6557 12.5856 13.0111M11.4144 13.0111C11.6066 13.0329 11.802 13.0441 12 13.0441C12.198 13.0441 12.3934 13.0329 12.5856 13.0111M12.5856 13.0111C12.8698 13.6502 13.0278 14.3581 13.0278 15.1029C13.0278 16.2619 12.6454 17.3314 12 18.1917" stroke="currentColor" stroke-width="1.5"></path></g></svg>