<svg width="24px" height="24px" viewBox="0 0 24 24" fill="none" xmlns="http://www.w3.org/2000/svg"><g><path d="M10.25 2.75H4.75C3.64543 2.75 2.75 3.64543 2.75 4.75V16.5C2.75 19.1234 4.87665 21.25 7.5 21.25C10.1234 21.25 12.25 19.1234 12.25 16.5V4.75C12.25 3.64543 11.3546 2.75 10.25 2.75Z" stroke="currentColor" stroke-width="1.5" stroke-linecap="square" stroke-linejoin="round"></path><path d="M11.6133 18.8751L17.4883 8.69935C18.0406 7.74277 17.7128 6.51958 16.7562 5.9673L12.2493 3.36523" stroke="currentColor" stroke-width="1.5" stroke-linecap="round" stroke-linejoin="round"></path><path d="M9.875 20.6136L20.0508 14.7386C21.0074 14.1863 21.3351 12.9632 20.7828 12.0066L18.181 7.5" stroke="currentColor" stroke-width="1.5" stroke-linecap="round" stroke-linejoin="round"></path><path d="M9.25 16.5C9.25 17.4665 8.4665 18.25 7.5 18.25C6.5335 18.25 5.75 17.4665 5.75 16.5C5.75 15.5335 6.5335 14.75 7.5 14.75C8.4665 14.75 9.25 15.5335 9.25 16.5Z" stroke="currentColor" stroke-width="1.5" stroke-linecap="square" stroke-linejoin="round"></path></g></svg>