<svg width="24px" height="24px" viewBox="0 0 24 24" fill="none" xmlns="http://www.w3.org/2000/svg"><g><path d="M6.75 5.75C6.75 4.64543 7.64543 3.75 8.75 3.75H18.25C19.3546 3.75 20.25 4.64543 20.25 5.75V8.25C20.25 9.35457 19.3546 10.25 18.25 10.25H8.75C7.64543 10.25 6.75 9.35457 6.75 8.25V7V5.75Z" stroke="currentColor" stroke-width="1.5" stroke-linecap="round" stroke-linejoin="round"></path><path d="M6.75 7H4.75C4.19772 7 3.75 7.44772 3.75 8V11.25C3.75 12.3546 4.64543 13.25 5.75 13.25H12C12.5523 13.25 13 13.6977 13 14.25V15.5" stroke="currentColor" stroke-width="1.5" stroke-linecap="round" stroke-linejoin="round"></path><path d="M15.25 21.25V18.25C15.25 17.0074 14.2426 16 13 16C11.7574 16 10.75 17.0074 10.75 18.25V21.25" stroke="currentColor" stroke-width="1.5" stroke-linecap="round" stroke-linejoin="round"></path></g></svg>