<svg width="24px" height="24px" viewBox="0 0 24 24" fill="none" xmlns="http://www.w3.org/2000/svg"><g><path d="M12 19.25V20C12.4142 20 12.75 19.6642 12.75 19.25H12ZM20.5 10.25C20.5 10.6642 20.8358 11 21.25 11C21.6642 11 22 10.6642 22 10.25H20.5ZM3.5 17.25V6.75H2V17.25H3.5ZM12 18.5H4.75V20H12V18.5ZM20.5 6.75V10.25H22V6.75H20.5ZM4.75 5.5H12V4H4.75V5.5ZM12 5.5H19.25V4H12V5.5ZM12.75 19.25V4.75H11.25V19.25H12.75ZM22 6.75C22 5.23122 20.7688 4 19.25 4V5.5C19.9404 5.5 20.5 6.05964 20.5 6.75H22ZM3.5 6.75C3.5 6.05964 4.05964 5.5 4.75 5.5V4C3.23122 4 2 5.23122 2 6.75H3.5ZM2 17.25C2 18.7688 3.23122 20 4.75 20V18.5C4.05964 18.5 3.5 17.9404 3.5 17.25H2Z" fill="currentColor"></path><path d="M17.2803 14.2197C16.9874 13.9268 16.5126 13.9268 16.2197 14.2197C15.9268 14.5126 15.9268 14.9874 16.2197 15.2803L17.2803 14.2197ZM20.7197 19.7803C21.0126 20.0732 21.4874 20.0732 21.7803 19.7803C22.0732 19.4874 22.0732 19.0126 21.7803 18.7197L20.7197 19.7803ZM16.2197 18.7197C15.9268 19.0126 15.9268 19.4874 16.2197 19.7803C16.5126 20.0732 16.9874 20.0732 17.2803 19.7803L16.2197 18.7197ZM21.7803 15.2803C22.0732 14.9874 22.0732 14.5126 21.7803 14.2197C21.4874 13.9268 21.0126 13.9268 20.7197 14.2197L21.7803 15.2803ZM16.2197 15.2803L18.4697 17.5303L19.5303 16.4697L17.2803 14.2197L16.2197 15.2803ZM18.4697 17.5303L20.7197 19.7803L21.7803 18.7197L19.5303 16.4697L18.4697 17.5303ZM17.2803 19.7803L19.5303 17.5303L18.4697 16.4697L16.2197 18.7197L17.2803 19.7803ZM19.5303 17.5303L21.7803 15.2803L20.7197 14.2197L18.4697 16.4697L19.5303 17.5303Z" fill="currentColor"></path></g></svg>