<svg width="24px" height="24px" viewBox="0 0 24 24" fill="none" xmlns="http://www.w3.org/2000/svg"><g><path d="M3.5 17.25V6.75H2V17.25H3.5ZM20.5 6.75V17.25H22V6.75H20.5ZM19.25 18.5H4.75V20H19.25V18.5ZM4.75 5.5H19.25V4H4.75V5.5ZM20.5 17.25C20.5 17.9404 19.9404 18.5 19.25 18.5V20C20.7688 20 22 18.7688 22 17.25H20.5ZM22 6.75C22 5.23122 20.7688 4 19.25 4V5.5C19.9404 5.5 20.5 6.05964 20.5 6.75H22ZM3.5 6.75C3.5 6.05964 4.05964 5.5 4.75 5.5V4C3.23122 4 2 5.23122 2 6.75H3.5ZM2 17.25C2 18.7688 3.23122 20 4.75 20V18.5C4.05964 18.5 3.5 17.9404 3.5 17.25H2Z" fill="currentColor"></path><path d="M11.25 19.25V20H12.75V19.25H11.25ZM12.75 4.75V4H11.25V4.75H12.75ZM12.75 19.25V4.75H11.25V19.25H12.75Z" fill="currentColor"></path></g></svg>