<svg width="24px" height="24px" viewBox="0 0 24 24" fill="none" xmlns="http://www.w3.org/2000/svg"><g><path d="M12 19.25V20C12.4142 20 12.75 19.6642 12.75 19.25H12ZM20.5 10.25C20.5 10.6642 20.8358 11 21.25 11C21.6642 11 22 10.6642 22 10.25H20.5ZM12.75 5C12.75 4.58579 12.4142 4.25 12 4.25C11.5858 4.25 11.25 4.58579 11.25 5H12.75ZM3.5 17.25V6.75H2V17.25H3.5ZM12 18.5H4.75V20H12V18.5ZM20.5 6.75V10.25H22V6.75H20.5ZM22 6.75C22 5.23122 20.7688 4 19.25 4V5.5C19.9404 5.5 20.5 6.05964 20.5 6.75H22ZM3.5 6.75C3.5 6.05964 4.05964 5.5 4.75 5.5V4C3.23122 4 2 5.23122 2 6.75H3.5ZM2 17.25C2 18.7688 3.23122 20 4.75 20V18.5C4.05964 18.5 3.5 17.9404 3.5 17.25H2ZM12.75 19.25V5H11.25V19.25H12.75ZM4.75 5.5H19.25V4H4.75V5.5Z" fill="currentColor"></path><path d="M19.75 13.75C19.75 13.3358 19.4142 13 19 13C18.5858 13 18.25 13.3358 18.25 13.75H19.75ZM18.25 20.25C18.25 20.6642 18.5858 21 19 21C19.4142 21 19.75 20.6642 19.75 20.25H18.25ZM15.75 16.25C15.3358 16.25 15 16.5858 15 17C15 17.4142 15.3358 17.75 15.75 17.75V16.25ZM22.25 17.75C22.6642 17.75 23 17.4142 23 17C23 16.5858 22.6642 16.25 22.25 16.25V17.75ZM18.25 13.75V17H19.75V13.75H18.25ZM18.25 17V20.25H19.75V17H18.25ZM15.75 17.75H19V16.25H15.75V17.75ZM19 17.75H22.25V16.25H19V17.75Z" fill="currentColor"></path></g></svg>