<svg width="24px" height="24px" viewBox="0 0 24 24" fill="none" xmlns="http://www.w3.org/2000/svg"><g><path d="M3.75 5.75C3.75 4.64543 4.64543 3.75 5.75 3.75H18.25C19.3546 3.75 20.25 4.64543 20.25 5.75V18.25C20.25 19.3546 19.3546 20.25 18.25 20.25H5.75C4.64543 20.25 3.75 19.3546 3.75 18.25V5.75Z" stroke="currentColor" stroke-width="1.5" stroke-linejoin="round"></path><path d="M14.6558 8.73023L10.5513 9.84965C10.2097 9.94281 9.94281 10.2097 9.84965 10.5513L8.73023 14.6558C8.62843 15.0291 8.97092 15.3716 9.34417 15.2698L13.4487 14.1504C13.7903 14.0572 14.0572 13.7903 14.1504 13.4487L15.2698 9.34417C15.3716 8.97092 15.0291 8.62843 14.6558 8.73023Z" stroke="currentColor" stroke-width="1.5" stroke-linejoin="round"></path></g></svg>