<svg width="24px" height="24px" viewBox="0 0 24 24" fill="none" xmlns="http://www.w3.org/2000/svg"><g><path d="M18.25 3.75H5.75C4.64543 3.75 3.75 4.64543 3.75 5.75V18.25C3.75 19.3546 4.64543 20.25 5.75 20.25H18.25C19.3546 20.25 20.25 19.3546 20.25 18.25V5.75C20.25 4.64543 19.3546 3.75 18.25 3.75Z" stroke="currentColor" stroke-width="1.5" stroke-linejoin="round"></path><path d="M10.3833 16.15L7.97434 8.92302C7.7789 8.33671 8.3367 7.7789 8.92302 7.97434L16.15 10.3833C16.854 10.618 16.8261 11.6232 16.1102 11.8184L13.1516 12.6253C12.8954 12.6952 12.6952 12.8954 12.6253 13.1516L11.8184 16.1102C11.6232 16.8261 10.618 16.854 10.3833 16.15Z" stroke="currentColor" stroke-width="1.5"></path></g></svg>