<svg width="24px" height="24px" viewBox="0 0 24 24" fill="none" xmlns="http://www.w3.org/2000/svg"><g><path d="M8.95696 5.04274L11.2927 2.70696C11.6833 2.31643 12.3164 2.31643 12.707 2.70696L15.0427 5.04274C15.4333 5.43327 15.4333 6.06643 15.0427 6.45696L12.707 8.79274C12.3164 9.18327 11.6833 9.18327 11.2927 8.79274L8.95696 6.45696C8.56643 6.06643 8.56643 5.43327 8.95696 5.04274Z" stroke="currentColor" stroke-width="1.5" stroke-linejoin="round"></path><path d="M8.95696 17.5427L11.2927 15.207C11.6833 14.8164 12.3164 14.8164 12.707 15.207L15.0427 17.5427C15.4333 17.9333 15.4333 18.5664 15.0427 18.957L12.707 21.2927C12.3164 21.6833 11.6833 21.6833 11.2927 21.2927L8.95696 18.957C8.56643 18.5664 8.56643 17.9333 8.95696 17.5427Z" stroke="currentColor" stroke-width="1.5" stroke-linejoin="round"></path><path d="M2.70696 11.2927L5.04274 8.95696C5.43327 8.56643 6.06643 8.56643 6.45696 8.95696L8.79274 11.2927C9.18327 11.6833 9.18327 12.3164 8.79274 12.707L6.45696 15.0427C6.06643 15.4333 5.43327 15.4333 5.04274 15.0427L2.70696 12.707C2.31643 12.3164 2.31643 11.6833 2.70696 11.2927Z" stroke="currentColor" stroke-width="1.5" stroke-linejoin="round"></path><path d="M15.207 11.2927L17.5427 8.95696C17.9333 8.56643 18.5664 8.56643 18.957 8.95696L21.2927 11.2927C21.6833 11.6833 21.6833 12.3164 21.2927 12.707L18.957 15.0427C18.5664 15.4333 17.9333 15.4333 17.5427 15.0427L15.207 12.707C14.8164 12.3164 14.8164 11.6833 15.207 11.2927Z" stroke="currentColor" stroke-width="1.5" stroke-linejoin="round"></path></g></svg>