<svg width="24px" height="24px" viewBox="0 0 24 24" fill="none" xmlns="http://www.w3.org/2000/svg"><g><path d="M21.25 12C21.25 17.1086 17.1086 21.25 12 21.25C6.89137 21.25 2.75 17.1086 2.75 12C2.75 6.89137 6.89137 2.75 12 2.75C17.1086 2.75 21.25 6.89137 21.25 12Z" stroke="currentColor" stroke-width="1.5" stroke-linejoin="round"></path><path d="M14.6558 8.73023L10.5513 9.84965C10.2097 9.94281 9.94281 10.2097 9.84965 10.5513L8.73023 14.6558C8.62843 15.0291 8.97092 15.3716 9.34417 15.2698L13.4487 14.1504C13.7903 14.0572 14.0572 13.7903 14.1504 13.4487L15.2698 9.34417C15.3716 8.97092 15.0291 8.62843 14.6558 8.73023Z" stroke="currentColor" stroke-width="1.5" stroke-linejoin="round"></path></g></svg>