<svg width="24px" height="24px" viewBox="0 0 24 24" fill="none" xmlns="http://www.w3.org/2000/svg"><g><path d="M3.5 14.75V12.75C3.5 8.83519 6.14653 5.53852 9.74805 4.55151M20.5 14.75V12.75C20.5 8.83519 17.8535 5.53852 14.252 4.55151" stroke="currentColor" stroke-width="1.5" stroke-linecap="round" stroke-linejoin="round"></path><path d="M9.75 14.75V4.75C9.75 4.19771 10.1977 3.75 10.75 3.75H13.25C13.8023 3.75 14.25 4.19772 14.25 4.75V14.75" stroke="currentColor" stroke-width="1.5" stroke-linecap="round" stroke-linejoin="round"></path><path d="M2.75 15.75C2.75 15.1977 3.19772 14.75 3.75 14.75H20.25C20.8023 14.75 21.25 15.1977 21.25 15.75V18.25C21.25 18.8023 20.8023 19.25 20.25 19.25H3.75C3.19772 19.25 2.75 18.8023 2.75 18.25V15.75Z" stroke="currentColor" stroke-width="1.5" stroke-linecap="round" stroke-linejoin="round"></path></g></svg>