<svg width="24px" height="24px" viewBox="0 0 24 24" fill="none" xmlns="http://www.w3.org/2000/svg"><g><path d="M20.125 20.3041C16.3333 21.9234 2.24977 21.8742 2.25 17.066C2.25007 15.6385 3.56825 14.7434 5.28803 14.2002M17.2828 13.5181C19.5832 13.6251 21.7415 14.2144 21.75 15.4469C21.7641 17.5158 17.2165 17.9467 15.3561 17.9951" stroke="currentColor" stroke-width="1.5" stroke-linecap="round" stroke-linejoin="round"></path><path d="M12.4325 9.0242L14.3834 1.75488M8.25979 12.6853C8.77365 10.7706 10.6557 9.07972 12.2995 9.51946C13.9433 9.95919 14.7264 12.3631 14.2125 14.2778C13.6986 16.1924 11.8166 17.8834 10.1728 17.4436C8.52902 17.0039 7.74592 14.6 8.25979 12.6853Z" stroke="currentColor" stroke-width="1.5" stroke-linecap="round" stroke-linejoin="round"></path></g></svg>