<svg width="24px" height="24px" viewBox="0 0 24 24" fill="none" xmlns="http://www.w3.org/2000/svg"><g><path d="M16.0311 6.96887C14.3198 6.73976 13 5.27401 13 3.5C13 3.26415 13.0233 3.03374 13.0678 2.81097C12.7175 2.7707 12.3611 2.75 12 2.75C6.89137 2.75 2.75 6.89137 2.75 12C2.75 17.1086 6.89137 21.25 12 21.25C17.1086 21.25 21.25 17.1086 21.25 12C21.25 11.1999 21.1484 10.4235 20.9574 9.68305C20.5137 9.88655 20.0201 10 19.5 10C17.726 10 16.2602 8.68017 16.0311 6.96887Z" stroke="currentColor" stroke-width="1.5" stroke-linejoin="round"></path><path d="M10 8.5C10 9.32843 9.32843 10 8.5 10C7.67157 10 7 9.32843 7 8.5C7 7.67157 7.67157 7 8.5 7C9.32843 7 10 7.67157 10 8.5Z" fill="currentColor"></path><path d="M14 11.5C14 12.3284 13.3284 13 12.5 13C11.6716 13 11 12.3284 11 11.5C11 10.6716 11.6716 10 12.5 10C13.3284 10 14 10.6716 14 11.5Z" fill="currentColor"></path><path d="M18 14C18 14.5523 17.5523 15 17 15C16.4477 15 16 14.5523 16 14C16 13.4477 16.4477 13 17 13C17.5523 13 18 13.4477 18 14Z" fill="currentColor"></path><path d="M13 16.5C13 17.3284 12.3284 18 11.5 18C10.6716 18 10 17.3284 10 16.5C10 15.6716 10.6716 15 11.5 15C12.3284 15 13 15.6716 13 16.5Z" fill="currentColor"></path><path d="M8 14C8 14.5523 7.55228 15 7 15C6.44772 15 6 14.5523 6 14C6 13.4477 6.44772 13 7 13C7.55228 13 8 13.4477 8 14Z" fill="currentColor"></path></g></svg>