<svg width="24px" height="24px" viewBox="0 0 24 24" fill="none" xmlns="http://www.w3.org/2000/svg"><g><path d="M16.25 8.75H6C4.75736 8.75 3.75 7.74264 3.75 6.5M16.25 8.75H18.25C19.3546 8.75 20.25 9.64543 20.25 10.75V18.25C20.25 19.3546 19.3546 20.25 18.25 20.25H12.25M16.25 8.75V5.22059C16.25 4.4084 15.5916 3.75 14.7794 3.75H6.5C4.98122 3.75 3.75 4.98122 3.75 6.5M3.75 11.25V6.5" stroke="currentColor" stroke-width="1.5" stroke-linecap="round" stroke-linejoin="round"></path><path d="M6 13.4583L9.25 15.3541V19.1458L6 21.0416L2.75 19.1458V15.3541L6 13.4583Z" stroke="currentColor" stroke-width="1.5" stroke-linecap="round" stroke-linejoin="round"></path><path d="M15.5 14.5V14.49M15.75 14.5C15.75 14.6381 15.6381 14.75 15.5 14.75C15.3619 14.75 15.25 14.6381 15.25 14.5C15.25 14.3619 15.3619 14.25 15.5 14.25C15.6381 14.25 15.75 14.3619 15.75 14.5Z" stroke="currentColor" stroke-width="1.5" stroke-linecap="round"></path></g></svg>