<svg width="24px" height="24px" viewBox="0 0 24 24" fill="none" xmlns="http://www.w3.org/2000/svg"><g><path d="M21.25 12C21.25 17.1086 17.1086 21.25 12 21.25C6.89137 21.25 2.75 17.1086 2.75 12C2.75 6.89137 6.89137 2.75 12 2.75C17.1086 2.75 21.25 6.89137 21.25 12Z" stroke="currentColor" stroke-width="1.5" stroke-linecap="round" stroke-linejoin="round"></path><path d="M11.25 7.52564C11.7141 7.25771 12.2859 7.25771 12.75 7.52564L15.5 9.11332C15.9641 9.38126 16.25 9.87646 16.25 10.4124V13.5876C16.25 14.1235 15.9641 14.6187 15.5 14.8867L12.75 16.4744C12.2859 16.7423 11.7141 16.7423 11.25 16.4744L8.50002 14.8867C8.03591 14.6187 7.75 14.1235 7.75 13.5876V10.4124C7.75 9.87646 8.0359 9.38126 8.50001 9.11332L11.25 7.52564Z" stroke="currentColor" stroke-width="1.5" stroke-linecap="round" stroke-linejoin="round"></path></g></svg>