<svg width="24px" height="24px" viewBox="0 0 24 24" fill="none" xmlns="http://www.w3.org/2000/svg"><g><path d="M21.2509 17.2499V14.0713C18.0009 14.0713 15.6969 16.2587 15.7509 19.2499H19.2509C20.3555 19.2499 21.2509 18.3544 21.2509 17.2499Z" stroke="currentColor" stroke-width="1.5" stroke-linecap="round" stroke-linejoin="round"></path><path d="M2.75 14.071V17.2496C2.75 18.3541 3.64543 19.2496 4.75 19.2496H8.25C8.30402 16.2584 6 13.9996 2.75 14.071Z" stroke="currentColor" stroke-width="1.5" stroke-linecap="round" stroke-linejoin="round"></path><path d="M2.75 14.0714V6.75C2.75 5.64543 3.64543 4.75 4.75 4.75H19.25C20.3546 4.75 21.25 5.64543 21.25 6.75V14.0714C15.5 13 14.5 10 14.75 4.75" stroke="currentColor" stroke-width="1.5" stroke-linecap="round" stroke-linejoin="round"></path><path d="M2.75 14.0714C7.5 13 9.5 10 9.25 4.75" stroke="currentColor" stroke-width="1.5" stroke-linecap="round" stroke-linejoin="round"></path><path d="M8.5 18.25H15.5" stroke="currentColor" stroke-width="1.5" stroke-linecap="square" stroke-linejoin="round"></path></g></svg>