<svg width="24px" height="24px" viewBox="0 0 24 24" fill="none" xmlns="http://www.w3.org/2000/svg"><g><path d="M19.25 5.5C19.25 5.91421 18.9142 6.25 18.5 6.25C18.0858 6.25 17.75 5.91421 17.75 5.5C17.75 5.08579 18.0858 4.75 18.5 4.75C18.9142 4.75 19.25 5.08579 19.25 5.5Z" fill="currentColor" stroke="currentColor" stroke-width="1.5"></path><path d="M19.25 12C19.25 12.4142 18.9142 12.75 18.5 12.75C18.0858 12.75 17.75 12.4142 17.75 12C17.75 11.5858 18.0858 11.25 18.5 11.25C18.9142 11.25 19.25 11.5858 19.25 12Z" fill="currentColor" stroke="currentColor" stroke-width="1.5"></path><path d="M6.25 12C6.25 12.4142 5.91421 12.75 5.5 12.75C5.08579 12.75 4.75 12.4142 4.75 12C4.75 11.5858 5.08579 11.25 5.5 11.25C5.91421 11.25 6.25 11.5858 6.25 12Z" fill="currentColor" stroke="currentColor" stroke-width="1.5"></path><path d="M6.25 18.5C6.25 18.9142 5.91421 19.25 5.5 19.25C5.08579 19.25 4.75 18.9142 4.75 18.5C4.75 18.0858 5.08579 17.75 5.5 17.75C5.91421 17.75 6.25 18.0858 6.25 18.5Z" fill="currentColor" stroke="currentColor" stroke-width="1.5"></path><path d="M12.75 5.5C12.75 5.91421 12.4142 6.25 12 6.25C11.5858 6.25 11.25 5.91421 11.25 5.5C11.25 5.08579 11.5858 4.75 12 4.75C12.4142 4.75 12.75 5.08579 12.75 5.5Z" fill="currentColor" stroke="currentColor" stroke-width="1.5"></path><path d="M12.75 18.5C12.75 18.9142 12.4142 19.25 12 19.25C11.5858 19.25 11.25 18.9142 11.25 18.5C11.25 18.0858 11.5858 17.75 12 17.75C12.4142 17.75 12.75 18.0858 12.75 18.5Z" fill="currentColor" stroke="currentColor" stroke-width="1.5"></path><path d="M12 13.75C12.9665 13.75 13.75 12.9665 13.75 12C13.75 11.0335 12.9665 10.25 12 10.25C11.0335 10.25 10.25 11.0335 10.25 12C10.25 12.9665 11.0335 13.75 12 13.75Z" stroke="currentColor" stroke-width="1.5"></path></g></svg>