<svg width="24px" height="24px" viewBox="0 0 24 24" fill="none" xmlns="http://www.w3.org/2000/svg"><g><path d="M9.41848 5.9863L7.96304 5.62342C6.89128 5.3562 5.80582 6.00841 5.5386 7.08016L3.0589 17.0257C2.79168 18.0975 3.44389 19.1829 4.51565 19.4501L10.8226 21.0226C11.8943 21.2898 12.9798 20.6376 13.247 19.5659L15.7267 9.62034C15.9939 8.54859 15.3417 7.46313 14.27 7.19591L12.8145 6.83303M9.41848 5.9863L10.0233 3.56056C10.1569 3.02468 10.6996 2.69858 11.2355 2.83219L12.6909 3.19507C13.2268 3.32868 13.5529 3.87141 13.4193 4.40729L12.8145 6.83303M9.41848 5.9863L12.8145 6.83303M8.14839 11.0804L9.40905 13.2577M9.40905 13.2577L10.6977 15.3231M9.40905 13.2577L11.5444 11.9271M9.40905 13.2577L7.30167 14.4764" stroke="currentColor" stroke-width="1.5" stroke-linecap="round" stroke-linejoin="round"></path><path d="M16.5 5V4.99M19 3.75V3.74M21.5 2.5V2.49M21.5 5V4.99M21.5 7.5V7.49M19 6.25V6.24M16.75 5C16.75 5.13807 16.6381 5.25 16.5 5.25C16.3619 5.25 16.25 5.13807 16.25 5C16.25 4.86193 16.3619 4.75 16.5 4.75C16.6381 4.75 16.75 4.86193 16.75 5ZM19.25 3.75C19.25 3.88807 19.1381 4 19 4C18.8619 4 18.75 3.88807 18.75 3.75C18.75 3.61193 18.8619 3.5 19 3.5C19.1381 3.5 19.25 3.61193 19.25 3.75ZM21.75 2.5C21.75 2.63807 21.6381 2.75 21.5 2.75C21.3619 2.75 21.25 2.63807 21.25 2.5C21.25 2.36193 21.3619 2.25 21.5 2.25C21.6381 2.25 21.75 2.36193 21.75 2.5ZM21.75 5C21.75 5.13807 21.6381 5.25 21.5 5.25C21.3619 5.25 21.25 5.13807 21.25 5C21.25 4.86193 21.3619 4.75 21.5 4.75C21.6381 4.75 21.75 4.86193 21.75 5ZM21.75 7.5C21.75 7.63807 21.6381 7.75 21.5 7.75C21.3619 7.75 21.25 7.63807 21.25 7.5C21.25 7.36193 21.3619 7.25 21.5 7.25C21.6381 7.25 21.75 7.36193 21.75 7.5ZM19.25 6.25C19.25 6.38807 19.1381 6.5 19 6.5C18.8619 6.5 18.75 6.38807 18.75 6.25C18.75 6.11193 18.8619 6 19 6C19.1381 6 19.25 6.11193 19.25 6.25Z" stroke="currentColor" stroke-width="1.5" stroke-linecap="round"></path></g></svg>