<svg width="24px" height="24px" viewBox="0 0 24 24" fill="none" xmlns="http://www.w3.org/2000/svg"><g><circle cx="12" cy="12" r="4.25" stroke="currentColor" stroke-width="1.5" stroke-linecap="round" stroke-linejoin="round"></circle><path d="M15 15L17.5 17.5" stroke="currentColor" stroke-width="1.5" stroke-linecap="round" stroke-linejoin="round"></path><path d="M8.74541 3.33879C9.7578 2.95819 10.8546 2.75 12 2.75C13.1454 2.75 14.2422 2.95819 15.2546 3.33879M8.74541 20.6612C9.7578 21.0418 10.8546 21.25 12 21.25C13.1454 21.25 14.2422 21.0418 15.2546 20.6612M3.3387 8.74566C2.95815 9.75798 2.75 10.8547 2.75 12C2.75 13.1453 2.95815 14.242 3.3387 15.2543M20.6613 8.74566C21.0418 9.75798 21.25 10.8547 21.25 12C21.25 13.1453 21.0418 14.242 20.6613 15.2543" stroke="currentColor" stroke-width="1.5" stroke-linecap="round" stroke-linejoin="round"></path></g></svg>