<svg width="24px" height="24px" viewBox="0 0 24 24" fill="none" xmlns="http://www.w3.org/2000/svg"><g><circle cx="19" cy="16" r="3.25" stroke="currentColor" stroke-width="1.5" stroke-linecap="round" stroke-linejoin="round"></circle><path d="M9.13672 15.2488H11.5434C12.5479 15.2488 13.3632 14.4793 13.7883 13.5692C14.7042 11.6085 16.6938 10.25 19.0007 10.25H19.251" stroke="currentColor" stroke-width="1.5" stroke-linecap="round" stroke-linejoin="round"></path><path d="M9.25 16C9.25 17.7949 7.79493 19.25 6 19.25C4.20507 19.25 2.75 17.7949 2.75 16" stroke="currentColor" stroke-width="1.5" stroke-linecap="round" stroke-linejoin="round"></path><path d="M12.75 4.75H13.6217C14.4516 4.75 15.1952 5.2625 15.4907 6.03801L17 10" stroke="currentColor" stroke-width="1.5" stroke-linecap="round" stroke-linejoin="round"></path><path d="M9.25 15.25H2.75C2.19772 15.25 1.75 14.8023 1.75 14.25V10.75C1.75 9.64543 2.64543 8.75 3.75 8.75H8.25C9.35457 8.75 10.25 9.64543 10.25 10.75V14.25C10.25 14.8023 9.80229 15.25 9.25 15.25Z" stroke="currentColor" stroke-width="1.5" stroke-linecap="round" stroke-linejoin="round"></path></g></svg>