<svg width="24px" height="24px" viewBox="0 0 24 24" fill="none" xmlns="http://www.w3.org/2000/svg"><g><path d="M5.75 4.75C5.75 4.19772 6.19772 3.75 6.75 3.75H13.25C13.8023 3.75 14.25 4.19772 14.25 4.75V8.25C14.25 8.80228 13.8023 9.25 13.25 9.25H6.75C6.19772 9.25 5.75 8.80228 5.75 8.25V4.75Z" stroke="currentColor" stroke-width="1.5" stroke-linecap="round" stroke-linejoin="round"></path><path d="M10 9.5V11.75" stroke="currentColor" stroke-width="1.5" stroke-linecap="round" stroke-linejoin="round"></path><path d="M19.75 16H13.25" stroke="currentColor" stroke-width="1.5" stroke-linecap="round" stroke-linejoin="round"></path><path d="M3.75 20.25V13.75C3.75 12.6454 4.64543 11.75 5.75 11.75H13M13 11.75H18.25C19.3546 11.75 20.25 12.6454 20.25 13.75V20.25H13V11.75Z" stroke="currentColor" stroke-width="1.5" stroke-linecap="round" stroke-linejoin="round"></path></g></svg>