<svg width="24px" height="24px" viewBox="0 0 24 24" fill="none" xmlns="http://www.w3.org/2000/svg"><g><path d="M15.75 11.25C15.75 10.4216 16.4216 9.75 17.25 9.75L20.75 9.75C21.5784 9.75 22.25 10.4216 22.25 11.25V18.75C22.25 19.5784 21.5784 20.25 20.75 20.25H17.25C16.4216 20.25 15.75 19.5784 15.75 18.75V11.25Z" stroke="currentColor" stroke-width="1.5" stroke-linecap="round" stroke-linejoin="round"></path><path d="M12.75 19.25H3.75C2.64543 19.25 1.75 18.3546 1.75 17.25V16.25H12.75" stroke="currentColor" stroke-width="1.5" stroke-linecap="round" stroke-linejoin="round"></path><path d="M20.25 6.75V5.75C20.25 4.64543 19.3546 3.75 18.25 3.75H5.75C4.64543 3.75 3.75 4.64543 3.75 5.75V16" stroke="currentColor" stroke-width="1.5" stroke-linecap="round" stroke-linejoin="round"></path></g></svg>