<svg width="24px" height="24px" viewBox="0 0 24 24" fill="none" xmlns="http://www.w3.org/2000/svg"><g><path d="M14.25 10.75C14.25 9.64543 15.1454 8.75 16.25 8.75H20.25C21.3546 8.75 22.25 9.64543 22.25 10.75V19.25C22.25 20.3546 21.3546 21.25 20.25 21.25H16.25C15.1454 21.25 14.25 20.3546 14.25 19.25V10.75Z" stroke="currentColor" stroke-width="1.5" stroke-linecap="round" stroke-linejoin="round"></path><path d="M17.25 18.25H19.5" stroke="currentColor" stroke-width="1.5" stroke-linecap="round" stroke-linejoin="round"></path><path d="M20.25 8.75V5.75C20.25 4.64543 19.3546 3.75 18.25 3.75H5.75C4.64543 3.75 3.75 4.64543 3.75 5.75V14.75C3.75 15.8546 2.85457 16.75 1.75 16.75V18.25C1.75 19.3546 2.64543 20.25 3.75 20.25H14.25" stroke="currentColor" stroke-width="1.5" stroke-linecap="round" stroke-linejoin="round"></path><path d="M3.75 16.75H14.25" stroke="currentColor" stroke-width="1.5" stroke-linecap="round" stroke-linejoin="round"></path></g></svg>