<svg width="24px" height="24px" viewBox="0 0 24 24" fill="none" xmlns="http://www.w3.org/2000/svg"><g><path d="M16.75 11.0958C16.75 11.3114 16.5753 11.4861 16.3597 11.4861C16.288 11.4861 16.2131 11.4635 16.1517 11.4264C8.61951 6.87172 6.9389 10.7866 5.3226 14.5517C4.43344 16.6229 3.56373 18.6489 1.75 19.1944H6.06481C6.44323 19.1944 6.75 19.5012 6.75 19.8796C6.75 20.6365 7.36354 21.25 8.12037 21.25H8.37963C9.13646 21.25 9.75 20.6365 9.75 19.8796C9.75 19.5012 10.0568 19.1944 10.4352 19.1944H13.0648C13.4432 19.1944 13.75 19.5012 13.75 19.8796C13.75 20.6365 14.3635 21.25 15.1204 21.25H15.25C16.0784 21.25 16.75 20.5784 16.75 19.75V19.2591C16.75 18.8734 16.9768 18.5286 17.3067 18.3286C19.0411 17.2768 20.2 15.371 20.2 13.1944V7.99229C20.2 7.6139 20.4136 7.26793 20.7518 7.09834L21.8201 6.56276C22.0836 6.43064 22.25 6.1611 22.25 5.86631V5.5C22.25 3.98122 21.0188 2.75 19.5 2.75C17.9812 2.75 16.75 3.98122 16.75 5.5V11.0958Z" stroke="currentColor" stroke-width="1.5" stroke-linejoin="round"></path></g></svg>