<svg width="24px" height="24px" viewBox="0 0 24 24" fill="none" xmlns="http://www.w3.org/2000/svg"><g><path d="M12.0013 9V3.75H18.7328C19.3727 3.75 19.9739 4.05617 20.3503 4.57366L20.8537 5.26587C21.3837 5.99467 21.3609 6.98792 20.798 7.6916L20.3517 8.24939C19.9722 8.72382 19.3976 9 18.79 9H12.0013ZM12.0013 9V14M12.0013 9H5.2125C4.60493 9 4.03031 9.27618 3.65076 9.75061L3.25076 10.2506C2.66641 10.981 2.66641 12.019 3.25076 12.7494L3.65076 13.2494C4.03031 13.7238 4.60493 14 5.2125 14H12.0013M12.0013 14V20.25M12.0013 20.25H7.75125M12.0013 20.25H16.2513" stroke="currentColor" stroke-width="1.5" stroke-linecap="round" stroke-linejoin="round"></path></g></svg>