<svg width="24px" height="24px" viewBox="0 0 24 24" fill="none" xmlns="http://www.w3.org/2000/svg"><g><path d="M12.0011 16.25V20.25M12.0011 16.25H6.03745C5.38761 16.25 4.77827 15.9343 4.40352 15.4034L2.81528 13.1534C2.3272 12.4619 2.3272 11.5381 2.81528 10.8466L4.40352 8.59663C4.77827 8.06573 5.38761 7.75 6.03745 7.75H11.0011C11.5534 7.75 12.0011 8.19772 12.0011 8.75V16.25ZM13.0011 3.75H17.9648C18.6147 3.75 19.224 4.06573 19.5988 4.59663L21.187 6.84663C21.6751 7.53809 21.6751 8.46191 21.187 9.15337L19.5988 11.4034C19.224 11.9343 18.6147 12.25 17.9648 12.25H13.0011C12.4489 12.25 12.0011 11.8023 12.0011 11.25V4.75C12.0011 4.19772 12.4489 3.75 13.0011 3.75Z" stroke="currentColor" stroke-width="1.5" stroke-linecap="round" stroke-linejoin="round"></path></g></svg>