<svg width="24px" height="24px" viewBox="0 0 24 24" fill="none" xmlns="http://www.w3.org/2000/svg"><g><circle cx="12" cy="12" r="3.25" stroke="currentColor" stroke-width="1.5"></circle><path d="M7.29821 6.84261C7.40026 6.85483 7.50414 6.86111 7.60949 6.86111C9.04095 6.86111 10.2014 5.70068 10.2014 4.26921C10.2014 3.80683 10.0803 3.37272 9.86813 2.99687C10.5525 2.83542 11.2663 2.75 12 2.75C17.1086 2.75 21.25 6.89137 21.25 12C21.25 17.1086 17.1086 21.25 12 21.25C6.89137 21.25 2.75 17.1086 2.75 12C2.75 10.7588 2.99448 9.57461 3.43793 8.49309C3.83629 8.76059 4.31574 8.91667 4.83165 8.91667C6.06781 8.91667 7.09469 8.02062 7.29821 6.84261Z" stroke="currentColor" stroke-width="1.5" stroke-linejoin="round"></path><path d="M6.5 12.5L5.5 13.5" stroke="currentColor" stroke-width="1.5" stroke-linecap="round"></path><path d="M13.75 5.75L14.75 6.75" stroke="currentColor" stroke-width="1.5" stroke-linecap="round"></path><path d="M17.5 10.75L18.5 11.75" stroke="currentColor" stroke-width="1.5" stroke-linecap="round"></path><path d="M15.75 16.75L14.75 17.75" stroke="currentColor" stroke-width="1.5" stroke-linecap="round"></path><path d="M9.25 17.75L8.25 16.75" stroke="currentColor" stroke-width="1.5" stroke-linecap="round"></path></g></svg>