<svg width="24px" height="24px" viewBox="0 0 24 24" fill="none" xmlns="http://www.w3.org/2000/svg"><g><path d="M5.89389 7.28136C5.73281 8.18763 6.49619 8.93989 7.41667 8.93989C8.22208 8.93989 8.84933 8.27901 9.01406 7.49062C9.317 6.04082 10.1621 4.83989 12 4.83989C13.7259 4.83989 15.125 6.21662 15.125 7.91489V8.03478C15.125 9.79954 13.9774 11.3663 12.276 11.9244L8.59905 13.1304C6.89763 13.6885 5.75 15.2552 5.75 17.02V20.2649C5.75 21.3695 6.64543 22.2649 7.75 22.2649H16.25C17.3546 22.2649 18.25 21.3695 18.25 20.2649V7.91489C18.25 4.51834 15.4518 1.76489 12 1.76489C8.47926 1.76489 6.43226 4.25244 5.89389 7.28136Z" stroke="currentColor" stroke-width="1.5" stroke-linecap="round" stroke-linejoin="round"></path></g></svg>