<svg width="24px" height="24px" viewBox="0 0 24 24" fill="none" xmlns="http://www.w3.org/2000/svg"><g><path d="M3.86903 17.6564L6.3439 20.1312C6.92969 20.717 7.87944 20.717 8.46522 20.1312C9.05101 19.5455 9.05101 18.5957 8.46522 18.0099L5.99035 15.535C5.40456 14.9493 4.45481 14.9493 3.86903 15.535C3.28324 16.1208 3.28324 17.0706 3.86903 17.6564Z" stroke="currentColor" stroke-width="1.5" stroke-linecap="round" stroke-linejoin="round"></path><path d="M20.1332 6.3439L17.6583 3.86903C17.0725 3.28324 16.1228 3.28324 15.537 3.86903C14.9512 4.45481 14.9512 5.40456 15.537 5.99035L18.0119 8.46522C18.5977 9.05101 19.5474 9.05101 20.1332 8.46522C20.719 7.87944 20.719 6.92969 20.1332 6.3439Z" stroke="currentColor" stroke-width="1.5" stroke-linecap="round" stroke-linejoin="round"></path><path d="M4.39928 13.9445C3.71586 13.2611 3.71586 12.153 4.39928 11.4696C5.0827 10.7862 6.19074 10.7862 6.87416 11.4696L12.531 17.1264C13.2144 17.8099 13.2144 18.9179 12.531 19.6013C11.8476 20.2847 10.7396 20.2847 10.0561 19.6013L4.39928 13.9445Z" stroke="currentColor" stroke-width="1.5" stroke-linecap="round" stroke-linejoin="round"></path><path d="M11.4696 6.87416C10.7862 6.19074 10.7862 5.0827 11.4696 4.39928C12.153 3.71586 13.2611 3.71586 13.9445 4.39928L19.6013 10.0561C20.2847 10.7396 20.2847 11.8476 19.6013 12.531C18.9179 13.2144 17.8099 13.2144 17.1264 12.531L11.4696 6.87416Z" stroke="currentColor" stroke-width="1.5" stroke-linecap="round" stroke-linejoin="round"></path><path d="M8.64062 12.8842L12.8833 8.6416" stroke="currentColor" stroke-width="1.5" stroke-linecap="round" stroke-linejoin="round"></path><path d="M11.1172 15.3589L15.3598 11.1162" stroke="currentColor" stroke-width="1.5" stroke-linecap="round" stroke-linejoin="round"></path></g></svg>