<svg width="24px" height="24px" viewBox="0 0 24 24" fill="none" xmlns="http://www.w3.org/2000/svg"><g><path d="M14.9834 16.2227L17.4917 13.7402C18.6169 12.6266 19.25 11.1022 19.25 9.51911C19.25 5.79119 16.2279 2.75 12.5 2.75C8.77208 2.75 5.75 5.77208 5.75 9.5V17.3923C5.75 19.5229 7.47713 21.25 9.60765 21.25C11.0631 21.25 12.3946 20.4309 13.0509 19.1318L13.4704 18.3014C13.8594 17.5315 14.3703 16.8295 14.9834 16.2227Z" stroke="currentColor" stroke-width="1.5" stroke-linecap="round" stroke-linejoin="round"></path><path d="M15.5 9.3125C15.5 7.7592 14.1569 6.5 12.5 6.5C10.8431 6.5 9.5 7.9467 9.5 9.5C9.5 11.7304 10.7 12.6875 9.5 15.5" stroke="currentColor" stroke-width="1.5" stroke-linecap="round" stroke-linejoin="round"></path></g></svg>