<svg width="24px" height="24px" viewBox="0 0 24 24" fill="none" xmlns="http://www.w3.org/2000/svg"><g><path d="M3.7503 7.81174L6.71058 10.031C7.38438 10.5361 8.351 10.3093 8.72987 9.55727C8.90656 9.20652 9.22698 8.94989 9.60785 8.85407L11.8409 8.29233C12.5564 8.11233 13.1147 7.55302 13.2934 6.83719L14.2452 3.02438M3.7503 7.81174C3.11062 9.06923 2.75 10.4925 2.75 12C2.75 17.1086 6.89137 21.25 12 21.25C17.1086 21.25 21.25 17.1086 21.25 12C21.25 7.66569 18.2689 4.02764 14.2452 3.02438M3.7503 7.81174C5.27837 4.80785 8.39887 2.75 12 2.75C12.7743 2.75 13.5264 2.84514 14.2452 3.02438" stroke="currentColor" stroke-width="1.5" stroke-linecap="round" stroke-linejoin="round"></path><path d="M14.0787 17C14.6443 17 15.1613 16.6805 15.4143 16.1746C15.7501 15.503 15.5348 14.6864 14.9115 14.2675L13.5022 13.3205C13.2084 13.1231 12.8674 13.0071 12.5141 12.9846L11.6643 12.9304C11.3122 12.9079 10.9674 13.0377 10.7175 13.2867C10.3014 13.7013 10.2363 14.3522 10.5622 14.8409L11.4078 16.1094C11.7788 16.6658 12.4032 17 13.0719 17H14.0787Z" stroke="currentColor" stroke-width="1.5" stroke-linecap="round" stroke-linejoin="round"></path></g></svg>