<svg width="24px" height="24px" viewBox="0 0 24 24" fill="none" xmlns="http://www.w3.org/2000/svg"><g><path d="M12.75 11.2499V8.24994L17.3358 3.66416C18.1168 2.88311 19.3832 2.88311 20.1642 3.66416L20.3358 3.83573C21.1168 4.61678 21.1168 5.88311 20.3358 6.66416L15.75 11.2499H12.75Z" stroke="currentColor" stroke-width="1.5" stroke-linecap="round" stroke-linejoin="round"></path><path d="M11.25 3.75H6.95C5.8299 3.75 5.26984 3.75 4.84202 3.96799C4.46569 4.15973 4.15973 4.46569 3.96799 4.84202C3.75 5.26984 3.75 5.8299 3.75 6.95V17.05C3.75 18.1701 3.75 18.7302 3.96799 19.158C4.15973 19.5343 4.46569 19.8403 4.84202 20.032C5.26984 20.25 5.8299 20.25 6.95 20.25H17.05C18.1701 20.25 18.7302 20.25 19.158 20.032C19.5343 19.8403 19.8403 19.5343 20.032 19.158C20.25 18.7302 20.25 18.1701 20.25 17.05V12.75" stroke="currentColor" stroke-width="1.5" stroke-linecap="round" stroke-linejoin="round"></path></g></svg>