<svg width="24px" height="24px" viewBox="0 0 24 24" fill="none" xmlns="http://www.w3.org/2000/svg"><g><circle cx="7" cy="7" r="3" stroke="currentColor" stroke-width="1.5"></circle><circle cx="17" cy="7" r="3" stroke="currentColor" stroke-width="1.5"></circle><path d="M10 7L10.2111 6.89443C11.3373 6.33137 12.6627 6.33137 13.7889 6.89443L14 7" stroke="currentColor" stroke-width="1.5" stroke-linecap="round" stroke-linejoin="round"></path><path d="M7.29823 18.819L7.01256 19.1524C6.68724 19.532 6.20456 19.7505 5.70459 19.7505C4.66466 19.7505 3.81183 18.8467 4.1187 17.8531C5.09097 14.705 7.70939 12.7055 11.0026 14.069C11.644 14.3345 12.3708 14.3616 13.0223 14.1217C16.4701 12.852 19.2793 14.4828 20.0441 17.8759C20.2729 18.8909 19.4023 19.7505 18.3619 19.7505H18.2877C17.7878 19.7505 17.3128 19.532 16.9874 19.1524L16.7018 18.819C16.3012 18.3516 15.6148 18.2568 15.1026 18.5983C14.7313 18.8458 14.2542 18.8703 13.8595 18.6619L12.9336 18.1732C12.3494 17.8648 11.6506 17.8648 11.0664 18.1732L10.1405 18.6619C9.74581 18.8703 9.26873 18.8458 8.89738 18.5983C8.38522 18.2568 7.69875 18.3516 7.29823 18.819Z" stroke="currentColor" stroke-width="1.5" stroke-linecap="round" stroke-linejoin="round"></path></g></svg>