<svg width="24px" height="24px" viewBox="0 0 24 24" fill="none" xmlns="http://www.w3.org/2000/svg"><g><path d="M21.25 12C21.25 13.2426 20.2426 14.25 19 14.25C17.7574 14.25 16.75 13.2426 16.75 12C16.75 10.7574 17.7574 9.75 19 9.75C20.2426 9.75 21.25 10.7574 21.25 12Z" stroke="currentColor" stroke-width="1.5"></path><path d="M7.25 12C7.25 13.2426 6.24264 14.25 5 14.25C3.75736 14.25 2.75 13.2426 2.75 12C2.75 10.7574 3.75736 9.75 5 9.75C6.24264 9.75 7.25 10.7574 7.25 12Z" stroke="currentColor" stroke-width="1.5"></path><path d="M14.3752 16.1143C15.4512 15.4931 16.827 15.8617 17.4482 16.9377C18.0694 18.0137 17.7008 19.3895 16.6248 20.0107C15.5488 20.6319 14.173 20.2633 13.5518 19.1873C12.9306 18.1113 13.2992 16.7355 14.3752 16.1143Z" stroke="currentColor" stroke-width="1.5"></path><path d="M7.37519 3.98927C8.45117 3.36805 9.82701 3.73671 10.4482 4.81269C11.0694 5.88867 10.7008 7.26451 9.62481 7.88573C8.54883 8.50695 7.17298 8.13829 6.55177 7.06231C5.93055 5.98633 6.29921 4.61048 7.37519 3.98927Z" stroke="currentColor" stroke-width="1.5"></path><path d="M7.37519 20.0107C6.29921 19.3895 5.93055 18.0137 6.55177 16.9377C7.17298 15.8617 8.54883 15.4931 9.62481 16.1143C10.7008 16.7355 11.0694 18.1113 10.4482 19.1873C9.82701 20.2633 8.45117 20.6319 7.37519 20.0107Z" stroke="currentColor" stroke-width="1.5"></path><path d="M14.3752 7.88573C13.2992 7.26451 12.9306 5.88867 13.5518 4.81269C14.173 3.73671 15.5488 3.36805 16.6248 3.98927C17.7008 4.61048 18.0694 5.98633 17.4482 7.06231C16.827 8.13829 15.4512 8.50695 14.3752 7.88573Z" stroke="currentColor" stroke-width="1.5"></path></g></svg>