<svg width="24px" height="24px" viewBox="0 0 24 24" fill="none" xmlns="http://www.w3.org/2000/svg"><g><path d="M13 19.25H5.95C4.82989 19.25 4.26984 19.25 3.84202 19.032C3.46569 18.8403 3.15973 18.5343 2.96799 18.158C2.75 17.7302 2.75 17.1701 2.75 16.05V7.95C2.75 6.82989 2.75 6.26984 2.96799 5.84202C3.15973 5.46569 3.46569 5.15973 3.84202 4.96799C4.26984 4.75 4.8299 4.75 5.95 4.75H18.05C19.1701 4.75 19.7302 4.75 20.158 4.96799C20.5343 5.15973 20.8403 5.46569 21.032 5.84202C21.25 6.26984 21.25 6.8299 21.25 7.95V11" stroke="currentColor" stroke-width="1.5" stroke-linecap="round"></path><path d="M3 5.63635L10.9761 10.3898C11.6069 10.7657 12.3931 10.7657 13.0239 10.3898L21 5.63635" stroke="currentColor" stroke-width="1.5"></path><path d="M19 13.75V20.25" stroke="currentColor" stroke-width="1.5" stroke-linecap="round"></path><path d="M22.25 17L15.75 17" stroke="currentColor" stroke-width="1.5" stroke-linecap="round"></path></g></svg>