<svg width="24px" height="24px" viewBox="0 0 24 24" fill="none" xmlns="http://www.w3.org/2000/svg"><g><path d="M21.25 6.75H20.5V17.25H21.25H22V6.75H21.25ZM4.75 4.75V5.5H19.25V4.75V4H4.75V4.75ZM2.75 17.25H3.5V6.75H2.75H2V17.25H2.75ZM19.25 19.25V18.5H4.75V19.25V20H19.25V19.25ZM2.75 17.25H2C2 18.7688 3.23122 20 4.75 20V19.25V18.5C4.05964 18.5 3.5 17.9404 3.5 17.25H2.75ZM4.75 4.75V4C3.23122 4 2 5.23122 2 6.75H2.75H3.5C3.5 6.05964 4.05964 5.5 4.75 5.5V4.75ZM21.25 17.25H20.5C20.5 17.9404 19.9404 18.5 19.25 18.5V19.25V20C20.7688 20 22 18.7688 22 17.25H21.25ZM21.25 6.75H22C22 5.23122 20.7688 4 19.25 4V4.75V5.5C19.9404 5.5 20.5 6.05964 20.5 6.75H21.25Z" fill="currentColor"></path><path d="M21.25 8L12.8999 12.2073C12.3339 12.4925 11.6661 12.4925 11.1 12.2073L2.75 8" stroke="currentColor" stroke-width="1.5" stroke-linecap="round" stroke-linejoin="round"></path></g></svg>