<svg width="24px" height="24px" viewBox="0 0 24 24" fill="none" xmlns="http://www.w3.org/2000/svg"><g><path d="M3 5.63623L10.7335 11.9637C11.4703 12.5664 12.5297 12.5664 13.2665 11.9637L21 5.63623" stroke="currentColor" stroke-width="1.5"></path><path d="M20.2405 16.1852L19.5436 14.3733C19.4571 14.1484 19.241 14 19 14C18.759 14 18.5429 14.1484 18.4564 14.3733L17.7595 16.1852C17.658 16.4493 17.4493 16.658 17.1852 16.7595L15.3733 17.4564C15.1484 17.5429 15 17.759 15 18C15 18.241 15.1484 18.4571 15.3733 18.5436L17.1852 19.2405C17.4493 19.342 17.658 19.5507 17.7595 19.8148L18.4564 21.6267C18.5429 21.8516 18.759 22 19 22C19.241 22 19.4571 21.8516 19.5436 21.6267L20.2405 19.8148C20.342 19.5507 20.5507 19.342 20.8148 19.2405L22.6267 18.5436C22.8516 18.4571 23 18.241 23 18C23 17.759 22.8516 17.5429 22.6267 17.4564L20.8148 16.7595C20.5507 16.658 20.342 16.4493 20.2405 16.1852Z" fill="currentColor"></path><path d="M21.25 11.75V7.95C21.25 6.82989 21.25 6.26984 21.032 5.84202C20.8403 5.46569 20.5343 5.15973 20.158 4.96799C19.7302 4.75 19.1701 4.75 18.05 4.75H5.95C4.8299 4.75 4.26984 4.75 3.84202 4.96799C3.46569 5.15973 3.15973 5.46569 2.96799 5.84202C2.75 6.26984 2.75 6.82989 2.75 7.95V16.05C2.75 17.1701 2.75 17.7302 2.96799 18.158C3.15973 18.5343 3.46569 18.8403 3.84202 19.032C4.26984 19.25 4.82989 19.25 5.95 19.25H12.75" stroke="currentColor" stroke-width="1.5" stroke-linecap="round" stroke-linejoin="round"></path></g></svg>