<svg width="24px" height="24px" viewBox="0 0 24 24" fill="none" xmlns="http://www.w3.org/2000/svg"><g><circle cx="12" cy="12" r="9.25" stroke="currentColor" stroke-width="1.5"></circle><path d="M10.75 9.9C10.75 11.0046 10.0784 11.75 9.25 11.75C8.42157 11.75 7.75 11.0046 7.75 9.9C7.75 8.79543 8.42157 8 9.25 8C10.0784 8 10.75 8.79543 10.75 9.9Z" fill="currentColor"></path><path d="M16.25 9.9C16.25 11.0046 15.5784 11.75 14.75 11.75C13.9216 11.75 13.25 11.0046 13.25 9.9C13.25 8.79543 13.9216 8 14.75 8C15.5784 8 16.25 8.79543 16.25 9.9Z" fill="currentColor"></path><path d="M16.4427 14.7344C16.4857 14.5824 16.479 14.4172 16.4135 14.2709C16.3482 14.1247 16.231 14.01 16.0853 13.9511C15.9397 13.8922 15.7757 13.8931 15.6271 13.9528C15.4784 14.0124 15.3587 14.1265 15.2839 14.2656C15.2578 14.3079 15.2301 14.3465 15.2003 14.3831C14.9443 14.7027 14.4566 14.9041 13.8694 15.0424C13.2833 15.1801 12.6267 15.2256 11.959 15.2421C11.885 15.2438 11.8097 15.2452 11.7352 15.2463C11.5363 15.2492 11.3467 15.331 11.2081 15.4737C11.0695 15.6163 10.9933 15.8082 10.9962 16.0071C10.9991 16.206 11.0808 16.3956 11.2235 16.5342C11.3662 16.6728 11.5581 16.7491 11.757 16.7462C11.8356 16.745 11.9157 16.7435 11.995 16.7416C12.7125 16.7224 13.4488 16.6802 14.2151 16.502C14.9553 16.3247 15.8694 15.941 16.3236 15.0324C16.371 14.9355 16.4104 14.8363 16.4427 14.7344Z" fill="currentColor"></path></g></svg>