<svg width="24px" height="24px" viewBox="0 0 24 24" fill="none" xmlns="http://www.w3.org/2000/svg"><g><circle cx="12" cy="12" r="9.25" stroke="currentColor" stroke-width="1.5"></circle><path d="M15.852 13.615C16.1785 13.56 16.4731 13.83 16.4116 14.1553C15.4438 19.2729 8.5539 19.2902 7.58792 14.1552C7.52673 13.8299 7.82136 13.56 8.14778 13.6149C9.06489 13.7693 10.7673 14.0244 12 14.0244C13.2326 14.0244 14.9349 13.7693 15.852 13.615Z" fill="currentColor"></path><path d="M8.39206 7.07923C8.47773 6.91139 8.71123 6.89506 8.81942 7.04935L9.61964 8.19048C9.65851 8.24591 9.71819 8.2832 9.78505 8.29384L11.1615 8.51283C11.3476 8.54243 11.4353 8.75946 11.322 8.91004L10.484 10.0237C10.4433 10.0778 10.4262 10.1461 10.4368 10.213L10.6538 11.5897C10.6832 11.7758 10.5039 11.9263 10.3257 11.8651L9.00754 11.4122C8.94352 11.3902 8.87331 11.3952 8.81297 11.4258L7.5707 12.0577C7.40274 12.1432 7.20423 12.0191 7.20739 11.8307L7.23074 10.4372C7.23188 10.3695 7.20551 10.3042 7.15768 10.2563L6.17284 9.2701C6.03968 9.13676 6.09631 8.90964 6.27648 8.85442L7.60904 8.446C7.67376 8.42616 7.72768 8.38092 7.75845 8.32063L8.39206 7.07923Z" fill="currentColor"></path><path d="M15.6093 7.07923C15.5236 6.91139 15.2901 6.89506 15.1819 7.04935L14.3817 8.19048C14.3429 8.24591 14.2832 8.2832 14.2163 8.29384L12.8399 8.51283C12.6538 8.54243 12.5661 8.75946 12.6794 8.91004L13.5174 10.0237C13.5581 10.0778 13.5751 10.1461 13.5646 10.213L13.3475 11.5897C13.3182 11.7758 13.4975 11.9263 13.6757 11.8651L14.9938 11.4122C15.0578 11.3902 15.128 11.3952 15.1884 11.4258L16.4307 12.0577C16.5986 12.1432 16.7971 12.0191 16.794 11.8307L16.7706 10.4372C16.7695 10.3695 16.7958 10.3042 16.8437 10.2563L17.8285 9.2701C17.9617 9.13676 17.9051 8.90964 17.7249 8.85442L16.3923 8.446C16.3276 8.42616 16.2737 8.38092 16.2429 8.32063L15.6093 7.07923Z" fill="currentColor"></path></g></svg>