<svg width="24px" height="24px" viewBox="0 0 24 24" fill="none" xmlns="http://www.w3.org/2000/svg"><g><path d="M9.25 9.25C9.25 9.52614 9.02614 9.75 8.75 9.75C8.47386 9.75 8.25 9.52614 8.25 9.25C8.25 8.97386 8.47386 8.75 8.75 8.75C9.02614 8.75 9.25 8.97386 9.25 9.25Z" stroke="currentColor" stroke-width="1.5" stroke-linecap="round" stroke-linejoin="round"></path><path d="M8.5 9.25H9" stroke="currentColor" stroke-width="1.5" stroke-linecap="round" stroke-linejoin="round"></path><path d="M14.25 9.25C14.25 9.52614 14.0261 9.75 13.75 9.75C13.4739 9.75 13.25 9.52614 13.25 9.25C13.25 8.97386 13.4739 8.75 13.75 8.75C14.0261 8.75 14.25 8.97386 14.25 9.25Z" stroke="currentColor" stroke-width="1.5" stroke-linecap="round" stroke-linejoin="round"></path><path d="M13.5 9.25H14" stroke="currentColor" stroke-width="1.5" stroke-linecap="round" stroke-linejoin="round"></path><path d="M21.25 12C21.25 17.1086 17.1086 21.25 12 21.25C6.89137 21.25 2.75 17.1086 2.75 12C2.75 6.89137 6.89137 2.75 12 2.75C17.1086 2.75 21.25 6.89137 21.25 12Z" stroke="currentColor" stroke-width="1.5" stroke-linecap="round" stroke-linejoin="round"></path><path d="M17.4486 12.7507C17.1161 15.1864 15.1891 17.1146 12.7539 17.4487" stroke="currentColor" stroke-width="1.5" stroke-linecap="round" stroke-linejoin="round"></path></g></svg>