<svg width="24px" height="24px" viewBox="0 0 24 24" fill="none" xmlns="http://www.w3.org/2000/svg"><g><path d="M15.852 13.615C16.1785 13.56 16.4731 13.83 16.4116 14.1553C15.4438 19.2729 8.5539 19.2902 7.58792 14.1552C7.52673 13.8299 7.82136 13.56 8.14778 13.6149C9.06489 13.7693 10.7673 14.0244 12 14.0244C13.2326 14.0244 14.9349 13.7693 15.852 13.615Z" fill="currentColor"></path><path d="M10.75 9.9C10.75 11.0046 10.0784 11.75 9.25 11.75C8.42157 11.75 7.75 11.0046 7.75 9.9C7.75 8.79543 8.42157 8 9.25 8C10.0784 8 10.75 8.79543 10.75 9.9Z" fill="currentColor"></path><path d="M16.25 9.9C16.25 11.0046 15.5784 11.75 14.75 11.75C13.9216 11.75 13.25 11.0046 13.25 9.9C13.25 8.79543 13.9216 8 14.75 8C15.5784 8 16.25 8.79543 16.25 9.9Z" fill="currentColor"></path><circle cx="12" cy="12" r="9.25" stroke="currentColor" stroke-width="1.5"></circle></g></svg>