<svg width="24px" height="24px" viewBox="0 0 24 24" fill="none" xmlns="http://www.w3.org/2000/svg"><g><circle cx="12" cy="12" r="9.25" stroke="currentColor" stroke-width="1.5"></circle><path d="M14 15.5C14 17.2259 13.1046 18 12 18C10.8954 18 10 17.2259 10 15.5C10 13.7741 10.8954 13 12 13C13.1046 13 14 13.7741 14 15.5Z" fill="currentColor"></path><ellipse cx="9.25" cy="10.5" rx="1.25" ry="1.5" fill="currentColor"></ellipse><ellipse cx="14.75" cy="10.5" rx="1.25" ry="1.5" fill="currentColor"></ellipse><path d="M9.94604 6.90072C10.2513 7.58265 9.19925 7.67809 8.35448 8.12658C7.4906 8.58521 6.82717 9.3828 6.56041 8.78772C6.00948 7.557 9.39391 5.66907 9.94604 6.90072Z" fill="currentColor"></path><path d="M14.054 6.90072C13.7487 7.58265 14.8008 7.67809 15.6455 8.12658C16.5094 8.58521 17.1728 9.3828 17.4396 8.78772C17.9905 7.557 14.6061 5.66907 14.054 6.90072Z" fill="currentColor"></path></g></svg>