<svg width="24px" height="24px" viewBox="0 0 24 24" fill="none" xmlns="http://www.w3.org/2000/svg"><g><path d="M21.25 12C21.25 17.1086 17.1086 21.25 12 21.25C6.89137 21.25 2.75 17.1086 2.75 12C2.75 6.89137 6.89137 2.75 12 2.75C17.1086 2.75 21.25 6.89137 21.25 12Z" stroke="currentColor" stroke-width="1.5"></path><path d="M9.3512 12.1294C11.249 10.6235 11.5267 9.18021 10.9644 8.29916C10.6914 7.87139 10.2309 7.61154 9.73854 7.59301C9.30505 7.5767 8.86465 7.74783 8.52071 8.12296C8.06921 7.88809 7.59683 7.8779 7.19507 8.0415C6.73873 8.22731 6.39488 8.62899 6.28465 9.12434C6.05761 10.1446 6.81225 11.4058 9.11063 12.1719C9.19284 12.1993 9.28332 12.1833 9.3512 12.1294Z" fill="currentColor"></path><path d="M14.8895 12.1719C17.1878 11.4059 17.9425 10.1446 17.7154 9.12441C17.6052 8.62906 17.2613 8.22738 16.805 8.04157C16.4032 7.87798 15.9309 7.88816 15.4794 8.12303C15.1354 7.7479 14.695 7.57677 14.2615 7.59309C13.7692 7.61162 13.3087 7.87147 13.0356 8.29924C12.4734 9.18029 12.7511 10.6236 14.6489 12.1295C14.7168 12.1834 14.8073 12.1993 14.8895 12.1719Z" fill="currentColor"></path><path d="M11.999 18C14.0206 18 15.6919 16.5003 15.9611 14.5527C16.0017 14.2591 15.7425 14.0267 15.4473 14.053C13.1381 14.2588 10.8598 14.2588 8.55062 14.053C8.25537 14.0267 7.99624 14.2591 8.03682 14.5527C8.306 16.5003 9.97734 18 11.999 18Z" fill="currentColor"></path></g></svg>