<svg width="24px" height="24px" viewBox="0 0 24 24" fill="none" xmlns="http://www.w3.org/2000/svg"><g><circle cx="12" cy="12" r="9.25" stroke="currentColor" stroke-width="1.5"></circle><path d="M10.75 9.77333C10.75 10.8043 10.0784 11.5 9.25 11.5C8.42157 11.5 7.75 10.8043 7.75 9.77333C7.75 8.7424 8.42157 8 9.25 8C10.0784 8 10.75 8.7424 10.75 9.77333Z" fill="currentColor"></path><path d="M16.25 9.77333C16.25 10.8043 15.5784 11.5 14.75 11.5C13.9216 11.5 13.25 10.8043 13.25 9.77333C13.25 8.7424 13.9216 8 14.75 8C15.5784 8 16.25 8.7424 16.25 9.77333Z" fill="currentColor"></path><path d="M16.3179 11.8088C16.1444 11.6247 15.8555 11.6247 15.682 11.8088C13.8859 13.7148 13.5535 17 16.0001 17C18.4467 17 18.114 13.7148 16.3179 11.8088Z" fill="currentColor"></path><path d="M12 14.2295C12.5778 14.2295 13.1089 14.3862 13.5322 14.6113C13.5206 14.7069 13.5121 14.8017 13.5068 14.8955C13.4876 15.2364 13.5096 15.5853 13.5898 15.9189C13.1578 15.8344 12.6038 15.7139 12 15.7139C10.6193 15.7139 9.5 16.3463 9.5 15.7295C9.50041 15.1127 10.6195 14.2295 12 14.2295Z" fill="currentColor"></path></g></svg>