<svg width="24px" height="24px" viewBox="0 0 24 24" fill="none" xmlns="http://www.w3.org/2000/svg"><g><path d="M16.5687 12.8237C16.8806 12.7186 17.2127 12.9342 17.2025 13.2632C17.0396 18.4991 9.48901 19.8481 7.54405 14.9661C7.42227 14.6604 7.66061 14.3443 7.98957 14.3364C10.9665 14.2652 13.747 13.7749 16.5687 12.8237Z" fill="currentColor"></path><path d="M7.44042 10.4685C7.6026 10.6205 7.64505 10.8612 7.54461 11.0594L7.12222 11.8931C6.92196 12.2883 7.2914 12.7117 7.69436 12.5274C8.70056 12.0674 9.6548 11.4206 10.357 10.6023C10.5383 10.391 10.4822 10.0728 10.2396 9.93621C9.29982 9.4074 8.18191 9.126 7.07905 9.03783C6.63738 9.00252 6.43502 9.5267 6.75837 9.82961L7.44042 10.4685Z" fill="currentColor"></path><path d="M15.7611 9.00122C15.6606 9.19945 15.7031 9.44018 15.8653 9.5921L16.5473 10.231C16.8707 10.5339 16.6683 11.0581 16.2266 11.0228C15.1238 10.9346 14.0059 10.6532 13.0661 10.1244C12.8235 9.98788 12.7674 9.66966 12.9487 9.45837C13.6509 8.64003 14.6051 7.99326 15.6113 7.5332C16.0143 7.34896 16.3837 7.77231 16.1835 8.16755L15.7611 9.00122Z" fill="currentColor"></path><circle cx="12" cy="12" r="9.25" stroke="currentColor" stroke-width="1.5"></circle></g></svg>