<svg width="24px" height="24px" viewBox="0 0 24 24" fill="none" xmlns="http://www.w3.org/2000/svg"><g><circle cx="12" cy="12" r="9.25" stroke="currentColor" stroke-width="1.5"></circle><path d="M11 10.52C11 11.4037 10.3284 12 9.5 12C8.67157 12 8 11.4037 8 10.52C8 9.63634 8.67157 9 9.5 9C10.3284 9 11 9.63634 11 10.52Z" fill="currentColor"></path><path d="M16 10.52C16 11.4037 15.3284 12 14.5 12C13.6716 12 13 11.4037 13 10.52C13 9.63634 13.6716 9 14.5 9C15.3284 9 16 9.63634 16 10.52Z" fill="currentColor"></path><path d="M7.19764 8.07358C7.04416 8.02866 6.87629 8.04758 6.73205 8.12295C6.58775 8.1985 6.47889 8.32432 6.42834 8.47595C6.3778 8.62759 6.3894 8.79356 6.45951 8.94058C6.52968 9.08742 6.65262 9.20328 6.80236 9.25943C6.85579 9.27944 6.90921 9.29944 6.96264 9.31945C7.92433 9.67954 8.88603 10.0396 9.84772 10.3997C9.90115 10.4197 9.95457 10.4397 10.008 10.4597C10.1944 10.5296 10.3983 10.5211 10.5762 10.432C10.7541 10.3432 10.8915 10.1811 10.9567 9.9854C11.0219 9.7897 11.0093 9.57761 10.9203 9.39982C10.8314 9.22179 10.6734 9.09263 10.4823 9.03672C10.4276 9.02066 10.3729 9.00461 10.3181 8.98856C9.3327 8.69962 8.34729 8.41068 7.36188 8.12173C7.30713 8.10568 7.25239 8.08963 7.19764 8.07358Z" fill="currentColor"></path><path d="M17.1986 9.25943C17.3484 9.20329 17.4713 9.08744 17.5415 8.9406C17.6116 8.79357 17.6232 8.62758 17.5727 8.47593C17.5221 8.32428 17.4133 8.19845 17.269 8.1229C17.1247 8.04754 16.9568 8.02863 16.8033 8.07358C16.7484 8.08968 16.6935 8.10579 16.6386 8.1219C15.6503 8.41181 14.662 8.70172 13.6736 8.99163C13.6187 9.00774 13.5638 9.02385 13.5089 9.03995C13.3179 9.09588 13.1599 9.22506 13.071 9.40309C12.982 9.58089 12.9694 9.79296 13.0346 9.98864C13.0998 10.1843 13.2371 10.3464 13.415 10.4352C13.593 10.5243 13.7969 10.5328 13.9833 10.463C14.0369 10.4429 14.0904 10.4229 14.144 10.4028C15.1086 10.0417 16.0732 9.68067 17.0379 9.31961C17.0914 9.29955 17.145 9.27949 17.1986 9.25943Z" fill="currentColor"></path><path d="M8.03457 15.9075C7.94662 16.0336 7.90396 16.1885 7.92196 16.343C7.9399 16.4974 8.01611 16.6379 8.13506 16.7347C8.25401 16.8315 8.40713 16.8775 8.56195 16.8636C8.71682 16.8498 8.8598 16.7765 8.96543 16.6648C9.05101 16.5755 9.136 16.4927 9.22574 16.4104C10.0216 15.6771 11.0075 15.247 12.0031 15.25C12.9986 15.2452 13.9839 15.6742 14.7774 16.4087C14.8669 16.491 14.9516 16.574 15.0368 16.6634C15.1422 16.7755 15.2849 16.8492 15.4398 16.8635C15.5945 16.8777 15.7478 16.8321 15.867 16.7357C15.9862 16.6393 16.0628 16.4989 16.0812 16.3446C16.0997 16.1902 16.0574 16.0352 15.9698 15.9088C15.8821 15.7845 15.7926 15.667 15.6946 15.5492C14.8393 14.4975 13.4613 13.7373 12.0019 13.75C10.5423 13.7403 9.16788 14.5002 8.3105 15.5488C8.2123 15.6663 8.12258 15.7835 8.03457 15.9075Z" fill="currentColor"></path></g></svg>