<svg width="24px" height="24px" viewBox="0 0 24 24" fill="none" xmlns="http://www.w3.org/2000/svg"><g><path d="M15.852 13.615C16.1785 13.56 16.4731 13.83 16.4116 14.1553C15.4438 19.2729 8.5539 19.2902 7.58792 14.1552C7.52673 13.8299 7.82136 13.56 8.14778 13.6149C9.06489 13.7693 10.7673 14.0244 12 14.0244C13.2326 14.0244 14.9349 13.7693 15.852 13.615Z" fill="currentColor"></path><path d="M10.75 9.9C10.75 11.0046 10.0784 11.75 9.25 11.75C8.42157 11.75 7.75 11.0046 7.75 9.9C7.75 8.79543 8.42157 8 9.25 8C10.0784 8 10.75 8.79543 10.75 9.9Z" fill="currentColor"></path><path d="M16.5 10.2461C16.5 11.5 15.6605 10.6886 14.625 10.6886C13.5895 10.6886 12.75 11.5 12.75 10.2461C12.75 9.52169 13.5895 9 14.625 9C15.6605 9 16.5 9.52169 16.5 10.2461Z" fill="currentColor"></path><circle cx="12" cy="12" r="9.25" stroke="currentColor" stroke-width="1.5"></circle></g></svg>