<svg width="24px" height="24px" viewBox="0 0 24 24" fill="none" xmlns="http://www.w3.org/2000/svg"><g><circle cx="12" cy="12" r="9.25" stroke="currentColor" stroke-width="1.5"></circle><path d="M10.75 9.9C10.75 11.0046 10.0784 11.75 9.25 11.75C8.42157 11.75 7.75 11.0046 7.75 9.9C7.75 8.79543 8.42157 8 9.25 8C10.0784 8 10.75 8.79543 10.75 9.9Z" fill="currentColor"></path><path d="M16.25 9.9C16.25 11.0046 15.5784 11.75 14.75 11.75C13.9216 11.75 13.25 11.0046 13.25 9.9C13.25 8.79543 13.9216 8 14.75 8C15.5784 8 16.25 8.79543 16.25 9.9Z" fill="currentColor"></path><path d="M7.98268 15.5632C7.87768 15.6852 7.81801 15.8423 7.82176 16.0047C7.82546 16.1672 7.89151 16.3209 8.00637 16.4332C8.12124 16.5454 8.27649 16.6079 8.43896 16.6079C8.60149 16.6079 8.75716 16.5446 8.87669 16.4368C8.96445 16.359 9.05339 16.2858 9.14562 16.2152C9.97112 15.582 10.9857 15.2496 12.0033 15.25C13.0208 15.2481 14.035 15.5792 14.8581 16.2135C14.95 16.2842 15.0387 16.3575 15.1261 16.4355C15.2453 16.5436 15.4008 16.6074 15.5633 16.6078C15.7258 16.6084 15.8812 16.5464 15.9964 16.4345C16.1116 16.3226 16.1781 16.169 16.1823 16.0066C16.1866 15.8441 16.1274 15.6868 16.0227 15.5645C15.924 15.451 15.8218 15.3429 15.7134 15.2379C14.745 14.29 13.373 13.7432 12.0022 13.75C10.6312 13.7455 9.26202 14.2933 8.29249 15.2377C8.18402 15.3423 8.08162 15.45 7.98268 15.5632Z" fill="currentColor"></path></g></svg>