<svg width="24px" height="24px" viewBox="0 0 24 24" fill="none" xmlns="http://www.w3.org/2000/svg"><g><path d="M12 6.5L12.6066 6.05887C12.4654 5.86481 12.24 5.75 12 5.75C11.76 5.75 11.5346 5.86481 11.3934 6.05887L12 6.5ZM8 12L7.39345 11.5589C7.20218 11.8219 7.20218 12.1781 7.39345 12.4411L8 12ZM12 17.5L11.3934 17.9411C11.5346 18.1352 11.76 18.25 12 18.25C12.24 18.25 12.4654 18.1352 12.6066 17.9411L12 17.5ZM16 12L16.6066 12.4411C16.7978 12.1781 16.7978 11.8219 16.6066 11.5589L16 12ZM12 13.5L11.7367 14.2022C11.9064 14.2659 12.0936 14.2659 12.2633 14.2022L12 13.5ZM11.3934 6.05887L7.39345 11.5589L8.60655 12.4411L12.6066 6.94113L11.3934 6.05887ZM7.39345 12.4411L11.3934 17.9411L12.6066 17.0589L8.60655 11.5589L7.39345 12.4411ZM12.6066 17.9411L16.6066 12.4411L15.3934 11.5589L11.3934 17.0589L12.6066 17.9411ZM16.6066 11.5589L12.6066 6.05887L11.3934 6.94113L15.3934 12.4411L16.6066 11.5589ZM7.73666 12.7022L11.7367 14.2022L12.2633 12.7978L8.26334 11.2978L7.73666 12.7022ZM12.2633 14.2022L16.2633 12.7022L15.7367 11.2978L11.7367 12.7978L12.2633 14.2022ZM20.5 12C20.5 16.6944 16.6944 20.5 12 20.5V22C17.5228 22 22 17.5228 22 12H20.5ZM12 20.5C7.30558 20.5 3.5 16.6944 3.5 12H2C2 17.5228 6.47715 22 12 22V20.5ZM3.5 12C3.5 7.30558 7.30558 3.5 12 3.5V2C6.47715 2 2 6.47715 2 12H3.5ZM12 3.5C16.6944 3.5 20.5 7.30558 20.5 12H22C22 6.47715 17.5228 2 12 2V3.5Z" fill="currentColor"></path></g></svg>