<svg width="24px" height="24px" viewBox="0 0 24 24" fill="none" xmlns="http://www.w3.org/2000/svg"><g><path d="M3.75 10.25V5.75C3.75 4.64543 4.64543 3.75 5.75 3.75H19.25C20.3546 3.75 21.25 4.64543 21.25 5.75V13.25C21.25 14.3546 20.3546 15.25 19.25 15.25H14.75M17.25 7.75V10.75M17.25 7.75H14.25M17.25 7.75L14 11M9.25 21.25H4.75C3.64543 21.25 2.75 20.3546 2.75 19.25V15.75C2.75 14.6454 3.64543 13.75 4.75 13.75H9.25C10.3546 13.75 11.25 14.6454 11.25 15.75V19.25C11.25 20.3546 10.3546 21.25 9.25 21.25Z" stroke="currentColor" stroke-width="1.5" stroke-linecap="round" stroke-linejoin="round"></path></g></svg>