<svg width="24px" height="24px" viewBox="0 0 24 24" fill="none" xmlns="http://www.w3.org/2000/svg"><g><path d="M12 2.75L13.3487 5.36775C13.7961 6.23625 14.8055 6.65437 15.7361 6.35664L18.5407 5.45926L17.6434 8.26394C17.3456 9.19446 17.7638 10.2039 18.6322 10.6513L21.25 12L18.9007 13.2104C17.9206 13.7153 17.534 14.9181 18.0363 15.8995L20.2763 20.2763L15.8995 18.0363C14.9181 17.534 13.7153 17.9206 13.2104 18.9007L12 21.25L10.6513 18.6322C10.2039 17.7638 9.19446 17.3456 8.26394 17.6434L5.45926 18.5407L6.35664 15.7361C6.65437 14.8055 6.23625 13.7961 5.36775 13.3487L2.75 12L5.09934 10.7896C6.07938 10.2847 6.46601 9.08192 5.96373 8.10052L3.72368 3.72368L8.10052 5.96373C9.08192 6.46601 10.2847 6.07938 10.7896 5.09934L12 2.75Z" stroke="currentColor" stroke-width="1.5" stroke-linejoin="round"></path></g></svg>