<svg width="24px" height="24px" viewBox="0 0 24 24" fill="none" xmlns="http://www.w3.org/2000/svg"><g><path d="M12 13.5V21.25M12 20.3928C12 17.5525 14.3025 15.25 17.1429 15.25C17.4136 15.25 17.6794 15.2709 17.9388 15.3112C17.9791 15.5706 18 15.8364 18 16.1071C18 18.9475 15.6975 21.25 12.8571 21.25C12.5864 21.25 12.3206 21.2291 12.0612 21.1888C12.0209 20.9294 12 20.6636 12 20.3928ZM12 20.3928C12 17.5525 9.69746 15.25 6.85714 15.25C6.58644 15.25 6.32062 15.2709 6.06122 15.3112C6.02091 15.5706 6 15.8364 6 16.1071C6 18.9475 8.30254 21.25 11.1429 21.25C11.4136 21.25 11.6794 21.2291 11.9388 21.1888C11.9791 20.9294 12 20.6636 12 20.3928ZM14.0004 3.85033L12.937 2.99963C12.3892 2.56136 11.6108 2.56136 11.063 2.99963L9.99958 3.85033C9.61357 4.15913 9.09133 4.23652 8.63236 4.05294L7.52632 3.61052C7.15448 3.46178 6.75 3.73563 6.75 4.13611V7.99999C6.75 10.8995 9.10051 13.25 12 13.25C14.8995 13.25 17.25 10.8995 17.25 7.99999V4.13611C17.25 3.73563 16.8455 3.46178 16.4737 3.61052L15.3676 4.05294C14.9087 4.23652 14.3864 4.15913 14.0004 3.85033Z" stroke="currentColor" stroke-width="1.5" stroke-linecap="round" stroke-linejoin="round"></path></g></svg>