<svg width="24px" height="24px" viewBox="0 0 24 24" fill="none" xmlns="http://www.w3.org/2000/svg"><g><g clip-path="url(#clip0_7101_62915)"><path d="M9.38281 5.13889C13.5856 3.87389 18.1964 5.69502 21.2246 10.6022C21.4848 11.0238 21.6148 11.2346 21.6883 11.5612C21.7426 11.8029 21.7427 12.1969 21.6883 12.4386C21.6149 12.7652 21.4851 12.9757 21.2254 13.3966C20.7546 14.1596 20.2456 14.848 19.7058 15.4619" stroke="currentColor" stroke-width="1.5" stroke-linecap="round" stroke-linejoin="round"></path><path d="M2.75 2.75L21.25 21.25" stroke="currentColor" stroke-width="1.5" stroke-linecap="round" stroke-linejoin="round"></path><path d="M6.27936 6.70837C5.45418 7.31439 4.67072 8.06105 3.94835 8.94836C3.53646 9.4543 3.14443 10.006 2.77586 10.6034C2.51618 11.0243 2.38635 11.2347 2.31293 11.5613C2.2586 11.803 2.25861 12.197 2.31296 12.4387C2.38639 12.7653 2.5164 12.976 2.77642 13.3974C5.66142 18.0728 9.98304 19.9469 14.0198 19.0198C15.0936 18.7731 16.1472 18.3283 17.1483 17.6852" stroke="currentColor" stroke-width="1.5" stroke-linecap="round" stroke-linejoin="round"></path><path d="M4.19946 9.1994L13.6938 18.6938" stroke="currentColor" stroke-width="1.5" stroke-linecap="round" stroke-linejoin="round"></path><path d="M10 9.43784C11.2752 8.43983 13.124 8.52785 14.2981 9.7019C15.4721 10.876 15.5602 12.7248 14.5622 14" stroke="currentColor" stroke-width="1.5" stroke-linecap="round" stroke-linejoin="round"></path></g><defs><clipPath id="clip0_7101_62915"><rect width="24" height="24" fill="white"></rect></clipPath></defs></g></svg>