<svg width="24px" height="24px" viewBox="0 0 24 24" fill="none" xmlns="http://www.w3.org/2000/svg"><g><path d="M21.5297 11.1188C16.6909 2.62714 7.30914 2.62704 2.47028 11.1187C2.15895 11.665 2.15895 12.3348 2.47028 12.8811C7.30914 21.3728 16.6909 21.3729 21.5297 12.8812C21.8411 12.3349 21.8411 11.6652 21.5297 11.1188Z" stroke="currentColor" stroke-width="1.5" stroke-linecap="round" stroke-linejoin="round"></path><path d="M13.2405 10.1852L12.5436 8.37334C12.4571 8.14842 12.241 8 12 8C11.759 8 11.5429 8.14842 11.4564 8.37334L10.7595 10.1852C10.658 10.4493 10.4493 10.658 10.1852 10.7595L8.37334 11.4564C8.14842 11.5429 8 11.759 8 12C8 12.241 8.14842 12.4571 8.37334 12.5436L10.1852 13.2405C10.4493 13.342 10.658 13.5507 10.7595 13.8148L11.4564 15.6267C11.5429 15.8516 11.759 16 12 16C12.241 16 12.4571 15.8516 12.5436 15.6267L13.2405 13.8148C13.342 13.5507 13.5507 13.342 13.8148 13.2405L15.6267 12.5436C15.8516 12.4571 16 12.241 16 12C16 11.759 15.8516 11.5429 15.6267 11.4564L13.8148 10.7595C13.5507 10.658 13.342 10.4493 13.2405 10.1852Z" fill="currentColor"></path></g></svg>