<svg width="24px" height="24px" viewBox="0 0 24 24" fill="none" xmlns="http://www.w3.org/2000/svg"><g><path d="M9.38159 5.13889C13.5844 3.87389 18.1952 5.69502 21.2234 10.6022C21.4836 11.0238 21.6136 11.2346 21.6871 11.5612C21.7414 11.8029 21.7414 12.1969 21.6871 12.4386C21.6137 12.7652 21.4839 12.9757 21.2242 13.3966C20.7534 14.1596 20.2444 14.848 19.7046 15.4619" stroke="currentColor" stroke-width="1.5" stroke-linecap="round" stroke-linejoin="round"></path><path d="M9.5 9.92322C9.03166 10.4864 8.75 11.2103 8.75 12C8.75 13.7949 10.2051 15.25 12 15.25C12.8035 15.25 13.5389 14.9584 14.1061 14.4753" stroke="currentColor" stroke-width="1.5" stroke-linecap="round" stroke-linejoin="round"></path><path d="M6.22301 6.75C4.94909 7.69766 3.77614 8.98208 2.7759 10.6033C2.51619 11.0242 2.38634 11.2347 2.31292 11.5613C2.25859 11.803 2.25861 12.197 2.31296 12.4387C2.3864 12.7653 2.51649 12.9761 2.77667 13.3977C6.43137 19.3202 12.3913 20.7475 17.1571 17.6795" stroke="currentColor" stroke-width="1.5" stroke-linecap="round" stroke-linejoin="round"></path><path d="M2.75 2.75L21.25 21.25" stroke="currentColor" stroke-width="1.5" stroke-linecap="round" stroke-linejoin="round"></path></g></svg>