<svg width="24px" height="24px" viewBox="0 0 24 24" fill="none" xmlns="http://www.w3.org/2000/svg"><g><path d="M8.25 3.75H5.75C4.64543 3.75 3.75 4.64543 3.75 5.75V8.25M3.75 15.75V18.25C3.75 19.3546 4.64543 20.25 5.75 20.25H8.25M15.75 3.75H18.25C19.3546 3.75 20.25 4.64543 20.25 5.75V8.25M20.25 15.75V18.25C20.25 19.3546 19.3546 20.25 18.25 20.25H15.75M12.25 8.75V11C12.25 12.0199 11.4866 12.8615 10.5 12.9845M7.75 8.75V10.25M16.25 8.75V10.25M9 15.6973C9.88252 16.2078 10.9071 16.5 12 16.5C13.0929 16.5 14.1175 16.2078 15 15.6973" stroke="currentColor" stroke-width="1.5" stroke-linecap="round" stroke-linejoin="round"></path></g></svg>