<svg width="24px" height="24px" viewBox="0 0 24 24" fill="none" xmlns="http://www.w3.org/2000/svg"><g><path d="M21.4455 9.51926L21.6535 8.93377C21.9943 7.97477 21.5605 6.91278 20.6458 6.46657L15.0768 3.75C14.075 7.01444 9.92869 7.01444 8.92685 3.75L3.35787 6.46657C2.44315 6.91278 2.00939 7.97477 2.35016 8.93377L2.55821 9.51926C2.95121 10.6252 4.20765 11.1566 5.27493 10.6682L5.75185 10.45V18.25C5.75185 19.3546 6.64728 20.25 7.75185 20.25H16.2518C17.3564 20.25 18.2518 19.3546 18.2518 18.25V10.45L18.7288 10.6682C19.796 11.1566 21.0525 10.6252 21.4455 9.51926Z" stroke="currentColor" stroke-width="1.5" stroke-linecap="square" stroke-linejoin="round"></path></g></svg>