<svg width="24px" height="24px" viewBox="0 0 24 24" fill="none" xmlns="http://www.w3.org/2000/svg"><g><path d="M14.25 16.75C14.25 18.1307 15.3693 19.25 16.75 19.25C18.1307 19.25 19.25 18.1307 19.25 16.75C19.25 15.3693 18.1307 14.25 16.75 14.25C15.3693 14.25 14.25 15.3693 14.25 16.75Z" stroke="currentColor" stroke-width="1.5" stroke-linecap="round" stroke-linejoin="round"></path><path d="M4.75 16.75C4.75 18.1307 5.86929 19.25 7.25 19.25C8.63071 19.25 9.75 18.1307 9.75 16.75C9.75 15.3693 8.63071 14.25 7.25 14.25C5.86929 14.25 4.75 15.3693 4.75 16.75Z" stroke="currentColor" stroke-width="1.5" stroke-linecap="round" stroke-linejoin="round"></path><path d="M14.0001 16.25H10" stroke="currentColor" stroke-width="1.5" stroke-linecap="round" stroke-linejoin="round"></path><path d="M19.2857 16.25H19.4757C20.4881 16.25 21.3408 15.4935 21.4614 14.4883L21.9096 10.7531C21.9679 10.2679 21.8464 9.77816 21.5683 9.37638L20.3465 7.61158C19.9729 7.07198 19.3584 6.75 18.7021 6.75H16.25" stroke="currentColor" stroke-width="1.5" stroke-linecap="round" stroke-linejoin="round"></path><path d="M4.64394 16.25C3.62993 16.25 2.83761 15.3744 2.93857 14.3655L3 13.7516M15.25 14.5L16.0239 6.95406C16.1449 5.77497 15.2196 4.75 14.0344 4.75H5.58363C4.54622 4.75 3.68102 5.54323 3.59115 6.57674L3.48913 7.75H8.24611M2.75019 10.75H6.25019" stroke="currentColor" stroke-width="1.5" stroke-linecap="round" stroke-linejoin="round"></path></g></svg>