<svg width="24px" height="24px" viewBox="0 0 24 24" fill="none" xmlns="http://www.w3.org/2000/svg"><g><path d="M9.75 2.75H14.4216C14.952 2.75 15.4607 2.96071 15.8358 3.33579L19.6642 7.16421C20.0393 7.53929 20.25 8.04799 20.25 8.57843V16.25C20.25 17.3546 19.3546 18.25 18.25 18.25H9.75C8.64543 18.25 7.75 17.3546 7.75 16.25V4.75C7.75 3.64543 8.64543 2.75 9.75 2.75Z" stroke="currentColor" stroke-width="1.5" stroke-linecap="round" stroke-linejoin="round"></path><path d="M17.25 18.25V19.25C17.25 20.3546 16.3546 21.25 15.25 21.25H6.75C5.64543 21.25 4.75 20.3546 4.75 19.25V7.75C4.75 6.64543 5.64543 5.75 6.75 5.75H7.75" stroke="currentColor" stroke-width="1.5" stroke-linecap="round" stroke-linejoin="round"></path><path d="M15.25 2.75V5.75C15.25 6.85457 16.1454 7.75 17.25 7.75H20.25" stroke="currentColor" stroke-width="1.5" stroke-linecap="round" stroke-linejoin="round"></path></g></svg>