<svg width="24px" height="24px" viewBox="0 0 24 24" fill="none" xmlns="http://www.w3.org/2000/svg"><g><path d="M4.75 11.75V4.75C4.75 3.64543 5.64543 2.75 6.75 2.75H11.9216C12.452 2.75 12.9607 2.96071 13.3358 3.33579L18.6642 8.66421C19.0393 9.03929 19.25 9.54799 19.25 10.0784V19.25C19.25 20.3546 18.3546 21.25 17.25 21.25H11.25" stroke="currentColor" stroke-width="1.5" stroke-linecap="round" stroke-linejoin="round"></path><path d="M12.75 3.25V7.25C12.75 8.35457 13.6454 9.25 14.75 9.25H18.75" stroke="currentColor" stroke-width="1.5" stroke-linejoin="round"></path><path d="M7.24045 16.1852L6.54359 14.3733C6.45708 14.1484 6.24099 14 6 14C5.75901 14 5.54292 14.1484 5.45641 14.3733L4.75955 16.1852C4.65797 16.4493 4.44927 16.658 4.18518 16.7595L2.37334 17.4564C2.14842 17.5429 2 17.759 2 18C2 18.241 2.14842 18.4571 2.37334 18.5436L4.18518 19.2405C4.44927 19.342 4.65797 19.5507 4.75955 19.8148L5.45641 21.6267C5.54292 21.8516 5.75901 22 6 22C6.24099 22 6.45708 21.8516 6.54359 21.6267L7.24045 19.8148C7.34203 19.5507 7.55073 19.342 7.81482 19.2405L9.62666 18.5436C9.85158 18.4571 10 18.241 10 18C10 17.759 9.85158 17.5429 9.62666 17.4564L7.81482 16.7595C7.55073 16.658 7.34203 16.4493 7.24045 16.1852Z" fill="currentColor"></path></g></svg>