<svg width="24px" height="24px" viewBox="0 0 24 24" fill="none" xmlns="http://www.w3.org/2000/svg"><g><path d="M4.75 11.25V5.75C4.75 4.64543 5.64543 3.75 6.75 3.75H14.1716C14.702 3.75 15.2107 3.96071 15.5858 4.33579L18.6642 7.41421C19.0393 7.78929 19.25 8.29799 19.25 8.82843V11.25" stroke="currentColor" stroke-width="1.5" stroke-linecap="round" stroke-linejoin="round"></path><path d="M3.75 20.25V14.75H5.5C6.32843 14.75 7 15.4216 7 16.25C7 17.0784 6.32843 17.75 5.5 17.75H4.5" stroke="currentColor" stroke-width="1.5" stroke-linecap="round" stroke-linejoin="round"></path><path d="M9.5 20.25V14.75H10L13.25 20.25H13.75V14.75" stroke="currentColor" stroke-width="1.5" stroke-linecap="round" stroke-linejoin="round"></path><path d="M19.697 15.2215C19.32 14.8448 18.6513 14.7533 18.2519 14.7782C17.1472 14.8473 16.1562 15.9981 16.1562 17.5608C16.1562 19.1236 17.0982 20.2499 18.401 20.2499C19.0468 20.2418 19.8074 20.0485 20.2509 19.5537V17.8333H19.197" stroke="currentColor" stroke-width="1.5" stroke-linecap="round" stroke-linejoin="round"></path><path d="M13.75 4.25V7.25C13.75 8.35457 14.6454 9.25 15.75 9.25H18.75" stroke="currentColor" stroke-width="1.5" stroke-linecap="round" stroke-linejoin="round"></path></g></svg>