<svg width="24px" height="24px" viewBox="0 0 24 24" fill="none" xmlns="http://www.w3.org/2000/svg"><g><path d="M13.25 2.75H6.75C5.64543 2.75 4.75 3.64543 4.75 4.75V19.25C4.75 20.3546 5.64543 21.25 6.75 21.25H17.25C18.3546 21.25 19.25 20.3546 19.25 19.25V8.75M13.25 2.75V6.75C13.25 7.85457 14.1454 8.75 15.25 8.75H19.25M13.25 2.75C13.5701 2.75 13.8772 2.87718 14.1036 3.10355L18.8964 7.89645C19.1228 8.12282 19.25 8.42986 19.25 8.75M8.75 19V17.5M10.25 17.5V16M8.75 16V14.5M10.25 20.5V19M10.25 14.5V13M8.75 13V11.5" stroke="currentColor" stroke-width="1.5"></path></g></svg>