<svg width="24px" height="24px" viewBox="0 0 24 24" fill="none" xmlns="http://www.w3.org/2000/svg"><g><path d="M3.75 17.75C3.75 17.1977 4.19772 16.75 4.75 16.75H9.25C9.80228 16.75 10.25 17.1977 10.25 17.75V20.25C10.25 20.8023 9.80228 21.25 9.25 21.25H4.75C4.19772 21.25 3.75 20.8023 3.75 20.25V17.75Z" stroke="currentColor" stroke-width="1.5" stroke-linecap="square"></path><path d="M4.75 16C4.75 14.7574 5.75736 13.75 7 13.75C8.24264 13.75 9.25 14.7574 9.25 16C9.25 16.4142 8.91421 16.75 8.5 16.75H5.5C5.08579 16.75 4.75 16.4142 4.75 16Z" stroke="currentColor" stroke-width="1.5" stroke-linecap="square"></path><path d="M4.75 10.75V4.75C4.75 3.64543 5.64543 2.75 6.75 2.75H11.9216C12.452 2.75 12.9607 2.96071 13.3358 3.33579L18.6642 8.66421C19.0393 9.03929 19.25 9.54799 19.25 10.0784V19.25C19.25 20.3546 18.3546 21.25 17.25 21.25H13.25" stroke="currentColor" stroke-width="1.5" stroke-linecap="round"></path><path d="M12.75 3.25V7.25C12.75 8.35457 13.6454 9.25 14.75 9.25H18.75" stroke="currentColor" stroke-width="1.5"></path></g></svg>