<svg width="24px" height="24px" viewBox="0 0 24 24" fill="none" xmlns="http://www.w3.org/2000/svg"><g><path d="M4.75 11.25V5.75C4.75 4.64543 5.64543 3.75 6.75 3.75H14.1716C14.702 3.75 15.2107 3.96071 15.5858 4.33579L18.6642 7.41421C19.0393 7.78929 19.25 8.29799 19.25 8.82843V11.25M13.75 4.25V7.25C13.75 8.35457 14.6454 9.25 15.75 9.25H18.75" stroke="currentColor" stroke-width="1.5" stroke-linecap="round" stroke-linejoin="round"></path><path fill-rule="evenodd" clip-rule="evenodd" d="M6.5 14C6.91421 14 7.25 14.3358 7.25 14.75V18.75C7.25 19.9926 6.24264 21 5 21H4.5C4.08579 21 3.75 20.6642 3.75 20.25C3.75 19.8358 4.08579 19.5 4.5 19.5H5C5.41421 19.5 5.75 19.1642 5.75 18.75V14.75C5.75 14.3358 6.08579 14 6.5 14Z" fill="currentColor"></path><path fill-rule="evenodd" clip-rule="evenodd" d="M8.75 14.75C8.75 14.3358 9.08579 14 9.5 14H11.25C12.4926 14 13.5 15.0074 13.5 16.25C13.5 17.4926 12.4926 18.5 11.25 18.5H10.25V20.25C10.25 20.6642 9.91421 21 9.5 21C9.08579 21 8.75 20.6642 8.75 20.25V14.75ZM10.25 17H11.25C11.6642 17 12 16.6642 12 16.25C12 15.8358 11.6642 15.5 11.25 15.5H10.25V17Z" fill="currentColor"></path><path fill-rule="evenodd" clip-rule="evenodd" d="M17.7537 15.5238C17.5581 15.4754 17.3575 15.4639 17.2209 15.4722C16.5734 15.5118 15.75 16.246 15.75 17.5492C15.75 18.8352 16.4961 19.5273 17.3256 19.5297C17.784 19.5234 18.2137 19.412 18.5 19.2285V18.5758H18.1561C17.7419 18.5758 17.4061 18.24 17.4061 17.8258C17.4061 17.4116 17.7419 17.0758 18.1561 17.0758H19.25C19.6642 17.0758 20 17.4116 20 17.8258V19.5728C20 19.7604 19.9297 19.9411 19.803 20.0794C19.1384 20.8049 18.0966 21.0204 17.3391 21.0297L17.3299 21.0298V21.0297C15.4566 21.0297 14.25 19.4347 14.25 17.5492C14.25 15.6785 15.4836 14.0756 17.1294 13.975C17.4074 13.958 17.7611 13.9803 18.114 14.0677C18.4605 14.1534 18.8732 14.3185 19.1993 14.6373C19.4955 14.9268 19.501 15.4017 19.2115 15.6979C18.9219 15.9941 18.4471 15.9995 18.1509 15.71C18.0857 15.6464 17.9557 15.5738 17.7537 15.5238Z" fill="currentColor"></path></g></svg>