<svg width="24px" height="24px" viewBox="0 0 24 24" fill="none" xmlns="http://www.w3.org/2000/svg"><g><path d="M4.75 8.75V4.75C4.75 3.64543 5.64543 2.75 6.75 2.75H11.9216C12.452 2.75 12.9607 2.96071 13.3358 3.33579L18.6642 8.66421C19.0393 9.03929 19.25 9.54799 19.25 10.0784V19.25C19.25 20.3546 18.3546 21.25 17.25 21.25H11.75" stroke="currentColor" stroke-width="1.5" stroke-linecap="round" stroke-linejoin="round"></path><path d="M12.75 3.25V7.25C12.75 8.35457 13.6454 9.25 14.75 9.25H18.75" stroke="currentColor" stroke-width="1.5" stroke-linejoin="round"></path><path d="M2.75 18C2.75 19.7949 4.20507 21.25 6 21.25C7.79493 21.25 9.25 19.7949 9.25 18" stroke="currentColor" stroke-width="1.5" stroke-linecap="round" stroke-linejoin="round"></path><path d="M9.25 15C9.25 13.2051 7.79493 11.75 6 11.75C4.20507 11.75 2.75 13.2051 2.75 15" stroke="currentColor" stroke-width="1.5" stroke-linecap="round" stroke-linejoin="round"></path><path d="M6 15.75V17.25" stroke="currentColor" stroke-width="1.5" stroke-linecap="round" stroke-linejoin="round"></path></g></svg>