<svg width="24px" height="24px" viewBox="0 0 24 24" fill="none" xmlns="http://www.w3.org/2000/svg"><g><path d="M12 10.85V13.25M10.1782 7.28097C10.7278 7.01211 11.3462 6.86111 12 6.86111C14.2828 6.86111 16.1333 8.70172 16.1333 10.9722V13.0278C16.1333 13.0857 16.1321 13.1433 16.1297 13.2006M7.87025 10.7994C7.86787 10.8567 7.86667 10.9143 7.86667 10.9722V13.0278C7.86667 15.2983 9.71722 17.1389 12 17.1389C12.6538 17.1389 13.2722 16.9879 13.8218 16.719M13.1548 2.83499C12.778 2.77901 12.3924 2.75 12 2.75C7.71979 2.75 4.25 6.20114 4.25 10.4583V11.272M16.9379 4.51694C18.6556 5.93082 19.75 8.06746 19.75 10.4583V13.5417C19.75 14.7887 19.4523 15.9665 18.9237 17.0088M16.1148 20.075C14.9224 20.8195 13.5118 21.25 12 21.25C8.36629 21.25 5.31667 18.7627 4.47832 15.4064" stroke="currentColor" stroke-width="1.5" stroke-linecap="round" stroke-linejoin="round"></path></g></svg>