<svg width="24px" height="24px" viewBox="0 0 24 24" fill="none" xmlns="http://www.w3.org/2000/svg"><g><path d="M19.75 13.0005C19.75 17.5005 16.2802 21.2505 12 21.2505C7.71979 21.2505 4.25 17.5005 4.25 13.0005C4.25 11.1619 5.06028 8.71804 6.68083 6.75527C7.03099 6.33117 7.66693 6.33535 8.05707 6.72298C8.49654 7.15961 9.22547 7.09791 9.58196 6.59127L11.9942 3.16301C12.2906 2.74183 12.853 2.6164 13.2786 2.90627C15.1368 4.17163 19.75 7.83347 19.75 13.0005Z" stroke="currentColor" stroke-width="1.5" stroke-linejoin="round"></path><path d="M15 17.8262C15 19.7174 13.6569 21.2506 12 21.2506C10.3431 21.2506 9 19.7174 9 17.8262C9 15.743 10.6631 14.2253 11.5128 13.5859C11.8047 13.3662 12.1953 13.3662 12.4872 13.5859C13.3369 14.2253 15 15.743 15 17.8262Z" stroke="currentColor" stroke-width="1.5" stroke-linejoin="round"></path></g></svg>