<svg width="24px" height="24px" viewBox="0 0 24 24" fill="none" xmlns="http://www.w3.org/2000/svg"><g><path d="M5.75 9.25H10C11.1046 9.25 12 8.35457 12 7.25M5.75 9.25C4.64543 9.25 3.75 8.35457 3.75 7.25V5.75C3.75 4.64543 4.64543 3.75 5.75 3.75H10C11.1046 3.75 12 4.64543 12 5.75M5.75 9.25C6.85457 9.25 7.75 10.1454 7.75 11.25M5.75 9.25C4.64543 9.25 3.75 10.1454 3.75 11.25V12.75C3.75 13.8546 4.64543 14.75 5.75 14.75M12 7.25V5.75M12 7.25C12 8.35457 12.8954 9.25 14 9.25H18.25M12 5.75C12 4.64543 12.8954 3.75 14 3.75H18.25C19.3546 3.75 20.25 4.64543 20.25 5.75V7.25C20.25 8.35457 19.3546 9.25 18.25 9.25M18.25 9.25C19.3546 9.25 20.25 10.1454 20.25 11.25V12.75C20.25 13.8546 19.3546 14.75 18.25 14.75M18.25 9.25C17.1454 9.25 16.25 10.1454 16.25 11.25M12 18.25V16.75M12 18.25C12 19.3546 11.1046 20.25 10 20.25H5.75C4.64543 20.25 3.75 19.3546 3.75 18.25V16.75C3.75 15.6454 4.64543 14.75 5.75 14.75M12 18.25C12 19.3546 12.8954 20.25 14 20.25H18.25C19.3546 20.25 20.25 19.3546 20.25 18.25V16.75C20.25 15.6454 19.3546 14.75 18.25 14.75M12 16.75C12 15.6454 11.1046 14.75 10 14.75H5.75M12 16.75C12 15.6454 12.8954 14.75 14 14.75H18.25M5.75 14.75C6.85457 14.75 7.75 13.8546 7.75 12.75M18.25 14.75C17.1454 14.75 16.25 13.8546 16.25 12.75M7.75 12.75V11.25M7.75 12.75C7.75 13.8546 8.64543 14.75 9.75 14.75H14.25C15.3546 14.75 16.25 13.8546 16.25 12.75M7.75 11.25C7.75 10.1454 8.64543 9.25 9.75 9.25H14.25C15.3546 9.25 16.25 10.1454 16.25 11.25M16.25 12.75V11.25" stroke="currentColor" stroke-width="1.5" stroke-linejoin="round"></path></g></svg>