<svg width="24px" height="24px" viewBox="0 0 24 24" fill="none" xmlns="http://www.w3.org/2000/svg"><g><path d="M14.25 19.25V12C14.25 10.2051 12.7949 8.75 11 8.75C9.20507 8.75 7.75 10.2051 7.75 12V19.25C7.75 20.3546 8.64543 21.25 9.75 21.25H12.25C13.3546 21.25 14.25 20.3546 14.25 19.25Z" stroke="currentColor" stroke-width="1.5" stroke-linecap="round" stroke-linejoin="round"></path><path d="M11 8.5V4.25C11 3.2835 10.2165 2.5 9.25 2.5C8.2835 2.5 7.5 3.2835 7.5 4.25C7.5 5.2165 8.2835 6 9.25 6H10.625" stroke="currentColor" stroke-width="1.5" stroke-linecap="round" stroke-linejoin="round"></path><path d="M13.9971 6H10.022C7.4281 6 5.21794 7.78728 4.625 10.2456" stroke="currentColor" stroke-width="1.5" stroke-linecap="round" stroke-linejoin="round"></path><path d="M20.25 6.99501V4.9798C20.25 4.34549 19.667 3.87145 19.046 4.00082L15.046 4.83416C14.5823 4.93077 14.25 5.33946 14.25 5.81314V6.07867C14.25 6.54492 14.5722 6.9493 15.0267 7.05342L19.0267 7.96976C19.6529 8.11321 20.25 7.63744 20.25 6.99501Z" stroke="currentColor" stroke-width="1.5" stroke-linejoin="round"></path></g></svg>