<svg width="24px" height="24px" viewBox="0 0 24 24" fill="none" xmlns="http://www.w3.org/2000/svg"><g><path d="M1.75 19.25H7.38937C9.0107 19.25 10.3657 18.0161 10.517 16.4019L10.6788 14.676C10.8511 12.8379 9.40511 11.25 7.559 11.25C7.20977 11.25 6.88364 11.0755 6.68992 10.7849L6.43226 10.3984C6.16221 9.99331 5.70757 9.75 5.22073 9.75C4.6329 9.75 4.10273 10.1034 3.87664 10.6461L3.48077 11.5962C3.18964 12.2949 2.50694 12.75 1.75 12.75M22.1928 19.25H16.5534C14.9321 19.25 13.5771 18.0161 13.4258 16.4019L13.264 14.676C13.0916 12.8379 14.5377 11.25 16.3838 11.25C16.733 11.25 17.0591 11.0755 17.2528 10.7849L17.5105 10.3984C17.7806 9.99331 18.2352 9.75 18.722 9.75C19.3099 9.75 19.84 10.1034 20.0661 10.6461L20.462 11.5962C20.7531 12.2949 21.4358 12.75 22.1928 12.75M12.0007 3.75V6.25M6.69141 5.68008L8.29838 7.59519M17.2981 5.68018L15.6911 7.59529" stroke="currentColor" stroke-width="1.5" stroke-linecap="round" stroke-linejoin="round"></path></g></svg>