<svg width="24px" height="24px" viewBox="0 0 24 24" fill="none" xmlns="http://www.w3.org/2000/svg"><g><path d="M10.625 7.17745L10.855 4.98904C10.9705 3.89053 11.9546 3.0936 13.0531 3.20906L19.0202 3.83623C20.1188 3.95169 20.9157 4.93581 20.8002 6.03433L19.8595 14.985C19.744 16.0835 18.7599 16.8805 17.6614 16.765L14.0021 16.3804" stroke="currentColor" stroke-width="1.5" stroke-linecap="round" stroke-linejoin="round"></path><path d="M3.16218 10.0343C3.04672 8.93581 3.84365 7.95169 4.94217 7.83623L10.9093 7.20906C12.0078 7.0936 12.9919 7.89053 13.1074 8.98904L14.0482 17.9397C14.1636 19.0383 13.3667 20.0224 12.2682 20.1378L6.30104 20.765C5.20252 20.8805 4.2184 20.0835 4.10294 18.985L3.16218 10.0343Z" stroke="currentColor" stroke-width="1.5" stroke-linecap="round" stroke-linejoin="round"></path></g></svg>