<svg width="24px" height="24px" viewBox="0 0 24 24" fill="none" xmlns="http://www.w3.org/2000/svg"><g><path d="M3.75 5.75C3.75 4.64543 4.64543 3.75 5.75 3.75H16.4216C16.952 3.75 17.4607 3.96071 17.8358 4.33579L19.6642 6.16421C20.0393 6.53929 20.25 7.04799 20.25 7.57843V18.25C20.25 19.3546 19.3546 20.25 18.25 20.25H5.75C4.64543 20.25 3.75 19.3546 3.75 18.25V5.75Z" stroke="currentColor" stroke-width="1.5" stroke-linecap="round" stroke-linejoin="round"></path><path d="M15.25 14.25C15.25 16.0449 13.7949 17.5 12 17.5C10.2051 17.5 8.75 16.0449 8.75 14.25C8.75 12.4551 10.2051 11 12 11C13.7949 11 15.25 12.4551 15.25 14.25Z" stroke="currentColor" stroke-width="1.5" stroke-linecap="round" stroke-linejoin="round"></path><path d="M8.75 4V7.25C8.75 7.80228 9.19772 8.25 9.75 8.25H14.25C14.8023 8.25 15.25 7.80228 15.25 7.25V4" stroke="currentColor" stroke-width="1.5" stroke-linecap="round" stroke-linejoin="round"></path></g></svg>