<svg width="24px" height="24px" viewBox="0 0 24 24" fill="none" xmlns="http://www.w3.org/2000/svg"><g><path d="M3.75 5.75C3.75 4.64543 4.64543 3.75 5.75 3.75H16.4216C16.952 3.75 17.4607 3.96071 17.8358 4.33579L19.6642 6.16421C20.0393 6.53929 20.25 7.04799 20.25 7.57843V18.25C20.25 19.3546 19.3546 20.25 18.25 20.25H5.75C4.64543 20.25 3.75 19.3546 3.75 18.25V5.75Z" stroke="currentColor" stroke-width="1.5" stroke-linecap="round" stroke-linejoin="round"></path><path d="M7.75 19.25V13.75C7.75 13.1977 8.19772 12.75 8.75 12.75H15.25C15.8023 12.75 16.25 13.1977 16.25 13.75V19.25C16.25 19.8023 15.8023 20.25 15.25 20.25H8.75C8.19772 20.25 7.75 19.8023 7.75 19.25Z" stroke="currentColor" stroke-width="1.5" stroke-linecap="round" stroke-linejoin="round"></path><path d="M7.75 3.75V7.25C7.75 7.80228 8.19772 8.25 8.75 8.25H15.25C15.8023 8.25 16.25 7.80228 16.25 7.25V3.75" stroke="currentColor" stroke-width="1.5" stroke-linecap="round" stroke-linejoin="round"></path></g></svg>