<svg width="24px" height="24px" viewBox="0 0 24 24" fill="none" xmlns="http://www.w3.org/2000/svg"><g><path d="M7.76759 5.38934C8.54898 3.84493 10.1508 2.78613 12 2.78613C13.8492 2.78613 15.451 3.84493 16.2324 5.38934C16.428 5.77591 16.8049 6.04977 17.233 6.11633C18.9433 6.38223 20.4453 7.5785 21.0167 9.33716C21.5881 11.0958 21.0762 12.9465 19.8488 14.1669C19.5416 14.4723 19.3976 14.9154 19.4666 15.3431C19.7422 17.0519 19.0686 18.85 17.5726 19.9369C16.0766 21.0238 14.1584 21.1088 12.6184 20.3186C12.233 20.1209 11.767 20.1209 11.3816 20.3186C9.84164 21.1088 7.92337 21.0238 6.42737 19.9369C4.93137 18.85 4.25778 17.0519 4.5334 15.3431C4.60239 14.9154 4.45841 14.4723 4.1512 14.1669C2.92384 12.9465 2.41187 11.0958 2.98329 9.33715C3.55471 7.5785 5.05669 6.38223 6.76697 6.11633C7.19506 6.04977 7.572 5.77591 7.76759 5.38934Z" stroke="currentColor" stroke-width="1.5" stroke-linejoin="round"></path></g></svg>