<svg width="24px" height="24px" viewBox="0 0 24 24" fill="none" xmlns="http://www.w3.org/2000/svg"><g><path d="M3.75 8V5.75C3.75 4.64543 4.64543 3.75 5.75 3.75H8M3.75 16V18.25C3.75 19.3546 4.64543 20.25 5.75 20.25H8M16 3.75H18.25C19.3546 3.75 20.25 4.64543 20.25 5.75V8M20.25 16V18.25C20.25 19.3546 19.3546 20.25 18.25 20.25H16M15.25 12C15.25 13.7949 13.7949 15.25 12 15.25C10.2051 15.25 8.75 13.7949 8.75 12C8.75 10.2051 10.2051 8.75 12 8.75C13.7949 8.75 15.25 10.2051 15.25 12Z" stroke="currentColor" stroke-width="1.5" stroke-linecap="round" stroke-linejoin="round"></path></g></svg>