<svg width="24px" height="24px" viewBox="0 0 24 24" fill="none" xmlns="http://www.w3.org/2000/svg"><g><path d="M3.75 8V5.75C3.75 4.64543 4.64543 3.75 5.75 3.75H8M3.75 16V18.25C3.75 19.3546 4.64543 20.25 5.75 20.25H8M16 3.75H18.25C19.3546 3.75 20.25 4.64543 20.25 5.75V8M20.25 16V18.25C20.25 19.3546 19.3546 20.25 18.25 20.25H16M12 14.25V16.25M8.75 8.55204V10.9895C8.75 12.7845 10.2051 14.2395 12 14.2395C13.7949 14.2395 15.25 12.7845 15.25 10.9895V8.55204L13.3542 9.36454L12 8.01038L10.6458 9.36454L8.75 8.55204Z" stroke="currentColor" stroke-width="1.5" stroke-linecap="round" stroke-linejoin="round"></path></g></svg>