<svg width="24px" height="24px" viewBox="0 0 24 24" fill="none" xmlns="http://www.w3.org/2000/svg"><g><path d="M3.75 8V5.75C3.75 4.64543 4.64543 3.75 5.75 3.75H8M3.75 16V18.25C3.75 19.3546 4.64543 20.25 5.75 20.25H8M16 3.75H18.25C19.3546 3.75 20.25 4.64543 20.25 5.75V8M20.25 16V18.25C20.25 19.3546 19.3546 20.25 18.25 20.25H16M15.0897 15.5C14.3295 16.1613 13.3278 16.5625 12.25 16.5625C10.2697 16.5625 8.60568 15.2081 8.13388 13.375M9.16947 9.35133C9.95209 8.5564 11.0541 8.0625 12.25 8.0625C14.2303 8.0625 15.8943 9.41695 16.3661 11.25" stroke="currentColor" stroke-width="1.59375" stroke-linecap="round" stroke-linejoin="round"></path><path d="M17.0312 14.4375V16.8737C17.0312 17.347 16.459 17.584 16.1243 17.2494L13.1569 14.2819C12.8222 13.9472 13.0593 13.375 13.5326 13.375H15.9688C16.5556 13.375 17.0312 13.8507 17.0312 14.4375Z" fill="currentColor"></path><path d="M7.46875 10.1875V7.75131C7.46875 7.27802 8.04098 7.04099 8.37565 7.37566L11.3431 10.3431C11.6778 10.6778 11.4407 11.25 10.9674 11.25H8.53125C7.94445 11.25 7.46875 10.7743 7.46875 10.1875Z" fill="currentColor"></path></g></svg>