<svg width="24px" height="24px" viewBox="0 0 24 24" fill="none" xmlns="http://www.w3.org/2000/svg"><g><path d="M3.75 8V5.75C3.75 4.64543 4.64543 3.75 5.75 3.75H8M3.75 16V18.25C3.75 19.3546 4.64543 20.25 5.75 20.25H8M16 3.75H18.25C19.3546 3.75 20.25 4.64543 20.25 5.75V8M20.25 16V18.25C20.25 19.3546 19.3546 20.25 18.25 20.25H16M14.25 10.75H9.75M14.25 10.75C14.8023 10.75 15.25 11.1977 15.25 11.75V14.25C15.25 14.8023 14.8023 15.25 14.25 15.25H9.75C9.19772 15.25 8.75 14.8023 8.75 14.25V11.75C8.75 11.1977 9.19772 10.75 9.75 10.75M14.25 10.75V10C14.25 8.75736 13.2426 7.75 12 7.75C10.7574 7.75 9.75 8.75736 9.75 10V10.75" stroke="currentColor" stroke-width="1.5" stroke-linecap="round"></path></g></svg>