<svg width="24px" height="24px" viewBox="0 0 24 24" fill="none" xmlns="http://www.w3.org/2000/svg"><g><path d="M14.25 21.25V19.1667C14.25 18.6144 14.6977 18.1667 15.25 18.1667H16.25C17.3546 18.1667 18.25 17.2712 18.25 16.1667V14.1506C18.25 13.7766 18.4587 13.4338 18.791 13.2622L19.7558 12.7637C20.2859 12.4898 20.4584 11.8164 20.126 11.3209C19.1865 9.92 18.3584 8.63502 17.7163 6.99759C16.6018 4.15584 13.8984 2.75 10.9621 2.75C6.97898 2.75 3.75 5.97106 3.75 9.94444C3.75 11.6184 4.3231 13.1588 5.28425 14.3811C6.97969 16.5372 6.75 18.6556 6.75 21.25" stroke="currentColor" stroke-width="1.5" stroke-linecap="square" stroke-linejoin="round"></path><path d="M10 2.25V6.25M10 12.75C8.75736 12.75 7.75 11.7426 7.75 10.5V8.75C7.75 7.50736 8.75736 6.5 10 6.5C11.2426 6.5 12.25 7.50736 12.25 8.75V10.5C12.25 11.7426 11.2426 12.75 10 12.75Z" stroke="currentColor" stroke-width="1.5" stroke-linecap="round"></path></g></svg>