<svg width="24px" height="24px" viewBox="0 0 24 24" fill="none" xmlns="http://www.w3.org/2000/svg"><g><path d="M3.75 8V5.75C3.75 4.64543 4.64543 3.75 5.75 3.75H8M3.75 16V18.25C3.75 19.3546 4.64543 20.25 5.75 20.25H8M16 3.75H18.25C19.3546 3.75 20.25 4.64543 20.25 5.75V8M20.25 16V18.25C20.25 19.3546 19.3546 20.25 18.25 20.25H16" stroke="currentColor" stroke-width="1.5" stroke-linecap="round" stroke-linejoin="round"></path><path d="M12.1845 9.28984C12.2813 9.24145 12.3598 9.16299 12.4081 9.06623L13.0531 7.77639C13.2373 7.40787 13.7632 7.40787 13.9475 7.77639L14.5924 9.06623C14.6408 9.16299 14.7192 9.24145 14.816 9.28984L16.1058 9.93475C16.4744 10.119 16.4744 10.6449 16.1058 10.8292L14.816 11.4741C14.7192 11.5225 14.6408 11.6009 14.5924 11.6977L13.9475 12.9875C13.7632 13.3561 13.2373 13.3561 13.0531 12.9875L12.4081 11.6977C12.3598 11.6009 12.2813 11.5225 12.1845 11.4741L10.8947 10.8292C10.5262 10.6449 10.5262 10.119 10.8947 9.93475L12.1845 9.28984Z" fill="currentColor"></path><path d="M8.5775 13.5934C8.63556 13.5643 8.68263 13.5172 8.71166 13.4592L9.23194 12.4186C9.3425 12.1975 9.65804 12.1975 9.7686 12.4186L10.2889 13.4592C10.3179 13.5172 10.365 13.5643 10.423 13.5934L11.4636 14.1136C11.6847 14.2242 11.6847 14.5397 11.4636 14.6503L10.423 15.1706C10.365 15.1996 10.3179 15.2467 10.2889 15.3047L9.7686 16.3453C9.65804 16.5664 9.3425 16.5664 9.23194 16.3453L8.71166 15.3047C8.68263 15.2467 8.63556 15.1996 8.5775 15.1706L7.53693 14.6503C7.31582 14.5397 7.31581 14.2242 7.53693 14.1136L8.5775 13.5934Z" fill="currentColor"></path></g></svg>