<svg width="24px" height="24px" viewBox="0 0 24 24" fill="none" xmlns="http://www.w3.org/2000/svg"><g><path d="M12.2812 19.25H4.75C3.64543 19.25 2.75 18.3546 2.75 17.25V5.75C2.75 4.64543 3.64543 3.75 4.75 3.75H8.92963C9.59834 3.75 10.2228 4.0842 10.5937 4.6406L11.4063 5.8594C11.7772 6.4158 12.4017 6.75 13.0704 6.75H19.25C20.3546 6.75 21.25 7.64543 21.25 8.75V9" stroke="currentColor" stroke-width="1.5" stroke-linecap="round" stroke-linejoin="round"></path><path d="M18.75 11.75L15.8251 13.1229C15.4741 13.2877 15.25 13.6404 15.25 14.0282V15.9554C15.25 17.6862 16.3631 19.2206 18.0084 19.7578L18.75 20L19.4916 19.7578C21.1369 19.2206 22.25 17.6862 22.25 15.9554V14.0282C22.25 13.6404 22.0259 13.2877 21.6749 13.1229L18.75 11.75Z" stroke="currentColor" stroke-width="1.5" stroke-linecap="round" stroke-linejoin="round"></path></g></svg>