<svg width="24px" height="24px" viewBox="0 0 24 24" fill="none" xmlns="http://www.w3.org/2000/svg"><g><path d="M11.25 19.25H19.25C20.3546 19.25 21.25 18.3546 21.25 17.25V8.75C21.25 7.64543 20.3546 6.75 19.25 6.75H13.0704C12.4017 6.75 11.7772 6.4158 11.4063 5.8594L10.5937 4.6406C10.2228 4.0842 9.59834 3.75 8.92963 3.75H4.75C3.64543 3.75 2.75 4.64543 2.75 5.75V10.75" stroke="currentColor" stroke-width="1.5" stroke-linecap="round" stroke-linejoin="round"></path><path d="M6.24045 15.1852L5.54359 13.3733C5.45708 13.1484 5.24099 13 5 13C4.75901 13 4.54292 13.1484 4.45641 13.3733L3.75955 15.1852C3.65797 15.4493 3.44927 15.658 3.18518 15.7595L1.37334 16.4564C1.14842 16.5429 1 16.759 1 17C1 17.241 1.14842 17.4571 1.37334 17.5436L3.18518 18.2405C3.44927 18.342 3.65797 18.5507 3.75955 18.8148L4.45641 20.6267C4.54292 20.8516 4.75901 21 5 21C5.24099 21 5.45708 20.8516 5.54359 20.6267L6.24045 18.8148C6.34203 18.5507 6.55073 18.342 6.81482 18.2405L8.62666 17.5436C8.85158 17.4571 9 17.241 9 17C9 16.759 8.85158 16.5429 8.62666 16.4564L6.81482 15.7595C6.55073 15.658 6.34203 15.4493 6.24045 15.1852Z" fill="currentColor"></path></g></svg>