<svg width="24px" height="24px" viewBox="0 0 24 24" fill="none" xmlns="http://www.w3.org/2000/svg"><g><path d="M16.25 5.75H18.25C19.3546 5.75 20.25 6.64543 20.25 7.75V10.75M16.25 5.75V10.75M16.25 5.75C16.25 4.64543 15.3546 3.75 14.25 3.75H5.75C4.64543 3.75 3.75 4.64543 3.75 5.75V7.75M3.75 7.75H7.92157C8.45201 7.75 8.96071 7.96071 9.33579 8.33579L11.1642 10.1642C11.5393 10.5393 12.048 10.75 12.5784 10.75H16.25M3.75 7.75C3.19772 7.75 2.75 8.19772 2.75 8.75V18.25C2.75 19.3546 3.64543 20.25 4.75 20.25H19.25C20.3546 20.25 21.25 19.3546 21.25 18.25V11.75C21.25 11.1977 20.8023 10.75 20.25 10.75M16.25 10.75H20.25" stroke="currentColor" stroke-width="1.5" stroke-linejoin="round"></path></g></svg>