<svg width="24px" height="24px" viewBox="0 0 24 24" fill="none" xmlns="http://www.w3.org/2000/svg"><g><path d="M1.75 9.75V18.25C1.75 19.3546 2.64543 20.25 3.75 20.25H16.25C17.3546 20.25 18.25 19.3546 18.25 18.25V11.75C18.25 10.6454 17.3546 9.75 16.25 9.75H10.8284C10.298 9.75 9.78929 9.53929 9.41421 9.16421L8.58579 8.33579C8.21071 7.96071 7.70201 7.75 7.17157 7.75H3.75C2.64543 7.75 1.75 8.64543 1.75 9.75Z" stroke="currentColor" stroke-width="1.5" stroke-linecap="round" stroke-linejoin="round"></path><path d="M18.2895 16.25H20.25C21.3546 16.25 22.25 15.3546 22.25 14.25V7.75C22.25 6.64543 21.3546 5.75 20.25 5.75H14.8284C14.298 5.75 13.7893 5.53929 13.4142 5.16421L12.5858 4.33579C12.2107 3.96071 11.702 3.75 11.1716 3.75H7.75C6.64543 3.75 5.75 4.64543 5.75 5.75V7.75" stroke="currentColor" stroke-width="1.5" stroke-linecap="round" stroke-linejoin="round"></path></g></svg>