<svg width="24px" height="24px" viewBox="0 0 24 24" fill="none" xmlns="http://www.w3.org/2000/svg"><g><path d="M14.25 19.25H19.25C20.3546 19.25 21.25 18.3546 21.25 17.25V8.75C21.25 7.64543 20.3546 6.75 19.25 6.75H13.0704C12.4017 6.75 11.7772 6.4158 11.4063 5.8594L10.5937 4.6406C10.2228 4.0842 9.59834 3.75 8.92963 3.75H4.75C3.64543 3.75 2.75 4.64543 2.75 5.75V10.75" stroke="currentColor" stroke-width="1.5" stroke-linecap="round" stroke-linejoin="round"></path><path d="M4.75 13.75H3.75C2.64543 13.75 1.75 14.6454 1.75 15.75V18.25C1.75 19.3546 2.64543 20.25 3.75 20.25H4.75M8.25 13.75H9.25C10.3546 13.75 11.25 14.6454 11.25 15.75V18.25C11.25 19.3546 10.3546 20.25 9.25 20.25H8.25" stroke="currentColor" stroke-width="1.5" stroke-linecap="round" stroke-linejoin="round"></path><path d="M5.25 17H7.75" stroke="currentColor" stroke-width="1.5" stroke-linecap="round" stroke-linejoin="round"></path></g></svg>