<svg width="24px" height="24px" viewBox="0 0 24 24" fill="none" xmlns="http://www.w3.org/2000/svg"><g><path d="M13.0007 19.25H19.5007C20.6052 19.25 21.5007 18.3546 21.5007 17.25V8.75C21.5007 7.64543 20.6052 6.75 19.5007 6.75H13.321C12.6523 6.75 12.0279 6.4158 11.6569 5.8594L10.8444 4.6406C10.4735 4.0842 9.84902 3.75 9.18031 3.75H5.00068C3.89611 3.75 3.00068 4.64543 3.00068 5.75V8.25M7.75068 12.5C7.75068 13.4665 6.96718 14.25 6.00068 14.25C5.03418 14.25 4.25068 13.4665 4.25068 12.5C4.25068 11.5335 5.03418 10.75 6.00068 10.75C6.96718 10.75 7.75068 11.5335 7.75068 12.5ZM2.31766 19.0713C3.05565 17.6831 4.42871 16.75 6.00068 16.75C7.57265 16.75 8.94571 17.6831 9.68369 19.0713C9.98631 19.6406 9.50825 20.25 8.86355 20.25H3.13781C2.49311 20.25 2.01505 19.6406 2.31766 19.0713Z" stroke="currentColor" stroke-width="1.5" stroke-linecap="round"></path></g></svg>