<svg width="24px" height="24px" viewBox="0 0 24 24" fill="none" xmlns="http://www.w3.org/2000/svg"><g><path d="M8.93198 13.068C10.6893 14.8254 10.6893 17.6746 8.93198 19.432C7.17462 21.1893 4.32538 21.1893 2.56802 19.432C0.81066 17.6746 0.81066 14.8254 2.56802 13.068C4.32538 11.3107 7.17462 11.3107 8.93198 13.068Z" stroke="currentColor" stroke-width="1.5" stroke-linecap="round" stroke-linejoin="round"></path><path d="M12.5 19.25H19.25C20.3546 19.25 21.25 18.3546 21.25 17.25V8.75C21.25 7.64543 20.3546 6.75 19.25 6.75H13.0704C12.4017 6.75 11.7772 6.4158 11.4063 5.8594L10.5937 4.6406C10.2228 4.0842 9.59834 3.75 8.92963 3.75H4.75C3.64543 3.75 2.75 4.64543 2.75 5.75V9.5" stroke="currentColor" stroke-width="1.5" stroke-linecap="round" stroke-linejoin="round"></path><path d="M8.93232 19.432L2.56836 13.068" stroke="currentColor" stroke-width="1.5" stroke-linecap="round" stroke-linejoin="round"></path></g></svg>