<svg width="24px" height="24px" viewBox="0 0 24 24" fill="none" xmlns="http://www.w3.org/2000/svg"><g><path d="M2.75 9V5.75C2.75 4.64543 3.64543 3.75 4.75 3.75H9.13202C9.65297 3.75 10.1534 3.95326 10.5267 4.31655L11.4177 5.18345C11.7911 5.54674 12.2915 5.75 12.8124 5.75H19.25C20.3546 5.75 21.25 6.64543 21.25 7.75V9" stroke="currentColor" stroke-width="1.5" stroke-linecap="round" stroke-linejoin="round"></path><path d="M3.52041 11.75C2.23223 11.75 1.28001 12.95 1.57273 14.2045L2.38943 17.7045C2.60064 18.6096 3.40762 19.25 4.33711 19.25H19.663C20.5925 19.25 21.3995 18.6096 21.6107 17.7044L22.4273 14.2044C22.72 12.95 21.7678 11.75 20.4796 11.75H3.52041Z" stroke="currentColor" stroke-width="1.5" stroke-linecap="round" stroke-linejoin="round"></path></g></svg>