<svg width="24px" height="24px" viewBox="0 0 24 24" fill="none" xmlns="http://www.w3.org/2000/svg"><g><path d="M12.75 19.25H19.25C20.3546 19.25 21.25 18.3546 21.25 17.25V8.75C21.25 7.64543 20.3546 6.75 19.25 6.75H13.0704C12.4017 6.75 11.7772 6.4158 11.4063 5.8594L10.5937 4.6406C10.2228 4.0842 9.59834 3.75 8.92963 3.75H4.75C3.64543 3.75 2.75 4.64543 2.75 5.75V11.25" stroke="currentColor" stroke-width="1.5" stroke-linecap="round" stroke-linejoin="round"></path><path d="M1.75 17.25C1.75 18.9069 3.09315 20.25 4.75 20.25H7.5C8.74264 20.25 9.75 19.2426 9.75 18C9.75 16.7574 8.74264 15.75 7.5 15.75C7.45006 15.75 7.40044 15.7516 7.35122 15.7549C6.83343 14.8558 5.86311 14.25 4.75 14.25C3.09315 14.25 1.75 15.5931 1.75 17.25Z" stroke="currentColor" stroke-width="1.5" stroke-linejoin="round"></path></g></svg>