<svg width="24px" height="24px" viewBox="0 0 24 24" fill="none" xmlns="http://www.w3.org/2000/svg"><g><path d="M9.35 4.5H9.5H9.65M10.25 4.5C10.25 4.91421 9.91421 5.25 9.5 5.25C9.08579 5.25 8.75 4.91421 8.75 4.5C8.75 4.08579 9.08579 3.75 9.5 3.75C9.91421 3.75 10.25 4.08579 10.25 4.5Z" stroke="currentColor" stroke-width="1.5" stroke-linecap="round" stroke-linejoin="round"></path><path d="M12 19.25C18.1875 19.25 20.25 15.8667 20.25 15.8667V15.75H3.75V15.8667C3.75 15.8667 5.8125 19.25 12 19.25Z" stroke="currentColor" stroke-width="1.5" stroke-linecap="round" stroke-linejoin="round"></path><path d="M9.75 20.25H14.25" stroke="currentColor" stroke-width="1.5" stroke-linecap="round" stroke-linejoin="round"></path><path d="M14.75 6.75L16.25 3.75L17.75 6.75L20.75 8.25L17.75 9.75L16.25 12.75L14.75 9.75L11.75 8.25L14.75 6.75Z" stroke="currentColor" stroke-width="1.5" stroke-linecap="round" stroke-linejoin="round"></path><path d="M6.6709 8.76953C6.79185 9.01144 6.98856 9.20815 7.23047 9.3291L8.57227 10L7.23047 10.6709C7.01879 10.7767 6.84161 10.9403 6.71973 11.1416L6.6709 11.2305L6 12.5723L5.3291 11.2305L5.28027 11.1416C5.15839 10.9403 4.98121 10.7767 4.76953 10.6709L3.42676 10L4.76953 9.3291C5.01144 9.20815 5.20815 9.01144 5.3291 8.76953L6 7.42676L6.6709 8.76953Z" stroke="currentColor" stroke-width="1.5" stroke-linecap="square" stroke-linejoin="round"></path></g></svg>