<svg width="24px" height="24px" viewBox="0 0 24 24" fill="none" xmlns="http://www.w3.org/2000/svg"><g><path d="M9.25 16.25C9.25 15.6977 8.80228 15.25 8.25 15.25H4.75C4.19772 15.25 3.75 15.6977 3.75 16.25V16.4375C3.75 17.9908 4.98122 19.25 6.5 19.25C8.01878 19.25 9.25 17.9908 9.25 16.4375V16.25Z" stroke="currentColor" stroke-width="1.5" stroke-linejoin="round"></path><path d="M9.52637 12.2422C9.38081 12.5656 9.04762 12.75 8.69296 12.75H4.30709C3.95242 12.75 3.61921 12.5656 3.47366 12.2421C2.02779 9.02924 2.60768 2.75 6.49986 2.75C10.392 2.75 10.9723 9.02927 9.52637 12.2422Z" stroke="currentColor" stroke-width="1.5" stroke-linejoin="round"></path><path d="M20.25 18.25C20.25 17.6977 19.8023 17.25 19.25 17.25H15.75C15.1977 17.25 14.75 17.6977 14.75 18.25V18.4375C14.75 19.9908 15.9812 21.25 17.5 21.25C19.0188 21.25 20.25 19.9908 20.25 18.4375V18.25Z" stroke="currentColor" stroke-width="1.5" stroke-linejoin="round"></path><path d="M20.5264 14.2422C20.3808 14.5656 20.0476 14.75 19.693 14.75H15.3071C14.9524 14.75 14.6192 14.5656 14.4737 14.2421C13.0278 11.0292 13.6077 4.75 17.4999 4.75C21.392 4.75 21.9723 11.0293 20.5264 14.2422Z" stroke="currentColor" stroke-width="1.5" stroke-linejoin="round"></path></g></svg>