<svg width="24px" height="24px" viewBox="0 0 24 24" fill="none" xmlns="http://www.w3.org/2000/svg"><g><path d="M4.75 3.75V10.1583C4.75 10.6781 4.95236 11.1774 5.3142 11.5506L5.6858 11.9338C6.04764 12.3069 6.25 12.8063 6.25 13.3261V18.75C6.25 19.5784 6.92157 20.25 7.75 20.25C8.57843 20.25 9.25 19.5784 9.25 18.75V13.3261C9.25 12.8063 9.45236 12.3069 9.8142 11.9338L10.1858 11.5506C10.5476 11.1774 10.75 10.6781 10.75 10.1583V3.75" stroke="currentColor" stroke-width="1.5" stroke-linecap="round" stroke-linejoin="round"></path><path d="M7.75 3.75V10.25" stroke="currentColor" stroke-width="1.5" stroke-linecap="round" stroke-linejoin="round"></path><path d="M19.25 18.75V3.75C18.5199 3.75 14.7842 6.44217 13.7705 13.1459C13.5988 14.2814 14.529 15.25 15.6863 15.25H16.2263V18.75C16.2263 19.5784 16.9032 20.25 17.7381 20.25C18.5731 20.25 19.25 19.5784 19.25 18.75Z" stroke="currentColor" stroke-width="1.5" stroke-linecap="square" stroke-linejoin="round"></path></g></svg>