<svg width="24px" height="24px" viewBox="0 0 24 24" fill="none" xmlns="http://www.w3.org/2000/svg"><g><path d="M15.003 2.75C15.5335 2.75 16.0422 2.96071 16.4173 3.33579L20.6642 7.58274C21.0393 7.95781 21.25 8.46652 21.25 8.99695V15.003C21.25 15.5335 21.0393 16.0422 20.6642 16.4173L16.4173 20.6642C16.0422 21.0393 15.5335 21.25 15.003 21.25H8.99695C8.46652 21.25 7.95781 21.0393 7.58274 20.6642L3.33579 16.4173C2.96071 16.0422 2.75 15.5335 2.75 15.003L2.75 8.99695C2.75 8.46652 2.96071 7.95781 3.33579 7.58274L7.58274 3.33579C7.95781 2.96071 8.46652 2.75 8.99695 2.75L15.003 2.75Z" stroke="currentColor" stroke-width="1.5" stroke-linejoin="round"></path></g></svg>