<svg width="24px" height="24px" viewBox="0 0 24 24" fill="none" xmlns="http://www.w3.org/2000/svg"><g><path d="M19.175 6.825C19.175 5.72043 18.2796 4.825 17.175 4.825H15.9034C15.373 4.825 14.8643 4.61429 14.4892 4.23921L13.4142 3.16421C12.6332 2.38317 11.3668 2.38316 10.5858 3.16421L9.51079 4.23921C9.13571 4.61429 8.62701 4.825 8.09657 4.825H6.825C5.72043 4.825 4.825 5.72043 4.825 6.825V8.09657C4.825 8.62701 4.61429 9.13571 4.23921 9.51079L3.16421 10.5858C2.38317 11.3668 2.38316 12.6332 3.16421 13.4142L4.23921 14.4892C4.61429 14.8643 4.825 15.373 4.825 15.9034V17.2103C4.825 18.301 5.69886 19.1906 6.78936 19.21L8.13145 19.2339C8.64115 19.243 9.12814 19.4464 9.49292 19.8025L10.6029 20.8861C11.3799 21.6446 12.6201 21.6446 13.3971 20.8861L14.4923 19.817C14.8659 19.4522 15.3673 19.2481 15.8894 19.2481H17.175C18.2796 19.2481 19.175 18.3526 19.175 17.2481V15.9034C19.175 15.373 19.3857 14.8643 19.7608 14.4892L20.8358 13.4142C21.6168 12.6332 21.6168 11.3668 20.8358 10.5858L19.7608 9.51079C19.3857 9.13571 19.175 8.62701 19.175 8.09657V6.825Z" stroke="currentColor" stroke-width="1.5" stroke-linejoin="round"></path></g></svg>