<svg width="24px" height="24px" viewBox="0 0 24 24" fill="none" xmlns="http://www.w3.org/2000/svg"><g><path d="M11.2346 2.56703C11.7247 2.36404 12.2753 2.36404 12.7654 2.56703L18.1289 4.78868C18.619 4.99167 19.0083 5.38102 19.2113 5.87108L21.433 11.2346C21.636 11.7247 21.636 12.2753 21.433 12.7654L19.2113 18.1289C19.0083 18.619 18.619 19.0083 18.1289 19.2113L12.7654 21.433C12.2753 21.636 11.7247 21.636 11.2346 21.433L5.87108 19.2113C5.38102 19.0083 4.99167 18.619 4.78868 18.1289L2.56703 12.7654C2.36404 12.2753 2.36404 11.7247 2.56703 11.2346L4.78868 5.87108C4.99167 5.38102 5.38102 4.99167 5.87108 4.78868L11.2346 2.56703Z" stroke="currentColor" stroke-width="1.5" stroke-linejoin="round"></path></g></svg>