<svg width="24px" height="24px" viewBox="0 0 24 24" fill="none" xmlns="http://www.w3.org/2000/svg"><g><path d="M12 2.25C12.8779 2.25 13.6647 3.53925 14.2007 5.58056C14.2893 5.91782 14.6811 6.08013 14.9822 5.90427C16.805 4.83972 18.2738 4.48465 18.8946 5.10544C19.5153 5.72622 19.1594 7.19426 18.0948 9.01675C17.9189 9.31784 18.0812 9.70971 18.4185 9.79827C20.4604 10.3344 21.75 11.122 21.75 12C21.75 12.878 20.4603 13.6648 18.4185 14.2007C18.0812 14.2893 17.9189 14.6812 18.0948 14.9823C19.1597 16.8051 19.5154 18.2737 18.8946 18.8946C18.2737 19.5154 16.8051 19.1597 14.9823 18.0948C14.6812 17.9189 14.2893 18.0812 14.2007 18.4185C13.6648 20.4603 12.878 21.75 12 21.75C11.122 21.75 10.3344 20.4604 9.79827 18.4185C9.70971 18.0812 9.31784 17.9189 9.01675 18.0948C7.19425 19.1594 5.72622 19.5153 5.10544 18.8946C4.48464 18.2738 4.8397 16.805 5.90427 14.9822C6.08013 14.6811 5.91782 14.2893 5.58056 14.2007C3.53925 13.6647 2.25 12.8779 2.25 12C2.25 11.1221 3.53918 10.3345 5.58059 9.7983C5.91784 9.70972 6.08015 9.31788 5.9043 9.01678C4.84 7.1944 4.48473 5.72616 5.10544 5.10544C5.72617 4.48475 7.19441 4.84001 9.01678 5.9043C9.31788 6.08015 9.70972 5.91784 9.7983 5.58059C10.3345 3.53918 11.1221 2.25 12 2.25Z" stroke="currentColor" stroke-width="1.5"></path></g></svg>