<svg width="24px" height="24px" viewBox="0 0 24 24" fill="none" xmlns="http://www.w3.org/2000/svg"><g><path d="M7.36711 18.75C4.8946 17.2205 3.25 14.5031 3.25 11.4057C3.25 6.62531 7.16751 2.75 12 2.75C16.8325 2.75 20.75 6.62531 20.75 11.4057C20.75 14.5031 19.1054 17.2205 16.6329 18.75M7.59629 21.25H16.4037C17.288 21.25 17.8927 20.3568 17.5643 19.5358C17.3745 19.0612 16.9148 18.75 16.4037 18.75H7.59629C7.08516 18.75 6.62552 19.0612 6.4357 19.5358C6.10726 20.3568 6.71196 21.25 7.59629 21.25Z" stroke="currentColor" stroke-width="1.5" stroke-linecap="round" stroke-linejoin="round"></path><path d="M13.1671 6.09709C13.1231 5.96764 12.8769 5.96764 12.833 6.09709C12.7066 6.46962 12.5051 6.93052 12.2178 7.21783C11.9305 7.50513 11.4696 7.70656 11.0971 7.83298C10.9676 7.87691 10.9676 8.12315 11.0971 8.16708C11.4696 8.29351 11.9305 8.49493 12.2178 8.78223C12.5051 9.06954 12.7066 9.53044 12.833 9.90297C12.8769 10.0324 13.1231 10.0324 13.1671 9.90297C13.2935 9.53044 13.4949 9.06954 13.7822 8.78223C14.0695 8.49493 14.5304 8.29351 14.903 8.16708C15.0324 8.12315 15.0324 7.87691 14.903 7.83298C14.5304 7.70656 14.0695 7.50513 13.7822 7.21783C13.4949 6.93052 13.2935 6.46962 13.1671 6.09709Z" fill="currentColor"></path><path d="M15.6879 9.35928C15.6385 9.21365 15.3615 9.21365 15.3121 9.35928C15.1698 9.77837 14.9432 10.2969 14.62 10.6201C14.2968 10.9433 13.7783 11.1699 13.3592 11.3121C13.2136 11.3616 13.2136 11.6386 13.3592 11.688C13.7783 11.8302 14.2968 12.0568 14.62 12.38C14.9432 12.7032 15.1698 13.2218 15.3121 13.6408C15.3615 13.7865 15.6385 13.7865 15.6879 13.6408C15.8302 13.2218 16.0568 12.7032 16.38 12.38C16.7032 12.0568 17.2217 11.8302 17.6408 11.688C17.7864 11.6386 17.7864 11.3616 17.6408 11.3121C17.2217 11.1699 16.7032 10.9433 16.38 10.6201C16.0568 10.2969 15.8302 9.77837 15.6879 9.35928Z" fill="currentColor"></path></g></svg>