<svg width="24px" height="24px" viewBox="0 0 24 24" fill="none" xmlns="http://www.w3.org/2000/svg"><g><path d="M19.6497 9.25C18.7003 6 15.4593 3.75 11.995 3.75C8.50046 3.75 5.5131 6.02978 4.30859 9.25M19.6497 9.25H20.2503V4.75M19.6497 9.25H15.7503" stroke="currentColor" stroke-width="1.5" stroke-linecap="round" stroke-linejoin="round"></path><path d="M8.16406 20.1558V13.9858H8.12598L7.25635 14.6016C6.9834 14.7793 6.82471 14.8364 6.64062 14.8364C6.2915 14.8364 6.03125 14.5762 6.03125 14.2271C6.03125 13.9604 6.19629 13.7256 6.52002 13.5098L7.65625 12.7163C8.11328 12.4053 8.4751 12.2783 8.83057 12.2783C9.44629 12.2783 9.85889 12.7036 9.85889 13.3447V20.1558C9.85889 20.7397 9.54785 21.0762 9.0083 21.0762C8.4751 21.0762 8.16406 20.7334 8.16406 20.1558Z" fill="currentColor"></path><path d="M11.3569 16.8804V16.4741C11.3569 13.8716 12.6011 12.1704 14.6641 12.1704C16.7334 12.1704 17.9521 13.8525 17.9521 16.4741V16.8804C17.9521 19.4766 16.6953 21.1841 14.6387 21.1841C12.582 21.1841 11.3569 19.4956 11.3569 16.8804ZM13.0708 16.4805V16.8677C13.0708 18.6958 13.6675 19.7876 14.6514 19.7876C15.6353 19.7876 16.2319 18.6958 16.2319 16.8677V16.4805C16.2319 14.6587 15.6353 13.5669 14.6514 13.5669C13.6675 13.5669 13.0708 14.6523 13.0708 16.4805Z" fill="currentColor"></path></g></svg>