<svg width="24px" height="24px" viewBox="0 0 24 24" fill="none" xmlns="http://www.w3.org/2000/svg"><g><path d="M22.25 12C22.25 14.8995 17.6609 17.25 12 17.25C6.33908 17.25 1.75 14.8995 1.75 12C1.75 9.10051 6.33908 6.75 12 6.75C17.6609 6.75 22.25 9.10051 22.25 12Z" stroke="currentColor" stroke-width="1.5" stroke-linecap="round" stroke-linejoin="round"></path><path d="M2.20312 6.36237C4.54064 4.82311 7.82483 3.83517 11.4846 3.75M12.5159 20.2384C16.1756 20.1532 19.4598 19.1653 21.7973 17.626" stroke="currentColor" stroke-width="1.5" stroke-linecap="round" stroke-linejoin="round"></path><path d="M20 10.5C20 12.433 16.4183 14 12 14C7.58172 14 4 12.433 4 10.5C4 8.567 7.58172 7 12 7C16.4183 7 20 8.567 20 10.5Z" stroke="currentColor" stroke-width="1.5" stroke-linecap="round" stroke-linejoin="round"></path></g></svg>