<svg width="24px" height="24px" viewBox="0 0 24 24" fill="none" xmlns="http://www.w3.org/2000/svg"><g><path d="M13.2027 4.75H10.7973C8.48821 4.75 7.33367 4.75 6.3836 5.16101C5.54568 5.5235 4.823 6.1085 4.29394 6.85255C3.69407 7.69619 3.45362 8.82541 2.97271 11.0839L2.02936 15.514C1.72348 16.9505 2.49631 18.3985 3.85994 18.944C5.34267 19.5371 7.03075 18.8722 7.71072 17.4272L8.07559 16.6519C8.33465 16.1014 8.88834 15.75 9.49675 15.75H14.5032C15.1117 15.75 15.6654 16.1014 15.9244 16.6519L16.2893 17.4272C16.9692 18.8722 18.6573 19.5371 20.1401 18.944C21.5037 18.3985 22.2765 16.9505 21.9706 15.514L21.0273 11.0839L21.0273 11.0838C20.5464 8.82541 20.3059 7.69619 19.7061 6.85255C19.177 6.1085 18.4543 5.5235 17.6164 5.16101C16.6663 4.75 15.5118 4.75 13.2027 4.75Z" stroke="currentColor" stroke-width="1.5" stroke-linecap="round" stroke-linejoin="round"></path><circle cx="17.0008" cy="11.6502" r="1.2" fill="currentColor"></circle><circle cx="15.0008" cy="8.8499" r="1.2" fill="currentColor"></circle><path d="M10.2992 10.3H6.69922M8.49924 12.1L8.4992 8.5" stroke="currentColor" stroke-width="1.5" stroke-linecap="round"></path></g></svg>