<svg width="24px" height="24px" viewBox="0 0 24 24" fill="none" xmlns="http://www.w3.org/2000/svg"><g><path d="M14.25 2.75H9.75C9.19772 2.75 8.75 3.19772 8.75 3.75V6.33579C8.75 6.601 8.85536 6.85536 9.04289 7.04289L11.4697 9.46967C11.7626 9.76256 12.2374 9.76256 12.5303 9.46967L14.9571 7.04289C15.1446 6.85536 15.25 6.601 15.25 6.33579V3.75C15.25 3.19772 14.8023 2.75 14.25 2.75Z" fill="currentColor" stroke="currentColor" stroke-width="1.5" stroke-linecap="square" stroke-linejoin="round"></path><path d="M21.25 14.25V9.75C21.25 9.19772 20.8023 8.75 20.25 8.75L17.6642 8.75C17.399 8.75 17.1446 8.85536 16.9571 9.04289L14.5303 11.4697C14.2374 11.7626 14.2374 12.2374 14.5303 12.5303L16.9571 14.9571C17.1446 15.1446 17.399 15.25 17.6642 15.25H20.25C20.8023 15.25 21.25 14.8023 21.25 14.25Z" stroke="currentColor" stroke-width="1.5" stroke-linecap="square" stroke-linejoin="round"></path><path d="M9.75 21.25H14.25C14.8023 21.25 15.25 20.8023 15.25 20.25V17.6642C15.25 17.399 15.1446 17.1446 14.9571 16.9571L12.5303 14.5303C12.2374 14.2374 11.7626 14.2374 11.4697 14.5303L9.04289 16.9571C8.85536 17.1446 8.75 17.399 8.75 17.6642V20.25C8.75 20.8023 9.19772 21.25 9.75 21.25Z" stroke="currentColor" stroke-width="1.5" stroke-linecap="square" stroke-linejoin="round"></path><path d="M2.75 9.75L2.75 14.25C2.75 14.8023 3.19772 15.25 3.75 15.25L6.33579 15.25C6.601 15.25 6.85536 15.1446 7.04289 14.9571L9.46967 12.5303C9.76256 12.2374 9.76256 11.7626 9.46967 11.4697L7.04289 9.04289C6.85536 8.85536 6.601 8.75 6.33579 8.75L3.75 8.75C3.19772 8.75 2.75 9.19772 2.75 9.75Z" stroke="currentColor" stroke-width="1.5" stroke-linecap="square" stroke-linejoin="round"></path></g></svg>