<svg width="24px" height="24px" viewBox="0 0 24 24" fill="none" xmlns="http://www.w3.org/2000/svg"><g><path d="M8 9.75V12M8 12V14.25M8 12H10.25M8 12H5.75M6 6H18C20.2091 6 22 7.79086 22 10V14C22 16.2091 20.2091 18 18 18H6C3.79086 18 2 16.2091 2 14V10C2 7.79086 3.79086 6 6 6Z" stroke="currentColor" stroke-width="1.5" stroke-linecap="round" stroke-linejoin="round"></path><path d="M14.25 13.75C14.25 14.1642 14.5858 14.5 15 14.5C15.4142 14.5 15.75 14.1642 15.75 13.75C15.75 13.3358 15.4142 13 15 13C14.5858 13 14.25 13.3358 14.25 13.75ZM17.25 10.25C17.25 10.6642 17.5858 11 18 11C18.4142 11 18.75 10.6642 18.75 10.25C18.75 9.83579 18.4142 9.5 18 9.5C17.5858 9.5 17.25 9.83579 17.25 10.25Z" fill="currentColor" stroke="currentColor" stroke-width="0.5" stroke-linecap="round" stroke-linejoin="round"></path></g></svg>