<svg width="24px" height="24px" viewBox="0 0 24 24" fill="none" xmlns="http://www.w3.org/2000/svg"><g><path d="M19.25 19.25H4.75C3.64543 19.25 2.75 18.3546 2.75 17.25V10.0632C2.75 9.35304 3.12656 8.69616 3.73936 8.33731L10.9894 4.09182C11.6135 3.7263 12.3865 3.7263 13.0106 4.09182L20.2606 8.33731C20.8734 8.69616 21.25 9.35304 21.25 10.0632V17.25C21.25 18.3546 20.3546 19.25 19.25 19.25Z" stroke="currentColor" stroke-width="1.5" stroke-linecap="square" stroke-linejoin="round"></path><path d="M6.75 15.25H17.25" stroke="currentColor" stroke-width="1.5" stroke-linecap="round" stroke-linejoin="round"></path><path d="M17.25 19.25V13.25C17.25 12.1454 16.3546 11.25 15.25 11.25H8.75C7.64543 11.25 6.75 12.1454 6.75 13.25V19.25" stroke="currentColor" stroke-width="1.5" stroke-linecap="round" stroke-linejoin="round"></path></g></svg>