<svg width="24px" height="24px" viewBox="0 0 24 24" fill="none" xmlns="http://www.w3.org/2000/svg"><g><path d="M14.5015 21.1662C19.7245 22.2257 21 18.307 21 15.5101C20.6151 10.1733 14.5051 8.12313 13.1765 3.29883C13.0006 2.66017 12.3315 2.22841 11.7104 2.45875L10.8688 2.77089C10.4241 2.93579 10.1676 3.39418 10.1745 3.86834C10.2496 9.03894 3 10.2669 3 16.4676C3 20.4132 6.31501 22.2 9.35963 21.0553M13.4211 10.9595C14.3684 13.0676 16.0915 19.8102 13.8502 21.0143C12.6693 21.6487 10.887 21.7187 9.77278 20.8814C8.26805 19.7459 8.68421 14.6486 9.63158 12.5405" stroke="currentColor" stroke-width="1.5" stroke-linecap="round" stroke-linejoin="round"></path></g></svg>