<svg width="24px" height="24px" viewBox="0 0 24 24" fill="none" xmlns="http://www.w3.org/2000/svg"><g><path d="M14.25 20.25H15.25M14.25 20.25V9.75M14.25 20.25H3.75M14.25 9.75V5.75C14.25 4.64543 13.3546 3.75 12.25 3.75H5.75C4.64543 3.75 3.75 4.64543 3.75 5.75V20.25M14.25 9.75H15.75C16.8546 9.75 17.75 10.6454 17.75 11.75V15.5C17.75 16.4665 18.5335 17.25 19.5 17.25C20.4665 17.25 21.25 16.4665 21.25 15.5V8.89072C21.25 8.32375 21.0094 7.78342 20.5879 7.40414L18.75 5.75M2.75 20.25H3.75M11.25 9.75H6.75" stroke="currentColor" stroke-width="1.5" stroke-linecap="round" stroke-linejoin="round"></path></g></svg>