<svg width="24px" height="24px" viewBox="0 0 24 24" fill="none" xmlns="http://www.w3.org/2000/svg"><g><path d="M4.75 9.94444V20.2023C4.75 20.9864 5.61121 21.4655 6.27736 21.052L7.44088 20.3298C8.02258 19.9687 8.74854 19.9303 9.3651 20.228L11.1305 21.0802C11.6798 21.3454 12.3202 21.3454 12.8695 21.0802L14.6349 20.228C15.2515 19.9303 15.9774 19.9687 16.5591 20.3298L17.7226 21.052C18.3888 21.4655 19.25 20.9864 19.25 20.2023V9.94444C19.25 5.97106 16.0041 2.75 12 2.75C7.99594 2.75 4.75 5.97106 4.75 9.94444Z" stroke="currentColor" stroke-width="1.5"></path><path d="M10.25 10.5C10.25 10.9142 9.91421 11.25 9.5 11.25C9.08579 11.25 8.75 10.9142 8.75 10.5C8.75 10.0858 9.08579 9.75 9.5 9.75C9.91421 9.75 10.25 10.0858 10.25 10.5Z" stroke="currentColor" stroke-width="1.5"></path><path d="M15.25 10.5C15.25 10.9142 14.9142 11.25 14.5 11.25C14.0858 11.25 13.75 10.9142 13.75 10.5C13.75 10.0858 14.0858 9.75 14.5 9.75C14.9142 9.75 15.25 10.0858 15.25 10.5Z" stroke="currentColor" stroke-width="1.5"></path></g></svg>