<svg width="24px" height="24px" viewBox="0 0 24 24" fill="none" xmlns="http://www.w3.org/2000/svg"><g><path d="M10.9984 9.5C10.9984 10.6046 10.4164 11.5 9.69844 11.5C8.98047 11.5 8.39844 10.6046 8.39844 9.5C8.39844 8.39543 8.98047 7.5 9.69844 7.5C10.4164 7.5 10.9984 8.39543 10.9984 9.5Z" fill="currentColor"></path><ellipse cx="14.3" cy="9.5" rx="1.3" ry="2" fill="currentColor"></ellipse><path d="M7.43198 19.9237L5.04162 20.6818C4.2782 20.9239 3.54607 20.2123 3.72705 19.4321C4.45078 16.312 4.70047 13.2025 4.76313 10.0411C4.84252 6.0352 7.99338 2.75 12.0001 2.75C16.0068 2.75 19.1577 6.03519 19.2371 10.0411C19.2997 13.2025 19.5494 16.312 20.2732 19.4321C20.4541 20.2123 19.722 20.9239 18.9586 20.6818L16.5682 19.9237C16.1289 19.7844 15.655 19.8011 15.2266 19.9709L12.3686 21.1039C12.1319 21.1978 11.8683 21.1978 11.6316 21.1039L8.77364 19.9709C8.34522 19.8011 7.87128 19.7844 7.43198 19.9237Z" stroke="currentColor" stroke-width="1.5"></path></g></svg>