<svg width="24px" height="24px" viewBox="0 0 24 24" fill="none" xmlns="http://www.w3.org/2000/svg"><g><path d="M8 16C9.64819 14.9363 10.9156 13.6374 12 12M12 12C13.0844 13.6374 14.3518 14.9363 16 16M12 12V10.5833M12 12H10.5833C9.01853 12 7.75 10.7315 7.75 9.16667C7.75 8.38426 8.38426 7.75 9.16667 7.75C10.7315 7.75 12 9.01853 12 10.5833M12 12H13.4167C14.9815 12 16.25 10.7315 16.25 9.16667C16.25 8.38426 15.6157 7.75 14.8333 7.75C13.2685 7.75 12 9.01853 12 10.5833M12 12V20.25M12 10.5833V3.75M12 3.75H5.75C4.64543 3.75 3.75 4.64543 3.75 5.75V12M12 3.75H18.25C19.3546 3.75 20.25 4.64543 20.25 5.75V12M20.25 12V18.25C20.25 19.3546 19.3546 20.25 18.25 20.25H12M20.25 12H3.75M12 20.25H5.75C4.64543 20.25 3.75 19.3546 3.75 18.25V12" stroke="currentColor" stroke-width="1.5" stroke-linecap="round" stroke-linejoin="round"></path></g></svg>