<svg width="24px" height="24px" viewBox="0 0 24 24" fill="none" xmlns="http://www.w3.org/2000/svg"><g><path d="M12 7.75V6.08333M12 7.75H10.3333C8.49238 7.75 7 6.25762 7 4.41667C7 3.49619 7.74619 2.75 8.66667 2.75C10.5076 2.75 12 4.24238 12 6.08333M12 7.75H13.6667C15.5076 7.75 17 6.25762 17 4.41667C17 3.49619 16.2538 2.75 15.3333 2.75C13.4924 2.75 12 4.24238 12 6.08333M12 7.75H5.75C4.64543 7.75 3.75 8.64543 3.75 9.75V10C3.75 10.7403 4.1522 11.3866 4.75 11.7324M12 7.75H18.25C19.3546 7.75 20.25 8.64543 20.25 9.75V10C20.25 10.7403 19.8478 11.3866 19.25 11.7324M12 7.75V12M12 20.25H6.75C5.64543 20.25 4.75 19.3546 4.75 18.25V11.7324M12 20.25H17.25C18.3546 20.25 19.25 19.3546 19.25 18.25V11.7324M12 20.25V12M12 12H18.25C18.6143 12 18.9558 11.9026 19.25 11.7324M12 12H5.75C5.38571 12 5.04417 11.9026 4.75 11.7324M4.75 11.5V11.7324M19.25 11.7324V11.5" stroke="currentColor" stroke-width="1.5" stroke-linejoin="round"></path></g></svg>