<svg width="24px" height="24px" viewBox="0 0 24 24" fill="none" xmlns="http://www.w3.org/2000/svg"><g><path d="M8.28069 16.9827L8.29291 16.9858C8.65497 18.3922 10.1798 21.2499 11.9979 21.25C13.816 21.2499 15.3408 18.3923 15.7029 16.9859L15.7151 16.9828C16.8165 16.7047 16.9072 14.5196 17.0217 13.5984C17.8794 13.5506 20.7685 12.8499 21.515 10.6099C22.6346 7.24979 17.514 10.6385 17.9693 7.59513C18.418 4.59696 20.9551 2.99139 20.9551 2.99139C17.0363 2.21575 15.1701 3.33552 13.7594 5.97317C12.892 7.59513 11.0772 7.59513 10.2213 5.97623C8.82528 3.33553 6.95946 2.21587 3.04066 2.99131C3.04066 2.99131 5.57774 4.59696 6.02637 7.59513C6.48166 10.6385 1.36118 7.24972 2.48084 10.6098C3.22727 12.8498 6.11638 13.5505 6.9741 13.5983C7.0886 14.5196 7.17934 16.7046 8.28069 16.9827Z" stroke="currentColor" stroke-width="1.5" stroke-linejoin="round"></path></g></svg>