<svg width="24px" height="24px" viewBox="0 0 24 24" fill="none" xmlns="http://www.w3.org/2000/svg"><g><path d="M16.8381 5.54792L19.5611 4.97162C17.3306 3.76903 15.269 2.86912 12.4582 2.34013C12.1404 2.28032 11.8146 2.38462 11.5897 2.61698C9.13936 5.14823 6.42551 8.73822 5.4458 12.2394C5.3176 12.6975 4.91174 13.0338 4.43599 13.0338H1.7002C1.7002 16.0918 3.97206 17.158 5.13349 17.5033C5.52943 17.621 5.85438 17.9264 6.03434 18.2982C6.86901 20.0226 9.20545 21.25 11.9504 21.25C14.6953 21.25 17.0314 20.0226 17.8661 18.2982C18.046 17.9264 18.371 17.621 18.7669 17.5033C19.9283 17.158 22.2002 16.0918 22.2002 13.0338H19.4647C18.989 13.0338 18.5824 12.698 18.4566 12.2392C18.0024 10.5832 17.1598 8.74012 16.191 7.24737C15.7782 6.61138 16.0964 5.70491 16.8381 5.54792Z" stroke="currentColor" stroke-width="1.5" stroke-linecap="round" stroke-linejoin="round"></path><path d="M18 11.2502C13 10.25 11 10.2499 6 11.2502" stroke="currentColor" stroke-width="1.5" stroke-linecap="round" stroke-linejoin="round"></path></g></svg>