<svg width="24px" height="24px" viewBox="0 0 24 24" fill="none" xmlns="http://www.w3.org/2000/svg"><g><path d="M4.75 14.25V10.75C4.75 8.54086 2.95914 6.75 0.75 6.75V10.25C0.75 12.4591 2.54086 14.25 4.75 14.25Z" stroke="currentColor" stroke-width="1.5" stroke-linejoin="round"></path><path d="M19.25 14.25V10.75C19.25 8.54086 21.0409 6.75 23.25 6.75V10.25C23.25 12.4591 21.4591 14.25 19.25 14.25Z" stroke="currentColor" stroke-width="1.5" stroke-linejoin="round"></path><path d="M19.25 14.25V10.75C19.25 6.88401 16.116 3.75 12.25 3.75H11.75C7.88401 3.75 4.75 6.88401 4.75 10.75V14.25C4.75 17.5637 7.43629 20.25 10.75 20.25H13.25C16.5637 20.25 19.25 17.5637 19.25 14.25Z" stroke="currentColor" stroke-width="1.5" stroke-linejoin="round"></path><path d="M14.6286 14.7793C12.7427 15.3236 11.2573 15.3236 9.37145 14.7793C8.99162 14.6696 8.63368 15.0062 8.81389 15.3581C10.1058 17.8806 13.8942 17.8806 15.1861 15.3581C15.3663 15.0062 15.0084 14.6696 14.6286 14.7793Z" fill="currentColor"></path><ellipse cx="9.5" cy="11.25" rx="1.5" ry="1.25" fill="currentColor"></ellipse><ellipse cx="14.5" cy="11.25" rx="1.5" ry="1.25" fill="currentColor"></ellipse></g></svg>