<svg width="24px" height="24px" viewBox="0 0 24 24" fill="none" xmlns="http://www.w3.org/2000/svg"><g><circle cx="12" cy="10" r="7.75" stroke="currentColor" stroke-width="1.5" stroke-linecap="round" stroke-linejoin="round"></circle><path d="M7.75 16.5V22.25L12 21.2L16.25 22.25V16.5" stroke="currentColor" stroke-width="1.5" stroke-linecap="round" stroke-linejoin="round"></path><path d="M11.8789 6.00008C12.4312 6.00008 12.8789 6.4478 12.8789 7.00007V13.1543C12.8789 13.6214 12.5003 14 12.0332 14C11.5661 14 11.1875 13.6214 11.1875 13.1543V7.64194C11.1875 7.62184 11.1712 7.60554 11.1511 7.60554C11.1443 7.60554 11.1376 7.60746 11.1318 7.6111L10.2828 8.14328C9.85904 8.40891 9.30859 8.10431 9.30859 7.6042C9.30859 7.38614 9.42026 7.18328 9.60449 7.06663L11.0441 6.15519C11.3031 5.9912 11.5858 6.00008 11.8789 6.00008Z" fill="currentColor"></path></g></svg>