<svg width="24px" height="24px" viewBox="0 0 24 24" fill="none" xmlns="http://www.w3.org/2000/svg"><g><path d="M2.15353 16.9529L3.63131 12.2029C3.76138 11.7848 4.14831 11.5 4.58617 11.5H9.41383C9.85169 11.5 10.2386 11.7848 10.3687 12.2029L11.8465 16.9529C12.0467 17.5966 11.5657 18.25 10.8916 18.25H3.10839C2.43428 18.25 1.95328 17.5966 2.15353 16.9529Z" stroke="currentColor" stroke-width="1.5" stroke-linejoin="round"></path><path d="M7.15353 10.2029L8.63131 5.45293C8.76138 5.03485 9.14831 4.75 9.58617 4.75H14.4138C14.8517 4.75 15.2386 5.03485 15.3687 5.45293L16.8465 10.2029C17.0467 10.8466 16.5657 11.5 15.8916 11.5H8.10839C7.43428 11.5 6.95328 10.8466 7.15353 10.2029Z" stroke="currentColor" stroke-width="1.5" stroke-linejoin="round"></path><path d="M12.1535 16.9529L13.6313 12.2029C13.7614 11.7848 14.1483 11.5 14.5862 11.5H19.4138C19.8517 11.5 20.2386 11.7848 20.3687 12.2029L21.8465 16.9529C22.0467 17.5966 21.5657 18.25 20.8916 18.25H13.1084C12.4343 18.25 11.9533 17.5966 12.1535 16.9529Z" stroke="currentColor" stroke-width="1.5" stroke-linejoin="round"></path></g></svg>