<svg width="24px" height="24px" viewBox="0 0 24 24" fill="none" xmlns="http://www.w3.org/2000/svg"><g><path d="M12.25 12.7502C12.8023 12.7502 13.25 12.3025 13.25 11.7502C13.25 11.6729 13.2412 11.5976 13.2246 11.5254C13.6688 11.6273 14 12.025 14 12.5001C14 13.0523 13.5523 13.5001 13 13.5001C12.525 13.5001 12.1274 13.1689 12.0254 12.7249C12.0976 12.7414 12.1728 12.7502 12.25 12.7502Z" fill="currentColor"></path><path d="M9.72463 12.2502C10.2769 12.2502 10.7246 11.8025 10.7246 11.2502C10.7246 11.1729 10.7159 11.0977 10.6993 11.0254C11.1434 11.1274 11.4746 11.5251 11.4746 12.0001C11.4746 12.5524 11.0269 13.0001 10.4746 13.0001C9.99964 13.0001 9.602 12.669 9.5 12.2249C9.57221 12.2415 9.6474 12.2502 9.72463 12.2502Z" fill="currentColor"></path><path d="M11.7246 10.2502C12.2769 10.2502 12.7246 9.80253 12.7246 9.25024C12.7246 9.17295 12.7159 9.0977 12.6993 9.02545C13.1434 9.12739 13.4746 9.52507 13.4746 10.0001C13.4746 10.5524 13.0269 11.0001 12.4746 11.0001C11.9996 11.0001 11.602 10.669 11.5 10.2249C11.5722 10.2415 11.6474 10.2502 11.7246 10.2502Z" fill="currentColor"></path><path d="M13.75 8.27551C14.3023 8.27551 14.75 7.8278 14.75 7.27551C14.75 7.19822 14.7412 7.12298 14.7246 7.05072C15.1688 7.15266 15.5 7.55034 15.5 8.02539C15.5 8.57768 15.0523 9.02539 14.5 9.02539C14.025 9.02539 13.6274 8.69422 13.5254 8.25018C13.5976 8.26676 13.6728 8.27551 13.75 8.27551Z" fill="currentColor"></path><path d="M14.2246 10.7502C14.7769 10.7502 15.2246 10.3025 15.2246 9.75024C15.2246 9.67295 15.2159 9.5977 15.1993 9.52545C15.6434 9.62739 15.9746 10.0251 15.9746 10.5001C15.9746 11.0524 15.5269 11.5001 14.9746 11.5001C14.4996 11.5001 14.102 11.169 14 10.7249C14.0722 10.7415 14.1474 10.7502 14.2246 10.7502Z" fill="currentColor"></path><path d="M18.75 9.5C18.75 13.2279 15.7279 16.25 12 16.25C8.27208 16.25 5.25 13.2279 5.25 9.5C5.25 5.77208 8.27208 2.75 12 2.75C15.7279 2.75 18.75 5.77208 18.75 9.5Z" stroke="currentColor" stroke-width="1.5" stroke-linecap="round" stroke-linejoin="round"></path><path d="M15.25 17.75C13.4551 17.75 12 19.317 12 21.25C12 19.317 10.5449 17.75 8.75 17.75" stroke="currentColor" stroke-width="1.5" stroke-linecap="round" stroke-linejoin="round"></path></g></svg>