<svg width="24px" height="24px" viewBox="0 0 24 24" fill="none" xmlns="http://www.w3.org/2000/svg"><g><path d="M10.1924 4.84919H6.93008C6.27882 4.84919 5.65443 5.10792 5.19382 5.56835C4.73322 6.02878 4.47402 6.65333 4.47378 7.30461V17.6211C4.47378 18.2725 4.73235 18.8976 5.19294 19.3582C5.65357 19.8189 6.27865 20.0774 6.93008 20.0774H17.2483C17.8996 20.0773 18.524 19.8187 18.9846 19.3582C19.4452 18.8976 19.7046 18.2725 19.7046 17.6211V13.3026L21.1775 12.2917V17.622C21.1773 18.6642 20.7635 19.6641 20.0265 20.401C19.2897 21.1378 18.2904 21.5517 17.2483 21.552H6.93008C5.88786 21.5518 4.88796 21.138 4.151 20.401C3.4141 19.6641 3.00024 18.6641 3 17.622V7.30549C2.99988 6.78932 3.10139 6.27759 3.29884 5.80067C3.49628 5.32385 3.78612 4.89049 4.151 4.52553C4.5159 4.1606 4.94938 3.87088 5.42615 3.67336C5.90292 3.47589 6.41404 3.37452 6.93008 3.37452H11.057L10.1924 4.84919Z" fill="currentColor"></path><path d="M17.3618 1.03882C17.4935 1.03882 17.6059 1.13334 17.6341 1.26228C17.892 2.46109 18.4906 3.56022 19.3588 4.42621C20.2249 5.29483 21.3244 5.89388 22.5236 6.15183C22.6524 6.18002 22.7469 6.29168 22.7471 6.42406C22.7463 6.48772 22.7237 6.54959 22.6832 6.59875C22.6427 6.6479 22.586 6.68163 22.5236 6.69452C21.3246 6.95265 20.2256 7.55247 19.3597 8.42103C18.4797 9.29828 17.8759 10.4144 17.6234 11.6311C17.6111 11.6915 17.5788 11.746 17.5312 11.7854C17.4836 11.8247 17.4236 11.8468 17.3618 11.8474C17.3002 11.8467 17.2408 11.8246 17.1933 11.7854C17.1457 11.746 17.1125 11.6916 17.1002 11.6311C16.8477 10.4145 16.2448 9.29825 15.3649 8.42103C14.4877 7.54104 13.3714 6.93731 12.1548 6.68477C12.0944 6.67252 12.0399 6.64003 12.0005 6.59254C11.9612 6.54495 11.9391 6.48492 11.9385 6.42317C11.9386 6.29617 12.0296 6.18699 12.1548 6.16158C13.3714 5.90902 14.4877 5.30616 15.3649 4.42621C16.2333 3.56029 16.8323 2.4612 17.0905 1.26228C17.1034 1.19961 17.1377 1.14331 17.1871 1.10266C17.2365 1.06211 17.298 1.03945 17.3618 1.03882Z" fill="currentColor"></path></g></svg>