<svg width="24px" height="24px" viewBox="0 0 24 24" fill="none" xmlns="http://www.w3.org/2000/svg"><g><path d="M0.944183 8.90938L11.9577 3.76973C11.9845 3.75723 12.0155 3.75723 12.0423 3.76973L23.0558 8.90938C23.1328 8.94529 23.1328 9.05471 23.0558 9.09062L12.0423 14.2303C12.0155 14.2428 11.9845 14.2428 11.9577 14.2303L0.944182 9.09062C0.867234 9.05471 0.867234 8.94529 0.944183 8.90938Z" stroke="currentColor" stroke-width="1.5"></path><path d="M4.75 11V16.25" stroke="currentColor" stroke-width="1.5"></path><ellipse cx="12" cy="9.0001" rx="2.25" ry="1.15" fill="currentColor"></ellipse><path d="M19.5 18H19C18.7239 18 18.5 18.2239 18.5 18.5V21C18.5 21.2761 18.7239 21.5 19 21.5H19.5C19.7761 21.5 20 21.2761 20 21V18.5C20 18.2239 19.7761 18 19.5 18Z" fill="currentColor" stroke="currentColor"></path><path d="M4.75 16.25C4.75 18.183 7.99594 19.75 12 19.75C13.2693 19.75 14.4623 19.5925 15.5 19.3159" stroke="currentColor" stroke-width="1.5" stroke-linecap="round"></path><path d="M12 9L17.1823 11.8592C18.4579 12.563 19.25 13.9046 19.25 15.3615V20" stroke="currentColor" stroke-width="1.5"></path></g></svg>