<svg width="24px" height="24px" viewBox="0 0 24 24" fill="none" xmlns="http://www.w3.org/2000/svg"><g><path d="M1.75 19.25L22.25 19.25" stroke="currentColor" stroke-width="1.5" stroke-linecap="round" stroke-linejoin="round"></path><path d="M4.10714 18.75C4.06357 15.4283 3.8236 12.3705 2.25 9.25C7.82143 11.2292 8.75 14 8.75 18.75" stroke="currentColor" stroke-width="1.5" stroke-linecap="round" stroke-linejoin="round"></path><path d="M8.85294 19.25C8.80246 15.6899 8.32281 7.59449 6.5 4.25C14.0294 6.79545 14.5 14.1591 14.5 19.25" stroke="currentColor" stroke-width="1.5" stroke-linecap="round" stroke-linejoin="round"></path><path d="M13 9C14.0842 6.7192 14.9314 4.91821 18.25 3.75C17.013 6 17.013 8.5 17.013 11.25" stroke="currentColor" stroke-width="1.5" stroke-linecap="round" stroke-linejoin="round"></path><path d="M19.8571 19C19.9074 15.3286 20.1843 11.949 22 8.5C15.6376 10.9805 14.5 13.75 14.5 19" stroke="currentColor" stroke-width="1.5" stroke-linecap="round" stroke-linejoin="round"></path></g></svg>