<svg width="24px" height="24px" viewBox="0 0 24 24" fill="none" xmlns="http://www.w3.org/2000/svg"><g><path d="M11.25 7C11.25 8.79493 9.79493 10.25 8 10.25C6.20507 10.25 4.75 8.79493 4.75 7C4.75 5.20507 6.20507 3.75 8 3.75C9.79493 3.75 11.25 5.20507 11.25 7Z" stroke="currentColor" stroke-width="1.5" stroke-linecap="round" stroke-linejoin="round"></path><path d="M19.75 7.5C19.75 9.01878 18.5188 10.25 17 10.25C15.4812 10.25 14.25 9.01878 14.25 7.5C14.25 5.98122 15.4812 4.75 17 4.75C18.5188 4.75 19.75 5.98122 19.75 7.5Z" stroke="currentColor" stroke-width="1.5" stroke-linecap="round" stroke-linejoin="round"></path><path d="M7.9998 12.75C4.85865 12.75 2.85968 14.9867 2.08106 18.126C1.80134 19.2539 2.73936 20.25 3.90137 20.25H12.0982C13.2602 20.25 14.1983 19.2539 13.9185 18.126C13.1399 14.9867 11.1409 12.75 7.9998 12.75Z" stroke="currentColor" stroke-width="1.5" stroke-linecap="round" stroke-linejoin="round"></path><path d="M17.7516 19.25H20.3476C21.5105 19.25 22.4539 18.2489 22.1353 17.1305C21.4023 14.557 19.6704 12.75 17.0016 12.75C16.5555 12.75 16.1356 12.8005 15.7422 12.8966" stroke="currentColor" stroke-width="1.5" stroke-linecap="round" stroke-linejoin="round"></path></g></svg>