<svg width="24px" height="24px" viewBox="0 0 24 24" fill="none" xmlns="http://www.w3.org/2000/svg"><g><path d="M10.75 7C10.75 8.79493 9.29493 10.25 7.5 10.25C5.70507 10.25 4.25 8.79493 4.25 7C4.25 5.20507 5.70507 3.75 7.5 3.75C9.29493 3.75 10.75 5.20507 10.75 7Z" stroke="currentColor" stroke-width="1.5" stroke-linecap="round" stroke-linejoin="round"></path><path d="M19.75 7C19.75 8.79493 18.2949 10.25 16.5 10.25C14.7051 10.25 13.25 8.79493 13.25 7C13.25 5.20507 14.7051 3.75 16.5 3.75C18.2949 3.75 19.75 5.20507 19.75 7Z" stroke="currentColor" stroke-width="1.5" stroke-linecap="round" stroke-linejoin="round"></path><path d="M1.33979 18.1286C1.04513 19.2505 1.98451 20.25 3.14446 20.25H11.7097C12.8697 20.25 13.809 19.2505 13.5144 18.1286C11.6308 10.9571 3.22332 10.9571 1.33979 18.1286Z" stroke="currentColor" stroke-width="1.5" stroke-linecap="round" stroke-linejoin="round"></path><path d="M14.4258 13.1804C17.56 11.8786 21.4542 13.5297 22.6609 18.1336C22.955 19.2557 22.0148 20.25 20.8549 20.25H16.2507" stroke="currentColor" stroke-width="1.5" stroke-linecap="round" stroke-linejoin="round"></path></g></svg>