<svg width="24px" height="24px" viewBox="0 0 24 24" fill="none" xmlns="http://www.w3.org/2000/svg"><g><path d="M9.25 9.75C7.317 9.75 5.75 8.183 5.75 6.25C5.75 4.317 7.317 2.75 9.25 2.75C11.183 2.75 12.75 4.317 12.75 6.25C12.75 8.183 11.183 9.75 9.25 9.75Z" stroke="currentColor" stroke-width="1.5" stroke-linecap="round" stroke-linejoin="round"></path><path d="M15 2.75C16.933 2.75 18.5 4.317 18.5 6.25C18.5 8.183 16.933 9.75 15 9.75" stroke="currentColor" stroke-width="1.5" stroke-linecap="round" stroke-linejoin="round"></path><path d="M9.24806 12.75C5.46395 12.75 2.27489 15.1517 1.30259 18.2496C0.971822 19.3035 1.89349 20.2187 2.99806 20.2188H15.4981C16.6026 20.2188 17.5243 19.3035 17.1935 18.2496C16.2212 15.1517 13.0322 12.75 9.24806 12.75Z" stroke="currentColor" stroke-width="1.5" stroke-linecap="round" stroke-linejoin="round"></path><path d="M20.75 20.25H21.25C22.3546 20.25 23.2748 19.3347 22.9405 18.2819C22.2598 16.1389 20.512 14.31 18.25 13.5088" stroke="currentColor" stroke-width="1.5" stroke-linecap="round" stroke-linejoin="round"></path></g></svg>