<svg width="24px" height="24px" viewBox="0 0 24 24" fill="none" xmlns="http://www.w3.org/2000/svg"><g><circle cx="12" cy="12" r="8.75" stroke="currentColor" stroke-width="1.5" stroke-linecap="round"></circle><path d="M13.7683 10.2322C16.8924 13.3564 18.6336 16.6805 17.6573 17.6568C16.681 18.6332 13.3569 16.892 10.2327 13.7678C7.10852 10.6436 5.36732 7.31945 6.34363 6.34314C7.31994 5.36683 10.6441 7.10803 13.7683 10.2322Z" stroke="currentColor" stroke-width="1.5" stroke-linecap="round"></path><path d="M10.2308 10.2322C7.10657 13.3564 5.36537 16.6805 6.34168 17.6568C7.31799 18.6332 10.6421 16.892 13.7663 13.7678C16.8905 10.6436 18.6317 7.31945 17.6554 6.34314C16.6791 5.36683 13.355 7.10803 10.2308 10.2322Z" stroke="currentColor" stroke-width="1.5" stroke-linecap="round"></path><path d="M18 6L20.5 3.5" stroke="currentColor" stroke-width="1.5" stroke-linecap="round"></path><path d="M3.5 20.5L6 18" stroke="currentColor" stroke-width="1.5" stroke-linecap="round"></path></g></svg>