<svg width="24px" height="24px" viewBox="0 0 24 24" fill="none" xmlns="http://www.w3.org/2000/svg"><g><path d="M6.60333 15.0366C6.21233 15.4299 5.57595 15.4299 5.18496 15.0366L2.20097 12.035C1.81322 11.645 1.81322 11.015 2.20097 10.625L9.73649 3.04498C9.9242 2.85617 10.1794 2.75 10.4457 2.75L14.2664 2.75C14.5326 2.75 14.7879 2.85617 14.9756 3.04498L16.0492 4.12495C16.437 4.51499 16.437 5.14495 16.0492 5.53499L6.60333 15.0366Z" stroke="currentColor" stroke-width="1.5" stroke-linecap="round" stroke-linejoin="round"></path><path d="M9.5 12.5L16.3358 19.3358C17.1168 20.1168 18.3832 20.1168 19.1642 19.3358L19.3358 19.1642C20.1168 18.3832 20.1168 17.1168 19.3358 16.3358L12.5 9.5" stroke="currentColor" stroke-width="1.5" stroke-linecap="round" stroke-linejoin="round"></path></g></svg>