<svg width="24px" height="24px" viewBox="0 0 24 24" fill="none" xmlns="http://www.w3.org/2000/svg"><g><path d="M10.75 10.25L4.25 16.75C3.42157 17.5784 3.42157 18.9216 4.25 19.75C5.07843 20.5784 6.42157 20.5784 7.25 19.75L13.75 13.25" stroke="currentColor" stroke-width="1.5" stroke-linecap="round" stroke-linejoin="round"></path><path d="M10.75 10.25L13.75 13.25L14.5638 13.0819C15.5965 12.8685 16.5648 13.6572 16.5648 14.7118C16.8717 15.019 17.0252 15.1726 17.1942 15.2481C17.4536 15.3639 17.7501 15.3639 18.0096 15.2481C18.1786 15.1726 18.332 15.019 18.6389 14.7118L20.713 12.6353C21.0215 12.3265 21.1757 12.1721 21.251 12.0018C21.3651 11.744 21.3651 11.4501 21.251 11.1924C21.1757 11.0221 21.0214 10.8677 20.713 10.5589H19.6759C19.4565 10.3391 19.2145 10.1296 19.0322 9.8772C18.4085 9.01363 18.875 7.97128 18.3777 7.07549C18.3126 6.95813 18.2567 6.88241 18.1449 6.73095C15.6436 3.34234 12.2971 2.21719 8.19285 2.97641C7.93397 3.0243 7.75 3.25303 7.75 3.51631C7.75 3.71841 7.86018 3.90406 8.03383 4.00744C10.5508 5.50591 11.2924 7.22105 10.75 10.25Z" stroke="currentColor" stroke-width="1.5" stroke-linecap="round" stroke-linejoin="round"></path></g></svg>