<svg width="24px" height="24px" viewBox="0 0 24 24" fill="none" xmlns="http://www.w3.org/2000/svg"><g><path d="M8.14637 19.4755C7.14623 20.4756 5.52467 20.4756 4.52452 19.4755C3.52438 18.4753 3.52438 16.8538 4.52452 15.8536" stroke="currentColor" stroke-width="1.5" stroke-linejoin="round"></path><path d="M10.2209 20.5257L3.47437 13.7791C3.07431 13.379 3.07431 12.7304 3.47437 12.3303C3.66648 12.1382 3.92705 12.0303 4.19874 12.0303H4.99481C5.52525 12.0303 6.03395 11.8196 6.40903 11.4445L7.87207 9.98147C9.19479 8.65875 11.158 8.36684 12.7634 9.10573C13.218 9.31498 13.644 9.60689 14.0186 9.98147C14.3931 10.3561 14.6851 10.782 14.8943 11.2366C15.6332 12.8421 15.3413 14.8052 14.0186 16.128L12.5555 17.591C12.1804 17.9661 11.9697 18.4748 11.9697 19.0052V19.8013C11.9697 20.073 11.8618 20.3335 11.6697 20.5257C11.2696 20.9257 10.621 20.9257 10.2209 20.5257Z" stroke="currentColor" stroke-width="1.5" stroke-linejoin="round"></path><path d="M15.0658 11.1039L20.322 7.03449C21.4617 6.15217 21.5683 4.46995 20.5492 3.45081C19.53 2.43167 17.8478 2.53829 16.9655 3.67795L12.8953 8.93534" stroke="currentColor" stroke-width="1.5" stroke-linejoin="round"></path></g></svg>