<svg width="24px" height="24px" viewBox="0 0 24 24" fill="none" xmlns="http://www.w3.org/2000/svg"><g><path d="M11.8297 5.48136C9.5212 3.17288 5.77841 3.17288 3.46993 5.48136C1.31715 7.63414 1.13585 11.0857 3.20619 13.3179C5.57507 15.8719 8.07813 18.4957 10.745 20.8328C11.4647 21.4634 12.5353 21.4634 13.255 20.8328C15.9219 18.4957 18.4249 15.8719 20.7938 13.3179C22.8641 11.0857 22.6828 7.63414 20.5301 5.48136C18.2216 3.17288 14.4788 3.17288 12.1703 5.48136L8.73736 8.91432C8.13672 9.51496 8.13672 10.4888 8.73736 11.0894C9.93863 12.2907 11.8863 12.2907 13.0875 11.0894L13.8306 10.3463C14.2211 9.95586 14.8542 9.9558 15.2447 10.3462L19.14 14.24" stroke="currentColor" stroke-width="1.5" stroke-linecap="round" stroke-linejoin="round"></path></g></svg>