<svg width="24px" height="24px" viewBox="0 0 24 24" fill="none" xmlns="http://www.w3.org/2000/svg"><g><path d="M15.75 7.75V6.75C15.75 5.64543 16.6454 4.75 17.75 4.75C18.8546 4.75 19.75 5.64543 19.75 6.75V10.75M19.75 11.25V14.0792C19.75 18.0395 16.5395 21.25 12.5792 21.25C9.91687 21.25 7.47366 19.775 6.23368 17.419L3.25 11.75L4.00061 10.8117C4.69063 9.94921 5.94921 9.80937 6.81174 10.4994L7.75 11.25V10.25M7.75 10V5.75C7.75 4.64543 8.64543 3.75 9.75 3.75C10.8546 3.75 11.75 4.64543 11.75 5.75V10.25M11.75 7.75V4.75C11.75 3.64543 12.6454 2.75 13.75 2.75C14.8546 2.75 15.75 3.64543 15.75 4.75V11" stroke="currentColor" stroke-width="1.5" stroke-linecap="round" stroke-linejoin="round"></path></g></svg>