<svg width="24px" height="24px" viewBox="0 0 24 24" fill="none" xmlns="http://www.w3.org/2000/svg"><g><path d="M19.25 11.75V19.25C19.25 20.3546 18.3546 21.25 17.25 21.25H6.75C5.64543 21.25 4.75 20.3546 4.75 19.25V11.75" stroke="currentColor" stroke-width="1.5" stroke-linecap="round" stroke-linejoin="round"></path><path d="M21.25 11.75H2.75" stroke="currentColor" stroke-width="1.5" stroke-linecap="round" stroke-linejoin="round"></path><path d="M13.0024 11.3409C13.0428 7.97648 13.5658 5.53358 15.0544 4.04673C16.6027 2.50024 20.7072 7.12797 20.7072 7.12797L17.4999 8.00027C17.4999 8.90998 17.6263 9.99294 16.8754 11.3409" stroke="currentColor" stroke-width="1.5" stroke-linecap="round" stroke-linejoin="round"></path><path d="M7.03491 11.3407C6.86947 10.7169 6.72751 10.1523 6.61698 9.37715C6.05195 5.41447 7.66719 1.75 7.66719 1.75C7.66719 1.75 10.1985 4.51031 10.7636 8.47299C10.9201 9.57102 10.9972 10.4328 11.0025 11.3407" stroke="currentColor" stroke-width="1.5" stroke-linecap="round" stroke-linejoin="round"></path></g></svg>