<svg width="24px" height="24px" viewBox="0 0 24 24" fill="none" xmlns="http://www.w3.org/2000/svg"><g><path d="M18.25 13V18.9111C18.25 19.7134 17.7716 20.4479 16.9963 20.6544C15.5916 21.0285 13.7943 21.25 12 21.25C10.2057 21.25 8.4084 21.0285 7.00368 20.6544C6.22837 20.4479 5.75 19.7134 5.75 18.9111V13" stroke="currentColor" stroke-width="1.5" stroke-linecap="round"></path><path d="M20.25 11C20.25 12.2426 16.5563 13.25 12 13.25C7.44365 13.25 3.75 12.2426 3.75 11C3.75 9.75736 7.44365 8.75 12 8.75C16.5563 8.75 20.25 9.75736 20.25 11Z" stroke="currentColor" stroke-width="1.5"></path><path d="M13.5528 1.89454C13.7371 1.52602 14.2631 1.52605 14.4474 1.89454L14.9259 2.85065C14.9743 2.94741 15.0528 3.02591 15.1496 3.07429L16.1057 3.55283C16.4742 3.7371 16.4742 4.26313 16.1057 4.4474L15.1496 4.92594C15.0528 4.97433 14.9743 5.05282 14.9259 5.14959L14.4474 6.10569C14.2631 6.47423 13.7371 6.47423 13.5528 6.10569L13.0743 5.14959C13.0259 5.05282 12.9474 4.97433 12.8506 4.92594L11.8945 4.4474C11.5261 4.26311 11.526 3.73709 11.8945 3.55283L12.8506 3.07429C12.9474 3.02591 13.0259 2.94741 13.0743 2.85065L13.5528 1.89454Z" fill="currentColor"></path><path d="M9.35797 3.21497C9.21044 2.92058 8.78961 2.92048 8.64217 3.21497L8.22617 4.04695C8.18747 4.12436 8.12488 4.18695 8.04747 4.22565L7.21546 4.64165C6.92096 4.78908 6.92107 5.2099 7.21546 5.35743L8.04747 5.77342L8.10313 5.80662C8.15513 5.84416 8.19716 5.89422 8.22617 5.95212L8.40292 6.30659L8.64217 6.7841C8.78041 7.06056 9.15955 7.07791 9.3277 6.83586L9.35797 6.7841L9.77397 5.95212C9.81266 5.87482 9.87537 5.8121 9.95268 5.77342L10.3072 5.59569L10.7847 5.35743C11.0795 5.21001 11.0795 4.78904 10.7847 4.64165L9.95268 4.22565C9.89478 4.19665 9.84472 4.15461 9.80718 4.10261L9.77397 4.04695L9.35797 3.21497Z" fill="currentColor"></path></g></svg>