<svg width="24px" height="24px" viewBox="0 0 24 24" fill="none" xmlns="http://www.w3.org/2000/svg"><g><path d="M19.25 4.75H4.75C3.64543 4.75 2.75 5.64543 2.75 6.75V17.25C2.75 18.3546 3.64543 19.25 4.75 19.25H19.25C20.3546 19.25 21.25 18.3546 21.25 17.25V6.75C21.25 5.64543 20.3546 4.75 19.25 4.75Z" stroke="currentColor" stroke-width="1.5" stroke-linecap="square" stroke-linejoin="round"></path><path d="M6.1748 15.5928C5.71094 15.5928 5.4375 15.3096 5.4375 14.8262V9.12793C5.4375 8.63965 5.71094 8.35645 6.1748 8.35645C6.63867 8.35645 6.91211 8.63965 6.91211 9.12793V11.3154H10.0859V9.12793C10.0859 8.63965 10.3594 8.35645 10.8232 8.35645C11.2871 8.35645 11.5605 8.63965 11.5605 9.12793V14.8262C11.5605 15.3096 11.2871 15.5928 10.8232 15.5928C10.3594 15.5928 10.0859 15.3096 10.0859 14.8262V12.5312H6.91211V14.8262C6.91211 15.3096 6.63867 15.5928 6.1748 15.5928Z" fill="currentColor"></path><path d="M13.4697 15.5C13.0059 15.5 12.7324 15.2168 12.7324 14.7285V9.2207C12.7324 8.7373 13.0059 8.4541 13.4697 8.4541H15.4229C17.5371 8.4541 18.7822 9.71387 18.7822 11.9502C18.7822 14.1865 17.5371 15.5 15.4229 15.5H13.4697ZM14.207 14.2793H15.2471C16.5654 14.2793 17.2783 13.4785 17.2783 11.9551C17.2783 10.4805 16.5459 9.66992 15.2471 9.66992H14.207V14.2793Z" fill="currentColor"></path></g></svg>