<svg width="24px" height="24px" viewBox="0 0 24 24" fill="none" xmlns="http://www.w3.org/2000/svg"><g><circle cx="11" cy="12" r="6" stroke="currentColor" stroke-width="1.5" stroke-linecap="round"></circle><path d="M13.5977 6.5C14.3331 6.17841 15.1454 6 15.9994 6C19.3131 6 21.9994 8.68629 21.9994 12C21.9994 15.3137 19.3131 18 15.9994 18C15.1454 18 14.3331 17.8216 13.5977 17.5" stroke="currentColor" stroke-width="1.5" stroke-linecap="round"></path><path d="M11 22.25L11.0001 20.75M11.0001 3.25V1.75M3.75217 19.2478L4.8129 18.1872M4.81283 5.81285L3.75217 4.75219M0.75 12H2.25M10.8029 9C10.2923 9.88261 10 10.9074 10 12.0004C10 13.2271 10.3682 14.3679 11 15.3182" stroke="currentColor" stroke-width="1.5" stroke-linecap="round"></path></g></svg>