<svg width="24px" height="24px" viewBox="0 0 24 24" fill="none" xmlns="http://www.w3.org/2000/svg"><g><path d="M3.75 13.75V12C3.75 7.44365 7.44365 3.75 12 3.75C16.5563 3.75 20.25 7.44365 20.25 12V13.75M3.75 13.75V18.25C3.75 19.3546 4.64543 20.25 5.75 20.25C6.85457 20.25 7.75 19.3546 7.75 18.25V15.75C7.75 14.6454 6.85457 13.75 5.75 13.75H3.75ZM20.25 13.75V18.25C20.25 19.3546 19.3546 20.25 18.25 20.25C17.1454 20.25 16.25 19.3546 16.25 18.25V15.75C16.25 14.6454 17.1454 13.75 18.25 13.75H20.25Z" stroke="currentColor" stroke-width="1.5" stroke-linecap="square" stroke-linejoin="round"></path></g></svg>