<svg width="24px" height="24px" viewBox="0 0 24 24" fill="none" xmlns="http://www.w3.org/2000/svg"><g><path d="M16.25 18.1667H15.25C14.6977 18.1667 14.25 18.6144 14.25 19.1667V20.25C14.25 20.8023 13.8023 21.25 13.25 21.25H7.75C7.19772 21.25 6.75186 20.8021 6.75702 20.2498C6.77712 18.0977 6.75669 16.2536 5.28425 14.3811C4.3231 13.1588 3.75 11.6184 3.75 9.94444C3.75 5.97106 6.97898 2.75 10.9621 2.75C13.8984 2.75 16.6018 4.15584 17.7163 6.99759C18.3584 8.63502 19.1865 9.92 20.126 11.3209C20.4584 11.8164 20.2859 12.4898 19.7558 12.7637L18.791 13.2622C18.4587 13.4338 18.25 13.7766 18.25 14.1506V16.1667C18.25 17.2712 17.3546 18.1667 16.25 18.1667Z" stroke="currentColor" stroke-width="1.5" stroke-linecap="square" stroke-linejoin="round"></path></g></svg>