<svg width="24px" height="24px" viewBox="0 0 24 24" fill="none" xmlns="http://www.w3.org/2000/svg"><g><path d="M12 10.9688L11.6212 5.66555C11.5441 4.58624 10.646 3.75 9.56394 3.75H2.71875L2.71875 4.78125C2.71875 5.92034 3.64216 6.84375 4.78125 6.84375H7.25" stroke="currentColor" stroke-width="1.5" stroke-linecap="round" stroke-linejoin="round"></path><path d="M7.875 9.9375H4.78125V10.9688C4.78125 12.1078 5.70466 13.0312 6.84375 13.0312H9.9375" stroke="currentColor" stroke-width="1.5" stroke-linecap="round" stroke-linejoin="round"></path><path d="M6.84375 6.84375H3.75V7.875C3.75 9.01409 4.67341 9.9375 5.8125 9.9375H8.25" stroke="currentColor" stroke-width="1.5" stroke-linecap="round" stroke-linejoin="round"></path><circle cx="12.0031" cy="12.9289" r="1.75313" stroke="currentColor" stroke-width="1.5" stroke-linecap="round" stroke-linejoin="round"></circle><path d="M6.8125 13.0312V15.9171C6.8125 16.3855 6.65311 16.8399 6.36054 17.2056L4.91729 19.0096C4.809 19.145 4.75 19.3132 4.75 19.4866C4.75 19.9082 5.09181 20.25 5.51345 20.25H8.18394C9.65048 20.25 11.0916 19.8673 12.3649 19.1397C13.4618 18.5129 14.6855 18.1408 15.9455 18.0508L19.3344 17.8087C20.4138 17.7316 21.25 16.8335 21.25 15.7514V15.1962C21.25 14.8174 21.036 14.4711 20.6972 14.3017L19.1875 13.5469C18.8955 10.3346 16.2021 7.875 12.9766 7.875H11.9688" stroke="currentColor" stroke-width="1.5" stroke-linecap="round" stroke-linejoin="round"></path></g></svg>