<svg width="24px" height="24px" viewBox="0 0 24 24" fill="none" xmlns="http://www.w3.org/2000/svg"><g><path d="M10.75 13.25H13.1882C13.7193 13.25 14.2285 13.0388 14.6037 12.663L20.0892 7.16739C20.8687 6.38648 20.8685 5.12181 20.0888 4.34113L19.6642 3.916C18.8833 3.13413 17.6163 3.13374 16.8349 3.91513L11.3358 9.41427C10.9607 9.78934 10.75 10.2981 10.75 10.8285V13.25Z" stroke="currentColor" stroke-width="1.5" stroke-linecap="round" stroke-linejoin="round"></path><path d="M11.8549 21.25C10.823 20.9894 8.6953 20.3424 6.40579 18.0284C2.57878 14.1605 1.59907 8.87966 4.21755 6.23323C6.36902 4.05879 10.5504 4.18522 14 6.5" stroke="currentColor" stroke-width="1.5" stroke-linecap="round" stroke-linejoin="round"></path><path d="M17.4997 10C20.4768 13.473 21.3595 16.7968 19.0754 18.6436C17.3643 20.0271 15.199 18.4271 13.9355 17.1938" stroke="currentColor" stroke-width="1.5" stroke-linecap="round" stroke-linejoin="round"></path></g></svg>