<svg width="24px" height="24px" viewBox="0 0 24 24" fill="none" xmlns="http://www.w3.org/2000/svg"><g><path d="M3.75 7.90628C3.75 7.1909 4.1321 6.52999 4.75207 6.17304L11.0021 2.57456C11.6198 2.21888 12.3802 2.21888 12.9979 2.57456L19.2479 6.17304C19.8679 6.52999 20.25 7.1909 20.25 7.90629V18.25C20.25 19.3546 19.3546 20.25 18.25 20.25H5.75C4.64543 20.25 3.75 19.3546 3.75 18.25V7.90628Z" stroke="currentColor" stroke-width="1.5" stroke-linejoin="round"></path><path d="M15 12.25C15 13.9069 13.6569 15.25 12 15.25C10.3431 15.25 9 13.9069 9 12.25C9 10.5931 10.3431 9.25 12 9.25C13.6569 9.25 15 10.5931 15 12.25Z" stroke="currentColor" stroke-width="1.5" stroke-linejoin="round"></path></g></svg>