<svg width="24px" height="24px" viewBox="0 0 24 24" fill="none" xmlns="http://www.w3.org/2000/svg"><g><path d="M3.75 10.0439V18.25C3.75 19.3546 4.64714 20.25 5.75171 20.25H18.2483C19.3529 20.25 20.25 19.3546 20.25 18.25V10.0439C20.25 9.38983 19.9302 8.77709 19.3936 8.4031L13.1436 4.04704C12.4564 3.5681 11.5436 3.5681 10.8564 4.04704L4.60641 8.4031C4.06982 8.77709 3.75 9.38983 3.75 10.0439Z" stroke="currentColor" stroke-width="1.5" stroke-linecap="round" stroke-linejoin="round"></path><path d="M16.25 20C16.25 17.6528 14.3472 15.75 12 15.75C9.65279 15.75 7.75 17.6528 7.75 20" stroke="currentColor" stroke-width="1.5" stroke-linecap="round" stroke-linejoin="round"></path><path d="M14.25 11.5C14.25 12.7426 13.2426 13.75 12 13.75C10.7574 13.75 9.75 12.7426 9.75 11.5C9.75 10.2574 10.7574 9.25 12 9.25C13.2426 9.25 14.25 10.2574 14.25 11.5Z" stroke="currentColor" stroke-width="1.5" stroke-linecap="round" stroke-linejoin="round"></path></g></svg>