<svg width="24px" height="24px" viewBox="0 0 24 24" fill="none" xmlns="http://www.w3.org/2000/svg"><g><path d="M21.5 9.30119L12.9314 3.16679C12.5963 2.92691 12.4288 2.80697 12.246 2.76058C12.0845 2.71961 11.9154 2.71961 11.754 2.76058C11.5712 2.80697 11.4037 2.92691 11.0686 3.16679L2.5 9.30119" stroke="currentColor" stroke-width="1.5" stroke-linecap="round" stroke-linejoin="round"></path><path d="M19.25 7.69037V17.05C19.25 18.1701 19.25 18.7301 19.032 19.158C18.8403 19.5343 18.5343 19.8403 18.158 20.032C17.7302 20.25 17.1701 20.25 16.05 20.25H7.95C6.82989 20.25 6.26984 20.25 5.84202 20.032C5.46569 19.8403 5.15973 19.5343 4.96799 19.158C4.75 18.7301 4.75 18.1701 4.75 17.05V7.69039" stroke="currentColor" stroke-width="1.5" stroke-linecap="round" stroke-linejoin="round"></path></g></svg>