<svg width="24px" height="24px" viewBox="0 0 24 24" fill="none" xmlns="http://www.w3.org/2000/svg"><g><path d="M19.5 9.90496V18.25H21V9.90496H19.5ZM4.5 18.25V9.90496H3V18.25H4.5ZM4.92486 8.966L11.1749 3.47358L10.1847 2.34683L3.93468 7.83925L4.92486 8.966ZM12.8251 3.47358L19.0751 8.966L20.0653 7.83925L13.8153 2.34683L12.8251 3.47358ZM11.75 15.5H12.25V14H11.75V15.5ZM13.5 16.75V19.25H15V16.75H13.5ZM10.5 19.25V16.75H9V19.25H10.5ZM8.75 19.5H5.75V21H8.75V19.5ZM15.25 21H18.25V19.5H15.25V21ZM9 19.25C9 19.3881 8.88807 19.5 8.75 19.5V21C9.7165 21 10.5 20.2165 10.5 19.25H9ZM13.5 19.25C13.5 20.2165 14.2835 21 15.25 21V19.5C15.1119 19.5 15 19.3881 15 19.25H13.5ZM12.25 15.5C12.9404 15.5 13.5 16.0596 13.5 16.75H15C15 15.2312 13.7688 14 12.25 14V15.5ZM11.75 14C10.2312 14 9 15.2312 9 16.75H10.5C10.5 16.0596 11.0596 15.5 11.75 15.5V14ZM11.1749 3.47358C11.6468 3.05885 12.3532 3.05885 12.8251 3.47358L13.8153 2.34683C12.7771 1.43443 11.2229 1.43443 10.1847 2.34683L11.1749 3.47358ZM3 18.25C3 19.7688 4.23122 21 5.75 21V19.5C5.05964 19.5 4.5 18.9404 4.5 18.25H3ZM19.5 18.25C19.5 18.9404 18.9404 19.5 18.25 19.5V21C19.7688 21 21 19.7688 21 18.25H19.5ZM21 9.90496C21 9.11401 20.6594 8.36136 20.0653 7.83925L19.0751 8.966C19.3452 9.20332 19.5 9.54544 19.5 9.90496H21ZM4.5 9.90496C4.5 9.54544 4.6548 9.20332 4.92486 8.966L3.93468 7.83925C3.34056 8.36136 3 9.11401 3 9.90496H4.5Z" fill="currentColor"></path></g></svg>