<svg width="24px" height="24px" viewBox="0 0 24 24" fill="none" xmlns="http://www.w3.org/2000/svg"><g><path d="M9.97364 3.15791L10.4486 3.73838L9.97364 3.15791ZM11.4583 2.15887L11.6614 2.88083L11.4583 2.15887ZM14.0264 3.15792L13.5514 3.73838L14.0264 3.15792ZM12.5417 2.15887L12.3386 2.88083L12.5417 2.15887ZM4.84202 20.032L5.18251 19.3637L4.84202 20.032ZM3.75 17.05H4.5H3.75ZM3.96799 19.158L4.63624 18.8175L3.96799 19.158ZM20.032 19.158L19.3638 18.8175L20.032 19.158ZM19.158 20.032L18.8175 19.3637L19.158 20.032ZM20.1799 8.67292L20.9036 8.47611L20.1799 8.67292ZM19.0764 7.28974L18.6014 7.8702L19.0764 7.28974ZM19.8783 8.03641L19.2677 8.47191L19.8783 8.03641ZM3.75 9.7664H3H3.75ZM3.82009 8.67292L3.09637 8.47611H3.09637L3.82009 8.67292ZM4.92364 7.28973L4.44871 6.70927L4.92364 7.28973ZM4.12172 8.03641L4.73232 8.47191H4.73232L4.12172 8.03641ZM20.25 9.7664H19.5V17.05H20.25H21V9.7664H20.25ZM17.05 20.25V19.5H6.95V20.25V21H17.05V20.25ZM3.75 17.05H4.5V9.7664H3.75H3V17.05H3.75ZM4.92364 7.28973L5.39857 7.8702L10.4486 3.73838L9.97364 3.15791L9.49871 2.57745L4.44871 6.70927L4.92364 7.28973ZM14.0264 3.15792L13.5514 3.73838L18.6014 7.8702L19.0764 7.28974L19.5513 6.70927L14.5013 2.57745L14.0264 3.15792ZM9.97364 3.15791L10.4486 3.73838C10.8181 3.43606 11.064 3.23545 11.2667 3.09332C11.4616 2.95663 11.5736 2.90554 11.6614 2.88083L11.4583 2.15887L11.2551 1.43691C10.9412 1.52525 10.6719 1.67834 10.4054 1.86525C10.1466 2.04672 9.85113 2.2891 9.49871 2.57745L9.97364 3.15791ZM14.0264 3.15792L14.5013 2.57745C14.1489 2.2891 13.8534 2.04672 13.5946 1.86525C13.3281 1.67834 13.0588 1.52525 12.7449 1.43691L12.5417 2.15887L12.3386 2.88083C12.4264 2.90554 12.5384 2.95663 12.7333 3.09332C12.936 3.23545 13.1819 3.43606 13.5514 3.73838L14.0264 3.15792ZM11.4583 2.15887L11.6614 2.88083C11.8828 2.81853 12.1172 2.81853 12.3386 2.88083L12.5417 2.15887L12.7449 1.43691C12.2578 1.29984 11.7422 1.29984 11.2551 1.43691L11.4583 2.15887ZM6.95 20.25V19.5C6.37757 19.5 5.99336 19.4994 5.69748 19.4752C5.41035 19.4518 5.27307 19.4099 5.18251 19.3637L4.84202 20.032L4.50153 20.7003C4.83879 20.8721 5.19544 20.9392 5.57533 20.9702C5.94646 21.0006 6.40232 21 6.95 21V20.25ZM3.75 17.05H3C3 17.5977 2.99942 18.0535 3.02974 18.4247C3.06078 18.8045 3.12789 19.1612 3.29973 19.4985L3.96799 19.158L4.63624 18.8175C4.5901 18.7269 4.54822 18.5896 4.52476 18.3025C4.50058 18.0066 4.5 17.6224 4.5 17.05H3.75ZM4.84202 20.032L5.18251 19.3637C4.94731 19.2439 4.75608 19.0527 4.63624 18.8175L3.96799 19.158L3.29973 19.4985C3.56338 20.0159 3.98408 20.4366 4.50153 20.7003L4.84202 20.032ZM20.25 17.05H19.5C19.5 17.6224 19.4994 18.0066 19.4752 18.3025C19.4518 18.5896 19.4099 18.7269 19.3638 18.8175L20.032 19.158L20.7003 19.4985C20.8721 19.1612 20.9392 18.8045 20.9703 18.4247C21.0006 18.0535 21 17.5977 21 17.05H20.25ZM17.05 20.25V21C17.5977 21 18.0535 21.0006 18.4247 20.9702C18.8046 20.9392 19.1612 20.8721 19.4985 20.7003L19.158 20.032L18.8175 19.3637C18.7269 19.4099 18.5896 19.4518 18.3025 19.4752C18.0066 19.4994 17.6224 19.5 17.05 19.5V20.25ZM20.032 19.158L19.3638 18.8175C19.2439 19.0527 19.0527 19.2439 18.8175 19.3637L19.158 20.032L19.4985 20.7003C20.0159 20.4366 20.4366 20.0159 20.7003 19.4985L20.032 19.158ZM20.25 9.7664H21C21 9.25033 21.0062 8.85313 20.9036 8.47611L20.1799 8.67292L19.4562 8.86973C19.4938 9.00817 19.5 9.16814 19.5 9.7664H20.25ZM19.0764 7.28974L18.6014 7.8702C19.0645 8.24904 19.1844 8.3551 19.2677 8.47191L19.8783 8.03641L20.4889 7.60091C20.262 7.28282 19.9507 7.03606 19.5513 6.70927L19.0764 7.28974ZM20.1799 8.67292L20.9036 8.47611C20.8182 8.16214 20.6778 7.86581 20.4889 7.60091L19.8783 8.03641L19.2677 8.47191C19.3536 8.59232 19.4174 8.72702 19.4562 8.86973L20.1799 8.67292ZM3.75 9.7664H4.5C4.5 9.16814 4.50616 9.00817 4.5438 8.86973L3.82009 8.67292L3.09637 8.47611C2.99384 8.85313 3 9.25032 3 9.7664H3.75ZM4.92364 7.28973L4.44871 6.70927C4.04929 7.03606 3.73798 7.28282 3.51111 7.60091L4.12172 8.03641L4.73232 8.47191C4.81563 8.3551 4.93554 8.24904 5.39857 7.8702L4.92364 7.28973ZM3.82009 8.67292L4.5438 8.86973C4.58261 8.72701 4.64644 8.59232 4.73232 8.47191L4.12172 8.03641L3.51111 7.60091C3.32218 7.86581 3.18175 8.16214 3.09637 8.47611L3.82009 8.67292Z" fill="currentColor"></path><path d="M10.75 12.75V13.5H13.25V12.75V12H10.75V12.75ZM15.25 14.75H14.5V20.25H15.25H16V14.75H15.25ZM8.75 20.25H9.5V14.75H8.75H8V20.25H8.75ZM13.25 12.75V13.5C13.9404 13.5 14.5 14.0596 14.5 14.75H15.25H16C16 13.2312 14.7688 12 13.25 12V12.75ZM10.75 12.75V12C9.23122 12 8 13.2312 8 14.75H8.75H9.5C9.5 14.0596 10.0596 13.5 10.75 13.5V12.75Z" fill="currentColor"></path></g></svg>