<svg width="24px" height="24px" viewBox="0 0 24 24" fill="none" xmlns="http://www.w3.org/2000/svg"><g><path d="M12.9314 3.4168L13.368 2.80697V2.80697L12.9314 3.4168ZM19.25 7.94039L19.6866 7.33056L19.25 7.94039ZM21.0634 10.161C21.4002 10.4021 21.8687 10.3246 22.1098 9.98779C22.3509 9.65099 22.2734 9.18249 21.9366 8.94137L21.0634 10.161ZM11.0686 3.4168L10.632 2.80697V2.80697L11.0686 3.4168ZM4.74997 7.94041L4.31339 7.33058L4.74997 7.94041ZM2.06341 8.94137C1.72661 9.18249 1.64905 9.65099 1.89017 9.98779C2.13129 10.3246 2.59979 10.4021 2.93659 10.161L2.06341 8.94137ZM8.24997 21C8.66419 21 8.99997 20.6642 8.99997 20.25C8.99997 19.8358 8.66419 19.5 8.24997 19.5V21ZM15.75 19.5C15.3358 19.5 15 19.8358 15 20.25C15 20.6642 15.3358 21 15.75 21V19.5ZM19.032 19.158L18.3637 18.8175H18.3637L19.032 19.158ZM18.158 20.032L17.8175 19.3638H17.8175L18.158 20.032ZM12.246 3.01058L12.0615 3.73754V3.73754L12.246 3.01058ZM11.754 3.01058L11.9385 3.73754V3.73754L11.754 3.01058ZM4.96796 19.158L4.29971 19.4985H4.29971L4.96796 19.158ZM5.84199 20.032L6.18249 19.3638H6.18248L5.84199 20.032ZM9.25 11.75C9.25 12.1642 9.58579 12.5 10 12.5C10.4142 12.5 10.75 12.1642 10.75 11.75H9.25ZM10.75 9.75001C10.75 9.33579 10.4142 9.00001 10 9.00001C9.58579 9.00001 9.25 9.33579 9.25 9.75001H10.75ZM13.25 11.75C13.25 12.1642 13.5858 12.5 14 12.5C14.4142 12.5 14.75 12.1642 14.75 11.75H13.25ZM14.75 9.75001C14.75 9.33579 14.4142 9.00001 14 9.00001C13.5858 9.00001 13.25 9.33579 13.25 9.75001H14.75ZM12.75 16.5C12.75 16.0858 12.4142 15.75 12 15.75C11.5858 15.75 11.25 16.0858 11.25 16.5H12.75ZM11.25 20.25C11.25 20.6642 11.5858 21 12 21C12.4142 21 12.75 20.6642 12.75 20.25H11.25ZM12.4948 4.02663L18.8134 8.55022L19.6866 7.33056L13.368 2.80697L12.4948 4.02663ZM18.8134 8.55022L21.0634 10.161L21.9366 8.94137L19.6866 7.33056L18.8134 8.55022ZM10.632 2.80697L4.31339 7.33058L5.18656 8.55024L11.5052 4.02663L10.632 2.80697ZM4.31339 7.33058L2.06341 8.94137L2.93659 10.161L5.18656 8.55024L4.31339 7.33058ZM5.49997 17.05V7.94041H3.99997V17.05H5.49997ZM8.24997 19.5H7.94997V21H8.24997V19.5ZM18.5 7.94039V17.05H20V7.94039H18.5ZM16.05 19.5H15.75V21H16.05V19.5ZM18.5 17.05C18.5 17.6224 18.4994 18.0067 18.4752 18.3025C18.4518 18.5897 18.4099 18.7269 18.3637 18.8175L19.7002 19.4985C19.8721 19.1612 19.9392 18.8046 19.9702 18.4247C20.0006 18.0535 20 17.5977 20 17.05H18.5ZM16.05 21C16.5976 21 17.0535 21.0006 17.4246 20.9703C17.8045 20.9392 18.1612 20.8721 18.4984 20.7003L17.8175 19.3638C17.7269 19.4099 17.5896 19.4518 17.3025 19.4752C17.0066 19.4994 16.6224 19.5 16.05 19.5V21ZM18.3637 18.8175C18.2439 19.0527 18.0527 19.2439 17.8175 19.3638L18.4984 20.7003C19.0159 20.4366 19.4366 20.0159 19.7002 19.4985L18.3637 18.8175ZM13.368 2.80697C13.0845 2.60407 12.7835 2.37323 12.4305 2.28363L12.0615 3.73754C12.0513 3.73495 12.0661 3.73521 12.1378 3.77945C12.2175 3.82858 12.319 3.90081 12.4948 4.02663L13.368 2.80697ZM11.5052 4.02663C11.6809 3.90081 11.7825 3.82858 11.8622 3.77945C11.9339 3.73521 11.9487 3.73495 11.9385 3.73754L11.5695 2.28363C11.2164 2.37323 10.9154 2.60407 10.632 2.80697L11.5052 4.02663ZM12.4305 2.28363C12.148 2.21194 11.852 2.21194 11.5695 2.28363L11.9385 3.73754C11.9788 3.7273 12.0211 3.7273 12.0615 3.73754L12.4305 2.28363ZM3.99997 17.05C3.99997 17.5977 3.99939 18.0535 4.02971 18.4247C4.06075 18.8046 4.12786 19.1612 4.29971 19.4985L5.63622 18.8175C5.59007 18.7269 5.54819 18.5897 5.52473 18.3025C5.50056 18.0066 5.49997 17.6224 5.49997 17.05H3.99997ZM7.94997 19.5C7.37754 19.5 6.99333 19.4994 6.69745 19.4752C6.41033 19.4518 6.27305 19.4099 6.18249 19.3638L5.5015 20.7003C5.83876 20.8721 6.19542 20.9392 6.5753 20.9703C6.94643 21.0006 7.4023 21 7.94997 21V19.5ZM4.29971 19.4985C4.56336 20.0159 4.98405 20.4366 5.5015 20.7003L6.18248 19.3638C5.94728 19.2439 5.75606 19.0527 5.63622 18.8175L4.29971 19.4985ZM9.5 12.75C9.5 12.6119 9.61193 12.5 9.75 12.5V11C8.7835 11 8 11.7835 8 12.75H9.5ZM9.75 12.5H14.25V11H9.75V12.5ZM14.25 12.5C14.3881 12.5 14.5 12.6119 14.5 12.75H16C16 11.7835 15.2165 11 14.25 11V12.5ZM14.5 12.75V14.25H16V12.75H14.5ZM14.5 14.25C14.5 14.9404 13.9404 15.5 13.25 15.5V17C14.7688 17 16 15.7688 16 14.25H14.5ZM10.75 15.5C10.0596 15.5 9.5 14.9404 9.5 14.25H8C8 15.7688 9.23122 17 10.75 17V15.5ZM9.5 14.25V12.75H8V14.25H9.5ZM10.75 11.75V9.75001H9.25V11.75H10.75ZM14.75 11.75V9.75001H13.25V11.75H14.75ZM13.25 15.5H10.75V17H13.25V15.5ZM11.25 16.5V20.25H12.75V16.5H11.25Z" fill="currentColor"></path></g></svg>