<svg width="24px" height="24px" viewBox="0 0 24 24" fill="none" xmlns="http://www.w3.org/2000/svg"><g><path d="M3.75 9.7664C3.75 9.20923 3.75 8.93065 3.82009 8.67292C3.88218 8.44458 3.98431 8.22907 4.12172 8.03641C4.27681 7.81896 4.49242 7.64255 4.92364 7.28973L9.97364 3.15791C10.6956 2.56725 11.0565 2.27192 11.4583 2.15887C11.8125 2.05918 12.1875 2.05918 12.5417 2.15887C12.9435 2.27192 13.3044 2.56725 14.0264 3.15792L19.0764 7.28974C19.5076 7.64255 19.7232 7.81896 19.8783 8.03641C20.0157 8.22907 20.1178 8.44458 20.1799 8.67292C20.25 8.93065 20.25 9.20923 20.25 9.7664V17.05C20.25 18.1701 20.25 18.7301 20.032 19.158C19.8403 19.5343 19.5343 19.8403 19.158 20.032C18.7302 20.25 18.1701 20.25 17.05 20.25H6.95C5.82989 20.25 5.26984 20.25 4.84202 20.032C4.46569 19.8403 4.15973 19.5343 3.96799 19.158C3.75 18.7301 3.75 18.1701 3.75 17.05V9.7664Z" stroke="currentColor" stroke-width="1.5" stroke-linecap="round"></path><path d="M7.75 16.25H16.25" stroke="currentColor" stroke-width="1.5" stroke-linecap="round"></path></g></svg>