<svg width="24px" height="24px" viewBox="0 0 24 24" fill="none" xmlns="http://www.w3.org/2000/svg"><g><path d="M3.75 20.25H20.25" stroke="currentColor" stroke-width="1.5" stroke-linecap="round" stroke-linejoin="round"></path><path d="M15.5 7.75C14.5335 7.75 13.75 8.5335 13.75 9.5V15.5C13.75 16.4665 14.5335 17.25 15.5 17.25C16.4665 17.25 17.25 16.4665 17.25 15.5V9.5C17.25 8.5335 16.4665 7.75 15.5 7.75Z" stroke="currentColor" stroke-width="1.5" stroke-linecap="round" stroke-linejoin="round"></path><path d="M8.5 3.75C7.5335 3.75 6.75 4.5335 6.75 5.5V15.5C6.75 16.4665 7.5335 17.25 8.5 17.25C9.4665 17.25 10.25 16.4665 10.25 15.5V5.5C10.25 4.5335 9.4665 3.75 8.5 3.75Z" stroke="currentColor" stroke-width="1.5" stroke-linecap="round" stroke-linejoin="round"></path></g></svg>