<svg width="24px" height="24px" viewBox="0 0 24 24" fill="none" xmlns="http://www.w3.org/2000/svg"><g><path d="M3.75 3.75H20.25" stroke="currentColor" stroke-width="1.5" stroke-linecap="round" stroke-linejoin="round"></path><path d="M15.5 6.75C14.5335 6.75 13.75 7.5335 13.75 8.5V14.5C13.75 15.4665 14.5335 16.25 15.5 16.25C16.4665 16.25 17.25 15.4665 17.25 14.5V8.5C17.25 7.5335 16.4665 6.75 15.5 6.75Z" stroke="currentColor" stroke-width="1.5" stroke-linecap="round" stroke-linejoin="round"></path><path d="M8.5 6.75C7.5335 6.75 6.75 7.5335 6.75 8.5V18.5C6.75 19.4665 7.5335 20.25 8.5 20.25C9.4665 20.25 10.25 19.4665 10.25 18.5V8.5C10.25 7.5335 9.4665 6.75 8.5 6.75Z" stroke="currentColor" stroke-width="1.5" stroke-linecap="round" stroke-linejoin="round"></path></g></svg>