<svg width="24px" height="24px" viewBox="0 0 24 24" fill="none" xmlns="http://www.w3.org/2000/svg"><g><path d="M3.75 12H6.75M17.25 12H20.25M10.25 12H13.75" stroke="currentColor" stroke-width="1.5" stroke-linecap="round" stroke-linejoin="round"></path><path d="M8.5 4.75C7.5335 4.75 6.75 5.5335 6.75 6.5V18C6.75 18.9665 7.5335 19.75 8.5 19.75C9.4665 19.75 10.25 18.9665 10.25 18V6.5C10.25 5.5335 9.4665 4.75 8.5 4.75Z" stroke="currentColor" stroke-width="1.5" stroke-linecap="round" stroke-linejoin="round"></path><path d="M15.5 6.75C14.5335 6.75 13.75 7.5335 13.75 8.5V15.5C13.75 16.4665 14.5335 17.25 15.5 17.25C16.4665 17.25 17.25 16.4665 17.25 15.5V8.5C17.25 7.5335 16.4665 6.75 15.5 6.75Z" stroke="currentColor" stroke-width="1.5" stroke-linecap="round" stroke-linejoin="round"></path></g></svg>