<svg width="24px" height="24px" viewBox="0 0 24 24" fill="none" xmlns="http://www.w3.org/2000/svg"><g><path d="M18.75 5.75H5.25C4.42157 5.75 3.75 6.42157 3.75 7.25C3.75 8.07843 4.42157 8.75 5.25 8.75H18.75C19.5784 8.75 20.25 8.07843 20.25 7.25C20.25 6.42157 19.5784 5.75 18.75 5.75Z" stroke="currentColor" stroke-width="1.5" stroke-linecap="round" stroke-linejoin="round"></path><path d="M5.5 5.5L6.02124 4.06653C6.30865 3.27615 7.05982 2.75 7.90084 2.75H16.0991C16.9401 2.75 17.6913 3.27613 17.9787 4.0665L18.5 5.5" stroke="currentColor" stroke-width="1.5" stroke-linecap="round" stroke-linejoin="round"></path><path d="M4.75 8.97913L5.74451 19.4393C5.84212 20.4659 6.70429 21.25 7.73553 21.25H16.2648C17.2959 21.25 18.158 20.4661 18.2558 19.4396L19.25 8.99996" stroke="currentColor" stroke-width="1.5" stroke-linecap="round" stroke-linejoin="round"></path></g></svg>