<svg width="24px" height="24px" viewBox="0 0 24 24" fill="none" xmlns="http://www.w3.org/2000/svg"><g><path d="M4.75 2.75H19.25" stroke="currentColor" stroke-width="1.5" stroke-linecap="round"></path><path d="M4.75 21.25H19.25" stroke="currentColor" stroke-width="1.5" stroke-linecap="round"></path><path d="M5.75 3V6.75C5.75 9.39507 7.7061 11.6363 10.2506 12" stroke="currentColor" stroke-width="1.5" stroke-linecap="round"></path><path d="M5.75 21V17.25C5.75 14.6059 7.70475 12.3648 10.248 12" stroke="currentColor" stroke-width="1.5" stroke-linecap="round"></path><path d="M18.2506 3V6.75C18.2506 9.39507 16.2945 11.6363 13.75 12" stroke="currentColor" stroke-width="1.5" stroke-linecap="round"></path><path d="M18.248 21V17.25C18.248 14.6059 16.2932 12.3648 13.75 12" stroke="currentColor" stroke-width="1.5" stroke-linecap="round"></path><path d="M15.3511 19H8.64891C8.29053 19 8 18.7095 8 18.3511C8 17.557 8.54041 16.8649 9.31075 16.6723L12 16L14.6893 16.6723C15.4596 16.8649 16 17.557 16 18.3511C16 18.7095 15.7095 19 15.3511 19Z" fill="currentColor"></path></g></svg>