<svg width="24px" height="24px" viewBox="0 0 24 24" fill="none" xmlns="http://www.w3.org/2000/svg"><g><path d="M10.75 15.75C10.75 17.683 9.183 19.25 7.25 19.25C5.317 19.25 3.75 17.683 3.75 15.75C3.75 13.817 5.317 12.25 7.25 12.25C9.183 12.25 10.75 13.817 10.75 15.75Z" stroke="currentColor" stroke-width="1.5" stroke-linecap="round" stroke-linejoin="round"></path><path d="M2.75 21.25L7 19.25" stroke="currentColor" stroke-width="1.5" stroke-linecap="round" stroke-linejoin="round"></path><path d="M1.75 15.25L4.00014 14.5" stroke="currentColor" stroke-width="1.5" stroke-linecap="round" stroke-linejoin="round"></path><circle cx="7.22266" cy="15.75" r="1" fill="currentColor"></circle><path d="M17.5 15.5L16.7544 11.2128C16.6073 10.3673 15.8735 9.75 15.0153 9.75C14.0403 9.75 13.25 10.5403 13.25 11.5153V16.3466C13.25 17.8121 14.4379 19 15.9034 19C16.2962 19 16.6842 19.0872 17.0392 19.2554L21.25 21.25" stroke="currentColor" stroke-width="1.5" stroke-linecap="round" stroke-linejoin="round"></path><path d="M14.25 9.64388V4.571C14.25 3.56529 15.0653 2.75 16.071 2.75C16.9099 2.75 17.6403 3.32315 17.8398 4.13802L20.3385 14.3458C20.4058 14.6208 20.5865 14.8543 20.8358 14.9885L22.25 15.75" stroke="currentColor" stroke-width="1.5" stroke-linecap="round" stroke-linejoin="round"></path><path d="M9.75146 13V4.49392C9.75146 3.53078 8.97068 2.75 8.00754 2.75C7.14254 2.75 6.40825 3.38407 6.28223 4.23985L4.99219 13" stroke="currentColor" stroke-width="1.5" stroke-linecap="round" stroke-linejoin="round"></path></g></svg>