<svg width="24px" height="24px" viewBox="0 0 24 24" fill="none" xmlns="http://www.w3.org/2000/svg"><g><ellipse cx="12" cy="8.5" rx="10.25" ry="4.25" stroke="currentColor" stroke-width="1.5"></ellipse><path d="M22.25 8.5V9.52273C22.25 15.1711 17.6609 19.75 12 19.75C6.33908 19.75 1.75 15.1711 1.75 9.52273V8.5" stroke="currentColor" stroke-width="1.5"></path><path d="M14.2269 8.77994C14.4948 8.8469 14.6577 9.11829 14.5908 9.38615L14.4092 10.1132C14.3423 10.3812 14.0708 10.5441 13.8028 10.4771L12.773 10.2197C12.5051 10.1527 12.3423 9.88134 12.4091 9.61347L12.5907 8.88641C12.6576 8.61845 12.9291 8.45549 13.1971 8.52248L14.2269 8.77994ZM7.45103 8.09831C7.60424 8.32812 7.54209 8.63863 7.31223 8.79177L6.68742 9.20803C6.45766 9.3611 6.14731 9.29898 5.99417 9.06927L5.54887 8.40132C5.39566 8.1715 5.45781 7.86099 5.68768 7.70786L6.31249 7.29159C6.54225 7.13852 6.85259 7.20064 7.00573 7.43036L7.45103 8.09831ZM17.5694 7.49403C17.7991 7.64717 17.8612 7.95752 17.7082 8.18728L17.2919 8.81209C17.1388 9.04195 16.8283 9.1041 16.5984 8.95089L15.9305 8.50559C15.7008 8.35245 15.6387 8.04211 15.7917 7.81234L16.208 7.18753C16.3611 6.95767 16.6716 6.89552 16.9015 7.04873L17.5694 7.49403ZM11.6676 7.33471C11.7913 7.58173 11.6912 7.88222 11.4441 8.00576L10.3385 8.55854C10.0916 8.68199 9.79141 8.582 9.66783 8.33516L9.33229 7.66491C9.20863 7.41789 9.30871 7.1174 9.55579 6.99387L10.6614 6.44108C10.9083 6.31763 11.2085 6.41762 11.3321 6.66446L11.6676 7.33471Z" fill="currentColor"></path></g></svg>