<svg width="24px" height="24px" viewBox="0 0 24 24" fill="none" xmlns="http://www.w3.org/2000/svg"><g><rect x="2.75" y="4.75" width="18.5" height="14.5" rx="2" stroke="currentColor" stroke-width="1.5" stroke-linejoin="round"></rect><path d="M13.1414 7.06896C14.139 6.83162 15.0168 7.21303 15.131 8.11883C14.9426 8.55504 11.3817 9.45701 12.1378 10.4321C13.6543 10.9352 16.2337 8.11883 18.1382 10.0044C18.8398 12.2571 11.994 10.4332 11.3937 12.1082C11.9436 12.5859 15.7548 11.523 15.2997 13.7109C13.9312 14.9635 8.73863 12.4885 9.01709 14.4242C9.6108 15.4466 11.6102 14.5492 12.1637 15.619C12.2202 15.8965 12.2112 15.9532 12.0873 16.2063C11.1713 17.2329 7.68659 16.0957 6.15731 15.3116C5.9178 15.1888 5.84965 14.8933 5.98382 14.661C6.16443 14.3483 6.29639 14.0868 6.47266 13.6567C6.09269 12.6729 4.77828 11.4043 6.02569 10.1085C7.14975 8.94094 7.50489 12.7675 7.9637 12.8518C8.00973 12.8264 8.05422 12.7981 8.09688 12.767C8.95952 12.1296 6.65832 8.69379 8.87506 8.88631C10.263 9.00688 9.41974 10.8165 10.2663 10.976C11.7933 10.1553 9.386 7.9628 13.1414 7.06896Z" fill="currentColor"></path><path d="M17.9527 13.8375C19.2473 14.5517 18.0012 17.2923 16.7375 16.9745C14.4298 16.3941 16.3534 12.9374 17.9527 13.8375Z" fill="currentColor"></path></g></svg>