<svg width="24px" height="24px" viewBox="0 0 24 24" fill="none" xmlns="http://www.w3.org/2000/svg"><g><path d="M9.75 17.25V16.5C9.33579 16.5 9 16.8358 9 17.25H9.75ZM14.25 17.25H15C15 16.8358 14.6642 16.5 14.25 16.5V17.25ZM14.25 21.25V22C14.6642 22 15 21.6642 15 21.25H14.25ZM9.75 21.25H9C9 21.6642 9.33579 22 9.75 22V21.25ZM2.75 12.5H2V14H2.75V12.5ZM9.75 18H14.25V16.5H9.75V18ZM13.5 17.25V21.25H15V17.25H13.5ZM14.25 20.5H9.75V22H14.25V20.5ZM10.5 21.25V17.25H9V21.25H10.5ZM21.25 12.5H2.75V14H21.25V12.5ZM4.75 4.5H19.25V3H4.75V4.5ZM20.5 5.75V15.25H22V5.75H20.5ZM19.25 16.5H4.75V18H19.25V16.5ZM3.5 15.25V5.75H2V15.25H3.5ZM4.75 16.5C4.05964 16.5 3.5 15.9404 3.5 15.25H2C2 16.7688 3.23122 18 4.75 18V16.5ZM20.5 15.25C20.5 15.9404 19.9404 16.5 19.25 16.5V18C20.7688 18 22 16.7688 22 15.25H20.5ZM19.25 4.5C19.9404 4.5 20.5 5.05964 20.5 5.75H22C22 4.23122 20.7688 3 19.25 3V4.5ZM4.75 3C3.23122 3 2 4.23122 2 5.75H3.5C3.5 5.05964 4.05964 4.5 4.75 4.5V3Z" fill="currentColor"></path></g></svg>