<svg width="24px" height="24px" viewBox="0 0 24 24" fill="none" xmlns="http://www.w3.org/2000/svg"><g><path d="M6.75 17.25H12.25M15.25 17.25H17.25M20.25 14.25V5.75C20.25 4.64543 19.3546 3.75 18.25 3.75H5.75C4.64543 3.75 3.75 4.64543 3.75 5.75V12.0577M20.25 14.25V18.25C20.25 19.3546 19.3546 20.25 18.25 20.25H5.75C4.64543 20.25 3.75 19.3546 3.75 18.25V14.25M20.25 14.25H14.2767M3.75 14.25V12.0577M3.75 14.25H14.2767M3.75 12.0577L6.51677 9.21998C7.30218 8.41443 8.59725 8.41498 9.38197 9.2212L14.2767 14.25M17.25 8.25C17.25 9.07843 16.5784 9.75 15.75 9.75C14.9216 9.75 14.25 9.07843 14.25 8.25C14.25 7.42157 14.9216 6.75 15.75 6.75C16.5784 6.75 17.25 7.42157 17.25 8.25Z" stroke="currentColor" stroke-width="1.5" stroke-linecap="round" stroke-linejoin="round"></path></g></svg>