<svg width="24px" height="24px" viewBox="0 0 24 24" fill="none" xmlns="http://www.w3.org/2000/svg"><g><path d="M6.75 21.25V16.877C6.75 16.2216 6.41451 15.6222 5.93912 15.171C4.55827 13.8605 3.75 11.9991 3.75 9.93421C3.75 5.96648 6.98194 2.75 10.9688 2.75C14.7499 2.75 17.852 5.64317 18.162 9.32647C18.1953 9.72143 18.3053 10.11 18.5259 10.4393L19.9856 12.6184C20.1337 12.8396 20.0826 13.1381 19.8692 13.2974L18.9912 13.9528C18.4854 14.3303 18.1875 14.9244 18.1875 15.5555V16.25C18.1875 17.3546 17.2921 18.25 16.1875 18.25H13.75V21.25" stroke="currentColor" stroke-width="1.5" stroke-linecap="round" stroke-linejoin="round"></path><path d="M11.8812 7.8812L11.4756 6.82667C11.3999 6.62986 11.2109 6.5 11 6.5C10.7891 6.5 10.6001 6.62986 10.5244 6.82667L10.1188 7.88119C9.89991 8.45023 9.45023 8.89991 8.8812 9.11877L7.82667 9.52436C7.62986 9.60005 7.5 9.78914 7.5 10C7.5 10.2109 7.62986 10.3999 7.82667 10.4756L8.88119 10.8812C9.45023 11.1001 9.89991 11.5498 10.1188 12.1188L10.5244 13.1733C10.6001 13.3701 10.7891 13.5 11 13.5C11.2109 13.5 11.3999 13.3701 11.4756 13.1733L11.8812 12.1188C12.1001 11.5498 12.5498 11.1001 13.1188 10.8812L14.1733 10.4756C14.3701 10.3999 14.5 10.2109 14.5 10C14.5 9.78914 14.3701 9.60005 14.1733 9.52436L13.1188 9.11877C12.5498 8.89991 12.1001 8.45023 11.8812 7.8812Z" fill="currentColor"></path></g></svg>