<svg width="24px" height="24px" viewBox="0 0 24 24" fill="none" xmlns="http://www.w3.org/2000/svg"><g><path d="M14.5 11.5C15.6046 11.5 16.5 10.6046 16.5 9.5C16.5 8.39543 15.6046 7.5 14.5 7.5C13.3954 7.5 12.5 8.39543 12.5 9.5C12.5 10.6046 13.3954 11.5 14.5 11.5Z" stroke="currentColor" stroke-width="1.5"></path><path d="M18.25 3.75H5.75C4.64543 3.75 3.75 4.64543 3.75 5.75V18.25C3.75 19.3546 4.64543 20.25 5.75 20.25H18.25C19.3546 20.25 20.25 19.3546 20.25 18.25V5.75C20.25 4.64543 19.3546 3.75 18.25 3.75Z" stroke="currentColor" stroke-width="1.5"></path><path d="M4.10156 15.9L6.58735 13.4142C7.3684 12.6332 8.63473 12.6332 9.41578 13.4142L15.9016 19.9" stroke="currentColor" stroke-width="1.5" stroke-linecap="square" stroke-linejoin="round"></path></g></svg>