<svg width="24px" height="24px" viewBox="0 0 24 24" fill="none" xmlns="http://www.w3.org/2000/svg"><g><path d="M20.5 14.3108V15.5788C20.5 16.3021 20.1094 16.9691 19.4786 17.323L18.375 17.9422" stroke="currentColor" stroke-width="1.5" stroke-linecap="round" stroke-linejoin="round"></path><path d="M3.5 14.3108V15.5788C3.5 16.3022 3.89055 16.9691 4.52137 17.323L5.62498 17.9422" stroke="currentColor" stroke-width="1.5" stroke-linecap="round" stroke-linejoin="round"></path><path d="M9.875 3.6859L11.0253 3.04393C11.6311 2.70585 12.3688 2.70585 12.9746 3.04393L14.125 3.6859" stroke="currentColor" stroke-width="1.5" stroke-linecap="round" stroke-linejoin="round"></path><path d="M18.375 6.05774L19.4786 6.67695C20.1094 7.03088 20.5 7.69784 20.5 8.42117V9.6892" stroke="currentColor" stroke-width="1.5" stroke-linecap="round" stroke-linejoin="round"></path><path d="M14.125 20.3141L12.9746 20.9561C12.3688 21.2941 11.6311 21.2941 11.0253 20.9561L9.875 20.3141" stroke="currentColor" stroke-width="1.5" stroke-linecap="round" stroke-linejoin="round"></path><path d="M5.62498 6.05774L4.52137 6.67695C3.89055 7.03088 3.5 7.69784 3.5 8.42116V9.6892" stroke="currentColor" stroke-width="1.5" stroke-linecap="round" stroke-linejoin="round"></path><path d="M13.2559 9.59536L12.6115 7.92001C12.5142 7.66697 12.2711 7.5 12 7.5C11.7289 7.5 11.4858 7.66697 11.3885 7.92001L10.7441 9.59536C10.5409 10.1235 10.1235 10.5409 9.59536 10.7441L7.92001 11.3885C7.66697 11.4858 7.5 11.7289 7.5 12C7.5 12.2711 7.66697 12.5142 7.92001 12.6115L9.59536 13.2559C10.1235 13.4591 10.5409 13.8765 10.7441 14.4046L11.3885 16.08C11.4858 16.333 11.7289 16.5 12 16.5C12.2711 16.5 12.5142 16.333 12.6115 16.08L13.2559 14.4046C13.4591 13.8765 13.8765 13.4591 14.4046 13.2559L16.08 12.6115C16.333 12.5142 16.5 12.2711 16.5 12C16.5 11.7289 16.333 11.4858 16.08 11.3885L14.4046 10.7441C13.8765 10.5409 13.4591 10.1235 13.2559 9.59536Z" fill="currentColor"></path></g></svg>