<svg width="24px" height="24px" viewBox="0 0 24 24" fill="none" xmlns="http://www.w3.org/2000/svg"><g><path d="M3.23598 15.4538C2.93435 15.7377 2.91996 16.2124 3.20385 16.514C3.48774 16.8157 3.96239 16.83 4.26402 16.5462L3.23598 15.4538ZM7.29353 12.6649L7.80756 13.2111H7.80756L7.29353 12.6649ZM8.686 12.686L8.15567 13.2163L8.686 12.686ZM12 16L11.4697 16.5303C11.6103 16.671 11.8011 16.75 12 16.75C12.1989 16.75 12.3897 16.671 12.5303 16.5303L12 16ZM13.2929 14.7071L12.7626 14.1768L12.7626 14.1768L13.2929 14.7071ZM14.7071 14.7071L14.1768 15.2374H14.1768L14.7071 14.7071ZM18.9697 20.0303C19.2626 20.3232 19.7374 20.3232 20.0303 20.0303C20.3232 19.7374 20.3232 19.2626 20.0303 18.9697L18.9697 20.0303ZM5.75 4.5H18.25V3H5.75V4.5ZM19.5 5.75V18.25H21V5.75H19.5ZM18.25 19.5H5.75V21H18.25V19.5ZM4.5 18.25V5.75H3V18.25H4.5ZM5.75 19.5C5.05964 19.5 4.5 18.9404 4.5 18.25H3C3 19.7688 4.23122 21 5.75 21V19.5ZM19.5 18.25C19.5 18.9404 18.9404 19.5 18.25 19.5V21C19.7688 21 21 19.7688 21 18.25H19.5ZM18.25 4.5C18.9404 4.5 19.5 5.05964 19.5 5.75H21C21 4.23122 19.7688 3 18.25 3V4.5ZM5.75 3C4.23122 3 3 4.23122 3 5.75H4.5C4.5 5.05964 5.05964 4.5 5.75 4.5V3ZM4.26402 16.5462L7.80756 13.2111L6.77951 12.1188L3.23598 15.4538L4.26402 16.5462ZM8.15567 13.2163L11.4697 16.5303L12.5303 15.4697L9.21633 12.1557L8.15567 13.2163ZM12.5303 16.5303L13.8232 15.2374L12.7626 14.1768L11.4697 15.4697L12.5303 16.5303ZM14.1768 15.2374L18.9697 20.0303L20.0303 18.9697L15.2374 14.1768L14.1768 15.2374ZM13.8232 15.2374C13.9209 15.1398 14.0791 15.1398 14.1768 15.2374L15.2374 14.1768C14.554 13.4934 13.446 13.4934 12.7626 14.1768L13.8232 15.2374ZM7.80756 13.2111C7.90595 13.1185 8.06013 13.1208 8.15567 13.2163L9.21633 12.1557C8.54751 11.4868 7.46828 11.4705 6.77951 12.1188L7.80756 13.2111ZM15 9C15 9.41421 14.6642 9.75 14.25 9.75V11.25C15.4926 11.25 16.5 10.2426 16.5 9H15ZM14.25 9.75C13.8358 9.75 13.5 9.41421 13.5 9H12C12 10.2426 13.0074 11.25 14.25 11.25V9.75ZM13.5 9C13.5 8.58579 13.8358 8.25 14.25 8.25V6.75C13.0074 6.75 12 7.75736 12 9H13.5ZM14.25 8.25C14.6642 8.25 15 8.58579 15 9H16.5C16.5 7.75736 15.4926 6.75 14.25 6.75V8.25Z" fill="currentColor"></path></g></svg>