<svg width="24px" height="24px" viewBox="0 0 24 24" fill="none" xmlns="http://www.w3.org/2000/svg"><g><path d="M3.75 16L7.29353 12.6649C7.68712 12.2944 8.30382 12.3038 8.686 12.686L12 16L13.2929 14.7071C13.6834 14.3165 14.3166 14.3165 14.7071 14.7071L19.5 19.5" stroke="currentColor" stroke-width="1.5" stroke-linecap="round" stroke-linejoin="round"></path><path d="M11.75 3.75H5.75C4.64543 3.75 3.75 4.64543 3.75 5.75V18.25C3.75 19.3546 4.64543 20.25 5.75 20.25H18.25C19.3546 20.25 20.25 19.3546 20.25 18.25V12.25" stroke="currentColor" stroke-width="1.5" stroke-linecap="round" stroke-linejoin="round"></path><path d="M19.2405 4.18518L18.5436 2.37334C18.4571 2.14842 18.241 2 18 2C17.759 2 17.5429 2.14842 17.4564 2.37334L16.7595 4.18518C16.658 4.44927 16.4493 4.65797 16.1852 4.75955L14.3733 5.45641C14.1484 5.54292 14 5.75901 14 6C14 6.24099 14.1484 6.45708 14.3733 6.54359L16.1852 7.24045C16.4493 7.34203 16.658 7.55073 16.7595 7.81482L17.4564 9.62666C17.5429 9.85158 17.759 10 18 10C18.241 10 18.4571 9.85158 18.5436 9.62666L19.2405 7.81482C19.342 7.55073 19.5507 7.34203 19.8148 7.24045L21.6267 6.54359C21.8516 6.45708 22 6.24099 22 6C22 5.75901 21.8516 5.54292 21.6267 5.45641L19.8148 4.75955C19.5507 4.65797 19.342 4.44927 19.2405 4.18518Z" fill="currentColor"></path></g></svg>