<svg width="24px" height="24px" viewBox="0 0 24 24" fill="none" xmlns="http://www.w3.org/2000/svg"><g><path d="M16 20.0001L9.3448 13.2077C8.56075 12.4075 7.27238 12.4073 6.48809 13.2073L3.75 16.0001" stroke="currentColor" stroke-width="1.5" stroke-linecap="round" stroke-linejoin="round"></path><path d="M14 11.75C15.2426 11.75 16.25 10.7426 16.25 9.5C16.25 8.25736 15.2426 7.25 14 7.25C12.7574 7.25 11.75 8.25736 11.75 9.5C11.75 10.7426 12.7574 11.75 14 11.75Z" stroke="currentColor" stroke-width="1.5" stroke-linecap="round" stroke-linejoin="round"></path><path d="M12 21.25C17.1086 21.25 21.25 17.1086 21.25 12C21.25 6.89137 17.1086 2.75 12 2.75C6.89137 2.75 2.75 6.89137 2.75 12C2.75 17.1086 6.89137 21.25 12 21.25Z" stroke="currentColor" stroke-width="1.5" stroke-linecap="round" stroke-linejoin="round"></path></g></svg>