<svg width="24px" height="24px" viewBox="0 0 24 24" fill="none" xmlns="http://www.w3.org/2000/svg"><g><path d="M12.2503 7C12.2503 8.51878 11.0191 9.75 9.50028 9.75C7.9815 9.75 6.75028 8.51878 6.75028 7C6.75028 5.48122 7.9815 4.25 9.50028 4.25C11.0191 4.25 12.2503 5.48122 12.2503 7Z" stroke="currentColor" stroke-width="1.5" stroke-linecap="round" stroke-linejoin="round"></path><path d="M5.93842 12.7206C4.86539 12.7206 3.96869 14.0085 3.30335 15.4402C2.82956 16.4598 2.59266 16.9695 2.69565 17.5815C2.77617 18.06 3.13578 18.6236 3.53576 18.8983C4.04733 19.2496 4.70893 19.2496 6.03211 19.2496H17.7485C19.1877 19.2496 19.9073 19.2496 20.4069 18.9219C20.8244 18.648 21.1562 18.1662 21.2633 17.6784C21.3914 17.0948 21.1517 16.4667 20.6723 15.2103C19.2803 11.562 17.8572 9.64519 16.5003 9.75761C13.5235 10.0042 12.2168 14.6685 10.5003 14.6685C9.07338 14.6685 7.74172 12.7206 5.93842 12.7206Z" stroke="currentColor" stroke-width="1.5" stroke-linecap="round" stroke-linejoin="round"></path></g></svg>