<svg width="24px" height="24px" viewBox="0 0 24 24" fill="none" xmlns="http://www.w3.org/2000/svg"><g><path d="M2 12.75H7.42732C8.04847 12.75 8.63437 13.0386 9.01294 13.5311L9.34956 13.9689C9.72814 14.4614 10.314 14.75 10.9352 14.75H13.0648C13.686 14.75 14.2719 14.4614 14.6504 13.9689L14.9871 13.5311C15.3656 13.0386 15.9515 12.75 16.5727 12.75H22M22.0299 12.3205L18.7075 5.83782C18.3653 5.17003 17.678 4.75 16.9276 4.75H7.07236C6.32198 4.75 5.63473 5.17003 5.29249 5.83782L1.97013 12.3205C1.82545 12.6028 1.75 12.9154 1.75 13.2327V17.25C1.75 18.3546 2.64543 19.25 3.75 19.25H20.25C21.3546 19.25 22.25 18.3546 22.25 17.25V13.2327C22.25 12.9154 22.1745 12.6028 22.0299 12.3205Z" stroke="currentColor" stroke-width="1.5" stroke-linecap="round"></path></g></svg>