<svg width="24px" height="24px" viewBox="0 0 24 24" fill="none" xmlns="http://www.w3.org/2000/svg"><g><path d="M12.3535 6.14637L14.1464 4.35348C14.3416 4.15822 14.6582 4.15822 14.8535 4.35348L16.6464 6.14637C16.8416 6.34163 16.8416 6.65822 16.6464 6.85348L14.8535 8.64637C14.6582 8.84163 14.3416 8.84163 14.1464 8.64637L12.3535 6.85348C12.1582 6.65822 12.1582 6.34163 12.3535 6.14637Z" fill="currentColor"></path><circle cx="4" cy="18" r="1.25" stroke="currentColor" stroke-width="1.5"></circle><circle cx="9" cy="11" r="1.25" stroke="currentColor" stroke-width="1.5"></circle><circle cx="15" cy="16" r="1.25" stroke="currentColor" stroke-width="1.5"></circle><circle cx="20" cy="10" r="1.25" stroke="currentColor" stroke-width="1.5"></circle><path d="M4.71484 17L8.24279 12.0608M10.0005 11.8332L14.0005 15.1666M15.8339 15L19.2079 10.9512" stroke="currentColor" stroke-width="1.5"></path><circle cx="4.5" cy="8.5" r="1.5" fill="currentColor"></circle></g></svg>