<svg width="24px" height="24px" viewBox="0 0 24 24" fill="none" xmlns="http://www.w3.org/2000/svg"><g><path d="M2.41421 10.5858L7.58579 5.41421C8.36684 4.63317 9.63316 4.63316 10.4142 5.41421L15.5858 10.5858C16.3668 11.3668 16.3668 12.6332 15.5858 13.4142L10.4142 18.5858C9.63317 19.3668 8.36684 19.3668 7.58579 18.5858L2.41421 13.4142C1.63317 12.6332 1.63316 11.3668 2.41421 10.5858Z" stroke="currentColor" stroke-width="1.5" stroke-linecap="round" stroke-linejoin="round"></path><path d="M12 7L13.5858 5.41421C14.3668 4.63316 15.6332 4.63316 16.4142 5.41421L21.5858 10.5858C22.3668 11.3668 22.3668 12.6332 21.5858 13.4142L16.4142 18.5858C15.6332 19.3668 14.3668 19.3668 13.5858 18.5858L12 17" stroke="currentColor" stroke-width="1.5" stroke-linecap="round" stroke-linejoin="round"></path></g></svg>