<svg width="24px" height="24px" viewBox="0 0 24 24" fill="none" xmlns="http://www.w3.org/2000/svg"><g><path d="M4.75 10.9853V4.75C4.75 3.64543 5.64543 2.75 6.75 2.75H17.25C18.3546 2.75 19.25 3.64543 19.25 4.75V10.9853M9.75 7.75H14.25M12.617 13.5499L19.9415 11.1744C20.5875 10.9649 21.25 11.4465 21.25 12.1256V18.25C21.25 19.3546 20.3546 20.25 19.25 20.25H4.75C3.64543 20.25 2.75 19.3546 2.75 18.25V12.1256C2.75 11.4465 3.41249 10.9649 4.0585 11.1744L11.383 13.5499C11.784 13.68 12.216 13.68 12.617 13.5499Z" stroke="currentColor" stroke-width="1.5" stroke-linecap="round" stroke-linejoin="round"></path></g></svg>