<svg width="24px" height="24px" viewBox="0 0 24 24" fill="none" xmlns="http://www.w3.org/2000/svg"><g><path d="M15.25 20.25H16.25M15.25 20.25L14.7058 18.6175C14.4336 17.8009 13.6693 17.25 12.8085 17.25H6.19152C5.33066 17.25 4.56638 17.8009 4.29415 18.6175L3.75 20.25M15.25 20.25H3.75M2.75 20.25H3.75" stroke="currentColor" stroke-width="1.5" stroke-linecap="round" stroke-linejoin="round"></path><path d="M1.75 13.25H4.25" stroke="currentColor" stroke-width="1.5" stroke-linecap="round" stroke-linejoin="round"></path><path d="M5.5 9.75L3.5 8.25" stroke="currentColor" stroke-width="1.5" stroke-linecap="round" stroke-linejoin="round"></path><path d="M15.8742 9.37521L13.8742 11.3752C13.1148 12.1346 11.8836 12.1346 11.1242 11.3752C10.3648 10.6158 10.3648 9.3846 11.1242 8.62521L15.1242 4.62521C15.8836 3.86582 17.1148 3.86582 17.8742 4.62521C18.6336 5.3846 18.6336 6.61582 17.8742 7.37521L15.8742 9.37521ZM15.8742 9.37521L20.7492 14.2502" stroke="currentColor" stroke-width="1.5" stroke-linecap="round" stroke-linejoin="round"></path></g></svg>