<svg width="24px" height="24px" viewBox="0 0 24 24" fill="none" xmlns="http://www.w3.org/2000/svg"><g><path d="M9.75 6.75C9.75 5.64543 10.6454 4.75 11.75 4.75H12.25C13.3546 4.75 14.25 5.64543 14.25 6.75V17.25C14.25 18.3546 13.3546 19.25 12.25 19.25H11.75C10.6454 19.25 9.75 18.3546 9.75 17.25V6.75Z" stroke="currentColor" stroke-width="1.5" stroke-linejoin="round"></path><path d="M2.75 6.75C2.75 5.64543 3.64543 4.75 4.75 4.75H5.25C6.35457 4.75 7.25 5.64543 7.25 6.75V13.1071C7.25 14.2117 6.35457 15.1071 5.25 15.1071H4.75C3.64543 15.1071 2.75 14.2117 2.75 13.1071V6.75Z" stroke="currentColor" stroke-width="1.5" stroke-linejoin="round"></path><path d="M16.75 6.75C16.75 5.64543 17.6454 4.75 18.75 4.75H19.25C20.3546 4.75 21.25 5.64543 21.25 6.75V11.0357C21.25 12.1403 20.3546 13.0357 19.25 13.0357H18.75C17.6454 13.0357 16.75 12.1403 16.75 11.0357V6.75Z" stroke="currentColor" stroke-width="1.5" stroke-linejoin="round"></path></g></svg>