<svg width="24px" height="24px" viewBox="0 0 24 24" fill="none" xmlns="http://www.w3.org/2000/svg"><g><path d="M5.75 16.5C6.16421 16.5 6.5 16.8358 6.5 17.25C6.5 17.6642 6.16421 18 5.75 18C5.33579 18 5 17.6642 5 17.25C5 16.8358 5.33579 16.5 5.75 16.5ZM18.25 16.5C18.6642 16.5 19 16.8358 19 17.25C19 17.6642 18.6642 18 18.25 18C17.8359 17.9999 17.5 17.6641 17.5 17.25C17.5 16.8359 17.8359 16.5001 18.25 16.5ZM5.75 12C6.16421 12 6.5 12.3358 6.5 12.75C6.5 13.1642 6.16421 13.5 5.75 13.5C5.33579 13.5 5 13.1642 5 12.75C5 12.3358 5.33579 12 5.75 12ZM9.75 12C10.1642 12 10.5 12.3358 10.5 12.75C10.5 13.1642 10.1642 13.5 9.75 13.5C9.33579 13.5 9 13.1642 9 12.75C9 12.3358 9.33579 12 9.75 12ZM14.25 12C14.6642 12 15 12.3358 15 12.75C15 13.1642 14.6642 13.5 14.25 13.5C13.8358 13.5 13.5 13.1642 13.5 12.75C13.5 12.3358 13.8358 12 14.25 12ZM18.25 12C18.6642 12 19 12.3358 19 12.75C19 13.1642 18.6642 13.5 18.25 13.5C17.8359 13.4999 17.5 13.1641 17.5 12.75C17.5 12.3359 17.8359 12.0001 18.25 12Z" fill="currentColor" stroke="currentColor" stroke-width="0.5"></path><path d="M9.75 17.25H14.25M14 5L12 3L10 5M3.75 8.75H20.25C21.3546 8.75 22.25 9.64543 22.25 10.75V19.25C22.25 20.3546 21.3546 21.25 20.25 21.25H3.75C2.64543 21.25 1.75 20.3546 1.75 19.25V10.75C1.75 9.64543 2.64543 8.75 3.75 8.75Z" stroke="currentColor" stroke-width="1.5" stroke-linecap="round" stroke-linejoin="round"></path></g></svg>