<svg width="24px" height="24px" viewBox="0 0 24 24" fill="none" xmlns="http://www.w3.org/2000/svg"><g><path d="M10 19L12 21L14 19M9.75 11.25H14.25M3.75 2.75H20.25C21.3546 2.75 22.25 3.64543 22.25 4.75V13.25C22.25 14.3546 21.3546 15.25 20.25 15.25H3.75C2.64543 15.25 1.75 14.3546 1.75 13.25V4.75C1.75 3.64543 2.64543 2.75 3.75 2.75Z" stroke="currentColor" stroke-width="1.5" stroke-linecap="round" stroke-linejoin="round"></path><path d="M5.75 10.5C6.16421 10.5 6.5 10.8358 6.5 11.25C6.5 11.6642 6.16421 12 5.75 12C5.33579 12 5 11.6642 5 11.25C5 10.8358 5.33579 10.5 5.75 10.5ZM18.25 10.5C18.6642 10.5 19 10.8358 19 11.25C19 11.6642 18.6642 12 18.25 12C17.8359 11.9999 17.5 11.6641 17.5 11.25C17.5 10.8359 17.8359 10.5001 18.25 10.5ZM5.75 6C6.16421 6 6.5 6.33579 6.5 6.75C6.5 7.16421 6.16421 7.5 5.75 7.5C5.33579 7.5 5 7.16421 5 6.75C5 6.33579 5.33579 6 5.75 6ZM9.75 6C10.1642 6 10.5 6.33579 10.5 6.75C10.5 7.16421 10.1642 7.5 9.75 7.5C9.33579 7.5 9 7.16421 9 6.75C9 6.33579 9.33579 6 9.75 6ZM14.25 6C14.6642 6 15 6.33579 15 6.75C15 7.16421 14.6642 7.5 14.25 7.5C13.8358 7.5 13.5 7.16421 13.5 6.75C13.5 6.33579 13.8358 6 14.25 6ZM18.25 6C18.6642 6 19 6.33579 19 6.75C19 7.16421 18.6642 7.5 18.25 7.5C17.8359 7.49987 17.5 7.16413 17.5 6.75C17.5 6.33587 17.8359 6.00013 18.25 6Z" fill="currentColor" stroke="currentColor" stroke-width="0.5"></path></g></svg>