<svg width="24px" height="24px" viewBox="0 0 24 24" fill="none" xmlns="http://www.w3.org/2000/svg"><g><path d="M21.25 12C21.25 17.1086 17.1086 21.25 12 21.25C6.89137 21.25 2.75 17.1086 2.75 12C2.75 6.89137 6.89137 2.75 12 2.75C17.1086 2.75 21.25 6.89137 21.25 12Z" stroke="currentColor" stroke-width="1.5" stroke-linejoin="round"></path><path d="M13.5 12.8839C14.5399 12.3419 15.25 11.2539 15.25 10C15.25 8.20507 13.7949 6.75 12 6.75C10.2051 6.75 8.75 8.20507 8.75 10C8.75 11.2539 9.46005 12.3419 10.5 12.8839V15.75C10.5 16.5784 11.1716 17.25 12 17.25C12.8284 17.25 13.5 16.5784 13.5 15.75V12.8839Z" stroke="currentColor" stroke-width="1.5" stroke-linejoin="round"></path></g></svg>