<svg width="24px" height="24px" viewBox="0 0 24 24" fill="none" xmlns="http://www.w3.org/2000/svg"><g><path d="M15.5 2.5L14.5 3.5" stroke="currentColor" stroke-width="1.5" stroke-linecap="round" stroke-linejoin="round"></path><path d="M8.5 2.5L9.5 3.5" stroke="currentColor" stroke-width="1.5" stroke-linecap="round" stroke-linejoin="round"></path><path d="M12 14.5654L9.21608 20.5007C8.89256 21.1905 8.09187 21.544 7.42554 21.1746C5.01475 19.8383 3.75 17.2732 3.75 14.3282C3.75 10.0048 7.44365 6.5 12 6.5C16.5563 6.5 20.25 10.0048 20.25 14.3282C20.25 17.2732 18.9852 19.8383 16.5745 21.1746C15.9081 21.544 15.1074 21.1905 14.7839 20.5007L12 14.5654ZM12 14.5654V6.97444" stroke="currentColor" stroke-width="1.5" stroke-linecap="round" stroke-linejoin="round"></path><path d="M10 20.5C10.6432 20.6338 11.3126 20.7044 12 20.7044C12.6874 20.7044 13.3568 20.6338 14 20.5" stroke="currentColor" stroke-width="1.5" stroke-linecap="round" stroke-linejoin="round"></path><path d="M16 7.25C16 5.04086 14.2091 3.25 12 3.25C9.79086 3.25 8 5.04086 8 7.25" stroke="currentColor" stroke-width="1.5" stroke-linecap="round" stroke-linejoin="round"></path><circle cx="7.75" cy="13.5" r="1.5" fill="currentColor"></circle><circle cx="16.25" cy="13.5" r="1.5" fill="currentColor"></circle></g></svg>