<svg width="24px" height="24px" viewBox="0 0 24 24" fill="none" xmlns="http://www.w3.org/2000/svg"><g><path d="M12 2.75V20.25M12 20.25H6.75M12 20.25H17.25M2.75 5.75H7.52786C7.83835 5.75 8.14458 5.67771 8.42229 5.53885L9.57771 4.96115C9.85542 4.82229 10.1616 4.75 10.4721 4.75H13.5279C13.8384 4.75 14.1446 4.82229 14.4223 4.96115L15.5777 5.53885C15.8554 5.67771 16.1616 5.75 16.4721 5.75H21.25M5.5 5.75L2.98763 13.7058C2.7033 14.6062 3.07662 15.6252 3.98011 15.8994C5.00381 16.2102 5.99619 16.2102 7.01989 15.8994C7.92338 15.6252 8.2967 14.6062 8.01237 13.7058L5.5 5.75ZM18.5 5.75L15.9876 13.7058C15.7033 14.6062 16.0766 15.6252 16.9801 15.8994C18.0038 16.2102 18.9962 16.2102 20.0199 15.8994C20.9234 15.6252 21.2967 14.6062 21.0124 13.7058L18.5 5.75Z" stroke="currentColor" stroke-width="1.5" stroke-linecap="round" stroke-linejoin="round"></path></g></svg>