<svg width="24px" height="24px" viewBox="0 0 24 24" fill="none" xmlns="http://www.w3.org/2000/svg"><g><path fill-rule="evenodd" clip-rule="evenodd" d="M12.0888 4.58907C12.0309 4.56667 11.9666 4.56667 11.9086 4.58907L3.68334 7.76702C3.47014 7.8494 3.47014 8.15105 3.68334 8.23342L11.9086 11.4114C11.9666 11.4338 12.0309 11.4338 12.0888 11.4114L20.3141 8.23342C20.5273 8.15105 20.5273 7.8494 20.3141 7.76702L12.0888 4.58907ZM11.368 3.18987C11.7739 3.03306 12.2236 3.03306 12.6294 3.18987L20.8547 6.36783C22.3471 6.94443 22.3471 9.05601 20.8547 9.63262L12.6294 12.8106C12.2236 12.9674 11.7739 12.9674 11.368 12.8106L3.14274 9.63262C1.65034 9.05601 1.65034 6.94444 3.14274 6.36783L11.368 3.18987Z" fill="currentColor"></path><path d="M20.8547 13.6326L12.6294 16.8106C12.2236 16.9674 11.7739 16.9674 11.368 16.8106L3.14274 13.6326C2.25338 13.289 1.89401 12.4003 2.06464 11.6161L11.8664 15.4032C11.9039 15.4176 11.9431 15.4258 11.9826 15.4277C11.9916 15.4282 12.0007 15.4283 12.0097 15.4279C12.0517 15.4268 12.0936 15.4186 12.1335 15.4032L21.933 11.617C22.1032 12.4009 21.7438 13.2891 20.8547 13.6326Z" fill="currentColor"></path><path d="M20.8554 17.6326L12.6301 20.8105C12.2243 20.9673 11.7746 20.9673 11.3687 20.8105L3.14343 17.6326C2.25407 17.2889 1.8947 16.4002 2.06533 15.6161L11.8671 19.4031C11.9046 19.4176 11.9438 19.4258 11.9833 19.4276C11.9923 19.4282 12.0014 19.4283 12.0104 19.4279C12.0524 19.4268 12.0943 19.4185 12.1342 19.4031L21.9337 15.6169C22.1039 16.4009 21.7445 17.2891 20.8554 17.6326Z" fill="currentColor"></path></g></svg>