<svg width="24px" height="24px" viewBox="0 0 24 24" fill="none" xmlns="http://www.w3.org/2000/svg"><g><path d="M3.75 6.95C3.75 5.8299 3.75 5.26984 3.96799 4.84202C4.15973 4.46569 4.46569 4.15973 4.84202 3.96799C5.26984 3.75 5.8299 3.75 6.95 3.75H10.25V8.25H3.75V6.95Z" stroke="currentColor" stroke-width="1.5" stroke-linecap="round" stroke-linejoin="round"></path><path d="M13.75 15.75H20.25V17.05C20.25 18.1701 20.25 18.7302 20.032 19.158C19.8403 19.5343 19.5343 19.8403 19.158 20.032C18.7302 20.25 18.1701 20.25 17.05 20.25H13.75V15.75Z" stroke="currentColor" stroke-width="1.5" stroke-linecap="round" stroke-linejoin="round"></path><path d="M3.75 11.75H10.25V20.25H6.95C5.8299 20.25 5.26984 20.25 4.84202 20.032C4.46569 19.8403 4.15973 19.5343 3.96799 19.158C3.75 18.7302 3.75 18.1701 3.75 17.05V11.75Z" stroke="currentColor" stroke-width="1.5" stroke-linecap="round" stroke-linejoin="round"></path><path d="M13.75 3.75H17.05C18.1701 3.75 18.7302 3.75 19.158 3.96799C19.5343 4.15973 19.8403 4.46569 20.032 4.84202C20.25 5.26984 20.25 5.8299 20.25 6.95V12.25H13.75V3.75Z" stroke="currentColor" stroke-width="1.5" stroke-linecap="round" stroke-linejoin="round"></path></g></svg>