<svg width="24px" height="24px" viewBox="0 0 24 24" fill="none" xmlns="http://www.w3.org/2000/svg"><g><path d="M4.84202 20.032L5.19315 19.3429L5.19315 19.3429L4.84202 20.032ZM3.96799 19.158L4.65712 18.8068H4.65712L3.96799 19.158ZM20.032 19.158L19.3429 18.8068L19.3429 18.8068L20.032 19.158ZM19.158 20.032L18.8068 19.3429L18.8068 19.3429L19.158 20.032ZM20.032 4.84202L19.3429 5.19315L19.3429 5.19315L20.032 4.84202ZM19.158 3.96799L18.8068 4.65712V4.65712L19.158 3.96799ZM3.96799 4.84202L3.27885 4.49089H3.27885L3.96799 4.84202ZM4.84202 3.96799L4.49089 3.27885V3.27885L4.84202 3.96799ZM19.4766 6.95V17.05H21.0234V6.95H19.4766ZM17.05 19.4766H6.95V21.0234H17.05V19.4766ZM4.52344 17.05V6.95H2.97656V17.05H4.52344ZM6.95 4.52344H17.05V2.97656H6.95V4.52344ZM6.95 19.4766C6.37719 19.4766 5.99409 19.476 5.69939 19.4519C5.41371 19.4285 5.27986 19.3871 5.19315 19.3429L4.49089 20.7211C4.832 20.895 5.19209 20.9625 5.57342 20.9936C5.94573 21.024 6.40271 21.0234 6.95 21.0234V19.4766ZM2.97656 17.05C2.97656 17.5973 2.97596 18.0543 3.00638 18.4266C3.03754 18.8079 3.10504 19.168 3.27885 19.5091L4.65712 18.8068C4.61295 18.7201 4.57146 18.5863 4.54812 18.3006C4.52404 18.0059 4.52344 17.6228 4.52344 17.05H2.97656ZM5.19315 19.3429C4.96236 19.2253 4.77472 19.0376 4.65712 18.8068L3.27885 19.5091C3.54475 20.031 3.96903 20.4552 4.49089 20.7211L5.19315 19.3429ZM19.4766 17.05C19.4766 17.6228 19.476 18.0059 19.4519 18.3006C19.4285 18.5863 19.3871 18.7201 19.3429 18.8068L20.7212 19.5091C20.895 19.168 20.9625 18.8079 20.9936 18.4266C21.024 18.0543 21.0234 17.5973 21.0234 17.05H19.4766ZM17.05 21.0234C17.5973 21.0234 18.0543 21.024 18.4266 20.9936C18.8079 20.9625 19.168 20.895 19.5091 20.7211L18.8068 19.3429C18.7201 19.3871 18.5863 19.4285 18.3006 19.4519C18.0059 19.476 17.6228 19.4766 17.05 19.4766V21.0234ZM19.3429 18.8068C19.2253 19.0376 19.0376 19.2253 18.8068 19.3429L19.5091 20.7211C20.031 20.4552 20.4553 20.031 20.7212 19.5091L19.3429 18.8068ZM21.0234 6.95C21.0234 6.40271 21.024 5.94573 20.9936 5.57342C20.9625 5.19209 20.895 4.832 20.7212 4.49089L19.3429 5.19315C19.3871 5.27986 19.4285 5.41371 19.4519 5.69939C19.476 5.99409 19.4766 6.37719 19.4766 6.95H21.0234ZM17.05 4.52344C17.6228 4.52344 18.0059 4.52404 18.3006 4.54812C18.5863 4.57146 18.7201 4.61295 18.8068 4.65712L19.5091 3.27885C19.168 3.10504 18.8079 3.03754 18.4266 3.00638C18.0543 2.97596 17.5973 2.97656 17.05 2.97656V4.52344ZM20.7212 4.49089C20.4553 3.96903 20.031 3.54475 19.5091 3.27885L18.8068 4.65712C19.0376 4.77472 19.2253 4.96236 19.3429 5.19315L20.7212 4.49089ZM4.52344 6.95C4.52344 6.37719 4.52404 5.99409 4.54812 5.69939C4.57146 5.41371 4.61295 5.27986 4.65712 5.19315L3.27885 4.49089C3.10504 4.832 3.03754 5.19209 3.00638 5.57342C2.97596 5.94573 2.97656 6.40271 2.97656 6.95H4.52344ZM6.95 2.97656C6.40271 2.97656 5.94573 2.97596 5.57342 3.00638C5.19209 3.03754 4.832 3.10504 4.49089 3.27885L5.19315 4.65712C5.27986 4.61295 5.41371 4.57146 5.69939 4.54812C5.99409 4.52404 6.37719 4.52344 6.95 4.52344V2.97656ZM4.65712 5.19315C4.77472 4.96236 4.96236 4.77472 5.19315 4.65712L4.49089 3.27885C3.96903 3.54475 3.54475 3.96903 3.27885 4.49089L4.65712 5.19315Z" fill="currentColor"></path><path d="M20.25 15.5264H21.0234V13.9795H20.25V15.5264ZM3.75 13.9795H2.97656V15.5264H3.75V13.9795ZM3.75 15.5264H20.25V13.9795H3.75V15.5264Z" fill="currentColor"></path><path d="M20.25 10.0205H21.0234V8.47363H20.25V10.0205ZM3.75 8.47363H2.97656V10.0205H3.75V8.47363ZM3.75 10.0205H20.25V8.47363H3.75V10.0205Z" fill="currentColor"></path></g></svg>