<svg width="24px" height="24px" viewBox="0 0 24 24" fill="none" xmlns="http://www.w3.org/2000/svg"><g><path d="M18.25 3.75H5.75C4.64543 3.75 3.75 4.64543 3.75 5.75V18.25C3.75 19.3546 4.64543 20.25 5.75 20.25H18.25C19.3546 20.25 20.25 19.3546 20.25 18.25V5.75C20.25 4.64543 19.3546 3.75 18.25 3.75Z" stroke="currentColor" stroke-width="1.5" stroke-linejoin="round"></path><path d="M9.09766 16.2969C8.63477 16.2969 8.33594 16.0273 8.33594 15.5996C8.33594 15.4824 8.36523 15.3184 8.43555 15.1367L10.8906 8.46289C11.0957 7.90039 11.4355 7.64258 11.9863 7.64258C12.543 7.64258 12.8828 7.88867 13.0938 8.45703L15.5547 15.1367C15.625 15.3301 15.6543 15.4648 15.6543 15.5996C15.6543 16.0098 15.3379 16.2969 14.8984 16.2969C14.4883 16.2969 14.2598 16.1094 14.125 15.6582L13.5684 14.041H10.4102L9.85352 15.6465C9.71289 16.1035 9.49023 16.2969 9.09766 16.2969ZM10.7676 12.8457H13.1992L11.998 9.23633H11.957L10.7676 12.8457Z" fill="currentColor"></path></g></svg>