<svg width="24px" height="24px" viewBox="0 0 24 24" fill="none" xmlns="http://www.w3.org/2000/svg"><g><circle cx="12" cy="12" r="9.25" stroke="currentColor" stroke-width="1.5"></circle><path d="M9.09766 16.0996C8.63477 16.0996 8.33594 15.8301 8.33594 15.4023C8.33594 15.2852 8.36523 15.1211 8.43555 14.9395L10.8906 8.26562C11.0957 7.70312 11.4355 7.44531 11.9863 7.44531C12.543 7.44531 12.8828 7.69141 13.0938 8.25977L15.5547 14.9395C15.625 15.1328 15.6543 15.2676 15.6543 15.4023C15.6543 15.8125 15.3379 16.0996 14.8984 16.0996C14.4883 16.0996 14.2598 15.9121 14.125 15.4609L13.5684 13.8438H10.4102L9.85352 15.4492C9.71289 15.9062 9.49023 16.0996 9.09766 16.0996ZM10.7676 12.6484H13.1992L11.998 9.03906H11.957L10.7676 12.6484Z" fill="currentColor"></path></g></svg>