<svg width="24px" height="24px" viewBox="0 0 24 24" fill="none" xmlns="http://www.w3.org/2000/svg"><g><path d="M18.25 3.75H5.75C4.64543 3.75 3.75 4.64543 3.75 5.75V18.25C3.75 19.3546 4.64543 20.25 5.75 20.25H18.25C19.3546 20.25 20.25 19.3546 20.25 18.25V5.75C20.25 4.64543 19.3546 3.75 18.25 3.75Z" stroke="currentColor" stroke-width="1.5" stroke-linejoin="round"></path><path d="M9.55469 16.2275C9.0918 16.2275 8.78125 15.9463 8.78125 15.5186C8.78125 15.3018 8.85156 15.1318 9.01562 14.9033L13.2695 9.09082V9.0498H9.50195C9.08594 9.0498 8.81055 8.80371 8.81055 8.41113C8.81055 8.01855 9.08594 7.77246 9.50195 7.77246H14.3125C14.793 7.77246 15.0977 8.05957 15.0977 8.50488C15.0977 8.73926 15.0098 8.88574 14.8574 9.10254L10.6328 14.9092V14.9502H14.6172C15.0332 14.9502 15.3086 15.1963 15.3086 15.5889C15.3086 15.9814 15.0273 16.2275 14.6172 16.2275H9.55469Z" fill="currentColor"></path></g></svg>