<svg width="24px" height="24px" viewBox="0 0 24 24" fill="none" xmlns="http://www.w3.org/2000/svg"><g><path d="M16.25 2.75C16.25 8.57667 7.75 8.57667 7.75 2.75C7.75 5.16887 7.75 8.21239 5.68408 9.32112C4.71081 9.84345 3.75 10.6454 3.75 11.75V18.25C3.75 19.3546 4.64543 20.25 5.75 20.25H18.25C19.3546 20.25 20.25 19.3546 20.25 18.25V11.6871C20.25 10.6074 19.3368 9.808 18.3804 9.30703C16.25 8.19115 16.25 5.19377 16.25 2.75Z" stroke="currentColor" stroke-width="1.5" stroke-linecap="round" stroke-linejoin="round"></path><path d="M12 7.25V11.75M12 11.75V15.75M12 11.75H9.75M12 11.75H14.25M12 15.75V20.25M12 15.75H3.75M12 15.75H20.25" stroke="currentColor" stroke-width="1.5" stroke-linecap="round" stroke-linejoin="round"></path></g></svg>