<svg width="24px" height="24px" viewBox="0 0 24 24" fill="none" xmlns="http://www.w3.org/2000/svg"><g><path d="M2.49012 13.0894L1.53906 13.3984M22.4623 6.60006L21.5112 6.90908M2.49012 6.90863L1.53906 6.59961M22.4623 13.398L21.5112 13.089" stroke="currentColor" stroke-width="1.5" stroke-linecap="round" stroke-linejoin="round"></path><path d="M11.9991 2.75C7.99456 2.75 4.74823 5.99633 4.74823 10.0009C4.74823 12.3433 5.85901 14.4264 7.58257 15.7519C7.62083 15.7814 7.6594 15.8104 7.69826 15.8391C8.30666 16.2881 8.74793 16.961 8.74793 17.7171V18.9988C8.74793 20.7944 10.2035 22.25 11.9991 22.25C13.7947 22.25 15.2503 20.7944 15.2503 18.9988V17.7171C15.2503 16.961 15.6916 16.2881 16.3 15.8391C16.3388 15.8104 16.3774 15.7814 16.4157 15.7519C18.1392 14.4264 19.25 12.3433 19.25 10.0009C19.25 5.99633 16.0037 2.75 11.9991 2.75Z" stroke="currentColor" stroke-width="1.5" stroke-linecap="round" stroke-linejoin="round"></path><path d="M8.74792 17.75H15.2503" stroke="currentColor" stroke-width="1.5" stroke-linecap="round" stroke-linejoin="round"></path></g></svg>