<svg width="24px" height="24px" viewBox="0 0 24 24" fill="none" xmlns="http://www.w3.org/2000/svg"><g><path d="M8.74793 15.4838V17.25C8.74793 17.8023 9.19565 18.25 9.74793 18.25H14.2503C14.8026 18.25 15.2503 17.8023 15.2503 17.25V15.4838M8.74793 15.4838C8.33542 15.2765 7.94542 15.031 7.58257 14.7519C5.85901 13.4264 4.74823 11.3433 4.74823 9.00089C4.74823 4.99633 7.99456 1.75 11.9991 1.75C16.0037 1.75 19.25 4.99633 19.25 9.00089C19.25 11.3433 18.1392 13.4264 16.4157 14.7519C16.0528 15.031 15.6628 15.2765 15.2503 15.4838M8.74793 15.4838H15.2503M9.75 21.25H14.25" stroke="currentColor" stroke-width="1.5" stroke-linecap="round" stroke-linejoin="round"></path></g></svg>