<svg width="24px" height="24px" viewBox="0 0 24 24" fill="none" xmlns="http://www.w3.org/2000/svg"><g><path fill-rule="evenodd" clip-rule="evenodd" d="M8.13814 10.6124L6.51119 12.8526C6.39152 13.0177 6.5095 13.2497 6.71334 13.2501H10.354C11.1436 13.2503 11.735 13.9741 11.5786 14.7482L10.5376 19.9005C10.5201 19.987 10.5367 20.0378 10.5551 20.0704C10.5778 20.1104 10.6212 20.152 10.6821 20.1788C10.7429 20.2055 10.8023 20.2086 10.8471 20.1983C10.8836 20.1899 10.9327 20.1684 10.9848 20.0968L13.7778 16.2521L14.852 17.3263L12.1977 20.9786C11.0926 22.4983 8.69527 21.4455 9.06685 19.6036L10.0483 14.7501H6.71334C5.28378 14.7497 4.45799 13.1274 5.2983 11.9708L7.0649 9.53917L8.13814 10.6124ZM11.8032 3.02159C12.9082 1.50143 15.3059 2.55452 14.934 4.39659L13.9526 9.25011H17.2876C18.7175 9.25022 19.5433 10.8727 18.7026 12.0294L16.935 14.4601L15.8618 13.3868L17.4897 11.1476C17.6098 10.9824 17.4917 10.7502 17.2876 10.7501H13.6469C12.8576 10.7496 12.2661 10.0259 12.4223 9.25206L13.4633 4.09972C13.4808 4.01305 13.4642 3.9624 13.4458 3.92979C13.423 3.88977 13.3798 3.84819 13.3188 3.8214C13.2579 3.79474 13.1986 3.79155 13.1538 3.80186C13.1173 3.81035 13.0681 3.83189 13.0161 3.90343L10.2221 7.74718L9.14791 6.67296L11.8032 3.02159Z" fill="currentColor"></path><path d="M4.75 4.75L19.25 19.25" stroke="currentColor" stroke-width="1.5" stroke-linecap="round"></path></g></svg>