<svg width="24px" height="24px" viewBox="0 0 24 24" fill="none" xmlns="http://www.w3.org/2000/svg"><g><path d="M17.25 8.25229L17.25 6.25C17.25 5.14543 16.3546 4.25 15.25 4.25H4.25C3.14543 4.25 2.25 5.14543 2.25 6.25V13.75C2.25 14.8546 3.14543 15.75 4.25 15.75H5.87069" stroke="currentColor" stroke-width="1.5" stroke-linecap="round" stroke-linejoin="round"></path><path d="M16 8.25H11.5C8.32436 8.25 5.75 10.8244 5.75 14C5.75 17.1756 8.32436 19.75 11.5 19.75H16C19.1756 19.75 21.75 17.1756 21.75 14C21.75 10.8244 19.1756 8.25 16 8.25Z" stroke="currentColor" stroke-width="1.5"></path><path d="M18.0011 10.75C18.0011 10.0596 17.4415 9.5 16.7511 9.5H16.2859C16.1999 9.5 16.1303 9.56967 16.1303 9.65561C16.1303 9.70201 16.1515 9.74548 16.185 9.77756C16.3751 9.9596 16.4936 10.216 16.4936 10.5V12.7458C16.4936 13.9884 15.4862 14.9958 14.2436 14.9958H8.69336C8.0624 14.9959 7.55093 15.2551 7.55078 15.8861C7.55078 16.3413 7.9852 16.9012 8.60045 17.4227C8.66166 17.4745 8.73058 17.5435 8.80954 17.5293C9.0276 17.4899 8.40942 16.4958 9.25098 16.4958H14.2511C16.3222 16.4958 18.0011 14.8168 18.0011 12.7458V10.75Z" fill="currentColor"></path></g></svg>