<svg width="24px" height="24px" viewBox="0 0 24 24" fill="none" xmlns="http://www.w3.org/2000/svg"><g><path d="M20.25 5.75C20.25 4.64543 19.3546 3.75 18.25 3.75H5.75C4.64543 3.75 3.75 4.64543 3.75 5.75V18.25C3.75 19.3546 4.64543 20.25 5.75 20.25H18.25C19.3546 20.25 20.25 19.3546 20.25 18.25V5.75Z" stroke="currentColor" stroke-width="1.5" stroke-linejoin="round"></path><path d="M8 14.75C8.69036 14.75 9.25 15.3096 9.25 16C9.25 16.6904 8.69036 17.25 8 17.25C7.30964 17.25 6.75 16.6904 6.75 16C6.75 15.3096 7.30964 14.75 8 14.75Z" fill="currentColor"></path><path d="M8 10.75C8.69036 10.75 9.25 11.3096 9.25 12C9.25 12.6904 8.69036 13.25 8 13.25C7.30964 13.25 6.75 12.6904 6.75 12C6.75 11.3096 7.30964 10.75 8 10.75Z" fill="currentColor"></path><path d="M8 6.75C8.69036 6.75 9.25 7.30964 9.25 8C9.25 8.69036 8.69036 9.25 8 9.25C7.30964 9.25 6.75 8.69036 6.75 8C6.75 7.30964 7.30964 6.75 8 6.75Z" fill="currentColor"></path></g></svg>