<svg width="24px" height="24px" viewBox="0 0 24 24" fill="none" xmlns="http://www.w3.org/2000/svg"><g><path d="M15.93 17.3053C16.5944 17.1154 17.1137 16.5961 17.3036 15.9317L20.5038 4.73078C20.7194 3.97643 20.0219 3.27901 19.2676 3.49454L8.06669 6.69479C7.40227 6.88462 6.88291 7.40398 6.69308 8.0684L3.49283 19.2693C3.2773 20.0236 3.97472 20.7211 4.72907 20.5055L15.93 17.3053Z" stroke="currentColor" stroke-width="1.5" stroke-linejoin="round"></path><path d="M13.9983 12C13.9983 13.1046 13.1029 14 11.9983 14C10.8938 14 9.99833 13.1046 9.99833 12C9.99833 10.8955 10.8938 10 11.9983 10C13.1029 10 13.9983 10.8955 13.9983 12Z" stroke="currentColor" stroke-width="1.5" stroke-linejoin="round"></path></g></svg>