<svg width="24px" height="24px" viewBox="0 0 24 24" fill="none" xmlns="http://www.w3.org/2000/svg"><g><path d="M21.25 13.75V6.75C21.25 5.64543 20.3546 4.75 19.25 4.75H4.75C3.64543 4.75 2.75 5.64543 2.75 6.75V13.75M1.75 16.75V18.25C1.75 18.8023 2.19772 19.25 2.75 19.25H21.25C21.8023 19.25 22.25 18.8023 22.25 18.25V16.75H15.3165C15.1578 16.75 15.0014 16.7878 14.8601 16.8602L14.3149 17.1398C14.1736 17.2122 14.0172 17.25 13.8585 17.25H10.2212C10.0755 17.25 9.93155 17.2182 9.79945 17.1567L9.12555 16.8433C8.99345 16.7818 8.84951 16.75 8.70382 16.75H1.75Z" stroke="currentColor" stroke-width="1.5" stroke-linecap="round" stroke-linejoin="round"></path></g></svg>