<svg width="24px" height="24px" viewBox="0 0 24 24" fill="none" xmlns="http://www.w3.org/2000/svg"><g><path d="M8.98163 10.7927C9.4609 9.59556 10.6317 8.75 12 8.75C13.3683 8.75 14.5391 9.59556 15.0183 10.7927M6.65982 9.86394C7.50777 7.746 9.57917 6.25 12 6.25C14.4208 6.25 16.4922 7.746 17.3401 9.86394M19.662 8.93521C18.4453 5.89643 15.4733 3.75 12 3.75C8.52664 3.75 5.55463 5.89643 4.33801 8.93521M7.47866 13.7109L7.74434 14.4408L8.06316 14.3248C8.73042 14.0819 9.46822 14.4259 9.71108 15.0932C10.2778 16.6501 9.475 18.3717 7.91806 18.9383L7.44822 19.1094C5.89128 19.676 4.16976 18.8733 3.60308 17.3163L2.89766 15.3782C2.43724 14.1132 3.08948 12.7145 4.35449 12.254C5.6195 11.7936 7.01824 12.4459 7.47866 13.7109ZM16.5241 13.7109L16.2585 14.4408L15.9396 14.3248C15.2724 14.0819 14.5346 14.4259 14.2917 15.0932C13.725 16.6501 14.5278 18.3717 16.0847 18.9383L16.5546 19.1094C18.1115 19.676 19.833 18.8733 20.3997 17.3163L21.1051 15.3782C21.5656 14.1132 20.9133 12.7145 19.6483 12.254C18.3833 11.7936 16.9846 12.4459 16.5241 13.7109Z" stroke="currentColor" stroke-width="1.5" stroke-linecap="round" stroke-linejoin="round"></path></g></svg>