<svg width="24px" height="24px" viewBox="0 0 24 24" fill="none" xmlns="http://www.w3.org/2000/svg"><g><path d="M3.75 20.2497L11.5 12.4998" stroke="currentColor" stroke-width="1.5" stroke-linecap="round" stroke-linejoin="round"></path><path d="M17.8386 5.50854C18.2497 5.33894 18.6611 5.75028 18.4915 6.16142L17.2278 9.22477C17.1563 9.3981 17.1878 9.59686 17.3094 9.73961L19.4578 12.2625C19.7461 12.6012 19.482 13.1195 19.0386 13.0852L15.7347 12.83C15.5478 12.8156 15.3685 12.907 15.2703 13.0667L13.5347 15.8896C13.3018 16.2685 12.7272 16.1775 12.6228 15.7452L11.8445 12.5241C11.8004 12.3419 11.6581 12.1996 11.4759 12.1555L8.25484 11.3772C7.82253 11.2728 7.73153 10.6982 8.1104 10.4653L10.9333 8.72974C11.093 8.63154 11.1844 8.45224 11.17 8.2653L10.9148 4.96139C10.8805 4.51796 11.3989 4.25386 11.7375 4.54221L14.2604 6.69064C14.4031 6.8122 14.6019 6.84368 14.7752 6.77218L17.8386 5.50854Z" stroke="currentColor" stroke-width="1.5" stroke-linecap="round" stroke-linejoin="round"></path></g></svg>