<svg width="24px" height="24px" viewBox="0 0 24 24" fill="none" xmlns="http://www.w3.org/2000/svg"><g><path fill-rule="evenodd" clip-rule="evenodd" d="M16.9699 3.46967C17.9531 2.48642 19.5473 2.48642 20.5305 3.46967C21.5138 4.45292 21.5138 6.04708 20.5305 7.03033L7.03052 20.5303C6.04727 21.5136 4.45311 21.5136 3.46986 20.5303C2.48661 19.5471 2.48661 17.9529 3.46986 16.9697L16.9699 3.46967ZM19.4699 4.53033C19.0724 4.13287 18.428 4.13287 18.0305 4.53033L15.3108 7.25L16.7502 8.68934L19.4699 5.96967C19.8673 5.57221 19.8673 4.92779 19.4699 4.53033ZM15.6895 9.75L14.2502 8.31066L4.53052 18.0303C4.13306 18.4278 4.13306 19.0722 4.53052 19.4697C4.92798 19.8671 5.5724 19.8671 5.96986 19.4697L15.6895 9.75Z" fill="currentColor"></path><path d="M9.85027 2.07454C9.94703 2.02616 10.0255 1.9477 10.0739 1.85094L10.5521 0.894435C10.7364 0.525911 11.2623 0.525911 11.4466 0.894435L11.9248 1.85094C11.9732 1.9477 12.0517 2.02616 12.1484 2.07454L13.1049 2.55279C13.4734 2.73706 13.4734 3.26296 13.1049 3.44722L12.1484 3.92547C12.0517 3.97385 11.9732 4.05232 11.9248 4.14908L11.4466 5.10558C11.2623 5.47411 10.7364 5.47411 10.5521 5.10558L10.0739 4.14908C10.0255 4.05232 9.94703 3.97385 9.85027 3.92547L8.89377 3.44722C8.52525 3.26296 8.52525 2.73706 8.89377 2.55279L9.85027 2.07454Z" fill="currentColor"></path><path d="M18.8503 13.0745C18.947 13.0262 19.0255 12.9477 19.0739 12.8509L19.5521 11.8944C19.7364 11.5259 20.2623 11.5259 20.4466 11.8944L20.9248 12.8509C20.9732 12.9477 21.0517 13.0262 21.1484 13.0745L22.1049 13.5528C22.4734 13.7371 22.4734 14.263 22.1049 14.4472L21.1484 14.9255C21.0517 14.9739 20.9732 15.0523 20.9248 15.1491L20.4466 16.1056C20.2623 16.4741 19.7364 16.4741 19.5521 16.1056L19.0739 15.1491C19.0255 15.0523 18.947 14.9739 18.8503 14.9255L17.8938 14.4472C17.5252 14.263 17.5252 13.7371 17.8938 13.5528L18.8503 13.0745Z" fill="currentColor"></path><path d="M4.85027 7.07454C4.94704 7.02616 5.0255 6.9477 5.07388 6.85094L5.55213 5.89443C5.73639 5.52591 6.26229 5.52591 6.44656 5.89444L6.92481 6.85094C6.97319 6.9477 7.05165 7.02616 7.14841 7.07454L8.10492 7.55279C8.47344 7.73706 8.47344 8.26296 8.10492 8.44722L7.14841 8.92547C7.05165 8.97385 6.97319 9.05232 6.92481 9.14908L6.44656 10.1056C6.26229 10.4741 5.73639 10.4741 5.55213 10.1056L5.07388 9.14908C5.0255 9.05232 4.94704 8.97385 4.85027 8.92547L3.89377 8.44722C3.52525 8.26296 3.52525 7.73706 3.89377 7.55279L4.85027 7.07454Z" fill="currentColor"></path></g></svg>