<svg width="24px" height="24px" viewBox="0 0 24 24" fill="none" xmlns="http://www.w3.org/2000/svg"><g><path d="M6.87343 19.2601C6.73717 19.7953 7.19772 20.25 7.75 20.25H14.75C15.3023 20.25 15.7628 19.7953 15.6266 19.2601C15.1861 17.5298 13.6175 16.25 11.75 16.25H10.75C8.88252 16.25 7.31394 17.5298 6.87343 19.2601Z" stroke="currentColor" stroke-width="1.5" stroke-linecap="round" stroke-linejoin="round"></path><path d="M22.25 7H21.5308C21.0719 7 20.6934 7.33122 20.4298 7.70682C19.8793 8.4913 18.5776 9.20937 15.5 9.25H8C6.20507 9.25 4.75 10.7051 4.75 12.5C4.75 14.5711 6.42893 16.25 8.5 16.25H13C17.1977 16.25 22.4831 12.5518 23.1743 7.99643C23.2571 7.4504 22.8023 7 22.25 7Z" stroke="currentColor" stroke-width="1.5" stroke-linecap="round" stroke-linejoin="round"></path><path d="M11.25 3.75V4.5" stroke="currentColor" stroke-width="1.5" stroke-linecap="round" stroke-linejoin="round"></path><path d="M15.5 9C15.5 6.65279 13.5972 4.75 11.25 4.75C8.90279 4.75 7 6.65279 7 9" stroke="currentColor" stroke-width="1.5" stroke-linecap="round" stroke-linejoin="round"></path><path d="M2 12.8546C1.26704 12.5579 0.75 11.8393 0.75 11C0.75 9.89543 1.64543 9 2.75 9C3.85457 9 4.75 9.89543 4.75 11V12.5" stroke="currentColor" stroke-width="1.5" stroke-linecap="round" stroke-linejoin="round"></path></g></svg>