<svg width="24px" height="24px" viewBox="0 0 24 24" fill="none" xmlns="http://www.w3.org/2000/svg"><g><path d="M19 2.75C20.2426 2.75 21.25 3.75736 21.25 5C21.25 6.24264 20.2426 7.25 19 7.25C17.7574 7.25 16.75 6.24264 16.75 5C16.75 3.75736 17.7574 2.75 19 2.75Z" stroke="currentColor" stroke-width="1.5" stroke-linecap="round" stroke-linejoin="round"></path><path d="M5.56687 18.4341C3.14698 16.0142 3.14698 12.0908 5.56687 9.67087L9.40078 5.83697C10.1066 5.13117 11.2509 5.13117 11.9567 5.83697C12.6625 6.54277 12.6625 7.6871 11.9567 8.3929L8.12281 12.2268C7.11452 13.2351 7.11452 14.8699 8.12281 15.8781C9.1311 16.8864 10.7659 16.8864 11.7741 15.8781L15.608 12.0442C16.3139 11.3384 17.4582 11.3384 18.164 12.0442C18.8698 12.75 18.8698 13.8944 18.164 14.6002L14.3301 18.4341C13.1201 19.644 11.5343 20.249 9.94848 20.249C8.36265 20.249 6.77682 19.644 5.56687 18.4341Z" stroke="currentColor" stroke-width="1.5" stroke-linecap="round" stroke-linejoin="round"></path><path d="M13.9648 13.6875L16.5208 16.2434" stroke="currentColor" stroke-width="1.5" stroke-linecap="round"></path><path d="M7.75781 7.47998L10.3137 10.0359" stroke="currentColor" stroke-width="1.5" stroke-linecap="round"></path></g></svg>