<svg width="24px" height="24px" viewBox="0 0 24 24" fill="none" xmlns="http://www.w3.org/2000/svg"><g><path d="M14.6649 1.90103C14.7724 1.72392 15.0364 1.74701 15.1115 1.94011L15.4823 2.89267C15.5121 2.96935 15.5778 3.02643 15.6579 3.04531L16.6528 3.2799C16.8545 3.32746 16.9141 3.58563 16.7537 3.71678L15.9623 4.36376C15.8986 4.41584 15.8646 4.49593 15.8714 4.57793L15.9557 5.59663C15.9728 5.80313 15.7457 5.93959 15.5714 5.82755L14.7115 5.27485C14.6423 5.23036 14.5556 5.22277 14.4797 5.25457L13.537 5.64956C13.3458 5.72963 13.1459 5.5558 13.1986 5.35541L13.4585 4.36684C13.4794 4.28726 13.4599 4.20248 13.4062 4.14013L12.7392 3.36556C12.604 3.20854 12.7075 2.96464 12.9144 2.95283L13.9349 2.89457C14.017 2.88988 14.0916 2.84507 14.1343 2.77473L14.6649 1.90103Z" fill="currentColor"></path><path d="M8.30826 18.0043C8.38342 17.8112 8.64737 17.7881 8.75492 17.9652L9.28547 18.839C9.32818 18.9093 9.40276 18.9541 9.48491 18.9588L10.5054 19.0171C10.7123 19.0289 10.8158 19.2728 10.6806 19.4298L10.0136 20.2043C9.95992 20.2667 9.94035 20.3515 9.96128 20.4311L10.2212 21.4196C10.2739 21.62 10.0739 21.7939 9.88283 21.7138L8.94006 21.3188C8.86417 21.287 8.77749 21.2946 8.70827 21.3391L7.84841 21.8918C7.67411 22.0038 7.44699 21.8673 7.46409 21.6608L7.54842 20.6422C7.5552 20.5602 7.52121 20.4801 7.4575 20.428L6.66614 19.781C6.50572 19.6498 6.56532 19.3917 6.767 19.3441L7.76189 19.1095C7.84198 19.0906 7.90764 19.0336 7.93749 18.9569L8.30826 18.0043Z" fill="currentColor"></path><path d="M9.75151 4.87516C9.75151 5.63455 9.13591 6.25016 8.37651 6.25016C7.61712 6.25016 7.00151 5.63455 7.00151 4.87516C7.00151 4.11577 7.61712 3.50016 8.37651 3.50016C9.13591 3.50016 9.75151 4.11577 9.75151 4.87516Z" fill="currentColor"></path><path d="M16.0015 19.3752C16.0015 20.1346 15.3859 20.7502 14.6265 20.7502C13.8671 20.7502 13.2515 20.1346 13.2515 19.3752C13.2515 18.6158 13.8671 18.0002 14.6265 18.0002C15.3859 18.0002 16.0015 18.6158 16.0015 19.3752Z" fill="currentColor"></path><path d="M16.2136 15.2766L16.8244 8.29541L19.8675 8.56165C21.1527 8.67409 22.1034 9.80711 21.991 11.0923C21.8785 12.3775 20.7455 13.3282 19.4603 13.2158L17.0139 13.0018M3.21691 15.8653L2 8.96385L5.00831 8.4334C6.27883 8.20937 7.4904 9.05772 7.71443 10.3282C7.93845 11.5988 7.0901 12.8103 5.81959 13.0344L3.40114 13.4608M15.4767 11.9395C15.4767 13.8747 13.9079 15.4435 11.9728 15.4435C10.0376 15.4435 8.46882 13.8747 8.46882 11.9395C8.46882 10.0043 10.0376 8.43556 11.9728 8.43556C13.9079 8.43556 15.4767 10.0043 15.4767 11.9395Z" stroke="currentColor" stroke-width="1.5" stroke-linecap="round" stroke-linejoin="round"></path></g></svg>