<svg width="24px" height="24px" viewBox="0 0 24 24" fill="none" xmlns="http://www.w3.org/2000/svg"><g><path d="M14.75 10C14.75 11.5188 13.5188 12.75 12 12.75C10.4812 12.75 9.25 11.5188 9.25 10C9.25 8.48122 10.4812 7.25 12 7.25C13.5188 7.25 14.75 8.48122 14.75 10Z" stroke="currentColor" stroke-width="1.5" stroke-linejoin="round"></path><path d="M19.25 10C19.25 14.5547 15.1753 18.6833 13.1354 20.4648C12.4778 21.0392 11.5222 21.0392 10.8646 20.4648C8.82471 18.6833 4.75 14.5547 4.75 10C4.75 5.99594 7.99594 2.75 12 2.75C16.0041 2.75 19.25 5.99594 19.25 10Z" stroke="currentColor" stroke-width="1.5" stroke-linejoin="round"></path></g></svg>