<svg width="24px" height="24px" viewBox="0 0 24 24" fill="none" xmlns="http://www.w3.org/2000/svg"><g><path d="M19.5 10.15C19.5 6.06309 16.1421 2.75 12 2.75C7.85786 2.75 4.5 6.06309 4.5 10.15C4.5 14.5772 9.1875 17.0875 10.9609 20.6412C11.1519 21.024 11.5675 21.25 12 21.25C12.4325 21.25 12.8279 21.0135 13.0391 20.6412C14.8125 17.0875 19.5 14.5772 19.5 10.15Z" stroke="currentColor" stroke-width="1.5"></path><path d="M8.75 10.25C8.75 8.45507 10.2051 7 12 7C13.7949 7 15.25 8.45507 15.25 10.25C15.25 12.0449 13.7949 13.5 12 13.5C10.2051 13.5 8.75 12.0449 8.75 10.25Z" stroke="currentColor" stroke-width="1.5"></path></g></svg>