<svg width="24px" height="24px" viewBox="0 0 24 24" fill="none" xmlns="http://www.w3.org/2000/svg"><g><path d="M17 11.25L16.6675 11.9223C16.8771 12.0259 17.1229 12.0259 17.3325 11.9223L17 11.25ZM7 3.75H7.75V3H7V3.75ZM7 15.25V16C7.41421 16 7.75 15.6642 7.75 15.25H7ZM21 12.75C21 12.3358 20.6642 12 20.25 12C19.8358 12 19.5 12.3358 19.5 12.75H21ZM10.75 7.5C11.1642 7.5 11.5 7.16421 11.5 6.75C11.5 6.33579 11.1642 6 10.75 6V7.5ZM7 6C6.58579 6 6.25 6.33579 6.25 6.75C6.25 7.16421 6.58579 7.5 7 7.5V6ZM19.5 6.96429C19.5 7.98942 18.8737 8.87381 18.1213 9.55596C17.7552 9.88781 17.386 10.1468 17.1072 10.323C16.9685 10.4106 16.8542 10.4765 16.7765 10.5195C16.7377 10.541 16.7082 10.5567 16.6894 10.5664C16.6801 10.5713 16.6735 10.5747 16.6697 10.5766C16.6679 10.5775 16.6668 10.5781 16.6664 10.5783C16.6662 10.5784 16.6662 10.5784 16.6664 10.5783C16.6665 10.5782 16.6666 10.5782 16.6668 10.5781C16.6669 10.578 16.6671 10.5779 16.6671 10.5779C16.6673 10.5778 16.6675 10.5777 17 11.25C17.3325 11.9223 17.3327 11.9222 17.3329 11.9221C17.333 11.922 17.3333 11.9219 17.3335 11.9218C17.3339 11.9216 17.3343 11.9214 17.3348 11.9211C17.3358 11.9206 17.337 11.9201 17.3383 11.9194C17.3411 11.918 17.3446 11.9162 17.3489 11.914C17.3575 11.9097 17.3691 11.9037 17.3835 11.8962C17.4124 11.8811 17.4527 11.8596 17.5028 11.8319C17.6028 11.7766 17.7424 11.696 17.9084 11.5911C18.239 11.3822 18.6823 11.072 19.1287 10.6673C20.0013 9.87618 21 8.61773 21 6.96429H19.5ZM17 11.25C17.3325 10.5777 17.3327 10.5778 17.3329 10.5779C17.3329 10.5779 17.3331 10.578 17.3332 10.5781C17.3334 10.5782 17.3335 10.5782 17.3336 10.5783C17.3338 10.5784 17.3338 10.5784 17.3336 10.5783C17.3332 10.5781 17.3321 10.5775 17.3303 10.5766C17.3265 10.5747 17.3199 10.5713 17.3106 10.5664C17.2918 10.5567 17.2623 10.541 17.2235 10.5195C17.1458 10.4765 17.0315 10.4106 16.8928 10.323C16.614 10.1468 16.2448 9.88781 15.8787 9.55596C15.1263 8.87381 14.5 7.98942 14.5 6.96429H13C13 8.61773 13.9987 9.87618 14.8713 10.6673C15.3177 11.072 15.761 11.3822 16.0916 11.5911C16.2576 11.696 16.3972 11.7766 16.4972 11.8319C16.5473 11.8596 16.5876 11.8811 16.6165 11.8962C16.6309 11.9037 16.6425 11.9097 16.6511 11.914C16.6554 11.9162 16.6589 11.918 16.6617 11.9194C16.663 11.9201 16.6642 11.9206 16.6652 11.9211C16.6657 11.9214 16.6661 11.9216 16.6665 11.9218C16.6667 11.9219 16.667 11.922 16.6671 11.9221C16.6673 11.9222 16.6675 11.9223 17 11.25ZM14.5 6.96429C14.5 5.61109 15.6115 4.5 17 4.5V3C14.7987 3 13 4.76708 13 6.96429H14.5ZM17 4.5C18.3885 4.5 19.5 5.61109 19.5 6.96429H21C21 4.76708 19.2013 3 17 3V4.5ZM7 3H5.25V4.5H7V3ZM2 6.25V17.75H3.5V6.25H2ZM6.25 3.75V15.25H7.75V3.75H6.25ZM5.25 3C3.45507 3 2 4.45507 2 6.25H3.5C3.5 5.2835 4.2835 4.5 5.25 4.5V3ZM5.25 16H7V14.5H5.25V16ZM3.5 17.75C3.5 16.7835 4.2835 16 5.25 16V14.5C3.45507 14.5 2 15.9551 2 17.75H3.5ZM19.5 12.75V18.25H21V12.75H19.5ZM18.25 19.5H5.25V21H18.25V19.5ZM5.25 19.5C4.2835 19.5 3.5 18.7165 3.5 17.75H2C2 19.5449 3.45507 21 5.25 21V19.5ZM19.5 18.25C19.5 18.9404 18.9404 19.5 18.25 19.5V21C19.7688 21 21 19.7688 21 18.25H19.5ZM10.75 6H7V7.5H10.75V6Z" fill="currentColor"></path></g></svg>