<svg width="24px" height="24px" viewBox="0 0 24 24" fill="none" xmlns="http://www.w3.org/2000/svg"><g><path d="M13.75 12.2502V9.91684L17.5 6.16684C18.1443 5.52251 19.189 5.52251 19.8333 6.16684C20.4777 6.81118 20.4777 7.85584 19.8333 8.50018L16.0833 12.2502H13.75Z" stroke="currentColor" stroke-width="1.5" stroke-linecap="square" stroke-linejoin="round"></path><path d="M5.25 3.75H7V15.25H5.25C3.86929 15.25 2.75 16.3693 2.75 17.75V6.25C2.75 4.86929 3.86929 3.75 5.25 3.75Z" stroke="currentColor" stroke-width="1.5" stroke-linecap="round" stroke-linejoin="round"></path><path d="M20.25 12.75V18.25C20.25 19.3546 19.3546 20.25 18.25 20.25H5.25C3.86929 20.25 2.75 19.1307 2.75 17.75C2.75 16.3693 3.86929 15.25 5.25 15.25H7" stroke="currentColor" stroke-width="1.5" stroke-linecap="round" stroke-linejoin="round"></path><path d="M11.75 6.75H7" stroke="currentColor" stroke-width="1.5" stroke-linecap="round"></path></g></svg>