<svg width="24px" height="24px" viewBox="0 0 24 24" fill="none" xmlns="http://www.w3.org/2000/svg"><g><path d="M21.25 12C21.25 17.1086 17.1086 21.25 12 21.25C6.89137 21.25 2.75 17.1086 2.75 12C2.75 6.89137 6.89137 2.75 12 2.75C17.1086 2.75 21.25 6.89137 21.25 12Z" stroke="currentColor" stroke-width="1.5" stroke-linejoin="round"></path><path d="M9 13.25V10.5308C9 10.0719 9.3123 9.67192 9.75746 9.56062L13.7575 8.56062C14.3886 8.40284 15 8.8802 15 9.53077V13.25" stroke="currentColor" stroke-width="1.5" stroke-linecap="round" stroke-linejoin="round"></path><path d="M7.85126 14.5727L8.58914 14.7069V14.7069L7.85126 14.5727ZM5.45285 17.987C5.16955 18.2892 5.18486 18.7639 5.48704 19.0472C5.78923 19.3305 6.26386 19.3151 6.54715 19.013L6 18.5L5.45285 17.987ZM16.1487 14.5727L15.4109 14.7069V14.7069L16.1487 14.5727ZM7.85126 14.5727L7.11337 14.4384C6.9258 15.4693 6.81007 16.0016 6.60521 16.4529C6.40828 16.8868 6.10818 17.288 5.45285 17.987L6 18.5L6.54715 19.013C7.22775 18.287 7.66868 17.7392 7.97109 17.0729C8.26558 16.4241 8.40751 15.7052 8.58914 14.7069L7.85126 14.5727ZM8.83458 13.75V13C7.98652 13 7.26434 13.6087 7.11337 14.4384L7.85126 14.5727L8.58914 14.7069C8.6112 14.5857 8.71607 14.5 8.83458 14.5V13.75ZM8.83458 13.75V14.5H15.1654V13.75V13H8.83458V13.75ZM15.1654 13.75V14.5C15.2839 14.5 15.3888 14.5857 15.4109 14.7069L16.1487 14.5727L16.8866 14.4384C16.7357 13.6087 16.0135 13 15.1654 13V13.75ZM16.1487 14.5727L15.4109 14.7069C15.5925 15.7052 15.7344 16.4241 16.0289 17.0729C16.3313 17.7392 16.7722 18.287 17.4528 19.013L18 18.5L18.5472 17.987C17.8918 17.288 17.5917 16.8868 17.3948 16.4529C17.1899 16.0016 17.0742 15.4693 16.8866 14.4384L16.1487 14.5727Z" fill="currentColor"></path></g></svg>