<svg width="24px" height="24px" viewBox="0 0 24 24" fill="none" xmlns="http://www.w3.org/2000/svg"><g><path d="M18.7267 2.72655C18.0229 2.02277 16.9087 1.94359 16.1125 2.54077L5.34497 10.6164C4.37129 11.3467 4.27013 12.77 5.13075 13.6306L10.3695 18.8694C11.2302 19.73 12.6535 19.6289 13.3838 18.6552L21.4594 7.88769C22.0566 7.09145 21.9774 5.97726 21.2736 5.27347L18.7267 2.72655Z" stroke="currentColor" stroke-width="1.5" stroke-linecap="round" stroke-linejoin="round"></path><path d="M4.75059 13.25C4.3158 14.9891 3.56615 16.9352 2.41003 18.4242C2.07132 18.8604 2.06717 19.4916 2.45769 19.8821L4.11848 21.5429C4.50901 21.9334 5.14021 21.9293 5.57643 21.5906C7.0654 20.4344 9.01145 19.6848 10.7506 19.25" stroke="currentColor" stroke-width="1.5" stroke-linecap="round" stroke-linejoin="round"></path></g></svg>