<svg width="24px" height="24px" viewBox="0 0 24 24" fill="none" xmlns="http://www.w3.org/2000/svg"><g><path d="M4.75 12H19.25" stroke="currentColor" stroke-width="1.5" stroke-linecap="round" stroke-linejoin="round"></path><path d="M11.75 6.25H12.25M12.5 6.25C12.5 6.52614 12.2761 6.75 12 6.75C11.7239 6.75 11.5 6.52614 11.5 6.25C11.5 5.97386 11.7239 5.75 12 5.75C12.2761 5.75 12.5 5.97386 12.5 6.25Z" stroke="currentColor" stroke-width="1.5" stroke-linecap="round" stroke-linejoin="round"></path><path d="M11.75 17.75H12.25M12.5 17.75C12.5 18.0261 12.2761 18.25 12 18.25C11.7239 18.25 11.5 18.0261 11.5 17.75C11.5 17.4739 11.7239 17.25 12 17.25C12.2761 17.25 12.5 17.4739 12.5 17.75Z" stroke="currentColor" stroke-width="1.5" stroke-linecap="round" stroke-linejoin="round"></path></g></svg>