<svg width="24px" height="24px" viewBox="0 0 24 24" fill="none" xmlns="http://www.w3.org/2000/svg"><g><path d="M7 3.75V10.25M3.75 7H10.25" stroke="currentColor" stroke-width="1.5" stroke-linecap="round" stroke-linejoin="round"></path><path d="M13.75 7H20.25" stroke="currentColor" stroke-width="1.5" stroke-linecap="round" stroke-linejoin="round"></path><path d="M13.75 17H20.25" stroke="currentColor" stroke-width="1.5" stroke-linecap="round" stroke-linejoin="round"></path><path d="M4.25 14.25L7.00002 17M7.00002 17L9.75 19.75M7.00002 17L4.25 19.75M7.00002 17L9.75 14.25" stroke="currentColor" stroke-width="1.5" stroke-linecap="round" stroke-linejoin="round"></path><path d="M17 14V13.99M17.25 14C17.25 14.1381 17.1381 14.25 17 14.25C16.8619 14.25 16.75 14.1381 16.75 14C16.75 13.8619 16.8619 13.75 17 13.75C17.1381 13.75 17.25 13.8619 17.25 14Z" stroke="currentColor" stroke-width="1.5" stroke-linecap="round" stroke-linejoin="round"></path><path d="M17 20V19.99M17.25 20C17.25 20.1381 17.1381 20.25 17 20.25C16.8619 20.25 16.75 20.1381 16.75 20C16.75 19.8619 16.8619 19.75 17 19.75C17.1381 19.75 17.25 19.8619 17.25 20Z" stroke="currentColor" stroke-width="1.5" stroke-linecap="round" stroke-linejoin="round"></path></g></svg>