<svg width="24px" height="24px" viewBox="0 0 24 24" fill="none" xmlns="http://www.w3.org/2000/svg"><g><path d="M10 7.75H6C3.92893 7.75 2.25 9.42893 2.25 11.5C2.25 13.5711 3.92893 15.25 6 15.25H10" stroke="currentColor" stroke-width="1.5" stroke-linecap="round" stroke-linejoin="round"></path><path d="M18.25 8.75H19C20.5188 8.75 21.75 9.98122 21.75 11.5C21.75 13.0188 20.5188 14.25 19 14.25H18.25" stroke="currentColor" stroke-width="1.5" stroke-linecap="round" stroke-linejoin="round"></path><path d="M16.751 3.86309L10 7.75023V15.2502L16.7511 19.137C17.4177 19.5208 18.25 19.0396 18.25 18.2704V4.7297C18.25 3.96043 17.4177 3.47924 16.751 3.86309Z" stroke="currentColor" stroke-width="1.5" stroke-linecap="round" stroke-linejoin="round"></path><path d="M11.5 16.25V19.375C11.5 20.4105 10.6605 21.25 9.625 21.25C8.58947 21.25 7.75 20.4105 7.75 19.375V15.25" stroke="currentColor" stroke-width="1.5" stroke-linecap="round" stroke-linejoin="round"></path></g></svg>