<svg width="24px" height="24px" viewBox="0 0 24 24" fill="none" xmlns="http://www.w3.org/2000/svg"><g><path d="M18.2461 13.9999C19.9029 13.9999 21.2461 12.6568 21.2461 10.9999C21.2461 9.34307 19.9029 7.99993 18.2461 7.99993M12.5754 18.2499C12.1636 19.4151 11.0523 20.2499 9.74609 20.2499C8.08924 20.2499 6.74609 18.9068 6.74609 17.2499V15.7499M6.74829 6.24993V15.7499M18.2461 5.4606V16.5393C18.2461 17.8857 16.9426 18.8475 15.6561 18.4502L4.15607 14.8995C3.31782 14.6407 2.74609 13.8659 2.74609 12.9886V9.01129C2.74609 8.134 3.31782 7.35912 4.15607 7.1003L15.6561 3.54961C16.9426 3.1524 18.2461 4.11418 18.2461 5.4606Z" stroke="currentColor" stroke-width="1.5" stroke-linecap="round" stroke-linejoin="round"></path></g></svg>