<svg width="24px" height="24px" viewBox="0 0 24 24" fill="none" xmlns="http://www.w3.org/2000/svg"><g><path d="M12.5 2.7791C12.336 2.75988 12.1692 2.75 12 2.75C9.65279 2.75 7.75 4.65279 7.75 7V11.5C7.75 13.8472 9.65279 15.75 12 15.75C13.6242 15.75 15.0355 14.8389 15.7509 13.5M15.7509 13.5C15.7949 13.4177 15.8363 13.3337 15.8749 13.2482L15.7509 13.5Z" stroke="currentColor" stroke-width="1.5" stroke-linecap="round" stroke-linejoin="round"></path><path d="M12 19C15.0754 19 17.7186 17.1489 18.8759 14.5M12 19C8.92448 19 6.28136 17.1489 5.12402 14.5M12 19V21.25" stroke="currentColor" stroke-width="1.5" stroke-linecap="round" stroke-linejoin="round"></path><path d="M17.2405 5.18518L16.5436 3.37334C16.4571 3.14842 16.241 3 16 3C15.759 3 15.5429 3.14842 15.4564 3.37334L14.7595 5.18518C14.658 5.44927 14.4493 5.65797 14.1852 5.75955L12.3733 6.45641C12.1484 6.54292 12 6.75901 12 7C12 7.24099 12.1484 7.45708 12.3733 7.54359L14.1852 8.24045C14.4493 8.34203 14.658 8.55073 14.7595 8.81482L15.4564 10.6267C15.5429 10.8516 15.759 11 16 11C16.241 11 16.4571 10.8516 16.5436 10.6267L17.2405 8.81482C17.342 8.55073 17.5507 8.34203 17.8148 8.24045L19.6267 7.54359C19.8516 7.45708 20 7.24099 20 7C20 6.75901 19.8516 6.54292 19.6267 6.45641L17.8148 5.75955C17.5507 5.65797 17.342 5.44927 17.2405 5.18518Z" fill="currentColor"></path></g></svg>