<svg width="24px" height="24px" viewBox="0 0 24 24" fill="none" xmlns="http://www.w3.org/2000/svg"><g><path d="M9.42188 7.75H14.5781M9.42188 7.75C9.42188 7.75 3.74996 10.9722 3.75 16.1111C3.75003 20.2435 7.85366 21.25 12 21.25C16.1463 21.25 20.25 20.2435 20.25 16.1111C20.25 10.9722 14.5781 7.75 14.5781 7.75M9.42188 7.75L8.45932 5.27825C8.11818 4.40225 8.44868 3.4141 9.3473 3.13797C10.0267 2.92922 10.9234 2.75 12 2.75C13.0766 2.75 13.9733 2.92922 14.6527 3.13797C15.5513 3.4141 15.8818 4.40225 15.5407 5.27825L14.5781 7.75" stroke="currentColor" stroke-width="1.5" stroke-linejoin="round"></path></g></svg>