<svg width="24px" height="24px" viewBox="0 0 24 24" fill="none" xmlns="http://www.w3.org/2000/svg"><g><path d="M21.2481 11.8112C20.1889 12.5601 18.8958 13.0001 17.5 13.0001C13.9101 13.0001 11 10.0899 11 6.50006C11 5.10422 11.44 3.81114 12.1888 2.75195C12.126 2.75069 12.0631 2.75006 12 2.75006C6.89137 2.75006 2.75 6.89143 2.75 12.0001C2.75 17.1087 6.89137 21.2501 12 21.2501C17.1086 21.2501 21.25 17.1087 21.25 12.0001C21.25 11.937 21.2494 11.874 21.2481 11.8112Z" stroke="currentColor" stroke-width="1.5" stroke-linecap="round" stroke-linejoin="round"></path><path d="M18.5655 4.86018L17.9756 3.32667C17.8999 3.12986 17.7109 3 17.5 3C17.2891 3 17.1001 3.12986 17.0244 3.32667L16.4345 4.86018C16.333 5.12427 16.1243 5.33297 15.8602 5.43455L14.3267 6.02436C14.1299 6.10005 14 6.28914 14 6.5C14 6.71086 14.1299 6.89995 14.3267 6.97564L15.8602 7.56545C16.1243 7.66703 16.333 7.87573 16.4345 8.13982L17.0244 9.67333C17.1001 9.87014 17.2891 10 17.5 10C17.7109 10 17.8999 9.87014 17.9756 9.67333L18.5655 8.13982C18.667 7.87573 18.8757 7.66703 19.1398 7.56545L20.6733 6.97564C20.8701 6.89995 21 6.71086 21 6.5C21 6.28914 20.8701 6.10005 20.6733 6.02436L19.1398 5.43455C18.8757 5.33297 18.667 5.12427 18.5655 4.86018Z" fill="currentColor"></path></g></svg>