<svg width="24px" height="24px" viewBox="0 0 24 24" fill="none" xmlns="http://www.w3.org/2000/svg"><g><path d="M1.25 11.3502C1.25 11.3502 4.25809 4.767 7.96875 4.767C9.62821 4.767 12 6.08364 12 6.08364C12 6.08364 13.9544 4.91395 15.3594 4.767C19.238 4.36135 22.75 11.3502 22.75 11.3502M1.25 11.3502C1.25 11.3502 7.77794 9.58333 12 9.58333C16.2221 9.58333 22.75 11.3502 22.75 11.3502M1.25 11.3502C1.25 11.3502 4.475 19.25 12 19.25C19.525 19.25 22.75 11.3502 22.75 11.3502M1.25 11.3502C1.25 11.3502 7.66879 14.4167 12 14.4167C16.3312 14.4167 22.75 11.3502 22.75 11.3502" stroke="currentColor" stroke-width="1.5" stroke-linecap="round" stroke-linejoin="round"></path></g></svg>