<svg width="24px" height="24px" viewBox="0 0 24 24" fill="none" xmlns="http://www.w3.org/2000/svg"><g><path d="M15.25 8.75V4.75C15.25 3.64543 14.3546 2.75 13.25 2.75H4.75C3.64543 2.75 2.75 3.64543 2.75 4.75V13.25C2.75 14.3546 3.64543 15.25 4.75 15.25H8.75M3.1 11.9L4.89436 10.7244C5.56485 10.2851 6.43285 10.2886 7.09981 10.7332L8.37885 11.5859M6 6.25H6.5M14.5 15.0002H15M6.75 6.25C6.75 6.52614 6.52614 6.75 6.25 6.75C5.97386 6.75 5.75 6.52614 5.75 6.25C5.75 5.97386 5.97386 5.75 6.25 5.75C6.52614 5.75 6.75 5.97386 6.75 6.25ZM13.75 13.2V16.8L16.55 15L13.75 13.2ZM19.25 21.25H10.75C9.64543 21.25 8.75 20.3546 8.75 19.25V10.75C8.75 9.64543 9.64543 8.75 10.75 8.75H19.25C20.3546 8.75 21.25 9.64543 21.25 10.75V19.25C21.25 20.3546 20.3546 21.25 19.25 21.25Z" stroke="currentColor" stroke-width="1.5" stroke-linecap="round" stroke-linejoin="round"></path></g></svg>