<svg width="24px" height="24px" viewBox="0 0 24 24" fill="none" xmlns="http://www.w3.org/2000/svg"><g><path fill-rule="evenodd" clip-rule="evenodd" d="M17 5.93934V4.22585C17 3.20697 15.8465 2.6161 15.0196 3.21143L10.0853 6.76415C9.87255 6.91732 9.61705 6.99973 9.35491 6.99973H7.75C6.23122 6.99973 5 8.23095 5 9.74973V14.2497C5 15.25 5.53405 16.1255 6.33257 16.6068L3.21967 19.7197C2.92678 20.0126 2.92678 20.4874 3.21967 20.7803C3.51256 21.0732 3.98744 21.0732 4.28033 20.7803L20.7803 4.28033C21.0732 3.98744 21.0732 3.51256 20.7803 3.21967C20.4874 2.92678 20.0126 2.92678 19.7197 3.21967L17 5.93934ZM7.47089 15.4685C6.91489 15.3416 6.5 14.8441 6.5 14.2497V9.74973C6.5 9.05938 7.05964 8.49973 7.75 8.49973H9.35491C9.93161 8.49973 10.4937 8.31842 10.9617 7.98145L15.5 4.71391V7.43934L7.47089 15.4685Z" fill="currentColor"></path><path d="M15.5 19.2856L11.0782 16.1019L10.0007 17.1794C10.0295 17.1969 10.0578 17.2155 10.0853 17.2353L15.0196 20.788C15.8465 21.3834 17 20.7925 17 19.7736V10.1801L15.5 11.6801V19.2856Z" fill="currentColor"></path></g></svg>