<svg width="24px" height="24px" viewBox="0 0 24 24" fill="none" xmlns="http://www.w3.org/2000/svg"><g><path d="M12 7.75C12 6.09315 13.3431 4.75 15 4.75H20.75C21.5784 4.75 22.25 5.42157 22.25 6.25V17.75C22.25 18.5784 21.5784 19.25 20.75 19.25H15.277C14.5966 19.25 13.9296 19.4142 13.3508 19.7719C12.772 20.1296 12.3043 20.6414 12 21.25M12 7.75C12 6.09315 10.6569 4.75 9 4.75H3.25C2.42157 4.75 1.75 5.42157 1.75 6.25V17.75C1.75 18.5784 2.42157 19.25 3.25 19.25H8.723C9.40341 19.25 10.0704 19.4142 10.6492 19.7719C11.228 20.1296 11.6957 20.6414 12 21.25M12 7.75V21.25" stroke="currentColor" stroke-width="1.5" stroke-linecap="round" stroke-linejoin="round"></path></g></svg>