<svg width="24px" height="24px" viewBox="0 0 24 24" fill="none" xmlns="http://www.w3.org/2000/svg"><g><path fill-rule="evenodd" clip-rule="evenodd" d="M7.83463 7.27997L3.24922 3.19028C2.94009 2.91457 2.46599 2.94166 2.19029 3.25079C1.91458 3.55991 1.94167 4.03401 2.2508 4.30972L20.7508 20.8097C21.0599 21.0854 21.534 21.0583 21.8097 20.7492C22.0854 20.4401 22.0583 19.966 21.7492 19.6903L17.0225 15.4746L20.826 9.95958C21.3979 9.13036 20.8043 7.99992 19.797 7.99992H13.9992V2.35561C13.9992 1.12899 12.4165 0.636187 11.7202 1.64595L7.83463 7.27997ZM8.96281 8.28619L15.8944 14.4684L19.3209 9.49992H13.7492C13.0588 9.49992 12.4992 8.94027 12.4992 8.24992V3.15846L8.96281 8.28619Z" fill="currentColor"></path><path d="M6.11873 9.76802L7.24691 10.7742L4.67748 14.4999H10.2492C10.9395 14.4999 11.4992 15.0596 11.4992 15.7499V20.8414L14.1785 16.9564L15.3066 17.9626L12.2782 22.3539C11.5818 23.3637 9.99918 22.8708 9.99918 21.6442V15.9999H4.20138C3.19407 15.9999 2.60048 14.8695 3.17236 14.0403L6.11873 9.76802Z" fill="currentColor"></path></g></svg>