<svg width="24px" height="24px" viewBox="0 0 24 24" fill="none" xmlns="http://www.w3.org/2000/svg"><g><path d="M3.75 5.75C3.75 4.64543 4.64543 3.75 5.75 3.75H18.25C19.3546 3.75 20.25 4.64543 20.25 5.75V15.1716C20.25 15.1978 20.2495 15.2239 20.2485 15.25C20.2288 15.7519 20.0208 16.2292 19.6642 16.5858L16.5858 19.6642C16.2292 20.0208 15.7519 20.2288 15.25 20.2485C15.2239 20.2495 15.1978 20.25 15.1716 20.25H5.75C4.64543 20.25 3.75 19.3546 3.75 18.25V5.75Z" stroke="currentColor" stroke-width="1.5" stroke-linecap="round" stroke-linejoin="round"></path><path d="M20.2485 15.25H17.25C16.1454 15.25 15.25 16.1454 15.25 17.25V20.2485" stroke="currentColor" stroke-width="1.5" stroke-linecap="round" stroke-linejoin="round"></path></g></svg>