<svg width="24px" height="24px" viewBox="0 0 24 24" fill="none" xmlns="http://www.w3.org/2000/svg"><g><path d="M18.25 3.75H5.75C4.64543 3.75 3.75 4.64543 3.75 5.75V18.25C3.75 19.3546 4.64543 20.25 5.75 20.25H13.7497C14.2801 20.25 14.7888 20.0393 15.1639 19.6642L19.6642 15.1639C20.0393 14.7888 20.25 14.2801 20.25 13.7497V5.75C20.25 4.64543 19.3546 3.75 18.25 3.75Z" stroke="currentColor" stroke-width="1.5" stroke-linejoin="round"></path><path d="M20.25 11V11.75C20.25 12.8546 19.3546 13.75 18.25 13.75H15.75C14.6454 13.75 13.75 14.6454 13.75 15.75V18.25C13.75 19.3546 12.8546 20.25 11.75 20.25H11" stroke="currentColor" stroke-width="1.5" stroke-linejoin="round"></path></g></svg>