<svg width="24px" height="24px" viewBox="0 0 24 24" fill="none" xmlns="http://www.w3.org/2000/svg"><g><path d="M17.7218 11.3294C17.4259 9.51729 17.2187 7.66178 17.038 5.59576C16.947 4.55505 16.0803 3.75 15.0356 3.75H7.74946C6.70478 3.75 5.83806 4.55505 5.74707 5.59576C5.32043 10.4755 4.74558 14.181 3.20337 18.9139C2.99 19.5688 3.47209 20.25 4.16079 20.25H9.00183" stroke="currentColor" stroke-width="1.5" stroke-linecap="round" stroke-linejoin="round"></path><path d="M8.75 17C8.75 13.4363 11.4363 10.75 15 10.75C18.5637 10.75 21.25 13.4363 21.25 17V19.25C21.25 19.8023 20.8023 20.25 20.25 20.25H8.75V17Z" stroke="currentColor" stroke-width="1.5" stroke-linecap="round" stroke-linejoin="round"></path><path d="M9 16.25H21" stroke="currentColor" stroke-width="1.5" stroke-linecap="round" stroke-linejoin="round"></path></g></svg>