<svg width="24px" height="24px" viewBox="0 0 24 24" fill="none" xmlns="http://www.w3.org/2000/svg"><g><circle cx="12" cy="12" r="9.25" stroke="currentColor" stroke-width="1.5"></circle><path d="M9.78516 15.8623C9.31641 15.8623 9.07031 15.6045 9.07031 15.2236C9.07031 14.9307 9.16992 14.7549 9.49219 14.4502L12.0762 11.8896C13.1543 10.8232 13.4238 10.3955 13.4238 9.75098C13.4238 8.99512 12.8438 8.4502 12.0293 8.4502C11.2676 8.4502 10.7344 8.83691 10.4355 9.59863C10.2832 9.90332 10.1074 10.0615 9.76172 10.0615C9.35156 10.0615 9.10547 9.80957 9.10547 9.43457C9.10547 9.32324 9.12305 9.21777 9.15234 9.11816C9.38086 8.2041 10.3945 7.2373 12.041 7.2373C13.7344 7.2373 14.9004 8.23926 14.9004 9.65723C14.9004 10.6475 14.4258 11.3154 13.0254 12.6865L11.0859 14.5967V14.626H14.4609C14.8594 14.626 15.1055 14.8721 15.1055 15.2471C15.1055 15.6162 14.8594 15.8623 14.4609 15.8623H9.78516Z" fill="currentColor"></path></g></svg>