<svg width="24px" height="24px" viewBox="0 0 24 24" fill="none" xmlns="http://www.w3.org/2000/svg"><g><path d="M18.25 3.75H5.75C4.64543 3.75 3.75 4.64543 3.75 5.75V18.25C3.75 19.3546 4.64543 20.25 5.75 20.25H18.25C19.3546 20.25 20.25 19.3546 20.25 18.25V5.75C20.25 4.64543 19.3546 3.75 18.25 3.75Z" stroke="currentColor" stroke-width="1.5" stroke-linejoin="round"></path><path d="M12.1504 16.4004C10.832 16.4004 9.78906 15.7559 9.20312 14.5195C8.89258 13.8691 8.73438 13.0605 8.73438 12.0996C8.73438 9.28125 10.0234 7.59961 12.1738 7.59961C13.4629 7.59961 14.4473 8.16211 14.8691 8.96484C14.9629 9.13477 15.0039 9.28125 15.0039 9.44531C15.0039 9.79102 14.7578 10.0547 14.3594 10.0547C14.0605 10.0547 13.873 9.91406 13.6387 9.61523C13.2461 9.07617 12.7949 8.83008 12.168 8.83008C10.8906 8.83008 10.2109 10.0078 10.1816 11.9531V12.041H10.2109C10.5449 11.2617 11.3887 10.6758 12.5371 10.6758C14.166 10.6758 15.3086 11.8477 15.3086 13.4473C15.3086 15.1641 13.9785 16.4004 12.1504 16.4004ZM12.127 15.1699C13.0703 15.1699 13.8203 14.4316 13.8203 13.5059C13.8262 12.5332 13.1172 11.8418 12.1445 11.8418C11.1719 11.8418 10.4395 12.5332 10.4395 13.4766C10.4395 14.4258 11.1836 15.1699 12.127 15.1699Z" fill="currentColor"></path></g></svg>