<svg width="24px" height="24px" viewBox="0 0 24 24" fill="none" xmlns="http://www.w3.org/2000/svg"><g><path d="M18.25 3.75H5.75C4.64543 3.75 3.75 4.64543 3.75 5.75V18.25C3.75 19.3546 4.64543 20.25 5.75 20.25H18.25C19.3546 20.25 20.25 19.3546 20.25 18.25V5.75C20.25 4.64543 19.3546 3.75 18.25 3.75Z" stroke="currentColor" stroke-width="1.5" stroke-linejoin="round"></path><path d="M11.9961 16.3975C10.0566 16.3975 8.70312 15.3838 8.70312 13.9424C8.70312 12.8467 9.48242 12.0088 10.6133 11.7803V11.7451C9.64062 11.4873 9.00781 10.7666 9.00781 9.8584C9.00781 8.55762 10.25 7.60254 11.9961 7.60254C13.7422 7.60254 14.9785 8.55176 14.9785 9.86426C14.9785 10.7607 14.3516 11.4756 13.3789 11.7451V11.7803C14.5098 12.0146 15.2949 12.8525 15.2949 13.9424C15.2949 15.3896 13.9297 16.3975 11.9961 16.3975ZM11.9961 11.2646C12.8691 11.2646 13.4902 10.749 13.4902 10.0107C13.4902 9.26074 12.8691 8.74512 11.9961 8.74512C11.1172 8.74512 10.502 9.2666 10.502 10.0107C10.502 10.749 11.1172 11.2646 11.9961 11.2646ZM11.9961 15.2432C13.0098 15.2432 13.7246 14.6514 13.7246 13.8311C13.7246 13.0049 13.0098 12.4189 11.9961 12.4189C10.9824 12.4189 10.2676 13.0107 10.2676 13.8311C10.2676 14.6514 10.9824 15.2432 11.9961 15.2432Z" fill="currentColor"></path></g></svg>