<svg width="24px" height="24px" viewBox="0 0 24 24" fill="none" xmlns="http://www.w3.org/2000/svg"><g><circle cx="12" cy="12" r="9.25" stroke="currentColor" stroke-width="1.5"></circle><path d="M13.2539 16.3447C12.8379 16.3447 12.5332 16.0752 12.5332 15.6006V14.6045H9.19922C8.6543 14.6045 8.29688 14.2588 8.29688 13.7549C8.29688 13.4268 8.39062 13.1514 8.625 12.7295C9.2168 11.6689 10.1777 10.2217 11.1914 8.7334C11.7422 7.91309 12.1113 7.65527 12.7324 7.65527C13.5117 7.65527 13.9746 8.06543 13.9746 8.76855V13.3623H14.5664C14.9648 13.3623 15.2051 13.6201 15.2051 13.9834C15.2051 14.3525 14.9648 14.6045 14.5605 14.6045H13.9746V15.6006C13.9746 16.0752 13.6758 16.3447 13.2539 16.3447ZM12.5566 13.3975V8.9209H12.5332C11.1914 10.8428 10.3535 12.1084 9.66797 13.3564V13.3975H12.5566Z" fill="currentColor"></path></g></svg>