<svg width="24px" height="24px" viewBox="0 0 24 24" fill="none" xmlns="http://www.w3.org/2000/svg"><g><path d="M18.25 3.75H5.75C4.64543 3.75 3.75 4.64543 3.75 5.75V18.25C3.75 19.3546 4.64543 20.25 5.75 20.25H18.25C19.3546 20.25 20.25 19.3546 20.25 18.25V5.75C20.25 4.64543 19.3546 3.75 18.25 3.75Z" stroke="currentColor" stroke-width="1.5" stroke-linejoin="round"></path><path d="M12.0859 16.4199C10.7852 16.4199 9.66016 15.7988 9.24414 14.8789C9.16211 14.6973 9.10938 14.5215 9.10938 14.3047C9.10938 13.9121 9.36133 13.666 9.75977 13.666C10.0762 13.666 10.2695 13.7891 10.4277 14.0996C10.7148 14.7852 11.2773 15.1895 12.0918 15.1895C13.0938 15.1895 13.8027 14.4805 13.8027 13.4785C13.8027 12.5059 13.0938 11.8145 12.0977 11.8145C11.5645 11.8145 11.1016 12.0312 10.7793 12.3477C10.4277 12.6992 10.2812 12.7754 9.93555 12.7754C9.44922 12.7754 9.20898 12.4297 9.2207 12.0195C9.2207 11.9844 9.2207 11.9609 9.22656 11.9258L9.49609 8.73242C9.54883 8.06445 9.88867 7.79492 10.5508 7.79492H14.1953C14.582 7.79492 14.834 8.04102 14.834 8.41016C14.834 8.78516 14.582 9.03125 14.1953 9.03125H10.7793L10.5566 11.5332H10.5859C10.9434 11.0059 11.6406 10.6777 12.4902 10.6777C14.1074 10.6777 15.2617 11.8203 15.2617 13.4375C15.2617 15.207 13.9609 16.4199 12.0859 16.4199Z" fill="currentColor"></path></g></svg>