<svg width="24px" height="24px" viewBox="0 0 24 24" fill="none" xmlns="http://www.w3.org/2000/svg"><g><circle cx="12" cy="12" r="9.25" stroke="currentColor" stroke-width="1.5"></circle><path d="M12.002 16.3975C10.0566 16.3975 8.70312 15.3896 8.70312 13.9424V13.9307C8.70312 12.8467 9.49414 12.0088 10.6191 11.7803V11.7451C9.65234 11.4873 9.00781 10.7783 9.00781 9.87012V9.8584C9.00781 8.55762 10.25 7.60254 12.002 7.60254C13.7539 7.60254 14.9961 8.55762 14.9961 9.8584V9.87012C14.9961 10.7783 14.3516 11.4873 13.3848 11.7451V11.7803C14.5156 12.0088 15.3008 12.8467 15.3008 13.9307V13.9424C15.3008 15.3896 13.9473 16.3975 12.002 16.3975ZM12.002 11.2646C12.8867 11.2646 13.502 10.749 13.502 10.0107V9.99902C13.502 9.26074 12.8867 8.74512 12.002 8.74512C11.1172 8.74512 10.502 9.26074 10.502 9.99902V10.0107C10.502 10.749 11.1172 11.2646 12.002 11.2646ZM12.002 15.2432C13.0156 15.2432 13.7363 14.6572 13.7363 13.8428V13.8311C13.7363 13.0107 13.0215 12.4189 12.002 12.4189C10.9766 12.4189 10.2676 13.0107 10.2676 13.8311V13.8428C10.2676 14.6572 10.9883 15.2432 12.002 15.2432Z" fill="currentColor"></path></g></svg>