<svg width="24px" height="24px" viewBox="0 0 24 24" fill="none" xmlns="http://www.w3.org/2000/svg"><g><path d="M18.25 3.75H5.75C4.64543 3.75 3.75 4.64543 3.75 5.75V18.25C3.75 19.3546 4.64543 20.25 5.75 20.25H18.25C19.3546 20.25 20.25 19.3546 20.25 18.25V5.75C20.25 4.64543 19.3546 3.75 18.25 3.75Z" stroke="currentColor" stroke-width="1.5" stroke-linejoin="round"></path><path d="M11.9629 16.3975C10.4805 16.3975 9.51953 15.7939 9.08008 14.9443C8.96875 14.7393 8.92188 14.5459 8.92188 14.3467C8.92188 13.9482 9.17383 13.6963 9.5957 13.6963C9.90625 13.6963 10.0938 13.8311 10.252 14.1416C10.5449 14.7803 11.0547 15.1611 11.9805 15.1611C12.9414 15.1611 13.5918 14.6104 13.5918 13.8428C13.5977 12.9404 12.9414 12.4365 11.8574 12.4365H11.377C11.002 12.4365 10.7793 12.208 10.7793 11.874C10.7793 11.54 11.002 11.3115 11.377 11.3115H11.8223C12.7539 11.3115 13.375 10.7783 13.375 10.0283C13.375 9.2959 12.8945 8.80371 11.957 8.80371C11.1602 8.80371 10.6973 9.13184 10.416 9.79395C10.252 10.1572 10.0879 10.292 9.73633 10.292C9.31445 10.292 9.0918 10.0459 9.0918 9.65918C9.0918 9.44824 9.13281 9.26074 9.23828 9.05566C9.63672 8.21777 10.5742 7.60254 11.9512 7.60254C13.7031 7.60254 14.8281 8.5166 14.8281 9.82324C14.8281 10.8838 14.0723 11.5928 13.0527 11.8037V11.833C14.3008 11.9502 15.127 12.7002 15.127 13.8779C15.127 15.3779 13.8145 16.3975 11.9629 16.3975Z" fill="currentColor"></path></g></svg>