<svg width="24px" height="24px" viewBox="0 0 24 24" fill="none" xmlns="http://www.w3.org/2000/svg"><g><path d="M18.25 3.75H5.75C4.64543 3.75 3.75 4.64543 3.75 5.75V18.25C3.75 19.3546 4.64543 20.25 5.75 20.25H18.25C19.3546 20.25 20.25 19.3546 20.25 18.25V5.75C20.25 4.64543 19.3546 3.75 18.25 3.75Z" stroke="currentColor" stroke-width="1.5" stroke-linejoin="round"></path><path d="M12.4473 16.3672C12.0078 16.3672 11.7031 16.0625 11.7031 15.6055V9.25977H11.6738L10.3086 10.209C10.1621 10.3145 10.0449 10.3555 9.88086 10.3555C9.56445 10.3555 9.33594 10.127 9.33594 9.79297C9.33594 9.55859 9.42969 9.38281 9.68164 9.20703L11.4102 7.99414C11.7852 7.73047 12.0195 7.67773 12.3359 7.67773C12.8691 7.67773 13.1914 8 13.1914 8.52148V15.6055C13.1914 16.0625 12.8867 16.3672 12.4473 16.3672Z" fill="currentColor"></path></g></svg>