<svg width="24px" height="24px" viewBox="0 0 24 24" fill="none" xmlns="http://www.w3.org/2000/svg"><g><path d="M18.25 3.75H5.75C4.64543 3.75 3.75 4.64543 3.75 5.75V18.25C3.75 19.3546 4.64543 20.25 5.75 20.25H18.25C19.3546 20.25 20.25 19.3546 20.25 18.25V5.75C20.25 4.64543 19.3546 3.75 18.25 3.75Z" stroke="currentColor" stroke-width="1.5" stroke-linejoin="round"></path><path d="M11.998 16.4385C9.98828 16.4385 8.78125 14.7334 8.78125 12.0029V11.9912C8.78125 9.26074 9.98828 7.56152 11.998 7.56152C14.0078 7.56152 15.2266 9.26074 15.2266 11.9912V12.0029C15.2266 14.7334 14.0078 16.4385 11.998 16.4385ZM11.998 15.2139C13.0762 15.2139 13.7031 14.0068 13.7031 12.0029V11.9912C13.7031 9.9873 13.0762 8.79199 11.998 8.79199C10.9199 8.79199 10.3047 9.9873 10.3047 11.9912V12.0029C10.3047 14.0068 10.9199 15.2139 11.998 15.2139Z" fill="currentColor"></path></g></svg>