<svg width="24px" height="24px" viewBox="0 0 24 24" fill="none" xmlns="http://www.w3.org/2000/svg"><g><path d="M18.25 3.75H5.75C4.64543 3.75 3.75 4.64543 3.75 5.75V18.25C3.75 19.3546 4.64543 20.25 5.75 20.25H18.25C19.3546 20.25 20.25 19.3546 20.25 18.25V5.75C20.25 4.64543 19.3546 3.75 18.25 3.75Z" stroke="currentColor" stroke-width="1.5" stroke-linejoin="round"></path><path d="M10.6953 16.3672C10.2734 16.3672 10.0039 16.1094 10.0039 15.752C10.0039 15.5762 10.0449 15.4473 10.1328 15.2715L13.4199 9.06055V9.03125H9.60547C9.23047 9.03125 8.96094 8.78516 8.96094 8.41016C8.96094 8.03516 9.23047 7.79492 9.60547 7.79492H14.0469C14.5859 7.79492 14.9551 8.11133 14.9551 8.64453C14.9551 8.91992 14.8672 9.1543 14.6621 9.55273L11.375 15.9277C11.2109 16.25 11.0234 16.3672 10.6953 16.3672Z" fill="currentColor"></path></g></svg>