<svg width="24px" height="24px" viewBox="0 0 24 24" fill="none" xmlns="http://www.w3.org/2000/svg"><g><circle cx="12" cy="12" r="9.25" stroke="currentColor" stroke-width="1.5"></circle><path d="M11.7871 16.4004C10.4043 16.4004 9.4375 15.7266 9.08594 15.0176C9.00391 14.8477 8.96289 14.707 8.96289 14.5547C8.96289 14.2031 9.19727 13.9453 9.60156 13.9453C9.90625 13.9453 10.0938 14.0859 10.3281 14.3848C10.7266 14.918 11.1309 15.1758 11.834 15.1758C13.1406 15.1758 13.791 13.9688 13.8086 12.0527V11.959H13.7852C13.4629 12.7793 12.5898 13.3301 11.4941 13.3301C9.91211 13.3301 8.6875 12.1934 8.6875 10.5586C8.6875 8.83594 10.0176 7.59961 11.8457 7.59961C13.1641 7.59961 14.2129 8.25 14.793 9.48047C15.0977 10.1309 15.2617 10.9395 15.2617 11.9062C15.2617 14.7305 13.9668 16.4004 11.7871 16.4004ZM11.8457 12.1582C12.8242 12.1582 13.5566 11.4727 13.5566 10.5293C13.5566 9.58008 12.8184 8.8418 11.8633 8.8418C10.9199 8.8418 10.1699 9.57422 10.1699 10.5C10.1699 11.4668 10.8848 12.1582 11.8457 12.1582Z" fill="currentColor"></path></g></svg>