<svg width="24px" height="24px" viewBox="0 0 24 24" fill="none" xmlns="http://www.w3.org/2000/svg"><g><path d="M18.25 3.75H5.75C4.64543 3.75 3.75 4.64543 3.75 5.75V18.25C3.75 19.3546 4.64543 20.25 5.75 20.25H18.25C19.3546 20.25 20.25 19.3546 20.25 18.25V5.75C20.25 4.64543 19.3546 3.75 18.25 3.75Z" stroke="currentColor" stroke-width="1.5" stroke-linejoin="round"></path><path d="M9.78516 16.3125C9.31641 16.3125 9.07031 16.0547 9.07031 15.6738C9.07031 15.3809 9.16992 15.2051 9.49219 14.9004L12.0762 12.3398C13.1543 11.2734 13.4238 10.8457 13.4238 10.2012C13.4238 9.44531 12.8438 8.90039 12.0293 8.90039C11.2676 8.90039 10.7344 9.28711 10.4355 10.0488C10.2832 10.3535 10.1074 10.5117 9.76172 10.5117C9.35156 10.5117 9.10547 10.2598 9.10547 9.88477C9.10547 9.77344 9.12305 9.66797 9.15234 9.56836C9.38086 8.6543 10.3945 7.6875 12.041 7.6875C13.7344 7.6875 14.9004 8.68945 14.9004 10.1074C14.9004 11.0977 14.4258 11.7656 13.0254 13.1367L11.0859 15.0469V15.0762H14.4609C14.8594 15.0762 15.1055 15.3223 15.1055 15.6973C15.1055 16.0664 14.8594 16.3125 14.4609 16.3125H9.78516Z" fill="currentColor"></path></g></svg>