<svg width="24px" height="24px" viewBox="0 0 24 24" fill="none" xmlns="http://www.w3.org/2000/svg"><g><path d="M15.75 19.25H19.25C20.3546 19.25 21.25 18.3546 21.25 17.25V12.9643C21.25 11.8597 20.3546 10.9643 19.25 10.9643H17.75V4.75C17.75 4.75 13.75 6.30357 13.75 10.9643V17.2514C13.75 18.356 14.6454 19.25 15.75 19.25Z" stroke="currentColor" stroke-width="1.5" stroke-linejoin="round"></path><path d="M4.75 19.25H8.25C9.35457 19.25 10.25 18.3546 10.25 17.25V12.9643C10.25 11.8597 9.35457 10.9643 8.25 10.9643H6.75L6.75 4.75C6.75 4.75 2.75 6.30357 2.75 10.9643L2.75 17.2514C2.75 18.356 3.64543 19.25 4.75 19.25Z" stroke="currentColor" stroke-width="1.5" stroke-linejoin="round"></path></g></svg>