<svg width="24px" height="24px" viewBox="0 0 24 24" fill="none" xmlns="http://www.w3.org/2000/svg"><g><path d="M13.7703 14.6042C13.7703 12.5906 15.4447 10.9583 17.5101 10.9583C19.5756 10.9583 21.25 12.5906 21.25 14.6042C21.25 16.6177 19.5756 18.25 17.5101 18.25C15.4447 18.25 13.7703 16.6177 13.7703 14.6042ZM13.7703 14.6042C13.5031 9.65625 15.9073 7.83333 19.1129 5.75" stroke="currentColor" stroke-width="1.5" stroke-linecap="round" stroke-linejoin="round"></path><path d="M2.77028 14.6042C2.77028 12.5906 4.44467 10.9583 6.51014 10.9583C8.57561 10.9583 10.25 12.5906 10.25 14.6042C10.25 16.6177 8.57561 18.25 6.51014 18.25C4.44467 18.25 2.77028 16.6177 2.77028 14.6042ZM2.77028 14.6042C2.50314 9.65625 4.90734 7.83333 8.11294 5.75" stroke="currentColor" stroke-width="1.5" stroke-linecap="round" stroke-linejoin="round"></path><path d="M13.7703 14.6042C13.7703 12.5906 15.4447 10.9583 17.5101 10.9583C19.5756 10.9583 21.25 12.5906 21.25 14.6042C21.25 16.6177 19.5756 18.25 17.5101 18.25C15.4447 18.25 13.7703 16.6177 13.7703 14.6042ZM13.7703 14.6042C13.5031 9.65625 15.9073 7.83333 19.1129 5.75M2.77028 14.6042C2.77028 12.5906 4.44467 10.9583 6.51014 10.9583C8.57561 10.9583 10.25 12.5906 10.25 14.6042C10.25 16.6177 8.57561 18.25 6.51014 18.25C4.44467 18.25 2.77028 16.6177 2.77028 14.6042ZM2.77028 14.6042C2.50314 9.65625 4.90734 7.83333 8.11294 5.75" stroke="currentColor" stroke-width="1.5" stroke-linecap="round" stroke-linejoin="round"></path></g></svg>