<svg width="24px" height="24px" viewBox="0 0 24 24" fill="none" xmlns="http://www.w3.org/2000/svg"><g><path d="M20.25 13C20.25 17.5563 16.5563 21.25 12 21.25C7.44365 21.25 3.75 17.5563 3.75 13C3.75 8.44365 7.44365 4.75 12 4.75C16.5563 4.75 20.25 8.44365 20.25 13Z" stroke="currentColor" stroke-width="1.5" stroke-linecap="round" stroke-linejoin="round"></path><path d="M12.4062 4.62958C12.6872 3.48737 13.4153 2.45696 14.5144 1.82239C15.6136 1.18782 16.7099 1.18756 17.9996 1.40023C17.7186 2.54244 16.9905 3.57285 15.8914 4.20742C14.7923 4.84199 13.5359 4.95734 12.4062 4.62958Z" stroke="currentColor" stroke-width="1.5" stroke-linecap="round" stroke-linejoin="round"></path><path d="M12 4.75C11.693 3.36816 10.1602 1.94297 8 1.75" stroke="currentColor" stroke-width="1.5" stroke-linecap="round" stroke-linejoin="round"></path><path d="M16.9753 13.5C16.7408 15.8622 14.8622 17.7408 12.5 17.9753" stroke="currentColor" stroke-width="1.5" stroke-linecap="round" stroke-linejoin="round"></path></g></svg>