<svg width="24px" height="24px" viewBox="0 0 24 24" fill="none" xmlns="http://www.w3.org/2000/svg"><g><path d="M16.75 7.5C16.75 10.1234 14.6234 12.25 12 12.25C9.37665 12.25 7.25 10.1234 7.25 7.5C7.25 4.87665 9.37665 2.75 12 2.75C14.6234 2.75 16.75 4.87665 16.75 7.5Z" stroke="currentColor" stroke-width="1.5"></path><path d="M7.25 17.5C7.25 19.0188 6.01878 20.25 4.5 20.25C2.98122 20.25 1.75 19.0188 1.75 17.5C1.75 15.9812 2.98122 14.75 4.5 14.75C6.01878 14.75 7.25 15.9812 7.25 17.5Z" stroke="currentColor" stroke-width="1.5"></path><path d="M14.75 17.5C14.75 19.0188 13.5188 20.25 12 20.25C10.4812 20.25 9.25 19.0188 9.25 17.5C9.25 15.9812 10.4812 14.75 12 14.75C13.5188 14.75 14.75 15.9812 14.75 17.5Z" stroke="currentColor" stroke-width="1.5"></path><path d="M22.25 17.5C22.25 19.0188 21.0188 20.25 19.5 20.25C17.9812 20.25 16.75 19.0188 16.75 17.5C16.75 15.9812 17.9812 14.75 19.5 14.75C21.0188 14.75 22.25 15.9812 22.25 17.5Z" stroke="currentColor" stroke-width="1.5"></path><path d="M12 12V15" stroke="currentColor" stroke-width="1.5"></path><path d="M9.5 17.5H7" stroke="currentColor" stroke-width="1.5"></path><path d="M14.5 17.5H17" stroke="currentColor" stroke-width="1.5"></path></g></svg>