<svg width="24px" height="24px" viewBox="0 0 24 24" fill="none" xmlns="http://www.w3.org/2000/svg"><g><path d="M3.75 3.75H4.75C5.85457 3.75 6.75 4.64543 6.75 5.75V14M10 17.25H20.25M15.5 8.25V4.75M15.5 4.75H12.75C11.6454 4.75 10.75 5.64543 10.75 6.75V11.25C10.75 12.3546 11.6454 13.25 12.75 13.25H18.25C19.3546 13.25 20.25 12.3546 20.25 11.25V6.75C20.25 5.64543 19.3546 4.75 18.25 4.75H15.5ZM9.75 17.25C9.75 18.9069 8.40685 20.25 6.75 20.25C5.09315 20.25 3.75 18.9069 3.75 17.25C3.75 15.5931 5.09315 14.25 6.75 14.25C8.40685 14.25 9.75 15.5931 9.75 17.25Z" stroke="currentColor" stroke-width="1.5" stroke-linecap="round"></path></g></svg>