<svg width="24px" height="24px" viewBox="0 0 24 24" fill="none" xmlns="http://www.w3.org/2000/svg"><g><path d="M11.73 20.25H5.75C4.64543 20.25 3.75 19.3546 3.75 18.25V5.75C3.75 4.64543 4.64543 3.75 5.75 3.75H8.75M8.75 3.75H15.25M8.75 3.75V8.25C8.75 8.80228 9.19772 9.25 9.75 9.25H14.25C14.8023 9.25 15.25 8.80228 15.25 8.25V3.75M15.25 3.75H18.25C19.3546 3.75 20.25 4.64543 20.25 5.75V10.5M14.75 14.5V17.4435C14.75 19.4994 16.3943 20.2864 18 21C19.6057 20.2864 21.25 19.4994 21.25 17.4435V14.5C19 13.2253 17 13.2253 14.75 14.5Z" stroke="currentColor" stroke-width="1.5" stroke-linecap="round" stroke-linejoin="round"></path></g></svg>