<svg width="24px" height="24px" viewBox="0 0 24 24" fill="none" xmlns="http://www.w3.org/2000/svg"><g><path d="M11.75 20.25H5.75C4.64543 20.25 3.75 19.3546 3.75 18.25V5.75C3.75 4.64543 4.64543 3.75 5.75 3.75H8.75M8.75 3.75H15.25M8.75 3.75V8.25C8.75 8.80228 9.19772 9.25 9.75 9.25H14.25C14.8023 9.25 15.25 8.80228 15.25 8.25V3.75M15.25 3.75H18.25C19.3546 3.75 20.25 4.64543 20.25 5.75V10.75M14.75 17.9166V20.2499H17.0833L20.8333 16.4999C21.4777 15.8556 21.4777 14.8109 20.8333 14.1666C20.189 13.5223 19.1443 13.5223 18.5 14.1666L14.75 17.9166Z" stroke="currentColor" stroke-width="1.5" stroke-linecap="round" stroke-linejoin="round"></path></g></svg>