<svg width="24px" height="24px" viewBox="0 0 24 24" fill="none" xmlns="http://www.w3.org/2000/svg"><g><path d="M13.75 17.75C13.75 17.1977 14.1977 16.75 14.75 16.75H19.25C19.8023 16.75 20.25 17.1977 20.25 17.75V20.25C20.25 20.8023 19.8023 21.25 19.25 21.25H14.75C14.1977 21.25 13.75 20.8023 13.75 20.25V17.75Z" stroke="currentColor" stroke-width="1.5" stroke-linecap="square" stroke-linejoin="round"></path><path d="M14.75 16C14.75 14.7574 15.7574 13.75 17 13.75C18.2426 13.75 19.25 14.7574 19.25 16C19.25 16.4142 18.9142 16.75 18.5 16.75H15.5C15.0858 16.75 14.75 16.4142 14.75 16Z" stroke="currentColor" stroke-width="1.5" stroke-linecap="square" stroke-linejoin="round"></path><path d="M10.75 21.25H6.75C5.64543 21.25 4.75 20.3546 4.75 19.25V4.75C4.75 3.64543 5.64543 2.75 6.75 2.75H17.25C18.3546 2.75 19.25 3.64543 19.25 4.75V10.75" stroke="currentColor" stroke-width="1.5" stroke-linecap="round" stroke-linejoin="round"></path></g></svg>