<svg width="24px" height="24px" viewBox="0 0 24 24" fill="none" xmlns="http://www.w3.org/2000/svg"><g><path d="M20.25 17.5C20.25 18.5246 19.8391 19.4533 19.173 20.1301C18.4928 20.8214 17.5464 21.25 16.5 21.25C14.4289 21.25 12.75 19.5711 12.75 17.5C12.75 15.4289 14.4289 13.75 16.5 13.75C18.5711 13.75 20.25 15.4289 20.25 17.5Z" stroke="currentColor" stroke-width="1.5" stroke-linecap="round" stroke-linejoin="round"></path><path d="M10.25 21.25H6.75C5.64543 21.25 4.75 20.3546 4.75 19.25V4.75C4.75 3.64543 5.64543 2.75 6.75 2.75H17.25C18.3546 2.75 19.25 3.64543 19.25 4.75V10.75" stroke="currentColor" stroke-width="1.5" stroke-linecap="round" stroke-linejoin="round"></path><path d="M20.5008 21.5002L19.1738 20.1304" stroke="currentColor" stroke-width="1.5" stroke-linecap="round" stroke-linejoin="round"></path></g></svg>