<svg width="24px" height="24px" viewBox="0 0 24 24" fill="none" xmlns="http://www.w3.org/2000/svg"><g><path d="M10.75 21.25H6.75C5.64543 21.25 4.75 20.3546 4.75 19.25V4.75C4.75 3.64543 5.64543 2.75 6.75 2.75H17.25C18.3546 2.75 19.25 3.64543 19.25 4.75V12.25M16.25 21.25C14.5931 21.25 13.25 19.9069 13.25 18.25C13.25 16.5931 14.5931 15.25 16.25 15.25C17.3631 15.25 18.3334 15.8558 18.8512 16.7549C18.9004 16.7516 18.9501 16.75 19 16.75C20.2426 16.75 21.25 17.7574 21.25 19C21.25 20.2426 20.2426 21.25 19 21.25H16.25Z" stroke="currentColor" stroke-width="1.5" stroke-linecap="round" stroke-linejoin="round"></path></g></svg>