<svg width="24px" height="24px" viewBox="0 0 24 24" fill="none" xmlns="http://www.w3.org/2000/svg"><g><path d="M21.25 17C21.25 18.1736 20.7743 19.2361 20.0052 20.0052C19.2361 20.7743 18.1736 21.25 17 21.25C14.6528 21.25 12.75 19.3472 12.75 17C12.75 14.6528 14.6528 12.75 17 12.75C19.3472 12.75 21.25 14.6528 21.25 17Z" stroke="currentColor" stroke-width="1.5" stroke-linecap="round" stroke-linejoin="round"></path><path d="M10.25 21.25H6.75C5.64543 21.25 4.75 20.3546 4.75 19.25V4.75C4.75 3.64543 5.64543 2.75 6.75 2.75H17.25C18.3546 2.75 19.25 3.64543 19.25 4.75V9.75" stroke="currentColor" stroke-width="1.5" stroke-linecap="round"></path><path d="M17 12.75V17L20.0052 20.0052" stroke="currentColor" stroke-width="1.5" stroke-linecap="square" stroke-linejoin="round"></path><path d="M8.75 6.75H15.25" stroke="currentColor" stroke-width="1.5" stroke-linecap="round"></path><path d="M8.75 10.75H11.25" stroke="currentColor" stroke-width="1.5" stroke-linecap="round"></path></g></svg>