<svg width="24px" height="24px" viewBox="0 0 24 24" fill="none" xmlns="http://www.w3.org/2000/svg"><g><path d="M19.3713 20.364C18.1997 21.5356 16.3003 21.5356 15.1287 20.364C13.9571 19.1924 13.9571 17.2929 15.1287 16.1214C16.3003 14.9498 18.1997 14.9498 19.3713 16.1214C20.5429 17.2929 20.5429 19.1924 19.3713 20.364Z" stroke="currentColor" stroke-width="1.5" stroke-linecap="round" stroke-linejoin="round"></path><path d="M19.249 12.5V4.74512C19.249 3.64055 18.3536 2.74512 17.249 2.74512H5.75395C4.64938 2.74512 3.75395 3.64054 3.75395 4.74511L3.75391 19.2461C3.7539 20.3506 4.64933 21.2461 5.75391 21.2461H11.999" stroke="currentColor" stroke-width="1.5" stroke-linecap="round" stroke-linejoin="round"></path><path d="M7.75 14.75H9.25" stroke="currentColor" stroke-width="1.5" stroke-linecap="round" stroke-linejoin="round"></path><path d="M7.75 6.75H15.25" stroke="currentColor" stroke-width="1.5" stroke-linecap="round" stroke-linejoin="round"></path><path d="M7.75 10.75H11.25" stroke="currentColor" stroke-width="1.5" stroke-linecap="round" stroke-linejoin="round"></path><path d="M19.3711 20.3638L21.2498 22.2425" stroke="currentColor" stroke-width="1.5" stroke-linecap="round" stroke-linejoin="round"></path></g></svg>