<svg width="24px" height="24px" viewBox="0 0 24 24" fill="none" xmlns="http://www.w3.org/2000/svg"><g><path d="M10.8273 20.4544L19.9777 13.2917C20.923 12.5517 21.008 11.1514 20.1591 10.3026L13.4536 3.59705C12.6047 2.74816 11.2045 2.83316 10.4645 3.77848L3.30176 12.9289C2.36699 14.1231 2.47042 15.8271 3.54277 16.8994L6.85676 20.2134C7.92911 21.2857 9.63308 21.3892 10.8273 20.4544Z" stroke="currentColor" stroke-width="1.5" stroke-linejoin="round"></path><path d="M12.0007 11.2381L2.74805 6.39148" stroke="currentColor" stroke-width="1.5" stroke-linecap="round"></path><path d="M22.5 19.6001C22.5 20.9256 21.4926 22.0001 20.25 22.0001C19.0074 22.0001 18 20.9256 18 19.6001C18 18.2128 19.3366 16.8254 19.9495 16.2622C20.1217 16.104 20.3783 16.104 20.5505 16.2622C21.1634 16.8254 22.5 18.2128 22.5 19.6001Z" fill="currentColor"></path></g></svg>