<svg width="24px" height="24px" viewBox="0 0 24 24" fill="none" xmlns="http://www.w3.org/2000/svg"><g><path d="M22.25 19.25H1.75" stroke="currentColor" stroke-width="1.5" stroke-linecap="round" stroke-linejoin="round"></path><path d="M18 8.375H18.4375C19.4385 8.375 20.25 9.18648 20.25 10.1875C20.25 11.1885 19.4385 12 18.4375 12H14M5.375 8.375H4.5625C3.56148 8.375 2.75 9.18648 2.75 10.1875C2.75 11.1885 3.56148 12 4.5625 12H7.375M13 15.625H18.4375C19.4385 15.625 20.25 16.4365 20.25 17.4375C20.25 18.4385 19.4385 19.25 18.4375 19.25H5.5625C4.56148 19.25 3.75 18.4385 3.75 17.4375C3.75 16.4365 4.56148 15.625 5.5625 15.625H7.375" stroke="currentColor" stroke-width="1.5" stroke-linecap="round" stroke-linejoin="round"></path><path d="M14 12H19.4375C20.4385 12 21.25 12.8115 21.25 13.8125C21.25 14.8135 20.4385 15.625 19.4375 15.625H11M7.375 12H5.5625C4.56148 12 3.75 12.8115 3.75 13.8125C3.75 14.8135 4.56148 15.625 5.5625 15.625H7.375" stroke="currentColor" stroke-width="1.5" stroke-linecap="round" stroke-linejoin="round"></path><path d="M17 8.375H18.4375C19.4385 8.375 20.25 7.56352 20.25 6.5625C20.25 5.56148 19.4385 4.75 18.4375 4.75H5.5625C4.56148 4.75 3.75 5.56148 3.75 6.5625C3.75 7.56352 4.56148 8.375 5.5625 8.375H5.75C6.85457 8.375 7.75 9.27043 7.75 10.375V15C7.75 15.8284 8.42157 16.5 9.25 16.5C10.0784 16.5 10.75 15.8284 10.75 15V12" stroke="currentColor" stroke-width="1.5" stroke-linecap="round" stroke-linejoin="round"></path><path d="M17 8.37988H15.75C14.6454 8.37988 13.75 9.27531 13.75 10.3799V11.9999C13.75 12.8283 13.0784 13.4999 12.25 13.4999C11.4216 13.4999 10.75 12.8283 10.75 11.9999" stroke="currentColor" stroke-width="1.5" stroke-linecap="round" stroke-linejoin="round"></path></g></svg>