<svg width="24px" height="24px" viewBox="0 0 24 24" fill="none" xmlns="http://www.w3.org/2000/svg"><g><path d="M12.2126 10.7642L7.07919 15.8829C6.51216 16.4483 6.51216 17.365 7.07919 17.9304C7.64621 18.4958 8.56554 18.4958 9.13257 17.9304L19.3995 7.69303C19.9664 7.12769 20.25 6.38673 20.25 5.64575C20.25 4.90465 19.9665 4.16353 19.3995 3.59809C18.8324 3.03271 18.0893 2.75001 17.3461 2.75C16.6029 2.74999 15.8597 3.03269 15.2927 3.59809L5.02581 13.8354C4.17522 14.6836 3.74995 15.7952 3.75 16.9068C3.75005 18.0183 4.17532 19.1298 5.02581 19.9779C5.87635 20.826 6.99113 21.25 8.10591 21.25C9.22067 21.25 10.3354 20.8259 11.1859 19.9779L16.3194 14.8592" stroke="currentColor" stroke-width="1.5" stroke-linecap="round"></path></g></svg>