<svg width="24px" height="24px" viewBox="0 0 24 24" fill="none" xmlns="http://www.w3.org/2000/svg"><g><path d="M9.75 18.75C9.75 17.6454 10.6454 16.75 11.75 16.75H12.25C13.3546 16.75 14.25 17.6454 14.25 18.75V19.25C14.25 20.3546 13.3546 21.25 12.25 21.25H11.75C10.6454 21.25 9.75 20.3546 9.75 19.25V18.75Z" stroke="currentColor" stroke-width="1.5" stroke-linecap="round" stroke-linejoin="round"></path><path d="M2 12.75C2 7.22715 6.47715 2.75 12 2.75C17.5228 2.75 22 7.22715 22 12.75C18.5666 10.3797 15.2833 9.19449 12 9.19449C8.7167 9.19449 5.4334 10.3797 2 12.75ZM2 12.75L9.30322 18.1057" stroke="currentColor" stroke-width="1.5" stroke-linecap="round" stroke-linejoin="round"></path><path d="M21.9985 12.75L14.6953 18.1057" stroke="currentColor" stroke-width="1.5" stroke-linecap="round" stroke-linejoin="round"></path><path d="M12 9.19458V16.7501" stroke="currentColor" stroke-width="1.5" stroke-linecap="round" stroke-linejoin="round"></path></g></svg>