<svg width="24px" height="24px" viewBox="0 0 24 24" fill="none" xmlns="http://www.w3.org/2000/svg"><g><path d="M11.9992 2.75C13.6455 2.75 15.0342 3.84413 15.4795 5.34333C15.5296 5.34129 15.5799 5.33929 15.6305 5.33929C17.636 5.33929 19.2617 6.96225 19.2617 8.96429C19.2617 9.59458 19.0993 10.1866 18.8159 10.703C19.7151 11.3628 20.2992 12.4255 20.2992 13.625C20.2992 15.627 18.6735 17.25 16.668 17.25H7.33047C5.32498 17.25 3.69922 15.627 3.69922 13.625C3.69922 12.4258 4.28268 11.3628 5.18151 10.703C4.89825 10.1867 4.73672 9.59441 4.73672 8.96429C4.73672 6.96225 6.36248 5.33929 8.36797 5.33929C8.41821 5.33929 8.46817 5.34131 8.51792 5.34333C8.9631 3.84398 10.3528 2.75 11.9992 2.75Z" stroke="currentColor" stroke-width="1.5" stroke-linejoin="round"></path><path d="M12 17.25V21" stroke="currentColor" stroke-width="1.5"></path><path d="M9.75 21.25H14.25" stroke="currentColor" stroke-width="1.5" stroke-linecap="round"></path></g></svg>