<svg width="24px" height="24px" viewBox="0 0 24 24" fill="none" xmlns="http://www.w3.org/2000/svg"><g><path d="M9.25 16.25H14.75M15 10.5C15 12.1569 13.6569 13.5 12 13.5C10.3431 13.5 9 12.1569 9 10.5C9 8.84315 10.3431 7.5 12 7.5C13.6569 7.5 15 8.84315 15 10.5ZM6.25 20.75H17.75C18.8546 20.75 19.75 19.8546 19.75 18.75V5.25C19.75 4.14543 18.8546 3.25 17.75 3.25H6.25C5.14543 3.25 4.25 4.14543 4.25 5.25V18.75C4.25 19.8546 5.14543 20.75 6.25 20.75Z" stroke="currentColor" stroke-width="1.5" stroke-linecap="round" stroke-linejoin="round"></path></g></svg>