<svg width="24px" height="24px" viewBox="0 0 24 24" fill="none" xmlns="http://www.w3.org/2000/svg"><g><path d="M20.25 17.05V6.95C20.25 5.8299 20.25 5.26984 20.032 4.84202C19.8403 4.46569 19.5343 4.15973 19.158 3.96799C18.7302 3.75 18.1701 3.75 17.05 3.75H6.95C5.8299 3.75 5.26984 3.75 4.84202 3.96799C4.46569 4.15973 4.15973 4.46569 3.96799 4.84202C3.75 5.26984 3.75 5.8299 3.75 6.95V17.05C3.75 18.1701 3.75 18.7302 3.96799 19.158C4.15973 19.5343 4.46569 19.8403 4.84202 20.032C5.26984 20.25 5.8299 20.25 6.95 20.25H17.05C18.1701 20.25 18.7302 20.25 19.158 20.032C19.5343 19.8403 19.8403 19.5343 20.032 19.158C20.25 18.7302 20.25 18.1701 20.25 17.05Z" stroke="currentColor" stroke-width="1.5" stroke-linecap="round" stroke-linejoin="round"></path><path d="M16.25 8.75V15.25" stroke="currentColor" stroke-width="1.5" stroke-linecap="round" stroke-linejoin="round"></path><path d="M8 11.25C8.41421 11.25 8.75 11.5858 8.75 12C8.75 12.4142 8.41421 12.75 8 12.75C7.58579 12.75 7.25 12.4142 7.25 12C7.25 11.5858 7.58579 11.25 8 11.25Z" fill="currentColor" stroke="currentColor" stroke-width="0.5"></path><path d="M12 11.25C12.4142 11.25 12.75 11.5858 12.75 12C12.75 12.4142 12.4142 12.75 12 12.75C11.5858 12.75 11.25 12.4142 11.25 12C11.25 11.5858 11.5858 11.25 12 11.25Z" fill="currentColor" stroke="currentColor" stroke-width="0.5"></path></g></svg>