<svg width="24px" height="24px" viewBox="0 0 24 24" fill="none" xmlns="http://www.w3.org/2000/svg"><g><path d="M4.75 5.75C4.75 4.64543 5.64543 3.75 6.75 3.75H7.25C8.35457 3.75 9.25 4.64543 9.25 5.75V18.25C9.25 19.3546 8.35457 20.25 7.25 20.25H6.75C5.64543 20.25 4.75 19.3546 4.75 18.25V5.75Z" stroke="currentColor" stroke-width="1.5" stroke-linejoin="round"></path><path d="M14.75 5.75C14.75 4.64543 15.6454 3.75 16.75 3.75H17.25C18.3546 3.75 19.25 4.64543 19.25 5.75V18.25C19.25 19.3546 18.3546 20.25 17.25 20.25H16.75C15.6454 20.25 14.75 19.3546 14.75 18.25V5.75Z" stroke="currentColor" stroke-width="1.5" stroke-linejoin="round"></path></g></svg>