<svg width="24px" height="24px" viewBox="0 0 24 24" fill="none" xmlns="http://www.w3.org/2000/svg"><g><path d="M20.1036 14.5425C20.1987 14.0411 20.2484 13.5236 20.2484 12.9946C20.2484 10.9198 19.4831 9.02379 18.2193 7.57348M4.14844 10.4147C4.93178 8.03144 6.77094 6.12722 9.1126 5.25537M13.5407 21.1052C13.0394 21.2004 12.5219 21.2501 11.9929 21.2501C10.0389 21.2501 8.24343 20.5713 6.82952 19.4365" stroke="currentColor" stroke-width="1.5" stroke-linecap="round" stroke-linejoin="round"></path><circle cx="12" cy="5.25" r="2.75" stroke="currentColor" stroke-width="1.5" stroke-linecap="round" stroke-linejoin="round"></circle><path d="M3.69554 14.8688C5.01063 14.1096 6.69222 14.5601 7.45148 15.8752C8.21075 17.1903 7.76017 18.8719 6.44508 19.6312C5.13 20.3904 3.44841 19.9399 2.68914 18.6248C1.92988 17.3097 2.38046 15.6281 3.69554 14.8688Z" stroke="currentColor" stroke-width="1.5" stroke-linecap="round" stroke-linejoin="round"></path><path d="M17.5471 19.6312C16.232 18.8719 15.7814 17.1903 16.5407 15.8752C17.3 14.5601 18.9816 14.1096 20.2966 14.8688C21.6117 15.6281 22.0623 17.3097 21.303 18.6248C20.5438 19.9399 18.8622 20.3904 17.5471 19.6312Z" stroke="currentColor" stroke-width="1.5" stroke-linecap="round" stroke-linejoin="round"></path></g></svg>