<svg width="24px" height="24px" viewBox="0 0 24 24" fill="none" xmlns="http://www.w3.org/2000/svg"><g><path d="M21.25 17.6667C21.25 19.7431 18.2708 21.2778 18 21.2778C17.7292 21.2778 14.75 19.7431 14.75 17.6667C14.75 16.2222 15.6528 15.5 16.5556 15.5C17.4583 15.5 18 16.0417 18 16.0417C18 16.0417 18.5417 15.5 19.4444 15.5C20.3472 15.5 21.25 16.2222 21.25 17.6667Z" stroke="currentColor" stroke-width="1.5" stroke-linecap="round" stroke-linejoin="round"></path><path d="M12.2511 20.25H6.69796C5.51944 20.25 4.5748 19.2182 4.9836 18.1129C6.03711 15.2643 8.60997 13.25 12.0011 13.25C12.4311 13.25 12.8479 13.2824 13.2502 13.3447" stroke="currentColor" stroke-width="1.5" stroke-linecap="round" stroke-linejoin="round"></path><path d="M15.75 6.5C15.75 8.57107 14.0711 10.25 12 10.25C9.92893 10.25 8.25 8.57107 8.25 6.5C8.25 4.42893 9.92893 2.75 12 2.75C14.0711 2.75 15.75 4.42893 15.75 6.5Z" stroke="currentColor" stroke-width="1.5" stroke-linecap="round" stroke-linejoin="round"></path></g></svg>