<svg width="24px" height="24px" viewBox="0 0 24 24" fill="none" xmlns="http://www.w3.org/2000/svg"><g><path d="M19.25 12.75C19.25 13.9926 18.2426 15 17 15C15.7574 15 14.75 13.9926 14.75 12.75C14.75 11.5074 15.7574 10.5 17 10.5C18.2426 10.5 19.25 11.5074 19.25 12.75Z" stroke="currentColor" stroke-width="1.5" stroke-linecap="round" stroke-linejoin="round"></path><path d="M16.9981 17C15.3803 17 14.0911 17.8668 13.3677 19.1729C12.799 20.1995 13.7577 21.25 14.9312 21.25H19.0649C20.2385 21.25 21.1971 20.1995 20.6285 19.1729C19.905 17.8668 18.6159 17 16.9981 17Z" stroke="currentColor" stroke-width="1.5" stroke-linecap="round" stroke-linejoin="round"></path><path d="M9.25 5C9.25 6.24264 8.24264 7.25 7 7.25C5.75736 7.25 4.75 6.24264 4.75 5C4.75 3.75736 5.75736 2.75 7 2.75C8.24264 2.75 9.25 3.75736 9.25 5Z" stroke="currentColor" stroke-width="1.5" stroke-linecap="round" stroke-linejoin="round"></path><path d="M9.49808 10.0892C8.81622 9.56026 7.96597 9.25 6.99808 9.25C5.38029 9.25 4.09115 10.1168 3.36769 11.4229C2.79905 12.4495 3.75768 13.5 4.93125 13.5H7.99808" stroke="currentColor" stroke-width="1.5" stroke-linecap="round" stroke-linejoin="round"></path><path d="M8.25 21.25L15.75 2.75" stroke="currentColor" stroke-width="1.5" stroke-linecap="round" stroke-linejoin="round"></path></g></svg>