<svg width="24px" height="24px" viewBox="0 0 24 24" fill="none" xmlns="http://www.w3.org/2000/svg"><g><path d="M12.75 8.5C12.75 10.5711 11.0711 12.25 9 12.25C6.92893 12.25 5.25 10.5711 5.25 8.5C5.25 6.42893 6.92893 4.75 9 4.75C11.0711 4.75 12.75 6.42893 12.75 8.5Z" stroke="currentColor" stroke-width="1.5" stroke-linecap="round" stroke-linejoin="round"></path><path d="M14.9997 4.75C17.0708 4.75 18.7497 6.42893 18.7497 8.5C18.7497 10.5711 17.0708 12.25 14.9997 12.25C14.975 12.25 14.9504 12.2498 14.9258 12.2493" stroke="currentColor" stroke-width="1.5" stroke-linecap="round" stroke-linejoin="round"></path><path d="M2.75 19.25V17.765C2.75 16.0999 4.09315 14.75 5.75 14.75H12C13.6569 14.75 15 16.0999 15 17.765V19.25" stroke="currentColor" stroke-width="1.5" stroke-linecap="round" stroke-linejoin="round"></path><path d="M21.25 19.25V17.765C21.25 16.0999 19.9069 14.75 18.25 14.75H17.5" stroke="currentColor" stroke-width="1.5" stroke-linecap="round" stroke-linejoin="round"></path></g></svg>