<svg width="24px" height="24px" viewBox="0 0 24 24" fill="none" xmlns="http://www.w3.org/2000/svg"><g><path d="M14.75 6.5C14.75 8.57107 13.0711 10.25 11 10.25C8.92893 10.25 7.25 8.57107 7.25 6.5C7.25 4.42893 8.92893 2.75 11 2.75C13.0711 2.75 14.75 4.42893 14.75 6.5Z" stroke="currentColor" stroke-width="1.5" stroke-linecap="round" stroke-linejoin="round"></path><path d="M11.0011 13.25C7.60997 13.25 5.03711 15.2643 3.9836 18.1129C3.5748 19.2182 4.51944 20.25 5.69796 20.25H16.3043C17.4828 20.25 18.4274 19.2182 18.0186 18.1129C16.9651 15.2643 14.3923 13.25 11.0011 13.25Z" stroke="currentColor" stroke-width="1.5" stroke-linecap="round" stroke-linejoin="round"></path><path d="M19.5 8.75V11.5M19.5 11.5V14.25M19.5 11.5H16.75M19.5 11.5H22.25" stroke="currentColor" stroke-width="1.5" stroke-linecap="round" stroke-linejoin="round"></path></g></svg>