<svg width="24px" height="24px" viewBox="0 0 24 24" fill="none" xmlns="http://www.w3.org/2000/svg"><g><path d="M15.75 6.5C15.75 8.57107 14.0711 10.25 12 10.25C9.92893 10.25 8.25 8.57107 8.25 6.5C8.25 4.42893 9.92893 2.75 12 2.75C14.0711 2.75 15.75 4.42893 15.75 6.5Z" stroke="currentColor" stroke-width="1.5" stroke-linejoin="round"></path><path d="M12.501 13.2648C12.3364 13.255 12.1698 13.25 12.0011 13.25C8.60997 13.25 6.03711 15.2643 4.9836 18.1129C4.5748 19.2182 5.51944 20.25 6.69796 20.25H12.0011" stroke="currentColor" stroke-width="1.5" stroke-linecap="round" stroke-linejoin="round"></path><path fill-rule="evenodd" clip-rule="evenodd" d="M19.2937 14.0632C19.42 14.3964 19.7633 14.5948 20.1151 14.5377L20.7274 14.4383C21.0349 14.3885 21.3413 14.5339 21.497 14.8037L21.8002 15.3287C21.9519 15.5914 21.9304 15.9196 21.7457 16.1603L21.3244 16.7095C21.1125 16.9856 21.1184 17.3711 21.3386 17.6405L21.7993 18.2044C21.9965 18.4458 22.0238 18.784 21.868 19.054L21.5649 19.579C21.4133 19.8415 21.1185 19.987 20.8178 19.9476L20.1306 19.8575C19.7857 19.8122 19.4549 20.0101 19.3317 20.3354L19.0741 21.0157C18.9636 21.3072 18.6844 21.5 18.3727 21.5H17.7663C17.4632 21.5 17.1899 21.3175 17.0736 21.0375L16.7673 20.2995C16.6372 19.9863 16.3131 19.7993 15.9768 19.8435L15.1862 19.9474C14.8855 19.9869 14.5906 19.8415 14.4389 19.5788L14.1356 19.0536C13.9799 18.7838 14.0071 18.4459 14.204 18.2045L14.6643 17.6401C14.884 17.3708 14.8899 16.9859 14.6786 16.71L14.2575 16.1602C14.0732 15.9195 14.0519 15.5916 14.2034 15.3291L14.5067 14.8038C14.6626 14.5339 14.969 14.3885 15.2766 14.4385L15.9946 14.5552C16.3378 14.611 16.6742 14.4237 16.8076 14.1027L17.0736 13.4623C17.1898 13.1824 17.4631 13 17.7662 13H18.3728C18.6845 13 18.9637 13.1927 19.0741 13.4841L19.2937 14.0632ZM18.0019 15.5C17.0354 15.5 16.2519 16.2835 16.2519 17.25C16.2519 18.2165 17.0354 19 18.0019 19C18.9684 19 19.7519 18.2165 19.7519 17.25C19.7519 16.2835 18.9684 15.5 18.0019 15.5Z" fill="currentColor"></path></g></svg>