<svg width="24px" height="24px" viewBox="0 0 24 24" fill="none" xmlns="http://www.w3.org/2000/svg"><g><path d="M17.25 6.75V4.75C17.25 3.64543 16.3546 2.75 15.25 2.75H4.75C3.64543 2.75 2.75 3.64543 2.75 4.75V15.25C2.75 16.3546 3.64543 17.25 4.75 17.25H6.75" stroke="currentColor" stroke-width="1.5" stroke-linecap="square" stroke-linejoin="round"></path><path d="M18.6737 21.25H9.32626M18.6737 21.25H19.25C20.3546 21.25 21.25 20.3546 21.25 19.25V8.75C21.25 7.64543 20.3546 6.75 19.25 6.75H8.75C7.64543 6.75 6.75 7.64543 6.75 8.75V19.25C6.75 20.3546 7.64543 21.25 8.75 21.25H9.32626M18.6737 21.25C18.2129 18.9642 16.2954 17.25 14 17.25C11.7046 17.25 9.78713 18.9642 9.32626 21.25" stroke="currentColor" stroke-width="1.5" stroke-linejoin="round"></path><path d="M16.25 12.5C16.25 13.7426 15.2426 14.75 14 14.75C12.7574 14.75 11.75 13.7426 11.75 12.5C11.75 11.2574 12.7574 10.25 14 10.25C15.2426 10.25 16.25 11.2574 16.25 12.5Z" stroke="currentColor" stroke-width="1.5" stroke-linejoin="round"></path></g></svg>