<svg width="24px" height="24px" viewBox="0 0 24 24" fill="none" xmlns="http://www.w3.org/2000/svg"><g><path d="M14.9016 3.24961C14.9016 3.74667 14.4986 4.14961 14.0016 4.14961C13.5045 4.14961 13.1016 3.74667 13.1016 3.24961C13.1016 2.75255 13.5045 2.34961 14.0016 2.34961C14.4986 2.34961 14.9016 2.75255 14.9016 3.24961Z" fill="currentColor"></path><circle cx="14.0016" cy="6.49961" r="0.9" fill="currentColor"></circle><circle cx="17" cy="5" r="0.75" fill="currentColor"></circle><circle cx="17" cy="8" r="0.75" fill="currentColor"></circle><circle cx="14.0016" cy="9.74961" r="0.9" fill="currentColor"></circle><circle cx="14.0016" cy="12.9996" r="0.9" fill="currentColor"></circle><circle cx="17" cy="13" r="0.75" fill="currentColor"></circle><circle cx="20" cy="16.5" r="0.75" fill="currentColor"></circle><circle cx="20" cy="20" r="0.75" fill="currentColor"></circle><circle cx="14.0016" cy="16.4996" r="0.9" fill="currentColor"></circle><circle cx="17.0016" cy="16.4996" r="0.9" fill="currentColor"></circle><circle cx="14.0016" cy="19.9996" r="0.9" fill="currentColor"></circle><circle cx="17.0016" cy="19.9996" r="0.9" fill="currentColor"></circle><path d="M11.25 2.8252C9.53833 3.17264 8.25 4.68596 8.25 6.50018C8.25 8.31441 9.53833 9.82772 11.25 10.1752" stroke="currentColor" stroke-width="1.5" stroke-linecap="round" stroke-linejoin="round"></path><path d="M11.2457 20.2502H6.69684C5.51833 20.2502 4.5737 19.2183 4.98252 18.113C5.95647 15.4797 8.22883 13.5593 11.2457 13.2842" stroke="currentColor" stroke-width="1.5" stroke-linecap="round" stroke-linejoin="round"></path></g></svg>