<svg width="24px" height="24px" viewBox="0 0 24 24" fill="none" xmlns="http://www.w3.org/2000/svg"><g><path d="M14.0833 20.2448C13.0417 19.2953 10.9583 19.2953 10.0531 20.2448C9.09442 21.0729 7.94773 21.7552 6.77732 20.7442C3.43786 17.8596 9.05701 10.75 12 10.75C14.943 10.75 20.5621 17.8596 17.2227 20.7442C16.0523 21.7552 15.042 21.0729 14.0833 20.2448Z" stroke="currentColor" stroke-width="1.5"></path><path d="M10.7465 5.57309C10.8068 7.09133 10.0737 8.28938 9.10914 8.24901C8.14455 8.20864 7.31374 6.94514 7.25347 5.42691C7.19319 3.90867 7.92628 2.71062 8.89086 2.75099C9.85545 2.79136 10.6863 4.05486 10.7465 5.57309Z" stroke="currentColor" stroke-width="1.5"></path><path d="M13.2535 5.57309C13.1932 7.09133 13.9263 8.28938 14.8909 8.24901C15.8554 8.20864 16.6863 6.94514 16.7465 5.42691C16.8068 3.90867 16.0737 2.71062 15.1091 2.75099C14.1446 2.79136 13.3137 4.05486 13.2535 5.57309Z" stroke="currentColor" stroke-width="1.5"></path><path d="M6.1747 8.99423C6.45428 10.3676 5.93113 11.5954 5.00622 11.7367C4.08131 11.8779 3.10488 10.8791 2.8253 9.50577C2.54572 8.13242 3.06887 6.90458 3.99378 6.76332C4.91869 6.62205 5.89512 7.62087 6.1747 8.99423Z" stroke="currentColor" stroke-width="1.5"></path><path d="M21.1747 9.50577C20.8951 10.8791 19.9187 11.8779 18.9938 11.7367C18.0689 11.5954 17.5457 10.3676 17.8253 8.99423C18.1049 7.62087 19.0813 6.62205 20.0062 6.76332C20.9311 6.90458 21.4543 8.13242 21.1747 9.50577Z" stroke="currentColor" stroke-width="1.5"></path></g></svg>