<svg width="24px" height="24px" viewBox="0 0 24 24" fill="none" xmlns="http://www.w3.org/2000/svg"><g><path d="M3.50087 8L2.44886 9.05201C1.90491 9.59596 1.84371 10.4571 2.30527 11.0725C2.71748 11.6221 2.71748 12.3779 2.30527 12.9275C1.84371 13.5429 1.90491 14.404 2.44886 14.948L3.50087 16M20.5009 8L21.5529 9.05201C22.0968 9.59596 22.158 10.4571 21.6965 11.0725C21.2843 11.6221 21.2843 12.3779 21.6965 12.9275C22.158 13.5429 22.0968 14.404 21.5529 14.948L20.5009 16M11.2509 6.25H12.7509M16.7509 5.75V18.25C16.7509 19.3546 15.8554 20.25 14.7509 20.25H9.25086C8.14629 20.25 7.25086 19.3546 7.25086 18.25V5.75C7.25086 4.64543 8.14629 3.75 9.25086 3.75H14.7509C15.8554 3.75 16.7509 4.64543 16.7509 5.75Z" stroke="currentColor" stroke-width="1.5" stroke-linecap="round" stroke-linejoin="round"></path></g></svg>