<svg width="24px" height="24px" viewBox="0 0 24 24" fill="none" xmlns="http://www.w3.org/2000/svg"><g><circle cx="12" cy="12" r="9.25" stroke="currentColor" stroke-width="1.5"></circle><path d="M13.0984 12C13.0984 12.6075 12.606 13.1 11.9984 13.1C11.3909 13.1 10.8984 12.6075 10.8984 12C10.8984 11.3925 11.3909 10.9 11.9984 10.9C12.606 10.9 13.0984 11.3925 13.0984 12Z" fill="currentColor"></path><path d="M10.9985 7.9999C10.9985 8.60742 10.506 9.0999 9.89854 9.0999C9.29102 9.0999 8.79854 8.60742 8.79854 7.9999C8.79854 7.39239 9.29102 6.8999 9.89854 6.8999C10.506 6.8999 10.9985 7.39239 10.9985 7.9999Z" fill="currentColor"></path><path d="M10.9985 15.9999C10.9985 16.6074 10.506 17.0999 9.89854 17.0999C9.29102 17.0999 8.79854 16.6074 8.79854 15.9999C8.79854 15.3924 9.29102 14.8999 9.89854 14.8999C10.506 14.8999 10.9985 15.3924 10.9985 15.9999Z" fill="currentColor"></path><path d="M15.1985 7.9999C15.1985 8.60742 14.706 9.0999 14.0985 9.0999C13.491 9.0999 12.9985 8.60742 12.9985 7.9999C12.9985 7.39239 13.491 6.8999 14.0985 6.8999C14.706 6.8999 15.1985 7.39239 15.1985 7.9999Z" fill="currentColor"></path><path d="M15.1985 15.9999C15.1985 16.6074 14.706 17.0999 14.0985 17.0999C13.491 17.0999 12.9985 16.6074 12.9985 15.9999C12.9985 15.3924 13.491 14.8999 14.0985 14.8999C14.706 14.8999 15.1985 15.3924 15.1985 15.9999Z" fill="currentColor"></path><path d="M8.34844 12C8.34844 12.6075 7.85595 13.1 7.24844 13.1C6.64092 13.1 6.14844 12.6075 6.14844 12C6.14844 11.3925 6.64092 10.9 7.24844 10.9C7.85595 10.9 8.34844 11.3925 8.34844 12Z" fill="currentColor"></path><path d="M17.8436 12C17.8436 12.6075 17.3511 13.1 16.7436 13.1C16.136 13.1 15.6436 12.6075 15.6436 12C15.6436 11.3925 16.136 10.9 16.7436 10.9C17.3511 10.9 17.8436 11.3925 17.8436 12Z" fill="currentColor"></path></g></svg>