<svg width="24px" height="24px" viewBox="0 0 24 24" fill="none" xmlns="http://www.w3.org/2000/svg"><g><path d="M19.7181 14.536C20.0626 13.761 20.254 12.9029 20.254 12.0001C20.254 8.54831 17.4558 5.75009 14.004 5.75009H10.004C9.87818 5.75009 9.75815 5.69603 9.67434 5.60219C8.70858 4.52095 7.57603 4.05993 6.74007 3.87159C6.20129 3.7502 5.75 4.1978 5.75 4.75009V6.98541C5.75 7.26331 5.6313 7.52586 5.44133 7.72869C5.05158 8.14486 4.7181 8.61437 4.45304 9.12511C4.26264 9.49197 3.89867 9.75009 3.48534 9.75009H2.75C2.19772 9.75009 1.75 10.1978 1.75 10.7501V13.2501C1.75 13.8024 2.19772 14.2501 2.75 14.2501H3.48534C3.89867 14.2501 4.26264 14.5082 4.45304 14.8751C4.7181 15.3858 5.05158 15.8553 5.44133 16.2715C5.6313 16.4743 5.75 16.7369 5.75 17.0148V19.2501C5.75 19.8024 6.19772 20.2501 6.75 20.2501H9.25C9.80229 20.2501 10.25 19.8024 10.25 19.2501C10.25 18.6978 10.6977 18.2501 11.25 18.2501H12.75C13.3023 18.2501 13.75 18.6978 13.75 19.2501C13.75 19.8024 14.1977 20.2501 14.75 20.2501H17.25C17.8023 20.2501 18.25 19.8024 18.25 19.2501V17.0232C18.25 16.7447 18.3692 16.4817 18.5599 16.2787C19.0375 15.7703 19.431 15.182 19.7181 14.536ZM19.7181 14.536C20.085 14.9726 20.6351 15.2501 21.25 15.2501C22.3546 15.2501 23.25 14.3547 23.25 13.2501C23.25 12.7771 23.0858 12.3425 22.8113 12.0001M8 10.7501H8.5M8.75 10.7501C8.75 11.0262 8.52614 11.2501 8.25 11.2501C7.97386 11.2501 7.75 11.0262 7.75 10.7501C7.75 10.4739 7.97386 10.2501 8.25 10.2501C8.52614 10.2501 8.75 10.4739 8.75 10.7501Z" stroke="currentColor" stroke-width="1.5" stroke-linecap="round" stroke-linejoin="round"></path></g></svg>