<svg width="24px" height="24px" viewBox="0 0 24 24" fill="none" xmlns="http://www.w3.org/2000/svg"><g><path d="M7.86055 4.30083C7.03728 4.48618 6.18668 4.06495 5.37604 3.83047C5.1949 3.77807 5.0035 3.75 4.80556 3.75C3.6703 3.75 2.75 4.67341 2.75 5.8125C2.75 5.98945 2.77221 6.16119 2.81398 6.32508C3.0187 7.12828 3.39412 7.97501 3.2004 8.78094C2.94712 9.83457 2.75 10.9817 2.75 12C2.75 13.0183 2.94712 14.1654 3.2004 15.2191C3.39412 16.025 3.0187 16.8717 2.81398 17.6749C2.77221 17.8388 2.75 18.0106 2.75 18.1875C2.75 19.3266 3.6703 20.25 4.80556 20.25C5.00216 20.25 5.19231 20.2223 5.37235 20.1706C6.18203 19.938 7.0317 19.5199 7.85359 19.7048C9.17551 20.0021 10.675 20.25 12 20.25C13.325 20.25 14.8245 20.0021 16.1464 19.7048C16.9683 19.5199 17.818 19.938 18.6277 20.1706C18.8077 20.2223 18.9979 20.25 19.1945 20.25C20.3297 20.25 21.25 19.3266 21.25 18.1875C21.25 18.0105 21.2278 17.8388 21.186 17.6749C20.9813 16.8717 20.6059 16.025 20.7996 15.219C21.0529 14.1654 21.25 13.0183 21.25 12C21.25 10.9817 21.0529 9.83457 20.7996 8.78094C20.6059 7.97501 20.9813 7.12828 21.186 6.32507C21.2278 6.16119 21.25 5.98945 21.25 5.8125C21.25 4.67341 20.3297 3.75 19.1944 3.75C18.9965 3.75 18.8051 3.77807 18.624 3.83047C17.8133 4.06495 16.9627 4.48618 16.1395 4.30083C14.8078 4.00103 13.3036 3.75 12 3.75C10.6964 3.75 9.19221 4.00103 7.86055 4.30083Z" stroke="currentColor" stroke-width="1.5" stroke-linecap="round" stroke-linejoin="round"></path></g></svg>