<svg width="24px" height="24px" viewBox="0 0 24 24" fill="none" xmlns="http://www.w3.org/2000/svg"><g><path d="M11.25 20.3974V15H12.75V20.3974C12.75 20.4651 12.7362 20.5321 12.7096 20.5943L12.2298 21.7138C12.1432 21.9159 11.8568 21.9159 11.7702 21.7138L11.2904 20.5943C11.2638 20.5321 11.25 20.4651 11.25 20.3974Z" fill="currentColor"></path><path d="M13.7502 2.75C14.8547 2.75014 15.7502 3.64551 15.7502 4.75V8.48046C15.7502 8.83026 15.9362 9.15042 16.2205 9.35427C17.7996 10.4867 18.905 12.2378 19.1822 14.253C19.2575 14.8001 18.8025 15.25 18.2502 15.25H5.75024C5.19796 15.25 4.74298 14.8001 4.81823 14.253C5.09539 12.2377 6.20076 10.4866 7.77997 9.35427C8.06426 9.15042 8.25024 8.83024 8.25024 8.48042V4.75C8.25024 3.64543 9.14567 2.75 10.2502 2.75H13.7502Z" stroke="currentColor" stroke-width="1.5" stroke-linejoin="round"></path></g></svg>