<svg width="24px" height="24px" viewBox="0.545 -0.545 24 24" fill="none" xmlns="http://www.w3.org/2000/svg"><g><path d="M8.375 15.625L12.2092 19.4592C13.3676 20.6175 15.351 19.9682 15.6001 18.3491L16.3396 13.5425C16.44 12.8901 16.8558 12.3292 17.4509 12.0435L20.2054 10.7214C21.4483 10.1248 21.729 8.47902 20.7542 7.50413L16.4959 3.24583C15.521 2.27093 13.8752 2.55164 13.2786 3.79458L11.9564 6.54908C11.6708 7.14417 11.1099 7.55999 10.4575 7.66036L5.65092 8.39984C4.03176 8.64894 3.38243 10.6324 4.54081 11.7908L8.375 15.625ZM8.375 15.625L8.38235 15.6176M8.375 15.625L3.75 20.25" stroke="currentColor" stroke-width="1.5" stroke-linecap="round" stroke-linejoin="round"></path></g></svg>