<svg width="24px" height="24px" viewBox="0 0 24 24" fill="none" xmlns="http://www.w3.org/2000/svg"><g><path d="M16.9631 4.22776C18.3234 3.99457 19.5054 5.17664 19.2722 6.53693L18.1686 12.9748L17.4308 17.2784L17.1782 18.7519C16.9898 19.851 15.9339 20.5946 14.8681 20.2667C12.2126 19.4497 9.71221 17.9905 7.61085 15.8892C5.50948 13.7878 4.0503 11.2874 3.23329 8.63194C2.90536 7.56609 3.64899 6.51017 4.74812 6.32175L6.22161 6.06915L11.8569 5.1031L15.319 4.5096L16.9631 4.22776Z" stroke="currentColor" stroke-width="1.5" stroke-linecap="square" stroke-linejoin="round"></path><path d="M17.4299 17.2783C15.8378 16.9772 14.2876 16.4001 12.8561 15.547C11.8731 14.9611 10.9461 14.2451 10.1 13.399C8.0217 11.3207 6.7286 8.7545 6.2207 6.06909" stroke="currentColor" stroke-width="1.5" stroke-linecap="square" stroke-linejoin="round"></path><path d="M18.1686 12.9748C17.6225 12.232 16.7426 11.75 15.75 11.75C14.0931 11.75 12.75 13.0931 12.75 14.75C12.75 15.026 12.7873 15.2932 12.857 15.547" stroke="currentColor" stroke-width="1.5" stroke-linecap="square" stroke-linejoin="round"></path><path d="M15.319 4.50952C15.5889 4.85043 15.75 5.28136 15.75 5.74992C15.75 6.85449 14.8546 7.74992 13.75 7.74992C12.6454 7.74992 11.75 6.85449 11.75 5.74992C11.75 5.52353 11.7876 5.30593 11.8569 5.10302" stroke="currentColor" stroke-width="1.5" stroke-linecap="square" stroke-linejoin="round"></path></g></svg>