<svg width="24px" height="24px" viewBox="0 0 24 24" fill="none" xmlns="http://www.w3.org/2000/svg"><g><path d="M17.1055 17.1577C17.1055 18.8656 15.7195 20.25 14.0098 20.25C12.3001 20.25 10.9141 18.8656 10.9141 17.1577C10.9141 15.4499 12.3001 14.0654 14.0098 14.0654C15.7195 14.0654 17.1055 15.4499 17.1055 17.1577Z" stroke="currentColor" stroke-width="1.5" stroke-linejoin="round"></path><path d="M4.99145 6.98596L10.4681 11.5764L3.75 14.0188L4.99145 6.98596Z" stroke="currentColor" stroke-width="1.5" stroke-linejoin="round"></path><path d="M14.0115 4.46532C14.1545 3.9321 14.7026 3.61567 15.2359 3.75841L19.2844 4.842C19.8181 4.98485 20.1348 5.53345 19.9917 6.06708L18.9074 10.1093C18.7643 10.6425 18.2163 10.9589 17.683 10.8162L13.6345 9.73258C13.1008 9.58973 12.7841 9.04113 12.9272 8.50749L14.0115 4.46532Z" stroke="currentColor" stroke-width="1.5" stroke-linejoin="round"></path></g></svg>