<svg width="24px" height="24px" viewBox="0 0 24 24" fill="none" xmlns="http://www.w3.org/2000/svg"><g><path d="M2.75 9.75C2.75 8.64543 3.64543 7.75 4.75 7.75H19.25C20.3546 7.75 21.25 8.64543 21.25 9.75V17.25C21.25 18.3546 20.3546 19.25 19.25 19.25H4.75C3.64543 19.25 2.75 18.3546 2.75 17.25V9.75Z" stroke="currentColor" stroke-width="1.5" stroke-linecap="round" stroke-linejoin="round"></path><path d="M4.75 7.5V5.25C4.75 4.42157 5.42157 3.75 6.25 3.75H8.75C9.57843 3.75 10.25 4.42157 10.25 5.25V7.5" stroke="currentColor" stroke-width="1.5" stroke-linecap="round" stroke-linejoin="round"></path><path d="M13.75 7.5V5.25C13.75 4.42157 14.4216 3.75 15.25 3.75H17.75C18.5784 3.75 19.25 4.42157 19.25 5.25V7.5" stroke="currentColor" stroke-width="1.5" stroke-linecap="round" stroke-linejoin="round"></path></g></svg>