<svg width="24px" height="24px" viewBox="0 0 24 24" fill="none" xmlns="http://www.w3.org/2000/svg"><g><path d="M17.1149 19.75C19.6073 18.0888 21.25 15.248 21.25 12.0227C21.25 6.90154 17.1086 2.75 12 2.75C6.89137 2.75 2.75 6.90154 2.75 12.0227C2.75 15.248 4.39266 18.0888 6.88507 19.75" stroke="currentColor" stroke-width="1.5" stroke-linecap="round"></path><path d="M7.8 15.25C7.14069 14.3621 6.75 13.2583 6.75 12.0622C6.75 9.12834 9.1005 6.75 12 6.75C14.8995 6.75 17.25 9.12834 17.25 12.0622C17.25 13.2583 16.8593 14.3621 16.2 15.25" stroke="currentColor" stroke-width="1.5" stroke-linecap="round"></path><path d="M12.8523 20.7569L13.2983 17.4862C13.4055 16.7001 12.7944 16 12.001 16C11.2075 16 10.5964 16.7001 10.7036 17.4862L11.1496 20.7569C11.2077 21.1826 11.5713 21.5 12.001 21.5C12.4306 21.5 12.7943 21.1826 12.8523 20.7569Z" stroke="currentColor" stroke-width="1.5"></path><path d="M13.25 12C13.25 12.6904 12.6904 13.25 12 13.25C11.3096 13.25 10.75 12.6904 10.75 12C10.75 11.3096 11.3096 10.75 12 10.75C12.6904 10.75 13.25 11.3096 13.25 12Z" stroke="currentColor" stroke-width="1.5"></path></g></svg>