<svg width="24px" height="24px" viewBox="0 0 24 24" fill="none" xmlns="http://www.w3.org/2000/svg"><g><path d="M20.75 11.75C20.75 16.7206 16.7206 20.75 11.75 20.75C6.77944 20.75 2.75 16.7206 2.75 11.75C2.75 6.77944 6.77944 2.75 11.75 2.75C16.7206 2.75 20.75 6.77944 20.75 11.75Z" stroke="currentColor" stroke-width="1.5"></path><path d="M14.75 11.75C14.75 13.4069 13.4069 14.75 11.75 14.75C10.0931 14.75 8.75 13.4069 8.75 11.75C8.75 10.0931 10.0931 8.75 11.75 8.75C13.4069 8.75 14.75 10.0931 14.75 11.75Z" stroke="currentColor" stroke-width="1.5"></path><path d="M14.75 11.75H20.75" stroke="currentColor" stroke-width="1.5"></path><path d="M8.75 11.75H2.75" stroke="currentColor" stroke-width="1.5"></path></g></svg>