<svg width="24px" height="24px" viewBox="0 0 24 24" fill="none" xmlns="http://www.w3.org/2000/svg"><g><path d="M19.6267 8.86043L18.4477 19.4709C18.3352 20.4837 17.4791 21.25 16.46 21.25H7.54013C6.52103 21.25 5.6649 20.4837 5.55236 19.4709L4.37342 8.86043C4.3076 8.26807 4.77129 7.75 5.36731 7.75H18.6328C19.2288 7.75 19.6925 8.26807 19.6267 8.86043Z" stroke="currentColor" stroke-width="1.5" stroke-linecap="square"></path><path d="M9.27344 8.16309L9.97794 20.8442M14.7276 8.16309L14.023 20.8442" stroke="currentColor" stroke-width="1.5" stroke-linecap="round" stroke-linejoin="round"></path><path d="M4.75 7.75V7.49575C4.75 6.76361 5.26607 6.12543 6.00171 5.94786C6.5165 5.8236 6.93816 5.46823 7.13523 4.99254L7.34398 4.48868C7.97506 2.96537 9.50133 4.05938 10.5313 3.31353L10.7571 3.15C11.4937 2.61667 12.5063 2.61667 13.2429 3.15L13.4687 3.31353C14.4987 4.05938 16.0249 2.96537 16.656 4.48868L16.8648 4.99254C17.0618 5.46823 17.4835 5.8236 17.9983 5.94786C18.7339 6.12543 19.25 6.76361 19.25 7.49575V7.75" stroke="currentColor" stroke-width="1.5" stroke-linecap="round"></path></g></svg>