<svg width="24px" height="24px" viewBox="0 0 24 24" fill="none" xmlns="http://www.w3.org/2000/svg"><g><path d="M5.75 6.75C5.75 3.98858 7.98858 1.75 10.75 1.75H13.25C16.0114 1.75 18.25 3.98858 18.25 6.75V9.5V15.25C18.25 16.3546 17.3546 17.25 16.25 17.25H7.75C6.64543 17.25 5.75 16.3546 5.75 15.25V6.75Z" stroke="currentColor" stroke-width="1.5" stroke-linecap="round" stroke-linejoin="round"></path><path d="M10.25 17.25H13.75V20.5C13.75 21.4665 12.9665 22.25 12 22.25C11.0335 22.25 10.25 21.4665 10.25 20.5V17.25Z" stroke="currentColor" stroke-width="1.5" stroke-linecap="round" stroke-linejoin="round"></path><path d="M18.25 9.5C18.25 9.5 16.5845 10.9302 15.3544 11.2791C13.0477 11.9334 11.6478 10.0697 9.56031 10.3242C8.05198 10.5081 6.6922 11.6037 5.75 12.7344" stroke="currentColor" stroke-width="1.5" stroke-linecap="round" stroke-linejoin="round"></path></g></svg>