<svg width="24px" height="24px" viewBox="0 0 24 24" fill="none" xmlns="http://www.w3.org/2000/svg"><g><path d="M15.25 2.75H8.75C7.64543 2.75 6.75 3.64543 6.75 4.75V6.75H17.25V4.75C17.25 3.64543 16.3546 2.75 15.25 2.75Z" stroke="currentColor" stroke-width="1.5" stroke-linecap="round" stroke-linejoin="round"></path><path d="M8.75 21.25H15.25C16.3546 21.25 17.25 20.3546 17.25 19.25V13.75H6.75V19.25C6.75 20.3546 7.64543 21.25 8.75 21.25Z" stroke="currentColor" stroke-width="1.5" stroke-linecap="round" stroke-linejoin="round"></path><path d="M19.25 6.75H4.75C3.64543 6.75 2.75 7.64543 2.75 8.75V15.25C2.75 16.3546 3.64543 17.25 4.75 17.25H6.75V13.75H17.25V17.25H19.25C20.3546 17.25 21.25 16.3546 21.25 15.25V8.75C21.25 7.64543 20.3546 6.75 19.25 6.75Z" stroke="currentColor" stroke-width="1.5" stroke-linecap="round" stroke-linejoin="round"></path><path d="M9.25 10.75H6.75" stroke="currentColor" stroke-width="1.5" stroke-linecap="round" stroke-linejoin="round"></path></g></svg>