<svg width="24px" height="24px" viewBox="0 0 24 24" fill="none" xmlns="http://www.w3.org/2000/svg"><g><path d="M12.0002 4.74693V2.74609M16 4.75V2.75M8.00018 4.75V2.74609M12 21.25V19.25M16 21.25V19.25M8 21.25V19.25M19.25 16H21.25M19.25 8H21.25M19.25 12H21.25M2.75 12H4.75M2.75 16H4.75M2.75 8H4.75M15.2488 11.999C15.2488 13.7939 13.7937 15.249 11.9988 15.249C10.2039 15.249 8.74878 13.7939 8.74878 11.999C8.74878 10.2041 10.2039 8.74902 11.9988 8.74902C13.7937 8.74902 15.2488 10.2041 15.2488 11.999ZM6.75 19.25H17.25C18.3546 19.25 19.25 18.3546 19.25 17.25V6.75C19.25 5.64543 18.3546 4.75 17.25 4.75H6.75C5.64543 4.75 4.75 5.64543 4.75 6.75V17.25C4.75 18.3546 5.64543 19.25 6.75 19.25Z" stroke="currentColor" stroke-width="1.5" stroke-linecap="round" stroke-linejoin="round"></path></g></svg>