<svg width="24px" height="24px" viewBox="0 0 24 24" fill="none" xmlns="http://www.w3.org/2000/svg"><g><path d="M19.4142 5.9144L20.0858 6.58597C20.8668 7.36702 20.8668 8.63335 20.0858 9.4144L10.2352 19.265C9.92074 19.5794 9.5104 19.7801 9.06908 19.8353L5.75 20.2502L6.16489 16.9311C6.22005 16.4898 6.42074 16.0794 6.73523 15.765L16.5858 5.9144C17.3668 5.13335 18.6332 5.13335 19.4142 5.9144Z" stroke="currentColor" stroke-width="1.5" stroke-linecap="round" stroke-linejoin="round"></path><path d="M15 8L18 11" stroke="currentColor" stroke-width="1.5" stroke-linecap="round" stroke-linejoin="round"></path><path d="M7.25818 4.23127L6.54359 2.37334C6.45708 2.14842 6.24099 2 6 2C5.75901 2 5.54292 2.14842 5.45641 2.37334L4.74182 4.23127C4.65153 4.46602 4.46602 4.65153 4.23127 4.74182L2.37334 5.45641C2.14842 5.54292 2 5.75901 2 6C2 6.24099 2.14842 6.45708 2.37334 6.54359L4.23127 7.25818C4.46602 7.34847 4.65153 7.53398 4.74182 7.76873L5.45641 9.62666C5.54292 9.85158 5.75901 10 6 10C6.24099 10 6.45708 9.85158 6.54359 9.62666L7.25818 7.76873C7.34847 7.53398 7.53398 7.34847 7.76873 7.25818L9.62666 6.54359C9.85158 6.45708 10 6.24099 10 6C10 5.75901 9.85158 5.54292 9.62666 5.45641L7.76873 4.74182C7.53398 4.65153 7.34847 4.46602 7.25818 4.23127Z" fill="currentColor"></path></g></svg>