<svg width="24px" height="24px" viewBox="0 0 24 24" fill="none" xmlns="http://www.w3.org/2000/svg"><g><path d="M1.75 5V3.75H6H10.25V5" stroke="currentColor" stroke-width="1.5" stroke-linecap="round" stroke-linejoin="round"></path><path d="M5.99994 3.75V11.25M5.99994 11.25H4.75M5.99994 11.25H7.25" stroke="currentColor" stroke-width="1.5" stroke-linecap="round" stroke-linejoin="round"></path><path d="M5.75 15.75V18.25C5.75 19.3546 6.64543 20.25 7.75 20.25H18.25C19.3546 20.25 20.25 19.3546 20.25 18.25V7.75C20.25 6.64543 19.3546 5.75 18.25 5.75H14.75" stroke="currentColor" stroke-width="1.5" stroke-linecap="round" stroke-linejoin="round"></path><path d="M11 15.5272V10.4728C11 9.85986 11.6954 9.50575 12.1911 9.86628L15.666 12.3934C16.0778 12.693 16.0778 13.307 15.666 13.6066L12.1911 16.1337C11.6954 16.4943 11 16.1401 11 15.5272Z" fill="currentColor"></path></g></svg>