<svg width="24px" height="24px" viewBox="0 0 24 24" fill="none" xmlns="http://www.w3.org/2000/svg"><g><path d="M13.2714 9.00554L12.6795 7.46667C12.5714 7.18552 12.3012 7 12 7C11.6988 7 11.4286 7.18552 11.3205 7.46667L10.7286 9.00554C10.4239 9.79782 9.79782 10.4239 9.00554 10.7286L7.46667 11.3205C7.18552 11.4286 7 11.6988 7 12C7 12.3012 7.18552 12.5714 7.46667 12.6795L9.00554 13.2714C9.79782 13.5761 10.4239 14.2022 10.7286 14.9945L11.3205 16.5333C11.4286 16.8145 11.6988 17 12 17C12.3012 17 12.5714 16.8145 12.6795 16.5333L13.2714 14.9945C13.5761 14.2022 14.2022 13.5761 14.9945 13.2714L16.5333 12.6795C16.8145 12.5714 17 12.3012 17 12C17 11.6988 16.8145 11.4286 16.5333 11.3205L14.9945 10.7286C14.2022 10.4239 13.5761 9.79782 13.2714 9.00554Z" fill="currentColor"></path><path d="M18.25 3.75H5.75C4.64543 3.75 3.75 4.64543 3.75 5.75V18.25C3.75 19.3546 4.64543 20.25 5.75 20.25H18.25C19.3546 20.25 20.25 19.3546 20.25 18.25V5.75C20.25 4.64543 19.3546 3.75 18.25 3.75Z" stroke="currentColor" stroke-width="1.5"></path></g></svg>