<svg width="24px" height="24px" viewBox="0 0 24 24" fill="none" xmlns="http://www.w3.org/2000/svg"><g><path d="M14.7809 11.6824C14.7809 11.6824 17.7818 11.5395 19.2903 12.5834C23.7287 15.6552 14.7854 23.0013 13.2261 20.4717C12.4048 19.139 14.262 16.8888 13.5041 14.8756" stroke="currentColor" stroke-width="1.5"></path><path d="M10.8835 14.5678C10.8835 14.5678 9.50677 17.2382 7.84841 18.0226C2.96895 20.3305 1.0787 8.91232 4.04905 8.82672C5.61387 8.78173 6.63402 11.5153 8.75644 11.8655" stroke="currentColor" stroke-width="1.5"></path><path d="M10.3357 9.75C10.3357 9.75 8.71149 7.22256 8.86133 5.39417C9.30241 0.0145154 20.1359 4.08658 18.7249 6.70177C17.9814 8.07944 15.1041 7.59615 13.7395 9.25908" stroke="currentColor" stroke-width="1.5"></path><path d="M15 12C15 13.6569 13.6569 15 12 15C10.3431 15 9 13.6569 9 12C9 10.3431 10.3431 9 12 9C13.6569 9 15 10.3431 15 12Z" stroke="currentColor" stroke-width="1.5"></path></g></svg>