<svg width="24px" height="24px" viewBox="0 0 24 24" fill="none" xmlns="http://www.w3.org/2000/svg"><g><path d="M20.25 20.25H3.75" stroke="currentColor" stroke-width="1.5" stroke-linecap="round" stroke-linejoin="round"></path><path d="M4.25277 10.6601L17.4182 5.4292M4.25277 10.6601C4.89416 12.1631 6.12382 13.2347 7.55859 13.7208M4.25277 10.6601C3.61138 9.15705 3.68852 7.52782 4.33021 6.15552" stroke="currentColor" stroke-width="1.5" stroke-linecap="round" stroke-linejoin="round"></path><path d="M20 5C20 5.69036 19.4404 6.25 18.75 6.25C18.0596 6.25 17.5 5.69036 17.5 5C17.5 4.30964 18.0596 3.75 18.75 3.75C19.4404 3.75 20 4.30964 20 5Z" stroke="currentColor" stroke-width="1.5" stroke-linecap="round" stroke-linejoin="round"></path><path d="M18.75 6.25V20.25" stroke="currentColor" stroke-width="1.5" stroke-linecap="round" stroke-linejoin="round"></path><path d="M11.9997 8L12.7054 7.74596L11.294 7.74596L11.9997 8ZM14.9681 16.2455L15.6737 15.9914L14.9681 16.2455ZM11.294 8.25404L14.2624 16.4995L15.6737 15.9914L12.7054 7.74596L11.294 8.25404ZM14.2624 16.4995L15.614 20.254L17.0254 19.746L15.6737 15.9914L14.2624 16.4995ZM11.294 7.74596L8.32566 15.9914L9.73699 16.4995L12.7054 8.25404L11.294 7.74596ZM8.32566 15.9914L6.97402 19.746L8.38535 20.254L9.73699 16.4995L8.32566 15.9914ZM14.9681 15.4955H9.03132V16.9955H14.9681V15.4955Z" fill="currentColor"></path></g></svg>