<svg width="24px" height="24px" viewBox="0 0 24 24" fill="none" xmlns="http://www.w3.org/2000/svg"><g><path d="M4.52778 17.25L1.75 20.1071M6.75 19.5357L5.08333 21.25" stroke="currentColor" stroke-width="1.5" stroke-linecap="round" stroke-linejoin="round"></path><path d="M17.25 8.5C17.25 9.4665 16.4665 10.25 15.5 10.25C14.5335 10.25 13.75 9.4665 13.75 8.5C13.75 7.5335 14.5335 6.75 15.5 6.75C16.4665 6.75 17.25 7.5335 17.25 8.5Z" stroke="currentColor" stroke-width="1.5" stroke-linecap="round" stroke-linejoin="round"></path><path d="M8.7307 15.2693C7.00674 13.5454 3.25 12.2798 3.25 12.2798L5.64083 9.49053C6.02079 9.04724 6.57549 8.79212 7.15934 8.79212H9.22894C11.2219 4.80615 14.2114 2.31493 21.1868 2.81317C21.6851 9.78861 19.1938 12.7781 15.2079 14.7711V16.8407C15.2079 17.4245 14.9528 17.9792 14.5095 18.3592L11.7202 20.75C11.7202 20.75 10.4547 16.9933 8.7307 15.2693Z" stroke="currentColor" stroke-width="1.5" stroke-linecap="round" stroke-linejoin="round"></path></g></svg>