<svg width="24px" height="24px" viewBox="0 0 24 24" fill="none" xmlns="http://www.w3.org/2000/svg"><g><path d="M19.25 6.82079C19.25 7.96446 15.9626 8.89159 12 8.89159C8.03736 8.89159 4.75 7.96446 4.75 6.82079M19.25 6.82079C19.25 5.67713 15.9626 4.75 12 4.75C8.03736 4.75 4.75 5.67713 4.75 6.82079M19.25 6.82079V14.0686C19.25 15.2122 15.9626 16.1394 12 16.1394C8.03736 16.1394 4.75 15.2122 4.75 14.0686V6.82079M4.75 14.1791C2.85235 14.716 1.75 15.4642 1.75 16.2917C1.75 17.9255 6.33908 19.25 12 19.25C17.6609 19.25 22.25 17.9255 22.25 16.2917C22.25 15.4642 21.1476 14.716 19.25 14.1791" stroke="currentColor" stroke-width="1.5" stroke-linecap="square"></path></g></svg>