<svg width="24px" height="24px" viewBox="0 0 24 24" fill="none" xmlns="http://www.w3.org/2000/svg"><g><path d="M4.75 19.25L10.4219 13.5781" stroke="currentColor" stroke-width="1.5" stroke-linecap="round"></path><path d="M9.90625 19.25L11.9688 17.1875" stroke="currentColor" stroke-width="1.5" stroke-linecap="round"></path><path d="M4.75 14.0938L6.8125 12.0312" stroke="currentColor" stroke-width="1.5" stroke-linecap="round"></path><path d="M17.2562 5.78128L15.9453 2.98346C15.8786 2.841 15.7354 2.75 15.5781 2.75C15.4208 2.75 15.2777 2.841 15.2109 2.98346L13.9001 5.78128C13.7016 6.2048 13.361 6.54538 12.9375 6.74381L10.1397 8.05468C9.99725 8.12143 9.90625 8.26455 9.90625 8.42188C9.90625 8.5792 9.99725 8.72232 10.1397 8.78907L12.9375 10.0999C13.361 10.2984 13.7016 10.639 13.9001 11.0625L15.2109 13.8603C15.2777 14.0028 15.4208 14.0938 15.5781 14.0938C15.7354 14.0938 15.8786 14.0028 15.9453 13.8603L17.2562 11.0625C17.4546 10.639 17.7952 10.2984 18.2187 10.0999L21.0165 8.78907C21.159 8.72232 21.25 8.5792 21.25 8.42188C21.25 8.26455 21.159 8.12143 21.0165 8.05468L18.2187 6.74381C17.7952 6.54538 17.4546 6.2048 17.2562 5.78128Z" stroke="currentColor" stroke-width="1.5" stroke-linejoin="round"></path></g></svg>