<svg width="24px" height="24px" viewBox="0 0 24 24" fill="none" xmlns="http://www.w3.org/2000/svg"><g><path d="M18 17L21.25 20.25" stroke="currentColor" stroke-width="1.5" stroke-linecap="round"></path><path d="M3.70728 16.1744L7.91781 11.2622C8.24039 10.8858 8.85506 11.1577 8.79358 11.6496L8.49979 13.9998H10.9127C11.3399 13.9998 11.5703 14.5009 11.2923 14.8252L7.08178 19.7375C6.7592 20.1139 6.14453 19.842 6.20601 19.3501L6.49979 16.9998H4.0869C3.65973 16.9998 3.42927 16.4988 3.70728 16.1744Z" fill="currentColor"></path><path d="M12 19.25C16.5563 19.25 20.25 15.5563 20.25 11C20.25 6.44365 16.5563 2.75 12 2.75C7.44365 2.75 3.75 6.44365 3.75 11" stroke="currentColor" stroke-width="1.5" stroke-linecap="round"></path></g></svg>