<svg width="24px" height="24px" viewBox="0 0 24 24" fill="none" xmlns="http://www.w3.org/2000/svg"><g><path d="M4.25 15.25H17.75C18.8546 15.25 19.75 14.3546 19.75 13.25V5.75C19.75 4.64543 18.8546 3.75 17.75 3.75H5.25C4.69772 3.75 4.25 4.19772 4.25 4.75V20.25" stroke="currentColor" stroke-width="1.5" stroke-linecap="round" stroke-linejoin="round"></path><path d="M9 14.5H7V12.5H9V14.5Z" fill="currentColor"></path><path d="M13 14.5H11V12.5H13V14.5Z" fill="currentColor"></path><path d="M17 14.5H15V12.5H17V14.5Z" fill="currentColor"></path><path d="M7 12.5H5V10.5H7V12.5Z" fill="currentColor"></path><path d="M11 12.5H9V10.5H11V12.5Z" fill="currentColor"></path><path d="M15 12.5H13V10.5H15V12.5Z" fill="currentColor"></path><path d="M19 12.5H17V10.5H19V12.5Z" fill="currentColor"></path><path d="M9 10.5H7V8.5H9V10.5Z" fill="currentColor"></path><path d="M13 10.5H11V8.5H13V10.5Z" fill="currentColor"></path><path d="M17 10.5H15V8.5H17V10.5Z" fill="currentColor"></path><path d="M7 8.5H5V6.5H7V8.5Z" fill="currentColor"></path><path d="M11 8.5H9V6.5H11V8.5Z" fill="currentColor"></path><path d="M15 8.5H13V6.5H15V8.5Z" fill="currentColor"></path><path d="M19 8.5H17V6.5H19V8.5Z" fill="currentColor"></path><path d="M9 6.5H7V4.5H9V6.5Z" fill="currentColor"></path><path d="M13 6.5H11V4.5H13V6.5Z" fill="currentColor"></path><path d="M17 6.5H15V4.5H17V6.5Z" fill="currentColor"></path></g></svg>