<svg width="24px" height="24px" viewBox="0 0 24 24" fill="none" xmlns="http://www.w3.org/2000/svg"><g><path d="M12 12.0003L11.3569 12.3861C11.4924 12.612 11.7365 12.7503 12 12.7503C12.2634 12.7503 12.5076 12.612 12.6431 12.3861L12 12.0003ZM17.25 11.9644H18H17.25ZM12.6431 12.3861L17.4029 4.45328L16.1166 3.68153L11.3569 11.6144L12.6431 12.3861ZM6.59715 4.45325L11.3569 12.3861L12.6431 11.6144L7.88338 3.68151L6.59715 4.45325ZM12 20.5C7.30558 20.5 3.5 16.6944 3.5 12H2C2 17.5228 6.47715 22 12 22V20.5ZM3.5 12C3.5 7.30558 7.30558 3.5 12 3.5V2C6.47715 2 2 6.47715 2 12H3.5ZM12 3.5C16.6944 3.5 20.5 7.30558 20.5 12H22C22 6.47715 17.5228 2 12 2V3.5ZM20.5 12C20.5 16.6944 16.6944 20.5 12 20.5V22C17.5228 22 22 17.5228 22 12H20.5ZM12 16.4644C9.51472 16.4644 7.5 14.4497 7.5 11.9644H6C6 15.2781 8.68629 17.9644 12 17.9644V16.4644ZM16.5 11.9644C16.5 14.4497 14.4853 16.4644 12 16.4644V17.9644C15.3137 17.9644 18 15.2781 18 11.9644H16.5ZM14.315 8.10467C15.6258 8.89282 16.5 10.3269 16.5 11.9644H18C18 9.77898 16.8311 7.86728 15.088 6.81916L14.315 8.10467ZM7.5 11.9644C7.5 10.3269 8.37421 8.89282 9.68497 8.10467L8.91201 6.81916C7.16889 7.86728 6 9.77898 6 11.9644H7.5ZM12 12H10.5C10.5 12.8284 11.1716 13.5 12 13.5V12ZM12 12V10.5C11.1716 10.5 10.5 11.1716 10.5 12H12ZM12 12H13.5C13.5 11.1716 12.8284 10.5 12 10.5V12ZM12 12V13.5C12.8284 13.5 13.5 12.8284 13.5 12H12Z" fill="currentColor"></path></g></svg>