<svg width="24px" height="24px" viewBox="0 0 24 24" fill="none" xmlns="http://www.w3.org/2000/svg"><g><path d="M4 6.74976H19.25C20.3546 6.74976 21.25 7.64519 21.25 8.74976V18.2498C21.25 19.3543 20.3546 20.2498 19.25 20.2498H4.75C3.64543 20.2498 2.75 19.3543 2.75 18.2498V8.14598C2.75 7.30737 3.27318 6.55781 4.06037 6.26864L15 2.25" stroke="currentColor" stroke-width="1.5" stroke-linecap="round" stroke-linejoin="round"></path><path d="M3 11.75H21" stroke="currentColor" stroke-width="1.5" stroke-linecap="round" stroke-linejoin="round"></path><path d="M8.75 7.5V11.5" stroke="currentColor" stroke-width="1.5" stroke-linecap="round" stroke-linejoin="round"></path><path d="M17 16.5C16.7239 16.5 16.5 16.2761 16.5 16C16.5 15.7239 16.7239 15.5 17 15.5C17.2761 15.5 17.5 15.7239 17.5 16C17.5 16.2761 17.2761 16.5 17 16.5Z" fill="currentColor" stroke="currentColor" stroke-width="1.25" stroke-linecap="round" stroke-linejoin="round"></path><path d="M13 16.5C12.7239 16.5 12.5 16.2761 12.5 16C12.5 15.7239 12.7239 15.5 13 15.5C13.2761 15.5 13.5 15.7239 13.5 16C13.5 16.2761 13.2761 16.5 13 16.5Z" fill="currentColor" stroke="currentColor" stroke-width="1.25" stroke-linecap="round" stroke-linejoin="round"></path></g></svg>