<svg width="24px" height="24px" viewBox="0 0 24 24" fill="none" xmlns="http://www.w3.org/2000/svg"><g><path d="M8.75 6.75C8.75 5.64543 7.85457 4.75 6.75 4.75C5.64543 4.75 4.75 5.64543 4.75 6.75V13.5C4.75 17.7802 8.21979 21.25 12.5 21.25C16.7802 21.25 20.25 17.7802 20.25 13.5L20.25 9C20.25 8.44772 19.8023 8 19.25 8C18.2065 8 17.2875 8.53275 16.75 9.3411M8.75 6.75V4.75C8.75 3.64543 9.64543 2.75 10.75 2.75C11.8546 2.75 12.75 3.64543 12.75 4.75V5.75M8.75 6.75V9.75M12.75 5.75C12.75 4.64543 13.6454 3.75 14.75 3.75C15.8546 3.75 16.75 4.64543 16.75 5.75V9.3411M12.75 5.75V8.75M13.75 15C13.75 14.0694 14.2383 13.207 15.0362 12.7283L15.3925 12.5145C15.9245 12.1953 16.25 11.6204 16.25 11C16.25 10.3866 16.4341 9.81626 16.75 9.3411" stroke="currentColor" stroke-width="1.5" stroke-linecap="round" stroke-linejoin="round"></path></g></svg>