<svg width="24px" height="24px" viewBox="0 0 24 24" fill="none" xmlns="http://www.w3.org/2000/svg"><g><path d="M22.25 12C22.25 14.3472 20.3472 16.25 18 16.25C15.6528 16.25 13.75 14.3472 13.75 12C13.75 9.65279 15.6528 7.75 18 7.75C20.3472 7.75 22.25 9.65279 22.25 12Z" stroke="currentColor" stroke-width="1.5" stroke-linecap="round" stroke-linejoin="round"></path><path d="M6 16.25C8.34721 16.25 10.25 14.3472 10.25 12C10.25 9.65279 8.34721 7.75 6 7.75C3.65279 7.75 1.75 9.65279 1.75 12C1.75 14.3472 3.65279 16.25 6 16.25Z" stroke="currentColor" stroke-width="1.5" stroke-linecap="round" stroke-linejoin="round"></path><path d="M0.75 9.75H2" stroke="currentColor" stroke-width="1.5" stroke-linecap="round" stroke-linejoin="round"></path><path d="M22 9.75H23.25" stroke="currentColor" stroke-width="1.5" stroke-linecap="round" stroke-linejoin="round"></path><path d="M14.0599 9.28239C13.4494 8.94319 12.7466 8.75 11.9987 8.75C11.2508 8.75 10.548 8.94319 9.9375 9.28239" stroke="currentColor" stroke-width="1.5" stroke-linecap="round" stroke-linejoin="round"></path></g></svg>