<svg width="24px" height="24px" viewBox="0 0 24 24" fill="none" xmlns="http://www.w3.org/2000/svg"><g><path d="M19.2618 3.75V7.75H15.2618M4.75 20.25V16.25H8.75M3.75 12C3.75 7.44365 7.44365 3.75 12 3.75C14.7778 3.75 17.2948 5.12281 18.8007 7.22697M20.25 12C20.25 16.5563 16.5563 20.25 12 20.25C9.24348 20.25 6.74367 18.8981 5.23402 16.8212M12 12V11.99M12.25 12C12.25 12.1381 12.1381 12.25 12 12.25C11.8619 12.25 11.75 12.1381 11.75 12C11.75 11.8619 11.8619 11.75 12 11.75C12.1381 11.75 12.25 11.8619 12.25 12Z" stroke="currentColor" stroke-width="1.5" stroke-linecap="round" stroke-linejoin="round"></path></g></svg>