<svg width="24px" height="24px" viewBox="0 0 24 24" fill="none" xmlns="http://www.w3.org/2000/svg"><g><path d="M19.25 21.25L18.7574 21.8156C18.9791 22.0086 19.2931 22.0544 19.5607 21.9326C19.8283 21.8108 20 21.544 20 21.25H19.25ZM16.6667 19L17.1593 18.4344C16.866 18.179 16.426 18.1901 16.1461 18.4601L16.6667 19ZM14.3333 21.25L13.8127 21.7899C14.1033 22.07 14.5634 22.07 14.8539 21.7899L14.3333 21.25ZM12 19L12.5206 18.4601C12.2301 18.18 11.7699 18.18 11.4794 18.4601L12 19ZM9.66667 21.25L9.14606 21.7899C9.4366 22.07 9.89674 22.07 10.1873 21.7899L9.66667 21.25ZM7.33333 19L7.85394 18.4601C7.57396 18.1901 7.13404 18.179 6.84075 18.4344L7.33333 19ZM4.75 21.25H4C4 21.544 4.17175 21.8108 4.43931 21.9326C4.70687 22.0544 5.02091 22.0086 5.24259 21.8156L4.75 21.25ZM15.792 8.28033C16.0849 7.98744 16.0849 7.51256 15.792 7.21967C15.4992 6.92678 15.0243 6.92678 14.7314 7.21967L15.792 8.28033ZM8.23139 13.7197C7.9385 14.0126 7.9385 14.4874 8.23139 14.7803C8.52428 15.0732 8.99916 15.0732 9.29205 14.7803L8.23139 13.7197ZM6.75 3.5H17.25V2H6.75V3.5ZM18.5 4.75V21.25H20V4.75H18.5ZM19.7426 20.6844L17.1593 18.4344L16.1741 19.5656L18.7574 21.8156L19.7426 20.6844ZM16.1461 18.4601L13.8127 20.7101L14.8539 21.7899L17.1873 19.5399L16.1461 18.4601ZM14.8539 20.7101L12.5206 18.4601L11.4794 19.5399L13.8127 21.7899L14.8539 20.7101ZM11.4794 18.4601L9.14606 20.7101L10.1873 21.7899L12.5206 19.5399L11.4794 18.4601ZM10.1873 20.7101L7.85394 18.4601L6.81273 19.5399L9.14606 21.7899L10.1873 20.7101ZM6.84075 18.4344L4.25741 20.6844L5.24259 21.8156L7.82592 19.5656L6.84075 18.4344ZM5.5 21.25V4.75H4V21.25H5.5ZM17.25 3.5C17.9404 3.5 18.5 4.05964 18.5 4.75H20C20 3.23122 18.7688 2 17.25 2V3.5ZM6.75 2C5.23122 2 4 3.23122 4 4.75H5.5C5.5 4.05964 6.05964 3.5 6.75 3.5V2ZM14.7314 7.21967L8.23139 13.7197L9.29205 14.7803L15.792 8.28033L14.7314 7.21967Z" fill="currentColor"></path><path d="M9 8V7.99M9.25 8C9.25 8.13807 9.13807 8.25 9 8.25C8.86193 8.25 8.75 8.13807 8.75 8C8.75 7.86193 8.86193 7.75 9 7.75C9.13807 7.75 9.25 7.86193 9.25 8Z" stroke="currentColor" stroke-width="1.5" stroke-linecap="round"></path><path d="M15 14V13.99M15.25 14C15.25 14.1381 15.1381 14.25 15 14.25C14.8619 14.25 14.75 14.1381 14.75 14C14.75 13.8619 14.8619 13.75 15 13.75C15.1381 13.75 15.25 13.8619 15.25 14Z" stroke="currentColor" stroke-width="1.5" stroke-linecap="round"></path></g></svg>