<svg width="24px" height="24px" viewBox="0 0 24 24" fill="none" xmlns="http://www.w3.org/2000/svg"><g><path d="M9.75 13.75H14.25M10 9.15003L11.2 10.35L14 7.55003M4.75 4.75V19.9031C4.75 20.2837 5.1583 20.5247 5.49154 20.3409L7.92254 18.9996C8.20635 18.843 8.54846 18.8337 8.84037 18.9747L11.5653 20.2901C11.8399 20.4227 12.1601 20.4227 12.4347 20.2901L15.1596 18.9747C15.4515 18.8337 15.7936 18.843 16.0775 18.9996L18.5085 20.3409C18.8417 20.5247 19.25 20.2837 19.25 19.9031V4.75C19.25 3.64543 18.3546 2.75 17.25 2.75H6.75C5.64543 2.75 4.75 3.64543 4.75 4.75Z" stroke="currentColor" stroke-width="1.5" stroke-linecap="round" stroke-linejoin="round"></path></g></svg>