<svg width="24px" height="24px" viewBox="0 0 24 24" fill="none" xmlns="http://www.w3.org/2000/svg"><g><path d="M3.25 12C3.25 12.2518 3.26064 12.5012 3.28149 12.7476C3.54145 15.8198 5.38868 18.4397 8 19.7843M19.1816 7C17.6005 4.73314 14.9734 3.25 12 3.25C8.81314 3.25 6.02419 4.95371 4.49429 7.5" stroke="currentColor" stroke-width="1.5" stroke-linecap="round" stroke-linejoin="round"></path><path d="M3.75 3.75V8.25H8.25" stroke="currentColor" stroke-width="1.5" stroke-linecap="round" stroke-linejoin="round"></path><path d="M14.0043 15.75C15.2445 15.75 16.25 16.7555 16.25 17.9957C16.25 20.5127 13.4964 20.2415 11.7585 20.2415C11.7585 18.5036 11.4873 15.75 14.0043 15.75Z" stroke="currentColor" stroke-width="1.5" stroke-linecap="round" stroke-linejoin="round"></path><path d="M14.3184 15.3093C15.8116 13.3022 17.132 12.0582 19.3098 10.9194C19.8139 10.6558 20.4279 10.7678 20.8302 11.17C21.2325 11.5723 21.3445 12.1863 21.0808 12.6905C19.9457 14.8613 18.7059 16.1802 16.71 17.6676" stroke="currentColor" stroke-width="1.5" stroke-linecap="round" stroke-linejoin="round"></path></g></svg>