<svg width="24px" height="24px" viewBox="0 0 24 24" fill="none" xmlns="http://www.w3.org/2000/svg"><g><path d="M21.25 12C21.25 17.1086 17.1086 21.25 12 21.25C6.89137 21.25 2.75 17.1086 2.75 12C2.75 6.89137 6.89137 2.75 12 2.75C17.1086 2.75 21.25 6.89137 21.25 12Z" stroke="currentColor" stroke-width="1.5"></path><path d="M16.25 12C16.25 14.3472 14.3472 16.25 12 16.25C9.65279 16.25 7.75 14.3472 7.75 12C7.75 9.65279 9.65279 7.75 12 7.75C14.3472 7.75 16.25 9.65279 16.25 12Z" stroke="currentColor" stroke-width="1.5"></path><path d="M18.5013 5.5L14.8672 9.13411" stroke="currentColor" stroke-width="1.5"></path><path d="M9.1289 14.8711L5.5 18.5" stroke="currentColor" stroke-width="1.5"></path><path d="M5.5 5.5L9.1289 9.1289" stroke="currentColor" stroke-width="1.5"></path><path d="M14.8672 14.866L18.5013 18.5001" stroke="currentColor" stroke-width="1.5"></path></g></svg>