<svg width="24px" height="24px" viewBox="0 0 24 24" fill="none" xmlns="http://www.w3.org/2000/svg"><g><path d="M17.9847 1.4329C17.9568 1.18651 17.7485 1.00025 17.5005 1C17.2525 0.999747 17.0438 1.18557 17.0154 1.43191C16.838 2.96993 15.9699 3.83801 14.4319 4.01541C14.1856 4.04382 13.9997 4.25253 14 4.5005C14.0003 4.74847 14.1865 4.9568 14.4329 4.9847C15.9491 5.15645 16.8774 6.01617 17.0141 7.55536C17.0365 7.80725 17.2477 8.00028 17.5005 8C17.7534 7.99971 17.9642 7.80621 17.986 7.55426C18.1173 6.03683 19.0368 5.11734 20.5543 4.98599C20.8062 4.96418 20.9997 4.75344 21 4.50055C21.0003 4.24766 20.8073 4.03648 20.5554 4.01411C19.0162 3.87738 18.1564 2.94911 17.9847 1.4329Z" fill="currentColor"></path><path d="M15.6667 10.75H8.33333C7.45888 10.75 6.75 11.4589 6.75 12.3333V15C6.75 17.8995 9.10051 20.25 12 20.25C14.8995 20.25 17.25 17.8995 17.25 15V12.3333C17.25 11.4589 16.5411 10.75 15.6667 10.75Z" stroke="currentColor" stroke-width="1.5" stroke-linecap="round" stroke-linejoin="round"></path><path d="M2.75 20.2496V11.9996C2.75 7.14226 6.49398 3.15936 11.2536 2.7793M21.25 20.2496V11.9996C21.25 10.855 21.0421 9.759 20.662 8.74722" stroke="currentColor" stroke-width="1.5" stroke-linecap="round"></path></g></svg>