<svg width="24px" height="24px" viewBox="0 0 24 24" fill="none" xmlns="http://www.w3.org/2000/svg"><g><path d="M3.75 5.75C3.75 4.64543 4.64543 3.75 5.75 3.75H18.25C19.3546 3.75 20.25 4.64543 20.25 5.75V18.25C20.25 19.3546 19.3546 20.25 18.25 20.25H5.75C4.64543 20.25 3.75 19.3546 3.75 18.25V5.75Z" stroke="currentColor" stroke-width="1.5" stroke-linejoin="round"></path><path d="M11.784 7.8709C11.8804 7.70533 12.1196 7.70533 12.216 7.8709L13.3993 9.90249C13.4346 9.96314 13.4938 10.0061 13.5624 10.021L15.8603 10.5186C16.0475 10.5591 16.1214 10.7866 15.9938 10.9295L14.4273 12.6827C14.3805 12.735 14.3579 12.8046 14.365 12.8744L14.6018 15.2135C14.6211 15.4042 14.4276 15.5448 14.2523 15.4675L12.1008 14.5194C12.0366 14.4911 11.9634 14.4911 11.8992 14.5194L9.74774 15.4675C9.57241 15.5448 9.3789 15.4042 9.3982 15.2135L9.63504 12.8744C9.64211 12.8046 9.6195 12.735 9.57273 12.6827L8.00623 10.9295C7.87857 10.7866 7.95248 10.5591 8.13975 10.5186L10.4376 10.021C10.5062 10.0061 10.5654 9.96314 10.6007 9.90249L11.784 7.8709Z" stroke="currentColor" stroke-width="1.5" stroke-linejoin="round"></path></g></svg>