<svg width="24px" height="24px" viewBox="0 0 24 24" fill="none" xmlns="http://www.w3.org/2000/svg"><g><path d="M9.75 13.0757V14.2502H10.9245C11.4137 14.2502 11.6583 14.2502 11.8885 14.1949C12.0925 14.1459 12.2876 14.0651 12.4666 13.9555C12.6684 13.8318 12.8414 13.6588 13.1873 13.3129L19.75 6.75019C20.4404 6.05983 20.4404 4.94054 19.75 4.25019C19.0596 3.55983 17.9404 3.55983 17.25 4.25019L10.6873 10.8129C10.3414 11.1588 10.1684 11.3318 10.0447 11.5336C9.93506 11.7126 9.85425 11.9077 9.80526 12.1117C9.75 12.3419 9.75 12.5865 9.75 13.0757Z" stroke="currentColor" stroke-width="1.5" stroke-linecap="round" stroke-linejoin="round"></path><path d="M16.5 5.5L18.5 7.5" stroke="currentColor" stroke-width="1.5" stroke-linecap="round" stroke-linejoin="round"></path><path d="M8.5 4.75H5.95C4.8299 4.75 4.26984 4.75 3.84202 4.96799C3.46569 5.15973 3.15973 5.46569 2.96799 5.84202C2.75 6.26984 2.75 6.8299 2.75 7.95V16.05C2.75 17.1701 2.75 17.7302 2.96799 18.158C3.15973 18.5343 3.46569 18.8403 3.84202 19.032C4.26984 19.25 4.8299 19.25 5.95 19.25H9.25" stroke="currentColor" stroke-width="1.5" stroke-linecap="round" stroke-linejoin="round"></path><path d="M14.75 19.2502H18.05C19.1701 19.2502 19.7302 19.2502 20.158 19.0322C20.5343 18.8405 20.8403 18.5345 21.032 18.1582C21.25 17.7304 21.25 17.1703 21.25 16.0502V11.7002" stroke="currentColor" stroke-width="1.5" stroke-linecap="round" stroke-linejoin="round"></path><path d="M8.25 3L10 4.75L8.25 6.5" stroke="currentColor" stroke-width="1.5" stroke-linecap="round" stroke-linejoin="round"></path><path d="M15.75 17.5L14 19.25L15.75 21" stroke="currentColor" stroke-width="1.5" stroke-linecap="round" stroke-linejoin="round"></path></g></svg>