<svg width="24px" height="24px" viewBox="0 0 24 24" fill="none" xmlns="http://www.w3.org/2000/svg"><g><path d="M7.34848 4.75H5.95C4.8299 4.75 4.26984 4.75 3.84202 4.96799C3.46569 5.15973 3.15973 5.46569 2.96799 5.84202C2.75 6.26984 2.75 6.8299 2.75 7.95V16.05C2.75 17.1701 2.75 17.7302 2.96799 18.158C3.15973 18.5343 3.46569 18.8403 3.84202 19.032C4.26984 19.25 4.8299 19.25 5.95 19.25H11.25" stroke="currentColor" stroke-width="1.5" stroke-linecap="round" stroke-linejoin="round"></path><path d="M16.5 19.25H18.05C19.1701 19.25 19.7302 19.25 20.158 19.032C20.5343 18.8403 20.8403 18.5343 21.032 18.158C21.25 17.7302 21.25 17.1701 21.25 16.05V7.95C21.25 6.8299 21.25 6.26984 21.032 5.84202C20.8403 5.46569 20.5343 5.15973 20.158 4.96799C19.7302 4.75 19.1701 4.75 18.05 4.75H12.75" stroke="currentColor" stroke-width="1.5" stroke-linecap="round" stroke-linejoin="round"></path><path d="M8.75 10H15.25" stroke="currentColor" stroke-width="1.5" stroke-linecap="round" stroke-linejoin="round"></path><path d="M8.75 14H13.25" stroke="currentColor" stroke-width="1.5" stroke-linecap="round" stroke-linejoin="round"></path><path d="M6.75 3L8.5 4.75L6.75 6.5" stroke="currentColor" stroke-width="1.5" stroke-linecap="round" stroke-linejoin="round"></path><path d="M17.25 17.5L15.5 19.25L17.25 21" stroke="currentColor" stroke-width="1.5" stroke-linecap="round" stroke-linejoin="round"></path></g></svg>