<svg width="24px" height="24px" viewBox="0 0 24 24" fill="none" xmlns="http://www.w3.org/2000/svg"><g><path d="M11.75 20.2499L12.1605 17.171C12.2186 16.7357 12.4182 16.3316 12.7288 16.0211L17.4952 11.2547C18.4418 10.3081 19.9939 10.3677 20.865 11.3841C21.6465 12.2958 21.5943 13.6555 20.7452 14.5047L15.9788 19.2711C15.6682 19.5816 15.2642 19.7813 14.8289 19.8393L11.75 20.2499Z" stroke="currentColor" stroke-width="1.5" stroke-linecap="round" stroke-linejoin="round"></path><path d="M17 12.5L19.5 15" stroke="currentColor" stroke-width="1.5" stroke-linecap="round" stroke-linejoin="round"></path><path d="M3.25 12C3.25 12.2518 3.26064 12.5012 3.28149 12.7476C3.54145 15.8198 5.38868 18.4397 8 19.7843M19.1816 7C17.6005 4.73314 14.9734 3.25 12 3.25C8.81314 3.25 6.02419 4.95371 4.49429 7.5" stroke="currentColor" stroke-width="1.5" stroke-linecap="round" stroke-linejoin="round"></path><path d="M3.75 3.75V8.25H8.25" stroke="currentColor" stroke-width="1.5" stroke-linecap="round" stroke-linejoin="round"></path></g></svg>