<svg width="24px" height="24px" viewBox="0 0 24 24" fill="none" xmlns="http://www.w3.org/2000/svg"><g><path d="M12 2.75V4.75M3 8.75C2.58579 8.75 2.25 9.08579 2.25 9.5V10.5C2.25 10.9142 2.58579 11.25 3 11.25M21 11.25C21.4142 11.25 21.75 10.9142 21.75 10.5V9.5C21.75 9.08579 21.4142 8.75 21 8.75M9.75 14.5H14.25M9.25 10C9.25 10.4142 8.91421 10.75 8.5 10.75C8.08579 10.75 7.75 10.4142 7.75 10C7.75 9.58579 8.08579 9.25 8.5 9.25C8.91421 9.25 9.25 9.58579 9.25 10ZM16.25 10C16.25 10.4142 15.9142 10.75 15.5 10.75C15.0858 10.75 14.75 10.4142 14.75 10C14.75 9.58579 15.0858 9.25 15.5 9.25C15.9142 9.25 16.25 9.58579 16.25 10ZM20.75 16.25V6.75C20.75 5.64543 19.8546 4.75 18.75 4.75H5.25C4.14543 4.75 3.25 5.64543 3.25 6.75V16.25C3.25 17.9069 4.59315 19.25 6.25 19.25H17.75C19.4069 19.25 20.75 17.9069 20.75 16.25Z" stroke="currentColor" stroke-width="1.5" stroke-linecap="round" stroke-linejoin="round"></path></g></svg>