<svg width="24px" height="24px" viewBox="0 0 24 24" fill="none" xmlns="http://www.w3.org/2000/svg"><g><path d="M9.5 16.25H8.25C6.04086 16.25 4.25 14.4591 4.25 12.25V5.75C4.25 4.64543 5.14543 3.75 6.25 3.75H17.75C18.8546 3.75 19.75 4.64543 19.75 5.75V12.25C19.75 14.4591 17.9591 16.25 15.75 16.25H14.5" stroke="currentColor" stroke-width="1.5" stroke-linecap="round" stroke-linejoin="round"></path><circle cx="9.25" cy="8.25" r="1.5" fill="currentColor"></circle><circle cx="14.75" cy="8.25" r="1.5" fill="currentColor"></circle><path d="M12 3.5V2.75" stroke="currentColor" stroke-width="1.5" stroke-linecap="round" stroke-linejoin="round"></path><path d="M4.25 6.5C3.69772 6.5 3.25 6.94772 3.25 7.5V8.65817C3.25 9.21046 3.69772 9.65817 4.25 9.65817" stroke="currentColor" stroke-width="1.5" stroke-linecap="round" stroke-linejoin="round"></path><path d="M19.75 6.5C20.3023 6.5 20.75 6.94772 20.75 7.5V8.5C20.75 9.05228 20.3023 9.5 19.75 9.5" stroke="currentColor" stroke-width="1.5" stroke-linecap="round" stroke-linejoin="round"></path><path d="M13.5 12.5L14.4425 18.0875C14.4667 18.2783 14.6165 18.4294 14.8083 18.4644C16.2759 18.7321 17.25 19.2036 17.25 19.7403C17.25 20.5741 14.8995 21.25 12 21.25C9.10051 21.25 6.75 20.5741 6.75 19.7403C6.75 19.2037 7.72368 18.7322 9.19077 18.4644C9.38255 18.4294 9.5323 18.2783 9.55652 18.0875L10.5 12.5" stroke="currentColor" stroke-width="1.5" stroke-linecap="round"></path><path d="M9.1001 12.5C11.1005 11.8333 12.8997 11.8333 14.9001 12.5" stroke="currentColor" stroke-width="1.5" stroke-linecap="round" stroke-linejoin="round"></path><path d="M4.95003 19.7851C4.65188 20.212 3.05646 19.912 2.54004 19.6656C2.02362 19.4191 1.84668 18.8733 2.14484 18.4464C2.44299 18.0195 3.10334 17.8733 3.61976 18.1197C4.13619 18.3662 5.24819 19.3583 4.95003 19.7851Z" fill="currentColor"></path><path d="M19.05 19.7851C19.3481 20.212 20.9435 19.912 21.46 19.6656C21.9764 19.4191 22.1533 18.8733 21.8552 18.4464C21.557 18.0195 20.8967 17.8733 20.3802 18.1197C19.8638 18.3662 18.7518 19.3583 19.05 19.7851Z" fill="currentColor"></path></g></svg>