<svg width="24px" height="24px" viewBox="0 0 24 24" fill="none" xmlns="http://www.w3.org/2000/svg"><g><path d="M3.75 13.016C3.75 10.9516 3.75 9.91947 4.16733 9.07897C4.52046 8.3678 5.14979 7.71632 5.84834 7.33883C6.67391 6.8927 7.6385 6.85934 9.56767 6.79263C11.2113 6.73579 12.7887 6.73579 14.4323 6.79263C16.3615 6.85934 17.3261 6.8927 18.1517 7.33883C18.8502 7.71632 19.4795 8.3678 19.8327 9.07897C20.25 9.91947 20.25 10.9516 20.25 13.016V13.984C20.25 16.0484 20.25 17.0805 19.8327 17.921C19.4795 18.6322 18.8502 19.2837 18.1517 19.6612C17.3261 20.1073 16.3615 20.1407 14.4323 20.2074C12.7887 20.2642 11.2113 20.2642 9.56767 20.2074C7.6385 20.1407 6.67391 20.1073 5.84834 19.6612C5.14979 19.2837 4.52046 18.6322 4.16733 17.921C3.75 17.0805 3.75 16.0484 3.75 13.984V13.016Z" stroke="currentColor" stroke-width="1.5" stroke-linecap="round" stroke-linejoin="round"></path><circle cx="12" cy="3.5" r="1.5" fill="currentColor"></circle><path d="M9.5 13.125V11.375C9.5 11.1679 9.33211 11 9.125 11C8.91789 11 8.75 11.1679 8.75 11.375V13.125C8.75 13.3321 8.91789 13.5 9.125 13.5C9.33211 13.5 9.5 13.3321 9.5 13.125Z" stroke="currentColor" stroke-width="1.5" stroke-linecap="round" stroke-linejoin="round"></path><path d="M15.25 13.125V11.375C15.25 11.1679 15.0821 11 14.875 11C14.6679 11 14.5 11.1679 14.5 11.375V13.125C14.5 13.3321 14.6679 13.5 14.875 13.5C15.0821 13.5 15.25 13.3321 15.25 13.125Z" stroke="currentColor" stroke-width="1.5" stroke-linecap="round" stroke-linejoin="round"></path><path d="M3.5 10.75C3.08579 10.75 2.75 11.0858 2.75 11.5V13.5C2.75 13.9142 3.08579 14.25 3.5 14.25" stroke="currentColor" stroke-width="1.5" stroke-linecap="round" stroke-linejoin="round"></path><path d="M20.5 10.75C20.9142 10.75 21.25 11.0858 21.25 11.5V13.5C21.25 13.9142 20.9142 14.25 20.5 14.25" stroke="currentColor" stroke-width="1.5" stroke-linecap="round" stroke-linejoin="round"></path><path d="M12 6.5V3" stroke="currentColor" stroke-width="1.2" stroke-linecap="round" stroke-linejoin="round"></path></g></svg>