<svg width="24px" height="24px" viewBox="0 0 24 24" fill="none" xmlns="http://www.w3.org/2000/svg"><g><path d="M2.75 11.0145C2.75 8.96316 2.75 7.9375 3.16718 7.09713C3.52022 6.38596 4.14918 5.73468 4.84762 5.35707C5.67294 4.91085 6.63812 4.87719 8.56849 4.80988C10.8577 4.73004 13.1423 4.73004 15.4315 4.80988C17.3619 4.87719 18.3271 4.91085 19.1524 5.35707C19.8508 5.73468 20.4798 6.38596 20.8328 7.09713C21.25 7.9375 21.25 8.96316 21.25 11.0145V12.9855C21.25 15.0368 21.25 16.0625 20.8328 16.9029C20.4798 17.614 19.8508 18.2653 19.1524 18.6429C18.3271 19.0891 17.3619 19.1228 15.4315 19.1901C13.1423 19.27 10.8577 19.27 8.56849 19.1901C6.63812 19.1228 5.67294 19.0891 4.84762 18.6429C4.14918 18.2653 3.52022 17.614 3.16718 16.9029C2.75 16.0625 2.75 15.0368 2.75 12.9855V11.0145Z" stroke="currentColor" stroke-width="1.5"></path><path d="M9.75 11.75V10.25C9.75 9.97386 9.52614 9.75 9.25 9.75C8.97386 9.75 8.75 9.97386 8.75 10.25V11.75C8.75 12.0261 8.97386 12.25 9.25 12.25C9.52614 12.25 9.75 12.0261 9.75 11.75Z" stroke="currentColor" stroke-width="1.5"></path><path d="M15.25 11.75V10.25C15.25 9.97386 15.0261 9.75 14.75 9.75C14.4739 9.75 14.25 9.97386 14.25 10.25V11.75C14.25 12.0261 14.4739 12.25 14.75 12.25C15.0261 12.25 15.25 12.0261 15.25 11.75Z" stroke="currentColor" stroke-width="1.5"></path><path d="M21.5 9.75C21.7761 9.75 22 9.97386 22 10.25V12.75C22 13.0261 21.7761 13.25 21.5 13.25" stroke="currentColor" stroke-width="1.5" stroke-linecap="round" stroke-linejoin="round"></path><path d="M2.5 9.75C2.22386 9.75 2 9.97386 2 10.25V12.75C2 13.0261 2.22386 13.25 2.5 13.25" stroke="currentColor" stroke-width="1.5" stroke-linecap="round" stroke-linejoin="round"></path><path d="M12 4.75V2.75" stroke="currentColor" stroke-width="1.5" stroke-linecap="round"></path></g></svg>