<svg width="24px" height="24px" viewBox="0 0 24 24" fill="none" xmlns="http://www.w3.org/2000/svg"><g><path d="M2.75 12.25C2.75 10.5931 4.09315 9.25 5.75 9.25H11.9932C13.9021 4.25604 14.8022 2.88144 18.4214 2.75924C18.778 2.7472 19.1101 2.94015 19.2889 3.24896L21.3597 6.82589C21.5892 7.22227 21.5201 7.72388 21.1919 8.0434L20.713 8.50975C20.4109 8.8039 19.9567 8.87696 19.5776 8.69239L18.1554 8L17 10L19.5 19" stroke="currentColor" stroke-width="1.5" stroke-linecap="round" stroke-linejoin="round"></path><path d="M7 9.5L4.5 19" stroke="currentColor" stroke-width="1.5" stroke-linecap="round" stroke-linejoin="round"></path><path d="M7.5 20L9.72854 15.3201C9.89437 14.9718 10.2457 14.75 10.6314 14.75H13.3686C13.7543 14.75 14.1056 14.9718 14.2715 15.3201L16.5 20" stroke="currentColor" stroke-width="1.5" stroke-linecap="round" stroke-linejoin="round"></path><path d="M2.75 18C8.88423 22.3333 15.1158 22.3333 21.25 18" stroke="currentColor" stroke-width="1.5" stroke-linecap="round" stroke-linejoin="round"></path></g></svg>