<svg width="24px" height="24px" viewBox="0 0 24 24" fill="none" xmlns="http://www.w3.org/2000/svg"><g><path d="M2.75 20.25C2.75 20.8023 3.19771 21.25 3.75 21.25H4.80556C5.94081 21.25 6.86111 20.3297 6.86111 19.1945C6.86111 18.0592 5.94081 17.1389 4.80556 17.1389C3.6703 17.1389 2.75 18.0592 2.75 19.1945V20.25Z" stroke="currentColor" stroke-width="1.5" stroke-linejoin="round"></path><path d="M6.4469 13.25H4.93454C4.17548 13.25 3.69317 12.4375 4.05665 11.7711L5.68148 8.7923C6.03194 8.14977 6.70538 7.75 7.43727 7.75H10.7893C11.0696 7.75 11.3364 7.63145 11.5293 7.42807C14.039 4.78199 16.7697 3.06408 20.2504 2.78892C20.801 2.7454 21.2546 3.199 21.2111 3.74957C20.9359 7.23025 19.218 9.961 16.5719 12.4707C16.3685 12.6636 16.25 12.9304 16.25 13.2107V16.5627C16.25 17.2946 15.8502 17.9681 15.2077 18.3185L12.2289 19.9434C11.5625 20.3068 10.75 19.8245 10.75 19.0655V17.5531C10.75 17.2879 10.6446 17.0335 10.4571 16.846L7.154 13.5429C6.96647 13.3554 6.71211 13.25 6.4469 13.25Z" stroke="currentColor" stroke-width="1.5" stroke-linejoin="round"></path><path d="M6.85938 13.25L11.2274 7.75" stroke="currentColor" stroke-width="1.5" stroke-linejoin="round"></path><path d="M16.25 12.7709L10.75 17.1389" stroke="currentColor" stroke-width="1.5" stroke-linejoin="round"></path></g></svg>