<svg width="24px" height="24px" viewBox="0 0 24 24" fill="none" xmlns="http://www.w3.org/2000/svg"><g><path d="M12 9.57121C14.1966 12.0743 14.0714 15.0987 14.0714 18.2083M12 9.57121C13.4427 7.92726 15.2592 7.15757 17.2557 6.87906C18.3496 6.72645 19.25 7.64545 19.25 8.75002V11.9583C19.25 15.9854 16.0041 19.25 12 19.25C7.99594 19.25 4.75 15.9854 4.75 11.9583V8.75001C4.75 7.64545 5.65036 6.72645 6.74433 6.87906C8.74082 7.15757 10.5573 7.92726 12 9.57121Z" stroke="currentColor" stroke-width="1.5" stroke-linecap="round" stroke-linejoin="round"></path><path d="M12 19.25V21.25" stroke="currentColor" stroke-width="1.5" stroke-linecap="round" stroke-linejoin="round"></path><path d="M7.75 6.93779C8.70063 5.19822 9.80185 3.49256 11.523 2.83757C11.8299 2.72081 12.1701 2.72081 12.477 2.83757C14.1982 3.49256 15.2994 5.19822 16.25 6.93779" stroke="currentColor" stroke-width="1.5" stroke-linecap="round" stroke-linejoin="round"></path></g></svg>