<svg width="24px" height="24px" viewBox="0 0 24 24" fill="none" xmlns="http://www.w3.org/2000/svg"><g><path d="M3.5 12H6.25M20.5 12H17.75M12 20.5V17.75M5.98959 18.0104L7.93413 16.0659M18.0104 5.98959L16.0659 7.93414M18.0104 18.0104L16.0659 16.0659M5.98959 5.98959L7.93413 7.93414M8.80655 3.3022L12 6.25L15.1934 3.3022M8.80655 3.3022L8.75 3.25C8.75 2.42157 9.42157 1.75 10.25 1.75H13.75C14.5784 1.75 15.25 2.42157 15.25 3.25L15.1934 3.3022M8.80655 3.3022C5.27151 4.6036 2.75 8.00354 2.75 11.9929C2.75 17.1054 6.89137 21.25 12 21.25C17.1086 21.25 21.25 17.1054 21.25 11.9929C21.25 8.00354 18.7285 4.6036 15.1934 3.3022M14.25 12C14.25 13.2426 13.2426 14.25 12 14.25C10.7574 14.25 9.75 13.2426 9.75 12C9.75 10.7574 10.7574 9.75 12 9.75C13.2426 9.75 14.25 10.7574 14.25 12Z" stroke="currentColor" stroke-width="1.5" stroke-linecap="round" stroke-linejoin="round"></path></g></svg>