<svg width="24px" height="24px" viewBox="0 0 24 24" fill="none" xmlns="http://www.w3.org/2000/svg"><g><path d="M12 3.26389V4.25M12 20.7361V19.75M3.2639 12H4.25M20.7361 12H19.75M7.63194 4.43431L8.14582 5.32439M16.368 19.5657L15.8542 18.6756M4.43431 16.3681L5.32439 15.8542M19.5657 7.63194L18.6756 8.14583M4.43431 7.63196L5.32439 8.14585M19.5657 16.3681L18.6756 15.8542M7.63195 19.5657L8.14584 18.6756M16.3681 4.43432L15.8542 5.3244M9.43056 8.91667C9.43056 9.20048 9.20048 9.43056 8.91667 9.43056C8.63285 9.43056 8.40278 9.20048 8.40278 8.91667M9.43056 8.91667C9.43056 8.63285 9.20048 8.40278 8.91667 8.40278C8.63285 8.40278 8.40278 8.63285 8.40278 8.91667M9.43056 8.91667H8.40278M9.43056 15.0833C9.43056 15.3671 9.20048 15.5972 8.91667 15.5972C8.63285 15.5972 8.40278 15.3671 8.40278 15.0833M9.43056 15.0833C9.43056 14.7995 9.20048 14.5694 8.91667 14.5694C8.63285 14.5694 8.40278 14.7995 8.40278 15.0833M9.43056 15.0833H8.40278M15.5972 8.91667C15.5972 9.20048 15.3671 9.43056 15.0833 9.43056C14.7995 9.43056 14.5694 9.20048 14.5694 8.91667M15.5972 8.91667C15.5972 8.63285 15.3671 8.40278 15.0833 8.40278C14.7995 8.40278 14.5694 8.63285 14.5694 8.91667M15.5972 8.91667H14.5694M15.5972 15.0833C15.5972 15.3671 15.3671 15.5972 15.0833 15.5972C14.7995 15.5972 14.5694 15.3671 14.5694 15.0833M15.5972 15.0833C15.5972 14.7995 15.3671 14.5694 15.0833 14.5694C14.7995 14.5694 14.5694 14.7995 14.5694 15.0833M15.5972 15.0833H14.5694M10.5465 10.5465L10 10M13.4535 10.5465L14 10M13.4535 13.4535L14 14M10.5465 13.4535L10 14M21.25 12C21.25 17.1086 17.1086 21.25 12 21.25C6.89137 21.25 2.75 17.1086 2.75 12C2.75 6.89137 6.89137 2.75 12 2.75C17.1086 2.75 21.25 6.89137 21.25 12ZM13.5417 12C13.5417 12.8514 12.8514 13.5417 12 13.5417C11.1486 13.5417 10.4583 12.8514 10.4583 12C10.4583 11.1486 11.1486 10.4583 12 10.4583C12.8514 10.4583 13.5417 11.1486 13.5417 12Z" stroke="currentColor" stroke-width="1.5" stroke-linecap="round" stroke-linejoin="round"></path></g></svg>