<svg width="24px" height="24px" viewBox="0 0 24 24" fill="none" xmlns="http://www.w3.org/2000/svg"><g><path d="M17.1026 7.00724L18.5413 6.65383C19.2516 6.47933 19.7842 5.88992 19.886 5.16556C20.0235 4.18721 19.3418 3.28264 18.3635 3.14514L16.9551 2.9472C15.9767 2.8097 15.0721 3.49135 14.9346 4.4697C14.8328 5.19406 15.1823 5.90742 15.817 6.27096L17.1026 7.00724ZM17.1026 7.00724L16.3977 12.0227M5.75907 7.30051L5.34309 7.35898C4.76623 7.44005 4.38049 7.99507 4.5056 8.564L5.52401 13.1955M5.75907 7.30051L5.65413 6.55382C5.50041 5.46 6.2625 4.44867 7.35632 4.29494C8.45014 4.14121 9.46148 4.90331 9.61521 5.99713L9.72015 6.74382M5.75907 7.30051L9.72015 6.74382M9.72015 6.74382L10.1361 6.68536C10.713 6.60429 11.2368 7.03148 11.2733 7.61286L11.601 12.8226M5.52401 13.1955L6.52838 12.0795C7.10779 11.4357 8.03576 11.238 8.82724 11.5898L11.601 12.8226M5.52401 13.1955L3.225 15.7499M11.601 12.8226C11.8601 12.9378 12.1494 12.9667 12.4263 12.9052L16.3977 12.0227M16.3977 12.0227C16.4619 12.0084 16.5291 12.0258 16.5783 12.0696L20.7188 15.7499M20.7188 15.7499H21.25V18.2499C21.25 19.3545 20.3546 20.2499 19.25 20.2499H4.75C3.64543 20.2499 2.75 19.3545 2.75 18.2499V15.7499H3.225M20.7188 15.7499H3.225" stroke="currentColor" stroke-width="1.5" stroke-linejoin="round"></path></g></svg>