<svg width="24px" height="24px" viewBox="0 0 24 24" fill="none" xmlns="http://www.w3.org/2000/svg"><g><path d="M7.5 12.5002L14.0858 5.9144C14.8668 5.13335 16.1332 5.13335 16.9142 5.9144L18.0858 7.08597C18.8668 7.86702 18.8668 9.13335 18.0858 9.9144L11.5 16.5002" stroke="currentColor" stroke-width="1.5" stroke-linecap="round" stroke-linejoin="round"></path><path d="M6.5 17.5L4.75 19.25" stroke="currentColor" stroke-width="1.5" stroke-linecap="round" stroke-linejoin="round"></path><path d="M10.2696 4L8.94789 2.66859C8.17 1.885 6.90427 1.88004 6.12026 2.65751L4.17571 4.58581C3.38907 5.36589 3.38641 6.63679 4.16977 7.42015L5.49962 8.75M10.2696 4L12.9996 6.75M10.2696 4L5.49962 8.75M5.49962 8.75L8.24962 11.5" stroke="currentColor" stroke-width="1.5" stroke-linecap="round" stroke-linejoin="round"></path><path d="M20 13.75L21.3298 15.0798C22.1132 15.8632 22.1105 17.1341 21.3239 17.9142L19.3794 19.8425C18.5953 20.62 17.3296 20.615 16.5517 19.8314L15.23 18.5M20 13.75L17.25 11M20 13.75L15.23 18.5M15.23 18.5L12.5 15.75" stroke="currentColor" stroke-width="1.5" stroke-linecap="round" stroke-linejoin="round"></path><path d="M9.99229 20.08C11.6691 18.4032 11.6691 15.6845 9.99229 14.0076C8.31545 12.3308 5.59676 12.3308 3.91992 14.0076L9.99229 20.08Z" stroke="currentColor" stroke-width="1.5" stroke-linecap="round" stroke-linejoin="round"></path></g></svg>