<svg width="24px" height="24px" viewBox="0 0 24 24" fill="none" xmlns="http://www.w3.org/2000/svg"><g><path d="M7 9H8V15H7V9Z" fill="currentColor"></path><path d="M9 9H11V15H9V9Z" fill="currentColor"></path><path d="M12 9H13V15H12V9Z" fill="currentColor"></path><path d="M16 9H17V15H16V9Z" fill="currentColor"></path><path d="M14 9H15V15H14V9Z" fill="currentColor"></path><path d="M8.25 3.75H5.75C4.64543 3.75 3.75 4.64543 3.75 5.75V8.25" stroke="currentColor" stroke-width="1.5" stroke-linecap="round" stroke-linejoin="round"></path><path d="M8.25 20H5.75C4.64543 20 3.75 19.1046 3.75 18V15.5" stroke="currentColor" stroke-width="1.5" stroke-linecap="round" stroke-linejoin="round"></path><path d="M15.75 3.75H18.25C19.3546 3.75 20.25 4.64543 20.25 5.75V8.25" stroke="currentColor" stroke-width="1.5" stroke-linecap="round" stroke-linejoin="round"></path><path d="M15.75 20.25H18.25C19.3546 20.25 20.25 19.3546 20.25 18.25V15.75" stroke="currentColor" stroke-width="1.5" stroke-linecap="round" stroke-linejoin="round"></path></g></svg>