<svg width="24px" height="24px" viewBox="0 0 24 24" fill="none" xmlns="http://www.w3.org/2000/svg"><g><path d="M9.25 7C9.25 8.79493 7.79493 10.25 6 10.25C4.20507 10.25 2.75 8.79493 2.75 7C2.75 5.20507 4.20507 3.75 6 3.75C7.79493 3.75 9.25 5.20507 9.25 7Z" stroke="currentColor" stroke-width="1.5" stroke-linejoin="round"></path><path d="M9.25 17C9.25 18.7949 7.79493 20.25 6 20.25C4.20507 20.25 2.75 18.7949 2.75 17C2.75 15.2051 4.20507 13.75 6 13.75C7.79493 13.75 9.25 15.2051 9.25 17Z" stroke="currentColor" stroke-width="1.5" stroke-linejoin="round"></path><path d="M21.5 7.99988L11.8333 11.9999L21.5 15.9999L19.4558 17.7034C18.8706 18.1911 18.0592 18.304 17.3631 17.9946L12.9377 16.0278C12.2155 15.7068 11.75 14.9905 11.75 14.2001V12.0344V11.9654V9.79963C11.75 9.00925 12.2155 8.29301 12.9377 7.97201L17.3631 6.00517C18.0592 5.6958 18.8706 5.8087 19.4558 6.29635L21.5 7.99988Z" stroke="currentColor" stroke-width="1.5" stroke-linejoin="round"></path><path d="M7 14L11.75 12.0345L11.8333 12L11.75 11.9655L7 10" stroke="currentColor" stroke-width="1.5" stroke-linejoin="round"></path></g></svg>