<svg width="24px" height="24px" viewBox="0 0 24 24" fill="none" xmlns="http://www.w3.org/2000/svg"><g><path d="M6.75 15.4807C6.75 15.4807 6.75 8.02504 6.75 5.7464C6.75 5.21648 6.96052 4.70846 7.33617 4.33406C7.71104 3.95966 8.21974 3.75 8.75035 3.75C11.9215 3.75 18.4997 3.75 18.4997 3.75" stroke="currentColor" stroke-width="1.5" stroke-miterlimit="1.5" stroke-linecap="square" stroke-linejoin="round"></path><path d="M14.5 20.25H5.7829C5.24368 20.25 4.72658 20.0359 4.34526 19.6547C3.96395 19.2735 3.75 18.7564 3.75 18.2175C3.75 17.9213 3.75 17.5811 3.75 17.2499C3.75 16.4215 4.42199 15.75 5.25042 15.75C7.53806 15.75 9.46194 15.75 11.7496 15.75C12.578 15.75 13.25 16.4216 13.25 17.25L13.25 18.252C13.25 19.355 14.145 20.25 15.248 20.25H15.252C16.355 20.25 17.25 19.355 17.25 18.252V9.5" stroke="currentColor" stroke-width="1.5" stroke-miterlimit="1.5" stroke-linecap="square" stroke-linejoin="round"></path><path fill-rule="evenodd" clip-rule="evenodd" d="M19.25 3.75C20.3393 3.75 21.25 4.66068 21.25 5.75C21.25 6.35858 21.25 7.10383 21.25 7.75001C21.25 8.57844 20.5784 9.25 19.75 9.25H17.25V5.75C17.25 5.21954 17.4608 4.71092 17.8357 4.33585C18.2107 3.96077 18.7196 3.75 19.25 3.75Z" stroke="currentColor" stroke-width="1.5" stroke-miterlimit="1.5" stroke-linecap="round" stroke-linejoin="round"></path><path d="M10.75 7.75H13.25" stroke="currentColor" stroke-width="1.5" stroke-miterlimit="1.5" stroke-linecap="round" stroke-linejoin="round"></path><path d="M10.75 10.75H12.25" stroke="currentColor" stroke-width="1.5" stroke-miterlimit="1.5" stroke-linecap="round" stroke-linejoin="round"></path></g></svg>