<svg width="24px" height="24px" viewBox="0 0 24 24" fill="none" xmlns="http://www.w3.org/2000/svg"><g><path d="M7 20.25H4.75C3.64543 20.25 2.75 19.3546 2.75 18.25V17.25C2.75 16.6977 3.19772 16.25 3.75 16.25H13.25C13.8023 16.25 14.25 16.6977 14.25 17.25V18.75C14.25 19.5784 14.9216 20.25 15.75 20.25C16.5784 20.25 17.25 19.5784 17.25 18.75V5.5C17.25 4.5335 18.0335 3.75 19 3.75C19.9665 3.75 20.75 4.5335 20.75 5.5V8C20.75 8.55228 20.3023 9 19.75 9H17.5" stroke="currentColor" stroke-width="1.5" stroke-linecap="round" stroke-linejoin="round"></path><path d="M15.5 20.25H6" stroke="currentColor" stroke-width="1.5" stroke-linecap="round" stroke-linejoin="round"></path><path d="M19 3.75H10.5M5.75 13.5V16" stroke="currentColor" stroke-width="1.5" stroke-linecap="round"></path><path d="M7.08091 4.77036L6.54359 3.37334C6.45708 3.14842 6.24099 3 6 3C5.75901 3 5.54292 3.14842 5.45641 3.37334L4.91909 4.77036C4.71594 5.29854 4.29854 5.71594 3.77036 5.91909L2.37334 6.45641C2.14842 6.54292 2 6.75901 2 7C2 7.24099 2.14842 7.45708 2.37334 7.54359L3.77036 8.08091C4.29854 8.28406 4.71594 8.70146 4.91909 9.22964L5.45641 10.6267C5.54292 10.8516 5.75901 11 6 11C6.24099 11 6.45708 10.8516 6.54359 10.6267L7.08091 9.22964C7.28406 8.70146 7.70146 8.28406 8.22964 8.08091L9.62666 7.54359C9.85158 7.45708 10 7.24099 10 7C10 6.75901 9.85158 6.54292 9.62666 6.45641L8.22964 5.91909C7.70146 5.71594 7.28406 5.29854 7.08091 4.77036Z" fill="currentColor"></path></g></svg>