<svg width="24px" height="24px" viewBox="0 0 24 24" fill="none" xmlns="http://www.w3.org/2000/svg"><g><path d="M2.75 6.75C2.75 5.64543 3.64543 4.75 4.75 4.75H19.25C20.3546 4.75 21.25 5.64543 21.25 6.75V12H2.75V6.75Z" stroke="currentColor" stroke-width="1.5" stroke-linecap="square" stroke-linejoin="round"></path><path d="M2.75 12H21.25V17.25C21.25 18.3546 20.3546 19.25 19.25 19.25H4.75C3.64543 19.25 2.75 18.3546 2.75 17.25V12Z" stroke="currentColor" stroke-width="1.5" stroke-linecap="square" stroke-linejoin="round"></path><path d="M6.5 14.875C6.91421 14.875 7.25 15.2108 7.25 15.625C7.25 16.0392 6.91421 16.375 6.5 16.375C6.08579 16.375 5.75 16.0392 5.75 15.625C5.75 15.2108 6.08579 14.875 6.5 14.875ZM6.5 7.625C6.91421 7.625 7.25 7.96079 7.25 8.375C7.25 8.78921 6.91421 9.125 6.5 9.125C6.08579 9.125 5.75 8.78921 5.75 8.375C5.75 7.96079 6.08579 7.625 6.5 7.625Z" fill="currentColor" stroke="currentColor" stroke-width="0.5"></path></g></svg>