<svg width="24px" height="24px" viewBox="0 0 24 24" fill="none" xmlns="http://www.w3.org/2000/svg"><g><path d="M19.2479 6.923L12.9979 3.32455C12.3802 2.96888 11.6198 2.96888 11.0021 3.32455L4.75208 6.92297C4.13211 7.27992 3.75 7.94083 3.75 8.65622V15.3439C3.75 16.0593 4.13213 16.7202 4.75213 17.0772L11.0021 20.6754C11.6198 21.031 12.3802 21.031 12.9979 20.6753L19.2479 17.0769C19.8679 16.7199 20.25 16.059 20.25 15.3436V8.65625C20.25 7.94086 19.8679 7.27995 19.2479 6.923Z" stroke="currentColor" stroke-width="1.5" stroke-linecap="square"></path><path d="M15.25 12C15.25 13.7949 13.7949 15.25 12 15.25C10.2051 15.25 8.75 13.7949 8.75 12C8.75 10.2051 10.2051 8.75 12 8.75C13.7949 8.75 15.25 10.2051 15.25 12Z" stroke="currentColor" stroke-width="1.5" stroke-linecap="square"></path></g></svg>