<svg width="24px" height="24px" viewBox="0 0 24 24" fill="none" xmlns="http://www.w3.org/2000/svg"><g><path d="M20.25 17.05V6.95C20.25 5.8299 20.25 5.26984 20.032 4.84202C19.8403 4.46569 19.5343 4.15973 19.158 3.96799C18.7302 3.75 18.1701 3.75 17.05 3.75H6.95C5.8299 3.75 5.26984 3.75 4.84202 3.96799C4.46569 4.15973 4.15973 4.46569 3.96799 4.84202C3.75 5.26984 3.75 5.8299 3.75 6.95V17.05C3.75 18.1701 3.75 18.7302 3.96799 19.158C4.15973 19.5343 4.46569 19.8403 4.84202 20.032C5.26984 20.25 5.8299 20.25 6.95 20.25H17.05C18.1701 20.25 18.7302 20.25 19.158 20.032C19.5343 19.8403 19.8403 19.5343 20.032 19.158C20.25 18.7302 20.25 18.1701 20.25 17.05Z" stroke="currentColor" stroke-width="1.5" stroke-linecap="round" stroke-linejoin="round"></path><path d="M15.7122 15.7082C17.7626 13.6509 17.7626 10.3175 15.7122 8.26021C13.7039 6.2466 10.2931 6.2466 8.28777 8.26021C6.23741 10.3175 6.23741 13.6509 8.28777 15.7082C10.3366 17.7639 13.6619 17.7639 15.7122 15.7082ZM15.7122 15.7082L14.9998 15L13.05 13.05" stroke="currentColor" stroke-width="1.5" stroke-linecap="round" stroke-linejoin="round"></path></g></svg>