<svg width="24px" height="24px" viewBox="0 0 24 24" fill="none" xmlns="http://www.w3.org/2000/svg"><g><path d="M11.7545 3.75C10.7959 11.6353 18.6701 7.45218 20.2498 14.25" stroke="currentColor" stroke-width="1.5" stroke-linecap="round" stroke-linejoin="round"></path><path d="M3.75 13.3066C8.94231 9.12105 8.77657 12.8306 11.5385 14.9504C13.653 16.5733 16.7308 16.0103 17.25 20.2499" stroke="currentColor" stroke-width="1.5" stroke-linecap="round" stroke-linejoin="round"></path><path d="M3.75 16.4385C4.51923 16.015 5.50072 15.6 6.63462 15.8032C8.52153 16.1414 8.94231 18.9795 11.25 20.25" stroke="currentColor" stroke-width="1.5" stroke-linecap="round" stroke-linejoin="round"></path><path d="M18.25 3.75H5.75C4.64543 3.75 3.75 4.64543 3.75 5.75V18.25C3.75 19.3546 4.64543 20.25 5.75 20.25H18.25C19.3546 20.25 20.25 19.3546 20.25 18.25V5.75C20.25 4.64543 19.3546 3.75 18.25 3.75Z" stroke="currentColor" stroke-width="1.5" stroke-linecap="round" stroke-linejoin="round"></path></g></svg>