<svg width="24px" height="24px" viewBox="0 0 24 24" fill="none" xmlns="http://www.w3.org/2000/svg"><g><path d="M16.1395 12.9716L19.7307 9.38832C20.307 8.81319 21.2415 8.81319 21.8179 9.38832C22.3835 9.95267 22.3966 10.8619 21.841 11.4361C20.5761 12.7431 18.3512 15.0105 16.6545 16.5686C15.8099 17.3441 14.7796 18.2346 13.7829 19.0759C11.6703 20.8591 8.52656 20.5709 6.71433 18.4845L4.42308 15.8465C3.67252 14.9824 3.23227 13.8931 3.17204 12.7512L2.75 4.75H3.31687C4.53795 4.75 5.64451 5.46754 6.14044 6.58094L7.38482 9.37467L8.92976 7.83311M8.92976 7.83311L9.95987 6.80531C10.5287 6.23773 11.451 6.23773 12.0198 6.80531C12.5886 7.3729 12.5886 8.29313 12.0198 8.86072L10.9898 9.88842C10.421 10.456 9.49874 10.456 8.92991 9.88842C8.36108 9.32084 8.36093 8.4007 8.92976 7.83311ZM13.5647 11.43L14.5947 10.4023C15.1635 9.83469 15.1635 8.91445 14.5947 8.34687C14.0259 7.77928 13.1036 7.77928 12.5348 8.34687L11.5048 9.37457C10.936 9.94216 10.936 10.8624 11.5048 11.43C12.0736 11.9976 12.9959 11.9976 13.5647 11.43ZM13.5647 11.43L15.1097 9.88842C15.6785 9.32084 16.6008 9.32084 17.1696 9.88842C17.7384 10.456 17.7384 11.3762 17.1696 11.9438L15.6246 13.4854C15.0558 14.053 14.1336 14.053 13.5647 13.4854C12.9959 12.9178 12.9959 11.9976 13.5647 11.43Z" stroke="currentColor" stroke-width="1.5" stroke-linecap="round" stroke-linejoin="round"></path></g></svg>