<svg width="24px" height="24px" viewBox="0 0 24 24" fill="none" xmlns="http://www.w3.org/2000/svg"><g><path d="M6.86187 11.6906L5.61124 4.93333C5.4843 4.24748 4.88797 3.75 4.19278 3.75C3.35701 3.75 2.69611 4.46036 2.75347 5.29702L3.38358 14.4872C3.60605 17.732 6.29407 20.25 9.53538 20.25H11.4866C13.751 20.25 15.8832 19.1802 17.2419 17.3625L21.25 12L20.9818 11.7309C19.9426 10.6881 18.3143 10.5263 17.0915 11.3444L16.1114 12M9.94584 11.4844V8.39062C9.94584 7.53631 9.25565 6.84375 8.40426 6.84375C7.55287 6.84375 6.86267 7.53631 6.86267 8.39062V11.4844C6.86267 12.3387 7.55287 13.0312 8.40426 13.0312C9.25565 13.0312 9.94584 12.3387 9.94584 11.4844ZM9.94584 11.4844V8.90625C9.94584 8.05193 10.636 7.35938 11.4874 7.35938C12.3388 7.35938 13.029 8.05193 13.029 8.90625V11.4844M9.94584 11.4844C9.94584 12.3387 10.636 13.0312 11.4874 13.0312C12.3388 13.0312 13.029 12.3387 13.029 11.4844M13.029 11.4844V9.42188C13.029 8.56756 13.7192 7.875 14.5706 7.875C15.422 7.875 16.1122 8.56756 16.1122 9.42188V11.4844C16.1122 12.3387 15.422 13.0312 14.5706 13.0312C13.7192 13.0312 13.029 12.3387 13.029 11.4844Z" stroke="currentColor" stroke-width="1.5" stroke-linejoin="round"></path></g></svg>