<svg width="24px" height="24px" viewBox="0 0 24 24" fill="none" xmlns="http://www.w3.org/2000/svg"><g><path d="M3.75 7.07405C3.75 6.27134 4.22993 5.54639 4.9689 5.23289L11.2189 2.58138C11.7181 2.36959 12.2819 2.36959 12.7811 2.58138L19.0311 5.23289C19.7701 5.54639 20.25 6.27134 20.25 7.07405V13C20.25 17.5563 16.5563 21.25 12 21.25C7.44365 21.25 3.75 17.5563 3.75 13V7.07405Z" stroke="currentColor" stroke-width="1.5" stroke-linecap="round" stroke-linejoin="round"></path><circle cx="11.9984" cy="15.7001" r="1.1" fill="currentColor"></circle><path d="M11.28 12.3C11.2897 12.4812 11.374 12.6549 11.5089 12.783C11.644 12.9111 11.8187 12.9831 12 12.9831C12.1813 12.9831 12.356 12.9111 12.4911 12.783C12.626 12.6549 12.7103 12.4812 12.72 12.3C12.72 12.3 12.72 12.3 12.72 12.3C12.7233 12.2367 12.7267 12.1733 12.73 12.11C12.79 10.97 12.85 9.83 12.91 8.69C12.9133 8.62667 12.9167 8.56333 12.92 8.5C12.933 8.256 12.8475 8.022 12.6747 7.84946C12.5024 7.67693 12.257 7.58 12 7.58C11.743 7.58 11.4976 7.67693 11.3253 7.84946C11.1525 8.022 11.067 8.256 11.08 8.5C11.08 8.5 11.08 8.5 11.08 8.5C11.0833 8.56333 11.0867 8.62667 11.09 8.69C11.15 9.83 11.21 10.97 11.27 12.11C11.2733 12.1733 11.2767 12.2367 11.28 12.3Z" fill="currentColor"></path></g></svg>