<svg width="24px" height="24px" viewBox="0 0 24 24" fill="none" xmlns="http://www.w3.org/2000/svg"><g><path d="M3.75 7.07405C3.75 6.27134 4.22993 5.54639 4.9689 5.23289L11.2189 2.58138C11.7181 2.36959 12.2819 2.36959 12.7811 2.58138L19.0311 5.23289C19.7701 5.54639 20.25 6.27134 20.25 7.07405V13C20.25 17.5563 16.5563 21.25 12 21.25C7.44365 21.25 3.75 17.5563 3.75 13V7.07405Z" stroke="currentColor" stroke-width="1.5" stroke-linecap="round" stroke-linejoin="round"></path><path d="M13.2405 10.1393L12.5436 8.32744C12.4571 8.10252 12.241 7.9541 12 7.9541C11.759 7.9541 11.5429 8.10252 11.4564 8.32744L10.7595 10.1393C10.658 10.4034 10.4493 10.6121 10.1852 10.7136L8.37334 11.4105C8.14842 11.497 8 11.7131 8 11.9541C8 12.1951 8.14842 12.4112 8.37334 12.4977L10.1852 13.1946C10.4493 13.2961 10.658 13.5048 10.7595 13.7689L11.4564 15.5808C11.5429 15.8057 11.759 15.9541 12 15.9541C12.241 15.9541 12.4571 15.8057 12.5436 15.5808L13.2405 13.7689C13.342 13.5048 13.5507 13.2961 13.8148 13.1946L15.6267 12.4977C15.8516 12.4112 16 12.1951 16 11.9541C16 11.7131 15.8516 11.497 15.6267 11.4105L13.8148 10.7136C13.5507 10.6121 13.342 10.4034 13.2405 10.1393Z" fill="currentColor"></path></g></svg>