<svg width="24px" height="24px" viewBox="0 0 24 24" fill="none" xmlns="http://www.w3.org/2000/svg"><g><path d="M12 8.75003C11.1716 8.75003 10.5 9.4216 10.5 10.25C10.5 11.0785 11.1716 11.75 12 11.75C12.8284 11.75 13.5 11.0785 13.5 10.25C13.5 9.4216 12.8284 8.75003 12 8.75003ZM12 8.75003V14.75M20.25 11.9124V6.94155C20.25 6.08069 19.6991 5.31641 18.8825 5.04418L12.6325 2.96085C12.2219 2.824 11.7781 2.824 11.3675 2.96085L5.11754 5.04418C4.30086 5.31641 3.75 6.08069 3.75 6.94155V11.9124C3.75 16.8848 8 19.25 12 21.4079C16 19.25 20.25 16.8848 20.25 11.9124Z" stroke="currentColor" stroke-width="1.5" stroke-linecap="round" stroke-linejoin="round"></path></g></svg>