<svg width="24px" height="24px" viewBox="0 0 24 24" fill="none" xmlns="http://www.w3.org/2000/svg"><g><path d="M2.75 20.25L6.26353 19.4903M6.26353 19.4903L6.95233 19.3414C7.23089 19.2812 7.51911 19.2812 7.79767 19.3414L11.5773 20.1586C11.8559 20.2188 12.1441 20.2188 12.4227 20.1586L16.2023 19.3414C16.4809 19.2812 16.7691 19.2812 17.0477 19.3414L17.7365 19.4903M6.26353 19.4903C5.08645 17.9188 4.46034 16.5675 4.08992 15.0117C3.8539 14.0205 4.52677 13.0678 5.51689 12.827L11.5273 11.365C11.8379 11.2894 12.1621 11.2894 12.4727 11.365L18.4831 12.827C19.4732 13.0678 20.1461 14.0205 19.9101 15.0117C19.5397 16.5675 18.9136 17.9188 17.7365 19.4903M17.7365 19.4903L21.25 20.25M5.75 12.75V7.75C5.75 7.19772 6.19772 6.75 6.75 6.75H17.25C17.8023 6.75 18.25 7.19772 18.25 7.75V12.75M9.75 6.75V3.75C9.75 3.19772 10.1977 2.75 10.75 2.75H13.25C13.8023 2.75 14.25 3.19772 14.25 3.75V6.75" stroke="currentColor" stroke-width="1.5" stroke-linecap="round" stroke-linejoin="round"></path></g></svg>