<svg width="24px" height="24px" viewBox="0 0 24 24" fill="none" xmlns="http://www.w3.org/2000/svg"><g><path d="M15.2487 7.75V6C15.2487 4.20507 13.7936 2.75 11.9987 2.75C10.2038 2.75 8.74868 4.20507 8.74868 6V7.75M11.7487 21.25H6.56681C5.34553 21.25 4.40942 20.165 4.5884 18.9569L5.99581 9.4569C6.14109 8.47624 6.98285 7.75 7.97421 7.75H16.0231C17.0145 7.75 17.8563 8.47624 18.0016 9.4569L18.3042 11.5M19.2487 14.75H15.7487C15.1964 14.75 14.7487 15.1977 14.7487 15.75V21.25L17.4987 19.75L20.2487 21.25V15.75C20.2487 15.1977 19.801 14.75 19.2487 14.75Z" stroke="currentColor" stroke-width="1.5" stroke-linecap="round" stroke-linejoin="round"></path></g></svg>