<svg width="24px" height="24px" viewBox="0 0 24 24" fill="none" xmlns="http://www.w3.org/2000/svg"><g><path d="M15.2487 7.75V6C15.2487 4.20507 13.7936 2.75 11.9987 2.75C10.2038 2.75 8.74868 4.20507 8.74868 6V7.75M12.2487 21.25H6.56681C5.34553 21.25 4.40942 20.165 4.5884 18.9569L5.99581 9.4569C6.14109 8.47624 6.98285 7.75 7.97421 7.75H16.0231C17.0145 7.75 17.8563 8.47624 18.0016 9.4569L18.3783 12M17.9987 21.2778C18.2695 21.2778 21.2487 19.7431 21.2487 17.6667C21.2487 16.2222 20.3459 15.5 19.4431 15.5C18.5403 15.5 17.9987 16.0417 17.9987 16.0417C17.9987 16.0417 17.457 15.5 16.5542 15.5C15.6515 15.5 14.7487 16.2222 14.7487 17.6667C14.7487 19.7431 17.7278 21.2778 17.9987 21.2778Z" stroke="currentColor" stroke-width="1.5" stroke-linecap="round" stroke-linejoin="round"></path></g></svg>