<svg width="24px" height="24px" viewBox="0 0 24 24" fill="none" xmlns="http://www.w3.org/2000/svg"><g><path d="M15.2487 7.75V6C15.2487 4.20507 13.7936 2.75 11.9987 2.75C10.2038 2.75 8.74868 4.20507 8.74868 6V7.75M9.24868 21.25H6.56681C5.34553 21.25 4.40942 20.165 4.5884 18.9569L5.99581 9.4569C6.14109 8.47624 6.98285 7.75 7.97421 7.75H16.0232C17.0145 7.75 17.8563 8.47624 18.0016 9.4569L18.082 10M19.9307 20.932C21.688 19.1746 21.688 16.3254 19.9307 14.568C18.1733 12.8107 15.3241 12.8107 13.5667 14.568M19.9307 20.932C18.1733 22.6893 15.3241 22.6893 13.5667 20.932C11.8093 19.1746 11.8093 16.3254 13.5667 14.568M19.9307 20.932L13.5667 14.568" stroke="currentColor" stroke-width="1.5" stroke-linecap="round" stroke-linejoin="round"></path></g></svg>