<svg width="24px" height="24px" viewBox="0 0 24 24" fill="none" xmlns="http://www.w3.org/2000/svg"><g><path d="M15.2487 7.75V6C15.2487 4.20507 13.7936 2.75 11.9987 2.75C10.2038 2.75 8.74868 4.20507 8.74868 6V7.75M10.7487 21.25H6.56681C5.34553 21.25 4.40942 20.165 4.5884 18.9569L5.99581 9.4569C6.14109 8.47624 6.98285 7.75 7.97421 7.75H16.0231C17.0145 7.75 17.8563 8.47624 18.0016 9.4569L18.4885 12.7437M13.7487 19.9166V22.2499H16.082L19.832 18.4999C20.4763 17.8556 20.4763 16.8109 19.832 16.1666C19.1877 15.5223 18.143 15.5223 17.4987 16.1666L13.7487 19.9166Z" stroke="currentColor" stroke-width="1.5" stroke-linecap="round" stroke-linejoin="round"></path></g></svg>