<svg width="24px" height="24px" viewBox="0 0 24 24" fill="none" xmlns="http://www.w3.org/2000/svg"><g><path d="M15.0002 8C15.0002 9.65685 13.657 11 12.0002 11C10.3433 11 9.00019 9.65685 9.00019 8M19.7656 12.254L19.3641 5.62901C19.3001 4.57336 18.4253 3.75 17.3677 3.75H6.63265C5.57507 3.75 4.70029 4.57336 4.63631 5.62901L3.87874 18.129C3.80904 19.2791 4.72293 20.25 5.87508 20.25H12.2527M18.0002 21.2778C18.271 21.2778 21.2502 19.7431 21.2502 17.6667C21.2502 16.2222 20.3474 15.5 19.4446 15.5C18.5419 15.5 18.0002 16.0417 18.0002 16.0417C18.0002 16.0417 17.4585 15.5 16.5557 15.5C15.653 15.5 14.7502 16.2222 14.7502 17.6667C14.7502 19.7431 17.7294 21.2778 18.0002 21.2778Z" stroke="currentColor" stroke-width="1.5" stroke-linecap="round" stroke-linejoin="round"></path></g></svg>