<svg width="24px" height="24px" viewBox="0 0 24 24" fill="none" xmlns="http://www.w3.org/2000/svg"><g><path d="M18.25 3.75H5.75C4.64543 3.75 3.75 4.64543 3.75 5.75V18.25C3.75 19.3546 4.64543 20.25 5.75 20.25H18.25C19.3546 20.25 20.25 19.3546 20.25 18.25V5.75C20.25 4.64543 19.3546 3.75 18.25 3.75Z" stroke="currentColor" stroke-width="1.5" stroke-linejoin="round"></path><path d="M12.4997 11.0001H14.9594C15.3786 11.0001 15.6117 11.485 15.3498 11.8124L11.5076 16.6151C11.1686 17.0389 10.492 16.6948 10.6348 16.1712L11.4997 13.0001H9.04C8.62075 13.0001 8.38766 12.5151 8.64957 12.1877L12.4917 7.385C12.8308 6.9612 13.5073 7.3053 13.3645 7.82891L12.4997 11.0001Z" fill="currentColor"></path></g></svg>