<svg width="24px" height="24px" viewBox="0 0 24 24" fill="none" xmlns="http://www.w3.org/2000/svg"><g><path d="M12.4149 15.7559L8.24332 11.5843C7.46228 10.8032 6.18448 10.7951 5.45129 11.6212C2.96098 14.4272 2.04404 16.8146 3.32922 20.6701C7.18467 21.9553 9.57194 21.0382 12.378 18.5479C13.2041 17.8147 13.1959 16.5369 12.4149 15.7559Z" stroke="currentColor" stroke-width="1.5" stroke-linecap="round" stroke-linejoin="round"></path><path d="M8.5 15.5L15.5 8.5" stroke="currentColor" stroke-width="1.5" stroke-linecap="round" stroke-linejoin="round"></path><path d="M15.7503 4.25014L17.0448 2.95666C17.4354 2.56642 18.0684 2.56654 18.4588 2.95696L21.0446 5.54274C21.4352 5.93338 21.4351 6.56677 21.0443 6.95725L19.7503 8.25014C18.6457 9.35471 16.8549 9.35471 15.7503 8.25014C14.6457 7.14557 14.6457 5.35471 15.7503 4.25014Z" stroke="currentColor" stroke-width="1.5" stroke-linecap="round" stroke-linejoin="round"></path></g></svg>