<svg width="24px" height="24px" viewBox="0 0 24 24" fill="none" xmlns="http://www.w3.org/2000/svg"><g><path d="M11.25 4.75H4.75C3.64543 4.75 2.75 5.64543 2.75 6.75V17.25C2.75 18.3546 3.64543 19.25 4.75 19.25H11.25M11.25 4.75H19.25C20.3546 4.75 21.25 5.64543 21.25 6.75V17.25C21.25 18.3546 20.3546 19.25 19.25 19.25H11.25M11.25 4.75V19.25" stroke="currentColor" stroke-width="1.5" stroke-linecap="square" stroke-linejoin="round"></path><path d="M6.25 8.5C6.25 8.91421 6.58579 9.25 7 9.25C7.41421 9.25 7.75 8.91421 7.75 8.5C7.75 8.08579 7.41421 7.75 7 7.75C6.58579 7.75 6.25 8.08579 6.25 8.5ZM6.25 12C6.25 12.4142 6.58579 12.75 7 12.75C7.41421 12.75 7.75 12.4142 7.75 12C7.75 11.5858 7.41421 11.25 7 11.25C6.58579 11.25 6.25 11.5858 6.25 12ZM6.25 15.5C6.25 15.9142 6.58579 16.25 7 16.25C7.41421 16.25 7.75 15.9142 7.75 15.5C7.75 15.0858 7.41421 14.75 7 14.75C6.58579 14.75 6.25 15.0858 6.25 15.5Z" fill="currentColor" stroke="currentColor" stroke-width="0.5"></path></g></svg>