<svg width="24px" height="24px" viewBox="0 0 24 24" fill="none" xmlns="http://www.w3.org/2000/svg"><g><path d="M13.5664 7.81456L14.2973 7.64631V7.64631L13.5664 7.81456ZM13.9221 10.8807L13.1725 10.9046L13.9221 10.8807ZM10.189 20.1692L10.0412 19.4339L10.189 20.1692ZM9.224 13.9919L8.63988 13.5215L9.224 13.9919ZM10.0179 13.0701L10.5678 13.5801L11.072 13.0365L10.5342 12.5261L10.0179 13.0701ZM8.25902 4.21112L7.83776 3.59061H7.83776L8.25902 4.21112ZM13.5664 7.81456L12.8355 7.98282C13.0105 8.74297 13.1363 9.76649 13.1725 10.9046L13.9221 10.8807L14.6718 10.8569C14.6333 9.64773 14.4993 8.52381 14.2973 7.64631L13.5664 7.81456ZM13.9221 10.8807L13.1725 10.9046C13.2316 12.7605 13.05 14.8384 12.512 16.4984C11.9621 18.1949 11.1274 19.2156 10.0412 19.4339L10.189 20.1692L10.3368 20.9045C12.2489 20.5202 13.3414 18.8042 13.9389 16.9609C14.5482 15.081 14.7341 12.8161 14.6718 10.8569L13.9221 10.8807ZM10.189 20.1692L10.0412 19.4339C9.19924 19.6032 8.86575 19.4143 8.72501 19.2684C8.54929 19.0863 8.41625 18.7138 8.44524 18.0866C8.47316 17.4825 8.64781 16.7754 8.91071 16.1017C9.17406 15.4268 9.50522 14.8384 9.80813 14.4623L9.224 13.9919L8.63988 13.5215C8.21596 14.0479 7.81588 14.7811 7.51333 15.5564C7.21032 16.3329 6.98441 17.2046 6.94684 18.0174C6.91034 18.8071 7.04689 19.6895 7.64557 20.31C8.27924 20.9667 9.22496 21.128 10.3368 20.9045L10.189 20.1692ZM9.224 13.9919L9.80813 14.4623C10.068 14.1397 10.3212 13.8459 10.5678 13.5801L10.0179 13.0701L9.46802 12.56C9.19522 12.8541 8.91917 13.1747 8.63988 13.5215L9.224 13.9919ZM10.0179 13.0701L10.5342 12.5261C9.41478 11.4635 8.25132 9.89978 7.751 8.3926C7.50273 7.64472 7.43398 6.96017 7.56575 6.3753C7.69282 5.8113 8.0185 5.28092 8.68029 4.83163L8.25902 4.21112L7.83776 3.59061C6.87726 4.24269 6.31748 5.09111 6.10243 6.04561C5.89208 6.97925 6.02455 7.9529 6.32739 8.86518C6.92927 10.6783 8.26753 12.4427 9.50155 13.614L10.0179 13.0701ZM8.25902 4.21112L8.68029 4.83163C9.10456 4.54359 9.50336 4.46673 9.87534 4.51213C10.2619 4.55931 10.6724 4.74616 11.0784 5.07197C11.9017 5.7327 12.5782 6.86509 12.8355 7.98282L13.5664 7.81456L14.2973 7.64631C13.9734 6.23948 13.1336 4.79801 12.0172 3.90209C11.4533 3.44957 10.7881 3.11241 10.0571 3.02318C9.31147 2.93217 8.55082 3.10651 7.83776 3.59061L8.25902 4.21112Z" fill="currentColor"></path><path d="M1.75 16.75H22.25" stroke="currentColor" stroke-width="1.5" stroke-linecap="round" stroke-linejoin="round"></path><path d="M22.2497 15.0002C22.6639 15.0002 22.9997 14.6644 22.9997 14.2502C22.9997 13.836 22.6639 13.5002 22.2497 13.5002V14.2502V15.0002ZM19.8385 11.4182L19.4853 12.0798L19.8385 11.4182ZM16.9435 13.9921L16.2487 14.2745L16.9435 13.9921ZM13.9218 10.8809L13.9903 10.1341L13.9218 10.8809ZM10.0176 13.0703L9.46771 12.5602L8.9635 13.1038L9.50124 13.6142L10.0176 13.0703ZM10.7393 14.6181C11.085 14.8462 11.5503 14.7509 11.7784 14.4052C12.0066 14.0595 11.9113 13.5943 11.5656 13.3661L11.1525 13.9921L10.7393 14.6181ZM20.8035 14.2502V15.0002H22.2497V14.2502V13.5002H20.8035V14.2502ZM19.8385 11.4182L19.4853 12.0798C19.3981 12.0333 19.4393 11.9729 19.4708 12.1787C19.5025 12.3852 19.493 12.6408 19.485 12.9993C19.4785 13.2942 19.4681 13.7352 19.5863 14.1045C19.6513 14.3077 19.7718 14.5473 20.003 14.7331C20.2427 14.9257 20.5263 15.0002 20.8035 15.0002V14.2502V13.5002C20.7964 13.5002 20.8649 13.5014 20.9425 13.5637C21.0115 13.6192 21.0227 13.6716 21.0149 13.6472C20.9873 13.5611 20.9769 13.385 20.9847 13.0325C20.9911 12.7435 21.0102 12.3213 20.9535 11.9515C20.8967 11.5808 20.7326 11.0453 20.1917 10.7566L19.8385 11.4182ZM16.9435 13.9921L16.2487 14.2745C16.3658 14.5624 16.5602 14.9315 16.9263 15.1196C17.4032 15.3646 17.8381 15.165 18.0771 14.9773C18.299 14.8031 18.4746 14.5584 18.6068 14.3501C18.7475 14.1284 18.8837 13.8744 19.0101 13.6294C19.2795 13.1077 19.5011 12.6409 19.7221 12.308C19.7732 12.231 19.8168 12.173 19.8528 12.1314C19.8901 12.0881 19.908 12.0756 19.9047 12.0779C19.8813 12.0945 19.6949 12.1917 19.4853 12.0798L19.8385 11.4182L20.1917 10.7566C19.741 10.516 19.3096 10.6616 19.0386 10.8533C18.7983 11.0232 18.6111 11.2694 18.4724 11.4784C18.1911 11.9021 17.9064 12.4975 17.6773 12.9414C17.5545 13.1792 17.4434 13.3838 17.3403 13.5463C17.2894 13.6266 17.2455 13.6884 17.2087 13.7339C17.1704 13.7814 17.1506 13.7977 17.1506 13.7977C17.1542 13.7948 17.3587 13.6554 17.6117 13.7853C17.7539 13.8583 17.7309 13.9373 17.6384 13.7097L16.9435 13.9921ZM13.9218 10.8809L13.8534 11.6278C14.6286 11.6988 15.4841 12.3932 16.2487 14.2745L16.9435 13.9921L17.6384 13.7097C16.8256 11.7101 15.6526 10.2864 13.9903 10.1341L13.9218 10.8809ZM10.0176 13.0703L10.5674 13.5803C11.9985 12.0375 13.0887 11.5578 13.8534 11.6278L13.9218 10.8809L13.9903 10.1341C12.4931 9.99692 10.9692 10.9415 9.46771 12.5602L10.0176 13.0703ZM11.1525 13.9921L11.5656 13.3661C11.2604 13.1647 10.9066 12.8801 10.5339 12.5263L10.0176 13.0703L9.50124 13.6142C9.92171 14.0134 10.3442 14.3573 10.7393 14.6181L11.1525 13.9921Z" fill="currentColor"></path><path d="M1.75 10.75L3.5 12.5L5.25 14.25" stroke="currentColor" stroke-width="1.5" stroke-linecap="round" stroke-linejoin="round"></path><path d="M5.25 10.75L3.5 12.5L1.75 14.25" stroke="currentColor" stroke-width="1.5" stroke-linecap="round" stroke-linejoin="round"></path></g></svg>