<svg width="24px" height="24px" viewBox="0 0 24 24" fill="none" xmlns="http://www.w3.org/2000/svg"><g><circle cx="12" cy="10" r="7.75" stroke="currentColor" stroke-width="1.5" stroke-linecap="round" stroke-linejoin="round"></circle><path d="M7.75 16.5V22.25L12 21.2L16.25 22.25V16.5" stroke="currentColor" stroke-width="1.5" stroke-linecap="round" stroke-linejoin="round"></path><path d="M10.1221 13.4996C9.67498 13.4996 9.3125 13.1371 9.3125 12.6899C9.3125 12.4644 9.40657 12.2491 9.57206 12.0959L12.0307 9.81934C12.2619 9.59561 12.4558 9.39426 12.6124 9.21529C12.7715 9.03631 12.892 8.86106 12.9741 8.68954C13.0561 8.51554 13.0971 8.32786 13.0971 8.12651C13.0971 7.90279 13.0462 7.71014 12.9442 7.54856C12.8423 7.3845 12.7031 7.25897 12.5266 7.17196C12.3501 7.08248 12.15 7.03773 11.9263 7.03773C11.6926 7.03773 11.4888 7.08496 11.3148 7.17942C11.1408 7.27388 11.0066 7.40936 10.9121 7.58585C10.7421 7.90356 10.4783 8.216 10.1179 8.216H10.0042C9.58099 8.216 9.22142 7.86556 9.3384 7.45887C9.39451 7.26378 9.47412 7.08239 9.57724 6.91468C9.80344 6.54679 10.1204 6.26216 10.5281 6.06081C10.9357 5.85946 11.4055 5.75879 11.9375 5.75879C12.4844 5.75879 12.9604 5.85573 13.3656 6.04963C13.7733 6.24103 14.0902 6.50701 14.3164 6.84757C14.5426 7.18812 14.6557 7.57839 14.6557 8.01838C14.6557 8.30673 14.5985 8.59135 14.4842 8.87225C14.3723 9.15314 14.1722 9.46511 13.8839 9.80815C13.5955 10.1487 13.1891 10.5576 12.6646 11.0349L11.5607 12.1166C11.5537 12.1235 11.5497 12.133 11.5497 12.1428C11.5497 12.1631 11.5662 12.1796 11.5865 12.1796H14.0964C14.4609 12.1796 14.7564 12.4751 14.7564 12.8396C14.7564 13.2041 14.4609 13.4996 14.0964 13.4996H10.1221Z" fill="currentColor"></path></g></svg>