<svg width="24px" height="24px" viewBox="0 0 24 24" fill="none" xmlns="http://www.w3.org/2000/svg"><g><path d="M8.75 13.25C8.75 12.4216 9.42157 11.75 10.25 11.75H13.75C14.5784 11.75 15.25 12.4216 15.25 13.25V15.75C15.25 16.5784 14.5784 17.25 13.75 17.25H10.25C9.42157 17.25 8.75 16.5784 8.75 15.75V13.25Z" stroke="currentColor" stroke-width="1.5" stroke-linecap="round" stroke-linejoin="round"></path><path d="M4.75 4.75C4.75 3.64543 5.64543 2.75 6.75 2.75H13.0074C13.803 2.75 14.5661 3.06607 15.1287 3.62868L18.3713 6.87132C18.9339 7.43393 19.25 8.19699 19.25 8.99264V19.25C19.25 20.3546 18.3546 21.25 17.25 21.25H6.75C5.64543 21.25 4.75 20.3546 4.75 19.25V4.75Z" stroke="currentColor" stroke-width="1.5" stroke-linecap="round" stroke-linejoin="round"></path></g></svg>