<svg width="24px" height="24px" viewBox="0 0 24 24" fill="none" xmlns="http://www.w3.org/2000/svg"><g><path d="M4.75 18.75V20.25C4.75 20.8023 5.19771 21.25 5.75 21.25H18.25C18.8023 21.25 19.25 20.8023 19.25 20.25V18.75C19.25 17.6454 18.3546 16.75 17.25 16.75H6.75C5.64543 16.75 4.75 17.6454 4.75 18.75Z" stroke="currentColor" stroke-width="1.5" stroke-linecap="round" stroke-linejoin="round"></path><path d="M6.75 16.75V12C6.75 9.10051 9.10051 6.75 12 6.75C14.8995 6.75 17.25 9.10051 17.25 12V16.75" stroke="currentColor" stroke-width="1.5" stroke-linecap="round" stroke-linejoin="round"></path><path d="M12 1.75V2.775M21.225 12H22.25M2.775 12H1.75M18.5231 5.47694L19.2478 4.75216M5.47696 5.47692L4.75218 4.75213" stroke="currentColor" stroke-width="1.5" stroke-linecap="round" stroke-linejoin="round"></path><path d="M12 16.75V13.75" stroke="currentColor" stroke-width="1.5" stroke-linecap="round" stroke-linejoin="round"></path></g></svg>