<svg width="24px" height="24px" viewBox="0 0 24 24" fill="none" xmlns="http://www.w3.org/2000/svg"><g><path d="M17.25 6.86111V4.75C17.25 3.64543 16.3546 2.75 15.25 2.75H4.75C3.64543 2.75 2.75 3.64543 2.75 4.75V15.25C2.75 16.3546 3.64543 17.25 4.75 17.25H6.75M14.0556 10.75V14.0556M14.0556 14.0556V17.25M14.0556 14.0556H10.75M14.0556 14.0556H17.25M19.25 21.25H8.75C7.64543 21.25 6.75 20.3546 6.75 19.25V8.86111C6.75 7.75654 7.64543 6.86111 8.75 6.86111H19.25C20.3546 6.86111 21.25 7.75654 21.25 8.86111V19.25C21.25 20.3546 20.3546 21.25 19.25 21.25Z" stroke="currentColor" stroke-width="1.5" stroke-linecap="round" stroke-linejoin="round"></path></g></svg>