<svg width="24px" height="24px" viewBox="0 0 24 24" fill="none" xmlns="http://www.w3.org/2000/svg"><g><path d="M15.25 6.75V4.75C15.25 3.64543 14.3546 2.75 13.25 2.75H6.75C5.64543 2.75 4.75 3.64543 4.75 4.75V15.25C4.75 16.3546 5.64543 17.25 6.75 17.25H8.75" stroke="currentColor" stroke-width="1.5" stroke-linecap="round" stroke-linejoin="round"></path><path d="M14 11.75V14M14 14V16.25M14 14H11.75M14 14H16.25" stroke="currentColor" stroke-width="1.5" stroke-linecap="round" stroke-linejoin="round"></path><path d="M17.25 6.75H10.75C9.64543 6.75 8.75 7.64543 8.75 8.75V19.25C8.75 20.3546 9.64543 21.25 10.75 21.25H17.25C18.3546 21.25 19.25 20.3546 19.25 19.25V8.75C19.25 7.64543 18.3546 6.75 17.25 6.75Z" stroke="currentColor" stroke-width="1.5" stroke-linecap="round" stroke-linejoin="round"></path></g></svg>