<svg width="24px" height="24px" viewBox="0 0 24 24" fill="none" xmlns="http://www.w3.org/2000/svg"><g><path d="M1.75 7.75V5.80556C1.75 4.70099 2.64543 3.80556 3.75 3.80556H7C7 3.80556 7.25 1.75 9.5 1.75C11.75 1.75 12 3.80556 12 3.80556H15.25C16.3546 3.80556 17.25 4.70099 17.25 5.80556V7.75M1.75 7.75V16.25M1.75 7.75H7M17.25 7.75V16.25M17.25 7.75H12M17.25 16.25V18.25C17.25 19.3546 16.3546 20.25 15.25 20.25H3.75C2.64543 20.25 1.75 19.3546 1.75 18.25V16.25M17.25 16.25H12M1.75 16.25H7M7 16.25V7.75M7 16.25H12M7 7.75H12M12 7.75V16.25M17.25 14.75H19.25C20.3546 14.75 21.25 13.8546 21.25 12.75V10M4.5 11.5V12.5M9.5 11.5V12.5M14.5 11.5V12.5M22.76 8.5C22.76 9.32843 22.0884 10 21.26 10C20.4316 10 19.76 9.32843 19.76 8.5C19.76 7.67157 20.4316 7 21.26 7C22.0884 7 22.76 7.67157 22.76 8.5Z" stroke="currentColor" stroke-width="1.5" stroke-linecap="round" stroke-linejoin="round"></path></g></svg>