<svg width="24px" height="24px" viewBox="0 0 24 24" fill="none" xmlns="http://www.w3.org/2000/svg"><g><path d="M12 8.75V12L13.5 13.5M6.75 19.25H17.25C18.3546 19.25 19.25 18.3546 19.25 17.25V6.75C19.25 5.64543 18.3546 4.75 17.25 4.75H6.75C5.64543 4.75 4.75 5.64543 4.75 6.75V17.25C4.75 18.3546 5.64543 19.25 6.75 19.25ZM7 4.75L7.77208 2.43377C7.90819 2.02543 8.29033 1.75 8.72076 1.75H15.2792C15.7097 1.75 16.0918 2.02543 16.2279 2.43377L17 4.75H7ZM7 19.25L7.77208 21.5662C7.90819 21.9746 8.29033 22.25 8.72076 22.25H15.2792C15.7097 22.25 16.0918 21.9746 16.2279 21.5662L17 19.25H7Z" stroke="currentColor" stroke-width="1.5" stroke-linecap="round" stroke-linejoin="round"></path></g></svg>