<svg width="24px" height="24px" viewBox="0 0 24 24" fill="none" xmlns="http://www.w3.org/2000/svg"><g><path d="M7.5 6.25L7.80232 3.52914C7.91486 2.51627 8.77099 1.75 9.79009 1.75H14.2099C15.229 1.75 16.0851 2.51627 16.1977 3.52914L16.5 6.25M12 8.75V12L13.5 13.5M7.5 17.75L7.80232 20.4709C7.91486 21.4837 8.77099 22.25 9.79009 22.25H14.2099C15.229 22.25 16.0851 21.4837 16.1977 20.4709L16.5 17.75M19.25 12C19.25 16.0041 16.0041 19.25 12 19.25C7.99594 19.25 4.75 16.0041 4.75 12C4.75 9.27035 6.25852 6.89304 8.48737 5.65625C9.52797 5.07882 10.7256 4.75 12 4.75C13.2744 4.75 14.472 5.07882 15.5126 5.65625C17.7415 6.89304 19.25 9.27035 19.25 12Z" stroke="currentColor" stroke-width="1.5" stroke-linecap="round" stroke-linejoin="round"></path></g></svg>