<svg width="24px" height="24px" viewBox="0 0 24 24" fill="none" xmlns="http://www.w3.org/2000/svg"><g><path d="M14.6436 12.3776C14.9113 11.5536 14.618 10.6509 13.917 10.1416L13.1772 9.60407C12.4762 9.09478 11.5271 9.09479 10.8261 9.60407L10.0863 10.1416C9.38531 10.6509 9.09199 11.5536 9.35974 12.3776L9.64232 13.2473C9.91007 14.0714 10.678 14.6293 11.5444 14.6293H12.4589C13.3253 14.6293 14.0932 14.0714 14.361 13.2473L14.6436 12.3776Z" stroke="currentColor" stroke-width="1.5" stroke-linejoin="round"></path><path d="M21.25 12C21.25 12.2 21.2437 12.3985 21.2311 12.5954C21.13 14.1882 20.6257 15.6714 19.8191 16.9443C18.5725 18.9117 16.6038 20.3763 14.2857 20.9654C13.5546 21.1513 12.7888 21.25 12 21.25C11.2112 21.25 10.4454 21.1513 9.71434 20.9654C7.39622 20.3763 5.42752 18.9117 4.18088 16.9443C3.37434 15.6714 2.87003 14.1882 2.76885 12.5954C2.75635 12.3985 2.75 12.2 2.75 12C2.75 9.75394 3.55053 7.69486 4.88182 6.0925C5.86229 4.9124 7.13065 3.98003 8.57915 3.40315C9.6373 2.98172 10.7916 2.75 12 2.75C13.2084 2.75 14.3627 2.98172 15.4209 3.40315C16.8693 3.98003 18.1377 4.9124 19.1182 6.0925C20.4495 7.69486 21.25 9.75394 21.25 12Z" stroke="currentColor" stroke-width="1.5" stroke-linejoin="round"></path><path d="M8.57812 3.40314L10.8234 5.03443C11.5244 5.54372 12.4736 5.54372 13.1746 5.03443L15.4198 3.40314" stroke="currentColor" stroke-width="1.5" stroke-linejoin="round"></path><path d="M19.1189 6.09253L18.2621 8.72952C17.9943 9.55356 18.2877 10.4563 18.9886 10.9656L21.2319 12.5954" stroke="currentColor" stroke-width="1.5" stroke-linejoin="round"></path><path d="M19.8186 16.9443H17.0448C16.1783 16.9443 15.4104 17.5022 15.1427 18.3262L14.2852 20.9655" stroke="currentColor" stroke-width="1.5" stroke-linejoin="round"></path><path d="M9.71314 20.9655L8.85561 18.3262C8.58786 17.5022 7.81995 16.9443 6.9535 16.9443H4.17969" stroke="currentColor" stroke-width="1.5" stroke-linejoin="round"></path><path d="M2.76953 12.5954L5.01277 10.9656C5.71374 10.4563 6.00706 9.55356 5.73931 8.72952L4.8825 6.09253" stroke="currentColor" stroke-width="1.5" stroke-linejoin="round"></path></g></svg>