<svg width="24px" height="24px" viewBox="0 0 24 24" fill="none" xmlns="http://www.w3.org/2000/svg"><g><path d="M1.75 12.75C1.75 11.6454 2.64543 10.75 3.75 10.75C4.85457 10.75 5.75 11.6454 5.75 12.75V13.3214H18.25V12.75C18.25 11.6454 19.1454 10.75 20.25 10.75C21.3546 10.75 22.25 11.6454 22.25 12.75V15.25C22.25 16.3546 21.3546 17.25 20.25 17.25H3.75C2.64543 17.25 1.75 16.3546 1.75 15.25V12.75Z" stroke="currentColor" stroke-width="1.5" stroke-linecap="round" stroke-linejoin="round"></path><path d="M20.25 10.25V6.75C20.25 5.64543 19.3546 4.75 18.25 4.75H5.75C4.64543 4.75 3.75 5.64543 3.75 6.75V10.25" stroke="currentColor" stroke-width="1.5" stroke-linecap="round" stroke-linejoin="round"></path><path d="M5.75 17.25V19.25" stroke="currentColor" stroke-width="1.5" stroke-linecap="round" stroke-linejoin="round"></path><path d="M18.25 17.25V19.25" stroke="currentColor" stroke-width="1.5" stroke-linecap="round" stroke-linejoin="round"></path></g></svg>