<svg width="24px" height="24px" viewBox="0 0 24 24" fill="none" xmlns="http://www.w3.org/2000/svg"><g><path d="M9.28771 8.53447L10.6304 7.86314C10.7311 7.81278 10.8128 7.7311 10.8631 7.63038L11.5345 6.28771C11.7263 5.9041 12.2737 5.9041 12.4655 6.28771L13.1369 7.63037C13.1872 7.7311 13.2689 7.81278 13.3696 7.86314L14.7123 8.53447C15.0959 8.72628 15.0959 9.27372 14.7123 9.46553L13.3696 10.1369C13.2689 10.1872 13.1872 10.2689 13.1369 10.3696L12.4655 11.7123C12.2737 12.0959 11.7263 12.0959 11.5345 11.7123L10.8631 10.3696C10.8128 10.2689 10.7311 10.1872 10.6304 10.1369L9.28771 9.46553C8.9041 9.27372 8.9041 8.72628 9.28771 8.53447Z" fill="currentColor"></path><path d="M5.18084 18.25C6.8718 16.406 9.30089 15.25 12 15.25C14.6991 15.25 17.1282 16.406 18.8192 18.25M5.18084 18.25C6.8718 20.094 9.30089 21.25 12 21.25C14.6991 21.25 17.1282 20.094 18.8192 18.25M5.18084 18.25C3.67129 16.6039 2.75 14.4095 2.75 12C2.75 6.89137 6.89137 2.75 12 2.75C17.1086 2.75 21.25 6.89137 21.25 12C21.25 14.4095 20.3287 16.6039 18.8192 18.25" stroke="currentColor" stroke-width="1.5"></path></g></svg>