<svg width="24px" height="24px" viewBox="0 0 24 24" fill="none" xmlns="http://www.w3.org/2000/svg"><g><path d="M3 3L5.5 5.5M21 3L18.5 5.5M3 21L5.5 18.5M21 21L18.5 18.5" stroke="currentColor" stroke-width="1.5" stroke-linecap="round" stroke-linejoin="round"></path><path d="M14.573 8.38499L12.7948 4.27224C12.6577 3.95524 12.3454 3.75 12 3.75C11.6546 3.75 11.3423 3.95524 11.2052 4.27224L9.42704 8.38499C9.22499 8.85232 8.85232 9.22499 8.38499 9.42704L4.27224 11.2052C3.95524 11.3423 3.75 11.6546 3.75 12C3.75 12.3454 3.95524 12.6577 4.27224 12.7948L8.38499 14.573C8.85232 14.775 9.22499 15.1477 9.42704 15.615L11.2052 19.7278C11.3423 20.0448 11.6546 20.25 12 20.25C12.3454 20.25 12.6577 20.0448 12.7948 19.7278L14.573 15.615C14.775 15.1477 15.1477 14.775 15.615 14.573L19.7278 12.7948C20.0448 12.6577 20.25 12.3454 20.25 12C20.25 11.6546 20.0448 11.3423 19.7278 11.2052L15.615 9.42704C15.1477 9.22499 14.775 8.85232 14.573 8.38499Z" stroke="currentColor" stroke-width="1.5" stroke-linecap="round" stroke-linejoin="round"></path></g></svg>