<svg width="24px" height="24px" viewBox="0 0 24 24" fill="none" xmlns="http://www.w3.org/2000/svg"><g><path d="M12 2.75C12.292 2.75 12.5542 2.92966 12.6592 3.20215L14.4014 7.73242C14.7315 8.59049 15.4095 9.26851 16.2676 9.59863L20.7979 11.3408C21.0703 11.4458 21.25 11.708 21.25 12C21.25 12.292 21.0703 12.5542 20.7979 12.6592L16.2676 14.4014C15.4095 14.7315 14.7315 15.4095 14.4014 16.2676L12.6592 20.7979C12.5542 21.0703 12.292 21.25 12 21.25C11.708 21.25 11.4458 21.0703 11.3408 20.7979L9.59863 16.2676C9.26851 15.4095 8.59049 14.7315 7.73242 14.4014L3.20215 12.6592C2.92966 12.5542 2.75 12.292 2.75 12C2.75 11.708 2.92966 11.4458 3.20215 11.3408L7.73242 9.59863C8.59049 9.26851 9.26851 8.59049 9.59863 7.73242L11.3408 3.20215C11.4458 2.92966 11.708 2.75 12 2.75Z" stroke="currentColor" stroke-width="1.5"></path></g></svg>