<svg width="24px" height="24px" viewBox="0 0 24 24" fill="none" xmlns="http://www.w3.org/2000/svg"><g><path d="M14.9184 7.93286L13.2571 3.61334C13.057 3.09321 12.5573 2.75 12 2.75C11.4427 2.75 10.943 3.09321 10.7429 3.61334L9.08159 7.93286C8.87844 8.46104 8.46104 8.87844 7.93286 9.08159L3.61334 10.7429C3.09321 10.943 2.75 11.4427 2.75 12C2.75 12.5573 3.09321 13.057 3.61334 13.2571L7.93286 14.9184C8.46104 15.1216 8.87844 15.539 9.08159 16.0671L10.7429 20.3867C10.943 20.9068 11.4427 21.25 12 21.25C12.5573 21.25 13.057 20.9068 13.2571 20.3867L14.9184 16.0671C15.1216 15.539 15.539 15.1216 16.0671 14.9184L20.3867 13.2571C20.9068 13.057 21.25 12.5573 21.25 12C21.25 11.4427 20.9068 10.943 20.3867 10.7429L16.0671 9.08159C15.539 8.87844 15.1216 8.46104 14.9184 7.93286Z" stroke="currentColor" stroke-width="1.5"></path></g></svg>