<svg width="24px" height="24px" viewBox="0 0 24 24" fill="none" xmlns="http://www.w3.org/2000/svg"><g><path d="M12.997 2.32359C12.3797 1.96847 11.62 1.96847 11.0026 2.32359L4.09265 6.29819C3.47226 6.65503 3.08984 7.31617 3.08984 8.03186V15.9681C3.08984 16.6838 3.47226 17.345 4.09264 17.7018L11.0026 21.6764C11.62 22.0315 12.3797 22.0315 12.997 21.6764L19.907 17.7018C20.5274 17.345 20.9098 16.6838 20.9098 15.9681V8.03186C20.9098 7.31617 20.5274 6.65503 19.907 6.29819L12.997 2.32359Z" stroke="currentColor" stroke-width="1.5" stroke-linecap="round" stroke-linejoin="round"></path><path d="M8.15234 9.56298L16.2498 4.88794" stroke="currentColor" stroke-width="1.5" stroke-linecap="round" stroke-linejoin="round"></path><path d="M11.578 16.9139L3.52051 12.25" stroke="currentColor" stroke-width="1.5" stroke-linecap="round" stroke-linejoin="round"></path><path d="M16.25 10.2677V19.2028" stroke="currentColor" stroke-width="1.5" stroke-linecap="round" stroke-linejoin="round"></path><path d="M8 19.4661L15.8524 14.9325" stroke="currentColor" stroke-width="1.5" stroke-linecap="round" stroke-linejoin="round"></path><path d="M7.75 4.54065V14.2055" stroke="currentColor" stroke-width="1.5" stroke-linecap="round" stroke-linejoin="round"></path><path d="M12.3779 7.56067L20.5001 12.25" stroke="currentColor" stroke-width="1.5" stroke-linecap="round" stroke-linejoin="round"></path></g></svg>