<svg width="24px" height="24px" viewBox="0 0 24 24" fill="none" xmlns="http://www.w3.org/2000/svg"><g><path d="M4.75 4.75C4.75 3.64543 5.64543 2.75 6.75 2.75H17.25C18.3546 2.75 19.25 3.64543 19.25 4.75V19.25C19.25 20.3546 18.3546 21.25 17.25 21.25H6.75C5.64543 21.25 4.75 20.3546 4.75 19.25V4.75Z" stroke="currentColor" stroke-width="1.5" stroke-linecap="round" stroke-linejoin="round"></path><path d="M15.5 14.25C15.5 16.183 13.933 17.75 12 17.75C10.067 17.75 8.5 16.183 8.5 14.25C8.5 12.317 10.067 10.75 12 10.75C13.933 10.75 15.5 12.317 15.5 14.25Z" stroke="currentColor" stroke-width="1.5" stroke-linecap="round" stroke-linejoin="round"></path><path d="M9.75 6.75H14.25" stroke="currentColor" stroke-width="1.5" stroke-linecap="round" stroke-linejoin="round"></path></g></svg>