<svg width="24px" height="24px" viewBox="0 0 24 24" fill="none" xmlns="http://www.w3.org/2000/svg"><g><path d="M14 12.9995C14 14.1041 13.1046 14.9995 12 14.9995C10.8954 14.9995 10 14.1041 10 12.9995C10 11.2244 11.0084 8.94503 11.5931 7.77252C11.7658 7.4263 12.2342 7.4263 12.4069 7.77251C12.9916 8.94503 14 11.2244 14 12.9995Z" fill="currentColor"></path><path opacity="0.12" d="M6.25201 19.2478C4.11827 17.5533 2.75 14.9365 2.75 12C2.75 6.89137 6.89137 2.75 12 2.75C17.1087 2.75 21.25 6.89137 21.25 12C21.25 14.9365 19.8817 17.5533 17.748 19.2478" stroke="currentColor" stroke-width="1.5" stroke-linecap="round"></path><path d="M6.25201 19.2478C4.11827 17.5533 2.75 14.9365 2.75 12C2.75 7.14515 6.49016 3.16383 11.2462 2.78027" stroke="currentColor" stroke-width="1.5" stroke-linecap="round"></path></g></svg>