<svg width="24px" height="24px" viewBox="0 0 24 24" fill="none" xmlns="http://www.w3.org/2000/svg"><g><path opacity="0.2" d="M6.25201 19.2478C4.11827 17.5533 2.75 14.9365 2.75 12C2.75 6.89137 6.89137 2.75 12 2.75C17.1087 2.75 21.25 6.89137 21.25 12C21.25 14.9365 19.8817 17.5533 17.748 19.2478" stroke="currentColor" stroke-width="1.5" stroke-linecap="round"></path><path d="M6.25201 19.248C4.11827 17.5535 2.75 14.9367 2.75 12.0002C2.75 10.8231 2.9699 9.69725 3.37086 8.66162" stroke="currentColor" stroke-width="1.5" stroke-linecap="round"></path><path d="M13.0008 11.2675C13.9574 11.8197 14.2852 13.0429 13.7329 13.9995C13.1806 14.9561 11.9574 15.2838 11.0008 14.7316C8.83578 13.4816 6.80469 9.99951 6.80469 9.99951C6.80469 9.99951 10.8358 10.0175 13.0008 11.2675Z" fill="currentColor"></path></g></svg>