<svg width="24px" height="24px" viewBox="0 0 24 24" fill="none" xmlns="http://www.w3.org/2000/svg"><g><path d="M6.25201 19.2478C4.11827 17.5533 2.75 14.9365 2.75 12C2.75 6.89137 6.89137 2.75 12 2.75C17.1087 2.75 21.25 6.89137 21.25 12C21.25 14.9365 19.8817 17.5533 17.748 19.2478" stroke="currentColor" stroke-width="1.5" stroke-linecap="round"></path><path d="M10.468 14.2846C9.75795 13.4385 9.86832 12.177 10.7145 11.467C11.5606 10.757 12.8221 10.8673 13.5321 11.7135C14.6732 13.0733 15.3659 15.4676 15.6716 16.7416C15.7619 17.1178 15.403 17.419 15.0482 17.2647C13.8466 16.7424 11.609 15.6445 10.468 14.2846Z" fill="currentColor"></path></g></svg>