<svg width="24px" height="24px" viewBox="0 0 24 24" fill="none" xmlns="http://www.w3.org/2000/svg"><g><path d="M3.75 5.75C3.75 4.64543 4.64543 3.75 5.75 3.75H8.25C9.35457 3.75 10.25 4.64543 10.25 5.75V8.25C10.25 9.35457 9.35457 10.25 8.25 10.25H5.75C4.64543 10.25 3.75 9.35457 3.75 8.25V5.75Z" stroke="currentColor" stroke-width="1.5" stroke-linecap="round" stroke-linejoin="round"></path><path d="M3.75 15.75C3.75 14.6454 4.64543 13.75 5.75 13.75H8.25C9.35457 13.75 10.25 14.6454 10.25 15.75V18.25C10.25 19.3546 9.35457 20.25 8.25 20.25H5.75C4.64543 20.25 3.75 19.3546 3.75 18.25V15.75Z" stroke="currentColor" stroke-width="1.5" stroke-linecap="round" stroke-linejoin="round"></path><path d="M13.75 17C13.75 15.2051 15.2051 13.75 17 13.75C18.7949 13.75 20.25 15.2051 20.25 17C20.25 18.7949 18.7949 20.25 17 20.25C15.2051 20.25 13.75 18.7949 13.75 17Z" stroke="currentColor" stroke-width="1.5" stroke-linecap="round" stroke-linejoin="round"></path><path d="M13.75 5.75C13.75 4.64543 14.6454 3.75 15.75 3.75H18.25C19.3546 3.75 20.25 4.64543 20.25 5.75V8.25C20.25 9.35457 19.3546 10.25 18.25 10.25H15.75C14.6454 10.25 13.75 9.35457 13.75 8.25V5.75Z" stroke="currentColor" stroke-width="1.5" stroke-linecap="round" stroke-linejoin="round"></path></g></svg>