<svg width="24px" height="24px" viewBox="0 0 24 24" fill="none" xmlns="http://www.w3.org/2000/svg"><g><path d="M7.54297 9.49777L8.66797 10.2478L10.5396 7.75226M13.808 9.00002H16.308M7.54297 15.4989L8.66797 16.2489L10.5396 13.7534M20.25 11.25V5.75C20.25 4.64543 19.3546 3.75 18.25 3.75H5.75C4.64543 3.75 3.75 4.64543 3.75 5.75V18.25C3.75 19.3546 4.64543 20.25 5.75 20.25H11.25M19.3713 19.364C18.1997 20.5355 16.3003 20.5355 15.1287 19.364C13.9571 18.1924 13.9571 16.2929 15.1287 15.1213C16.3003 13.9497 18.1997 13.9497 19.3713 15.1213C20.5429 16.2929 20.5429 18.1924 19.3713 19.364ZM19.3713 19.364L21.25 21.2426" stroke="currentColor" stroke-width="1.5" stroke-linecap="round" stroke-linejoin="round"></path></g></svg>