<svg width="24px" height="24px" viewBox="0 0 24 24" fill="none" xmlns="http://www.w3.org/2000/svg"><g><path d="M7.54297 9.49777L8.66797 10.2478L10.5396 7.75226M13.808 9.00002H16.308M7.54297 15.4989L8.66797 16.2489L10.5396 13.7534M20.25 10.75V5.75C20.25 4.64543 19.3546 3.75 18.25 3.75H5.75C4.64543 3.75 3.75 4.64543 3.75 5.75V18.25C3.75 19.3546 4.64543 20.25 5.75 20.25H11.75M16.8912 20.5781C17.0998 20.9777 17.518 21.2505 18 21.2505C18.4819 21.2505 18.9002 20.9777 19.1088 20.5781M21.25 20.25V17C21.25 15.2051 19.7949 13.75 18 13.75C16.2051 13.75 14.75 15.2051 14.75 17V20.25H21.25Z" stroke="currentColor" stroke-width="1.5" stroke-linecap="round" stroke-linejoin="round"></path></g></svg>