<svg width="24px" height="24px" viewBox="0 0 24 24" fill="none" xmlns="http://www.w3.org/2000/svg"><g><path d="M9.25 5.75H6.875C5.82559 5.75 5.30088 5.75 4.89489 5.94202C4.4766 6.13986 4.13986 6.4766 3.94202 6.89489C3.75 7.30088 3.75 7.82559 3.75 8.875V17.05C3.75 18.1701 3.75 18.7302 3.96799 19.158C4.15973 19.5343 4.46569 19.8403 4.84202 20.032C5.26984 20.25 5.8299 20.25 6.95 20.25H15.05C16.1701 20.25 16.7302 20.25 17.158 20.032C17.5343 19.8403 17.8403 19.5343 18.032 19.158C18.25 18.7302 18.25 18.1701 18.25 17.05V14" stroke="currentColor" stroke-width="1.5" stroke-linecap="round" stroke-linejoin="round"></path><path d="M13.75 3.75H20.25M20.25 3.75V10.25M20.25 3.75L11 13" stroke="currentColor" stroke-width="1.5" stroke-linecap="round" stroke-linejoin="round"></path></g></svg>