<svg width="24px" height="24px" viewBox="0 0 24 24" fill="none" xmlns="http://www.w3.org/2000/svg"><g><path d="M20.25 9.25V6.95C20.25 5.8299 20.25 5.26984 20.032 4.84202C19.8403 4.4657 19.5343 4.15973 19.158 3.96799C18.7302 3.75 18.1701 3.75 17.05 3.75L6.95 3.75C5.8299 3.75 5.26984 3.75 4.84202 3.96799C4.4657 4.15973 4.15973 4.46569 3.96799 4.84202C3.75 5.26984 3.75 5.82989 3.75 6.95L3.75 17.05C3.75 18.1701 3.75 18.7302 3.96799 19.158C4.15973 19.5343 4.46569 19.8403 4.84202 20.032C5.26984 20.25 5.82989 20.25 6.95 20.25H9.25" stroke="currentColor" stroke-width="1.5" stroke-linecap="round" stroke-linejoin="round"></path><path d="M20.25 13.75V20.25M20.25 20.25H13.75M20.25 20.25L11 11" stroke="currentColor" stroke-width="1.5" stroke-linecap="round" stroke-linejoin="round"></path></g></svg>