<svg width="24px" height="24px" viewBox="0 0 24 24" fill="none" xmlns="http://www.w3.org/2000/svg"><g><path d="M2.75 19.25H21.25" stroke="currentColor" stroke-width="1.5" stroke-linecap="round" stroke-linejoin="round"></path><path d="M3.75 19V13.375C3.75 12.4775 4.47754 11.75 5.375 11.75C6.27246 11.75 7 12.4775 7 13.375V19" stroke="currentColor" stroke-width="1.5" stroke-linecap="round" stroke-linejoin="round"></path><path d="M7 19V8.375C7 7.47754 7.72754 6.75 8.625 6.75C9.52246 6.75 10.25 7.47754 10.25 8.375V19" stroke="currentColor" stroke-width="1.5" stroke-linecap="round" stroke-linejoin="round"></path><path d="M13.75 19V11.375C13.75 10.4775 14.4775 9.75 15.375 9.75C16.2725 9.75 17 10.4775 17 11.375V19" stroke="currentColor" stroke-width="1.5" stroke-linecap="round" stroke-linejoin="round"></path><path d="M17 19V6.375C17 5.47754 17.7275 4.75 18.625 4.75C19.5225 4.75 20.25 5.47754 20.25 6.375V19" stroke="currentColor" stroke-width="1.5" stroke-linecap="round" stroke-linejoin="round"></path></g></svg>