<svg width="24px" height="24px" viewBox="0 0 24 24" fill="none" xmlns="http://www.w3.org/2000/svg"><g><path d="M4.95781 15.1331C4.94806 15.6477 4.74682 16.1594 4.35409 16.5522L4.33579 16.5705C3.96071 16.9455 3.75 17.4542 3.75 17.9847V18.25C3.75 19.3546 4.64543 20.25 5.75 20.25H6.01532C6.54576 20.25 7.05446 20.0393 7.42954 19.6642L7.44784 19.6459C8.2533 18.8405 9.5592 18.8405 10.3647 19.6459L10.383 19.6642C10.758 20.0393 11.2667 20.25 11.7972 20.25H12.2028C12.7333 20.25 13.242 20.0393 13.617 19.6642L13.6353 19.6459C14.4408 18.8405 15.7467 18.8405 16.5522 19.6459L16.5705 19.6642C16.9455 20.0393 17.4542 20.25 17.9847 20.25H18.25C19.3546 20.25 20.25 19.3546 20.25 18.25V17.9847C20.25 17.4542 20.0393 16.9455 19.6642 16.5705L19.6459 16.5522C19.2988 16.2051 19.1013 15.7651 19.0534 15.3122C18.99 14.7142 19.1875 14.0937 19.6459 13.6353L19.6642 13.617C20.0393 13.242 20.25 12.7333 20.25 12.2028V11.7972C20.25 11.2667 20.0393 10.758 19.6642 10.383L19.6459 10.3647C18.8405 9.5592 18.8405 8.2533 19.6459 7.44784L19.6642 7.42954C20.0393 7.05446 20.25 6.54576 20.25 6.01532V5.75C20.25 4.64543 19.3546 3.75 18.25 3.75H17.9847C17.4542 3.75 16.9455 3.96071 16.5705 4.33579L16.5522 4.35409C15.7467 5.15955 14.4408 5.15955 13.6353 4.35409L13.617 4.33579C13.242 3.96071 12.7333 3.75 12.2028 3.75H11.7972C11.2667 3.75 10.758 3.96071 10.383 4.33579L10.3647 4.35409C9.5592 5.15955 8.2533 5.15955 7.44784 4.35409L7.42954 4.33579C7.05446 3.96071 6.54576 3.75 6.01532 3.75H5.75C4.64543 3.75 3.75 4.64543 3.75 5.75V6.01532C3.75 6.54576 3.96071 7.05446 4.33579 7.42954L4.35409 7.44784C5.15955 8.2533 5.15955 9.5592 4.35409 10.3647L4.33579 10.383C3.96071 10.758 3.75 11.2667 3.75 11.7972V12.2028C3.75 12.7333 3.96071 13.242 4.33579 13.617L4.35409 13.6353C4.76682 14.0481 4.96806 14.5922 4.95781 15.1331Z" stroke="currentColor" stroke-width="1.5" stroke-linejoin="round"></path><path d="M5.21484 14.9508C6.2421 14.2402 7.15405 13.8447 7.99215 13.6659C10.6061 13.1079 12.5018 14.6567 14.9374 15.3221C16.0693 15.6313 17.3177 15.7497 18.8091 15.3773" stroke="currentColor" stroke-width="1.5" stroke-linejoin="round"></path><path d="M14.9368 15.3221C15.746 14.5483 16.25 13.458 16.25 12.25C16.25 9.90279 14.3472 8 12 8C9.65279 8 7.75 9.90279 7.75 12.25C7.75 12.7464 7.83511 13.223 7.99155 13.6659" stroke="currentColor" stroke-width="1.5" stroke-linejoin="round"></path></g></svg>