<svg width="24px" height="24px" viewBox="0 0 24 24" fill="none" xmlns="http://www.w3.org/2000/svg"><g><path d="M9.25 15.7501L4.75 20.2501M7.25 10.7501L2.75 15.2501M16.25 15.7501L11.75 20.2501M12.7009 4.81108L10.2236 5.3848C9.48933 5.55487 9.2 6.44534 9.69411 7.01455L11.361 8.93478C11.5385 9.13927 11.6255 9.407 11.6021 9.67677L11.3822 12.21C11.3171 12.961 12.0745 13.5113 12.7686 13.2173L15.1099 12.2254C15.3592 12.1197 15.6408 12.1197 15.8901 12.2254L18.2314 13.2173C18.9255 13.5113 19.6829 12.961 19.6178 12.21L19.3979 9.67677C19.3745 9.407 19.4615 9.13927 19.639 8.93478L21.3059 7.01455C21.8 6.44534 21.5107 5.55487 20.7764 5.3848L18.2991 4.81108C18.0353 4.74998 17.8076 4.58451 17.668 4.3525L16.3568 2.17382C15.9681 1.528 15.0319 1.528 14.6432 2.17382L13.332 4.3525C13.1924 4.58451 12.9647 4.74998 12.7009 4.81108Z" stroke="currentColor" stroke-width="1.5" stroke-linecap="round" stroke-linejoin="round"></path></g></svg>