<svg width="24px" height="24px" viewBox="0 0 24 24" fill="none" xmlns="http://www.w3.org/2000/svg"><g><path d="M18.1266 3.94979C18.2574 3.12105 17.3931 2.49342 16.6449 2.87383L12.5614 4.95006C12.2684 5.09899 11.9219 5.09899 11.629 4.95006L7.54551 2.87383C6.79732 2.49341 5.93299 3.12105 6.06378 3.94979L6.77759 8.47293C6.82879 8.79739 6.72172 9.12675 6.48948 9.35916L3.25192 12.5991C2.65873 13.1928 2.98887 14.2083 3.81789 14.3401L8.34256 15.0593C8.66713 15.1109 8.94745 15.3144 9.09684 15.607L11.1794 19.6856C11.561 20.4329 12.6294 20.4329 13.011 19.6856L15.0935 15.607C15.2429 15.3144 15.5233 15.1109 15.8478 15.0593L20.3725 14.3401C21.2015 14.2083 21.5317 13.1928 20.9385 12.5991L17.7009 9.35916C17.4687 9.12675 17.3616 8.79739 17.4128 8.47293L18.1266 3.94979Z" stroke="currentColor" stroke-width="1.5" stroke-linecap="round" stroke-linejoin="round"></path><path d="M8.66709 15.5642L4.40039 21.2499" stroke="currentColor" stroke-width="1.5" stroke-linecap="round" stroke-linejoin="round"></path></g></svg>