<svg width="24px" height="24px" viewBox="0 0 24 24" fill="none" xmlns="http://www.w3.org/2000/svg"><g><path d="M21.1802 14.2266C21.9399 18.7712 16.3268 20.8872 12.7573 21.7864C8.70088 22.8082 4.78846 22.473 3.10825 17.3375C2.59092 15.7563 2.63541 13.9971 3.23176 12.4548C4.26786 9.77525 6.72276 8.3197 9.13234 8.86265C9.51976 8.94995 9.87644 9.13422 10.2159 9.34025L12.5173 10.7369C12.8568 10.9429 13.2136 11.1266 13.6013 11.2124C16.642 11.8857 19.8643 9.58582 21.1802 14.2266Z" stroke="currentColor" stroke-width="1.5" stroke-linecap="round" stroke-linejoin="round"></path><path d="M13 2C10.823 3.8741 14.2721 5.05844 12 6.5" stroke="currentColor" stroke-width="1.5" stroke-linecap="round" stroke-linejoin="round"></path><path d="M8 3C5.82302 4.45763 9.27207 5.37878 7 6.5" stroke="currentColor" stroke-width="1.5" stroke-linecap="round" stroke-linejoin="round"></path><path d="M17.5 5C15.323 6.45763 18.7721 7.37878 16.5 8.5" stroke="currentColor" stroke-width="1.5" stroke-linecap="round" stroke-linejoin="round"></path><path d="M10 9.75C11 15.25 10.0011 17.6427 6.5 20.75" stroke="currentColor" stroke-width="1.5" stroke-linecap="round" stroke-linejoin="round"></path><path d="M9.90039 16.9644C12.5005 16.5 15.5004 16.393 18.0004 19.25" stroke="currentColor" stroke-width="1.5" stroke-linecap="round" stroke-linejoin="round"></path></g></svg>