<svg width="24px" height="24px" viewBox="0 0 24 24" fill="none" xmlns="http://www.w3.org/2000/svg"><g><path d="M4 10.5C4 6.08172 7 2.5 12 2.5C17 2.5 20 6.08172 20 10.5C20 13.2014 19.6713 15.2971 17.9829 17.377C17.746 17.6687 17.5226 17.9722 17.3044 18.2797C16.5969 19.2768 14.7151 21.5 12 21.5C9.28494 21.5 7.40313 19.2768 6.69562 18.2797C6.47744 17.9722 6.25396 17.6687 6.01714 17.377C4.32873 15.2971 4 13.2014 4 10.5Z" stroke="currentColor" stroke-width="1.5" stroke-linecap="round" stroke-linejoin="round"></path><path d="M11 10.5C11.6295 10.1852 12.3705 10.1852 13 10.5" stroke="currentColor" stroke-width="1.5" stroke-linecap="round" stroke-linejoin="round"></path><path d="M4.5 9.5C5.33333 8.66667 6.6 5.45 7 4.25" stroke="currentColor" stroke-width="1.5" stroke-linecap="round" stroke-linejoin="round"></path><path d="M19.5 9.5C18.6667 8.66667 17.4 5.45 17 4.25" stroke="currentColor" stroke-width="1.5" stroke-linecap="round" stroke-linejoin="round"></path><path d="M9.5 3.25C11.5 4.25 12.5 4.25 14.5 3.25" stroke="currentColor" stroke-width="1.5" stroke-linecap="round" stroke-linejoin="round"></path><path d="M7 10.5L4.5 10M17 10.5L19.5 10" stroke="currentColor" stroke-width="1.5" stroke-linecap="round" stroke-linejoin="round"></path><path d="M8 19.5V18.25C8 17.1454 8.89543 16.25 10 16.25H14C15.1046 16.25 16 17.1454 16 18.25V19.5" stroke="currentColor" stroke-width="1.5" stroke-linecap="round" stroke-linejoin="round"></path><path d="M13.75 20.75C13.0781 20.1537 10.9219 20.1536 10.25 20.7499" stroke="currentColor" stroke-width="1.5" stroke-linecap="round" stroke-linejoin="round"></path><path d="M17 11C17 12.1046 16.1046 13 15 13C13.8954 13 13 12.1046 13 11C13 9.89543 13.8954 9 15 9C16.1046 9 17 9.89543 17 11Z" stroke="currentColor" stroke-width="1.5" stroke-linecap="round" stroke-linejoin="round"></path><path d="M11 11C11 12.1046 10.1046 13 9 13C7.89543 13 7 12.1046 7 11C7 9.89543 7.89543 9 9 9C10.1046 9 11 9.89543 11 11Z" stroke="currentColor" stroke-width="1.5" stroke-linecap="round" stroke-linejoin="round"></path></g></svg>