<svg width="24px" height="24px" viewBox="0 0 24 24" fill="none" xmlns="http://www.w3.org/2000/svg"><g><path d="M12 21.25C17.1086 21.25 21.25 17.1086 21.25 12C21.25 11.8903 21.2481 11.7811 21.2443 11.6724C21.2285 11.2182 21.0184 10.7971 20.697 10.4757L13.5243 3.30298C13.2029 2.98158 12.7818 2.7715 12.3276 2.75569C12.2189 2.75191 12.1097 2.75 12 2.75C6.89137 2.75 2.75 6.89137 2.75 12C2.75 17.1086 6.89137 21.25 12 21.25Z" stroke="currentColor" stroke-width="1.5" stroke-linejoin="round"></path><path d="M13.0416 3C12.4995 7.5 16.4993 11.5 20.9995 10.9578" stroke="currentColor" stroke-width="1.5"></path><path d="M14 5.5L18.5 10" stroke="currentColor" stroke-width="2" stroke-linecap="square"></path></g></svg>