<svg width="24px" height="24px" viewBox="0 0 24 24" fill="none" xmlns="http://www.w3.org/2000/svg"><g><path d="M16.5 10C16.5 11.2426 15.4926 12.25 14.25 12.25C13.565 12.25 12.9516 11.9439 12.5389 11.4611C12.2029 11.068 12 10.5577 12 10C12 8.75736 13.0074 7.75 14.25 7.75C15.4926 7.75 16.5 8.75736 16.5 10Z" stroke="currentColor" stroke-width="1.5" stroke-linecap="round" stroke-linejoin="round"></path><path d="M14.25 12.25V20.25H5.75C4.64543 20.25 3.75 19.3546 3.75 18.25V5.75C3.75 4.64543 4.64543 3.75 5.75 3.75H14.25V7.75" stroke="currentColor" stroke-width="1.5" stroke-linecap="round" stroke-linejoin="round"></path><path d="M12.5389 11.4612L9 15.0001L7 13.0001L4 16.0001" stroke="currentColor" stroke-width="1.5" stroke-linecap="round" stroke-linejoin="round"></path><path d="M14.25 3.75H18.25C19.3546 3.75 20.25 4.64543 20.25 5.75V18.25C20.25 19.3546 19.3546 20.25 18.25 20.25H14.25" stroke="currentColor" stroke-width="1.5" stroke-linecap="round" stroke-linejoin="round"></path></g></svg>