<svg width="24px" height="24px" viewBox="0 0 24 24" fill="none" xmlns="http://www.w3.org/2000/svg"><g><path d="M3.75 10V18.2499C3.75 19.3545 4.64543 20.2499 5.75 20.2499H18.25C19.3546 20.2499 20.25 19.3545 20.25 18.2499V10" stroke="currentColor" stroke-width="1.5" stroke-linecap="round" stroke-linejoin="round"></path><path d="M14.6173 3.75H9.49961L9.20073 8.23319C9.09189 9.86584 10.3868 11.25 12.0231 11.25C13.6419 11.25 14.9305 9.89404 14.8481 8.27736L14.6173 3.75Z" stroke="currentColor" stroke-width="1.5" stroke-linecap="round" stroke-linejoin="round"></path><path d="M9.49958 3.75H5.50061C4.49821 3.75 3.65064 4.49206 3.51816 5.48567L3.20245 7.85351C2.96265 9.65196 4.37099 11.25 6.18536 11.25C7.76475 11.25 9.08122 10.0255 9.18628 8.44956L9.49958 3.75Z" stroke="currentColor" stroke-width="1.5" stroke-linecap="round" stroke-linejoin="round"></path><path d="M18.4391 3.75H14.6172L14.8558 8.43099C14.9363 10.0106 16.2405 11.25 17.8222 11.25C19.6306 11.25 21.0193 9.64764 20.7622 7.85761L20.4188 5.46574C20.2774 4.48108 19.4339 3.75 18.4391 3.75Z" stroke="currentColor" stroke-width="1.5" stroke-linecap="round" stroke-linejoin="round"></path></g></svg>