<svg width="24px" height="24px" viewBox="0 0 24 24" fill="none" xmlns="http://www.w3.org/2000/svg"><g><path d="M4.75 17V16.75C4.75 15.6454 5.64543 14.75 6.75 14.75H17.25C18.3546 14.75 19.25 15.6454 19.25 16.75V17M19.25 17V4.75C19.25 3.64543 18.3546 2.75 17.25 2.75H6.75C5.64543 2.75 4.75 3.64543 4.75 4.75V19.25C4.75 20.3546 5.64543 21.25 6.75 21.25H17.25C18.3546 21.25 19.25 20.3546 19.25 19.25V17Z" stroke="currentColor" stroke-width="1.5" stroke-linejoin="round"></path><path d="M13 17.25C13.4142 17.25 13.75 17.5858 13.75 18C13.75 18.4142 13.4142 18.75 13 18.75C12.5858 18.75 12.25 18.4142 12.25 18C12.25 17.5858 12.5858 17.25 13 17.25ZM16 17.25C16.4142 17.25 16.75 17.5858 16.75 18C16.75 18.4142 16.4142 18.75 16 18.75C15.5858 18.75 15.25 18.4142 15.25 18C15.25 17.5858 15.5858 17.25 16 17.25Z" fill="currentColor" stroke="currentColor" stroke-width="0.5" stroke-linecap="square"></path></g></svg>