<svg width="24px" height="24px" viewBox="0 0 24 24" fill="none" xmlns="http://www.w3.org/2000/svg"><g><path d="M20.25 11.4087V18.25C20.25 19.3546 19.3546 20.25 18.25 20.25H5.75C4.64543 20.25 3.75 19.3546 3.75 18.25V11.4087" stroke="currentColor" stroke-width="1.5" stroke-linecap="round" stroke-linejoin="round"></path><path d="M9.50026 3.75H14.5003M9.50026 3.75L8.90923 8.77398C8.69156 10.6243 10.1373 12.25 12.0003 12.25C13.8633 12.25 15.309 10.6243 15.0914 8.77397L14.5003 3.75M9.50026 3.75H5.88559C5.01164 3.75 4.2389 4.31745 3.9773 5.15132L2.97261 8.35377C2.36663 10.2853 3.80934 12.25 5.83373 12.25C7.3543 12.25 8.63416 11.1119 8.81182 9.60174L9.50026 3.75ZM14.5003 3.75H18.1149C18.9889 3.75 19.7616 4.31745 20.0232 5.15132L21.0279 8.35377C21.6339 10.2853 20.1912 12.25 18.1668 12.25C16.6462 12.25 15.3664 11.1119 15.1887 9.60174L14.5003 3.75Z" stroke="currentColor" stroke-width="1.5" stroke-linecap="round" stroke-linejoin="round"></path></g></svg>