<svg width="24px" height="24px" viewBox="0 0 24 24" fill="none" xmlns="http://www.w3.org/2000/svg"><g><path d="M2.75 15V18.25C2.75 19.3546 3.64543 20.25 4.75 20.25H11.25C12.3546 20.25 13.25 19.3546 13.25 18.25V15" stroke="currentColor" stroke-width="1.5" stroke-linecap="round" stroke-linejoin="round"></path><path d="M9.75016 10.75L10.2305 13.6321C10.3861 14.5657 11.1939 15.25 12.1404 15.25C13.5101 15.25 14.4468 13.8665 13.9381 12.5947L13.4683 11.4203C13.1856 10.7135 12.501 10.25 11.7397 10.25H4.2606C3.49934 10.25 2.81477 10.7135 2.53204 11.4203L2.06227 12.5947C1.55354 13.8665 2.49019 15.25 3.85997 15.25C4.80645 15.25 5.61421 14.5657 5.76981 13.6321L6.25016 10.75" stroke="currentColor" stroke-width="1.5" stroke-linecap="round" stroke-linejoin="round"></path><path d="M9.75018 10.75L10.0892 12.784C10.3043 14.0749 9.30886 15.25 8.00018 15.25C6.69149 15.25 5.69603 14.0749 5.91118 12.784L6.25018 10.75" stroke="currentColor" stroke-width="1.5" stroke-linecap="round" stroke-linejoin="round"></path><path d="M18.089 6.28394C18.3041 7.57481 17.3087 8.74992 16 8.74992" stroke="currentColor" stroke-width="1.5" stroke-linecap="round" stroke-linejoin="round"></path><path d="M17.75 14.25H19.25C20.3546 14.25 21.25 13.3546 21.25 12.25V8.75" stroke="currentColor" stroke-width="1.5" stroke-linecap="round" stroke-linejoin="round"></path><path d="M17.7504 4.25L18.2307 7.13212C18.3863 8.06573 19.1941 8.75 20.1406 8.75C21.5104 8.75 22.447 7.36654 21.9383 6.09474L21.5033 5.00722C21.1996 4.2479 20.4641 3.75 19.6463 3.75H12.3545C11.5367 3.75 10.8012 4.2479 10.4975 5.00722L10.0625 6.09474M13.9171 6.25L14.2504 4.25" stroke="currentColor" stroke-width="1.5" stroke-linecap="round" stroke-linejoin="round"></path></g></svg>