<svg width="24px" height="24px" viewBox="0 0 24 24" fill="none" xmlns="http://www.w3.org/2000/svg"><g><path d="M3.75 11.25V18.25C3.75 19.3546 4.64543 20.25 5.75 20.25H18.25C19.3546 20.25 20.25 19.3546 20.25 18.25V11.25" stroke="currentColor" stroke-width="1.5" stroke-linecap="round" stroke-linejoin="round"></path><path d="M7.36894 8.83929C7.36894 10.2386 6.27932 11.25 4.93521 11.25C3.31829 11.25 2.15092 9.63877 2.59512 8.02015L3.35031 5.22785C3.58618 4.35571 4.37747 3.75 5.28095 3.75H18.7191C19.6225 3.75 20.4138 4.35571 20.6497 5.22785L21.4049 8.02015C21.8491 9.63876 20.6817 11.25 19.0648 11.25C17.7207 11.25 16.6311 10.2386 16.6311 8.83929M7.36894 8.83929C7.36894 10.1707 8.40563 11.25 9.68447 11.25C10.9633 11.25 12 10.1707 12 8.83929M7.36894 8.83929L7.369 8.82857M16.6311 8.83929C16.6311 10.1707 15.5944 11.25 14.3155 11.25C13.0367 11.25 12 10.1707 12 8.83929M16.6311 8.83929V8.82857M12 8.83929V8.82857" stroke="currentColor" stroke-width="1.5" stroke-linecap="round" stroke-linejoin="round"></path></g></svg>