<svg width="24px" height="24px" viewBox="0 0 24 24" fill="none" xmlns="http://www.w3.org/2000/svg"><g><path d="M3.75 11.7249C3.75 9.14901 4.62976 7.09775 7.12982 6.03222C8.34327 5.51505 9.93844 6.26365 12 6.26365C14.0616 6.26365 15.6567 5.51505 16.8702 6.03222C19.3702 7.09775 20.25 9.14901 20.25 11.7249C20.25 15.9101 15.6667 21.2501 12 21.2501C8.33333 21.2501 3.75 15.9101 3.75 11.7249Z" stroke="currentColor" stroke-width="1.5" stroke-linecap="round" stroke-linejoin="round"></path><path d="M12 6C12 3.6 12 2 12 2" stroke="currentColor" stroke-width="1.5" stroke-linecap="round" stroke-linejoin="round"></path><path d="M12.25 5.39091C12.7724 2.89936 16.5877 2.3337 17.8588 2.53844C19.5369 2.78858 17.4305 5.54778 17.0836 6" stroke="currentColor" stroke-width="1.5" stroke-linecap="round" stroke-linejoin="round"></path><path d="M7.16636 6C6.81949 5.54778 4.71312 2.78858 6.39121 2.53844C7.66225 2.3337 11.4776 2.89936 12 5.39091" stroke="currentColor" stroke-width="1.5" stroke-linecap="round" stroke-linejoin="round"></path><ellipse cx="12" cy="11" rx="1" ry="1.5" fill="currentColor"></ellipse><ellipse cx="8" cy="11" rx="1" ry="1.5" fill="currentColor"></ellipse><ellipse cx="16" cy="11" rx="1" ry="1.5" fill="currentColor"></ellipse><ellipse cx="14" cy="15.5" rx="1" ry="1.5" fill="currentColor"></ellipse><ellipse cx="10" cy="15.5" rx="1" ry="1.5" fill="currentColor"></ellipse></g></svg>