<svg width="24px" height="24px" viewBox="0 0 24 24" fill="none" xmlns="http://www.w3.org/2000/svg"><g><path d="M14.5 10.75C14.5 12.1307 13.3807 13.25 12 13.25C10.6193 13.25 9.5 12.1307 9.5 10.75C9.5 9.36929 10.6193 8.25 12 8.25C13.3807 8.25 14.5 9.36929 14.5 10.75Z" stroke="currentColor" stroke-width="1.5" stroke-linecap="round" stroke-linejoin="round"></path><path d="M7.75 19C7.95907 16.8976 9.62555 15.25 12 15.25C14.3744 15.25 16.0409 16.8976 16.25 19" stroke="currentColor" stroke-width="1.5" stroke-linecap="round" stroke-linejoin="round"></path><path d="M21.25 6.75C21.25 5.64543 20.3546 4.75 19.25 4.75H4.75C3.64543 4.75 2.75 5.64543 2.75 6.75V17.25C2.75 18.3546 3.64543 19.25 4.75 19.25H19.25C20.3546 19.25 21.25 18.3546 21.25 17.25V6.75Z" stroke="currentColor" stroke-width="1.5" stroke-linecap="round" stroke-linejoin="round"></path><path d="M18.25 8.25C18.25 8.52614 18.0261 8.75 17.75 8.75C17.4739 8.75 17.25 8.52614 17.25 8.25C17.25 7.97386 17.4739 7.75 17.75 7.75C18.0261 7.75 18.25 7.97386 18.25 8.25Z" stroke="currentColor" stroke-width="1.5" stroke-linecap="round" stroke-linejoin="round"></path><path d="M17.5 8.25H18" stroke="currentColor" stroke-width="1.5" stroke-linecap="round" stroke-linejoin="round"></path></g></svg>