<svg width="24px" height="24px" viewBox="0 0 24 24" fill="none" xmlns="http://www.w3.org/2000/svg"><g><path d="M10.8595 3.09527C11.6349 2.3452 12.8654 2.3452 13.6407 3.09527L14.1432 3.58137C14.5866 4.01029 15.2031 4.21061 15.8139 4.12421L16.5061 4.0263C17.5743 3.87521 18.5698 4.59848 18.7562 5.66103L18.8769 6.34965C18.9835 6.95727 19.3646 7.4817 19.9095 7.77083L20.5271 8.09851C21.48 8.60412 21.8603 9.77439 21.3865 10.7436L21.0795 11.3717C20.8086 11.9259 20.8086 12.5741 21.0795 13.1283L21.3865 13.7564C21.8603 14.7256 21.48 15.8959 20.5271 16.4015L19.9095 16.7292C19.3646 17.0183 18.9835 17.5427 18.8769 18.1504L18.7562 18.839C18.5698 19.9015 17.5743 20.6248 16.5061 20.4737L15.8139 20.3758C15.2031 20.2894 14.5866 20.4897 14.1432 20.9186L13.6407 21.4047C12.8654 22.1548 11.6349 22.1548 10.8595 21.4047L10.357 20.9186C9.91367 20.4897 9.29717 20.2894 8.68636 20.3758L7.99411 20.4737C6.92597 20.6248 5.93048 19.9015 5.74409 18.839L5.62329 18.1504C5.51671 17.5427 5.13569 17.0183 4.59075 16.7292L3.97316 16.4015C3.02021 15.8959 2.63997 14.7256 3.11373 13.7564L3.42077 13.1283C3.69168 12.5741 3.69168 11.9259 3.42077 11.3717L3.11373 10.7436C2.63997 9.77439 3.02021 8.60412 3.97316 8.09851L4.59075 7.77083C5.13569 7.4817 5.51671 6.95727 5.62329 6.34966L5.74409 5.66103C5.93048 4.59848 6.92597 3.87521 7.99411 4.0263L8.68636 4.12421C9.29717 4.21061 9.91367 4.01029 10.357 3.58137L10.8595 3.09527Z" stroke="currentColor" stroke-width="1.5" stroke-linejoin="round"></path><path d="M12.0448 8.55081C12.1441 8.40592 12.3579 8.40592 12.4572 8.55081L13.6114 10.2349C13.6439 10.2824 13.6918 10.3171 13.7469 10.3334L15.7053 10.9107C15.8738 10.9604 15.9399 11.1637 15.8328 11.303L14.5877 12.9211C14.5527 12.9667 14.5344 13.0229 14.536 13.0804L14.5921 15.1213C14.5969 15.2969 14.4239 15.4226 14.2584 15.3638L12.3347 14.6797C12.2806 14.6604 12.2214 14.6604 12.1672 14.6797L10.2435 15.3638C10.078 15.4226 9.90503 15.2969 9.90986 15.1213L9.966 13.0804C9.96758 13.0229 9.94929 12.9667 9.91423 12.9211L8.66919 11.303C8.56208 11.1637 8.62816 10.9604 8.79664 10.9107L10.755 10.3334C10.8102 10.3171 10.858 10.2824 10.8905 10.2349L12.0448 8.55081Z" stroke="currentColor" stroke-width="1.5" stroke-linejoin="round"></path></g></svg>