<svg width="24px" height="24px" viewBox="0 0 24 24" fill="none" xmlns="http://www.w3.org/2000/svg"><g><path d="M11.1815 3.12354C11.6142 2.62549 12.3875 2.62549 12.8203 3.12354L14.1899 4.69991C14.4356 4.9826 14.8095 5.11873 15.1794 5.06005L17.2419 4.73288C17.8935 4.62951 18.4859 5.12659 18.4973 5.78628L18.5332 7.87425C18.5397 8.24868 18.7387 8.59335 19.0597 8.78615L20.85 9.86126C21.4156 10.2009 21.5499 10.9625 21.1346 11.4752L19.82 13.0977C19.5842 13.3887 19.5151 13.7807 19.6371 14.1347L20.3175 16.1091C20.5324 16.7329 20.1458 17.4026 19.4981 17.5283L17.4481 17.9263C17.0804 17.9976 16.7756 18.2535 16.6414 18.6031L15.8935 20.5529C15.6572 21.1689 14.9306 21.4334 14.3536 21.1134L12.5274 20.1005C12.1999 19.9189 11.8019 19.9189 11.4744 20.1005L9.64819 21.1134C9.0712 21.4334 8.34452 21.1689 8.10822 20.5529L7.36032 18.6031C7.2262 18.2535 6.92132 17.9976 6.55369 17.9263L4.50369 17.5283C3.85599 17.4026 3.46933 16.7329 3.68429 16.1091L4.36464 14.1347C4.48665 13.7807 4.41754 13.3887 4.18179 13.0977L2.86721 11.4752C2.45186 10.9625 2.58615 10.2009 3.15178 9.86126L4.94204 8.78615C5.26309 8.59335 5.46208 8.24868 5.46853 7.87425L5.50447 5.78628C5.51583 5.12659 6.10822 4.62951 6.75987 4.73288L8.82236 5.06005C9.19222 5.11873 9.56621 4.98261 9.81183 4.69992L11.1815 3.12354Z" stroke="currentColor" stroke-width="1.5" stroke-linecap="round" stroke-linejoin="round"></path><path d="M9.5 12.75L11 14.25L14.5 10.75" stroke="currentColor" stroke-width="1.5" stroke-linecap="round" stroke-linejoin="round"></path></g></svg>