<svg width="24px" height="24px" viewBox="0 0 24 24" fill="none" xmlns="http://www.w3.org/2000/svg"><g><path d="M15.4996 16.9999C16.7398 16.9999 17.7691 16.0968 17.9658 14.9124C18.0092 14.6508 17.8943 14.3945 17.7067 14.207L15.7925 12.2928C15.605 12.1053 15.3488 11.9903 15.0871 12.0338C13.9027 12.2304 12.9996 13.2597 12.9996 14.4999C12.9996 15.8806 14.1189 16.9999 15.4996 16.9999Z" fill="currentColor"></path><path d="M6.20511 12.8029C6.01622 12.284 6.2838 11.7101 6.80278 11.5212L9.78826 10.4346C10.3072 10.2457 10.8811 10.5133 11.07 11.0323L11.4528 12.084C11.6417 12.6029 11.3741 13.1768 10.8551 13.3657L7.86961 14.4523C7.35063 14.6412 6.77679 14.3736 6.5879 13.8546L6.20511 12.8029Z" fill="currentColor"></path><path d="M21.25 18.25V8.75C21.25 7.64543 20.3546 6.75 19.25 6.75H4.75C3.64543 6.75 2.75 7.64543 2.75 8.75V18.25C2.75 19.3546 3.64543 20.25 4.75 20.25H19.25C20.3546 20.25 21.25 19.3546 21.25 18.25Z" stroke="currentColor" stroke-width="1.5"></path><path d="M7.75 6.75V4.75C7.75 3.64543 8.64543 2.75 9.75 2.75H14.25C15.3546 2.75 16.25 3.64543 16.25 4.75V6.75" stroke="currentColor" stroke-width="1.5"></path></g></svg>