<svg width="24px" height="24px" viewBox="0 0 24 24" fill="none" xmlns="http://www.w3.org/2000/svg"><g><path d="M20.25 7.75V18.25C20.25 19.3546 19.3546 20.25 18.25 20.25H17.25H6.75H5.75C4.64543 20.25 3.75 19.3546 3.75 18.25V7.75C3.75 6.64543 4.64543 5.75 5.75 5.75H7.75C8.30228 5.75 8.75 5.30228 8.75 4.75C8.75 3.64543 9.64543 2.75 10.75 2.75H13.25C14.3546 2.75 15.25 3.64543 15.25 4.75C15.25 5.30228 15.6977 5.75 16.25 5.75H18.25C19.3546 5.75 20.25 6.64543 20.25 7.75Z" stroke="currentColor" stroke-width="1.5" stroke-linecap="round" stroke-linejoin="round"></path><path d="M17.25 20.25V21.25" stroke="currentColor" stroke-width="1.5" stroke-linecap="round" stroke-linejoin="round"></path><path d="M6.75 20.25V21.25" stroke="currentColor" stroke-width="1.5" stroke-linecap="round" stroke-linejoin="round"></path><path d="M8.75 5.75H15.25" stroke="currentColor" stroke-width="1.5" stroke-linecap="round" stroke-linejoin="round"></path><path d="M8.75 9.75V16.25" stroke="currentColor" stroke-width="1.5" stroke-linecap="round" stroke-linejoin="round"></path><path d="M15.25 9.75V16.25" stroke="currentColor" stroke-width="1.5" stroke-linecap="round" stroke-linejoin="round"></path></g></svg>