<svg width="24px" height="24px" viewBox="0 0 24 24" fill="none" xmlns="http://www.w3.org/2000/svg"><g><path d="M5.83592 12.005C5.83592 10.3019 6.52626 8.75999 7.64238 7.64387M7.64238 16.3662C8.75851 17.4823 10.3004 18.1727 12.0036 18.1727M10.9756 2.81006C9.01149 3.02718 7.23267 3.85918 5.83592 5.1093M2.80859 13.0332C3.0079 14.8357 3.72505 16.4822 4.80798 17.8204M10.9756 9.0967C10.5375 9.25155 10.1448 9.5026 9.82298 9.82446C9.26491 10.3825 8.91975 11.1535 8.91975 12.005C8.91975 12.8566 9.26491 13.6276 9.82298 14.1856C10.381 14.7437 11.152 15.0889 12.0036 15.0889C12.8551 15.0889 13.6261 14.7437 14.1842 14.1856C14.506 13.8638 14.757 13.4712 14.9118 13.0332M13.0313 21.2001C14.9955 20.983 16.7744 20.151 18.1712 18.9008M16.6291 16.0849C17.5888 14.9976 18.1712 13.5694 18.1712 12.005C18.1712 10.4407 17.5888 9.01245 16.6291 7.92517M18.8995 5.83766C20.1496 7.23443 20.9815 9.01324 21.1986 10.9774" stroke="currentColor" stroke-width="1.5" stroke-linecap="round"></path></g></svg>