<svg width="24px" height="24px" viewBox="0 0 24 24" fill="none" xmlns="http://www.w3.org/2000/svg"><g><path d="M12 7.88889C14.2705 7.88889 16.1111 9.7295 16.1111 12M12 7.88889C10.8647 7.88889 9.83697 8.34904 9.09301 9.09301M12 7.88889V2.75C17.1086 2.75 21.25 6.89137 21.25 12H16.1111M16.1111 12C16.1111 13.1353 15.651 14.163 14.907 14.907M9.09301 9.09301L5.45926 5.45926C3.78534 7.13318 2.75 9.44568 2.75 12C2.75 14.5543 3.78534 16.8668 5.45926 18.5407M9.09301 9.09301C8.34904 9.83697 7.88889 10.8647 7.88889 12C7.88889 13.1353 8.34904 14.163 9.09301 14.907M14.907 14.907C14.163 15.651 13.1353 16.1111 12 16.1111M14.907 14.907L18.5407 18.5407C16.8668 20.2147 14.5543 21.25 12 21.25M12 16.1111C10.8647 16.1111 9.83697 15.651 9.09301 14.907M12 16.1111V21.25M9.09301 14.907L5.45926 18.5407M5.45926 18.5407C7.13318 20.2147 9.44568 21.25 12 21.25" stroke="currentColor" stroke-width="1.5" stroke-linejoin="round"></path></g></svg>