<svg width="24px" height="24px" viewBox="0 0 24 24" fill="none" xmlns="http://www.w3.org/2000/svg"><g><path d="M5.75 9.75H4.25C3.42157 9.75 2.75 10.4216 2.75 11.25V14.75C2.75 15.5784 3.42157 16.25 4.25 16.25H5.75V9.75Z" stroke="currentColor" stroke-width="1.5" stroke-linecap="round" stroke-linejoin="round"></path><path d="M19.75 9.75H18.25V16.25H19.75C20.5784 16.25 21.25 15.5784 21.25 14.75V11.25C21.25 10.4216 20.5784 9.75 19.75 9.75Z" stroke="currentColor" stroke-width="1.5" stroke-linecap="round" stroke-linejoin="round"></path><path d="M19.25 9.75V9.5C19.25 5.77208 16.0041 2.75 12 2.75C7.99594 2.75 4.75 5.77208 4.75 9.5V9.75" stroke="currentColor" stroke-width="1.5" stroke-linecap="round" stroke-linejoin="round"></path><path d="M12 19.6429V20.25C12 20.8023 12.4477 21.25 13 21.25H15C17.4853 21.25 19.5 19.2353 19.5 16.75" stroke="currentColor" stroke-width="1.5" stroke-linecap="round" stroke-linejoin="round"></path></g></svg>