<svg width="24px" height="24px" viewBox="0 0 24 24" fill="none" xmlns="http://www.w3.org/2000/svg"><g><path d="M17.5 5C17.5 6.24264 16.4926 7.25 15.25 7.25C14.0074 7.25 13 6.24264 13 5C13 3.75736 14.0074 2.75 15.25 2.75C16.4926 2.75 17.5 3.75736 17.5 5Z" stroke="currentColor" stroke-width="1.5"></path><path d="M14.5 7.206L14.7896 6.51417V6.51417L14.5 7.206ZM17 9.206L16.5452 9.80239V9.80239L17 9.206ZM19.7956 10.7178L20.0937 10.0295V10.0295L19.7956 10.7178ZM18.9184 13.0339L18.6468 13.733V13.733L18.9184 13.0339ZM15.5 11.706L15.7716 11.0069C15.4107 10.8667 15.0023 11.0243 14.8292 11.3706L15.5 11.706ZM14.5 13.706L13.8292 13.3706C13.6848 13.6593 13.7414 14.0081 13.9697 14.2363L14.5 13.706ZM16.7851 15.9911L16.2548 16.5215V16.5215L16.7851 15.9911ZM8.20117 10.5135L7.9657 9.8014H7.9657L8.20117 10.5135ZM9.5 10.206L9.42283 9.45998H9.42283L9.5 10.206ZM11 10.206L11.6431 10.5919C11.7776 10.3677 11.7857 10.0897 11.6644 9.85809C11.5431 9.62649 11.31 9.47476 11.0492 9.45762L11 10.206ZM9.78501 12.231L9.14189 11.8451V11.8451L9.78501 12.231ZM17.3483 17.7055L16.6068 17.593V17.593L17.3483 17.7055ZM7.07869 8.38538L7.4318 9.04706H7.4318L7.07869 8.38538ZM20.4716 12.3939L21.1569 12.6988V12.6988L20.4716 12.3939ZM14.5 7.206L14.2104 7.89783C14.6683 8.08952 14.9675 8.3316 15.2882 8.64183C15.5999 8.94327 16.0015 9.38774 16.5452 9.80239L17 9.206L17.4548 8.60962C17.0043 8.26612 16.7326 7.95199 16.3311 7.56366C15.9387 7.18412 15.485 6.80527 14.7896 6.51417L14.5 7.206ZM17 9.206L16.5452 9.80239C17.3734 10.4339 18.6149 11.0237 19.4975 11.406L19.7956 10.7178L20.0937 10.0295C19.2154 9.6491 18.1242 9.12007 17.4548 8.60962L17 9.206ZM18.9184 13.0339L19.19 12.3348L15.7716 11.0069L15.5 11.706L15.2284 12.4051L18.6468 13.733L18.9184 13.0339ZM15.5 11.706L14.8292 11.3706L13.8292 13.3706L14.5 13.706L15.1708 14.0414L16.1708 12.0414L15.5 11.706ZM14.5 13.706L13.9697 14.2363L16.2548 16.5215L16.7851 15.9911L17.3155 15.4608L15.0303 13.1757L14.5 13.706ZM8.20117 10.5135L8.43664 11.2256C8.85242 11.0881 9.25354 10.9855 9.57717 10.952L9.5 10.206L9.42283 9.45998C8.94281 9.50964 8.42402 9.64984 7.9657 9.8014L8.20117 10.5135ZM9.5 10.206L9.57717 10.952C9.81834 10.9271 10.1535 10.9258 10.4498 10.9332C10.5934 10.9367 10.72 10.9421 10.8105 10.9466C10.8556 10.9488 10.8915 10.9508 10.9157 10.9523C10.9279 10.953 10.937 10.9535 10.943 10.9539C10.946 10.9541 10.9481 10.9542 10.9495 10.9543C10.9501 10.9543 10.9506 10.9544 10.9508 10.9544C10.9509 10.9544 10.951 10.9544 10.951 10.9544C10.951 10.9544 10.951 10.9544 10.9509 10.9544C10.9509 10.9544 10.9509 10.9544 10.9509 10.9544C10.9509 10.9544 10.9508 10.9544 11 10.206C11.0492 9.45762 11.0491 9.45761 11.0491 9.45761C11.0491 9.45761 11.049 9.45761 11.049 9.4576C11.0489 9.4576 11.0488 9.45759 11.0487 9.45758C11.0485 9.45757 11.0482 9.45755 11.0479 9.45753C11.0472 9.45749 11.0463 9.45743 11.0452 9.45736C11.0431 9.45722 11.04 9.45703 11.0361 9.45679C11.0283 9.4563 11.0173 9.45563 11.0031 9.4548C10.9749 9.45316 10.9346 9.45092 10.8847 9.44844C10.7849 9.44351 10.6457 9.43759 10.4872 9.43363C10.1792 9.42595 9.76434 9.42465 9.42283 9.45998L9.5 10.206ZM9.5 13.26H8.75V13.706H9.5H10.25V13.26H9.5ZM11 10.206L10.3569 9.82013L9.14189 11.8451L9.78501 12.231L10.4281 12.6169L11.6431 10.5919L11 10.206ZM17.3483 17.7055L16.6068 17.593L16.2585 19.8874L17 20L17.7415 20.1126L18.0898 17.8181L17.3483 17.7055ZM7.07869 8.38538L7.4318 9.04706C8.4998 8.47712 9.69331 7.96767 10.8827 7.71576C12.072 7.46388 13.2097 7.47895 14.2104 7.89783L14.5 7.206L14.7896 6.51417C13.419 5.94044 11.9491 5.95663 10.5719 6.24831C9.19495 6.53995 7.86343 7.11649 6.72559 7.7237L7.07869 8.38538ZM16.7851 15.9911L16.2548 16.5215C16.5357 16.8024 16.6664 17.2002 16.6068 17.593L17.3483 17.7055L18.0898 17.8181C18.221 16.9539 17.9335 16.0789 17.3155 15.4608L16.7851 15.9911ZM20.4716 12.3939L19.7864 12.0891C19.685 12.317 19.4225 12.4252 19.19 12.3348L18.9184 13.0339L18.6468 13.733C19.6255 14.1132 20.7302 13.658 21.1569 12.6988L20.4716 12.3939ZM6.5 9.36799H5.75C5.75 10.7995 7.21896 11.6282 8.43664 11.2256L8.20117 10.5135L7.9657 9.8014C7.7952 9.85778 7.6072 9.82762 7.46131 9.7316C7.32004 9.63863 7.25 9.50815 7.25 9.36799H6.5ZM19.7956 10.7178L19.4975 11.406C19.7816 11.529 19.8937 11.8478 19.7864 12.0891L20.4716 12.3939L21.1569 12.6988C21.6216 11.654 21.1011 10.4659 20.0937 10.0295L19.7956 10.7178ZM9.5 13.26H10.25C10.25 13.0334 10.3116 12.8111 10.4281 12.6168L9.78501 12.231L9.14189 11.8451C8.88546 12.2725 8.75 12.7615 8.75 13.26H9.5ZM6.5 9.36799H7.25C7.25 9.22172 7.32669 9.10315 7.4318 9.04706L7.07869 8.38538L6.72559 7.7237C6.10817 8.05319 5.75 8.69528 5.75 9.36799H6.5Z" fill="currentColor"></path><path d="M4.74968 20.5864C0.655403 7.52439 13.1127 14.6888 16.7497 20.75" stroke="currentColor" stroke-width="1.5"></path><path d="M2.75 21.0833C2.75 21.0833 4.80556 21.75 5.83333 19.75C6.86111 21.75 10.9722 21.75 12 19.75C13.0278 21.75 17.1389 21.75 18.1667 19.75C19.1944 21.75 21.25 21.0833 21.25 21.0833" stroke="currentColor" stroke-width="1.5" stroke-linecap="round" stroke-linejoin="round"></path></g></svg>