<svg width="24px" height="24px" viewBox="0 0 24 24" fill="none" xmlns="http://www.w3.org/2000/svg"><g><path d="M8.925 11.0442C4.76647 12.2911 1.75 16.1807 1.75 12.3631C1.75 8.54547 4.76646 5.87431 8.925 5M15.075 11.0442C19.2335 12.2911 22.25 16.1807 22.25 12.3631C22.25 8.54547 19.2335 5.87431 15.075 5" stroke="currentColor" stroke-width="1.5" stroke-linecap="round" stroke-linejoin="round"></path><path d="M9.25 19.25V5.64152C9.25 4.72369 9.87423 3.90567 10.7872 3.81165C11.184 3.77078 11.5889 3.75 12 3.75C12.4111 3.75 12.816 3.77078 13.2128 3.81165C14.1258 3.90567 14.75 4.72369 14.75 5.64152V19.25" stroke="currentColor" stroke-width="1.5" stroke-linecap="round" stroke-linejoin="round"></path><path d="M3.75 14V17.25C3.75 18.3546 4.64543 19.25 5.75 19.25C9.91667 19.25 14.0833 19.25 18.25 19.25C19.3546 19.25 20.25 18.3546 20.25 17.25V14" stroke="currentColor" stroke-width="1.5" stroke-linecap="round" stroke-linejoin="round"></path></g></svg>