<svg width="24px" height="24px" viewBox="0 0 24 24" fill="none" xmlns="http://www.w3.org/2000/svg"><g><path d="M20.75 8.75V10.75" stroke="currentColor" stroke-width="1.5" stroke-linecap="round" stroke-linejoin="round"></path><path d="M17.25 3.75V15.75" stroke="currentColor" stroke-width="1.5" stroke-linecap="round" stroke-linejoin="round"></path><path d="M13.75 6.75V10.75" stroke="currentColor" stroke-width="1.5" stroke-linecap="round" stroke-linejoin="round"></path><path d="M10.25 4.75V7.25" stroke="currentColor" stroke-width="1.5" stroke-linecap="round" stroke-linejoin="round"></path><path d="M7 18.25C4.92893 18.25 3.25 16.5711 3.25 14.5C3.25 14.3305 3.26125 14.1636 3.28304 14M7 10.75C9.07107 10.75 10.75 12.4289 10.75 14.5C10.75 14.6695 10.7388 14.8364 10.717 15" stroke="currentColor" stroke-width="1.5" stroke-linecap="round"></path><path d="M7.5692 12.9776V8.87955C7.5692 8.37046 6.95369 8.11551 6.59371 8.47549L4.54469 10.5245C4.32153 10.7477 4.32153 11.1095 4.54469 11.3326L6.59371 13.3817C6.95369 13.7416 7.5692 13.4867 7.5692 12.9776Z" fill="currentColor"></path><path d="M6.4308 20.5489V16.4508C6.4308 15.9418 7.04631 15.6868 7.40629 16.0468L9.45531 18.0958C9.67847 18.319 9.67847 18.6808 9.45531 18.9039L7.40629 20.9529C7.04631 21.3129 6.4308 21.058 6.4308 20.5489Z" fill="currentColor"></path></g></svg>