<svg width="24px" height="24px" viewBox="0 0 24 24" fill="none" xmlns="http://www.w3.org/2000/svg"><g><path d="M8.25 11.0543L13.3886 4.51436C13.7677 4.03178 14.3475 3.75 14.9612 3.75H20.25V9.0388C20.25 9.65252 19.9682 10.2323 19.4856 10.6114L12.9457 15.75" stroke="currentColor" stroke-width="1.5" stroke-linejoin="round"></path><path d="M5.70531 10.1224L5.22988 10.7167C4.6858 11.3968 4.6444 12.3508 5.12752 13.0755L6.40326 14.9891L3.55629 17.8352C2.83548 18.5557 2.83539 19.7243 3.55609 20.445C4.27679 21.1656 5.4453 21.1656 6.16588 20.4447L9.01196 17.5978L10.9256 18.8735C11.6503 19.3566 12.6043 19.3152 13.2844 18.7712L13.8787 18.2957C14.3441 17.9234 14.3825 17.2292 13.9611 16.8078L7.19329 10.04C6.77184 9.61853 6.07764 9.65698 5.70531 10.1224Z" stroke="currentColor" stroke-width="1.5" stroke-linejoin="round"></path></g></svg>