<svg width="24px" height="24px" viewBox="0 0 24 24" fill="none" xmlns="http://www.w3.org/2000/svg"><g><path d="M8.90625 17.6719C8.90625 19.0957 7.75198 20.25 6.32812 20.25C4.90427 20.25 3.75 19.0957 3.75 17.6719C3.75 16.248 4.90427 15.0938 6.32812 15.0938C7.75198 15.0938 8.90625 16.248 8.90625 17.6719Z" stroke="currentColor" stroke-width="1.5" stroke-linecap="round" stroke-linejoin="round"></path><path d="M3.75 5.8125L5.8125 7.875M5.8125 7.875L7.875 9.9375M5.8125 7.875L7.875 5.8125M5.8125 7.875L3.75 9.9375" stroke="currentColor" stroke-width="1.5" stroke-linecap="round" stroke-linejoin="round"></path><path d="M16.125 16.125L18.1875 18.1875M18.1875 18.1875L20.25 20.25M18.1875 18.1875L20.25 16.125M18.1875 18.1875L16.125 20.25" stroke="currentColor" stroke-width="1.5" stroke-linecap="round" stroke-linejoin="round"></path><path d="M14.0625 6.84375L16.125 3.75L19.2188 5.81251" stroke="currentColor" stroke-width="1.5" stroke-linecap="round" stroke-linejoin="round"></path><path d="M16.3828 5.29688C18.1875 9.9375 13.5469 12.5156 12 13.5469" stroke="currentColor" stroke-width="1.5" stroke-linecap="round" stroke-linejoin="round"></path></g></svg>