<svg width="24px" height="24px" viewBox="0 0 24 24" fill="none" xmlns="http://www.w3.org/2000/svg"><g><path d="M2.75 11.1616V4.75C2.75 3.64543 3.64543 2.75 4.75 2.75H11.1616C11.692 2.75 12.2007 2.96071 12.5758 3.33579L20.5858 11.3458C21.3668 12.1268 21.3668 13.3932 20.5858 14.1742L14.1742 20.5858C13.3932 21.3668 12.1268 21.3668 11.3458 20.5858L3.33579 12.5758C2.96071 12.2007 2.75 11.692 2.75 11.1616Z" stroke="currentColor" stroke-width="1.5" stroke-linejoin="round"></path><path d="M8.25 7.5C8.25 7.91421 7.91421 8.25 7.5 8.25C7.08579 8.25 6.75 7.91421 6.75 7.5C6.75 7.08579 7.08579 6.75 7.5 6.75C7.91421 6.75 8.25 7.08579 8.25 7.5Z" stroke="currentColor" stroke-width="1.5" stroke-linejoin="round"></path></g></svg>