<svg width="24px" height="24px" viewBox="0 0 24 24" fill="none" xmlns="http://www.w3.org/2000/svg"><g><path d="M12.9851 4.48514C14.4878 2.98253 17.1676 3.22615 18.9707 5.02928C20.7738 6.83242 21.0175 9.51225 19.5149 11.0149C18.0122 12.5175 15.3324 12.2738 13.5293 10.4707C11.7262 8.66758 11.4825 5.98775 12.9851 4.48514Z" stroke="currentColor" stroke-width="1.5" stroke-linecap="round" stroke-linejoin="round"></path><path d="M19 5L20.75 3.25" stroke="currentColor" stroke-width="1.5" stroke-linecap="round" stroke-linejoin="round"></path><path d="M3.25 20.75L5.5 18.5" stroke="currentColor" stroke-width="1.5" stroke-linecap="round" stroke-linejoin="round"></path><path d="M8.30214 20.0398L3.96086 15.6985C3.56909 15.3067 3.57053 14.6711 3.96407 14.2811L4.57198 13.6787C6.35162 14.5523 8.04898 12.8409 7.21483 11.0596L7.82917 10.4508C8.2202 10.0633 8.8509 10.0648 9.24018 10.454L13.5466 14.7605C13.9359 15.1498 13.9373 15.7805 13.5498 16.1715L9.71955 20.0366C9.32955 20.4301 8.69391 20.4316 8.30214 20.0398Z" stroke="currentColor" stroke-width="1.5" stroke-linecap="round" stroke-linejoin="round"></path><path d="M11.5 12.5L13.5 10.5" stroke="currentColor" stroke-width="1.5" stroke-linecap="round" stroke-linejoin="round"></path><path d="M11.25 18.5C11.25 17.2574 10.2426 16.25 9 16.25C7.75736 16.25 6.75 17.2574 6.75 18.5" stroke="currentColor" stroke-width="1.5" stroke-linecap="round" stroke-linejoin="round"></path></g></svg>