<svg width="24px" height="24px" viewBox="0 0 24 24" fill="none" xmlns="http://www.w3.org/2000/svg"><g><path d="M2.75 6.75C2.75 5.64543 3.64543 4.75 4.75 4.75H19.25C20.3546 4.75 21.25 5.64543 21.25 6.75V17.25C21.25 18.3546 20.3546 19.25 19.25 19.25H4.75C3.64543 19.25 2.75 18.3546 2.75 17.25V6.75Z" stroke="currentColor" stroke-width="1.5" stroke-linecap="round" stroke-linejoin="round"></path><path d="M6.25 10.5C6.25 9.25736 7.25736 8.25 8.5 8.25H15.5007C16.7434 8.25 17.7507 9.25736 17.7507 10.5C17.7507 11.7426 16.7434 12.75 15.5007 12.75H8.5C7.25736 12.75 6.25 11.7426 6.25 10.5Z" stroke="currentColor" stroke-width="1.5" stroke-linecap="round" stroke-linejoin="round"></path><path d="M7.4805 16.9622C7.79566 16.2268 8.51874 15.75 9.31879 15.75H14.6812C15.4813 15.75 16.2043 16.2268 16.5195 16.9622L17.5 19.25H6.5L7.4805 16.9622Z" stroke="currentColor" stroke-width="1.5" stroke-linecap="round" stroke-linejoin="round"></path><rect x="6.25195" y="8.25146" width="4.49707" height="4.49707" rx="2.24854" stroke="currentColor" stroke-width="1.5" stroke-linecap="round" stroke-linejoin="round"></rect><rect x="13.252" y="8.25098" width="4.49756" height="4.49756" rx="2.24878" stroke="currentColor" stroke-width="1.5" stroke-linecap="round" stroke-linejoin="round"></rect></g></svg>