<svg width="24px" height="24px" viewBox="0 0 24 24" fill="none" xmlns="http://www.w3.org/2000/svg"><g><path d="M17.876 2.41L17.1592 2.63056V2.63056L17.876 2.41ZM18.75 5.25037L18.0332 5.47093C18.1062 5.70832 18.292 5.89416 18.5294 5.9672L18.75 5.25037ZM21.5904 6.12433L21.8109 5.40749L21.8109 5.40749L21.5904 6.12433ZM21.6886 6.54489L21.1732 6.00004V6.00004L21.6886 6.54489ZM18.8783 9.2033L18.3629 8.65845L18.8783 9.2033ZM14.7971 5.12204L14.2522 4.60664L14.7971 5.12204ZM17.4555 2.31172L16.9106 1.79632V1.79632L17.4555 2.31172ZM11.4697 11.47C11.1768 11.7629 11.1768 12.2378 11.4697 12.5307C11.7626 12.8236 12.2374 12.8236 12.5303 12.5307L11.4697 11.47ZM11.1435 7.55779C11.5501 7.47853 11.8154 7.08469 11.7361 6.67813C11.6569 6.27157 11.263 6.00625 10.8565 6.08552L11.1435 7.55779ZM17.9147 13.1439C17.994 12.7374 17.7287 12.3435 17.3221 12.2642C16.9156 12.185 16.5217 12.4503 16.4425 12.8568L17.9147 13.1439ZM12.4601 3.51259C12.8737 3.53462 13.2269 3.21717 13.2489 2.80354C13.271 2.38992 12.9535 2.03674 12.5399 2.01471L12.4601 3.51259ZM21.9857 11.4605C21.9636 11.0468 21.6105 10.7294 21.1968 10.7514C20.7832 10.7735 20.4657 11.1266 20.4878 11.5403L21.9857 11.4605ZM17.1592 2.63056L18.0332 5.47093L19.4668 5.0298L18.5929 2.18943L17.1592 2.63056ZM18.5294 5.9672L21.3698 6.84116L21.8109 5.40749L18.9706 4.53353L18.5294 5.9672ZM21.1732 6.00004L18.3629 8.65845L19.3937 9.74816L22.204 7.08974L21.1732 6.00004ZM17.5039 9.00037H14.25V10.5004H17.5039V9.00037ZM15 9.75037V6.49644H13.5V9.75037H15ZM15.3419 5.63744L18.0003 2.82712L16.9106 1.79632L14.2522 4.60664L15.3419 5.63744ZM13.7197 9.22004L11.4697 11.47L12.5303 12.5307L14.7803 10.2807L13.7197 9.22004ZM18.3629 8.65845C18.1308 8.87802 17.8234 9.00037 17.5039 9.00037V10.5004C18.2068 10.5004 18.8831 10.2312 19.3937 9.74816L18.3629 8.65845ZM21.3698 6.84116C21.0038 6.72855 20.8951 6.26318 21.1732 6.00004L22.204 7.08974C22.7604 6.56346 22.5429 5.63271 21.8109 5.40749L21.3698 6.84116ZM15 6.49644C15 6.17693 15.1223 5.86956 15.3419 5.63744L14.2522 4.60664C13.7692 5.11729 13.5 5.79352 13.5 6.49644H15ZM18.5929 2.18943C18.3677 1.45746 17.4369 1.23996 16.9106 1.79632L18.0003 2.82712C17.7372 3.1053 17.2718 2.99654 17.1592 2.63056L18.5929 2.18943ZM12.013 16.5003C9.52054 16.5003 7.5 14.4797 7.5 11.9873H6C6 15.3082 8.69211 18.0003 12.013 18.0003V16.5003ZM7.5 11.9873C7.5 9.79277 9.06706 7.96265 11.1435 7.55779L10.8565 6.08552C8.08896 6.62511 6 9.06141 6 11.9873H7.5ZM16.4425 12.8568C16.0376 14.9333 14.2075 16.5003 12.013 16.5003V18.0003C14.9388 18.0003 17.3751 15.9114 17.9147 13.1439L16.4425 12.8568ZM20.5 12.0004C20.5 16.6948 16.6944 20.5004 12 20.5004V22.0004C17.5228 22.0004 22 17.5232 22 12.0004H20.5ZM12 20.5004C7.30558 20.5004 3.5 16.6948 3.5 12.0004H2C2 17.5232 6.47715 22.0004 12 22.0004V20.5004ZM3.5 12.0004C3.5 7.30595 7.30558 3.50037 12 3.50037V2.00037C6.47715 2.00037 2 6.47752 2 12.0004H3.5ZM12 3.50037C12.1544 3.50037 12.3078 3.50448 12.4601 3.51259L12.5399 2.01471C12.3611 2.00519 12.1811 2.00037 12 2.00037V3.50037ZM20.4878 11.5403C20.4959 11.6925 20.5 11.8459 20.5 12.0004H22C22 11.8193 21.9952 11.6393 21.9857 11.4605L20.4878 11.5403Z" fill="currentColor"></path></g></svg>