<svg width="24px" height="24px" viewBox="0 0 24 24" fill="none" xmlns="http://www.w3.org/2000/svg"><g><path d="M3.75 13.9318V11.75C3.75 10.6454 4.64543 9.75 5.75 9.75H16.25C17.3546 9.75 18.25 10.6454 18.25 11.75V13.9318C18.25 17.9735 15.0041 21.25 11 21.25C6.99594 21.25 3.75 17.9735 3.75 13.9318Z" stroke="currentColor" stroke-width="1.5" stroke-linecap="round" stroke-linejoin="round"></path><path d="M16.25 9.75H19.75C21.1307 9.75 22.25 10.9812 22.25 12.5C22.25 14.0188 21.1307 15.25 19.75 15.25H18.25" stroke="currentColor" stroke-width="1.5" stroke-linecap="round" stroke-linejoin="round"></path><path d="M9.08 2.75C8.64 3.95713 8.64 5.04287 9.08 6.25" stroke="currentColor" stroke-width="1.5" stroke-linecap="round" stroke-linejoin="round"></path><path d="M13.08 2.75C12.64 3.95713 12.64 5.04287 13.08 6.25" stroke="currentColor" stroke-width="1.5" stroke-linecap="round" stroke-linejoin="round"></path></g></svg>