<svg width="24px" height="24px" viewBox="0 0 24 24" fill="none" xmlns="http://www.w3.org/2000/svg"><g><path d="M20.25 11.75V18.25C20.25 19.3546 19.3546 20.25 18.25 20.25H5.75C4.64543 20.25 3.75 19.3546 3.75 18.25V11.75M20.25 11.75H21.25M20.25 11.75H6.25M3.75 11.75H2.75M3.75 11.75V9.25M3.75 11.75H6.25M6.25 11.75V9.25" stroke="currentColor" stroke-width="1.5" stroke-linecap="round" stroke-linejoin="round"></path><path d="M9 11.6042C9.73295 10.7738 10.8053 10.25 12 10.25C13.1947 10.25 14.2671 10.7738 15.0001 11.6042" stroke="currentColor" stroke-width="1.5" stroke-linecap="round" stroke-linejoin="round"></path><path d="M14.75 5.5C14.75 7.01878 13.5188 8.25 12 8.25C10.4812 8.25 9.25 7.01878 9.25 5.5C9.25 3.98122 10.4812 2.75 12 2.75C13.5188 2.75 14.75 3.98122 14.75 5.5Z" stroke="currentColor" stroke-width="1.5" stroke-linecap="round" stroke-linejoin="round"></path></g></svg>