<svg width="24px" height="24px" viewBox="0 0 24 24" fill="none" xmlns="http://www.w3.org/2000/svg"><g><path d="M2.75 4.75H10.5M2.75 4.75V17.25M2.75 4.75H1.75M10.5 4.75H18.25M10.5 4.75V3.75M18.25 4.75H19.25M18.25 4.75V6.25M2.75 17.25H1.75M2.75 17.25H9.25" stroke="currentColor" stroke-width="1.5" stroke-linecap="round" stroke-linejoin="round"></path><path d="M17 16.25C15.3372 16.25 14.0023 17.0188 13.2248 18.1883C12.5704 19.1728 13.525 20.25 14.7072 20.25H19.2929C20.4751 20.25 21.4297 19.1728 20.7752 18.1883C19.9978 17.0188 18.6629 16.25 17 16.25Z" stroke="currentColor" stroke-width="1.5" stroke-linecap="round" stroke-linejoin="round"></path><path d="M19.25 12C19.25 13.2426 18.2426 14.25 17 14.25C15.7574 14.25 14.75 13.2426 14.75 12C14.75 10.7574 15.7574 9.75 17 9.75C18.2426 9.75 19.25 10.7574 19.25 12Z" stroke="currentColor" stroke-width="1.5" stroke-linecap="round" stroke-linejoin="round"></path></g></svg>