<svg width="24px" height="24px" viewBox="0 0 24 24" fill="none" xmlns="http://www.w3.org/2000/svg"><g><circle cx="12" cy="7" r="2.5" stroke="currentColor" stroke-width="1.5" stroke-linecap="round" stroke-linejoin="round"></circle><circle cx="4.5" cy="9" r="2" stroke="currentColor" stroke-width="1.5" stroke-linecap="round" stroke-linejoin="round"></circle><circle cx="19.5" cy="9" r="2" stroke="currentColor" stroke-width="1.5" stroke-linecap="round" stroke-linejoin="round"></circle><path d="M8.5 19.25H15.5C16.4665 19.25 17.25 18.4665 17.25 17.5C17.25 14.6005 14.8995 12.25 12 12.25C9.1005 12.25 6.75 14.6005 6.75 17.5C6.75 18.4665 7.5335 19.25 8.5 19.25Z" stroke="currentColor" stroke-width="1.5" stroke-linecap="round" stroke-linejoin="round"></path><path d="M3.75136 18.2498H2.50119C1.39662 18.2498 0.470353 17.3063 0.986732 16.3299C1.67862 15.0215 3.02859 14.0591 4.50136 13.812" stroke="currentColor" stroke-width="1.5" stroke-linecap="round" stroke-linejoin="round"></path><path d="M20.25 18.2498H21.5C22.6046 18.2498 23.5308 17.3063 23.0145 16.3298C22.3227 15.0215 20.9728 14.0591 19.5 13.812" stroke="currentColor" stroke-width="1.5" stroke-linecap="round" stroke-linejoin="round"></path></g></svg>