<svg width="24px" height="24px" viewBox="0 0 24 24" fill="none" xmlns="http://www.w3.org/2000/svg"><g><path d="M9.45904 4.85557C9.12025 4.178 8.42773 3.75 7.67018 3.75H5.75C4.64543 3.75 3.75 4.64543 3.75 5.75V5.8125C3.75 13.7861 10.2139 20.25 18.1875 20.25H18.25C19.3546 20.25 20.25 19.3546 20.25 18.25V16.3298C20.25 15.5723 19.822 14.8797 19.1444 14.541L17.1468 13.5422C16.5366 13.2371 15.7996 13.3566 15.3172 13.8391C14.8688 14.2874 14.1908 14.4356 13.6251 14.1493C11.9081 13.2803 10.7197 12.0919 9.8507 10.3749C9.56435 9.8092 9.71257 9.13118 10.1609 8.68283C10.6434 8.2004 10.7629 7.4634 10.4578 6.85317L9.45904 4.85557Z" stroke="currentColor" stroke-width="1.5" stroke-linejoin="round"></path></g></svg>