<svg width="24px" height="24px" viewBox="0 0 24 24" fill="none" xmlns="http://www.w3.org/2000/svg"><g><path d="M5.87482 10.7456L2.46785 11.9856C1.68938 12.269 1.288 13.1297 1.57134 13.9082L1.99886 15.0828C2.2822 15.8613 3.14297 16.2627 3.92143 15.9793L7.32841 14.7393" stroke="currentColor" stroke-width="1.5" stroke-linecap="round" stroke-linejoin="round"></path><path d="M11.2873 7.64258L7.38682 9.06222C6.34886 9.44001 5.81369 10.5877 6.19147 11.6256L7.00377 13.8574C7.38155 14.8954 8.52924 15.4305 9.56719 15.0528L13.4676 13.6331" stroke="currentColor" stroke-width="1.5" stroke-linecap="round" stroke-linejoin="round"></path><path d="M13.2745 5.78905L18.6553 3.8306C19.1743 3.64171 19.7482 3.90929 19.9371 4.42827L22.1602 10.5363C22.3491 11.0553 22.0815 11.6291 21.5625 11.818L16.1817 13.7764C14.8843 14.2487 13.4497 13.5797 12.9774 12.2823L11.7804 8.99333C11.3081 7.69589 11.9771 6.26128 13.2745 5.78905Z" stroke="currentColor" stroke-width="1.5" stroke-linecap="round" stroke-linejoin="round"></path><path d="M10.75 20.25V14.75" stroke="currentColor" stroke-width="1.5"></path><path d="M7.75 20.25L13.75 20.25" stroke="currentColor" stroke-width="1.5" stroke-linecap="round"></path></g></svg>