<svg width="24px" height="24px" viewBox="0 0 24 24" fill="none" xmlns="http://www.w3.org/2000/svg"><g><path d="M10.9999 9.44736L10.1107 3.97213C9.9215 2.80718 10.8208 1.75 12.0011 1.75C13.1804 1.75 14.0795 2.80574 13.8918 3.97007L12.9999 9.5M8.92222 20.7244C9.88482 21.0648 10.9207 21.25 11.9998 21.25C13.0789 21.25 14.1147 21.0648 15.0773 20.7244M5.99795 4.99117C5.22201 5.65499 4.54375 6.45987 4.0042 7.39482C3.46465 8.32977 3.10705 9.31986 2.9204 10.3241M21.0792 10.3239C20.8925 9.31975 20.5349 8.32966 19.9953 7.39471C19.4558 6.45976 18.7775 5.65488 18.0016 4.99106M10.2892 14.1425L5.99214 17.6501C5.07785 18.3965 3.71265 18.1462 3.12254 17.1241C2.53285 16.1027 2.9976 14.7962 4.09982 14.3767L9.33483 12.3841M14.7104 12.4102L19.8967 14.3777C21.0002 14.7964 21.4661 16.1038 20.876 17.1259C20.2863 18.1473 18.9224 18.3981 18.008 17.6533L13.6649 14.1159M14.2498 12C14.2498 13.2426 13.2425 14.25 11.9998 14.25C10.7572 14.25 9.74981 13.2426 9.74981 12C9.74981 10.7574 10.7572 9.75 11.9998 9.75C13.2425 9.75 14.2498 10.7574 14.2498 12Z" stroke="currentColor" stroke-width="1.5" stroke-linecap="round" stroke-linejoin="round"></path></g></svg>