<svg width="24px" height="24px" viewBox="0 0 24 24" fill="none" xmlns="http://www.w3.org/2000/svg"><g><path fill-rule="evenodd" clip-rule="evenodd" d="M10 11.75C10 10.2312 11.2312 9 12.75 9H19.25C20.7688 9 22 10.2312 22 11.75V18.25C22 19.7688 20.7688 21 19.25 21H12.75C11.2312 21 10 19.7688 10 18.25V11.75ZM14.5607 19.5H19.25C19.8443 19.5 20.3418 19.0852 20.4687 18.5293L18.8839 16.9445C18.3957 16.4564 17.6043 16.4564 17.1161 16.9445L14.5607 19.5ZM20.5 16.4393L19.9445 15.8839C18.8706 14.8099 17.1294 14.8099 16.0555 15.8839L12.4707 19.4687C11.9148 19.3418 11.5 18.8443 11.5 18.25V11.75C11.5 11.0596 12.0596 10.5 12.75 10.5H19.25C19.9404 10.5 20.5 11.0596 20.5 11.75V16.4393Z" fill="currentColor"></path><path d="M15.5 13.25C15.5 13.9404 14.9404 14.5 14.25 14.5C13.5596 14.5 13 13.9404 13 13.25C13 12.5596 13.5596 12 14.25 12C14.9404 12 15.5 12.5596 15.5 13.25Z" fill="currentColor"></path><path fill-rule="evenodd" clip-rule="evenodd" d="M2.75 4.5C2.61193 4.5 2.5 4.61193 2.5 4.75C2.5 5.16421 2.16421 5.5 1.75 5.5C1.33579 5.5 1 5.16421 1 4.75C1 3.7835 1.7835 3 2.75 3H9.25C10.2165 3 11 3.7835 11 4.75C11 5.16421 10.6642 5.5 10.25 5.5C9.83579 5.5 9.5 5.16421 9.5 4.75C9.5 4.61193 9.38807 4.5 9.25 4.5H6.75V12.5H7.25C7.66421 12.5 8 12.8358 8 13.25C8 13.6642 7.66421 14 7.25 14H4.75C4.33579 14 4 13.6642 4 13.25C4 12.8358 4.33579 12.5 4.75 12.5H5.25V4.5H2.75Z" fill="currentColor"></path><path d="M20.7552 2.15769C20.6501 1.94744 20.35 1.94744 20.2449 2.15769L19.5917 3.4641C19.5641 3.51931 19.5193 3.56407 19.4641 3.59168L18.1577 4.24488C17.9474 4.35001 17.9474 4.65005 18.1577 4.75518L19.4641 5.40839C19.5193 5.43599 19.5641 5.48075 19.5917 5.53596L20.2449 6.84237C20.35 7.05262 20.6501 7.05262 20.7552 6.84237L21.4084 5.53596C21.436 5.48075 21.4808 5.43599 21.536 5.40839L22.8424 4.75518C23.0526 4.65005 23.0526 4.35001 22.8424 4.24488L21.536 3.59168C21.4808 3.56407 21.436 3.51931 21.4084 3.4641L20.7552 2.15769Z" fill="currentColor"></path><path d="M15.2645 4.16345C15.1555 3.94552 14.8445 3.94552 14.7355 4.16345L14.2556 5.12335C14.227 5.18057 14.1806 5.22697 14.1233 5.25558L13.1635 5.73553C12.9455 5.8445 12.9455 6.1555 13.1635 6.26447L14.1233 6.74442C14.1806 6.77303 14.227 6.81943 14.2556 6.87665L14.7355 7.83655C14.8445 8.05448 15.1555 8.05448 15.2645 7.83655L15.7444 6.87665C15.773 6.81943 15.8194 6.77303 15.8767 6.74442L16.8365 6.26447C17.0545 6.1555 17.0545 5.8445 16.8365 5.73553L15.8767 5.25558C15.8194 5.22697 15.773 5.18057 15.7444 5.12335L15.2645 4.16345Z" fill="currentColor"></path><path d="M4.75514 16.1577C4.65002 15.9474 4.34998 15.9474 4.24486 16.1577L3.59166 17.4641C3.56405 17.5193 3.51929 17.5641 3.46409 17.5917L2.15769 18.2449C1.94744 18.35 1.94744 18.65 2.15769 18.7551L3.46409 19.4083C3.51929 19.4359 3.56405 19.4807 3.59166 19.5359L4.24486 20.8423C4.34998 21.0526 4.65002 21.0526 4.75515 20.8423L5.40834 19.5359C5.43595 19.4807 5.48071 19.4359 5.53592 19.4083L6.84231 18.7551C7.05256 18.65 7.05256 18.35 6.84231 18.2449L5.53592 17.5917C5.48071 17.5641 5.43595 17.5193 5.40834 17.4641L4.75514 16.1577Z" fill="currentColor"></path></g></svg>