<svg width="24px" height="24px" viewBox="0 0 24 24" fill="none" xmlns="http://www.w3.org/2000/svg"><g><path d="M3.75 6.75C3.75 5.64543 4.64543 4.75 5.75 4.75H6.25C7.35457 4.75 8.25 5.64543 8.25 6.75V7.25C8.25 8.35457 7.35457 9.25 6.25 9.25H5.75C4.64543 9.25 3.75 8.35457 3.75 7.25V6.75Z" stroke="currentColor" stroke-width="1.5" stroke-linecap="round" stroke-linejoin="round"></path><path d="M3.75 16.75C3.75 15.6454 4.64543 14.75 5.75 14.75H6.25C7.35457 14.75 8.25 15.6454 8.25 16.75V17.25C8.25 18.3546 7.35457 19.25 6.25 19.25H5.75C4.64543 19.25 3.75 18.3546 3.75 17.25V16.75Z" stroke="currentColor" stroke-width="1.5" stroke-linecap="round" stroke-linejoin="round"></path><path d="M12.75 5.25H20.25" stroke="currentColor" stroke-width="1.5" stroke-linecap="round" stroke-linejoin="round"></path><path d="M12.75 8.75H17.25" stroke="currentColor" stroke-width="1.5" stroke-linecap="round" stroke-linejoin="round"></path><path d="M12.75 15.25H20.25" stroke="currentColor" stroke-width="1.5" stroke-linecap="round" stroke-linejoin="round"></path><path d="M12.75 18.75H17.25" stroke="currentColor" stroke-width="1.5" stroke-linecap="round" stroke-linejoin="round"></path></g></svg>