<svg width="24px" height="24px" viewBox="0 0 24 24" fill="none" xmlns="http://www.w3.org/2000/svg"><g><path d="M7.25 19C7.25 20.2426 6.24264 21.25 5 21.25C3.75736 21.25 2.75 20.2426 2.75 19C2.75 17.7574 3.75736 16.75 5 16.75C6.24264 16.75 7.25 17.7574 7.25 19Z" stroke="currentColor" stroke-width="1.5" stroke-linejoin="round"></path><path d="M15.5421 4.08938C15.8566 4.54492 16.4049 4.85244 16.958 4.83026C17.0134 4.82804 17.0691 4.82692 17.125 4.82692C19.4032 4.82692 21.25 6.68666 21.25 8.98077C21.25 10.5303 20.4075 11.8816 19.1586 12.5956C18.9475 12.7162 18.7723 12.8923 18.653 13.1041C17.9442 14.3625 16.6018 15.2115 15.0625 15.2115C14.6083 15.2115 14.1712 15.1376 13.7625 15.0011C13.1733 14.8042 12.4613 14.9984 12.0068 15.4219C11.4551 15.9359 10.7171 16.25 9.90625 16.25C8.19762 16.25 6.8125 14.8552 6.8125 13.1346C6.8125 12.815 6.66735 12.5049 6.41177 12.313C5.40316 11.5558 4.75 10.3451 4.75 8.98077C4.75 6.68666 6.59683 4.82692 8.875 4.82692C8.93092 4.82692 8.98659 4.82804 9.04197 4.83026C9.59506 4.85244 10.1434 4.54492 10.4579 4.08938C11.0166 3.2799 11.9469 2.75 13 2.75C14.0531 2.75 14.9834 3.2799 15.5421 4.08938Z" stroke="currentColor" stroke-width="1.5" stroke-linejoin="round"></path></g></svg>