<svg width="24px" height="24px" viewBox="0 0 24 24" fill="none" xmlns="http://www.w3.org/2000/svg"><g><path fill-rule="evenodd" clip-rule="evenodd" d="M14.8607 2.25047C16.8771 2.25045 19.0796 2.12893 20.1576 4.16844C20.5557 4.92183 20.5765 5.91099 20.6186 7.88817L20.6908 11.2466C20.7128 12.2783 20.7235 12.7947 20.7123 13.31C20.7024 13.7683 20.6791 14.2272 20.643 14.6841C20.6023 15.198 20.539 15.7106 20.4135 16.7348L20.4018 16.8315C20.1884 18.5725 20.0815 19.4439 19.6732 20.1001C19.3135 20.678 18.7926 21.1386 18.1752 21.4253C17.4743 21.7505 16.5969 21.7505 14.8432 21.7505H9.15469C7.40089 21.7505 6.52358 21.7506 5.82266 21.4253C5.20526 21.1386 4.6843 20.678 4.32461 20.1001C3.91641 19.4439 3.8095 18.5724 3.5961 16.8315L3.58438 16.7348C3.45882 15.7106 3.39558 15.198 3.35489 14.6841C3.31872 14.2272 3.2955 13.7683 3.28555 13.31C3.27438 12.7947 3.28606 12.2783 3.30801 11.2466L3.3793 7.88817C3.42137 5.91099 3.44213 4.92183 3.84024 4.16844C4.91832 2.12866 7.12153 2.25047 9.13809 2.25047H14.8607ZM8.392 5.75047C7.29023 5.75047 6.73869 5.75033 6.31485 5.96336C5.9421 6.1508 5.63694 6.45052 5.44278 6.81981C5.22221 7.23965 5.21182 7.79083 5.1918 8.89207L5.09903 14.0005C5.09902 14.2324 5.09978 14.3491 5.10977 14.4487C5.1992 15.3376 5.86711 16.0596 6.74649 16.2173C6.84511 16.2349 6.96133 16.2443 7.19278 16.2622L7.83243 16.311C8.24856 16.3431 8.45708 16.3595 8.62149 16.436C8.85868 16.5465 9.04308 16.7458 9.13516 16.9907C9.19886 17.1605 9.19961 17.3703 9.19961 17.7876V17.8999C9.19961 18.4597 9.19913 18.7407 9.30801 18.9546C9.40387 19.1426 9.55751 19.2953 9.74551 19.3911C9.95939 19.5 10.2394 19.5005 10.7992 19.5005H13.1996C13.7594 19.5005 14.0395 19.5001 14.2533 19.3911C14.4412 19.2953 14.594 19.1425 14.6898 18.9546C14.7988 18.7407 14.7992 18.4598 14.7992 17.8999V17.8452C14.7992 17.3404 14.799 17.0874 14.893 16.8862C14.9759 16.7089 15.1099 16.5598 15.2768 16.4575C15.4662 16.3414 15.7172 16.3122 16.2191 16.2554L16.9496 16.1733C16.9726 16.1725 16.9847 16.1718 16.9945 16.1714C18.0531 16.121 18.8881 15.2536 18.8988 14.1938C18.8989 14.184 18.8998 14.1718 18.8998 14.1489V14.0005L18.809 8.89305C18.7894 7.79131 18.7796 7.23984 18.559 6.81981C18.3649 6.45043 18.0597 6.15087 17.6869 5.96336C17.263 5.75026 16.7109 5.75047 15.6088 5.75047H8.392ZM14.8725 8.05516C15.0628 8.04081 15.3006 8.04244 15.5092 8.2241C15.6488 8.34599 15.7538 8.5331 15.7641 8.73289V8.80907C15.7593 8.88457 15.7407 8.95944 15.7094 9.02879C15.6779 9.0984 15.6208 9.18216 15.5629 9.26121C15.5022 9.344 15.4293 9.43593 15.3559 9.52586C15.1992 9.7177 15.0616 9.87649 14.976 9.98289H14.975C14.2733 10.8482 13.6082 11.743 12.9809 12.6636L12.9799 12.6645C12.7877 12.9447 12.6025 13.2359 12.4145 13.5268L12.4135 13.5259C12.3112 13.6909 12.1685 13.9608 11.9867 14.1538C11.8917 14.2546 11.7755 14.3479 11.6332 14.4018C11.4871 14.4572 11.3244 14.4665 11.1498 14.4175C10.951 14.3614 10.7616 14.2158 10.6088 14.0786L10.1967 13.6743L9.25235 12.7651V12.7641C9.04276 12.5656 8.74103 12.3131 8.55899 12.0259C8.47803 11.898 8.45102 11.7313 8.46133 11.5854C8.47161 11.4413 8.52246 11.27 8.64883 11.1548C8.81744 11.0012 8.99752 10.9207 9.18496 10.9106C9.36866 10.9009 9.53648 10.9602 9.68106 11.0415C9.82488 11.1225 9.95774 11.2321 10.0746 11.3384C10.1333 11.3917 10.1904 11.4463 10.2436 11.4975C10.2976 11.5495 10.3481 11.5981 10.3959 11.6421L11.1957 12.3764C11.398 12.0717 11.6405 11.7436 11.8471 11.4595C12.4493 10.6295 13.0843 9.823 13.7494 9.04246L14.1098 8.62157C14.2381 8.47662 14.3731 8.33288 14.5092 8.21141C14.6186 8.11382 14.7508 8.07802 14.8471 8.05809L14.8588 8.05614L14.8725 8.05516ZM10.3354 13.5307C10.4506 13.6426 10.5923 13.7943 10.7426 13.9292C10.5922 13.7942 10.4506 13.6416 10.3354 13.5298L9.39102 12.6206L10.3354 13.5307ZM12.2455 13.4175C12.2232 13.4534 12.2005 13.4915 12.1772 13.5307C12.2004 13.4917 12.2233 13.4541 12.2455 13.4184L12.8148 12.5513V12.5503C12.6205 12.8336 12.4328 13.1276 12.2455 13.4175ZM8.70059 11.4223C8.69991 11.424 8.69929 11.4256 8.69864 11.4272C8.70831 11.4034 8.72047 11.3813 8.73379 11.3608L8.70059 11.4223Z" fill="currentColor"></path><path opacity="0.4" d="M14.8555 17C14.8033 17.1858 14.8027 17.4306 14.8027 17.8457V17.9004C14.8027 18.4598 14.8021 18.7403 14.6934 18.9541C14.5976 19.1419 14.4446 19.2948 14.2568 19.3906C14.043 19.4995 13.7626 19.5 13.2031 19.5H10.8027C10.243 19.5 9.96288 19.4995 9.74902 19.3906C9.56103 19.2947 9.40734 19.1421 9.31152 18.9541C9.20277 18.7403 9.20312 18.4598 9.20312 17.9004V17.7871C9.20312 17.3766 9.20133 17.1683 9.14062 17H14.8555Z" fill="currentColor"></path></g></svg>