<svg width="24px" height="24px" viewBox="0 0 24 24" fill="none" xmlns="http://www.w3.org/2000/svg"><g><path d="M10.9154 4.18563C10.6086 4.48316 10.1685 4.61248 9.7478 4.53716C9.48067 4.48932 9.20571 4.46437 8.92496 4.46437C6.34305 4.46437 4.25 6.57502 4.25 9.17865C4.25 10.6439 4.91292 11.9531 5.95281 12.8177C6.20634 13.0285 6.3725 13.3295 6.41514 13.6564C6.71647 15.9667 8.67669 17.75 11.0499 17.75C12.1896 17.75 13.234 17.3388 14.0451 16.6555C14.3516 16.3973 14.7639 16.2887 15.1569 16.3669C15.4781 16.4309 15.8102 16.4644 16.15 16.4644C18.9667 16.4644 21.25 14.1619 21.25 11.3216C21.25 9.9348 20.7057 8.67624 19.8208 7.75127C19.6433 7.56573 19.5262 7.32949 19.4861 7.07586C19.0979 4.62381 16.991 2.75 14.4501 2.75C13.0778 2.75 11.8321 3.29658 10.9154 4.18563Z" stroke="currentColor" stroke-width="1.5" stroke-linejoin="round"></path><path d="M6.25 19.75C6.25 20.8546 5.35457 21.75 4.25 21.75C3.14543 21.75 2.25 20.8546 2.25 19.75C2.25 18.6454 3.14543 17.75 4.25 17.75C5.35457 17.75 6.25 18.6454 6.25 19.75Z" stroke="currentColor" stroke-width="1.5"></path></g></svg>