<svg width="24px" height="24px" viewBox="0 0 24 24" fill="none" xmlns="http://www.w3.org/2000/svg"><g><path d="M5.75 8.4079V3.75H10.9375H13H18.25V10.4605V15.5921V20.25H13H10.9375H5.75V13.5395V8.4079Z" stroke="currentColor" stroke-width="1.5" stroke-linecap="round" stroke-linejoin="round"></path><path d="M4.75 3.75H5.75" stroke="currentColor" stroke-width="1.5" stroke-linecap="round" stroke-linejoin="round"></path><path d="M5.75 8.4082L18.25 10.4608" stroke="currentColor" stroke-width="1.5" stroke-linecap="round" stroke-linejoin="round"></path><path d="M5.75 13.5391L18.25 15.5917L21.25 16.0996" stroke="currentColor" stroke-width="1.5" stroke-linecap="round" stroke-linejoin="round"></path><path d="M4.75 20.25H5.75" stroke="currentColor" stroke-width="1.5" stroke-linecap="round" stroke-linejoin="round"></path><path d="M18.25 3.75H19.25" stroke="currentColor" stroke-width="1.5" stroke-linecap="round" stroke-linejoin="round"></path><path d="M18.25 20.25H19.25" stroke="currentColor" stroke-width="1.5" stroke-linecap="round" stroke-linejoin="round"></path><path d="M10.9375 3.75V3.27632C10.9375 2.7095 11.3992 2.25 11.9688 2.25C12.5383 2.25 13 2.7095 13 3.27632V3.75" stroke="currentColor" stroke-width="1.5" stroke-linecap="round" stroke-linejoin="round"></path><path d="M10.9375 20.25V20.75C10.9375 21.3023 11.3852 21.75 11.9375 21.75H12C12.5523 21.75 13 21.3023 13 20.75V20.25" stroke="currentColor" stroke-width="1.5" stroke-linecap="round" stroke-linejoin="round"></path></g></svg>