<svg width="24px" height="24px" viewBox="0 0 24 24" fill="none" xmlns="http://www.w3.org/2000/svg"><g><path d="M2.75 11.75C2.75 10.6454 3.64543 9.75 4.75 9.75H5.75C6.85457 9.75 7.75 10.6454 7.75 11.75V18.25C7.75 19.3546 6.85457 20.25 5.75 20.25H4.75C3.64543 20.25 2.75 19.3546 2.75 18.25V11.75Z" stroke="currentColor" stroke-width="1.5" stroke-linejoin="round"></path><path d="M12.413 2.80853L11.9418 2.75C10.5 7.5 7.75 8.46342 7.75 11.2837V17.945C7.75 18.7474 8.21423 19.489 8.97294 19.7636C11.5477 20.6953 14.2409 20.8946 16.9636 20.6601C18.6263 20.5169 19.9292 19.2409 20.2956 17.6228L21.1727 13.7486C21.6109 11.8131 20.1299 9.97331 18.1336 9.97331H13.5185L14.5039 6.79075C15.0734 4.95159 14.3343 3.0472 12.413 2.80853Z" stroke="currentColor" stroke-width="1.5" stroke-linejoin="round"></path></g></svg>