<svg width="24px" height="24px" viewBox="0 0 24 24" fill="none" xmlns="http://www.w3.org/2000/svg"><g><path d="M7 3.75H17.25C18.9069 3.75 20.25 6.43629 20.25 9.75V18.25C20.25 19.3546 19.3546 20.25 18.25 20.25H12.25C11.1454 20.25 10.25 19.3546 10.25 18.25V16.25M7 3.75C8.79493 3.75 10.25 6.54822 10.25 10M7 3.75C5.20507 3.75 3.75 6.54822 3.75 10C3.75 13.4518 5.20507 16.25 7 16.25M10.25 10V16.25M10.25 10C10.25 13.4518 8.79493 16.25 7 16.25M10.25 16.25H7M7 16.25H6.75" stroke="currentColor" stroke-width="1.5" stroke-linejoin="round"></path><path d="M7.75 10C7.75 10.6904 7.41421 11.25 7 11.25C6.58579 11.25 6.25 10.6904 6.25 10C6.25 9.30964 6.58579 8.75 7 8.75C7.41421 8.75 7.75 9.30964 7.75 10Z" fill="currentColor"></path></g></svg>