<svg width="24px" height="24px" viewBox="0 0 24 24" fill="none" xmlns="http://www.w3.org/2000/svg"><g><path d="M6.86133 7.88889C6.86133 5.05076 9.16209 2.75 12.0002 2.75C13.9023 2.75 15.5631 3.78343 16.4516 5.31944" stroke="currentColor" stroke-width="1.5" stroke-linecap="round" stroke-linejoin="round"></path><path d="M6.86111 14.0557C4.59061 14.0557 2.75 12.2151 2.75 9.94461C2.75 7.6741 4.59061 5.8335 6.86111 5.8335" stroke="currentColor" stroke-width="1.5" stroke-linecap="round" stroke-linejoin="round"></path><path d="M17.1389 14.0557C19.4094 14.0557 21.25 12.2151 21.25 9.94455C21.25 7.67405 19.4094 5.83344 17.1389 5.83344C16.0963 5.83344 15.1443 6.22157 14.4196 6.86122" stroke="currentColor" stroke-width="1.5" stroke-linecap="round" stroke-linejoin="round"></path><path d="M18.25 14.0557V19.2501C18.25 20.3547 17.3546 21.2501 16.25 21.2501H7.75C6.64543 21.2501 5.75 20.3547 5.75 19.2501V14.0557" stroke="currentColor" stroke-width="1.5" stroke-linecap="round" stroke-linejoin="round"></path><path d="M5.83398 17.1387H18.1673" stroke="currentColor" stroke-width="1.5" stroke-linecap="round" stroke-linejoin="round"></path></g></svg>