<svg width="24px" height="24px" viewBox="0 0 24 24" fill="none" xmlns="http://www.w3.org/2000/svg"><g><path d="M13.0278 12H12.2778C12.2778 12.4142 12.6136 12.75 13.0278 12.75V12ZM9.91667 13.5417L9.58366 14.2137C9.81614 14.3289 10.0916 14.3157 10.3121 14.1789C10.5326 14.0422 10.6667 13.8011 10.6667 13.5417H9.91667ZM9.85872 13.513L9.52571 14.185L9.85872 13.513ZM7.00544 14.5881L6.30995 14.3074L6.30995 14.3074L7.00544 14.5881ZM6.80556 15.0833L6.11007 14.8026C6.01691 15.0334 6.04433 15.2954 6.18325 15.5019L6.80556 15.0833ZM9.72226 19.4193L10.3446 19.0007L9.72226 19.4193ZM16.8689 8.01407C16.9381 8.42247 17.3252 8.6975 17.7336 8.62837C18.142 8.55923 18.417 8.17211 18.3479 7.76371L16.8689 8.01407ZM4.59655 10.0696C4.66569 10.478 5.05281 10.7531 5.46121 10.6839C5.86961 10.6148 6.14465 10.2277 6.07551 9.81927L4.59655 10.0696ZM13.7778 12V8.91667H12.2778V12H13.7778ZM9.16667 8.91667V13.5417H10.6667V8.91667H9.16667ZM10.2497 12.8697L10.1917 12.8409L9.52571 14.185L9.58366 14.2137L10.2497 12.8697ZM6.30995 14.3074L6.11007 14.8026L7.50105 15.364L7.70093 14.8688L6.30995 14.3074ZM6.18325 15.5019L9.09995 19.8379L10.3446 19.0007L7.42786 14.6647L6.18325 15.5019ZM13.1737 22H14.0648V20.5H13.1737V22ZM20 16.1111V15.0833H18.5V16.1111H20ZM16.1389 11.25H13.0278V12.75H16.1389V11.25ZM20 15.0833C20 12.9599 18.265 11.25 16.1389 11.25V12.75C17.4493 12.75 18.5 13.801 18.5 15.0833H20ZM10.1917 12.8409C8.71928 12.1113 6.92584 12.7814 6.30995 14.3074L7.70093 14.8688C7.98634 14.1616 8.82754 13.839 9.52571 14.185L10.1917 12.8409ZM14.0648 22C17.3364 22 20 19.3698 20 16.1111H18.5C18.5 18.5287 16.5207 20.5 14.0648 20.5V22ZM11.4722 6.625C10.2053 6.625 9.16667 7.64469 9.16667 8.91667H10.6667C10.6667 8.48577 11.021 8.125 11.4722 8.125V6.625ZM9.09995 19.8379C10.0097 21.1903 11.539 22 13.1737 22V20.5C12.0346 20.5 10.9735 19.9357 10.3446 19.0007L9.09995 19.8379ZM13.7778 8.91667C13.7778 7.64469 12.7392 6.625 11.4722 6.625V8.125C11.9235 8.125 12.2778 8.48577 12.2778 8.91667H13.7778ZM6 8.91667C6 5.93145 8.44364 3.5 11.4722 3.5V2C7.62793 2 4.5 5.09037 4.5 8.91667H6ZM11.4722 3.5C14.1882 3.5 16.4361 5.4571 16.8689 8.01407L18.3479 7.76371C17.7933 4.4876 14.9225 2 11.4722 2V3.5ZM6.07551 9.81927C6.0259 9.5262 6 9.22472 6 8.91667H4.5C4.5 9.30897 4.533 9.6942 4.59655 10.0696L6.07551 9.81927Z" fill="currentColor"></path></g></svg>