<svg width="24px" height="24px" viewBox="0 0 24 24" fill="none" xmlns="http://www.w3.org/2000/svg"><g><path d="M3.75 20.25H20.25" stroke="currentColor" stroke-width="1.5" stroke-linecap="round" stroke-linejoin="round"></path><path d="M11.5 20C11.5 17 10.5 16 9 14.5" stroke="currentColor" stroke-width="1.5" stroke-linecap="round" stroke-linejoin="round"></path><path d="M9 20C8 18 7.5 17.5 5 16" stroke="currentColor" stroke-width="1.5" stroke-linecap="round" stroke-linejoin="round"></path><path d="M13 19.5C13 17.75 14 16.875 15 16" stroke="currentColor" stroke-width="1.5" stroke-linecap="round" stroke-linejoin="round"></path><path d="M16 19.5C16.5 18.5857 17.5 17.5 19 16.5" stroke="currentColor" stroke-width="1.5" stroke-linecap="round" stroke-linejoin="round"></path><path d="M15.0147 7.75059L13.5126 7.75037C12.2018 7.75017 11.0426 8.601 10.6499 9.85158L10.25 11.1252L13.6049 11.838C14.8506 12.1027 16.1502 11.8821 17.2388 11.2213L19.25 10.0003" stroke="currentColor" stroke-width="1.5" stroke-linecap="round" stroke-linejoin="round"></path><path d="M18.2517 3.75H14.2646C13.2182 3.75 12.19 4.02366 11.282 4.54383L4.84777 8.22997C4.50828 8.42446 4.36895 8.84286 4.52406 9.20205C5.01722 10.3441 6.327 10.8894 7.48491 10.4349L10.5017 9.25056" stroke="currentColor" stroke-width="1.5" stroke-linecap="round" stroke-linejoin="round"></path></g></svg>