<svg width="24px" height="24px" viewBox="0 0 24 24" fill="none" xmlns="http://www.w3.org/2000/svg"><g><path d="M9.75 2.75L14.25 2.75" stroke="currentColor" stroke-width="1.5" stroke-linecap="round" stroke-linejoin="round"></path><path d="M12 3V5.5" stroke="currentColor" stroke-width="1.5" stroke-linecap="round" stroke-linejoin="round"></path><path d="M17.5 9.75L18.4933 7.10112C18.7385 6.44737 18.2552 5.75 17.557 5.75H6.443C5.74479 5.75 5.26151 6.44737 5.50667 7.10112L6.5 9.75" stroke="currentColor" stroke-width="1.5" stroke-linecap="round" stroke-linejoin="round"></path><path d="M19.4612 9.75H4.53876C3.8151 9.75 3.33105 10.4949 3.62495 11.1561L4.73606 13.6561C4.89656 14.0173 5.25468 14.25 5.64987 14.25H18.3501C18.7453 14.25 19.1034 14.0173 19.2639 13.6561L20.375 11.1561C20.669 10.4949 20.1849 9.75 19.4612 9.75Z" stroke="currentColor" stroke-width="1.5" stroke-linecap="round" stroke-linejoin="round"></path><path d="M9.75 14.25V21.25H14.25V14.25" stroke="currentColor" stroke-width="1.5" stroke-linecap="round" stroke-linejoin="round"></path></g></svg>