<svg width="24px" height="24px" viewBox="0 0 24 24" fill="none" xmlns="http://www.w3.org/2000/svg"><g><path d="M7 2.75V10.75M7 10.75H5.75C4.64543 10.75 3.75 11.6454 3.75 12.75V16.25C3.75 17.3546 4.64543 18.25 5.75 18.25H7M7 10.75H8.25C9.35457 10.75 10.25 11.6454 10.25 12.75V16.25C10.25 17.3546 9.35457 18.25 8.25 18.25H7M7 18.25V21.25M17 2.75001V5.75M17 5.75H15.75C14.6454 5.75 13.75 6.64543 13.75 7.75V16.25C13.75 17.3546 14.6454 18.25 15.75 18.25H17M17 5.75H18.25C19.3546 5.75 20.25 6.64543 20.25 7.75V16.25C20.25 17.3546 19.3546 18.25 18.25 18.25H17M17 18.25V21.25" stroke="currentColor" stroke-width="1.5" stroke-linecap="round" stroke-linejoin="round"></path></g></svg>