<svg width="24px" height="24px" viewBox="0 0 24 24" fill="none" xmlns="http://www.w3.org/2000/svg"><g><path d="M6.19373 3.21356C6.55316 2.91403 7.00623 2.75 7.4741 2.75H16.5259C16.9938 2.75 17.4468 2.91403 17.8063 3.21356L19.5304 4.65031C19.9864 5.0303 20.25 5.59319 20.25 6.18675V15.25C20.25 16.3546 19.3546 17.25 18.25 17.25H5.75C4.64543 17.25 3.75 16.3546 3.75 15.25V6.18675C3.75 5.59319 4.01365 5.03029 4.46963 4.65031L6.19373 3.21356Z" stroke="currentColor" stroke-width="1.5" stroke-linecap="round" stroke-linejoin="round"></path><path d="M7.16222 17L4.84312 21.6382C4.76001 21.8044 4.88088 22 5.06673 22H6.18476C6.27946 22 6.36602 21.9465 6.40837 21.8618L8.67157 17.3354L7.16222 17Z" fill="currentColor"></path><path d="M15.3299 17.3354L17.5931 21.8618C17.6355 21.9465 17.722 22 17.8167 22H18.9348C19.1206 22 19.2415 21.8044 19.1584 21.6382L16.8393 17L15.3299 17.3354Z" fill="currentColor"></path><path d="M4 11.25H20" stroke="currentColor" stroke-width="1.5" stroke-linecap="round" stroke-linejoin="round"></path><circle cx="8" cy="14.25" r="1" fill="currentColor"></circle><circle cx="16" cy="14.25" r="1" fill="currentColor"></circle></g></svg>