<svg width="24px" height="24px" viewBox="0 0 24 24" fill="none" xmlns="http://www.w3.org/2000/svg"><g><path d="M11.4545 4.49588L13.6245 3.07646C14.29 2.64118 15.1475 2.64118 15.813 3.07646L17.1565 3.9553C17.6719 4.29245 17.9829 4.86933 17.9829 5.48824C17.9829 6.18742 18.379 6.82535 19.0032 7.13157L20.1206 7.67973C21.264 8.2407 21.6084 9.71706 20.8326 10.732L19.071 13.0366M11.4545 4.49588L6.32697 5.26989C5.24624 5.43302 4.49329 6.43622 4.63234 7.52772L4.92614 9.83381M11.4545 4.49588L13.6307 7.16484M4.92614 9.83381L3.87897 10.3475C3.18826 10.6864 2.75 11.3923 2.75 12.166V13.0464C2.75 13.7061 3.08151 14.321 3.63091 14.6804C4.10741 14.9921 4.42378 15.4989 4.49608 16.0664L4.80042 18.4553C4.8797 19.0776 5.2412 19.6276 5.77903 19.9442L6.65678 20.4609C7.27006 20.822 8.02709 20.83 8.64775 20.482L11.4545 18.9083M4.92614 9.83381L5.69137 10.5846C6.21142 11.0949 6.99354 11.2216 7.6463 10.9014M11.4545 18.9083L12.7611 20.5107C13.2856 21.154 14.1479 21.4081 14.9341 21.151L16.5156 20.6337C16.766 20.5518 16.998 20.4211 17.1983 20.2491L19.9659 17.8731C20.7071 17.2368 20.8881 16.1566 20.3954 15.3105L19.071 13.0366M11.4545 18.9083L10.3665 17.8407M19.071 13.0366L16.3508 13.5704" stroke="currentColor" stroke-width="1.5" stroke-linecap="round" stroke-linejoin="round"></path></g></svg>