<svg width="24px" height="24px" viewBox="0 0 24 24" fill="none" xmlns="http://www.w3.org/2000/svg"><g><path d="M9.75 16.75C9.75 18.1307 8.63071 19.25 7.25 19.25C5.86929 19.25 4.75 18.1307 4.75 16.75C4.75 15.3693 5.86929 14.25 7.25 14.25C8.63071 14.25 9.75 15.3693 9.75 16.75Z" stroke="currentColor" stroke-width="1.5" stroke-linejoin="round"></path><path d="M19.25 16.75C19.25 18.1307 18.1307 19.25 16.75 19.25C15.3693 19.25 14.25 18.1307 14.25 16.75C14.25 15.3693 15.3693 14.25 16.75 14.25C18.1307 14.25 19.25 15.3693 19.25 16.75Z" stroke="currentColor" stroke-width="1.5" stroke-linejoin="round"></path><path d="M10 16.25H14.5" stroke="currentColor" stroke-width="1.5" stroke-linejoin="round"></path><path d="M8.75 15V6.75H6.04791C5.39162 6.75 4.77709 7.07198 4.40352 7.61158L3.10562 9.48633C2.87406 9.82081 2.75 10.2179 2.75 10.6248V14.2857C2.75 15.3706 3.62944 16.25 4.71429 16.25" stroke="currentColor" stroke-width="1.5" stroke-linejoin="round"></path><path d="M8.75 6.84091V6.75C8.75 5.64543 9.64543 4.75 10.75 4.75H19.25C20.3546 4.75 21.25 5.64543 21.25 6.75V14.3561C21.25 15.4021 20.4021 16.25 19.3561 16.25" stroke="currentColor" stroke-width="1.5" stroke-linejoin="round"></path></g></svg>