<svg width="24px" height="24px" viewBox="0 0 24 24" fill="none" xmlns="http://www.w3.org/2000/svg"><g><path d="M3.75 20.25L7.68216 13.902C4.17881 13.3059 1.75 12.0067 1.75 10.5C1.75 9.02898 4.06511 7.75579 7.43504 7.14151C7.62077 7.10766 7.75 6.93878 7.75 6.75C7.75 4.54086 9.65279 2.75 12 2.75C14.3472 2.75 16.25 4.54086 16.25 6.75C16.25 6.93878 16.3792 7.10766 16.565 7.14151C19.9349 7.75579 22.25 9.02898 22.25 10.5C22.25 12.0067 19.8212 13.3059 16.3178 13.902L20.25 20.25" stroke="currentColor" stroke-width="1.5" stroke-linecap="round" stroke-linejoin="round"></path><path d="M7.76562 7.0841C9.05659 6.86951 10.4906 6.75 12.001 6.75C13.5114 6.75 14.9454 6.86951 16.2364 7.0841" stroke="currentColor" stroke-width="1.5" stroke-linecap="round" stroke-linejoin="round"></path><path d="M7.67969 13.9021L9.48412 10.989C9.77208 10.5242 10.2367 10.1873 10.7791 10.1182C11.5972 10.014 12.3979 10.014 13.2159 10.1182C13.7584 10.1873 14.223 10.5242 14.5109 10.989L16.3154 13.9021" stroke="currentColor" stroke-width="1.5" stroke-linecap="round" stroke-linejoin="round"></path></g></svg>