<svg width="24px" height="24px" viewBox="0 0 24 24" fill="none" xmlns="http://www.w3.org/2000/svg"><g><path d="M13.25 20.2498C13.072 18.1505 12.4312 16.6435 12 15.8398" stroke="currentColor" stroke-width="1.5" stroke-linecap="round" stroke-linejoin="round"></path><path d="M22.2276 4.07192C22.7091 3.79493 23.231 4.36584 22.8958 4.80289L18.5021 9.74902C18.3041 10.0072 17.9116 10.017 17.7003 9.76912L16.3686 8.00008C16.1666 7.76306 16.2302 7.40546 16.5021 7.24902L22.2276 4.07192Z" fill="currentColor"></path><path d="M10.4861 10.9907L10.2654 11.8815C10.0762 12.6451 10.164 13.4518 10.5128 14.1558C10.8291 14.7939 11.3419 15.3114 11.9743 15.6304L16.64 17.9843C16.9863 18.159 17.3683 18.25 17.7555 18.25C19.1332 18.25 20.25 17.1231 20.25 15.7331V14.9723C20.25 14.4019 20.1025 13.8414 19.822 13.3461L16.1389 6.84259V4.25L13.0556 5.80556C5.5 5 1.75 12.0278 1.75 18.25" stroke="currentColor" stroke-width="1.5" stroke-linecap="round" stroke-linejoin="round"></path></g></svg>