<svg width="24px" height="24px" viewBox="0 0 24 24" fill="none" xmlns="http://www.w3.org/2000/svg"><g><path d="M11.25 20.3974V15H12.75V20.3974C12.75 20.4651 12.7362 20.5321 12.7096 20.5943L12.2298 21.7138C12.1432 21.9159 11.8568 21.9159 11.7702 21.7138L11.2904 20.5943C11.2638 20.5321 11.25 20.4651 11.25 20.3974Z" fill="currentColor"></path><path d="M9 8.5C9 8.5 8.06426 9.15042 7.77997 9.35427C6.20076 10.4866 5.09539 12.2377 4.81823 14.253C4.74298 14.8001 5.19796 15.25 5.75024 15.25H15.3925M19.1822 14.253C18.905 12.2378 17.7996 10.4867 16.2205 9.35427C15.9362 9.15042 15.7502 8.83026 15.7502 8.48046V4.75C15.7502 3.64551 14.8547 2.75014 13.7502 2.75H10.2502C9.77716 2.75 9.34244 2.91426 9 3.18885" stroke="currentColor" stroke-width="1.5" stroke-linecap="round" stroke-linejoin="round"></path><path d="M3.75 2.26953L19.25 19.2495" stroke="currentColor" stroke-width="1.5" stroke-linecap="round"></path></g></svg>