<svg width="24px" height="24px" viewBox="0 0 24 24" fill="none" xmlns="http://www.w3.org/2000/svg"><g><circle cx="12" cy="7.75" r="4.5" stroke="currentColor" stroke-width="1.5" stroke-linecap="round" stroke-linejoin="round"></circle><path d="M12.0014 12.25C7.80812 12.25 5.3732 14.9227 4.69664 18.2626C4.47735 19.3452 5.39684 20.25 6.50141 20.25H10.2515" stroke="currentColor" stroke-width="1.5" stroke-linecap="round" stroke-linejoin="round"></path><circle cx="19.0992" cy="15.4" r="0.9" fill="currentColor"></circle><path d="M18.8496 12.5498C20.5617 12.5498 21.9502 13.9383 21.9502 15.6504C21.95 17.3623 20.5616 18.75 18.8496 18.75C18.5179 18.75 18.199 18.6961 17.8994 18.5996L15.75 20.75H13.75V18.75L15.8994 16.5996C15.8032 16.3004 15.75 15.9816 15.75 15.6504C15.75 13.9384 17.1377 12.55 18.8496 12.5498Z" stroke="currentColor" stroke-width="1.5" stroke-linejoin="round"></path></g></svg>