<svg width="24px" height="24px" viewBox="0 0 24 24" fill="none" xmlns="http://www.w3.org/2000/svg"><g><circle cx="12" cy="8.75" r="3" stroke="currentColor" stroke-width="1.5" stroke-linecap="round" stroke-linejoin="round"></circle><circle cx="4" cy="9.80005" r="2" stroke="currentColor" stroke-width="1.5" stroke-linecap="round" stroke-linejoin="round"></circle><circle cx="20" cy="9.80005" r="2" stroke="currentColor" stroke-width="1.5" stroke-linecap="round" stroke-linejoin="round"></circle><path d="M7.25 16.625V16.5C7.25 13.8766 9.37665 11.75 12 11.75C14.6234 11.75 16.75 13.8766 16.75 16.5V16.625C16.75 17.5225 16.0225 18.25 15.125 18.25H8.875C7.97754 18.25 7.25 17.5225 7.25 16.625Z" stroke="currentColor" stroke-width="1.5" stroke-linecap="round" stroke-linejoin="round"></path><path d="M4.25 17.2602H2.75C1.64543 17.2602 0.706551 16.3538 0.919944 15.2701C1.25877 13.5493 2.15049 12.3257 4 11.8301" stroke="currentColor" stroke-width="1.5" stroke-linecap="round" stroke-linejoin="round"></path><path d="M19.75 17.2601H21.25C22.3546 17.2601 23.2935 16.3538 23.08 15.27C22.7412 13.5493 21.8495 12.3257 20 11.8301" stroke="currentColor" stroke-width="1.5" stroke-linecap="round" stroke-linejoin="round"></path></g></svg>