<svg width="24px" height="24px" viewBox="0 0 24 24" fill="none" xmlns="http://www.w3.org/2000/svg"><g><path d="M16.5 7.75C16.5 10.2353 14.4853 12.25 12 12.25C9.51472 12.25 7.5 10.2353 7.5 7.75C7.5 5.26472 9.51472 3.25 12 3.25C14.4853 3.25 16.5 5.26472 16.5 7.75Z" stroke="currentColor" stroke-width="1.5" stroke-linecap="round" stroke-linejoin="round"></path><path d="M12.0014 12.25C7.80812 12.25 5.3732 14.9227 4.69664 18.2626C4.47735 19.3452 5.39684 20.25 6.50141 20.25H11.2515" stroke="currentColor" stroke-width="1.5" stroke-linecap="round" stroke-linejoin="round"></path><path d="M21.2237 16.7646C21.2237 19.1763 17.8618 20.5 17.8618 20.5C17.8618 20.5 14.5 19.1763 14.5 16.7646C14.5 14.9571 16.307 13.881 17.8618 14.8852C19.4167 13.881 21.2237 14.9571 21.2237 16.7646Z" stroke="currentColor" stroke-width="1.5" stroke-linecap="square" stroke-linejoin="round"></path></g></svg>