<svg width="24px" height="24px" viewBox="0 0 24 24" fill="none" xmlns="http://www.w3.org/2000/svg"><g><path d="M11 3.07735C11.6188 2.72008 12.3812 2.72008 13 3.07735L19.2272 6.67265C19.846 7.02992 20.2272 7.69017 20.2272 8.4047V15.5953C20.2272 16.3098 19.846 16.9701 19.2272 17.3274L13 20.9226C12.3812 21.2799 11.6188 21.2799 11 20.9226L4.77276 17.3274C4.15396 16.9701 3.77276 16.3098 3.77276 15.5953V8.4047C3.77276 7.69017 4.15396 7.02992 4.77276 6.67265L11 3.07735Z" stroke="currentColor" stroke-width="1.5" stroke-linecap="round" stroke-linejoin="round"></path><path d="M11.25 12H12.75M13.5 12C13.5 12.8284 12.8284 13.5 12 13.5C11.1716 13.5 10.5 12.8284 10.5 12C10.5 11.1716 11.1716 10.5 12 10.5C12.8284 10.5 13.5 11.1716 13.5 12Z" stroke="currentColor" stroke-width="1.5" stroke-linecap="round" stroke-linejoin="round"></path></g></svg>