<svg width="24px" height="24px" viewBox="0 0 24 24" fill="none" xmlns="http://www.w3.org/2000/svg"><g><path d="M10.001 8.5C10.001 8.5 3.41704 10.7679 2.79102 17.2479" stroke="currentColor" stroke-width="1.5" stroke-linecap="round" stroke-linejoin="round"></path><path d="M16 8.75C16 8.75 20 12 21.25 17.25" stroke="currentColor" stroke-width="1.5" stroke-linecap="round" stroke-linejoin="round"></path><path d="M8.88907 7.75H2.5" stroke="currentColor" stroke-width="1.5" stroke-linecap="square" stroke-linejoin="round"></path><path d="M16 7.75H19.5" stroke="currentColor" stroke-width="1.5" stroke-linecap="square" stroke-linejoin="round"></path><path d="M2.85355 5.60355C2.65829 5.40829 2.34171 5.40829 2.14645 5.60355L0.353553 7.39645C0.158291 7.59171 0.158292 7.90829 0.353554 8.10355L2.14645 9.89645C2.34171 10.0917 2.65829 10.0917 2.85355 9.89645L4.64645 8.10355C4.84171 7.90829 4.84171 7.59171 4.64645 7.39645L2.85355 5.60355Z" fill="currentColor"></path><path d="M20.3536 5.60355C20.1583 5.40829 19.8417 5.40829 19.6464 5.60355L17.8536 7.39645C17.6583 7.59171 17.6583 7.90829 17.8536 8.10355L19.6464 9.89645C19.8417 10.0917 20.1583 10.0917 20.3536 9.89645L22.1464 8.10355C22.3417 7.90829 22.3417 7.59171 22.1464 7.39645L20.3536 5.60355Z" fill="currentColor"></path><circle cx="13" cy="7.75" r="3" stroke="currentColor" stroke-width="1.5" stroke-linecap="square" stroke-linejoin="round"></circle></g></svg>