<svg width="24px" height="24px" viewBox="0 0 24 24" fill="none" xmlns="http://www.w3.org/2000/svg"><g><path d="M8.99998 8.5C8.99998 8.5 3.33012 10.7679 2.79102 17.2479" stroke="currentColor" stroke-width="1.5" stroke-linecap="round" stroke-linejoin="round"></path><path d="M8.88907 7.75H2.5" stroke="currentColor" stroke-width="1.5" stroke-linecap="square" stroke-linejoin="round"></path><path d="M2.85355 5.60355C2.65829 5.40829 2.34171 5.40829 2.14645 5.60355L0.353553 7.39645C0.158291 7.59171 0.158292 7.90829 0.353554 8.10355L2.14645 9.89645C2.34171 10.0917 2.65829 10.0917 2.85355 9.89645L4.64645 8.10355C4.84171 7.90829 4.84171 7.59171 4.64645 7.39645L2.85355 5.60355Z" fill="currentColor"></path><path d="M18.1036 11.6036C17.9083 11.4083 17.5917 11.4083 17.3964 11.6036L15.6036 13.3964C15.4083 13.5917 15.4083 13.9083 15.6036 14.1036L17.3964 15.8964C17.5917 16.0917 17.9083 16.0917 18.1036 15.8964L19.8964 14.1036C20.0917 13.9083 20.0917 13.5917 19.8964 13.3964L18.1036 11.6036Z" fill="currentColor"></path><circle cx="12" cy="7.75" r="3" stroke="currentColor" stroke-width="1.5" stroke-linecap="square" stroke-linejoin="round"></circle><path d="M21.25 17.5L14 10" stroke="currentColor" stroke-width="1.5" stroke-linecap="round"></path></g></svg>