<svg width="24px" height="24px" viewBox="0 0 24 24" fill="none" xmlns="http://www.w3.org/2000/svg"><g><path d="M6.25 12C6.25 13.2426 5.24264 14.25 4 14.25C2.75736 14.25 1.75 13.2426 1.75 12C1.75 10.7574 2.75736 9.75 4 9.75C5.24264 9.75 6.25 10.7574 6.25 12Z" stroke="currentColor" stroke-width="1.5" stroke-linecap="square"></path><path d="M22.25 12C22.25 13.2426 21.2426 14.25 20 14.25C18.7574 14.25 17.75 13.2426 17.75 12C17.75 10.7574 18.7574 9.75 20 9.75C21.2426 9.75 22.25 10.7574 22.25 12Z" stroke="currentColor" stroke-width="1.5" stroke-linecap="square"></path><path d="M6.5 12H17.5" stroke="currentColor" stroke-width="1.5" stroke-linecap="square"></path><path d="M3.58789 9.5C4.66683 5.88564 8.02516 3.25 12.0009 3.25C15.9767 3.25 19.335 5.88564 20.414 9.5" stroke="currentColor" stroke-width="1.5" stroke-linecap="square"></path><path d="M20.414 14.5C19.335 18.1144 15.9767 20.75 12.0009 20.75C8.02517 20.75 4.66684 18.1144 3.58789 14.5" stroke="currentColor" stroke-width="1.5" stroke-linecap="square"></path></g></svg>