<svg width="24px" height="24px" viewBox="0 0 24 24" fill="none" xmlns="http://www.w3.org/2000/svg"><g><path d="M8.99998 8.5C8.99998 8.5 3.33012 10.7679 2.79102 17.2479" stroke="currentColor" stroke-width="1.5" stroke-linecap="round" stroke-linejoin="round"></path><path d="M15 8.5C15 8.5 20.669 10.7676 21.2088 17.2465" stroke="currentColor" stroke-width="1.5" stroke-linecap="round" stroke-linejoin="round"></path><path d="M8.88907 7.75H2.5" stroke="currentColor" stroke-width="1.5" stroke-linecap="square" stroke-linejoin="round"></path><path d="M15 7.75H21.5" stroke="currentColor" stroke-width="1.5" stroke-linecap="square" stroke-linejoin="round"></path><path d="M2.85355 5.60355C2.65829 5.40829 2.34171 5.40829 2.14645 5.60355L0.353553 7.39645C0.158291 7.59171 0.158292 7.90829 0.353554 8.10355L2.14645 9.89645C2.34171 10.0917 2.65829 10.0917 2.85355 9.89645L4.64645 8.10355C4.84171 7.90829 4.84171 7.59171 4.64645 7.39645L2.85355 5.60355Z" fill="currentColor"></path><path d="M21.8536 5.60355C21.6583 5.40829 21.3417 5.40829 21.1464 5.60355L19.3536 7.39645C19.1583 7.59171 19.1583 7.90829 19.3536 8.10355L21.1464 9.89645C21.3417 10.0917 21.6583 10.0917 21.8536 9.89645L23.6464 8.10355C23.8417 7.90829 23.8417 7.59171 23.6464 7.39645L21.8536 5.60355Z" fill="currentColor"></path><circle cx="12" cy="7.75" r="3" stroke="currentColor" stroke-width="1.5" stroke-linecap="square" stroke-linejoin="round"></circle></g></svg>