<svg width="24px" height="24px" viewBox="0 0 24 24" fill="none" xmlns="http://www.w3.org/2000/svg"><g><path d="M16.8984 10V10C16.8984 9.44772 16.4507 9 15.8984 9H14.3984C13.8462 9 13.3984 9.44772 13.3984 10V11C13.3984 11.5523 13.8462 12 14.3984 12H15.8984C16.4507 12 16.8984 12.4477 16.8984 13V14C16.8984 14.5523 16.4507 15 15.8984 15H14.3984C13.8462 15 13.3984 14.5523 13.3984 14V14" stroke="currentColor" stroke-width="1.5" stroke-linecap="round" stroke-linejoin="round"></path><path d="M11 9L9.5 15H8.5L7 9" stroke="currentColor" stroke-width="1.5" stroke-linecap="round" stroke-linejoin="round"></path><path d="M21.25 12C21.25 17.1086 17.1086 21.25 12 21.25C6.89137 21.25 2.75 17.1086 2.75 12C2.75 6.89137 6.89137 2.75 12 2.75C17.1086 2.75 21.25 6.89137 21.25 12Z" stroke="currentColor" stroke-width="1.5"></path></g></svg>