<svg width="24px" height="24px" viewBox="0 0 24 24" fill="none" xmlns="http://www.w3.org/2000/svg"><g><path d="M3.75 3.75V20.25" stroke="currentColor" stroke-width="1.5" stroke-linecap="round" stroke-linejoin="round"></path><path d="M18.5 6.75H8.5C7.5335 6.75 6.75 7.5335 6.75 8.5C6.75 9.4665 7.5335 10.25 8.5 10.25H18.5C19.4665 10.25 20.25 9.4665 20.25 8.5C20.25 7.5335 19.4665 6.75 18.5 6.75Z" stroke="currentColor" stroke-width="1.5" stroke-linecap="round" stroke-linejoin="round"></path><path d="M14.5 13.75H8.5C7.5335 13.75 6.75 14.5335 6.75 15.5C6.75 16.4665 7.5335 17.25 8.5 17.25H14.5C15.4665 17.25 16.25 16.4665 16.25 15.5C16.25 14.5335 15.4665 13.75 14.5 13.75Z" stroke="currentColor" stroke-width="1.5" stroke-linecap="round" stroke-linejoin="round"></path></g></svg>