<svg width="24px" height="24px" viewBox="0 0 24 24" fill="none" xmlns="http://www.w3.org/2000/svg"><g><path d="M12 3.75V6.75M12 17.25V20.25M12 10.25V13.75" stroke="currentColor" stroke-width="1.5" stroke-linecap="round" stroke-linejoin="round"></path><path d="M17.5 6.75H6.5C5.5335 6.75 4.75 7.5335 4.75 8.5C4.75 9.4665 5.5335 10.25 6.5 10.25H17.5C18.4665 10.25 19.25 9.4665 19.25 8.5C19.25 7.5335 18.4665 6.75 17.5 6.75Z" stroke="currentColor" stroke-width="1.5" stroke-linecap="round" stroke-linejoin="round"></path><path d="M15.5 13.75H8.5C7.5335 13.75 6.75 14.5335 6.75 15.5C6.75 16.4665 7.5335 17.25 8.5 17.25H15.5C16.4665 17.25 17.25 16.4665 17.25 15.5C17.25 14.5335 16.4665 13.75 15.5 13.75Z" stroke="currentColor" stroke-width="1.5" stroke-linecap="round" stroke-linejoin="round"></path></g></svg>