<svg width="24px" height="24px" viewBox="0 0 24 24" fill="none" xmlns="http://www.w3.org/2000/svg"><g><path d="M20.25 3.75V20.25" stroke="currentColor" stroke-width="1.5" stroke-linecap="round" stroke-linejoin="round"></path><path d="M15.5 6.75H5.5C4.5335 6.75 3.75 7.5335 3.75 8.5C3.75 9.4665 4.5335 10.25 5.5 10.25H15.5C16.4665 10.25 17.25 9.4665 17.25 8.5C17.25 7.5335 16.4665 6.75 15.5 6.75Z" stroke="currentColor" stroke-width="1.5" stroke-linecap="round" stroke-linejoin="round"></path><path d="M15.5 13.75H9.5C8.5335 13.75 7.75 14.5335 7.75 15.5C7.75 16.4665 8.5335 17.25 9.5 17.25H15.5C16.4665 17.25 17.25 16.4665 17.25 15.5C17.25 14.5335 16.4665 13.75 15.5 13.75Z" stroke="currentColor" stroke-width="1.5" stroke-linecap="round" stroke-linejoin="round"></path></g></svg>