<svg width="24px" height="24px" viewBox="0 0 24 24" fill="none" xmlns="http://www.w3.org/2000/svg"><g><path d="M11.6053 11.9639L10.9756 10.3267C10.8999 10.1299 10.7109 10 10.5 10C10.2891 10 10.1001 10.1299 10.0244 10.3267L9.39466 11.9639C9.31848 12.162 9.16195 12.3185 8.96389 12.3947L7.32667 13.0244C7.12986 13.1001 7 13.2891 7 13.5C7 13.7109 7.12986 13.8999 7.32667 13.9756L8.96388 14.6053C9.16195 14.6815 9.31848 14.838 9.39466 15.0361L10.0244 16.6733C10.1001 16.8701 10.2891 17 10.5 17C10.7109 17 10.8999 16.8701 10.9756 16.6733L11.6053 15.0361C11.6815 14.838 11.838 14.6815 12.0361 14.6053L13.6733 13.9756C13.8701 13.8999 14 13.7109 14 13.5C14 13.2891 13.8701 13.1001 13.6733 13.0244L12.0361 12.3947C11.838 12.3185 11.6815 12.162 11.6053 11.9639Z" fill="currentColor"></path><path d="M14.2553 7.31388L13.8397 6.23334C13.7857 6.09276 13.6506 6 13.5 6C13.3494 6 13.2143 6.09276 13.1603 6.23334L12.7447 7.31388C12.6685 7.51195 12.512 7.66848 12.3139 7.74466L11.2333 8.16026C11.0928 8.21432 11 8.34938 11 8.5C11 8.65062 11.0928 8.78568 11.2333 8.83974L12.3139 9.25534C12.512 9.33152 12.6685 9.48805 12.7447 9.68612L13.1603 10.7667C13.2143 10.9072 13.3494 11 13.5 11C13.6506 11 13.7857 10.9072 13.8397 10.7667L14.2553 9.68612C14.3315 9.48805 14.488 9.33152 14.6861 9.25534L15.7667 8.83974C15.9072 8.78568 16 8.65062 16 8.5C16 8.34938 15.9072 8.21432 15.7667 8.16026L14.6861 7.74466C14.488 7.66848 14.3315 7.51195 14.2553 7.31388Z" fill="currentColor"></path><path d="M6.25 6.75L2 12L6.25 17.25" stroke="currentColor" stroke-width="1.5" stroke-linecap="round" stroke-linejoin="round"></path><path d="M17.75 6.75L22 12L17.75 17.25" stroke="currentColor" stroke-width="1.5" stroke-linecap="round" stroke-linejoin="round"></path></g></svg>