<svg width="24px" height="24px" viewBox="0 0 24 24" fill="none" xmlns="http://www.w3.org/2000/svg"><g><path d="M1.75 20.25C1.75 15.5839 5.32074 13.5638 8.4125 14.1897" stroke="currentColor" stroke-width="1.5" stroke-linecap="round" stroke-linejoin="round"></path><path d="M17 5C17.5516 5.63061 17.9302 6.28903 18.1667 7.05714C18.9047 6.65121 19.6656 6.3 20.5 6.13143" stroke="currentColor" stroke-width="1.5" stroke-linecap="round" stroke-linejoin="round"></path><path d="M7.90201 10.9929C5.63764 10.9929 3.80201 9.15083 3.80201 6.87857C3.8019 5.33571 4.31451 3.27857 6.36451 3.27857C7.55762 3.27857 9.4394 2.25 9.4394 2.25C10.0869 3.26228 11.0764 3.54532 12.002 2.76429C13.2097 3.97619 12.9029 5.15889 12.002 6.36429V6.87857C12.002 9.15083 10.1664 10.9929 7.90201 10.9929Z" stroke="currentColor" stroke-width="1.5" stroke-linecap="round" stroke-linejoin="round"></path><rect width="4" height="2.5" rx="0.5" transform="matrix(-1 0 0 1 8 6)" fill="currentColor"></rect><rect width="3" height="2.5" rx="0.5" transform="matrix(-1 0 0 1 12 6)" fill="currentColor"></rect><path d="M9.4375 6.75H7.3875" stroke="currentColor" stroke-width="1.5" stroke-linecap="round" stroke-linejoin="round"></path><path d="M10.7 20.2498H19.445C19.8918 20.2498 20.2844 19.9534 20.4068 19.5236L21.8873 14.3236C22.0691 13.685 21.5895 13.0498 20.9255 13.0498H13.8825C13.2123 13.0498 12.6234 13.4944 12.4399 14.139L10.7 20.2498ZM10.7 20.2498H6.75" stroke="currentColor" stroke-width="1.5" stroke-linecap="round" stroke-linejoin="round"></path></g></svg>