<svg width="24px" height="24px" viewBox="0 0 24 24" fill="none" xmlns="http://www.w3.org/2000/svg"><g><path d="M12 21.25C17.1086 21.25 21.25 17.1086 21.25 12C21.25 6.89137 17.1086 2.75 12 2.75C6.89137 2.75 2.75 6.89137 2.75 12C2.75 17.1086 6.89137 21.25 12 21.25ZM12 21.25H21.25M9.25 12C9.25 12.9665 8.4665 13.75 7.5 13.75C6.5335 13.75 5.75 12.9665 5.75 12C5.75 11.0335 6.5335 10.25 7.5 10.25C8.4665 10.25 9.25 11.0335 9.25 12ZM13.75 7.5C13.75 8.4665 12.9665 9.25 12 9.25C11.0335 9.25 10.25 8.4665 10.25 7.5C10.25 6.5335 11.0335 5.75 12 5.75C12.9665 5.75 13.75 6.5335 13.75 7.5ZM13.75 16.5C13.75 17.4665 12.9665 18.25 12 18.25C11.0335 18.25 10.25 17.4665 10.25 16.5C10.25 15.5335 11.0335 14.75 12 14.75C12.9665 14.75 13.75 15.5335 13.75 16.5ZM18.25 12C18.25 12.9665 17.4665 13.75 16.5 13.75C15.5335 13.75 14.75 12.9665 14.75 12C14.75 11.0335 15.5335 10.25 16.5 10.25C17.4665 10.25 18.25 11.0335 18.25 12Z" stroke="currentColor" stroke-width="1.5" stroke-linecap="round" stroke-linejoin="round"></path></g></svg>