<svg width="24px" height="24px" viewBox="0 0 24 24" fill="none" xmlns="http://www.w3.org/2000/svg"><g><path d="M4.75 4.75H14.25C15.3546 4.75 16.25 5.64543 16.25 6.75V8.75L19.7681 6.81505C20.4345 6.44851 21.25 6.93067 21.25 7.69127V16.3087C21.25 17.0693 20.4345 17.5515 19.7681 17.1849L16.25 15.25V17.25C16.25 18.3546 15.3546 19.25 14.25 19.25H4.75C3.64543 19.25 2.75 18.3546 2.75 17.25V6.75C2.75 5.64543 3.64543 4.75 4.75 4.75Z" stroke="currentColor" stroke-width="1.5"></path><path d="M12.25 12C12.25 13.5188 11.0188 14.75 9.5 14.75C7.98122 14.75 6.75 13.5188 6.75 12C6.75 10.4812 7.98122 9.25 9.5 9.25C11.0188 9.25 12.25 10.4812 12.25 12Z" stroke="currentColor" stroke-width="1.5"></path></g></svg>