<svg width="24px" height="24px" viewBox="0 0 24 24" fill="none" xmlns="http://www.w3.org/2000/svg"><g><path d="M19.25 4.75H4.75C3.64543 4.75 2.75 5.64543 2.75 6.75V13.75C2.75 14.8546 3.64543 15.75 4.75 15.75H19.25C20.3546 15.75 21.25 14.8546 21.25 13.75V6.75C21.25 5.64543 20.3546 4.75 19.25 4.75Z" stroke="currentColor" stroke-width="1.5" stroke-linecap="round" stroke-linejoin="round"></path><path d="M2.75 19.25L21.25 19.25" stroke="currentColor" stroke-width="1.5" stroke-linecap="round" stroke-linejoin="round"></path><path d="M3 11.75L6.27334 9.74963C7.00627 9.30173 7.94334 9.37183 8.60146 9.92381L15.25 15.5" stroke="currentColor" stroke-width="1.5" stroke-linecap="round" stroke-linejoin="round"></path><path d="M17.75 9.25C17.75 10.0784 17.0784 10.75 16.25 10.75C15.4216 10.75 14.75 10.0784 14.75 9.25C14.75 8.42157 15.4216 7.75 16.25 7.75C17.0784 7.75 17.75 8.42157 17.75 9.25Z" stroke="currentColor" stroke-width="1.5" stroke-linecap="round" stroke-linejoin="round"></path><circle cx="7" cy="19.25" r="1" stroke="currentColor" stroke-width="1.5" stroke-linecap="round" stroke-linejoin="round"></circle></g></svg>