<svg width="24px" height="24px" viewBox="0 0 24 24" fill="none" xmlns="http://www.w3.org/2000/svg"><g><path d="M0.75 8.75V13.25" stroke="currentColor" stroke-width="1.5" stroke-linecap="round" stroke-linejoin="round"></path><path d="M19.25 17.1786H20.25C21.3546 17.1786 22.25 16.2831 22.25 15.1786V6.75C22.25 5.64543 21.3546 4.75 20.25 4.75H5.75C4.64543 4.75 3.75 5.64543 3.75 6.75V15.1786C3.75 16.2831 4.64543 17.1786 5.75 17.1786H6.75" stroke="currentColor" stroke-width="1.5" stroke-linecap="round" stroke-linejoin="round"></path><path d="M17.75 19.25H8.25C7.42157 19.25 6.75 18.5784 6.75 17.75C6.75 16.9216 7.42157 16.25 8.25 16.25H17.75C18.5784 16.25 19.25 16.9216 19.25 17.75C19.25 18.5784 18.5784 19.25 17.75 19.25Z" stroke="currentColor" stroke-width="1.5" stroke-linecap="round" stroke-linejoin="round"></path></g></svg>