<svg width="24px" height="24px" viewBox="0 0 24 24" fill="none" xmlns="http://www.w3.org/2000/svg"><g><path d="M16.5229 10.961C13.7132 7.34634 10.2866 7.34634 7.47695 10.961C7.00248 11.5714 7.00247 12.4286 7.47695 13.039C10.2866 16.6537 13.7132 16.6537 16.5229 13.039C16.9973 12.4286 16.9973 11.5714 16.5229 10.961Z" stroke="currentColor" stroke-width="1.5" stroke-linecap="round" stroke-linejoin="round"></path><path d="M3.93318 7.46875C1.95079 10.9935 2.45949 15.541 5.45926 18.5408C8.45904 21.5406 13.0066 22.0492 16.5313 20.0669" stroke="currentColor" stroke-width="1.5" stroke-linecap="round" stroke-linejoin="round"></path><path d="M7.46875 3.93318C10.9935 1.95079 15.541 2.45949 18.5408 5.45926C21.5406 8.45904 22.0492 13.0066 20.0669 16.5313" stroke="currentColor" stroke-width="1.5" stroke-linecap="round" stroke-linejoin="round"></path><path d="M12 10.75C12.6904 10.75 13.25 11.3096 13.25 12C13.25 12.6904 12.6904 13.25 12 13.25C11.3096 13.25 10.75 12.6904 10.75 12C10.75 11.3096 11.3096 10.75 12 10.75Z" fill="currentColor"></path></g></svg>