<svg width="24px" height="24px" viewBox="0 0 24 24" fill="none" xmlns="http://www.w3.org/2000/svg"><g><path d="M13.75 5.75H17.25C18.3546 5.75 19.25 6.64543 19.25 7.75V16.25C19.25 17.3546 18.3546 18.25 17.25 18.25H15.75" stroke="currentColor" stroke-width="1.5" stroke-miterlimit="16" stroke-linecap="round" stroke-linejoin="round"></path><path d="M13.25 12.75C13.25 16.3399 10.4518 19.25 7 19.25C3.54822 19.25 0.75 16.3399 0.75 12.75" stroke="currentColor" stroke-width="1.5" stroke-miterlimit="16" stroke-linecap="round" stroke-linejoin="round"></path><path d="M3.75 8C3.75 6.20507 5.20507 4.75 7 4.75C8.79493 4.75 10.25 6.20507 10.25 8V13C10.25 14.7949 8.79493 16.25 7 16.25C5.20507 16.25 3.75 14.7949 3.75 13V8Z" stroke="currentColor" stroke-width="1.5" stroke-miterlimit="16" stroke-linecap="round" stroke-linejoin="round"></path><path d="M19.5 9.85713L21.8062 8.71501C22.4709 8.38584 23.25 8.86942 23.25 9.61114V14.3888C23.25 15.1306 22.4709 15.6141 21.8062 15.285L19.5 14.1428" stroke="currentColor" stroke-width="1.5" stroke-miterlimit="16" stroke-linecap="round" stroke-linejoin="round"></path></g></svg>