<svg width="24px" height="24px" viewBox="0 0 24 24" fill="none" xmlns="http://www.w3.org/2000/svg"><g><path d="M12.0023 2.75C13.3898 5.30398 13.3898 9.44604 12.0023 12C9.0968 12.076 5.51016 14.146 3.99219 16.625" stroke="currentColor" stroke-width="1.5" stroke-linecap="round" stroke-linejoin="round"></path><path d="M12 12C13.518 14.479 17.105 16.5491 20.0105 16.625" stroke="currentColor" stroke-width="1.5" stroke-linecap="round" stroke-linejoin="round"></path><path d="M7.37891 13.4742C9.12862 16.331 12.4158 18.8781 15.922 20.3689" stroke="currentColor" stroke-width="1.5" stroke-linecap="round" stroke-linejoin="round"></path><path d="M2.79688 11.1295C5.86788 8.87833 9.69836 7.34575 13.0371 7.25909" stroke="currentColor" stroke-width="1.5" stroke-linecap="round" stroke-linejoin="round"></path><path d="M15.5898 15.2667C17.1886 12.3232 17.7543 8.20745 17.2996 4.42468" stroke="currentColor" stroke-width="1.5" stroke-linecap="round" stroke-linejoin="round"></path><path d="M21.25 12C21.25 17.1086 17.1086 21.25 12 21.25C6.89137 21.25 2.75 17.1086 2.75 12C2.75 6.89137 6.89137 2.75 12 2.75C17.1086 2.75 21.25 6.89137 21.25 12Z" stroke="currentColor" stroke-width="1.5"></path></g></svg>