<svg width="24px" height="24px" viewBox="0 0 24 24" fill="none" xmlns="http://www.w3.org/2000/svg"><g><path d="M19.2478 4.75194C21.1027 6.60683 22.25 9.16933 22.25 11.9998C22.25 14.8302 21.1027 17.3927 19.2478 19.2476M15.8891 8.11132C16.8844 9.10662 17.5 10.4816 17.5 12.0004C17.5 13.5192 16.8844 14.8942 15.8891 15.8895M3.75 7.74999H5.35491C5.77433 7.74999 6.18314 7.61813 6.52352 7.37306L11.4578 3.82034C11.7886 3.58221 12.25 3.81856 12.25 4.22611V19.7739C12.25 20.1814 11.7886 20.4178 11.4578 20.1796L6.52352 16.6269C6.18314 16.3818 5.77433 16.25 5.35491 16.25H3.75C2.64543 16.25 1.75 15.3546 1.75 14.25V9.74999C1.75 8.64542 2.64543 7.74999 3.75 7.74999Z" stroke="currentColor" stroke-width="1.5" stroke-linecap="round" stroke-linejoin="round"></path></g></svg>