<svg width="24px" height="24px" viewBox="0 0 24 24" fill="none" xmlns="http://www.w3.org/2000/svg"><g><path d="M3 13.4232C5.07915 12.3217 9.2393 9.75 12 9.75C14.7607 9.75 18.9208 12.3217 21 13.4232M11.735 10.1127C11.1067 11.01 9.63873 13.3504 10.4583 14.5893C11.4861 16.1429 16.0676 13.8961 16.625 16.1429C16.9749 17.5532 15.1808 18.4834 14 18.9335M4.75 4.75H19.25C20.3546 4.75 21.25 5.64543 21.25 6.75V17.25C21.25 18.3546 20.3546 19.25 19.25 19.25H4.75C3.64543 19.25 2.75 18.3546 2.75 17.25V6.75C2.75 5.64543 3.64543 4.75 4.75 4.75Z" stroke="currentColor" stroke-width="1.5" stroke-linecap="round" stroke-linejoin="round"></path></g></svg>