<svg width="24px" height="24px" viewBox="0 0 24 24" fill="none" xmlns="http://www.w3.org/2000/svg"><g><path d="M3.75 6.5V17.25C3.75 18.9069 5.09315 20.25 6.75 20.25H18.25C19.3546 20.25 20.25 19.3546 20.25 18.25V10.75C20.25 9.64543 19.3546 8.75 18.25 8.75H16.25M3.75 6.5C3.75 7.74264 4.75736 8.75 6 8.75H16.25M3.75 6.5C3.75 4.98122 4.98122 3.75 6.5 3.75H14.7794C15.5916 3.75 16.25 4.4084 16.25 5.22059V8.75" stroke="currentColor" stroke-width="1.5" stroke-linecap="square" stroke-linejoin="round"></path><path d="M15.5 15.25C15.9142 15.25 16.25 14.9142 16.25 14.5C16.25 14.0858 15.9142 13.75 15.5 13.75C15.0858 13.75 14.75 14.0858 14.75 14.5C14.75 14.9142 15.0858 15.25 15.5 15.25Z" fill="currentColor" stroke="currentColor" stroke-width="0.5" stroke-linejoin="round"></path></g></svg>