<svg width="24px" height="24px" viewBox="0 0 24 24" fill="none" xmlns="http://www.w3.org/2000/svg"><g><path d="M2.75 7.75V6.75C2.75 5.64543 3.64543 4.75 4.75 4.75H19.25C20.3546 4.75 21.25 5.64543 21.25 6.75V7.75M2.75 7.75H21.25M2.75 7.75V10.75M21.25 7.75V10.75M21.25 10.75V17.25C21.25 18.3546 20.3546 19.25 19.25 19.25H4.75C3.64543 19.25 2.75 18.3546 2.75 17.25V10.75M21.25 10.75H15.25V11.25C15.25 12.3546 14.3546 13.25 13.25 13.25H10.75C9.64543 13.25 8.75 12.3546 8.75 11.25V10.75H2.75" stroke="currentColor" stroke-width="1.5" stroke-linejoin="round"></path></g></svg>