<svg width="24px" height="24px" viewBox="0 0 24 24" fill="none" xmlns="http://www.w3.org/2000/svg"><g><path d="M21.25 10.75V17.25C21.25 18.3546 20.3546 19.25 19.25 19.25H4.75C3.64543 19.25 2.75 18.3546 2.75 17.25V10.75M21.25 10.75H18.75M21.25 10.75V6.75C21.25 5.64543 20.3546 4.75 19.25 4.75H4.75C3.64543 4.75 2.75 5.64543 2.75 6.75V10.75M2.75 10.75H5.25M5.25 10.75H7.13177C7.53452 10.75 7.92789 10.8716 8.26039 11.0989L9.43406 11.9011C9.76655 12.1284 10.1599 12.25 10.5627 12.25H13.4373C13.8401 12.25 14.2334 12.1284 14.5659 11.9011L15.7396 11.0989C16.0721 10.8716 16.4655 10.75 16.8682 10.75H18.75M5.25 10.75V7.75C5.25 7.47386 5.47386 7.25 5.75 7.25H18.25C18.5261 7.25 18.75 7.47386 18.75 7.75V10.75" stroke="currentColor" stroke-width="1.5" stroke-linejoin="round"></path></g></svg>