<svg width="24px" height="24px" viewBox="0 0 24 24" fill="none" xmlns="http://www.w3.org/2000/svg"><g><path d="M3.75 5.75C3.75 4.64543 4.64543 3.75 5.75 3.75H18.25C19.3546 3.75 20.25 4.64543 20.25 5.75V18.25C20.25 19.3546 19.3546 20.25 18.25 20.25H5.75C4.64543 20.25 3.75 19.3546 3.75 18.25V5.75Z" stroke="currentColor" stroke-width="1.5" stroke-linecap="round" stroke-linejoin="round"></path><path d="M7.25 7.25H7.26M7.5 7.25C7.5 7.38807 7.38807 7.5 7.25 7.5C7.11193 7.5 7 7.38807 7 7.25C7 7.11193 7.11193 7 7.25 7C7.38807 7 7.5 7.11193 7.5 7.25Z" stroke="currentColor" stroke-width="1.5" stroke-linecap="round"></path><circle cx="12" cy="13" r="4.25" stroke="currentColor" stroke-width="1.5"></circle><path d="M8.25 12.9956C10.88 10.7348 12.8149 15.5186 15.75 12.9956" stroke="currentColor" stroke-width="1.5" stroke-linecap="square"></path></g></svg>