<svg width="24px" height="24px" viewBox="0 0 24 24" fill="none" xmlns="http://www.w3.org/2000/svg"><g><path d="M15 21.25H7.65586C6.60333 21.25 5.73091 20.4342 5.66036 19.3841L4.75 5.83333L6.22708 3.63469C6.59858 3.08171 7.22104 2.75 7.88723 2.75H16.1128C16.779 2.75 17.4014 3.08171 17.7729 3.63469L19.25 5.83333L18.5 17.25" stroke="currentColor" stroke-width="1.5" stroke-linecap="round" stroke-linejoin="round"></path><path d="M3.75 6H20.25" stroke="currentColor" stroke-width="1.5" stroke-linecap="round" stroke-linejoin="round"></path><path d="M19 19C19 20.3807 17.8807 21.5 16.5 21.5C15.1193 21.5 14 20.3807 14 19C14 17.6193 15.1193 16.5 16.5 16.5C17.8807 16.5 19 17.6193 19 19Z" stroke="currentColor" stroke-width="1.5" stroke-linecap="round" stroke-linejoin="round"></path></g></svg>