<svg width="24px" height="24px" viewBox="0 0 24 24" fill="none" xmlns="http://www.w3.org/2000/svg"><g><path d="M6.75 21.25H17.25M12 17.25V21M12 17.25C16.0041 17.25 19.25 14.0041 19.25 10C19.25 5.99594 16.0041 2.75 12 2.75C7.99594 2.75 4.75 5.99594 4.75 10C4.75 14.0041 7.99594 17.25 12 17.25ZM15.25 10C15.25 11.7949 13.7949 13.25 12 13.25C10.2051 13.25 8.75 11.7949 8.75 10C8.75 8.20507 10.2051 6.75 12 6.75C13.7949 6.75 15.25 8.20507 15.25 10Z" stroke="currentColor" stroke-width="1.5" stroke-linecap="round" stroke-linejoin="round"></path></g></svg>