<svg width="24px" height="24px" viewBox="0 0 24 24" fill="none" xmlns="http://www.w3.org/2000/svg"><g><path d="M18.25 3.75H5.75C4.64543 3.75 3.75 4.64543 3.75 5.75V18.25C3.75 19.3546 4.64543 20.25 5.75 20.25H18.25C19.3546 20.25 20.25 19.3546 20.25 18.25V5.75C20.25 4.64543 19.3546 3.75 18.25 3.75Z" stroke="currentColor" stroke-width="1.5" stroke-linejoin="round"></path><path d="M9.375 12.1225L6.75 8.84129C8.18836 7.68911 10.0137 7 12 7C13.9863 7 15.8116 7.68911 17.25 8.84129L14.625 12.1225C13.9058 11.5465 12.9931 11.2019 12 11.2019C11.0069 11.2019 10.0942 11.5465 9.375 12.1225Z" stroke="currentColor" stroke-width="1.5" stroke-linejoin="round"></path></g></svg>