<svg width="24px" height="24px" viewBox="0 0 24 24" fill="none" xmlns="http://www.w3.org/2000/svg"><g><path d="M15.0624 19.0001C14.0113 20.3683 12.3586 21.2501 10.5 21.2501C7.32436 21.2501 4.75 18.6758 4.75 15.5001C4.75 12.8434 6.55176 10.6075 9 9.94775M15.0624 19.0001C15.1855 18.8399 15.3004 18.6731 15.4063 18.5001L15.0624 19.0001Z" stroke="currentColor" stroke-width="1.5" stroke-linecap="round" stroke-linejoin="round"></path><path d="M18.2449 18.3143L18.9644 18.5259V18.5259L18.2449 18.3143ZM17.0296 19.7884C16.9127 20.1857 17.1401 20.6026 17.5375 20.7195C17.9349 20.8364 18.3518 20.609 18.4686 20.2116L17.0296 19.7884ZM11.1296 12.8469L10.4167 12.6139C10.4151 12.619 10.4135 12.6241 10.4119 12.6292L11.1296 12.8469ZM12.7772 10.2209C12.9059 9.82715 12.6911 9.40364 12.2974 9.27492C11.9037 9.14621 11.4802 9.36102 11.3515 9.75473L12.7772 10.2209ZM13.2828 16.5H16.3262V15H13.2828V16.5ZM17.5254 18.1027L17.0296 19.7884L18.4686 20.2116L18.9644 18.5259L17.5254 18.1027ZM13.2828 15C12.2761 15 11.5551 14.028 11.8473 13.0646L10.4119 12.6292C9.82752 14.5559 11.2694 16.5 13.2828 16.5V15ZM11.3515 9.75473L10.4167 12.6139L11.8425 13.08L12.7772 10.2209L11.3515 9.75473ZM16.3262 16.5C17.1607 16.5 17.7608 17.3021 17.5254 18.1027L18.9644 18.5259C19.4825 16.7646 18.1621 15 16.3262 15V16.5Z" fill="currentColor"></path><path d="M12 12H16" stroke="currentColor" stroke-width="1.5" stroke-linecap="round" stroke-linejoin="round"></path><circle cx="13.5" cy="5" r="2.25" stroke="currentColor" stroke-width="1.5" stroke-linecap="round" stroke-linejoin="round"></circle></g></svg>