<svg width="24px" height="24px" viewBox="0 0 24 24" fill="none" xmlns="http://www.w3.org/2000/svg"><g><path d="M4.84202 20.032L5.18251 19.3638L5.18251 19.3638L4.84202 20.032ZM3.96799 19.158L4.63624 18.8175L4.63624 18.8175L3.96799 19.158ZM20.032 19.158L19.3638 18.8175L19.3638 18.8175L20.032 19.158ZM19.158 20.032L18.8175 19.3638L18.8175 19.3638L19.158 20.032ZM20.032 4.84202L19.3638 5.18251L19.3638 5.18251L20.032 4.84202ZM19.158 3.96799L18.8175 4.63624L18.8175 4.63624L19.158 3.96799ZM3.96799 4.84202L3.29973 4.50153L3.29973 4.50153L3.96799 4.84202ZM4.84202 3.96799L4.50153 3.29973L4.50153 3.29973L4.84202 3.96799ZM15.6227 9.47035C15.9807 9.6787 16.4399 9.5574 16.6482 9.1994C16.8566 8.8414 16.7353 8.38229 16.3773 8.17393L15.6227 9.47035ZM7.62274 8.17393C7.26474 8.38229 7.14344 8.8414 7.35179 9.1994C7.56014 9.5574 8.01926 9.6787 8.37726 9.47035L7.62274 8.17393ZM12 11.75L12 11L12 11.75ZM13.6779 12.8763C14.0519 13.0541 14.4994 12.8951 14.6773 12.5211C14.8552 12.147 14.6962 11.6995 14.3221 11.5216L13.6779 12.8763ZM9.67834 11.5217C9.3043 11.6996 9.14534 12.1471 9.32329 12.5211C9.50124 12.8952 9.94871 13.0542 10.3228 12.8762L9.67834 11.5217ZM19.5 6.95V17.05H21V6.95H19.5ZM17.05 19.5H6.95V21H17.05V19.5ZM4.5 17.05V6.95H3V17.05H4.5ZM6.95 4.5H17.05V3H6.95V4.5ZM6.95 19.5C6.37757 19.5 5.99336 19.4994 5.69748 19.4752C5.41035 19.4518 5.27307 19.4099 5.18251 19.3638L4.50153 20.7003C4.83879 20.8721 5.19545 20.9392 5.57533 20.9703C5.94646 21.0006 6.40232 21 6.95 21V19.5ZM3 17.05C3 17.5977 2.99942 18.0535 3.02974 18.4247C3.06078 18.8046 3.12789 19.1612 3.29973 19.4985L4.63624 18.8175C4.5901 18.7269 4.54822 18.5896 4.52476 18.3025C4.50058 18.0066 4.5 17.6224 4.5 17.05H3ZM5.18251 19.3638C4.94731 19.2439 4.75608 19.0527 4.63624 18.8175L3.29973 19.4985C3.56338 20.0159 3.98408 20.4366 4.50153 20.7003L5.18251 19.3638ZM19.5 17.05C19.5 17.6224 19.4994 18.0066 19.4752 18.3025C19.4518 18.5896 19.4099 18.7269 19.3638 18.8175L20.7003 19.4985C20.8721 19.1612 20.9392 18.8046 20.9703 18.4247C21.0006 18.0535 21 17.5977 21 17.05H19.5ZM17.05 21C17.5977 21 18.0535 21.0006 18.4247 20.9703C18.8046 20.9392 19.1612 20.8721 19.4985 20.7003L18.8175 19.3638C18.7269 19.4099 18.5896 19.4518 18.3025 19.4752C18.0066 19.4994 17.6224 19.5 17.05 19.5V21ZM19.3638 18.8175C19.2439 19.0527 19.0527 19.2439 18.8175 19.3638L19.4985 20.7003C20.0159 20.4366 20.4366 20.0159 20.7003 19.4985L19.3638 18.8175ZM21 6.95C21 6.40232 21.0006 5.94646 20.9703 5.57533C20.9392 5.19545 20.8721 4.83879 20.7003 4.50153L19.3638 5.18251C19.4099 5.27307 19.4518 5.41035 19.4752 5.69748C19.4994 5.99336 19.5 6.37757 19.5 6.95H21ZM17.05 4.5C17.6224 4.5 18.0066 4.50058 18.3025 4.52476C18.5896 4.54822 18.7269 4.5901 18.8175 4.63624L19.4985 3.29973C19.1612 3.12789 18.8046 3.06078 18.4247 3.02974C18.0535 2.99942 17.5977 3 17.05 3V4.5ZM20.7003 4.50153C20.4366 3.98408 20.0159 3.56338 19.4985 3.29973L18.8175 4.63624C19.0527 4.75608 19.2439 4.94731 19.3638 5.18251L20.7003 4.50153ZM4.5 6.95C4.5 6.37757 4.50058 5.99336 4.52476 5.69748C4.54822 5.41035 4.5901 5.27307 4.63624 5.18251L3.29973 4.50153C3.12789 4.83879 3.06078 5.19545 3.02974 5.57533C2.99942 5.94646 3 6.40232 3 6.95H4.5ZM6.95 3C6.40232 3 5.94646 2.99942 5.57533 3.02974C5.19545 3.06078 4.83879 3.12789 4.50153 3.29973L5.18251 4.63624C5.27307 4.5901 5.41035 4.54822 5.69748 4.52476C5.99336 4.50058 6.37757 4.5 6.95 4.5V3ZM4.63624 5.18251C4.75608 4.94731 4.94731 4.75608 5.18251 4.63624L4.50153 3.29973C3.98408 3.56338 3.56338 3.98408 3.29973 4.50153L4.63624 5.18251ZM16.3773 8.17393C15.031 7.39038 13.5142 7 12 7V8.5C13.2577 8.5 14.5128 8.82438 15.6227 9.47035L16.3773 8.17393ZM12 7C10.4858 7 8.96905 7.39038 7.62274 8.17393L8.37726 9.47035C9.48717 8.82438 10.7423 8.5 12 8.5V7ZM12 12.5C12.5766 12.5 13.1516 12.6259 13.6779 12.8763L14.3221 11.5216C13.5897 11.1733 12.794 11 12 11L12 12.5ZM10.3228 12.8762C10.8487 12.626 11.4235 12.5 12 12.5L12 11C11.206 11 10.4105 11.1734 9.67834 11.5217L10.3228 12.8762Z" fill="currentColor"></path><path d="M12 15.25C12.4142 15.25 12.75 15.5858 12.75 16C12.75 16.4142 12.4142 16.75 12 16.75C11.5858 16.75 11.25 16.4142 11.25 16C11.25 15.5858 11.5858 15.25 12 15.25Z" fill="currentColor" stroke="currentColor" stroke-width="0.5" stroke-linecap="round" stroke-linejoin="round"></path></g></svg>