<svg width="24px" height="24px" viewBox="0 0 24 24" fill="none" xmlns="http://www.w3.org/2000/svg"><g><path fill-rule="evenodd" clip-rule="evenodd" d="M2 6.75C2 5.23122 3.23122 4 4.75 4H19.25C20.7688 4 22 5.23122 22 6.75V8.25C22 8.66421 21.6642 9 21.25 9C20.8358 9 20.5 8.66421 20.5 8.25V6.75C20.5 6.05964 19.9404 5.5 19.25 5.5H4.75C4.05964 5.5 3.5 6.05964 3.5 6.75V17.25C3.5 17.9404 4.05964 18.5 4.75 18.5H10.25C10.6642 18.5 11 18.8358 11 19.25C11 19.6642 10.6642 20 10.25 20H4.75C3.23122 20 2 18.7688 2 17.25V6.75ZM18 11C18.4142 11 18.75 11.3358 18.75 11.75C18.75 13.1341 19.0567 13.9596 19.5486 14.4514C20.0404 14.9433 20.8659 15.25 22.25 15.25C22.6642 15.25 23 15.5858 23 16C23 16.4142 22.6642 16.75 22.25 16.75C20.8659 16.75 20.0404 17.0567 19.5486 17.5486C19.0567 18.0404 18.75 18.8659 18.75 20.25C18.75 20.6642 18.4142 21 18 21C17.5858 21 17.25 20.6642 17.25 20.25C17.25 18.8659 16.9433 18.0404 16.4514 17.5486C15.9596 17.0567 15.1341 16.75 13.75 16.75C13.3358 16.75 13 16.4142 13 16C13 15.5858 13.3358 15.25 13.75 15.25C15.1341 15.25 15.9596 14.9433 16.4514 14.4514C16.9433 13.9596 17.25 13.1341 17.25 11.75C17.25 11.3358 17.5858 11 18 11ZM18 14.9036C17.8599 15.1231 17.6979 15.3263 17.5121 15.5121C17.3263 15.6979 17.1231 15.8599 16.9036 16C17.1231 16.1401 17.3263 16.3021 17.5121 16.4879C17.6979 16.6737 17.8599 16.8769 18 17.0964C18.1401 16.8769 18.3021 16.6737 18.4879 16.4879C18.6737 16.3021 18.8769 16.1401 19.0964 16C18.8769 15.8599 18.6737 15.6979 18.4879 15.5121C18.3021 15.3263 18.1401 15.1231 18 14.9036Z" fill="currentColor"></path><path d="M7 8C7 8.55228 6.55228 9 6 9C5.44772 9 5 8.55228 5 8C5 7.44772 5.44772 7 6 7C6.55228 7 7 7.44772 7 8Z" fill="currentColor"></path><path d="M10 8C10 8.55228 9.55228 9 9 9C8.44772 9 8 8.55228 8 8C8 7.44772 8.44772 7 9 7C9.55228 7 10 7.44772 10 8Z" fill="currentColor"></path><path d="M12 9C12.5523 9 13 8.55228 13 8C13 7.44772 12.5523 7 12 7C11.4477 7 11 7.44772 11 8C11 8.55228 11.4477 9 12 9Z" fill="currentColor"></path></g></svg>