<svg width="24px" height="24px" viewBox="0 0 24 24" fill="none" xmlns="http://www.w3.org/2000/svg"><g><path d="M19.25 21.25L4.75 21.25" stroke="currentColor" stroke-width="1.5" stroke-linecap="round" stroke-linejoin="round"></path><path d="M14.7504 11C14.7504 12.181 14.006 13.1881 12.9608 13.5777C12.7287 13.6642 12.4817 13.7202 12.2247 13.741C12.1507 13.747 12.0759 13.75 12.0004 13.75C11.9248 13.75 11.8499 13.7469 11.7759 13.741C11.519 13.7202 11.2721 13.6641 11.04 13.5776C9.99485 13.1881 9.25043 12.181 9.25043 11C9.25043 10.5793 9.3449 10.1807 9.51378 9.82416C9.5783 9.68793 9.6537 9.55786 9.73883 9.43506C10.2353 8.71896 11.0631 8.25 12.0004 8.25C12.9377 8.25 13.7655 8.71891 14.2619 9.43493C14.3472 9.55784 14.4226 9.68804 14.4872 9.8244C14.656 10.1809 14.7504 10.5794 14.7504 11Z" fill="currentColor"></path><path d="M9.43042 21.25L10.8997 14.2468M14.5704 21.25L13.1012 14.247M14.2619 9.43493C13.7655 8.71891 12.9377 8.25 12.0004 8.25C11.0631 8.25 10.2353 8.71896 9.73883 9.43506M14.2619 9.43493L14.2619 4.98274C14.2619 3.73372 13.2494 2.72119 12.0004 2.72119C10.7514 2.72119 9.73883 3.73372 9.73883 4.98274L9.73883 9.43506M14.2619 9.43493C14.3472 9.55784 14.4226 9.68804 14.4872 9.8244M14.4872 9.8244C14.656 10.1809 14.7504 10.5794 14.7504 11C14.7504 12.181 14.006 13.1881 12.9608 13.5777C12.7287 13.6642 12.4817 13.7202 12.2247 13.741M14.4872 9.8244L18.3423 12.0501C19.424 12.6746 19.7946 14.0578 19.1701 15.1395C18.5456 16.2212 17.1624 16.5918 16.0807 15.9673L13.1012 14.247M9.73883 9.43506C9.6537 9.55786 9.5783 9.68793 9.51378 9.82416M9.51378 9.82416C9.3449 10.1807 9.25043 10.5793 9.25043 11C9.25043 12.181 9.99485 13.1881 11.04 13.5776C11.2721 13.6641 11.519 13.7202 11.7759 13.741M9.51378 9.82416L5.6585 12.05C4.57681 12.6745 4.2062 14.0577 4.83071 15.1393C5.45522 16.221 6.83837 16.5916 7.92005 15.9671L10.8997 14.2468M12.2247 13.741C12.1507 13.747 12.0759 13.75 12.0004 13.75C11.9248 13.75 11.8499 13.7469 11.7759 13.741M12.2247 13.741L13.1012 14.247M11.7759 13.741L10.8997 14.2468" stroke="currentColor" stroke-width="1.5" stroke-linecap="round" stroke-linejoin="round"></path></g></svg>