<svg width="24px" height="24px" viewBox="0 0 24 24" fill="none" xmlns="http://www.w3.org/2000/svg"><g><path d="M3.75 10.75V5.75C3.75 4.64543 4.64543 3.75 5.75 3.75H18.25C19.3546 3.75 20.25 4.64543 20.25 5.75V10.75M3.75 10.75V18.25C3.75 19.3546 4.64543 20.25 5.75 20.25H18.25C19.3546 20.25 20.25 19.3546 20.25 18.25V10.75M3.75 10.75H20.25M10.75 7.25H17.25M8.25 7.25C8.25 7.66421 7.91421 8 7.5 8C7.08579 8 6.75 7.66421 6.75 7.25C6.75 6.83579 7.08579 6.5 7.5 6.5C7.91421 6.5 8.25 6.83579 8.25 7.25Z" stroke="currentColor" stroke-width="1.5" stroke-linecap="round" stroke-linejoin="round"></path></g></svg>