<svg width="24px" height="24px" viewBox="0 0 24 24" fill="none" xmlns="http://www.w3.org/2000/svg"><g><path d="M2.75 20.25L21.25 20.25" stroke="currentColor" stroke-width="1.5" stroke-linecap="round" stroke-linejoin="round"></path><path d="M4.75 19.7499L10.7628 3.99207C11.3122 2.55237 13.2148 2.24862 14.1851 3.44572L18.2143 8.41655H14.2786L19.25 19.7499" stroke="currentColor" stroke-width="1.5" stroke-linecap="square" stroke-linejoin="round"></path><path d="M12.8594 15.1523C12.9598 15.3674 13.1326 15.5402 13.3477 15.6406L13.582 15.75L13.3477 15.8594C13.1326 15.9598 12.9598 16.1326 12.8594 16.3477L12.75 16.582L12.6406 16.3477L12.5996 16.2695C12.4963 16.0909 12.3406 15.9473 12.1523 15.8594L11.917 15.75L12.1523 15.6406C12.3674 15.5402 12.5402 15.3674 12.6406 15.1523L12.75 14.917L12.8594 15.1523Z" stroke="currentColor" stroke-width="1.5"></path><path d="M9.85938 11.1523C9.95975 11.3674 10.1326 11.5402 10.3477 11.6406L10.582 11.75L10.3477 11.8594C10.1326 11.9598 9.95975 12.1326 9.85938 12.3477L9.75 12.582L9.64062 12.3477L9.59961 12.2695C9.49634 12.0909 9.34062 11.9473 9.15234 11.8594L8.91699 11.75L9.15234 11.6406C9.36738 11.5402 9.54025 11.3674 9.64062 11.1523L9.75 10.917L9.85938 11.1523Z" stroke="currentColor" stroke-width="1.5"></path></g></svg>