<svg width="24px" height="24px" viewBox="0 0 24 24" fill="none" xmlns="http://www.w3.org/2000/svg"><g><path d="M9.40545 18.1053C7.83173 19.4414 6.26907 19.2749 4.6926 17.6057C8.35815 13.9616 12.9218 19.2418 8.8818 21.25M14.5945 18.1053C16.1683 19.4414 17.7309 19.2749 19.3074 17.6057C15.6419 13.9616 11.0782 19.2418 15.1182 21.25M6.78495 15.166C6.20088 12.6898 4.69907 11.8277 2.25 12.563C2.83406 15.0392 4.33587 15.9012 6.78495 15.166ZM5.57581 11.7024C6.31536 9.26759 5.44829 7.77454 2.95755 7.19388C2.218 9.62867 3.08507 11.1217 5.57581 11.7024ZM6.71761 2.75C4.57685 4.14255 4.27572 5.84039 5.8083 7.87688C7.94907 6.48432 8.2502 4.78649 6.71761 2.75ZM17.2151 15.166C17.7991 12.6898 19.3009 11.8277 21.75 12.563C21.1659 15.0392 19.6641 15.9012 17.2151 15.166ZM18.4242 11.7024C17.6846 9.26759 18.5517 7.77454 21.0424 7.19388C21.782 9.62867 20.9149 11.1217 18.4242 11.7024ZM17.2824 2.75C19.4232 4.14255 19.7243 5.84039 18.1917 7.87688C16.0509 6.48432 15.7498 4.78649 17.2824 2.75Z" stroke="currentColor" stroke-width="1.5" stroke-linecap="round" stroke-linejoin="round"></path></g></svg>