<svg width="24px" height="24px" viewBox="0 0 24 24" fill="none" xmlns="http://www.w3.org/2000/svg"><g><path d="M4 20L10.19 13.8086" stroke="currentColor" stroke-width="1.5" stroke-linecap="round" stroke-linejoin="round"></path><path d="M20.0858 7.08579L16.9142 3.91422C16.1332 3.13317 14.8668 3.13317 14.0858 3.91422L12 6L18 12L20.0858 9.91422C20.8668 9.13317 20.8668 7.86684 20.0858 7.08579Z" stroke="currentColor" stroke-width="1.5" stroke-linecap="round" stroke-linejoin="round"></path><path d="M16.3808 16.4528L18 12L12 6L7.54721 7.6192C6.89618 7.85593 6.41402 8.4127 6.27273 9.09087L4 20L14.9091 17.7273C15.5873 17.586 16.1441 17.1038 16.3808 16.4528Z" stroke="currentColor" stroke-width="1.5" stroke-linecap="round" stroke-linejoin="round"></path><path d="M13.2324 12.5166C13.2324 13.4831 12.4489 14.2666 11.4824 14.2666C10.5159 14.2666 9.73242 13.4831 9.73242 12.5166C9.73242 11.5501 10.5159 10.7666 11.4824 10.7666C12.4489 10.7666 13.2324 11.5501 13.2324 12.5166Z" stroke="currentColor" stroke-width="1.5" stroke-linecap="round" stroke-linejoin="round"></path></g></svg>