<svg width="24px" height="24px" viewBox="0 0 24 24" fill="none" xmlns="http://www.w3.org/2000/svg"><g><path d="M18.0858 11.7135L14.7944 18.659C14.5039 19.2722 13.9223 19.6962 13.2496 19.7853L3 21.1424L4.29071 10.8455C4.37667 10.1598 4.81054 9.56708 5.43819 9.27787L12.4289 6.05661L12.2647 5.89239C11.5744 5.20204 11.5744 4.08275 12.2647 3.3924C12.9551 2.70204 14.0744 2.70205 14.7647 3.3924L20.75 9.37769C21.4404 10.068 21.4404 11.1873 20.75 11.8777C20.0596 12.568 18.9404 12.568 18.25 11.8777L18.0858 11.7135Z" stroke="currentColor" stroke-width="1.5" stroke-linecap="square" stroke-linejoin="round"></path><path d="M11.25 14.15C11.25 14.8404 10.6904 15.4 10 15.4C9.30964 15.4 8.75 14.8404 8.75 14.15C8.75 13.4597 9.30964 12.9 10 12.9C10.6904 12.9 11.25 13.4597 11.25 14.15Z" stroke="currentColor" stroke-width="1.5" stroke-linecap="square"></path><path d="M12.4297 6.05664L18.0865 11.7135" stroke="currentColor" stroke-width="1.5" stroke-linecap="round"></path><path d="M10 14.1425L3 21.1424" stroke="currentColor" stroke-width="1.5" stroke-linecap="round"></path><path d="M10 14.65V13.65" stroke="currentColor" stroke-width="1.5" stroke-linecap="square"></path></g></svg>