<svg width="24px" height="24px" viewBox="0 0 24 24" fill="none" xmlns="http://www.w3.org/2000/svg"><g><path d="M19.6642 4.16416C18.8832 3.38311 17.6168 3.38311 16.8358 4.16416L12.3358 8.66416C11.9607 9.03923 11.75 9.54794 11.75 10.0784V12.2499H13.9216C14.452 12.2499 14.9607 12.0392 15.3358 11.6642L19.8358 7.16416C20.6168 6.38311 20.6168 5.11678 19.8358 4.33573L19.6642 4.16416Z" stroke="currentColor" stroke-width="1.5" stroke-linecap="round" stroke-linejoin="round"></path><path d="M8.25 12.25H5.75C4.64543 12.25 3.75 13.1454 3.75 14.25C3.75 15.3546 4.64543 16.25 5.75 16.25H16.25C17.3546 16.25 18.25 17.1454 18.25 18.25C18.25 19.3546 17.3546 20.25 16.25 20.25H11.75" stroke="currentColor" stroke-width="1.5" stroke-linecap="round" stroke-linejoin="round"></path></g></svg>