<svg width="24px" height="24px" viewBox="0 0 24 24" fill="none" xmlns="http://www.w3.org/2000/svg"><g><path d="M9.06443 7.50612C8.79167 7.19439 8.31785 7.16281 8.00612 7.43557C7.69439 7.70833 7.66281 8.18215 7.93557 8.49388L9.06443 7.50612ZM16.0644 8.49388C16.3372 8.18215 16.3056 7.70833 15.9939 7.43557C15.6822 7.16281 15.2083 7.19439 14.9356 7.50612L16.0644 8.49388ZM11.25 17.25C11.25 17.6642 11.5858 18 12 18C12.4142 18 12.75 17.6642 12.75 17.25H11.25ZM9.75 12.25C9.33579 12.25 9 12.5858 9 13C9 13.4142 9.33579 13.75 9.75 13.75V12.25ZM14.25 13.75C14.6642 13.75 15 13.4142 15 13C15 12.5858 14.6642 12.25 14.25 12.25V13.75ZM7.93557 8.49388L11.4356 12.4939L12.5644 11.5061L9.06443 7.50612L7.93557 8.49388ZM12.5644 12.4939L16.0644 8.49388L14.9356 7.50612L11.4356 11.5061L12.5644 12.4939ZM11.25 12V13H12.75V12H11.25ZM11.25 13V17.25H12.75V13H11.25ZM9.75 13.75H12V12.25H9.75V13.75ZM12 13.75H14.25V12.25H12V13.75ZM20.5 12C20.5 16.6944 16.6944 20.5 12 20.5V22C17.5228 22 22 17.5228 22 12H20.5ZM12 20.5C7.30558 20.5 3.5 16.6944 3.5 12H2C2 17.5228 6.47715 22 12 22V20.5ZM3.5 12C3.5 7.30558 7.30558 3.5 12 3.5V2C6.47715 2 2 6.47715 2 12H3.5ZM12 3.5C16.6944 3.5 20.5 7.30558 20.5 12H22C22 6.47715 17.5228 2 12 2V3.5Z" fill="currentColor"></path></g></svg>