<svg width="24px" height="24px" viewBox="0 0 24 24" fill="currentColor" xmlns="http://www.w3.org/2000/svg"><g><path d="M11 11.7119C11.1547 11.6226 11.25 11.4575 11.25 11.2789V2.18361C11.25 1.79871 10.8333 1.55815 10.5 1.75059L4.24808 5.36006C3.08781 6.02993 2.37305 7.26792 2.37305 8.60768V15.8266C2.37305 16.2115 2.78971 16.452 3.12304 16.2596L11 11.7119Z" fill="currentColor"/><path d="M21.627 8.60768C21.627 7.26792 20.9122 6.02993 19.7519 5.36006L13.5 1.75059C13.1667 1.55815 12.75 1.79871 12.75 2.18361V11.2789C12.75 11.4575 12.8453 11.6226 13 11.7119L20.877 16.2596C21.2103 16.452 21.627 16.2115 21.627 15.8266V8.60768Z" fill="currentColor"/><path d="M20.1261 18.4244C20.4594 18.232 20.4594 17.7509 20.1261 17.5584L12.25 13.0108C12.0953 12.9214 11.9047 12.9214 11.75 13.0108L3.87307 17.5584C3.53973 17.7509 3.53973 18.232 3.87307 18.4244L11.125 22.6112C11.6664 22.9238 12.3336 22.9238 12.875 22.6112L20.1261 18.4244Z" fill="currentColor"/></g></svg>