<svg width="24px" height="24px" viewBox="0 0 24 24" fill="currentColor" xmlns="http://www.w3.org/2000/svg"><g><path d="M11 12.2883C11.1547 12.3776 11.25 12.5427 11.25 12.7213V21.8166C11.25 22.2015 10.8333 22.4421 10.5 22.2496L4.24808 18.6402C3.08781 17.9703 2.37305 16.7323 2.37305 15.3925V8.17364C2.37305 7.78874 2.78971 7.54818 3.12304 7.74063L11 12.2883Z" fill="currentColor"/><path d="M21.627 15.3925C21.627 16.7323 20.9122 17.9703 19.7519 18.6402L13.5 22.2496C13.1667 22.4421 12.75 22.2015 12.75 21.8166V12.7213C12.75 12.5427 12.8453 12.3776 13 12.2883L20.877 7.74063C21.2103 7.54818 21.627 7.78874 21.627 8.17364V15.3925Z" fill="currentColor"/><path d="M20.1261 5.5758C20.4594 5.76825 20.4594 6.24935 20.1261 6.4418L12.25 10.9894C12.0953 11.0788 11.9047 11.0788 11.75 10.9895L3.87307 6.44181C3.53973 6.24936 3.53973 5.76823 3.87307 5.57578L11.125 1.38899C11.6664 1.07638 12.3336 1.07639 12.875 1.38903L20.1261 5.5758Z" fill="currentColor"/></g></svg>