<svg width="24px" height="24px" viewBox="0 0 24 24" fill="currentColor" xmlns="http://www.w3.org/2000/svg"><g><path d="M2.375 8.17385C2.37506 7.78905 2.79171 7.54796 3.125 7.74026L11.002 12.2881C11.1565 12.3773 11.2518 12.5423 11.252 12.7207V21.8164C11.252 22.2013 10.8353 22.4415 10.502 22.249L4.25 18.6397C3.08991 17.9698 2.37508 16.7322 2.375 15.3926V8.17385Z" fill="currentColor"/><path d="M20.8789 7.74026C21.2122 7.54796 21.6288 7.78905 21.6289 8.17385V15.3926C21.6288 16.7322 20.914 17.9698 19.7539 18.6397L13.502 22.249C13.1686 22.4415 12.752 22.2013 12.752 21.8164V12.7207C12.7521 12.5423 12.8474 12.3773 13.002 12.2881L16.6904 10.1582V13.9248C16.6904 14.1442 16.6901 14.2546 16.7188 14.3262C16.7874 14.4975 16.9648 14.5995 17.1475 14.5733C17.2238 14.5623 17.3189 14.5072 17.5088 14.3975C17.685 14.2957 17.7736 14.2452 17.8457 14.1826C18.015 14.0359 18.1294 13.8362 18.1719 13.6162C18.1899 13.5225 18.1904 13.4204 18.1904 13.2168V9.29202L20.8789 7.74026Z" fill="currentColor"/><path d="M15.6895 9.00393L12.252 10.9893C12.0973 11.0786 11.9067 11.0786 11.752 10.9893L3.875 6.44143C3.54181 6.24893 3.54171 5.76764 3.875 5.57522L6.8125 3.87893L15.6895 9.00393Z" fill="currentColor"/><path d="M11.127 1.3887C11.6684 1.07618 12.3356 1.07615 12.877 1.3887L20.1279 5.57522C20.4612 5.76766 20.4612 6.24895 20.1279 6.44143L17.1895 8.13772L8.3125 3.01272L11.127 1.3887Z" fill="currentColor"/></g></svg>