<svg width="24px" height="24px" viewBox="0 0 24 24" fill="currentColor" xmlns="http://www.w3.org/2000/svg"><g><path d="M2.375 8.17387C2.375 7.78901 2.79168 7.54793 3.125 7.74028L11.002 12.2881C11.1565 12.3774 11.2518 12.5423 11.252 12.7207V21.8165C11.252 22.2013 10.8353 22.4415 10.502 22.2491L4.25 18.6397C3.08989 17.9698 2.37508 16.7322 2.375 15.3926V8.17387Z" fill="currentColor"/><path d="M20.8789 7.74028C21.2122 7.54793 21.6289 7.78901 21.6289 8.17387V15.3926C21.6288 16.7322 20.914 17.9698 19.7539 18.6397L13.502 22.2491C13.1686 22.4415 12.752 22.2013 12.752 21.8165V12.7207C12.7521 12.5423 12.8474 12.3774 13.002 12.2881L20.8789 7.74028Z" fill="currentColor"/><path d="M15.6895 9.00395L12.252 10.9893C12.0973 11.0786 11.9067 11.0786 11.752 10.9893L3.875 6.44145C3.54177 6.24896 3.5417 5.76767 3.875 5.57524L6.8125 3.87895L15.6895 9.00395Z" fill="currentColor"/><path d="M11.127 1.38872C11.6684 1.07617 12.3355 1.07614 12.877 1.38872L20.1279 5.57524C20.4612 5.76769 20.4612 6.24899 20.1279 6.44145L17.1895 8.13774L8.3125 3.01274L11.127 1.38872Z" fill="currentColor"/></g></svg>