<svg width="24px" height="24px" viewBox="0 0 24 24" fill="currentColor" xmlns="http://www.w3.org/2000/svg"><g><path d="M9.50005 12.0001C9.50005 8.99379 9.83293 6.29012 10.3611 4.35344C10.6262 3.38151 10.9329 2.63112 11.2525 2.13544C11.2784 2.09535 11.3038 2.05765 11.3288 2.02223C11.5506 2.00753 11.7744 2.00006 12 2.00006C17.5228 2.00006 22 6.47721 22 12.0001C22 12.2256 21.9925 12.4495 21.9778 12.6713C21.9424 12.6963 21.9047 12.7217 21.8647 12.7476C21.369 13.0672 20.6186 13.3739 19.6467 13.639C17.71 14.1672 15.0063 14.5001 12.0001 14.5001C11.1648 14.5001 10.3528 14.4744 9.5742 14.4259C9.52575 13.6473 9.50005 12.8354 9.50005 12.0001Z" fill="currentColor"/><path d="M21.8166 13.9165C21.2818 14.1762 20.636 14.4057 19.9098 14.6038C17.8652 15.1614 15.0689 15.5001 12.0001 15.5001C11.1954 15.5001 10.4095 15.4768 9.65101 15.4324C9.79758 17.0464 10.0442 18.4846 10.3611 19.6467C10.6262 20.6186 10.9329 21.369 11.2525 21.8647C11.2784 21.9048 11.3038 21.9425 11.3288 21.9779C11.5507 21.9926 11.7745 22.0001 12 22.0001C16.8674 22.0001 20.9226 18.5225 21.8166 13.9165Z" fill="currentColor"/><path d="M10.0837 21.8166C9.82394 21.2819 9.59442 20.636 9.39635 19.9098C9.05099 18.6435 8.7896 17.0887 8.64065 15.3594C6.91139 15.2105 5.35665 14.9491 4.09032 14.6038C3.36406 14.4057 2.71818 14.1762 2.18343 13.9164C2.957 17.9023 6.0978 21.0431 10.0837 21.8166Z" fill="currentColor"/><path d="M2.02217 12.6712C2.00747 12.4494 2 12.2256 2 12.0001C2 7.13263 5.47757 3.07742 10.0837 2.18348C9.82393 2.71823 9.59441 3.36408 9.39635 4.09032C8.83875 6.13485 8.50005 8.93118 8.50005 12.0001C8.50005 12.8047 8.52334 13.5906 8.56774 14.3491C6.95371 14.2025 5.5155 13.9559 4.35344 13.639C3.38151 13.3739 2.63112 13.0672 2.13544 12.7476C2.09533 12.7217 2.05761 12.6963 2.02217 12.6712Z" fill="currentColor"/></g></svg>