<svg width="24px" height="24px" viewBox="0 0 24 24" fill="currentColor" xmlns="http://www.w3.org/2000/svg"><g><path d="M8.52659 3.05384C8.91118 3.20768 9.09824 3.64415 8.94441 4.02874L7.35591 8H16.6402L15.0517 4.02874C14.8979 3.64415 15.0849 3.20768 15.4695 3.05384C15.8541 2.90001 16.2906 3.08707 16.4444 3.47166L18.2557 8H19.4651C20.8619 8 21.9211 9.25939 21.6818 10.6355L21.1537 13.6721C20.0755 12.6365 18.6111 12 16.998 12C13.6843 12 10.998 14.6863 10.998 18C10.998 19.0929 11.2902 20.1175 11.8007 21H7.27176C5.44859 21 3.8896 19.6887 3.57721 17.8925L2.31512 10.6355C2.0758 9.25939 3.13506 8 4.53185 8H5.74036L7.55169 3.47166C7.70553 3.08707 8.14201 2.90001 8.52659 3.05384Z" fill="currentColor"/><path fill-rule="evenodd" clip-rule="evenodd" d="M16.998 14C17.4123 14 17.748 14.3358 17.748 14.75V17.25H20.248C20.6623 17.25 20.998 17.5858 20.998 18C20.998 18.4142 20.6623 18.75 20.248 18.75H17.748V21.25C17.748 21.6642 17.4123 22 16.998 22C16.5838 22 16.248 21.6642 16.248 21.25V18.75H13.748C13.3338 18.75 12.998 18.4142 12.998 18C12.998 17.5858 13.3338 17.25 13.748 17.25H16.248V14.75C16.248 14.3358 16.5838 14 16.998 14Z" fill="currentColor"/></g></svg>