<svg width="24px" height="24px" viewBox="0 0 24 24" fill="currentColor" xmlns="http://www.w3.org/2000/svg"><g><path d="M21.2653 10.5053C20.4529 10.9788 19.5081 11.25 18.5 11.25C15.4624 11.25 13 8.78757 13 5.75C13 5.4956 13.0173 5.24523 13.0507 5H4.71485L4.4766 3.80874C4.26626 2.75703 3.34283 2 2.27029 2H1.75C1.33579 2 1 2.33579 1 2.75C1 3.16421 1.33579 3.5 1.75 3.5H2.27029C2.6278 3.5 2.93562 3.75234 3.00573 4.10291L4.78223 12.9854C5.1328 14.7383 6.67186 16 8.45941 16H17.0658C18.8391 16 20.3701 14.7578 20.7354 13.0225L21.2653 10.5053Z" fill="currentColor"/><path d="M8 17C6.89543 17 6 17.8954 6 19C6 20.1046 6.89543 21 8 21C9.10457 21 10 20.1046 10 19C10 17.8954 9.10457 17 8 17Z" fill="currentColor"/><path d="M15 19C15 17.8954 15.8954 17 17 17C18.1046 17 19 17.8954 19 19C19 20.1046 18.1046 21 17 21C15.8954 21 15 20.1046 15 19Z" fill="currentColor"/><path fill-rule="evenodd" clip-rule="evenodd" d="M18.5 2C18.9142 2 19.25 2.33579 19.25 2.75V5H21.5C21.9142 5 22.25 5.33579 22.25 5.75C22.25 6.16421 21.9142 6.5 21.5 6.5H19.25V8.75C19.25 9.16421 18.9142 9.5 18.5 9.5C18.0858 9.5 17.75 9.16421 17.75 8.75V6.5H15.5C15.0858 6.5 14.75 6.16421 14.75 5.75C14.75 5.33579 15.0858 5 15.5 5H17.75V2.75C17.75 2.33579 18.0858 2 18.5 2Z" fill="currentColor"/></g></svg>