<svg width="24px" height="24px" viewBox="0 0 24 24" fill="currentColor" xmlns="http://www.w3.org/2000/svg"><g><path d="M18.5 15C18.9142 15 19.25 15.3358 19.25 15.75V17.75H21.25C21.6642 17.75 22 18.0858 22 18.5C22 18.9142 21.6642 19.25 21.25 19.25H19.25V21.25C19.25 21.6642 18.9142 22 18.5 22C18.0858 22 17.75 21.6642 17.75 21.25V19.25H15.75C15.3358 19.25 15 18.9142 15 18.5C15 18.0858 15.3358 17.75 15.75 17.75H17.75V15.75C17.75 15.3358 18.0858 15 18.5 15Z" fill="currentColor"/><path fill-rule="evenodd" clip-rule="evenodd" d="M17.25 3C19.3211 3 21 4.67893 21 6.75V14.1699C20.2645 13.7443 19.4109 13.5 18.5 13.5C16.0512 13.5 14.0149 15.2607 13.585 17.585L9.59082 13.5908C8.71218 12.7124 7.28782 12.7124 6.40918 13.5908L4.5 15.5V17.25C4.5 18.4926 5.50736 19.5 6.75 19.5H13.6006C13.7095 20.0364 13.9052 20.5409 14.1709 21H6.75C4.67893 21 3 19.3211 3 17.25V6.75C3 4.67893 4.67893 3 6.75 3H17.25ZM15 6.5C13.6193 6.5 12.5 7.61929 12.5 9C12.5 10.3807 13.6193 11.5 15 11.5C16.3807 11.5 17.5 10.3807 17.5 9C17.5 7.61929 16.3807 6.5 15 6.5Z" fill="currentColor"/></g></svg>