<svg width="24px" height="24px" viewBox="0 0 24 24" fill="currentColor" xmlns="http://www.w3.org/2000/svg"><g><path d="M21.3654 14.4172C19.9038 12.8994 15.9127 13.5178 14.9571 13.6302C13.5518 12.2811 12.5961 10.6509 12.2589 10.0888C12.7648 8.57101 13.1021 7.05325 13.1583 5.42308C13.1583 4.01775 12.5961 2.5 11.0222 2.5C10.46 2.5 9.95413 2.83728 9.67306 3.28698C8.9985 4.46746 9.27957 6.8284 10.3476 9.24556C9.72927 10.9882 9.16714 12.6746 7.59318 15.6538C5.963 16.3284 2.53401 17.9024 2.25294 19.5888C2.14052 20.0947 2.30915 20.6006 2.70265 20.9941C3.09614 21.3314 3.60205 21.5 4.10797 21.5C6.18785 21.5 8.21152 18.6331 9.61685 16.216C10.7973 15.8225 12.6524 15.2604 14.5074 14.9231C16.6997 16.8343 18.6109 17.1154 19.6228 17.1154C20.9719 17.1154 21.4778 16.5533 21.6464 16.0473C21.9275 15.4852 21.7589 14.8669 21.3654 14.4172ZM19.96 15.3728C19.9038 15.7663 19.3979 16.1598 18.4985 15.9349C17.4305 15.6538 16.4748 15.1479 15.6316 14.4734C16.3624 14.3609 17.9926 14.1923 19.1731 14.4172C19.6228 14.5296 20.0725 14.8107 19.96 15.3728ZM10.5725 3.7929C10.6849 3.62426 10.8535 3.51183 11.0222 3.51183C11.5281 3.51183 11.6405 4.13018 11.6405 4.6361C11.5843 5.81657 11.3595 6.99704 10.966 8.1213C10.1228 5.87278 10.2914 4.29882 10.5725 3.7929ZM10.46 14.6982C10.9097 13.7988 11.5281 12.2249 11.7529 11.5503C12.2589 12.3935 13.1021 13.4053 13.5518 13.855C13.5518 13.9112 11.8092 14.2485 10.46 14.6982ZM7.14348 16.9467C5.85058 19.0828 4.50146 20.432 3.77069 20.432C3.65827 20.432 3.54584 20.3757 3.43342 20.3195C3.26478 20.2071 3.20856 20.0385 3.26478 19.8136C3.43342 19.0266 4.89495 17.9586 7.14348 16.9467Z" fill="currentColor"/></g></svg>