<svg width="24px" height="24px" viewBox="0 0 24 24" fill="currentColor" xmlns="http://www.w3.org/2000/svg"><g><path d="M19.6157 6.52429C19.6157 3.88674 16.5606 2.75 12.6605 2.75C10.2882 2.75 7.60574 3.18911 5.11455 3.97485V9.13252C8.78581 6.45864 12.8647 5.31397 15.4921 5.31397C17.1442 5.31397 18.2652 5.77501 18.2652 6.60078C18.2652 10.0036 3.5 9.46437 3.5 16.817C3.5 19.6353 5.43794 21.25 8.1644 21.25C12.2884 21.25 15.4077 17.2423 17.7413 12.357L18.2141 12.5269C16.985 15.5123 14.4416 18.7856 13.9463 20.8899H19.2556V10.0035H18.0293C16.2493 13.8712 13.6411 17.4352 10.9329 17.4352C9.69652 17.4352 8.90999 16.6851 8.90999 15.7338C8.90999 11.6628 19.6157 10.8477 19.6157 6.52429Z" fill="currentColor"/></g></svg>