<svg width="24px" height="24px" viewBox="0 0 24 24" fill="currentColor" xmlns="http://www.w3.org/2000/svg"><g><path fill-rule="evenodd" clip-rule="evenodd" d="M12 2C17.5228 2 22 6.47715 22 12C22 17.5228 17.5228 22 12 22C6.47715 22 2 17.5228 2 12C2 6.47715 6.47715 2 12 2ZM12 6.84863C11.6988 6.84863 11.4284 7.03428 11.3203 7.31543L10.3701 9.78711C10.2939 9.98518 10.1365 10.1426 9.93848 10.2188L7.4668 11.1689C7.18564 11.2771 7 11.5474 7 11.8486C7 12.1499 7.18564 12.4202 7.4668 12.5283L9.93848 13.4785C10.1365 13.5547 10.2939 13.7121 10.3701 13.9102L11.3203 16.3818C11.4284 16.663 11.6988 16.8486 12 16.8486C12.3012 16.8486 12.5716 16.663 12.6797 16.3818L13.6299 13.9102C13.7061 13.7121 13.8635 13.5547 14.0615 13.4785L16.5332 12.5283C16.8144 12.4202 17 12.1499 17 11.8486C17 11.5474 16.8144 11.2771 16.5332 11.1689L14.0615 10.2188C13.8635 10.1426 13.7061 9.98518 13.6299 9.78711L12.6797 7.31543C12.5716 7.03428 12.3012 6.84863 12 6.84863Z" fill="currentColor"/></g></svg>