<svg width="24px" height="24px" viewBox="0 0 24 24" fill="currentColor" xmlns="http://www.w3.org/2000/svg"><g><path d="M18.0799 4.11251C17.5868 4.0224 17.0804 4.0673 16.6095 4.24666C15.0299 4.84827 10.2771 6.65651 8.26179 7.40193C7.90222 7.53492 7.50317 7.49913 7.17102 7.30272L5.76922 6.47381C4.79744 5.89918 3.61849 5.79294 2.55963 6.18458L1.48983 6.58027C1.27478 6.65981 1.10793 6.83335 1.0369 7.05136C0.965869 7.26937 0.998466 7.50789 1.12539 7.69885L3.24376 10.886C2.88308 11.565 2.83969 12.3685 3.12528 13.0825C3.65377 14.4037 5.14226 15.0592 6.47372 14.557L9.36931 13.465L9.50554 14.6007C9.64027 15.7238 10.7892 16.426 11.8502 16.0336L12.4496 15.8118C13.3353 15.4842 14.0648 14.8345 14.4924 13.9925L16.0409 10.9426L20.7606 9.05235C21.6602 8.69204 22.25 7.8205 22.25 6.8514C22.25 5.70636 21.4316 4.72493 20.3053 4.51911L18.0799 4.11251Z" fill="currentColor"/><path d="M2.75 18.4999C2.33579 18.4999 2 18.8357 2 19.2499C2 19.6641 2.33579 19.9999 2.75 19.9999H21.25C21.6642 19.9999 22 19.6641 22 19.2499C22 18.8357 21.6642 18.4999 21.25 18.4999H2.75Z" fill="currentColor"/></g></svg>