<svg width="24px" height="24px" viewBox="0 0 24 24" fill="currentColor" xmlns="http://www.w3.org/2000/svg"><g><path d="M6 13C4.8144 13 3.72519 12.5874 2.86814 11.8978C2.2351 11.3886 2 10.5612 2 9.74873V6.25127C2 5.4388 2.2351 4.61144 2.86814 4.10215C3.72519 3.41265 4.8144 3 6 3C8.76142 3 11 5.23858 11 8L11 19C11 20.1046 10.1046 21 9 21C7.89543 21 7 20.1046 7 19V12.9C6.67689 12.9656 6.34247 13 6 13Z" fill="currentColor"/><path d="M18 13C19.1856 13 20.2748 12.5874 21.1319 11.8978C21.7649 11.3886 22 10.5612 22 9.74873V6.25127C22 5.4388 21.7649 4.61144 21.1319 4.10215C20.2748 3.41265 19.1856 3 18 3C15.2386 3 13 5.23858 13 8L13 19C13 20.1046 13.8954 21 15 21C16.1046 21 17 20.1046 17 19V12.9C17.3231 12.9656 17.6575 13 18 13Z" fill="currentColor"/></g></svg>