<svg width="24px" height="24px" viewBox="0 0 24 24" fill="currentColor" xmlns="http://www.w3.org/2000/svg"><g><path d="M9 3C10.1856 3 11.2748 3.41303 12.1318 4.10254C12.7647 4.61178 12.9999 5.43867 13 6.25098V9.74902C12.9999 10.5613 12.7647 11.3882 12.1318 11.8975C11.2748 12.587 10.1856 13 9 13C8.65756 13 8.32308 12.966 8 12.9004V19C8 20.1046 7.10457 21 6 21C4.89543 21 4 20.1046 4 19V8C4 5.23858 6.23858 3 9 3Z" fill="currentColor"/><path d="M15.75 13C16.1642 13 16.5 13.3358 16.5 13.75V19.5H19.25C19.6642 19.5 20 19.8358 20 20.25C20 20.6642 19.6642 21 19.25 21H15.75C15.3358 21 15 20.6642 15 20.25V13.75C15 13.3358 15.3358 13 15.75 13Z" fill="currentColor"/></g></svg>