<svg width="24px" height="24px" viewBox="0 0 24 24" fill="currentColor" xmlns="http://www.w3.org/2000/svg"><g><path fill-rule="evenodd" clip-rule="evenodd" d="M11 6.78077C11 4.26932 13.4206 2.46771 15.8263 3.18856L18.3263 3.93764C19.9131 4.4131 21 5.87336 21 7.52986V16.4703C21 18.1268 19.9131 19.5871 18.3263 20.0626L15.8263 20.8116C13.4206 21.5325 11 19.7309 11 17.2194V6.78077ZM7.75 4.0001C8.16421 4.0001 8.5 4.33589 8.5 4.7501V19.2501C8.5 19.6643 8.16421 20.0001 7.75 20.0001C7.33579 20.0001 7 19.6643 7 19.2501V4.7501C7 4.33589 7.33579 4.0001 7.75 4.0001ZM3.75 5.0001C4.16421 5.0001 4.5 5.33589 4.5 5.7501V18.2501C4.5 18.6643 4.16421 19.0001 3.75 19.0001C3.33579 19.0001 3 18.6643 3 18.2501V5.7501C3 5.33589 3.33579 5.0001 3.75 5.0001Z" fill="currentColor"/></g></svg>