<svg width="24px" height="24px" viewBox="0 0 24 24" fill="currentColor" xmlns="http://www.w3.org/2000/svg"><g><path fill-rule="evenodd" clip-rule="evenodd" d="M3 4.75C3 4.33579 3.33579 4 3.75 4H20.25C20.6642 4 21 4.33579 21 4.75C21 5.16421 20.6642 5.5 20.25 5.5H3.75C3.33579 5.5 3 5.16421 3 4.75ZM3 4.75C3 4.33579 3.33579 4 3.75 4H20.25C20.6642 4 21 4.33579 21 4.75C21 5.16421 20.6642 5.5 20.25 5.5H3.75C3.33579 5.5 3 5.16421 3 4.75ZM3 4.75C3 4.33579 3.33579 4 3.75 4H20.25C20.6642 4 21 4.33579 21 4.75C21 5.16421 20.6642 5.5 20.25 5.5H3.75C3.33579 5.5 3 5.16421 3 4.75Z" fill="currentColor"/><path d="M7 12C7 11.5858 7.33579 11.25 7.75 11.25H16.25C16.6642 11.25 17 11.5858 17 12C17 12.4142 16.6642 12.75 16.25 12.75H7.75C7.33579 12.75 7 12.4142 7 12Z" fill="currentColor"/><path d="M3 19.25C3 18.8358 3.33579 18.5 3.75 18.5H20.25C20.6642 18.5 21 18.8358 21 19.25C21 19.6642 20.6642 20 20.25 20H3.75C3.33579 20 3 19.6642 3 19.25Z" fill="currentColor"/></g></svg>