<svg width="24px" height="24px" viewBox="0 0 24 24" fill="currentColor" xmlns="http://www.w3.org/2000/svg"><g><path fill-rule="evenodd" clip-rule="evenodd" d="M2.75 4C3.16421 4 3.5 4.33579 3.5 4.75V19.25C3.5 19.6642 3.16421 20 2.75 20C2.33579 20 2 19.6642 2 19.25V4.75C2 4.33579 2.33579 4 2.75 4ZM7 6.25C7 5.83579 7.33579 5.5 7.75 5.5H21.25C21.6642 5.5 22 5.83579 22 6.25C22 6.66421 21.6642 7 21.25 7H7.75C7.33579 7 7 6.66421 7 6.25ZM7 12C7 11.5858 7.33579 11.25 7.75 11.25H21.25C21.6642 11.25 22 11.5858 22 12C22 12.4142 21.6642 12.75 21.25 12.75H7.75C7.33579 12.75 7 12.4142 7 12ZM7 17.75C7 17.3358 7.33579 17 7.75 17H16.25C16.6642 17 17 17.3358 17 17.75C17 18.1642 16.6642 18.5 16.25 18.5H7.75C7.33579 18.5 7 18.1642 7 17.75Z" fill="currentColor"/></g></svg>