<svg width="24px" height="24px" viewBox="0 0 24 24" fill="currentColor" xmlns="http://www.w3.org/2000/svg"><g><path d="M3 6.75C3 4.67893 4.67893 3 6.75 3H17.25C19.3211 3 21 4.67893 21 6.75V11.25H16.7016L14.6628 7.39908C14.5299 7.14795 14.2664 6.99352 13.9824 7.00021C13.6983 7.00689 13.4424 7.17354 13.3214 7.43065L9.96052 14.5725L8.41284 11.6491C8.28286 11.4036 8.02781 11.25 7.75 11.25H3V6.75Z" fill="currentColor"/><path d="M3 12.75V17.25C3 19.3211 4.67893 21 6.75 21H17.25C19.3211 21 21 19.3211 21 17.25V12.75H16.25C15.9722 12.75 15.7171 12.5964 15.5872 12.3509L14.0395 9.42752L10.6786 16.5693C10.5576 16.8265 10.3017 16.9931 10.0176 16.9998C9.73357 17.0065 9.47011 16.852 9.33716 16.6009L7.29844 12.75H3Z" fill="currentColor"/></g></svg>