<svg width="24px" height="24px" viewBox="0 0 24 24" fill="currentColor" xmlns="http://www.w3.org/2000/svg"><g><path fill-rule="evenodd" clip-rule="evenodd" d="M12 3C13.933 3 15.5 4.567 15.5 6.5C15.5 8.17545 14.3224 9.57452 12.75 9.91797V16.125C12.75 17.989 14.261 19.5 16.125 19.5C17.989 19.5 19.5 17.989 19.5 16.125V14.6699L18.498 15.5605C18.1885 15.8356 17.7146 15.8076 17.4395 15.498C17.1644 15.1885 17.1924 14.7146 17.502 14.4395L19.752 12.4395C19.9727 12.2433 20.2882 12.1945 20.5576 12.3154C20.8269 12.4365 21 12.7047 21 13V16.125C21 18.8174 18.8174 21 16.125 21C14.3871 21 12.8632 20.0896 12 18.7207C11.1368 20.0896 9.6129 21 7.875 21C5.18261 21 3 18.8174 3 16.125V13C3 12.7047 3.17305 12.4365 3.44238 12.3154C3.71176 12.1945 4.02731 12.2433 4.24805 12.4395L6.49805 14.4395C6.80759 14.7146 6.83562 15.1885 6.56055 15.498C6.28539 15.8076 5.81154 15.8356 5.50195 15.5605L4.5 14.6699V16.125C4.5 17.989 6.01104 19.5 7.875 19.5C9.73896 19.5 11.25 17.989 11.25 16.125V9.91797C9.67756 9.57452 8.5 8.17545 8.5 6.5C8.5 4.567 10.067 3 12 3ZM12 4.5C10.8954 4.5 10 5.39543 10 6.5C10 7.60457 10.8954 8.5 12 8.5C13.1046 8.5 14 7.60457 14 6.5C14 5.39543 13.1046 4.5 12 4.5Z" fill="currentColor"/></g></svg>