<svg width="24px" height="24px" viewBox="0 0 24 24" fill="currentColor" xmlns="http://www.w3.org/2000/svg"><g><path fill-rule="evenodd" clip-rule="evenodd" d="M20.9986 3.70415C21.024 4.11759 20.7093 4.47328 20.2959 4.49862C16.7086 4.71846 15.0079 5.75394 14.1054 7.01958C13.1578 8.34844 12.9567 10.084 12.7459 12.0789C12.7426 12.1101 12.7393 12.1414 12.736 12.1727C12.5376 14.0523 12.3139 16.1714 11.1159 17.8513C9.85294 19.6226 7.63464 20.7634 3.7959 20.9986C3.38246 21.024 3.02677 20.7093 3.00143 20.2959C2.97609 19.8825 3.29071 19.5268 3.70415 19.5014C7.29144 19.2816 8.99215 18.2461 9.89464 16.9805C10.8422 15.6516 11.0433 13.916 11.2542 11.9212C11.2575 11.89 11.2608 11.8587 11.2641 11.8273C11.4625 9.94774 11.6862 7.82868 12.8841 6.1487C14.1471 4.37748 16.3654 3.23668 20.2041 3.00143C20.6176 2.97609 20.9733 3.29071 20.9986 3.70415Z" fill="currentColor"/></g></svg>