<svg width="24px" height="24px" viewBox="0 0 24 24" fill="currentColor" xmlns="http://www.w3.org/2000/svg"><g><path d="M15 2C11.134 2 8 5.13401 8 9C8 12.866 11.134 16 15 16C18.866 16 22 12.866 22 9C22 5.13401 18.866 2 15 2Z" fill="currentColor"/><path d="M6.28033 11.7803C6.57322 11.4874 6.57322 11.0126 6.28033 10.7197C5.98744 10.4268 5.51256 10.4268 5.21967 10.7197L2.21967 13.7197C1.92678 14.0126 1.92678 14.4874 2.21967 14.7803C2.51256 15.0732 2.98744 15.0732 3.28033 14.7803L6.28033 11.7803Z" fill="currentColor"/><path d="M8.78033 16.2803C9.07322 15.9874 9.07322 15.5126 8.78033 15.2197C8.48744 14.9268 8.01256 14.9268 7.71967 15.2197L2.21967 20.7197C1.92678 21.0126 1.92678 21.4874 2.21967 21.7803C2.51256 22.0732 2.98744 22.0732 3.28033 21.7803L8.78033 16.2803Z" fill="currentColor"/><path d="M13.2803 18.7803C13.5732 18.4874 13.5732 18.0126 13.2803 17.7197C12.9874 17.4268 12.5126 17.4268 12.2197 17.7197L9.21967 20.7197C8.92678 21.0126 8.92678 21.4874 9.21967 21.7803C9.51256 22.0732 9.98744 22.0732 10.2803 21.7803L13.2803 18.7803Z" fill="currentColor"/></g></svg>