<svg width="24px" height="24px" viewBox="0 0 24 24" fill="currentColor" xmlns="http://www.w3.org/2000/svg"><g><path fill-rule="evenodd" clip-rule="evenodd" d="M14.3492 5.83762C15.7938 4.16667 17.6633 3.00001 20.25 3C20.6642 3 21 3.33578 21 3.75C21 4.16421 20.6642 4.5 20.25 4.5C18.1961 4.50001 16.714 5.39585 15.4839 6.81866C14.2252 8.27442 13.2663 10.2407 12.2924 12.3183C12.232 12.4472 12.1715 12.5765 12.1109 12.7062C11.2155 14.621 10.2865 16.6078 9.09444 18.1336C7.79585 19.7958 6.11646 21 3.75 21C3.33579 21 3 20.6642 3 20.25C3 19.8358 3.33579 19.5 3.75 19.5C5.50854 19.5 6.79399 18.6417 7.9124 17.2101C8.99528 15.8241 9.85607 13.9849 10.7771 12.0172C10.8292 11.9057 10.8816 11.7939 10.9342 11.6817C11.8939 9.63432 12.933 7.47561 14.3492 5.83762Z" fill="currentColor"/></g></svg>