<svg width="24px" height="24px" viewBox="0 0 24 24" fill="currentColor" xmlns="http://www.w3.org/2000/svg"><g><path fill-rule="evenodd" clip-rule="evenodd" d="M19.9066 10.5L19.3406 6.25439C19.0922 4.39136 17.503 3 15.6235 3H8.37655C6.49704 3 4.90785 4.39136 4.65944 6.25439L4.09336 10.5H2.75C2.33579 10.5 2 10.8358 2 11.25C2 11.6642 2.33579 12 2.75 12H21.25C21.6642 12 22 11.6642 22 11.25C22 10.8358 21.6642 10.5 21.25 10.5H19.9066ZM7 14.5C5.61929 14.5 4.5 15.6193 4.5 17C4.5 18.3807 5.61929 19.5 7 19.5C8.38071 19.5 9.5 18.3807 9.5 17C9.5 16.8167 9.48039 16.6388 9.44344 16.468C9.19993 15.3427 8.1975 14.5 7 14.5ZM3 17C3 14.7909 4.79086 13 7 13C8.58306 13 9.95026 13.9191 10.5989 15.2525C11.0353 15.0893 11.5076 15 12 15C12.4924 15 12.9647 15.0893 13.4011 15.2525C14.0497 13.9191 15.4169 13 17 13C19.2091 13 21 14.7909 21 17C21 19.2091 19.2091 21 17 21C14.7909 21 13 19.2091 13 17C13 16.9033 13.0034 16.8074 13.0102 16.7123C12.7017 16.5758 12.3602 16.5 12 16.5C11.6398 16.5 11.2983 16.5758 10.9898 16.7123C10.9966 16.8074 11 16.9033 11 17C11 19.2091 9.20914 21 7 21C4.79086 21 3 19.2091 3 17ZM17 14.5C15.8025 14.5 14.8001 15.3427 14.5566 16.468C14.5196 16.6388 14.5 16.8167 14.5 17C14.5 18.3807 15.6193 19.5 17 19.5C18.3807 19.5 19.5 18.3807 19.5 17C19.5 15.6193 18.3807 14.5 17 14.5Z" fill="currentColor"/></g></svg>