<svg width="24px" height="24px" viewBox="0 0 24 24" fill="currentColor" xmlns="http://www.w3.org/2000/svg"><g><path d="M19.25 4C20.2165 4 21 4.7835 21 5.75V7.37695C21 9.08364 19.8384 10.5716 18.1826 10.9854C17.4876 11.1592 17 11.7835 17 12.5C17 13.2165 17.4876 13.8408 18.1826 14.0146C19.8384 14.4284 21 15.9164 21 17.623V18.25C21 19.2165 20.2165 20 19.25 20H5.75C4.7835 20 4 19.2165 4 18.25V17.4541C4 15.8468 5.09398 14.4454 6.65332 14.0557C7.44458 13.8578 8 13.1467 8 12.3311C7.99985 11.6202 7.57627 10.9773 6.92285 10.6973L6.5 10.5156V4H19.25Z" fill="currentColor"/><path d="M5 9.87305L3.23828 9.11816C1.88045 8.53608 1.00001 7.201 1 5.72363C1 4.77171 1.77171 4 2.72363 4H5V9.87305Z" fill="currentColor"/></g></svg>