<svg width="24px" height="24px" viewBox="0 0 24 24" fill="currentColor" xmlns="http://www.w3.org/2000/svg"><g><path d="M4.5 12C4.5 7.85786 7.85786 4.5 12 4.5C15.1788 4.5 17.8975 6.47789 18.989 9.27283C19.1397 9.65866 19.5746 9.8493 19.9604 9.69862C20.3463 9.54794 20.5369 9.113 20.3862 8.72717C19.0775 5.37607 15.8172 3 12 3C7.282 3 3.41192 6.63035 3.03081 11.25H1.75C1.33579 11.25 1 11.5858 1 12C1 12.4142 1.33579 12.75 1.75 12.75H3.03081C3.41192 17.3696 7.282 21 12 21C15.8172 21 19.0775 18.6239 20.3862 15.2728C20.5369 14.887 20.3463 14.4521 19.9604 14.3014C19.5746 14.1507 19.1397 14.3413 18.989 14.7272C17.8975 17.5221 15.1788 19.5 12 19.5C7.85786 19.5 4.5 16.1421 4.5 12Z" fill="currentColor"/><path d="M12 6C8.68629 6 6 8.68629 6 12C6 15.3137 8.68629 18 12 18C15.0597 18 17.5845 15.7097 17.9536 12.75H22.25C22.6642 12.75 23 12.4142 23 12C23 11.5858 22.6642 11.25 22.25 11.25H17.9536C17.5845 8.29027 15.0597 6 12 6Z" fill="currentColor"/></g></svg>