<svg width="24px" height="24px" viewBox="0 0 24 24" fill="currentColor" xmlns="http://www.w3.org/2000/svg"><g><path d="M12 2.25C9.51472 2.25 7.5 4.26472 7.5 6.75C7.5 9.23528 9.51472 11.25 12 11.25C14.4853 11.25 16.5 9.23528 16.5 6.75C16.5 4.26472 14.4853 2.25 12 2.25Z" fill="currentColor"/><path d="M6.5 11.75C4.01472 11.75 2 13.7647 2 16.25C2 18.7353 4.01472 20.75 6.5 20.75C8.98528 20.75 11 18.7353 11 16.25C11 13.7647 8.98528 11.75 6.5 11.75Z" fill="currentColor"/><path d="M17.5 11.75C15.0147 11.75 13 13.7647 13 16.25C13 18.7353 15.0147 20.75 17.5 20.75C19.9853 20.75 22 18.7353 22 16.25C22 13.7647 19.9853 11.75 17.5 11.75Z" fill="currentColor"/></g></svg>