<svg width="24px" height="24px" viewBox="0 0 24 24" fill="currentColor" xmlns="http://www.w3.org/2000/svg"><g><path fill-rule="evenodd" clip-rule="evenodd" d="M8.55111 4.84473C7.77128 4.66983 7.02643 4.60512 6.35562 4.67858C5.50027 4.77225 4.71049 5.09968 4.1774 5.76838C3.64435 6.43705 3.50106 7.28 3.60013 8.13484C3.67784 8.8054 3.90672 9.51745 4.25083 10.2391C3.62782 10.74 3.1128 11.2822 2.75196 11.8527C2.29194 12.58 2.0555 13.4016 2.24577 14.2354C2.43606 15.0691 3.00558 15.7068 3.7356 16.1623C4.30817 16.5196 5.00738 16.7846 5.78592 16.9654C5.789 17.7649 5.89171 18.5057 6.11261 19.1436C6.39422 19.9567 6.88905 20.654 7.65948 21.0251C8.42985 21.3961 9.28335 21.3483 10.0945 21.0615C10.7306 20.8366 11.3734 20.4551 12 19.9592C12.6265 20.4551 13.2694 20.8366 13.9054 21.0615C14.7166 21.3483 15.5701 21.3961 16.3404 21.0251C17.1109 20.654 17.6057 19.9567 17.8873 19.1436C18.1082 18.5057 18.2109 17.7649 18.214 16.9654C18.9925 16.7846 19.6917 16.5196 20.2643 16.1623C20.9943 15.7068 21.5638 15.0691 21.7541 14.2354C21.9444 13.4016 21.708 12.58 21.2479 11.8527C20.8871 11.2822 20.3721 10.74 19.7491 10.2391C20.0932 9.51745 20.3221 8.8054 20.3998 8.13483C20.4988 7.27999 20.3556 6.43705 19.8225 5.76838C19.2894 5.09967 18.4996 4.77224 17.6443 4.67858C16.9735 4.60512 16.2286 4.66982 15.4488 4.84473C15.0993 4.12577 14.6855 3.5029 14.2098 3.02407C13.6034 2.41358 12.8551 2 11.9999 2C11.1448 2 10.3965 2.41358 9.79005 3.02407C9.31441 3.5029 8.9006 4.12577 8.55111 4.84473ZM10.0105 5.28223C10.2481 5.37016 10.4883 5.46674 10.7305 5.57166C11.5381 5.92161 12.4618 5.92161 13.2694 5.57166C13.5116 5.46674 13.7518 5.37016 13.9894 5.28223C13.7239 4.77728 13.4375 4.37497 13.1457 4.08118C12.7273 3.66006 12.34 3.5 11.9999 3.5C11.6599 3.5 11.2726 3.66006 10.8542 4.08118C10.5624 4.37498 10.276 4.77728 10.0105 5.28223ZM14.5714 6.66645C14.3411 6.75025 14.1055 6.84414 13.8658 6.94802C12.6776 7.46282 11.3223 7.46282 10.1341 6.94802C9.89435 6.84414 9.65883 6.75026 9.42846 6.66645C9.35031 6.89893 9.27682 7.14173 9.20851 7.39409C8.87015 8.64412 8.02523 9.70406 6.8821 10.3123C6.65129 10.4351 6.43095 10.5609 6.22172 10.6889C6.35475 10.895 6.49877 11.104 6.65349 11.3148C7.4196 12.3588 7.72121 13.6804 7.48395 14.9535C7.43604 15.2106 7.39694 15.4613 7.36653 15.7048C7.61027 15.7292 7.86301 15.7468 8.1239 15.7573C9.41787 15.8091 10.6391 16.3975 11.4863 17.3771C11.6573 17.5747 11.8287 17.7616 12 17.9371C12.1712 17.7616 12.3427 17.5747 12.5136 17.3771C13.3608 16.3975 14.582 15.8091 15.876 15.7573C16.1369 15.7468 16.3896 15.7292 16.6334 15.7048C16.603 15.4613 16.5639 15.2106 16.516 14.9535C16.2787 13.6804 16.5803 12.3588 17.3464 11.3148C17.5011 11.1039 17.6452 10.895 17.7782 10.6889C17.5689 10.5609 17.3486 10.4351 17.1178 10.3123C15.9747 9.70406 15.1297 8.64412 14.7914 7.39409C14.7231 7.14173 14.6496 6.89893 14.5714 6.66645ZM16.0166 6.25855C16.096 6.49921 16.1703 6.74734 16.2393 7.00217C16.4694 7.85219 17.0453 8.57461 17.8224 8.98811C18.0553 9.11202 18.2804 9.23963 18.4972 9.37055C18.7262 8.8482 18.8621 8.3735 18.9098 7.96215C18.9781 7.37237 18.8617 6.96948 18.6496 6.70341C18.4375 6.43737 18.0709 6.23426 17.481 6.16967C17.0695 6.12461 16.5767 6.15144 16.0166 6.25855ZM18.9979 11.5648C18.8594 11.7768 18.7118 11.9895 18.5558 12.2022C18.0349 12.9121 17.8292 13.813 17.9906 14.6787C18.0389 14.9382 18.0796 15.1939 18.1124 15.4451C18.6634 15.2986 19.119 15.1089 19.4702 14.8898C19.9737 14.5756 20.216 14.2334 20.2917 13.9016C20.3675 13.5698 20.2976 13.1563 19.9803 12.6546C19.7589 12.3047 19.4307 11.936 18.9979 11.5648ZM16.7092 17.2045C16.4574 17.2283 16.1994 17.2455 15.936 17.2561C15.0565 17.2913 14.2242 17.6923 13.6482 18.3583C13.4755 18.558 13.3009 18.7493 13.1249 18.9317C13.583 19.2713 14.0153 19.5093 14.4055 19.6473C14.9649 19.8451 15.3832 19.8212 15.6895 19.6737C15.996 19.5261 16.2756 19.2137 16.4699 18.6527C16.6054 18.2614 16.689 17.7746 16.7092 17.2045ZM10.875 18.9317C10.699 18.7493 10.5244 18.558 10.3517 18.3583C9.77573 17.6923 8.94343 17.2913 8.06386 17.2561C7.80054 17.2455 7.54254 17.2283 7.29067 17.2045C7.31093 17.7746 7.39448 18.2614 7.53001 18.6527C7.72431 19.2137 8.00393 19.5261 8.31037 19.6737C8.61673 19.8212 9.03503 19.8451 9.5944 19.6473C9.9846 19.5093 10.4169 19.2713 10.875 18.9317ZM5.88751 15.4451C5.92033 15.1939 5.96098 14.9382 6.00934 14.6787C6.17068 13.813 5.96505 12.9121 5.44415 12.2022C5.28806 11.9895 5.14052 11.7768 5.002 11.5648C4.56918 11.936 4.24096 12.3047 4.01964 12.6546C3.70231 13.1563 3.63244 13.5698 3.70817 13.9016C3.7839 14.2334 4.02622 14.5756 4.52971 14.8898C4.88088 15.1089 5.33653 15.2986 5.88751 15.4451ZM5.50271 9.37055C5.71946 9.23963 5.94462 9.11202 6.17748 8.98812C6.95459 8.57462 7.53053 7.85219 7.76062 7.00218C7.8296 6.74734 7.9039 6.49921 7.98331 6.25855C7.42323 6.15144 6.93037 6.12461 6.5189 6.16967C5.92903 6.23426 5.5624 6.43738 5.35031 6.70341C5.1382 6.96949 5.0218 7.37237 5.09015 7.96215C5.13782 8.3735 5.27368 8.8482 5.50271 9.37055Z" fill="currentColor"/></g></svg>