<svg width="24px" height="24px" viewBox="0 0 24 24" fill="currentColor" xmlns="http://www.w3.org/2000/svg"><g><path fill-rule="evenodd" clip-rule="evenodd" d="M21.25 8.53567V8.5369H21.2495V15.4626C21.2495 15.5068 21.2495 15.551 21.2495 15.5953C21.2496 15.772 21.2497 15.9488 21.2485 16.1255C21.2474 16.3115 21.2454 16.4976 21.2402 16.6836C21.2294 17.0885 21.2053 17.4976 21.1333 17.8984C21.0604 18.3054 20.9406 18.6842 20.7526 19.0542C20.5676 19.4175 20.326 19.7494 20.0377 20.0377C19.7494 20.326 19.417 20.5676 19.0536 20.7526C18.6842 20.9406 18.3059 21.0604 17.8989 21.1333C17.4981 21.2053 17.089 21.2294 16.6836 21.2402C16.4976 21.2454 16.3115 21.2474 16.1255 21.2485C15.9045 21.2495 15.6836 21.2495 15.4626 21.2495H8.5369C8.49268 21.2495 8.44845 21.2495 8.40422 21.2495C8.22748 21.2496 8.05073 21.2497 7.87399 21.2485C7.68796 21.2474 7.50193 21.2454 7.3159 21.2402C6.91044 21.2294 6.50139 21.2053 6.10056 21.1333C5.69407 21.0599 5.31533 20.9406 4.94585 20.7526C4.58253 20.5676 4.25004 20.326 3.96175 20.0377C3.67346 19.7494 3.43193 19.4175 3.24693 19.0542C3.05885 18.6842 2.93911 18.3054 2.86614 17.8984C2.79419 17.4976 2.77004 17.089 2.75925 16.6836C2.75411 16.4976 2.75206 16.3115 2.75103 16.1255C2.75 15.9045 2.75 15.6836 2.75 15.4626V8.5369C2.75 8.31593 2.75 8.09496 2.75103 7.8745C2.75206 7.68847 2.75411 7.50244 2.75925 7.31642C2.77004 6.91147 2.79419 6.50242 2.86614 6.10158C2.93911 5.69458 3.05885 5.31585 3.24693 4.94585C3.43193 4.58253 3.67346 4.25056 3.96175 3.96226C4.25004 3.67397 4.58253 3.43244 4.94585 3.24744C5.31533 3.05936 5.69356 2.93962 6.10056 2.86665C6.50139 2.79419 6.91044 2.77056 7.3159 2.75925C7.50193 2.75411 7.68796 2.75206 7.87399 2.75103C8.09496 2.75 8.31593 2.75 8.5369 2.75H15.4631C15.6841 2.75 15.905 2.75 16.126 2.75103C16.312 2.75206 16.4981 2.75411 16.6841 2.75925C17.0896 2.77004 17.4986 2.79419 17.8994 2.86614C18.3059 2.93962 18.6847 3.05885 19.0542 3.24693C19.4175 3.43193 19.75 3.67346 20.0383 3.96175C20.3265 4.25004 20.5681 4.58201 20.7531 4.94533C20.9412 5.31533 21.0609 5.69407 21.1339 6.10107C21.2058 6.5019 21.23 6.91044 21.2408 7.3159C21.2459 7.50193 21.2479 7.68796 21.249 7.87399C21.25 8.09455 21.25 8.31511 21.25 8.53567ZM15.3408 5.66065C15.3886 5.65088 15.7858 5.58048 15.8305 5.57637C16.1281 5.55067 16.2951 5.74595 16.2941 6.06251V14.7889C16.2941 15.0232 16.292 15.2354 16.2427 15.4703C16.1949 15.6979 16.108 15.9122 15.9734 16.1049C15.8393 16.2971 15.6676 16.4549 15.4672 16.5731C15.2648 16.6928 15.052 16.7612 14.8249 16.8069C14.3983 16.8927 14.1064 16.9122 13.8325 16.8573C13.5684 16.8038 13.3444 16.6825 13.165 16.5181C12.8993 16.275 12.7339 15.9461 12.6979 15.6023C12.6557 15.1995 12.7894 14.7693 13.092 14.4523C13.2447 14.2919 13.4363 14.1655 13.6923 14.0663C13.96 13.9625 14.2555 13.9003 14.7098 13.8089L15.069 13.7364C15.2267 13.7045 15.3614 13.6645 15.4703 13.5314C15.5803 13.3978 15.5818 13.2343 15.5818 13.073V8.99835C15.5818 8.68642 15.4415 8.60163 15.144 8.65867C14.9307 8.7003 10.3602 9.62222 10.3602 9.62222C10.1022 9.68491 10.0118 9.76919 10.0118 10.0888V16.0576C10.0118 16.292 9.99996 16.5042 9.95063 16.7391C9.90284 16.9667 9.81599 17.181 9.68135 17.3737C9.54723 17.5659 9.37559 17.7237 9.17517 17.8419C8.9727 17.9616 8.75995 18.033 8.53281 18.0788C8.10628 18.1651 7.81439 18.1841 7.54049 18.1291C7.27635 18.0762 7.0523 17.9513 6.87295 17.7869C6.60727 17.5438 6.45259 17.2149 6.41661 16.8711C6.37448 16.4682 6.4973 16.0381 6.79998 15.721C6.9526 15.5607 7.14428 15.4343 7.4002 15.3351C7.66793 15.2313 7.96342 15.1691 8.4177 15.0777L8.77691 15.0052C8.93467 14.9733 9.06931 14.9333 9.17825 14.8002C9.2872 14.6671 9.30005 14.5108 9.30005 14.35V7.46799C9.30005 7.37549 9.30775 7.3128 9.31238 7.28197C9.33448 7.13705 9.39255 7.01269 9.49738 6.92481C9.58423 6.85184 9.69677 6.80097 9.84014 6.77065L9.8422 6.77013L15.3408 5.66065Z" fill="currentColor"/></g></svg>