<svg width="24px" height="24px" viewBox="0 0 24 24" fill="currentColor" xmlns="http://www.w3.org/2000/svg"><g><path fill-rule="evenodd" clip-rule="evenodd" d="M11.4501 2.15012C12.2833 2.15012 13.0451 2.6209 13.4177 3.3662L17.0526 10.6359C17.8496 9.68859 18.4078 8.53381 18.6339 7.26428C18.8468 6.06811 19.9892 5.27108 21.1853 5.48406C22.3815 5.69704 23.1785 6.83938 22.9656 8.03555C22.4889 10.7128 21.0971 13.073 19.1249 14.7807L20.5675 17.6657C21.1108 18.7524 20.6703 20.0738 19.5836 20.6172C18.4969 21.1605 17.1755 20.7201 16.6321 19.6333L15.3068 16.9827C14.1195 17.3916 12.8451 17.6136 11.5186 17.6136C10.1485 17.6136 8.83407 17.3765 7.61391 16.9415L6.26798 19.6333C5.72462 20.7201 4.40319 21.1605 3.31648 20.6172C2.22976 20.0738 1.78929 18.7524 2.33264 17.6657L3.81704 14.6969C2.78424 13.7831 1.91555 12.6888 1.26053 11.4643C0.687446 10.3929 1.09136 9.05988 2.16269 8.48679C3.23403 7.91371 4.56709 8.31763 5.14017 9.38896C5.35736 9.79497 5.61195 10.1776 5.89929 10.5324L9.48238 3.3662C9.85503 2.6209 10.6168 2.15012 11.4501 2.15012ZM9.60567 12.958C10.2151 13.1248 10.8566 13.2137 11.5186 13.2137C12.137 13.2137 12.7373 13.136 13.3104 12.9898L11.4501 9.26921L9.60567 12.958Z" fill="currentColor"/></g></svg>