<svg width="24px" height="24px" viewBox="0 0 24 24" fill="currentColor" xmlns="http://www.w3.org/2000/svg"><g><path fill-rule="evenodd" clip-rule="evenodd" d="M5 8.00132C5 8.00088 5 8.00044 5 8V3.75C5 2.7835 5.7835 2 6.75 2H10.0858C10.5499 2 10.995 2.18437 11.3232 2.51256L12.7374 3.92678C12.7843 3.97366 12.8479 4 12.9142 4H17.25C18.2165 4 19 4.7835 19 5.75V8C19 8.00042 19 8.00084 19 8.00126C19.1347 8.00295 19.2601 8.00691 19.3729 8.01612C19.586 8.03353 19.8192 8.07339 20.0495 8.19074C20.3788 8.35852 20.6465 8.62624 20.8143 8.95552C20.9316 9.18583 20.9715 9.419 20.9889 9.63213C21.005 9.82981 21.005 10.0663 21.005 10.3238V15.4821C21.005 16.295 21.005 16.9506 20.9616 17.4815C20.917 18.0281 20.8226 18.5083 20.5963 18.9525C20.2368 19.6581 19.6631 20.2318 18.9575 20.5913C18.5133 20.8176 18.0331 20.912 17.4865 20.9566C16.9556 21 16.3 21 15.4871 21H8.51788C7.70505 21 7.04944 21 6.51854 20.9566C5.9719 20.912 5.49176 20.8176 5.04754 20.5913C4.34193 20.2318 3.76826 19.6581 3.40873 18.9525C3.18239 18.5083 3.08803 18.0281 3.04337 17.4815C2.99999 16.9506 3 16.2949 3 15.4821L3 10.3238C2.99998 10.0663 2.99997 9.82979 3.01612 9.63213C3.03353 9.419 3.0734 9.18583 3.19074 8.95552C3.35852 8.62624 3.62624 8.35852 3.95552 8.19074C4.18583 8.0734 4.419 8.03353 4.63213 8.01612C4.7435 8.00702 4.86719 8.00305 5 8.00132ZM6.5 3.75C6.5 3.61193 6.61193 3.5 6.75 3.5H10.0858C10.1521 3.5 10.2157 3.52634 10.2626 3.57322L11.6768 4.98744C12.005 5.31563 12.4501 5.5 12.9142 5.5H17.25C17.3881 5.5 17.5 5.61193 17.5 5.75V8H6.5V3.75ZM7 12.75C7 12.3358 7.33579 12 7.75 12H11.75C12.1642 12 12.5 12.3358 12.5 12.75C12.5 13.1642 12.1642 13.5 11.75 13.5H7.75C7.33579 13.5 7 13.1642 7 12.75Z" fill="currentColor"/></g></svg>