<svg width="24px" height="24px" viewBox="0 0 24 24" fill="currentColor" xmlns="http://www.w3.org/2000/svg"><g><path fill-rule="evenodd" clip-rule="evenodd" d="M21 15.4824C21 16.2951 21.0004 16.9506 20.957 17.4814C20.9124 18.0281 20.8171 18.5079 20.5908 18.9521C20.2313 19.6578 19.6578 20.2313 18.9521 20.5908C18.5079 20.8171 18.0281 20.9124 17.4814 20.957C16.9506 21.0004 16.2951 21 15.4824 21H8.51758C7.70491 21 7.04939 21.0004 6.51855 20.957C5.97194 20.9124 5.49205 20.8171 5.04785 20.5908C4.34224 20.2313 3.7687 19.6578 3.40918 18.9521C3.18286 18.5079 3.08763 18.0281 3.04297 17.4814C2.9996 16.9506 2.99999 16.2951 3 15.4824V8.5H21V15.4824ZM14.7803 11.9697C14.4874 11.6768 14.0126 11.6768 13.7197 11.9697L12 13.6895L10.2803 11.9697C9.98738 11.6768 9.51262 11.6768 9.21973 11.9697C8.92683 12.2626 8.92683 12.7374 9.21973 13.0303L10.9395 14.75L9.21973 16.4697C8.92683 16.7626 8.92683 17.2374 9.21973 17.5303C9.51262 17.8232 9.98738 17.8232 10.2803 17.5303L12 15.8105L13.7197 17.5303C14.0126 17.8232 14.4874 17.8232 14.7803 17.5303C15.0732 17.2374 15.0732 16.7626 14.7803 16.4697L13.0605 14.75L14.7803 13.0303C15.0732 12.7374 15.0732 12.2626 14.7803 11.9697Z" fill="currentColor"/><path d="M21.25 3C21.6642 3 22 3.33579 22 3.75V6.25C22 6.66421 21.6642 7 21.25 7H2.75C2.33579 7 2 6.66421 2 6.25V3.75C2 3.33579 2.33579 3 2.75 3H21.25Z" fill="currentColor"/></g></svg>