<svg width="24px" height="24px" viewBox="0 0 24 24" fill="currentColor" xmlns="http://www.w3.org/2000/svg"><g><path d="M2.75 3C2.33579 3 2 3.33579 2 3.75V6.25C2 6.66421 2.33579 7 2.75 7H21.25C21.6642 7 22 6.66421 22 6.25V3.75C22 3.33579 21.6642 3 21.25 3H2.75Z" fill="currentColor"/><path fill-rule="evenodd" clip-rule="evenodd" d="M21 8.5H3L3 15.4821C2.99999 16.2949 2.99999 16.9506 3.04336 17.4815C3.08803 18.0281 3.18239 18.5082 3.40873 18.9525C3.76825 19.6581 4.34193 20.2318 5.04754 20.5913C5.49175 20.8176 5.9719 20.912 6.51853 20.9566C7.04944 21 7.70505 21 8.51788 21H15.4821C16.295 21 16.9506 21 17.4815 20.9566C18.0281 20.912 18.5082 20.8176 18.9525 20.5913C19.6581 20.2318 20.2318 19.6581 20.5913 18.9525C20.8176 18.5082 20.912 18.0281 20.9566 17.4815C21 16.9506 21 16.295 21 15.4821V8.5ZM9.25 11.75C9.25 11.3358 9.58579 11 10 11H14C14.4142 11 14.75 11.3358 14.75 11.75C14.75 12.1642 14.4142 12.5 14 12.5H10C9.58579 12.5 9.25 12.1642 9.25 11.75Z" fill="currentColor"/></g></svg>