<svg width="24px" height="24px" viewBox="0 0 24 24" fill="currentColor" xmlns="http://www.w3.org/2000/svg"><g><path d="M23.278 14.7329L20.0896 12.2271C19.8944 12.0741 19.8944 11.823 20.0896 11.6696L23.2781 9.16442C23.4739 9.01117 23.5557 8.75224 23.4601 8.58935C23.3644 8.42693 23.0971 8.36911 22.8667 8.46088L19.0753 9.97104C18.8448 10.0637 18.6276 9.93739 18.5931 9.69115L18.0229 5.64352C17.9877 5.39744 17.8027 5.19601 17.611 5.19601C17.4203 5.19601 17.2354 5.39744 17.2011 5.64337L16.6307 9.6913C16.5958 9.93754 16.3789 10.0636 16.1481 9.97119L12.4194 8.48612C12.1881 8.39404 11.8114 8.39404 11.5808 8.48612L7.85144 9.97119C7.6208 10.0636 7.40363 9.93754 7.36906 9.6913L6.79935 5.64337C6.76417 5.39744 6.57942 5.19601 6.38855 5.19601C6.19706 5.19601 6.01185 5.39744 5.97744 5.64337L5.40696 9.6913C5.37239 9.93754 5.15537 10.0636 4.92473 9.97119L1.13344 8.46134C0.902954 8.36911 0.636069 8.42723 0.540327 8.5895C0.444738 8.75254 0.526256 9.01163 0.721411 9.16457L3.91026 11.6698C4.10557 11.8232 4.10557 12.0743 3.91026 12.2274L0.721411 14.7329C0.525644 14.8862 0.444585 15.1605 0.540021 15.3422C0.635916 15.5242 0.902801 15.5973 1.13298 15.505L4.89032 13.996C5.12126 13.9038 5.33599 14.0294 5.36827 14.2756L5.91029 18.3586C5.94302 18.6043 6.15775 18.8056 6.38747 18.8056C6.61689 18.8056 6.83177 18.6045 6.86466 18.3586L7.4076 14.2756C7.43972 14.0294 7.65537 13.904 7.88509 13.996L11.5808 15.4793C11.8111 15.5719 12.188 15.5719 12.4185 15.4793L16.1136 13.996C16.3436 13.9038 16.5586 14.0294 16.5915 14.2756L17.1344 18.3586C17.1669 18.6043 17.3818 18.8056 17.6109 18.8056C17.8406 18.8056 18.0555 18.6045 18.088 18.3586L18.631 14.2756C18.664 14.0294 18.8788 13.904 19.1088 13.996L22.8666 15.505C23.096 15.5973 23.3636 15.5241 23.4594 15.3424C23.5553 15.161 23.4738 14.8866 23.2781 14.7334L23.278 14.7329ZM15.1659 12.2589L12.3579 14.4207C12.1614 14.5722 11.839 14.5722 11.643 14.4207L8.8341 12.2589C8.63772 12.1075 8.63619 11.8582 8.83104 11.7045L11.6452 9.48789C11.84 9.33418 12.1595 9.33418 12.3545 9.48789L15.1687 11.7045C15.364 11.858 15.3625 12.1073 15.1656 12.2591L15.1659 12.2589Z" fill="currentColor"/></g></svg>