<svg width="24px" height="24px" viewBox="0 0 24 24" fill="currentColor" xmlns="http://www.w3.org/2000/svg"><g><path d="M5 6.75V11H5.5C6.88071 11 8 12.1193 8 13.5H16C16 12.1193 17.1193 11 18.5 11H19V6.75C19 4.67893 17.3211 3 15.25 3H8.75C6.67893 3 5 4.67893 5 6.75Z" fill="currentColor"/><path d="M3 14.25C3 13.2835 3.7835 12.5 4.75 12.5C5.7165 12.5 6.5 13.2835 6.5 14.25V15H17.5V14.25C17.5 13.2835 18.2835 12.5 19.25 12.5C20.2165 12.5 21 13.2835 21 14.25V15.25C21 16.689 20.1895 17.9387 19 18.5675V20.25C19 20.6642 18.6642 21 18.25 21C17.8358 21 17.5 20.6642 17.5 20.25V18.9918C17.4174 18.9972 17.334 19 17.25 19H6.75C6.66599 19 6.58263 18.9972 6.5 18.9918V20.25C6.5 20.6642 6.16421 21 5.75 21C5.33579 21 5 20.6642 5 20.25V18.5675C3.81055 17.9387 3 16.689 3 15.25V14.25Z" fill="currentColor"/></g></svg>