<svg width="24px" height="24px" viewBox="0 0 24 24" fill="currentColor" xmlns="http://www.w3.org/2000/svg"><g><path fill-rule="evenodd" clip-rule="evenodd" d="M2 12C2 6.47715 6.47715 2 12 2C17.5228 2 22 6.47715 22 12C22 17.5228 17.5228 22 12 22C6.47715 22 2 17.5228 2 12ZM8 8.75C8 8.33579 8.33579 8 8.75 8H14.25C14.6642 8 15 8.33579 15 8.75C15 9.16421 14.6642 9.5 14.25 9.5H10.5607L15.7803 14.7197C16.0732 15.0126 16.0732 15.4874 15.7803 15.7803C15.4874 16.0732 15.0126 16.0732 14.7197 15.7803L9.5 10.5607V14.25C9.5 14.6642 9.16421 15 8.75 15C8.33579 15 8 14.6642 8 14.25L8 8.75Z" fill="currentColor"/></g></svg>