<svg width="24px" height="24px" viewBox="0 0 24 24" fill="currentColor" xmlns="http://www.w3.org/2000/svg"><g><path fill-rule="evenodd" clip-rule="evenodd" d="M20.25 20C19.8358 20 19.5 19.6642 19.5 19.25V11.75C19.5 10.5074 18.4926 9.5 17.25 9.5H5.56066L8.28033 12.2197C8.57322 12.5126 8.57322 12.9874 8.28033 13.2803C7.98744 13.5732 7.51256 13.5732 7.21967 13.2803L3.21967 9.28033C2.92678 8.98744 2.92678 8.51256 3.21967 8.21967L7.21967 4.21967C7.51256 3.92678 7.98744 3.92678 8.28033 4.21967C8.57322 4.51256 8.57322 4.98744 8.28033 5.28033L5.56066 8H17.25C19.3211 8 21 9.67893 21 11.75V19.25C21 19.6642 20.6642 20 20.25 20Z" fill="currentColor"/></g></svg>