<svg width="24px" height="24px" viewBox="0 0 24 24" fill="currentColor" xmlns="http://www.w3.org/2000/svg"><g><path fill-rule="evenodd" clip-rule="evenodd" d="M12 3C12.1989 3 12.3897 3.07902 12.5303 3.21967L17.0303 7.71967C17.3232 8.01256 17.3232 8.48744 17.0303 8.78033C16.7374 9.07322 16.2626 9.07322 15.9697 8.78033L12.75 5.56066V15C12.75 15.4142 12.4142 15.75 12 15.75C11.5858 15.75 11.25 15.4142 11.25 15V5.56066L8.03033 8.78033C7.73744 9.07322 7.26256 9.07322 6.96967 8.78033C6.67678 8.48744 6.67678 8.01256 6.96967 7.71967L11.4697 3.21967C11.6103 3.07902 11.8011 3 12 3Z" fill="currentColor"/><path fill-rule="evenodd" clip-rule="evenodd" d="M3.75 14C4.16421 14 4.5 14.3358 4.5 14.75V17.25C4.5 18.4926 5.50736 19.5 6.75 19.5H17.25C18.4926 19.5 19.5 18.4926 19.5 17.25V14.75C19.5 14.3358 19.8358 14 20.25 14C20.6642 14 21 14.3358 21 14.75V17.25C21 19.3211 19.3211 21 17.25 21H6.75C4.67893 21 3 19.3211 3 17.25V14.75C3 14.3358 3.33579 14 3.75 14Z" fill="currentColor"/></g></svg>