<svg width="24px" height="24px" viewBox="0 0 24 24" fill="currentColor" xmlns="http://www.w3.org/2000/svg"><g><path d="M9.25 3C9.66421 3 10 3.33579 10 3.75C10 4.16421 9.66421 4.5 9.25 4.5H5.56055L12.3105 11.25H20.25C20.6642 11.25 21 11.5858 21 12C21 12.4142 20.6642 12.75 20.25 12.75H12.3105L5.56055 19.5H9.25C9.66421 19.5 10 19.8358 10 20.25C10 20.6642 9.66421 21 9.25 21H3.75C3.33579 21 3 20.6642 3 20.25V14.75C3 14.3358 3.33579 14 3.75 14C4.16421 14 4.5 14.3358 4.5 14.75V18.4395L10.9395 12L4.5 5.56055V9.25C4.5 9.66421 4.16421 10 3.75 10C3.33579 10 3 9.66421 3 9.25V3.75C3 3.33579 3.33579 3 3.75 3H9.25Z" fill="currentColor"/></g></svg>