<svg width="24px" height="24px" viewBox="0 0 24 24" fill="currentColor" xmlns="http://www.w3.org/2000/svg"><g><path fill-rule="evenodd" clip-rule="evenodd" d="M2.75 7C3.16421 7 3.5 7.33579 3.5 7.75V16.25C3.5 17.4926 4.50736 18.5 5.75 18.5H19.25C19.6642 18.5 20 18.8358 20 19.25C20 19.6642 19.6642 20 19.25 20H5.75C3.67893 20 2 18.3211 2 16.25V7.75C2 7.33579 2.33579 7 2.75 7Z" fill="currentColor"/><path fill-rule="evenodd" clip-rule="evenodd" d="M16.2197 3.71967C16.5126 3.42678 16.9874 3.42678 17.2803 3.71967L20.7803 7.21967C21.0732 7.51256 21.0732 7.98744 20.7803 8.28033L17.2803 11.7803C16.9874 12.0732 16.5126 12.0732 16.2197 11.7803C15.9268 11.4874 15.9268 11.0126 16.2197 10.7197L18.4393 8.5H12.75C10.4028 8.5 8.5 10.4028 8.5 12.75V13.75C8.5 14.1642 8.16421 14.5 7.75 14.5C7.33579 14.5 7 14.1642 7 13.75V12.75C7 9.57436 9.57436 7 12.75 7H18.4393L16.2197 4.78033C15.9268 4.48744 15.9268 4.01256 16.2197 3.71967Z" fill="currentColor"/></g></svg>