<svg width="24px" height="24px" viewBox="0 0 24 24" fill="currentColor" xmlns="http://www.w3.org/2000/svg"><g><path d="M21 4.75C21 4.33579 20.6642 4 20.25 4C19.8358 4 19.5 4.33579 19.5 4.75V11.2484C19.3916 10.9419 19.2149 10.6542 18.9697 10.409L15.7803 7.21967C15.4874 6.92678 15.0126 6.92678 14.7197 7.21967C14.4268 7.51256 14.4268 7.98744 14.7197 8.28033L17.6893 11.25H3.75C3.33579 11.25 3 11.5858 3 12C3 12.4142 3.33579 12.75 3.75 12.75H17.6893L14.7197 15.7197C14.4268 16.0126 14.4268 16.4874 14.7197 16.7803C15.0126 17.0732 15.4874 17.0732 15.7803 16.7803L18.9697 13.591C19.2149 13.3458 19.3916 13.0581 19.5 12.7516V19.25C19.5 19.6642 19.8358 20 20.25 20C20.6642 20 21 19.6642 21 19.25V4.75Z" fill="currentColor"/></g></svg>