<svg width="24px" height="24px" viewBox="0 0 24 24" fill="currentColor" xmlns="http://www.w3.org/2000/svg"><g><path d="M11.9993 4.82965C11.9993 3.29211 10.1587 2.50192 9.04395 3.5609L1.49586 10.7316C0.769609 11.4215 0.76961 12.5792 1.49586 13.2691L9.04395 20.4398C10.1587 21.4988 11.9993 20.7086 11.9993 19.171V16.2552C15.8278 16.3062 17.7875 16.7576 18.9541 17.4459C20.0954 18.1193 20.5664 19.0614 21.305 20.5389L21.3284 20.5858C21.484 20.8969 21.8331 21.0602 22.1716 20.9803C22.5101 20.9004 22.7493 20.5982 22.7493 20.2503C22.7493 16.0691 22.2188 12.9234 20.4868 10.8246C18.7568 8.72826 15.9868 7.85335 11.9993 7.759V4.82965Z" fill="currentColor"/></g></svg>