<svg width="24px" height="24px" viewBox="0 0 24 24" fill="currentColor" xmlns="http://www.w3.org/2000/svg"><g><path fill-rule="evenodd" clip-rule="evenodd" d="M22 12C22 17.5228 17.5228 22 12 22C6.47715 22 2 17.5228 2 12C2 6.47715 6.47715 2 12 2C17.5228 2 22 6.47715 22 12ZM15.7803 13.5303L12.5303 16.7803C12.2374 17.0732 11.7626 17.0732 11.4697 16.7803L8.21967 13.5303C7.92678 13.2374 7.92678 12.7626 8.21967 12.4697C8.51256 12.1768 8.98744 12.1768 9.28033 12.4697L11.25 14.4393V7.75C11.25 7.33579 11.5858 7 12 7C12.4142 7 12.75 7.33579 12.75 7.75V14.4393L14.7197 12.4697C15.0126 12.1768 15.4874 12.1768 15.7803 12.4697C16.0732 12.7626 16.0732 13.2374 15.7803 13.5303Z" fill="currentColor"/></g></svg>