<svg width="24px" height="24px" viewBox="0 0 24 24" fill="currentColor" xmlns="http://www.w3.org/2000/svg"><g><path fill-rule="evenodd" clip-rule="evenodd" d="M3.75 20C4.16421 20 4.5 19.6642 4.5 19.25V11.75C4.5 10.5074 5.50736 9.5 6.75 9.5H18.4393L15.7197 12.2197C15.4268 12.5126 15.4268 12.9874 15.7197 13.2803C16.0126 13.5732 16.4874 13.5732 16.7803 13.2803L20.7803 9.28033C21.0732 8.98744 21.0732 8.51256 20.7803 8.21967L16.7803 4.21967C16.4874 3.92678 16.0126 3.92678 15.7197 4.21967C15.4268 4.51256 15.4268 4.98744 15.7197 5.28033L18.4393 8H6.75C4.67893 8 3 9.67893 3 11.75V19.25C3 19.6642 3.33579 20 3.75 20Z" fill="currentColor"/></g></svg>