<svg width="24px" height="24px" viewBox="0 0 24 24" fill="currentColor" xmlns="http://www.w3.org/2000/svg"><g><path fill-rule="evenodd" clip-rule="evenodd" d="M17.25 3C19.3211 3 21 4.67893 21 6.75V17.25C21 19.3211 19.3211 21 17.25 21H6.75C4.67893 21 3 19.3211 3 17.25V6.75C3 4.67893 4.67893 3 6.75 3H17.25ZM11.5303 8.21973C11.2374 7.92683 10.7626 7.92683 10.4697 8.21973L7.21973 11.4697C6.92683 11.7626 6.92683 12.2374 7.21973 12.5303L10.4697 15.7803C10.7626 16.0732 11.2374 16.0732 11.5303 15.7803C11.8232 15.4874 11.8232 15.0126 11.5303 14.7197L9.56055 12.75H16.25C16.6642 12.75 17 12.4142 17 12C17 11.5858 16.6642 11.25 16.25 11.25H9.56055L11.5303 9.28027C11.8232 8.98738 11.8232 8.51262 11.5303 8.21973Z" fill="currentColor"/></g></svg>