<svg width="24px" height="24px" viewBox="0 0 24 24" fill="currentColor" xmlns="http://www.w3.org/2000/svg"><g><path fill-rule="evenodd" clip-rule="evenodd" d="M12 3C12.4142 3 12.75 3.33579 12.75 3.75V17.6893L15.7197 14.7197C16.0126 14.4268 16.4874 14.4268 16.7803 14.7197C17.0732 15.0126 17.0732 15.4874 16.7803 15.7803L13.591 18.9697C13.3458 19.2149 13.0581 19.3916 12.7516 19.5H19.25C19.6642 19.5 20 19.8358 20 20.25C20 20.6642 19.6642 21 19.25 21H4.75C4.33579 21 4 20.6642 4 20.25C4 19.8358 4.33579 19.5 4.75 19.5H11.2484C10.9419 19.3916 10.6542 19.2149 10.409 18.9697L7.21967 15.7803C6.92678 15.4874 6.92678 15.0126 7.21967 14.7197C7.51256 14.4268 7.98744 14.4268 8.28033 14.7197L11.25 17.6893V3.75C11.25 3.33579 11.5858 3 12 3Z" fill="currentColor"/></g></svg>