<svg width="24px" height="24px" viewBox="0 0 24 24" fill="currentColor" xmlns="http://www.w3.org/2000/svg"><g><path fill-rule="evenodd" clip-rule="evenodd" d="M12 2C12.1989 2 12.3897 2.07902 12.5303 2.21967L16.7803 6.46967C17.0732 6.76256 17.0732 7.23744 16.7803 7.53033C16.4874 7.82322 16.0126 7.82322 15.7197 7.53033L12.75 4.56064V19.4394L15.7197 16.4697C16.0126 16.1768 16.4874 16.1768 16.7803 16.4697C17.0732 16.7626 17.0732 17.2374 16.7803 17.5303L12.5303 21.7803C12.3897 21.921 12.1989 22 12 22C11.8011 22 11.6103 21.921 11.4697 21.7803L7.21967 17.5303C6.92678 17.2374 6.92678 16.7626 7.21967 16.4697C7.51256 16.1768 7.98744 16.1768 8.28033 16.4697L11.25 19.4393V4.56068L8.28033 7.53033C7.98744 7.82322 7.51256 7.82322 7.21967 7.53033C6.92678 7.23744 6.92678 6.76256 7.21967 6.46967L11.4697 2.21967C11.6103 2.07902 11.8011 2 12 2Z" fill="currentColor"/></g></svg>