<svg width="24px" height="24px" viewBox="0 0 24 24" fill="currentColor" xmlns="http://www.w3.org/2000/svg"><g><path fill-rule="evenodd" clip-rule="evenodd" d="M2 12C2 6.47715 6.47715 2 12 2C17.5228 2 22 6.47715 22 12C22 17.5228 17.5228 22 12 22C6.47715 22 2 17.5228 2 12ZM8.21967 10.4697L11.4697 7.21967C11.7626 6.92678 12.2374 6.92678 12.5303 7.21967L15.7803 10.4697C16.0732 10.7626 16.0732 11.2374 15.7803 11.5303C15.4874 11.8232 15.0126 11.8232 14.7197 11.5303L12.75 9.56066V16.25C12.75 16.6642 12.4142 17 12 17C11.5858 17 11.25 16.6642 11.25 16.25V9.56066L9.28033 11.5303C8.98744 11.8232 8.51256 11.8232 8.21967 11.5303C7.92678 11.2374 7.92678 10.7626 8.21967 10.4697Z" fill="currentColor"/></g></svg>