<svg width="24px" height="24px" viewBox="0 0 24 24" fill="currentColor" xmlns="http://www.w3.org/2000/svg"><g><path d="M12 3C12.4142 3 12.75 3.33579 12.75 3.75V11.6895L19.5 18.4395V14.75C19.5 14.3358 19.8358 14 20.25 14C20.6642 14 21 14.3358 21 14.75V21H14.75C14.3358 21 14 20.6642 14 20.25C14 19.8358 14.3358 19.5 14.75 19.5H18.4395L12 13.0605L5.56055 19.5H9.25C9.66421 19.5 10 19.8358 10 20.25C10 20.6642 9.66421 21 9.25 21H3V14.75C3 14.3358 3.33579 14 3.75 14C4.16421 14 4.5 14.3358 4.5 14.75V18.4395L11.25 11.6895V3.75C11.25 3.33579 11.5858 3 12 3Z" fill="currentColor"/></g></svg>