<svg width="24px" height="24px" viewBox="0 0 24 24" fill="currentColor" xmlns="http://www.w3.org/2000/svg"><g><path d="M11.7012 5.32965C11.7012 3.79211 13.5418 3.00192 14.6565 4.0609L22.2046 11.2316C22.9308 11.9215 22.9308 13.0792 22.2046 13.7691L14.6565 20.9398C13.5418 21.9988 11.7012 21.2086 11.7012 19.671V16.7552C7.87261 16.8062 5.91297 17.2576 4.74636 17.9459C3.60506 18.6193 3.13408 19.5614 2.39542 21.0389L2.37199 21.0858C2.21644 21.3969 1.86739 21.5602 1.52886 21.4803C1.19033 21.4004 0.951172 21.0982 0.951172 20.7503C0.951172 16.5691 1.48168 13.4234 3.21367 11.3246C4.94365 9.22826 7.71367 8.35335 11.7012 8.259V5.32965Z" fill="currentColor"/></g></svg>