<svg width="24px" height="24px" viewBox="0 0 24 24" fill="currentColor" xmlns="http://www.w3.org/2000/svg"><g><path fill-rule="evenodd" clip-rule="evenodd" d="M4 2.75C4 2.33579 4.33579 2 4.75 2H19.25C19.6642 2 20 2.33579 20 2.75C20 3.16421 19.6642 3.5 19.25 3.5H4.75C4.33579 3.5 4 3.16421 4 2.75ZM10.409 6.78033C11.2877 5.90165 12.7123 5.90165 13.591 6.78033L16.7803 9.96967C17.0732 10.2626 17.0732 10.7374 16.7803 11.0303C16.4874 11.3232 16.0126 11.3232 15.7197 11.0303L12.75 8.06067V21.25C12.75 21.6642 12.4142 22 12 22C11.5858 22 11.25 21.6642 11.25 21.25V8.06065L8.28033 11.0303C7.98743 11.3232 7.51256 11.3232 7.21967 11.0303C6.92678 10.7374 6.92678 10.2626 7.21967 9.96967L10.409 6.78033Z" fill="currentColor"/></g></svg>