<svg width="24px" height="24px" viewBox="0 0 24 24" fill="currentColor" xmlns="http://www.w3.org/2000/svg"><g><path fill-rule="evenodd" clip-rule="evenodd" d="M4 3.75C4 3.33579 4.33579 3 4.75 3H19.25C19.6642 3 20 3.33579 20 3.75C20 4.16421 19.6642 4.5 19.25 4.5H12.7516C13.0581 4.60835 13.3458 4.78513 13.591 5.03033L16.7803 8.21967C17.0732 8.51256 17.0732 8.98744 16.7803 9.28033C16.4874 9.57322 16.0126 9.57322 15.7197 9.28033L12.75 6.31065V20.25C12.75 20.6642 12.4142 21 12 21C11.5858 21 11.25 20.6642 11.25 20.25V6.31067L8.28033 9.28033C7.98744 9.57322 7.51256 9.57322 7.21967 9.28033C6.92678 8.98744 6.92678 8.51256 7.21967 8.21967L10.409 5.03033C10.6542 4.78513 10.9419 4.60835 11.2484 4.5H4.75C4.33579 4.5 4 4.16421 4 3.75Z" fill="currentColor"/></g></svg>