<svg width="24px" height="24px" viewBox="0 0 24 24" fill="currentColor" xmlns="http://www.w3.org/2000/svg"><g><path fill-rule="evenodd" clip-rule="evenodd" d="M16.2197 2.71967C16.5126 2.42678 16.9874 2.42678 17.2803 2.71967L20.2197 5.65901C21.0983 6.53769 21.0984 7.96231 20.2197 8.84099L17.2803 11.7803C16.9874 12.0732 16.5126 12.0732 16.2197 11.7803C15.9268 11.4874 15.9268 11.0126 16.2197 10.7197L18.9393 8H3.75C3.33579 8 3 7.66421 3 7.25C3 6.83579 3.33579 6.5 3.75 6.5H18.9393L16.2197 3.78033C15.9268 3.48744 15.9268 3.01256 16.2197 2.71967ZM7.78033 12.2197C8.07322 12.5126 8.07322 12.9874 7.78033 13.2803L5.06066 16H20.25C20.6642 16 21 16.3358 21 16.75C21 17.1642 20.6642 17.5 20.25 17.5H5.06066L7.78033 20.2197C8.07322 20.5126 8.07322 20.9874 7.78033 21.2803C7.48744 21.5732 7.01256 21.5732 6.71967 21.2803L3.78033 18.341C2.90165 17.4623 2.90165 16.0377 3.78033 15.159L6.71967 12.2197C7.01256 11.9268 7.48744 11.9268 7.78033 12.2197Z" fill="currentColor"/></g></svg>