<svg width="24px" height="24px" viewBox="0 0 24 24" fill="currentColor" xmlns="http://www.w3.org/2000/svg"><g><path fill-rule="evenodd" clip-rule="evenodd" d="M12 22C6.47715 22 2 17.5228 2 12C2 6.47715 6.47715 2 12 2C17.5228 2 22 6.47715 22 12C22 17.5228 17.5228 22 12 22ZM10.4697 15.7803L7.21967 12.5303C6.92678 12.2374 6.92678 11.7626 7.21967 11.4697L10.4697 8.21967C10.7626 7.92678 11.2374 7.92678 11.5303 8.21967C11.8232 8.51256 11.8232 8.98744 11.5303 9.28033L9.56066 11.25H16.25C16.6642 11.25 17 11.5858 17 12C17 12.4142 16.6642 12.75 16.25 12.75H9.56066L11.5303 14.7197C11.8232 15.0126 11.8232 15.4874 11.5303 15.7803C11.2374 16.0732 10.7626 16.0732 10.4697 15.7803Z" fill="currentColor"/></g></svg>