<svg width="24px" height="24px" viewBox="0 0 24 24" fill="currentColor" xmlns="http://www.w3.org/2000/svg"><g><path d="M12 13C12.1989 13 12.3896 13.0791 12.5303 13.2197L15.0303 15.7197C15.3232 16.0126 15.3232 16.4874 15.0303 16.7803C14.7374 17.0732 14.2626 17.0732 13.9697 16.7803L12.75 15.5605V20.25C12.75 20.6642 12.4142 21 12 21C11.5858 21 11.25 20.6642 11.25 20.25V15.5605L10.0303 16.7803C9.73738 17.0732 9.26262 17.0732 8.96973 16.7803C8.67683 16.4874 8.67683 16.0126 8.96973 15.7197L11.4697 13.2197L11.584 13.126C11.7063 13.0444 11.8508 13 12 13Z" fill="currentColor"/><path d="M7.25 4C7.66421 4 8 4.33579 8 4.75C8 5.16421 7.66421 5.5 7.25 5.5H5.75C4.50736 5.5 3.5 6.50736 3.5 7.75V16.25C3.5 17.4926 4.50736 18.5 5.75 18.5H7.25C7.66421 18.5 8 18.8358 8 19.25C8 19.6642 7.66421 20 7.25 20H5.75C3.67893 20 2 18.3211 2 16.25V7.75C2 5.67893 3.67893 4 5.75 4H7.25Z" fill="currentColor"/><path d="M18.25 4C20.3211 4 22 5.67893 22 7.75V16.25C22 18.3211 20.3211 20 18.25 20H16.75C16.3358 20 16 19.6642 16 19.25C16 18.8358 16.3358 18.5 16.75 18.5H18.25C19.4926 18.5 20.5 17.4926 20.5 16.25V7.75C20.5 6.50736 19.4926 5.5 18.25 5.5H16.75C16.3358 5.5 16 5.16421 16 4.75C16 4.33579 16.3358 4 16.75 4H18.25Z" fill="currentColor"/><path d="M12 3C12.4142 3 12.75 3.33579 12.75 3.75V8.43945L13.9697 7.21973C14.2626 6.92683 14.7374 6.92683 15.0303 7.21973C15.3232 7.51262 15.3232 7.98738 15.0303 8.28027L12.5303 10.7803C12.2374 11.0732 11.7626 11.0732 11.4697 10.7803L8.96973 8.28027C8.67683 7.98738 8.67683 7.51262 8.96973 7.21973C9.26262 6.92683 9.73738 6.92683 10.0303 7.21973L11.25 8.43945V3.75C11.25 3.33579 11.5858 3 12 3Z" fill="currentColor"/></g></svg>