<svg width="24px" height="24px" viewBox="0 0 24 24" fill="currentColor" xmlns="http://www.w3.org/2000/svg"><g><path d="M12 14C12.4142 14 12.75 14.3358 12.75 14.75V19.4395L13.9697 18.2197C14.2626 17.9268 14.7374 17.9268 15.0303 18.2197C15.3232 18.5126 15.3232 18.9874 15.0303 19.2803L12.5303 21.7803C12.2374 22.0732 11.7626 22.0732 11.4697 21.7803L8.96973 19.2803C8.67683 18.9874 8.67683 18.5126 8.96973 18.2197C9.26262 17.9268 9.73738 17.9268 10.0303 18.2197L11.25 19.4395V14.75C11.25 14.3358 11.5858 14 12 14Z" fill="currentColor"/><path d="M7.25 8C7.66421 8 8 8.33579 8 8.75C8 9.16421 7.66421 9.5 7.25 9.5H5.75C4.50736 9.5 3.5 10.5074 3.5 11.75V12.25C3.5 13.4926 4.50736 14.5 5.75 14.5H7.25C7.66421 14.5 8 14.8358 8 15.25C8 15.6642 7.66421 16 7.25 16H5.75C3.67893 16 2 14.3211 2 12.25V11.75C2 9.67893 3.67893 8 5.75 8H7.25Z" fill="currentColor"/><path d="M18.25 8C20.3211 8 22 9.67893 22 11.75V12.25C22 14.3211 20.3211 16 18.25 16H16.75C16.3358 16 16 15.6642 16 15.25C16 14.8358 16.3358 14.5 16.75 14.5H18.25C19.4926 14.5 20.5 13.4926 20.5 12.25V11.75C20.5 10.5074 19.4926 9.5 18.25 9.5H16.75C16.3358 9.5 16 9.16421 16 8.75C16 8.33579 16.3358 8 16.75 8H18.25Z" fill="currentColor"/><path d="M12 2C12.1989 2 12.3896 2.07908 12.5303 2.21973L15.0303 4.71973C15.3232 5.01262 15.3232 5.48738 15.0303 5.78027C14.7374 6.07317 14.2626 6.07317 13.9697 5.78027L12.75 4.56055V9.25C12.75 9.66421 12.4142 10 12 10C11.5858 10 11.25 9.66421 11.25 9.25V4.56055L10.0303 5.78027C9.73738 6.07317 9.26262 6.07317 8.96973 5.78027C8.67683 5.48738 8.67683 5.01262 8.96973 4.71973L11.4697 2.21973L11.584 2.12598C11.7063 2.04445 11.8508 2 12 2Z" fill="currentColor"/></g></svg>