<svg width="24px" height="24px" viewBox="0 0 24 24" fill="currentColor" xmlns="http://www.w3.org/2000/svg"><g><path d="M20.25 3C20.6642 3 21 3.33579 21 3.75V9.25C21 9.66421 20.6642 10 20.25 10C19.8358 10 19.5 9.66421 19.5 9.25V5.56055L13.0605 12L19.5 18.4395V14.75C19.5 14.3358 19.8358 14 20.25 14C20.6642 14 21 14.3358 21 14.75V20.25C21 20.6642 20.6642 21 20.25 21H14.75C14.3358 21 14 20.6642 14 20.25C14 19.8358 14.3358 19.5 14.75 19.5H18.4395L11.6895 12.75H3.75C3.33579 12.75 3 12.4142 3 12C3 11.5858 3.33579 11.25 3.75 11.25H11.6895L18.4395 4.5H14.75C14.3358 4.5 14 4.16421 14 3.75C14 3.33579 14.3358 3 14.75 3H20.25Z" fill="currentColor"/></g></svg>