<svg width="24px" height="24px" viewBox="0 0 24 24" fill="currentColor" xmlns="http://www.w3.org/2000/svg"><g><path d="M8.96973 13.9697C9.26262 13.6768 9.73738 13.6768 10.0303 13.9697C10.3232 14.2626 10.3232 14.7374 10.0303 15.0303L6.56055 18.5H9.25C9.66421 18.5 10 18.8358 10 19.25C10 19.6642 9.66421 20 9.25 20H4.75C4.33579 20 4 19.6642 4 19.25V14.75C4 14.3358 4.33579 14 4.75 14C5.16421 14 5.5 14.3358 5.5 14.75V17.4395L8.96973 13.9697Z" fill="currentColor"/><path d="M13.9697 13.9697C14.2626 13.6768 14.7374 13.6768 15.0303 13.9697L18.5 17.4395V14.75C18.5 14.3358 18.8358 14 19.25 14C19.6642 14 20 14.3358 20 14.75V19.25C20 19.6642 19.6642 20 19.25 20H14.75C14.3358 20 14 19.6642 14 19.25C14 18.8358 14.3358 18.5 14.75 18.5H17.4395L13.9697 15.0303C13.6768 14.7374 13.6768 14.2626 13.9697 13.9697Z" fill="currentColor"/><path d="M9.25 4C9.66421 4 10 4.33579 10 4.75C10 5.16421 9.66421 5.5 9.25 5.5H6.56055L10.0303 8.96973C10.3232 9.26262 10.3232 9.73738 10.0303 10.0303C9.73738 10.3232 9.26262 10.3232 8.96973 10.0303L5.5 6.56055V9.25C5.5 9.66421 5.16421 10 4.75 10C4.33579 10 4 9.66421 4 9.25V4.75C4 4.33579 4.33579 4 4.75 4H9.25Z" fill="currentColor"/><path d="M19.25 4C19.6642 4 20 4.33579 20 4.75V9.25C20 9.66421 19.6642 10 19.25 10C18.8358 10 18.5 9.66421 18.5 9.25V6.56055L15.0303 10.0303C14.7374 10.3232 14.2626 10.3232 13.9697 10.0303C13.6768 9.73738 13.6768 9.26262 13.9697 8.96973L17.4395 5.5H14.75C14.3358 5.5 14 5.16421 14 4.75C14 4.33579 14.3358 4 14.75 4H19.25Z" fill="currentColor"/></g></svg>