<svg width="24px" height="24px" viewBox="0 0 24 24" fill="currentColor" xmlns="http://www.w3.org/2000/svg"><g><path fill-rule="evenodd" clip-rule="evenodd" d="M9.28033 20.7803C8.98744 21.0732 8.51256 21.0732 8.21967 20.7803L4.21967 16.7803C3.92678 16.4874 3.92678 16.0126 4.21967 15.7197C4.51256 15.4268 4.98744 15.4268 5.28033 15.7197L8 18.4393V6.75C8 4.67893 9.67893 3 11.75 3H19.25C19.6642 3 20 3.33579 20 3.75C20 4.16421 19.6642 4.5 19.25 4.5H11.75C10.5074 4.5 9.5 5.50736 9.5 6.75V18.4393L12.2197 15.7197C12.5126 15.4268 12.9874 15.4268 13.2803 15.7197C13.5732 16.0126 13.5732 16.4874 13.2803 16.7803L9.28033 20.7803Z" fill="currentColor"/></g></svg>