<svg width="24px" height="24px" viewBox="0 0 24 24" fill="currentColor" xmlns="http://www.w3.org/2000/svg"><g><path fill-rule="evenodd" clip-rule="evenodd" d="M2 12C2 17.5228 6.47715 22 12 22C17.5228 22 22 17.5228 22 12C22 6.47715 17.5228 2 12 2C6.47715 2 2 6.47715 2 12ZM8 15.25C8 15.6642 8.33579 16 8.75 16H14.25C14.6642 16 15 15.6642 15 15.25C15 14.8358 14.6642 14.5 14.25 14.5H10.5607L15.7803 9.28033C16.0732 8.98744 16.0732 8.51256 15.7803 8.21967C15.4874 7.92678 15.0126 7.92678 14.7197 8.21967L9.5 13.4393V9.75C9.5 9.33579 9.16421 9 8.75 9C8.33579 9 8 9.33579 8 9.75V15.25Z" fill="currentColor"/></g></svg>