<svg width="24px" height="24px" viewBox="0 0 24 24" fill="currentColor" xmlns="http://www.w3.org/2000/svg"><g><path fill-rule="evenodd" clip-rule="evenodd" d="M2.21967 2.21967C2.51256 1.92678 2.98744 1.92678 3.28033 2.21967L21.7803 20.7197C22.0732 21.0126 22.0732 21.4874 21.7803 21.7803C21.4874 22.0732 21.0126 22.0732 20.7197 21.7803L17.9393 19H5.56066L7.28033 20.7197C7.57322 21.0126 7.57322 21.4874 7.28033 21.7803C6.98744 22.0732 6.51256 22.0732 6.21967 21.7803L3.21967 18.7803C2.92678 18.4874 2.92678 18.0126 3.21967 17.7197L6.21967 14.7197C6.51256 14.4268 6.98744 14.4268 7.28033 14.7197C7.57322 15.0126 7.57322 15.4874 7.28033 15.7803L5.56066 17.5H16.4393L5.63524 6.6959C4.96266 7.01892 4.5 7.70624 4.5 8.5V10.25C4.5 10.6642 4.16421 11 3.75 11C3.33579 11 3 10.6642 3 10.25V8.5C3 7.29259 3.6112 6.22914 4.53964 5.6003L2.21967 3.28033C1.92678 2.98744 1.92678 2.51256 2.21967 2.21967ZM16.7197 2.21967C17.0126 1.92678 17.4874 1.92678 17.7803 2.21967L20.7803 5.21967C21.0732 5.51256 21.0732 5.98744 20.7803 6.28033L17.7803 9.28033C17.4874 9.57322 17.0126 9.57322 16.7197 9.28033C16.4268 8.98744 16.4268 8.51256 16.7197 8.21967L18.4393 6.5H10.25C9.83579 6.5 9.5 6.16421 9.5 5.75C9.5 5.33579 9.83579 5 10.25 5H18.4393L16.7197 3.28033C16.4268 2.98744 16.4268 2.51256 16.7197 2.21967ZM21 13.25V15.75C21 16.1642 20.6642 16.5 20.25 16.5C19.8358 16.5 19.5 16.1642 19.5 15.75V13.25C19.5 12.8358 19.8358 12.5 20.25 12.5C20.6642 12.5 21 12.8358 21 13.25Z" fill="currentColor"/></g></svg>