<svg width="24px" height="24px" viewBox="0 0 24 24" fill="currentColor" xmlns="http://www.w3.org/2000/svg"><g><path fill-rule="evenodd" clip-rule="evenodd" d="M9.28033 3.21967C8.98744 2.92678 8.51256 2.92678 8.21967 3.21967L4.21967 7.21967C3.92678 7.51256 3.92678 7.98744 4.21967 8.28033C4.51256 8.57322 4.98744 8.57322 5.28033 8.28033L8 5.56066V17.25C8 19.3211 9.67893 21 11.75 21H19.25C19.6642 21 20 20.6642 20 20.25C20 19.8358 19.6642 19.5 19.25 19.5H11.75C10.5074 19.5 9.5 18.4926 9.5 17.25V5.56066L12.2197 8.28033C12.5126 8.57322 12.9874 8.57322 13.2803 8.28033C13.5732 7.98744 13.5732 7.51256 13.2803 7.21967L9.28033 3.21967Z" fill="currentColor"/></g></svg>