<svg width="24px" height="24px" viewBox="0 0 24 24" fill="currentColor" xmlns="http://www.w3.org/2000/svg"><g><path d="M22 4.75C22 4.33579 21.6642 4 21.25 4C20.8358 4 20.5 4.33579 20.5 4.75V19.25C20.5 19.6642 20.8358 20 21.25 20C21.6642 20 22 19.6642 22 19.25V4.75Z" fill="currentColor"/><path d="M14.0303 7.21967C13.7374 6.92678 13.2626 6.92678 12.9697 7.21967C12.6768 7.51256 12.6768 7.98744 12.9697 8.28033L15.9393 11.25H2.75C2.33579 11.25 2 11.5858 2 12C2 12.4142 2.33579 12.75 2.75 12.75H15.9393L12.9697 15.7197C12.6768 16.0126 12.6768 16.4874 12.9697 16.7803C13.2626 17.0732 13.7374 17.0732 14.0303 16.7803L17.2197 13.591C18.0984 12.7123 18.0983 11.2877 17.2197 10.409L14.0303 7.21967Z" fill="currentColor"/></g></svg>