<svg width="24px" height="24px" viewBox="0 0 24 24" fill="currentColor" xmlns="http://www.w3.org/2000/svg"><g><path fill-rule="evenodd" clip-rule="evenodd" d="M17.25 3C19.3211 3 21 4.67893 21 6.75V17.25C21 19.3211 19.3211 21 17.25 21H6.75C4.67893 21 3 19.3211 3 17.25V6.75C3 4.67893 4.67893 3 6.75 3H17.25ZM12.5303 7.21973C12.2557 6.94512 11.8209 6.92766 11.5264 7.16797L11.4697 7.21973L8.21973 10.4697C7.92683 10.7626 7.92683 11.2374 8.21973 11.5303C8.51262 11.8232 8.98738 11.8232 9.28027 11.5303L11.25 9.56055V16.25C11.25 16.6642 11.5858 17 12 17C12.4142 17 12.75 16.6642 12.75 16.25V9.56055L14.7197 11.5303C15.0126 11.8232 15.4874 11.8232 15.7803 11.5303C16.0732 11.2374 16.0732 10.7626 15.7803 10.4697L12.5303 7.21973Z" fill="currentColor"/></g></svg>