<svg width="24px" height="24px" viewBox="0 0 24 24" fill="currentColor" xmlns="http://www.w3.org/2000/svg"><g><path d="M17.4699 18.4697C17.177 18.7626 17.177 19.2374 17.4699 19.5303C17.7628 19.8232 18.2377 19.8232 18.5306 19.5303L21.4699 16.591C22.3486 15.7123 22.3486 14.2877 21.4699 13.409L18.5306 10.4697C18.2377 10.1768 17.7628 10.1768 17.4699 10.4697C17.177 10.7626 17.177 11.2374 17.4699 11.5303L20.2234 14.2838C20.1528 14.2618 20.0778 14.25 20 14.25H7.375C5.2349 14.25 3.5 12.5151 3.5 10.375C3.5 8.2349 5.2349 6.5 7.375 6.5H12.25C12.6642 6.5 13 6.16421 13 5.75C13 5.33579 12.6642 5 12.25 5H7.375C4.40647 5 2 7.40647 2 10.375C2 13.3435 4.40647 15.75 7.375 15.75H20C20.0778 15.75 20.1528 15.7382 20.2234 15.7162L17.4699 18.4697Z" fill="currentColor"/></g></svg>