<svg width="24px" height="24px" viewBox="0 0 24 24" fill="currentColor" xmlns="http://www.w3.org/2000/svg"><g><path fill-rule="evenodd" clip-rule="evenodd" d="M17.25 3C19.3211 3 21 4.67893 21 6.75V17.25C21 19.3211 19.3211 21 17.25 21H6.75C4.67893 21 3 19.3211 3 17.25V6.75C3 4.67893 4.67893 3 6.75 3H17.25ZM13.5303 8.21973C13.2374 7.92683 12.7626 7.92683 12.4697 8.21973C12.1768 8.51262 12.1768 8.98738 12.4697 9.28027L14.4395 11.25H7.75C7.33579 11.25 7 11.5858 7 12C7 12.4142 7.33579 12.75 7.75 12.75H14.4395L12.4697 14.7197C12.1768 15.0126 12.1768 15.4874 12.4697 15.7803C12.7626 16.0732 13.2374 16.0732 13.5303 15.7803L16.7803 12.5303C17.0732 12.2374 17.0732 11.7626 16.7803 11.4697L13.5303 8.21973Z" fill="currentColor"/></g></svg>