<svg width="24px" height="24px" viewBox="0 0 24 24" fill="currentColor" xmlns="http://www.w3.org/2000/svg"><g><path fill-rule="evenodd" clip-rule="evenodd" d="M2.75 4C3.16421 4 3.5 4.33579 3.5 4.75V19.25C3.5 19.6642 3.16421 20 2.75 20C2.33579 20 2 19.6642 2 19.25V4.75C2 4.33579 2.33579 4 2.75 4ZM11.0303 7.21967C11.3232 7.51256 11.3232 7.98744 11.0303 8.28033L8.06067 11.25H21.25C21.6642 11.25 22 11.5858 22 12C22 12.4142 21.6642 12.75 21.25 12.75H8.06065L11.0303 15.7197C11.3232 16.0126 11.3232 16.4874 11.0303 16.7803C10.7374 17.0732 10.2626 17.0732 9.96967 16.7803L6.78033 13.591C5.90165 12.7123 5.90165 11.2877 6.78033 10.409L9.96967 7.21967C10.2626 6.92678 10.7374 6.92678 11.0303 7.21967Z" fill="currentColor"/></g></svg>