<svg width="24px" height="24px" viewBox="0 0 24 24" fill="currentColor" xmlns="http://www.w3.org/2000/svg"><g><path fill-rule="evenodd" clip-rule="evenodd" d="M12 2C12.4142 2 12.75 2.33579 12.75 2.75V15.9393L15.7197 12.9697C16.0126 12.6768 16.4874 12.6768 16.7803 12.9697C17.0732 13.2626 17.0732 13.7374 16.7803 14.0303L13.591 17.2197C12.7123 18.0983 11.2877 18.0984 10.409 17.2197L7.21967 14.0303C6.92678 13.7374 6.92678 13.2626 7.21967 12.9697C7.51256 12.6768 7.98743 12.6768 8.28033 12.9697L11.25 15.9393V2.75C11.25 2.33579 11.5858 2 12 2ZM4 21.25C4 20.8358 4.33579 20.5 4.75 20.5H19.25C19.6642 20.5 20 20.8358 20 21.25C20 21.6642 19.6642 22 19.25 22H4.75C4.33579 22 4 21.6642 4 21.25Z" fill="currentColor"/></g></svg>