<svg width="24px" height="24px" viewBox="0 0 24 24" fill="currentColor" xmlns="http://www.w3.org/2000/svg"><g><path d="M19 14C19.2409 14 19.4574 14.1482 19.5439 14.373L20.2402 16.1855C20.3418 16.4494 20.5506 16.6582 20.8145 16.7598L22.627 17.4561C22.8518 17.5426 23 17.7591 23 18C23 18.2409 22.8518 18.4574 22.627 18.5439L20.8145 19.2402C20.5506 19.3418 20.3418 19.5506 20.2402 19.8145L19.5439 21.627C19.4574 21.8518 19.2409 22 19 22C18.7591 22 18.5426 21.8518 18.4561 21.627L17.7598 19.8145C17.6582 19.5506 17.4494 19.3418 17.1855 19.2402L15.373 18.5439C15.1482 18.4574 15 18.2409 15 18C15 17.7591 15.1482 17.5426 15.373 17.4561L17.1855 16.7598C17.4494 16.6582 17.6582 16.4494 17.7598 16.1855L18.4561 14.373C18.5426 14.1482 18.7591 14 19 14Z" fill="currentColor"/><path d="M3.75 12C4.16421 12 4.5 12.3358 4.5 12.75V16.25C4.5 17.4926 5.50736 18.5 6.75 18.5H12.25C12.6642 18.5 13 18.8358 13 19.25C13 19.6642 12.6642 20 12.25 20H6.75C4.67893 20 3 18.3211 3 16.25V12.75C3 12.3358 3.33579 12 3.75 12Z" fill="currentColor"/><path d="M17.25 4.03516C19.3211 4.03516 21 5.71409 21 7.78516V11.2852C21 11.6994 20.6642 12.0352 20.25 12.0352C19.8358 12.0352 19.5 11.6994 19.5 11.2852V7.78516C19.5 6.54252 18.4926 5.53516 17.25 5.53516H11.75C11.3358 5.53516 11 5.19937 11 4.78516C11 4.37094 11.3358 4.03516 11.75 4.03516H17.25Z" fill="currentColor"/><path d="M5 2C5.24094 2 5.4574 2.1482 5.54395 2.37305L6.24023 4.18555C6.34181 4.44944 6.55056 4.65819 6.81445 4.75977L8.62695 5.45605C8.8518 5.5426 9 5.75906 9 6C9 6.24094 8.8518 6.4574 8.62695 6.54395L6.81445 7.24023C6.55056 7.34181 6.34181 7.55056 6.24023 7.81445L5.54395 9.62695C5.4574 9.8518 5.24094 10 5 10C4.75906 10 4.5426 9.8518 4.45605 9.62695L3.75977 7.81445C3.65819 7.55056 3.44944 7.34181 3.18555 7.24023L1.37305 6.54395C1.1482 6.4574 1 6.24094 1 6C1 5.75906 1.1482 5.5426 1.37305 5.45605L3.18555 4.75977C3.44944 4.65819 3.65819 4.44944 3.75977 4.18555L4.45605 2.37305C4.5426 2.1482 4.75906 2 5 2Z" fill="currentColor"/></g></svg>