<svg width="24px" height="24px" viewBox="0 0 24 24" fill="currentColor" xmlns="http://www.w3.org/2000/svg"><g><path d="M13.9992 2.35561C13.9992 1.12899 12.4165 0.636187 11.7202 1.64595L3.17236 14.0403C2.60048 14.8695 3.19407 15.9999 4.20137 15.9999H9.99917V21.6442C9.99917 22.8708 11.5818 23.3637 12.2782 22.3539L20.826 9.95958C21.3979 9.13036 20.8043 7.99992 19.797 7.99992H13.9992V2.35561Z" fill="currentColor"/><path fill-rule="evenodd" clip-rule="evenodd" d="M21.378 14.0109C21.6833 14.0638 21.9247 14.299 21.9854 14.6029L23.4854 22.1029C23.5667 22.509 23.3033 22.9041 22.8971 22.9854C22.4909 23.0666 22.0958 22.8032 22.0146 22.397L21.7351 20.9999H18.3746L17.3931 22.6358C17.18 22.991 16.7193 23.1062 16.3641 22.8931C16.0089 22.6799 15.8938 22.2193 16.1069 21.8641L20.6069 14.3641C20.7663 14.0984 21.0727 13.9581 21.378 14.0109ZM19.2746 19.4999H21.4351L20.895 16.7993L19.2746 19.4999Z" fill="currentColor"/></g></svg>