<svg width="24px" height="24px" viewBox="0 0 24 24" fill="currentColor" xmlns="http://www.w3.org/2000/svg"><g><path fill-rule="evenodd" clip-rule="evenodd" d="M10.0449 2C10.3419 2 10.6108 2.17517 10.7309 2.44673L15.7461 13.7905C15.8487 14.0224 15.8271 14.2905 15.6887 14.503C15.5503 14.7156 15.3138 14.8438 15.0602 14.8438H5.51824L3.43614 19.5533C3.26865 19.9321 2.82577 20.1034 2.44692 19.936C2.06808 19.7685 1.89675 19.3256 2.06424 18.9467L9.35898 2.44674C9.47904 2.17517 9.74801 2 10.0449 2ZM6.1814 13.3438H13.9086L10.0449 4.6048L6.1814 13.3438ZM21.6662 13.126C22.0109 13.3557 22.104 13.8214 21.8742 14.166L16.8742 21.666C16.7496 21.853 16.5477 21.9742 16.3241 21.9963C16.1005 22.0185 15.8787 21.9392 15.7199 21.7803L13.2199 19.2803C12.927 18.9874 12.927 18.5126 13.2199 18.2197C13.5128 17.9268 13.9876 17.9268 14.2805 18.2197L16.1336 20.0728L20.6262 13.334C20.8559 12.9893 21.3216 12.8962 21.6662 13.126Z" fill="currentColor"/></g></svg>