<svg width="24px" height="24px" viewBox="0 0 24 24" fill="currentColor" xmlns="http://www.w3.org/2000/svg"><g><path fill-rule="evenodd" clip-rule="evenodd" d="M7.66918 4C6.37208 4 5.16707 4.67032 4.48303 5.77239L1.8451 10.0224C1.0933 11.2336 1.0933 12.7664 1.8451 13.9776L4.48303 18.2276C5.16708 19.3297 6.37208 20 7.66918 20H18.2503C20.3214 20 22.0003 18.3211 22.0003 16.25V7.75C22.0003 5.67893 20.3214 4 18.2503 4H7.66918ZM11.0303 9.21967C10.7374 8.92678 10.2626 8.92678 9.96967 9.21967C9.67678 9.51256 9.67678 9.98744 9.96967 10.2803L11.6893 12L9.96967 13.7197C9.67678 14.0126 9.67678 14.4874 9.96967 14.7803C10.2626 15.0732 10.7374 15.0732 11.0303 14.7803L12.75 13.0607L14.4697 14.7803C14.7626 15.0732 15.2374 15.0732 15.5303 14.7803C15.8232 14.4874 15.8232 14.0126 15.5303 13.7197L13.8107 12L15.5303 10.2803C15.8232 9.98744 15.8232 9.51256 15.5303 9.21967C15.2374 8.92678 14.7626 8.92678 14.4697 9.21967L12.75 10.9393L11.0303 9.21967Z" fill="currentColor"/></g></svg>