<svg width="24px" height="24px" viewBox="0 0 24 24" fill="currentColor" xmlns="http://www.w3.org/2000/svg"><g><path d="M22 17.25C22 19.3211 20.3211 21 18.25 21H5.75C3.67893 21 2 19.3211 2 17.25V11.4961L11.25 13.5986V13.75C11.25 14.1642 11.5858 14.5 12 14.5C12.4142 14.5 12.75 14.1642 12.75 13.75V13.5986L22 11.4961V17.25Z" fill="currentColor"/><path fill-rule="evenodd" clip-rule="evenodd" d="M13.25 2C15.3211 2 17 3.67893 17 5.75V6H18.25C20.3211 6 22 7.67893 22 9.75V9.95801L12.75 12.0596V12C12.75 11.5858 12.4142 11.25 12 11.25C11.5858 11.25 11.25 11.5858 11.25 12V12.0596L2 9.95801V9.75C2 7.67893 3.67893 6 5.75 6H7V5.75C7 3.67893 8.67893 2 10.75 2H13.25ZM10.75 3.5C9.50736 3.5 8.5 4.50736 8.5 5.75V6H15.5V5.75C15.5 4.50736 14.4926 3.5 13.25 3.5H10.75Z" fill="currentColor"/></g></svg>