<svg width="24px" height="24px" viewBox="0 0 24 24" fill="currentColor" xmlns="http://www.w3.org/2000/svg"><g><path fill-rule="evenodd" clip-rule="evenodd" d="M17.6406 3C18.9208 3 20.0449 3.9844 20.082 5.32422C20.1513 7.82893 19.848 10.2182 19.1211 12.6436C19.7884 13.0665 20.3114 13.6531 20.6572 14.3574C21.602 16.2818 21.075 18.8091 18.9619 20.5801C18.614 20.8716 18.1842 21 17.7754 21C16.9911 20.9999 16.3895 20.5523 16.0576 19.9863C15.732 19.4307 15.6353 18.7208 15.8438 18.0615C15.9344 17.7749 15.9855 17.5056 16.002 17.2461C12.6739 19.8602 8.30104 21.7664 4.00195 19.4824C3.34558 19.1337 3 18.4492 3 17.7705C3.00012 16.6728 3.85858 15.8419 4.8584 15.7041C7.10583 15.3949 8.95392 14.4597 10.498 12.916C9.90814 12.8795 9.3227 12.8948 8.72949 12.9824C7.98243 13.0926 7.15845 12.8144 6.69434 12.1133C6.17753 11.3323 6.25846 10.1781 7.1543 9.58496C8.68212 8.57387 10.8372 7.84192 12.5869 8.14941C12.9479 8.21286 13.2984 8.32307 13.623 8.4873L15.3506 4.50391C15.7461 3.59107 16.6458 3.00001 17.6406 3ZM15.9463 13.4189C16.474 14.0784 16.8923 14.7172 17.1611 15.3711C17.5784 16.386 17.6265 17.4008 17.2744 18.5137C17.1974 18.757 17.2346 19.0278 17.3516 19.2275C17.4626 19.417 17.6127 19.4999 17.7754 19.5C17.878 19.5 17.9537 19.4676 17.998 19.4307C19.66 18.0379 19.9084 16.2363 19.3105 15.0186C18.8338 14.0475 17.7177 13.2605 15.9463 13.4189ZM17.6406 4.5C17.2437 4.50001 16.8845 4.73551 16.7266 5.09961L14.8008 9.54297C14.8212 9.5746 14.8427 9.60586 14.8623 9.63867C15.2372 10.2671 15.409 11.05 15.3828 11.9785C16.2403 11.8511 17.0294 11.8869 17.7305 12.0586C18.3779 9.84176 18.6464 7.66001 18.583 5.36621C18.5701 4.89777 18.1694 4.5 17.6406 4.5ZM12.3271 9.62598C11.0955 9.40962 9.33236 9.94257 7.98242 10.8359C7.92454 10.8743 7.88862 10.9293 7.87695 11.0049C7.86446 11.0865 7.88228 11.1899 7.94531 11.2852C8.0423 11.4317 8.25214 11.5372 8.51074 11.499C10.377 11.2234 12.1423 11.5531 13.8818 11.9873C13.9103 11.2424 13.7724 10.7394 13.5742 10.4072C13.3229 9.98595 12.9099 9.72839 12.3271 9.62598Z" fill="currentColor"/></g></svg>