<svg width="24px" height="24px" viewBox="0 0 24 24" fill="currentColor" xmlns="http://www.w3.org/2000/svg"><g><path d="M4.75102 2.99951C5.71727 2.99962 6.50074 3.78333 6.50102 4.74951V7.46729C6.67721 9.53059 7.24983 11.0635 8.05669 12.1626C8.86357 13.2614 9.93496 13.967 11.1778 14.3345C13.6926 15.0777 16.963 14.4408 20.0528 12.689L20.1768 12.6265C20.7667 12.3615 21.4822 12.5038 21.9112 13.0171L21.9991 13.1333L22.0557 13.2231C22.1818 13.4408 22.2612 13.7074 22.2422 13.9985C22.113 15.9728 20.5787 18.0418 18.3956 19.3911C16.1756 20.7631 13.1649 21.4771 9.88286 20.6431C6.59933 19.8084 4.16953 17.606 2.86919 15.1138C1.58073 12.6439 1.34551 9.75907 2.68364 7.61475C2.7355 7.53154 2.75102 7.46317 2.75102 7.41846V4.74951C2.75129 3.78337 3.53491 2.99975 4.50102 2.99951H4.75102Z" fill="currentColor"/><path d="M7.63481 8.45068C7.86085 8.50549 8.07723 8.59939 8.26665 8.73389C11.1658 10.7927 14.7344 10.0314 17.8536 8.61279C18.2661 8.42516 18.748 8.42535 19.1641 8.6333C19.7758 8.93917 20.1194 9.62799 19.9678 10.3101C19.8763 10.7217 19.7411 11.2579 19.5293 11.8364C16.6936 13.4375 13.804 13.9851 11.6573 13.4312C10.5505 13.1455 9.62494 12.5687 8.92583 11.6558C8.35478 10.9099 7.88339 9.87088 7.63481 8.45068Z" fill="currentColor"/></g></svg>