<svg width="24px" height="24px" viewBox="0 0 24 24" fill="currentColor" xmlns="http://www.w3.org/2000/svg"><g><path fill-rule="evenodd" clip-rule="evenodd" d="M1 8.25C1 6.17893 2.67893 4.5 4.75 4.5H19.25C21.3211 4.5 23 6.17893 23 8.25V15.75C23 17.8211 21.3211 19.5 19.25 19.5H4.75C2.67893 19.5 1 17.8211 1 15.75V8.25ZM3.75 7C3.33579 7 3 7.33579 3 7.75C3 8.16421 3.33579 8.5 3.75 8.5H4.75C5.16421 8.5 5.5 8.16421 5.5 7.75C5.5 7.33579 5.16421 7 4.75 7H3.75ZM18.5 16.25C18.5 15.8358 18.8358 15.5 19.25 15.5H20.25C20.6642 15.5 21 15.8358 21 16.25C21 16.6642 20.6642 17 20.25 17H19.25C18.8358 17 18.5 16.6642 18.5 16.25ZM9.5 12C9.5 10.6193 10.6193 9.5 12 9.5C13.3807 9.5 14.5 10.6193 14.5 12C14.5 13.3807 13.3807 14.5 12 14.5C10.6193 14.5 9.5 13.3807 9.5 12Z" fill="currentColor"/></g></svg>