<svg width="24px" height="24px" viewBox="0 0 24 24" fill="currentColor" xmlns="http://www.w3.org/2000/svg"><g><path fill-rule="evenodd" clip-rule="evenodd" d="M21 19.5H21.25C21.6642 19.5 22 19.8358 22 20.25C22 20.6642 21.6642 21 21.25 21H2.75C2.33579 21 2 20.6642 2 20.25C2.00001 19.8358 2.33579 19.5 2.75 19.5H3V11H21V19.5ZM8.75 13C8.33579 13 8.00001 13.3358 8 13.75V19.5H9.5V13.75C9.49999 13.3358 9.16421 13 8.75 13ZM15.25 13C14.8358 13 14.5 13.3358 14.5 13.75V19.5H16V13.75C16 13.3358 15.6642 13 15.25 13Z" fill="currentColor"/><path fill-rule="evenodd" clip-rule="evenodd" d="M10.0713 2.76369C11.2992 2.21809 12.7008 2.21809 13.9287 2.76369L20.8662 5.8467C21.5555 6.15315 22 6.83742 22 7.59182C21.9996 8.64587 21.145 9.501 20.0908 9.501H3.90918C2.85504 9.501 2.00038 8.64587 2 7.59182C2 6.83742 2.44445 6.15315 3.13379 5.8467L10.0713 2.76369ZM12 5.501C11.4477 5.501 11 5.94871 11 6.501C11.0004 7.05293 11.448 7.501 12 7.501C12.552 7.501 12.9996 7.05293 13 6.501C13 5.94871 12.5523 5.501 12 5.501Z" fill="currentColor"/></g></svg>