<svg width="24px" height="24px" viewBox="0 0 24 24" fill="currentColor" xmlns="http://www.w3.org/2000/svg"><g><path fill-rule="evenodd" clip-rule="evenodd" d="M2 12C2 6.47715 6.47715 2 12 2C17.5228 2 22 6.47715 22 12C22 17.5228 17.5228 22 12 22C6.47715 22 2 17.5228 2 12ZM5.71219 6.04723C5.82747 6.15788 6.01027 6.16088 6.12487 6.04953L6.74816 5.44384C6.88345 5.31238 6.88698 5.09568 6.75089 4.96505C6.61479 4.83442 6.39838 4.8468 6.27257 4.98736L5.69295 5.63497C5.58639 5.75403 5.59691 5.93658 5.71219 6.04723ZM17.2495 4.96505C17.1134 5.09568 17.1169 5.31238 17.2522 5.44384L17.8755 6.04953C17.9901 6.16088 18.1729 6.15788 18.2882 6.04723C18.4035 5.93658 18.414 5.75403 18.3074 5.63497L17.7278 4.98736C17.602 4.8468 17.3856 4.83442 17.2495 4.96505ZM6.98789 7.61208C7.15803 7.8824 7.50721 7.99046 7.7888 7.83973L7.99886 7.72729C8.33162 7.54916 8.45843 7.13252 8.25738 6.81308C8.05632 6.49364 7.62713 6.42947 7.3225 6.65233L7.13021 6.793C6.87242 6.98159 6.81775 7.34177 6.98789 7.61208ZM15.743 6.81308C15.5419 7.13252 15.6687 7.54916 16.0015 7.72729L16.2116 7.83973C16.4932 7.99046 16.8423 7.8824 17.0125 7.61209C17.1826 7.34177 17.1279 6.98159 16.8702 6.793L16.6779 6.65233C16.3732 6.42947 15.944 6.49364 15.743 6.81308ZM7.92951 9.71381C8.01776 10.0205 8.32318 10.223 8.63537 10.1567L8.86847 10.1072C9.23789 10.0287 9.47545 9.66194 9.37101 9.299C9.26658 8.93607 8.87233 8.75694 8.51763 8.88663L8.29382 8.96846C7.99407 9.07806 7.84125 9.4071 7.92951 9.71381ZM14.6294 9.299C14.5249 9.66194 14.7625 10.0287 15.1319 10.1072L15.365 10.1567C15.6772 10.223 15.9826 10.0205 16.0709 9.71381C16.1591 9.4071 16.0063 9.07806 15.7065 8.96846L15.4827 8.88663C15.128 8.75694 14.7338 8.93607 14.6294 9.299ZM8.80808 11.3813C8.48894 11.4033 8.25019 11.6801 8.25019 12C8.25019 12.3199 8.48894 12.5967 8.80808 12.6188L9.0454 12.6352C9.42164 12.6613 9.75019 12.3772 9.75019 12C9.75019 11.6229 9.42164 11.3388 9.04539 11.3648L8.80808 11.3813ZM14.955 11.3648C14.5787 11.3388 14.2502 11.6229 14.2502 12C14.2502 12.3772 14.5787 12.6613 14.955 12.6352L15.1923 12.6188C15.5114 12.5967 15.7502 12.3199 15.7502 12C15.7502 11.6801 15.5114 11.4033 15.1923 11.3813L14.955 11.3648ZM7.92951 14.2862C7.84125 14.5929 7.99407 14.922 8.29382 15.0316L8.51763 15.1134C8.87233 15.2431 9.26658 15.064 9.37101 14.701C9.47545 14.3381 9.23789 13.9713 8.86847 13.8928L8.63537 13.8433C8.32318 13.777 8.01776 13.9795 7.92951 14.2862ZM14.6294 14.701C14.7338 15.064 15.128 15.2431 15.4827 15.1134L15.7065 15.0316C16.0063 14.922 16.1591 14.5929 16.0709 14.2862C15.9826 13.9795 15.6772 13.777 15.365 13.8433L15.1319 13.8928C14.7625 13.9713 14.5249 14.3381 14.6294 14.701ZM6.98789 16.388C6.81776 16.6583 6.87242 17.0185 7.13021 17.207L7.3225 17.3477C7.62713 17.5706 8.05632 17.5064 8.25738 17.187C8.45843 16.8675 8.33162 16.4509 7.99886 16.2728L7.7888 16.1603C7.50721 16.0096 7.15803 16.1176 6.98789 16.388ZM15.743 17.187C15.944 17.5064 16.3732 17.5706 16.6779 17.3477L16.8702 17.207C17.1279 17.0185 17.1826 16.6583 17.0125 16.388C16.8423 16.1176 16.4932 16.0096 16.2116 16.1603L16.0015 16.2728C15.6687 16.4509 15.5419 16.8675 15.743 17.187ZM5.71219 17.9528C5.59691 18.0635 5.58639 18.246 5.69295 18.3651L6.27257 19.0127C6.39838 19.1532 6.61479 19.1656 6.75089 19.035C6.88698 18.9044 6.88345 18.6877 6.74816 18.5562L6.12487 17.9505C6.01027 17.8392 5.82747 17.8422 5.71219 17.9528ZM17.2495 19.035C17.3856 19.1656 17.602 19.1532 17.7278 19.0127L18.3074 18.3651C18.414 18.246 18.4035 18.0635 18.2882 17.9528C18.1729 17.8422 17.9901 17.8392 17.8755 17.9505L17.2522 18.5562C17.1169 18.6877 17.1134 18.9044 17.2495 19.035Z" fill="currentColor"/></g></svg>