<svg width="24px" height="24px" viewBox="0 0 24 24" fill="currentColor" xmlns="http://www.w3.org/2000/svg"><g><path fill-rule="evenodd" clip-rule="evenodd" d="M1.75 2C1.33579 2 1 2.33579 1 2.75C1 3.16421 1.33579 3.5 1.75 3.5H2.27029C2.6278 3.5 2.93562 3.75234 3.00573 4.10291L4.78223 12.9854C5.1328 14.7383 6.67186 16 8.45941 16H17.0658C18.8391 16 20.3701 14.7578 20.7354 13.0225L21.98 7.11052C22.209 6.02281 21.3791 5 20.2676 5H4.71485L4.4766 3.80874C4.26626 2.75703 3.34283 2 2.27029 2H1.75Z" fill="currentColor"/><path d="M8 17C6.89543 17 6 17.8954 6 19C6 20.1046 6.89543 21 8 21C9.10457 21 10 20.1046 10 19C10 17.8954 9.10457 17 8 17Z" fill="currentColor"/><path d="M17 17C15.8954 17 15 17.8954 15 19C15 20.1046 15.8954 21 17 21C18.1046 21 19 20.1046 19 19C19 17.8954 18.1046 17 17 17Z" fill="currentColor"/></g></svg>