<svg width="24px" height="24px" viewBox="0 0 24 24" fill="currentColor" xmlns="http://www.w3.org/2000/svg"><g><path d="M8.94441 4.02874C9.09824 3.64415 8.91118 3.20768 8.52659 3.05384C8.14201 2.90001 7.70553 3.08707 7.55169 3.47166L5.74036 8H4.53185C3.13506 8 2.0758 9.25939 2.31512 10.6355L3.57721 17.8925C3.8896 19.6887 5.44859 21 7.27176 21H16.7252C18.5483 21 20.1073 19.6887 20.4197 17.8925L21.6818 10.6355C21.9211 9.25939 20.8619 8 19.4651 8H18.2557L16.4444 3.47166C16.2906 3.08707 15.8541 2.90001 15.4695 3.05384C15.0849 3.20768 14.8979 3.64415 15.0517 4.02874L16.6402 8H7.35591L8.94441 4.02874Z" fill="currentColor"/></g></svg>