<svg width="24px" height="24px" viewBox="0 0 24 24" fill="currentColor" xmlns="http://www.w3.org/2000/svg"><g><path d="M12 1C10.3431 1 9 2.34315 9 4C9 5.65685 10.3431 7 12 7C13.6569 7 15 5.65685 15 4C15 2.34315 13.6569 1 12 1Z" fill="currentColor"/><path d="M11.0937 8C9.37291 8 7.87297 9.17111 7.45563 10.8405L5.83436 17.3256C5.55824 18.4301 6.39361 19.5 7.53211 19.5H8.00134V21.25C8.00134 22.2165 8.78484 23 9.75134 23H14.2513C15.2178 23 16.0013 22.2165 16.0013 21.25V19.5H16.4706C17.6091 19.5 18.4444 18.4301 18.1683 17.3256L16.547 10.8405C16.1297 9.17112 14.6298 8 12.909 8H11.0937Z" fill="currentColor"/></g></svg>