<svg width="24px" height="24px" viewBox="0 0 24 24" fill="currentColor" xmlns="http://www.w3.org/2000/svg"><g><path fill-rule="evenodd" clip-rule="evenodd" d="M4.75 5C2.67893 5 1 6.67893 1 8.75V15.25C1 17.3211 2.67893 19 4.75 19H16.25C18.0642 19 19.5775 17.7117 19.925 16H20.75C21.9926 16 23 14.9926 23 13.75V10.25C23 9.00736 21.9926 8 20.75 8H19.925C19.5775 6.28832 18.0642 5 16.25 5H4.75ZM20 9.5V14.5H20.75C21.1642 14.5 21.5 14.1642 21.5 13.75V10.25C21.5 9.83579 21.1642 9.5 20.75 9.5H20ZM7.21967 9.21967C7.51256 8.92678 7.98744 8.92678 8.28033 9.21967L10 10.9393L11.7197 9.21967C12.0126 8.92678 12.4874 8.92678 12.7803 9.21967C13.0732 9.51256 13.0732 9.98744 12.7803 10.2803L11.0607 12L12.7803 13.7197C13.0732 14.0126 13.0732 14.4874 12.7803 14.7803C12.4874 15.0732 12.0126 15.0732 11.7197 14.7803L10 13.0607L8.28033 14.7803C7.98744 15.0732 7.51256 15.0732 7.21967 14.7803C6.92678 14.4874 6.92678 14.0126 7.21967 13.7197L8.93934 12L7.21967 10.2803C6.92678 9.98744 6.92678 9.51256 7.21967 9.21967Z" fill="currentColor"/></g></svg>