<svg width="24px" height="24px" viewBox="0 0 24 24" fill="currentColor" xmlns="http://www.w3.org/2000/svg"><g><path fill-rule="evenodd" clip-rule="evenodd" d="M1 12.5C1 7.40228 6.06124 3 12 3C17.9388 3 23 7.40228 23 12.5C23 15.0823 21.6814 17.2376 19.6612 18.7142C17.6531 20.1819 14.9374 21 12 21C9.06264 21 6.34685 20.1819 4.33883 18.7142C2.31861 17.2376 1 15.0823 1 12.5ZM8 9.5C6.89543 9.5 6 10.3954 6 11.5C6 12.6046 6.89543 13.5 8 13.5C8.98402 13.5 9.80206 12.7894 9.9689 11.8533C11.336 11.6518 12.664 11.6518 14.0311 11.8533C14.1979 12.7893 15.016 13.5 16 13.5C17.1046 13.5 18 12.6046 18 11.5C18 10.3954 17.1046 9.5 16 9.5C15.213 9.5 14.5321 9.95459 14.2057 10.6155C12.7228 10.3977 11.2772 10.3977 9.7943 10.6155C9.46788 9.95459 8.78703 9.5 8 9.5Z" fill="currentColor"/></g></svg>