<svg width="24px" height="24px" viewBox="0 0 24 24" fill="currentColor" xmlns="http://www.w3.org/2000/svg"><g><path d="M5.6705 5.6705C9.78684 1.55416 16.0997 0.630406 19.7343 4.26499C19.7667 4.2974 19.7988 4.33003 19.8305 4.36287C18.9539 6.74884 17.7916 8.17514 16.5114 9.13381C15.1024 10.189 13.5029 10.7191 11.7688 11.287L11.7235 11.3018C10.0352 11.8547 8.21759 12.45 6.59721 13.6654C5.23343 14.6884 4.04093 16.1229 3.119 18.2653C0.909141 14.5654 2.06545 9.27555 5.6705 5.6705Z" fill="currentColor"/><path d="M4.18276 19.6508C4.2099 19.6788 4.23731 19.7066 4.26499 19.7343C7.89957 23.3689 14.2125 22.4452 18.3288 18.3288C21.9283 14.7294 23.0866 9.45034 20.8906 5.75119C19.9657 7.88465 18.7728 9.31431 17.4106 10.3345C15.7888 11.5489 13.9713 12.1441 12.2838 12.6967L12.2357 12.7125C10.5017 13.2804 8.90365 13.8104 7.49729 14.8654C6.21694 15.8257 5.05573 17.2557 4.18276 19.6508Z" fill="currentColor"/></g></svg>