<svg width="24px" height="24px" viewBox="0 0 24 24" fill="currentColor" xmlns="http://www.w3.org/2000/svg"><g><path d="M7.87596 2.4161C7.6462 2.07146 7.73933 1.60581 8.08397 1.37604C8.42862 1.14628 8.89427 1.23941 9.12404 1.58405L11.124 4.58405C11.129 4.59157 11.1339 4.59914 11.1386 4.60677C11.4141 4.53704 11.7027 4.5 11.9999 4.5C12.2972 4.5 12.5858 4.53706 12.8614 4.60681C12.8661 4.59917 12.8709 4.59158 12.876 4.58405L14.876 1.58405C15.1057 1.23941 15.5714 1.14628 15.916 1.37604C16.2607 1.60581 16.3538 2.07146 16.124 2.4161L14.2105 5.28635C14.9974 5.92814 15.4999 6.90539 15.4999 8C15.4999 8.74366 15.268 9.43315 14.8725 10.0001C14.6355 10.3399 14.3398 10.6357 14 10.8727C13.5625 11.1779 13.052 11.3856 12.5 11.4645C12.3367 11.4879 12.1698 11.5001 12 11.5001C11.8302 11.5001 11.6633 11.488 11.5 11.4646C10.948 11.3857 10.4375 11.1779 10 10.8727C9.09326 10.2402 8.5 9.18945 8.5 8.00008C8.5 8.00005 8.5 8.00011 8.5 8.00008C8.5 6.90542 9.00245 5.92806 9.7894 5.28626L7.87596 2.4161Z" fill="currentColor"/><path d="M7.43802 10.0496C4.37178 10.44 2 13.0896 2 16.3001V17.2501C2 18.2166 2.7835 19.0001 3.75 19.0001H3.77778C7.21422 19.0001 10 16.1795 10 12.7001V12.584C8.86312 12.0873 7.94667 11.18 7.43802 10.0496Z" fill="currentColor"/><path d="M11.4829 12.9737C11.3178 15.4826 9.97546 17.6763 8.00098 18.982C8.22348 19.3967 8.48017 19.7782 8.76803 20.1175C9.42332 20.8898 10.2707 21.4731 11.25 21.6741V22.25C11.25 22.6642 11.5858 23 12 23C12.4142 23 12.75 22.6642 12.75 22.25V21.674C13.7292 21.4731 14.5767 20.8898 15.2319 20.1175C15.5198 19.7782 15.7765 19.3967 15.999 18.982C14.0246 17.6763 12.6822 15.4825 12.5172 12.9737C12.3472 12.9911 12.1746 13.0001 12 13.0001C11.8254 13.0001 11.6529 12.9911 11.4829 12.9737Z" fill="currentColor"/><path d="M14 12.584V12.7001C14 16.1795 16.7858 19.0001 20.2222 19.0001H20.25C21.2165 19.0001 22 18.2166 22 17.2501V16.3001C22 13.0896 19.6282 10.44 16.562 10.0496C16.0533 11.18 15.1369 12.0873 14 12.584Z" fill="currentColor"/></g></svg>