<svg width="24px" height="24px" viewBox="0 0 24 24" fill="currentColor" xmlns="http://www.w3.org/2000/svg"><g><path fill-rule="evenodd" clip-rule="evenodd" d="M9.82898 2.83819C10.2742 2.77463 10.7265 2.77465 11.1718 2.83819L13.8251 3.2171C13.9772 3.23882 14.1314 3.24931 14.285 3.24932H16.4784C17.1939 3.24932 17.8712 3.57545 18.3182 4.13409L18.4335 4.27862C18.8375 4.78379 18.9724 5.45352 18.7948 6.0755C18.6619 6.54039 18.3731 6.91976 18.0009 7.17413V8.0003L18.2069 8.00518C20.3202 8.11249 22.0009 9.86031 22.0009 12.0003C22.0008 14.1402 20.3202 15.8871 18.2069 15.9944L18.0009 16.0003V17.2503C18.0009 19.3214 16.3219 21.0003 14.2509 21.0003H7.75086C5.67979 21.0003 4.00086 19.3214 4.00086 17.2503V7.1878C3.88643 7.09077 3.77786 6.98473 3.6825 6.86553L3.62683 6.79522C3.18564 6.24339 3.0382 5.5117 3.2323 4.83233C3.50013 3.89575 4.3568 3.24948 5.33094 3.24932H6.76355C6.88561 3.24932 7.00796 3.24118 7.12879 3.22393L9.82898 2.83819ZM18.0009 14.5003L18.2567 14.4876C19.5171 14.3594 20.5008 13.2945 20.5009 12.0003C20.5009 10.6196 19.3815 9.50037 18.0009 9.5003V14.5003ZM10.9598 4.32257C10.6552 4.2791 10.3455 4.27908 10.0409 4.32257L7.3407 4.70831C7.14961 4.73559 6.95658 4.74932 6.76355 4.74932H5.33094C5.02652 4.74948 4.75853 4.95181 4.67469 5.24444C4.61401 5.4568 4.65991 5.68615 4.79773 5.8587L4.8534 5.92803C5.01575 6.13097 5.26247 6.24922 5.52234 6.24932H6.99988C7.96614 6.24932 8.7495 7.03315 8.74988 7.99932V8.99932C8.74988 9.41328 9.08602 9.7489 9.49988 9.74932C9.91409 9.74932 10.2499 9.41354 10.2499 8.99932V8.66534C10.2501 7.0686 11.6846 5.85332 13.2596 6.11553L13.6024 6.17315C13.8239 6.21002 14.0515 6.19233 14.2645 6.12139L14.7665 5.95343C15.2203 5.8022 15.7077 5.77746 16.1747 5.88116L16.7655 6.013C17.0226 6.06993 17.28 5.91658 17.3524 5.66339C17.3966 5.50842 17.3632 5.34102 17.2626 5.21514L17.1464 5.07061C16.9839 4.86806 16.7381 4.74932 16.4784 4.74932H14.285C14.0605 4.74931 13.8354 4.73418 13.6132 4.70245L10.9598 4.32257Z" fill="currentColor"/></g></svg>