<svg width="24px" height="24px" viewBox="0 0 24 24" fill="currentColor" xmlns="http://www.w3.org/2000/svg"><g><path d="M7.36803 4.75127C7.96248 4.74024 8.55607 4.80112 9.13587 4.93259C9.62404 5.03906 10.0875 5.23718 10.5017 5.51643C10.8842 5.7941 11.1868 6.16742 11.3793 6.59889C11.6004 7.12946 11.7071 7.70063 11.6923 8.27516C11.7175 8.90601 11.5562 9.53029 11.2286 10.0702C10.884 10.5801 10.4076 10.9874 9.85009 11.2488C10.6067 11.4525 11.2658 11.9193 11.7087 12.5651C12.1339 13.2494 12.3476 14.0438 12.3231 14.8488C12.3371 15.4907 12.2042 16.1272 11.9347 16.71C11.6855 17.2184 11.3206 17.6615 10.8692 18.0037C10.4045 18.3422 9.88162 18.5927 9.32645 18.7426C8.75072 18.9017 8.15596 18.9816 7.55861 18.9801H1V4.75127H7.36803ZM6.9896 10.5063C7.45666 10.5255 7.91643 10.3858 8.2937 10.1101C8.47438 9.94941 8.61493 9.74873 8.70412 9.5241C8.79331 9.29947 8.82866 9.05711 8.80735 8.81639C8.81944 8.53525 8.76341 8.25534 8.644 8.00047C8.54271 7.79754 8.38522 7.62793 8.19024 7.51182C7.99276 7.384 7.77089 7.2985 7.53865 7.2607C7.28666 7.21193 7.03024 7.18975 6.77361 7.19451H3.9712V10.519H6.9896V10.5063ZM7.15295 16.5641C7.43541 16.5679 7.71729 16.5374 7.9924 16.4734C8.24382 16.4179 8.48226 16.3148 8.69482 16.1697C8.90306 16.0246 9.0713 15.8294 9.18397 15.6022C9.31462 15.3124 9.37464 14.9958 9.35912 14.6784C9.38745 14.3891 9.34909 14.0972 9.247 13.825C9.14491 13.5528 8.98179 13.3076 8.77014 13.1082C8.32156 12.7781 7.77182 12.6146 7.21557 12.6458H3.9712V16.5641H7.15295Z" fill="currentColor"/><path d="M16.5548 16.5115C16.788 16.7274 17.0627 16.8937 17.3623 17.0003C17.6618 17.1069 17.9799 17.1516 18.2972 17.1316C18.8003 17.1443 19.2936 16.9914 19.7012 16.6964C20.0327 16.4811 20.2838 16.1624 20.4154 15.7898H22.7849C22.5324 16.8504 21.9159 17.789 21.0425 18.4425C20.2046 18.9981 19.2144 19.2794 18.2092 19.2476C17.4918 19.257 16.7798 19.1222 16.1156 18.8514C15.5147 18.601 14.9758 18.2226 14.5365 17.7426C14.0989 17.2396 13.7627 16.6569 13.5464 16.0265C13.3036 15.3218 13.1848 14.5804 13.1952 13.8352C13.1908 13.1026 13.3136 12.3747 13.5582 11.6839C13.8868 10.7122 14.5151 9.86939 15.353 9.27652C16.1909 8.68366 17.1952 8.37119 18.2219 8.38395C18.9799 8.36813 19.7295 8.54534 20.4 8.89889C21.006 9.23089 21.5288 9.69583 21.9291 10.2588C22.3386 10.8495 22.632 11.5124 22.794 12.2125C22.9716 12.9642 23.0349 13.7383 22.9818 14.5088H15.9241C15.8669 15.2328 16.093 15.9507 16.5548 16.5115ZM19.6513 11.1001C19.4538 10.9027 19.2162 10.75 18.9546 10.6521C18.693 10.5542 18.4135 10.5134 18.1348 10.5326C17.7651 10.5185 17.398 10.6003 17.0694 10.7701C16.8088 10.9134 16.5788 11.1062 16.3924 11.3376C16.2271 11.5546 16.104 11.8006 16.0294 12.0629C15.9621 12.2816 15.9201 12.5073 15.9041 12.7356H20.2756C20.2375 12.1405 20.0206 11.5708 19.6531 11.101L19.6513 11.1001Z" fill="currentColor"/><path d="M20.8183 5.70136H15.3406V7.10022H20.8183V5.70136Z" fill="currentColor"/></g></svg>