<svg width="24px" height="24px" viewBox="0 0 24 24" fill="currentColor" xmlns="http://www.w3.org/2000/svg"><g><path fill-rule="evenodd" clip-rule="evenodd" d="M4.75447 8.87114C4.94782 5.0198 8.13655 2 12 2C15.8634 2 19.0522 5.02005 19.2455 8.87139L19.4195 12.3148C19.4356 12.6348 19.52 12.9476 19.6668 13.2324L20.8047 15.4394C20.9331 15.6882 21 15.9641 21 16.2441C21 17.2138 20.2138 18 19.2441 18H16.6911C16.3315 20.267 14.3682 22 12 22C9.63185 22 7.66846 20.267 7.30888 18H4.75593C3.78616 18 3 17.2138 3 16.2441C3 15.9641 3.06695 15.6882 3.19525 15.4394L4.3332 13.2324C4.48004 12.9476 4.56437 12.6348 4.58053 12.3148L4.75447 8.87114ZM8.83697 18C9.17555 19.4333 10.4632 20.5 12 20.5C13.5368 20.5 14.8245 19.4333 15.163 18H8.83697ZM10.25 7.5C9.83579 7.5 9.5 7.83579 9.5 8.25C9.5 8.66421 9.83579 9 10.25 9H12.2165L9.65799 12.2895C9.48212 12.5157 9.45041 12.8222 9.57626 13.0795C9.70212 13.3368 9.96355 13.5 10.25 13.5H13.75C14.1642 13.5 14.5 13.1642 14.5 12.75C14.5 12.3358 14.1642 12 13.75 12H11.7835L14.342 8.71046C14.5179 8.48435 14.5496 8.17781 14.4237 7.92049C14.2979 7.66316 14.0365 7.5 13.75 7.5H10.25Z" fill="currentColor"/></g></svg>