<svg width="24px" height="24px" viewBox="0 0 24 24" fill="currentColor" xmlns="http://www.w3.org/2000/svg"><g><path d="M17.25 3.00391C19.3211 3.00391 21 4.68284 21 6.75391V17.2539C21 19.325 19.3211 21.0039 17.25 21.0039H16.75C14.6789 21.0039 13 19.325 13 17.2539V6.75391C13 4.68284 14.6789 3.00391 16.75 3.00391H17.25Z" fill="currentColor"/><path d="M7.25 13C9.32107 13 11 14.6789 11 16.75V17.25C11 19.3211 9.32107 21 7.25 21H6.75C4.67893 21 3 19.3211 3 17.25V16.75C3 14.6789 4.67893 13 6.75 13H7.25Z" fill="currentColor"/><path d="M7.25 3C9.32107 3 11 4.67893 11 6.75V7.25C11 9.32107 9.32107 11 7.25 11H6.75C4.67893 11 3 9.32107 3 7.25V6.75C3 4.67893 4.67893 3 6.75 3H7.25Z" fill="currentColor"/></g></svg>