<svg width="24px" height="24px" viewBox="0 0 24 24" fill="currentColor" xmlns="http://www.w3.org/2000/svg"><g><path fill-rule="evenodd" clip-rule="evenodd" d="M7.08011 8.38235C7.08011 5.40466 9.50608 3 12.5 3C15.5617 3 17.3631 5.21029 17.5085 7.45145C17.581 8.56907 17.2435 9.7179 16.4263 10.5907C16.2504 10.7786 16.0554 10.9504 15.8418 11.1045C16.3063 11.3371 16.7077 11.6317 17.0431 11.979C17.9364 12.9042 18.2868 14.1285 18.1727 15.3214C17.9439 17.7137 15.8638 20 12.5 20C10.8412 20 9.50874 19.3272 8.58011 18.2723V19.1699C8.58011 20.7329 7.31303 22 5.75 22C5.33579 22 5 21.6642 5 21.25C5 20.8358 5.33579 20.5 5.75 20.5C6.4846 20.5 7.08011 19.9045 7.08011 19.1699V8.38235ZM8.58011 14.0441C8.58011 16.5875 10.1485 18.5 12.5 18.5C15.1059 18.5 16.5257 16.7863 16.6795 15.1786C16.7567 14.3715 16.5191 13.5958 15.964 13.021C15.4113 12.4486 14.4695 12 13 12C12.9794 12 12.9589 11.9992 12.9387 11.9975C12.8764 11.9992 12.8135 12 12.75 12C12.3358 12 12 11.6642 12 11.25C12 10.8358 12.3358 10.5 12.75 10.5C14.0181 10.5 14.8388 10.0915 15.3313 9.56551C15.8308 9.0321 16.0608 8.30593 16.0117 7.54855C15.9138 6.03971 14.7153 4.5 12.5 4.5C10.3243 4.5 8.58011 6.24329 8.58011 8.38235V14.0441Z" fill="currentColor"/></g></svg>