<svg width="24px" height="24px" viewBox="0 0 24 24" fill="currentColor" xmlns="http://www.w3.org/2000/svg"><g><path d="M19.25 17.5C20.2165 17.5 21 18.2835 21 19.25C21 20.2165 20.2165 21 19.25 21C18.5523 21 17.952 20.5907 17.6709 20H15.75C15.3358 20 15 19.6642 15 19.25C15 18.8358 15.3358 18.5 15.75 18.5H17.6709C17.952 17.9093 18.5523 17.5 19.25 17.5Z" fill="currentColor"/><path d="M20.25 4C20.6642 4 21 4.33579 21 4.75C21 5.16421 20.6642 5.5 20.25 5.5C17.9454 5.5 16.4842 6.3137 15.3916 7.51953C14.2562 8.77266 13.4991 10.4652 12.6855 12.3037C11.8951 14.09 11.0477 16.0228 9.71973 17.4883C8.34885 19.0011 6.48693 20 3.75 20C3.33579 20 3 19.6642 3 19.25C3 18.8358 3.33579 18.5 3.75 18.5C6.05461 18.5 7.51575 17.6863 8.6084 16.4805C9.74381 15.2273 10.5009 13.5348 11.3145 11.6963C12.1049 9.90998 12.9523 7.97724 14.2803 6.51172C15.6512 4.99893 17.5131 4 20.25 4Z" fill="currentColor"/><path d="M12.25 18.5C12.6642 18.5 13 18.8358 13 19.25C13 19.6642 12.6642 20 12.25 20H10.75C10.3358 20 10 19.6642 10 19.25C10 18.8358 10.3358 18.5 10.75 18.5H12.25Z" fill="currentColor"/><path d="M4.75 3C5.44772 3 6.04804 3.40928 6.3291 4H8.25C8.66421 4 9 4.33579 9 4.75C9 5.16421 8.66421 5.5 8.25 5.5H6.3291C6.04804 6.09072 5.44772 6.5 4.75 6.5C3.7835 6.5 3 5.7165 3 4.75C3 3.7835 3.7835 3 4.75 3Z" fill="currentColor"/><path d="M13.25 4C13.6642 4 14 4.33579 14 4.75C14 5.16421 13.6642 5.5 13.25 5.5H11.75C11.3358 5.5 11 5.16421 11 4.75C11 4.33579 11.3358 4 11.75 4H13.25Z" fill="currentColor"/></g></svg>