<svg width="24px" height="24px" viewBox="0 0 24 24" fill="currentColor" xmlns="http://www.w3.org/2000/svg"><g><path fill-rule="evenodd" clip-rule="evenodd" d="M5.25 3C4.00736 3 3 4.00736 3 5.25V6.75C3 7.99264 4.00736 9 5.25 9V15C4.00736 15 3 16.0074 3 17.25V18.75C3 19.9926 4.00736 21 5.25 21H6.5C7.74264 21 8.75 19.9926 8.75 18.75H15C15 19.9926 16.0074 21 17.25 21H18.75C19.9926 21 21 19.9926 21 18.75V17.25C21 16.0074 19.9926 15 18.75 15V9C19.9926 9 21 7.99264 21 6.75V5.25C21 4.00736 19.9926 3 18.75 3H17.25C16.0074 3 15 4.00736 15 5.25H9C9 4.00736 7.99264 3 6.75 3H5.25ZM6.75 9C7.99264 9 9 7.99264 9 6.75H15C15 7.99264 16.0074 9 17.25 9V15C16.0074 15 15 16.0074 15 17.25H8.75C8.75 16.0919 7.87499 15.1381 6.75 15.0137V9Z" fill="currentColor"/><path d="M12.75 9.75C12.75 9.33579 12.4142 9 12 9C11.5858 9 11.25 9.33579 11.25 9.75V11.25H9.75C9.33579 11.25 9 11.5858 9 12C9 12.4142 9.33579 12.75 9.75 12.75H11.25V14.25C11.25 14.6642 11.5858 15 12 15C12.4142 15 12.75 14.6642 12.75 14.25V12.75H14.25C14.6642 12.75 15 12.4142 15 12C15 11.5858 14.6642 11.25 14.25 11.25H12.75V9.75Z" fill="currentColor"/></g></svg>