<svg width="24px" height="24px" viewBox="0 0 24 24" fill="currentColor" xmlns="http://www.w3.org/2000/svg"><g><path d="M9.75 11.25C9.33579 11.25 9 11.5858 9 12C9 12.4142 9.33579 12.75 9.75 12.75H14.25C14.6642 12.75 15 12.4142 15 12C15 11.5858 14.6642 11.25 14.25 11.25H9.75Z" fill="currentColor"/><path fill-rule="evenodd" clip-rule="evenodd" d="M3 5.25C3 4.00736 4.00736 3 5.25 3H6.75C7.99264 3 9 4.00736 9 5.25H15C15 4.00736 16.0074 3 17.25 3H18.75C19.9926 3 21 4.00736 21 5.25V6.75C21 7.99264 19.9926 9 18.75 9V15C19.9926 15 21 16.0074 21 17.25V18.75C21 19.9926 19.9926 21 18.75 21H17.25C16.0074 21 15 19.9926 15 18.75H8.75C8.75 19.9926 7.74264 21 6.5 21H5.25C4.00736 21 3 19.9926 3 18.75V17.25C3 16.0074 4.00736 15 5.25 15V9C4.00736 9 3 7.99264 3 6.75V5.25ZM9 6.75C9 7.99264 7.99264 9 6.75 9V15.0137C7.87499 15.1381 8.75 16.0919 8.75 17.25H15C15 16.0074 16.0074 15 17.25 15V9C16.0074 9 15 7.99264 15 6.75H9Z" fill="currentColor"/></g></svg>