<svg width="24px" height="24px" viewBox="0 0 24 24" fill="currentColor" xmlns="http://www.w3.org/2000/svg"><g><path fill-rule="evenodd" clip-rule="evenodd" d="M11.5406 13.1223C11.2649 12.1572 12.1572 11.2649 13.1223 11.5406L19.9539 13.4925C21.0577 13.8079 21.2197 15.3049 20.209 15.8492L17.3751 17.3751L15.8492 20.209C15.3049 21.2197 13.8079 21.0577 13.4925 19.9539L11.5406 13.1223ZM13.092 13.092L14.7857 19.02L16.0858 16.6057C16.2045 16.3853 16.3852 16.2045 16.6057 16.0858L19.02 14.7857L13.092 13.092Z" fill="currentColor"/><path d="M5.25 3C4.00736 3 3 4.00736 3 5.25V6.75C3 7.99264 4.00736 9 5.25 9V15C4.00736 15 3 16.0074 3 17.25V18.75C3 19.9926 4.00736 21 5.25 21H6.5C7.74264 21 8.75 19.9926 8.75 18.75H10.25C10.6642 18.75 11 18.4142 11 18C11 17.5858 10.6642 17.25 10.25 17.25H8.75C8.75 16.0919 7.87499 15.1381 6.75 15.0137V9C7.99264 9 9 7.99264 9 6.75H15C15 7.99264 16.0074 9 17.25 9V10.25C17.25 10.6642 17.5858 11 18 11C18.4142 11 18.75 10.6642 18.75 10.25V9C19.9926 9 21 7.99264 21 6.75V5.25C21 4.00736 19.9926 3 18.75 3H17.25C16.0074 3 15 4.00736 15 5.25H9C9 4.00736 7.99264 3 6.75 3H5.25Z" fill="currentColor"/></g></svg>