<svg width="24px" height="24px" viewBox="0 0 24 24" fill="currentColor" xmlns="http://www.w3.org/2000/svg"><g><path fill-rule="evenodd" clip-rule="evenodd" d="M11.25 2C10.0074 2 9 3.00736 9 4.25V4.85222C7.13197 5.63709 5.63709 7.13197 4.85222 9H4.25C3.00736 9 2 10.0074 2 11.25V12.75C2 13.9926 3.00736 15 4.25 15H4.85222C5.63709 16.868 7.13197 18.3629 9 19.1478V19.75C9 20.9926 10.0074 22 11.25 22H12.75C13.9926 22 15 20.9926 15 19.75V19.1478C16.868 18.3629 18.3629 16.868 19.1478 15H19.75C20.9926 15 22 13.9926 22 12.75V11.25C22 10.0074 20.9926 9 19.75 9H19.1478C18.3629 7.13197 16.868 5.63709 15 4.85222V4.25C15 3.00736 13.9926 2 12.75 2H11.25ZM6.45526 9.11275C7.04745 7.9781 7.9781 7.04745 9.11275 6.45526C9.40864 7.35244 10.2537 8 11.25 8H12.75C13.7463 8 14.5914 7.35244 14.8873 6.45526C16.0219 7.04745 16.9525 7.9781 17.5447 9.11275C16.6476 9.40864 16 10.2537 16 11.25V12.75C16 13.7463 16.6476 14.5914 17.5447 14.8873C16.9525 16.0219 16.0219 16.9525 14.8873 17.5447C14.5914 16.6476 13.7463 16 12.75 16H11.25C10.2537 16 9.40864 16.6476 9.11275 17.5447C7.9781 16.9525 7.04746 16.0219 6.45526 14.8873C7.35245 14.5914 8 13.7463 8 12.75V11.25C8 10.2537 7.35244 9.40864 6.45526 9.11275Z" fill="currentColor"/></g></svg>