<svg width="24px" height="24px" viewBox="0 0 24 24" fill="currentColor" xmlns="http://www.w3.org/2000/svg"><g><path fill-rule="evenodd" clip-rule="evenodd" d="M12 4C10.6021 4 9.42755 4.95608 9.09451 6.25H4.85462C4.55793 5.51704 3.83934 5 3 5C1.89543 5 1 5.89543 1 7C1 8.10457 1.89543 9 3 9C3.83934 9 4.55793 8.48296 4.85462 7.75H6.74927C4.79002 9.22186 3.4685 11.4972 3.27467 14.0883C1.96825 14.4127 1 15.5933 1 17C1 18.6569 2.34315 20 4 20C5.65685 20 7 18.6569 7 17C7 15.6124 6.05795 14.4449 4.77852 14.102C5.01988 11.3752 6.77194 9.08035 9.1937 8.06281C9.62274 9.19507 10.7174 10 12 10C13.2826 10 14.3773 9.19507 14.8063 8.0628C17.2281 9.08035 18.9801 11.3752 19.2215 14.102C17.9421 14.4449 17 15.6124 17 17C17 18.6569 18.3431 20 20 20C21.6569 20 23 18.6569 23 17C23 15.5933 22.0317 14.4127 20.7253 14.0883C20.5315 11.4972 19.21 9.22186 17.2507 7.75H19.1454C19.4421 8.48296 20.1607 9 21 9C22.1046 9 23 8.10457 23 7C23 5.89543 22.1046 5 21 5C20.1607 5 19.4421 5.51704 19.1454 6.25H14.9055C14.5725 4.95608 13.3979 4 12 4Z" fill="currentColor"/></g></svg>