<svg width="24px" height="24px" viewBox="0 0 24 24" fill="currentColor" xmlns="http://www.w3.org/2000/svg"><g><path fill-rule="evenodd" clip-rule="evenodd" d="M16.9697 13.6363C17.9069 12.6991 19.4264 12.6991 20.3637 13.6363C21.3009 14.5736 21.3009 16.0931 20.3637 17.0303L16.6137 20.7803C16.473 20.921 16.2822 21 16.0833 21H13.75C13.3358 21 13 20.6642 13 20.25V17.9167C13 17.7177 13.079 17.527 13.2197 17.3863L16.9697 13.6363Z" fill="currentColor"/><path d="M5.25 3C4.00736 3 3 4.00736 3 5.25V6.75C3 7.99264 4.00736 9 5.25 9V15C4.00736 15 3 16.0074 3 17.25V18.75C3 19.9926 4.00736 21 5.25 21H6.5C7.74264 21 8.75 19.9926 8.75 18.75H10.25C10.6642 18.75 11 18.4142 11 18C11 17.5858 10.6642 17.25 10.25 17.25H8.75C8.75 16.0919 7.87499 15.1381 6.75 15.0137V9C7.99264 9 9 7.99264 9 6.75H15C15 7.99264 16.0074 9 17.25 9V10.25C17.25 10.6642 17.5858 11 18 11C18.4142 11 18.75 10.6642 18.75 10.25V9C19.9926 9 21 7.99264 21 6.75V5.25C21 4.00736 19.9926 3 18.75 3H17.25C16.0074 3 15 4.00736 15 5.25H9C9 4.00736 7.99264 3 6.75 3H5.25Z" fill="currentColor"/></g></svg>