<svg width="24px" height="24px" viewBox="0 0 24 24" fill="currentColor" xmlns="http://www.w3.org/2000/svg"><g><path fill-rule="evenodd" clip-rule="evenodd" d="M13 4.75C13 4.33579 13.3358 4 13.75 4H15.95C16.2818 4 16.5742 4.21805 16.6688 4.5361L18.3088 10.0474C18.5347 10.0161 18.7655 10 19 10C21.7614 10 24 12.2386 24 15C24 17.7614 21.7614 20 19 20C16.2386 20 14 17.7614 14 15C14 13 15.1743 11.2743 16.8709 10.4746L16.4779 9.15377L13.0606 12.9983C12.9732 13.0965 12.8658 13.1664 12.75 13.2073V15C12.75 15.4142 12.4142 15.75 12 15.75H9.94413C9.58229 18.1556 7.50654 20 5 20C2.23858 20 0 17.7614 0 15C0 12.2386 2.23858 10 5 10C7.5065 10 9.58223 11.8443 9.94412 14.25H11.25V13.0818L5.9955 8.30496C5.90042 8.21852 5.83266 8.11325 5.79274 8H5.75C5.33579 8 5 7.66421 5 7.25C5 6.83579 5.33579 6.5 5.75 6.5H8.75C9.16421 6.5 9.5 6.83579 9.5 7.25C9.5 7.66421 9.16421 8 8.75 8H7.88996L12.0969 11.8245L15.9394 7.50173C15.951 7.48872 15.9629 7.47622 15.9751 7.46421L15.3907 5.5H13.75C13.3358 5.5 13 5.16421 13 4.75ZM8.41945 14.25C8.07609 12.6774 6.67554 11.5 5 11.5C3.067 11.5 1.5 13.067 1.5 15C1.5 16.933 3.067 18.5 5 18.5C6.67558 18.5 8.07615 17.3226 8.41947 15.75H5C4.58579 15.75 4.25 15.4142 4.25 15C4.25 14.5857 4.58579 14.25 5 14.25H8.41945ZM17.3059 11.9366C16.229 12.5334 15.5 13.6815 15.5 15C15.5 16.933 17.067 18.5 19 18.5C20.933 18.5 22.5 16.933 22.5 15C22.5 13.067 20.933 11.5 19 11.5C18.9138 11.5 18.8284 11.5031 18.7438 11.5092L19.7189 14.7861C19.837 15.1831 19.6109 15.6007 19.2139 15.7189C18.8169 15.837 18.3993 15.6109 18.2811 15.2139L17.3059 11.9366Z" fill="currentColor"/></g></svg>