<svg width="24px" height="24px" viewBox="0 0 24 24" fill="currentColor" xmlns="http://www.w3.org/2000/svg"><g><path d="M13.375 15C13.9963 15 14.5 14.4963 14.5 13.875C14.5 13.2537 13.9963 12.75 13.375 12.75H10.5V15H13.375Z" fill="currentColor"/><path d="M10.5 11.25V9H13.375C13.9963 9 14.5 9.50368 14.5 10.125C14.5 10.7463 13.9963 11.25 13.375 11.25H10.5Z" fill="currentColor"/><path fill-rule="evenodd" clip-rule="evenodd" d="M2 12C2 6.47715 6.47715 2 12 2C17.5228 2 22 6.47715 22 12C22 17.5228 17.5228 22 12 22C6.47715 22 2 17.5228 2 12ZM8.25 7.5C7.83579 7.5 7.5 7.83579 7.5 8.25C7.5 8.66421 7.83579 9 8.25 9H9V15H8.25C7.83579 15 7.5 15.3358 7.5 15.75C7.5 16.1642 7.83579 16.5 8.25 16.5H11.25V17.25C11.25 17.6642 11.5858 18 12 18C12.4142 18 12.75 17.6642 12.75 17.25V16.5H13.375C14.8247 16.5 16 15.3247 16 13.875C16 13.1405 15.6983 12.4764 15.2121 12C15.6983 11.5236 16 10.8595 16 10.125C16 8.67525 14.8247 7.5 13.375 7.5H12.75V6.75C12.75 6.33579 12.4142 6 12 6C11.5858 6 11.25 6.33579 11.25 6.75V7.5H8.25Z" fill="currentColor"/></g></svg>