<svg width="24px" height="24px" viewBox="0 0 24 24" fill="currentColor" xmlns="http://www.w3.org/2000/svg"><g><path fill-rule="evenodd" clip-rule="evenodd" d="M5.57444 20.9562C4.51461 22.1834 2.5 21.4339 2.5 19.8124V12.0002C2.5 6.75354 6.75329 2.50024 12 2.50024C14.0166 2.50024 15.8878 3.12932 17.4262 4.20144L18.4256 3.04424C19.4854 1.81707 21.5 2.5666 21.5 4.18808V12.0002C21.5 17.2469 17.2467 21.5002 12 21.5002C9.98341 21.5002 8.11216 20.8712 6.57384 19.799L5.57444 20.9562ZM12 15.5002C13.933 15.5002 15.5 13.9332 15.5 12.0002C15.5 10.0672 13.933 8.50024 12 8.50024C10.067 8.50024 8.5 10.0672 8.5 12.0002C8.5 13.9332 10.067 15.5002 12 15.5002Z" fill="currentColor"/></g></svg>