<svg width="24px" height="24px" viewBox="0 0 24 24" fill="currentColor" xmlns="http://www.w3.org/2000/svg"><g><path fill-rule="evenodd" clip-rule="evenodd" d="M2 7.75C2 5.67893 3.67893 4 5.75 4H18.25C20.3211 4 22 5.67893 22 7.75V16.25C22 18.3211 20.3211 20 18.25 20H8.03571C7.11036 20 6.21024 19.6988 5.47046 19.1421C3.28523 17.4977 2 14.9176 2 12.1786V7.75ZM8.40278 18.5C7.95491 18.5 7.67294 18.3509 7.47649 18.1446C7.26297 17.9204 7.10109 17.5737 7.02165 17.122C6.85834 16.1935 7.09036 15.104 7.4858 14.5088C7.68314 14.2118 7.64406 13.8169 7.39233 13.5643L6.29151 12.4598C5.59094 11.7568 4.7349 11.1265 4.12633 10.3371C3.74052 9.83664 3.5 9.24738 3.5 8V7.75C3.5 6.50736 4.50736 5.5 5.75 5.5H18.25C19.4926 5.5 20.5 6.50736 20.5 7.75V16.25C20.5 17.4926 19.4926 18.5 18.25 18.5H8.40278Z" fill="currentColor"/></g></svg>