<svg width="24px" height="24px" viewBox="0 0 24 24" fill="currentColor" xmlns="http://www.w3.org/2000/svg"><g><path d="M14.5771 2.81322L7.70428 8.59548C4.5016 11.29 4.08386 16.0774 6.77122 19.2886C9.45859 22.4997 14.2334 22.9186 17.4361 20.2241L19.1543 18.7785C20.2219 17.8804 20.2247 16.1216 19.4653 15.2142C18.8676 14.5 17.2265 13.7951 16.1251 14.7216L17.6286 13.4568C18.6961 12.5586 18.8354 10.9628 17.9396 9.8924C17.0438 8.82201 15.4522 8.6824 14.3846 9.58056L17.8211 6.68943C18.8886 5.79127 19.0279 4.19545 18.1321 3.12506C17.2363 2.05468 15.6447 1.91506 14.5771 2.81322Z" fill="currentColor"/><path d="M7.14363 3.68671C7.09603 3.42292 7.19333 3.15388 7.39886 2.98097L7.7778 2.66215C9.10706 1.54382 11.0435 1.90783 11.9351 3.26041L7.69141 6.72215L7.14363 3.68671Z" fill="currentColor"/></g></svg>