<svg width="24px" height="24px" viewBox="0 0 24 24" fill="currentColor" xmlns="http://www.w3.org/2000/svg"><g><path fill-rule="evenodd" clip-rule="evenodd" d="M2 7.375C2 4.40647 4.40647 2 7.375 2C9.34265 2 11.0634 3.05729 12 4.63474C12.9366 3.05729 14.6573 2 16.625 2C19.5935 2 22 4.40647 22 7.375C22 9.34265 20.9427 11.0634 19.3653 12C20.9427 12.9366 22 14.6573 22 16.625C22 19.5935 19.5935 22 16.625 22C14.6573 22 12.9366 20.9427 12 19.3653C11.0634 20.9427 9.34265 22 7.375 22C4.40647 22 2 19.5935 2 16.625C2 14.6573 3.05729 12.9366 4.63474 12C3.05729 11.0634 2 9.34265 2 7.375ZM7.375 11.25C5.2349 11.25 3.5 9.5151 3.5 7.375C3.5 5.2349 5.2349 3.5 7.375 3.5C9.5151 3.5 11.25 5.2349 11.25 7.375V8.0702C10.703 8.17396 10.1954 8.38909 9.75178 8.69112L8.03033 6.96967C7.73744 6.67678 7.26256 6.67678 6.96967 6.96967C6.67678 7.26256 6.67678 7.73744 6.96967 8.03033L8.69112 9.75178C8.38909 10.1954 8.17396 10.703 8.0702 11.25H7.375ZM8.0702 12.75H7.375C5.2349 12.75 3.5 14.4849 3.5 16.625C3.5 18.7651 5.2349 20.5 7.375 20.5C9.5151 20.5 11.25 18.7651 11.25 16.625V15.9298C10.703 15.826 10.1954 15.6109 9.75178 15.3089L8.03033 17.0303C7.73744 17.3232 7.26256 17.3232 6.96967 17.0303C6.67678 16.7374 6.67678 16.2626 6.96967 15.9697L8.69112 14.2482C8.38909 13.8046 8.17396 13.297 8.0702 12.75ZM12.75 15.9298V16.625C12.75 18.7651 14.4849 20.5 16.625 20.5C18.7651 20.5 20.5 18.7651 20.5 16.625C20.5 14.4849 18.7651 12.75 16.625 12.75H15.9298C15.826 13.297 15.6109 13.8046 15.3089 14.2482L17.0303 15.9697C17.3232 16.2626 17.3232 16.7374 17.0303 17.0303C16.7374 17.3232 16.2626 17.3232 15.9697 17.0303L14.2482 15.3089C13.8046 15.6109 13.297 15.826 12.75 15.9298ZM15.9298 11.25H16.625C18.7651 11.25 20.5 9.5151 20.5 7.375C20.5 5.2349 18.7651 3.5 16.625 3.5C14.4849 3.5 12.75 5.2349 12.75 7.375V8.0702C13.297 8.17396 13.8046 8.38909 14.2482 8.69112L15.9697 6.96967C16.2626 6.67678 16.7374 6.67678 17.0303 6.96967C17.3232 7.26256 17.3232 7.73744 17.0303 8.03033L15.3089 9.75178C15.6109 10.1954 15.826 10.703 15.9298 11.25Z" fill="currentColor"/></g></svg>