<svg width="24px" height="24px" viewBox="0 0 24 24" fill="currentColor" xmlns="http://www.w3.org/2000/svg"><g><path d="M12.0012 11.4535C11.0788 9.53897 8.5657 5.97133 6.22962 4.21155C4.54403 2.9421 1.8125 1.95953 1.8125 5.08555C1.8125 5.70961 2.1691 10.3302 2.37861 11.0803C3.10583 13.688 5.75648 14.3531 8.11421 13.9507C3.99288 14.6543 2.94472 16.985 5.20884 19.3157C9.50879 23.7423 11.3892 18.2051 11.8707 16.7863C11.9598 16.5243 12.0012 16.4027 12.0012 16.5103C12.0012 16.4027 12.0426 16.5243 12.1317 16.7863C12.6132 18.2051 14.4936 23.7423 18.7936 19.3157C21.0577 16.985 20.0095 14.6543 15.8882 13.9507C18.2459 14.3531 20.8966 13.688 21.6238 11.0803C21.8333 10.3302 22.1899 5.70961 22.1899 5.08555C22.1899 1.95953 19.4587 2.9421 17.7728 4.21155C15.4367 5.97133 12.9236 9.53897 12.0012 11.4535Z" fill="currentColor"/></g></svg>