<svg width="24px" height="24px" viewBox="0 0 24 24" fill="currentColor" xmlns="http://www.w3.org/2000/svg"><g><path fill-rule="evenodd" clip-rule="evenodd" d="M5 7.3125C5 4.96273 6.87119 3 9.25 3H12.9167C15.8017 3 18.0833 5.38246 18.0833 8.25C18.0833 9.49245 17.655 10.6438 16.9349 11.5498C18.1942 12.5131 19 14.0459 19 15.75C19 18.6175 16.7184 21 13.8333 21H9.25C6.87119 21 5 19.0373 5 16.6875V7.3125Z" fill="currentColor"/><path fill-rule="evenodd" clip-rule="evenodd" d="M12.9167 10.5C14.0817 10.5 15.0833 9.5246 15.0833 8.25C15.0833 6.9754 14.0817 6 12.9167 6H9.25C8.59124 6 8 6.55567 8 7.3125V10.5H12.9167Z" fill="currentColor"/><path fill-rule="evenodd" clip-rule="evenodd" d="M8 13.5H13.8333C14.9984 13.5 16 14.4754 16 15.75C16 17.0246 14.9984 18 13.8333 18H9.25C8.59124 18 8 17.4443 8 16.6875V13.5Z" fill="currentColor"/></g></svg>