<svg width="24px" height="24px" viewBox="0 0 24 24" fill="currentColor" xmlns="http://www.w3.org/2000/svg"><g><path fill-rule="evenodd" clip-rule="evenodd" d="M13.1981 20.0571C11.7326 20.0571 10.2936 19.5252 9.46756 18.3817L9.1762 19.7304L3.79688 22.5824L4.3776 19.7304L8.2951 2H13.0916L11.7059 8.24953C12.8251 7.02621 13.8643 6.57412 15.1967 6.57412C18.0746 6.57412 19.9931 8.46227 19.9931 11.9194C19.9931 15.483 17.7815 20.0571 13.1981 20.0571ZM15.0368 12.9301C15.0368 14.5788 13.8643 15.8287 12.3455 15.8287C11.4927 15.8287 10.72 15.5096 10.2137 14.9511L10.9598 11.6802C11.5194 11.1216 12.1589 10.8025 12.905 10.8025C14.0509 10.8025 15.0368 11.6536 15.0368 12.9301Z" fill="currentColor"/></g></svg>