<svg width="24px" height="24px" viewBox="0 0 24 24" fill="currentColor" xmlns="http://www.w3.org/2000/svg"><g><path d="M7.75 2C5.67893 2 4 3.67893 4 5.75V13.6282L1.49227 14.5456C1.10328 14.688 0.903302 15.1187 1.04562 15.5077C1.18793 15.8967 1.61865 16.0966 2.00765 15.9543L22.5076 8.45433C22.8966 8.31202 23.0966 7.8813 22.9543 7.4923C22.812 7.10331 22.3813 6.90333 21.9923 7.04565L20 7.77453V5.75C20 3.67893 18.3211 2 16.25 2H7.75Z" fill="currentColor"/><path d="M4 20.2515V16.8227L20 10.969V20.2515C20 21.6527 18.4353 22.4857 17.2728 21.7032L13.2564 18.9998C12.4968 18.4885 11.5032 18.4885 10.7436 18.9997L6.72719 21.7032C5.56475 22.4857 4 21.6527 4 20.2515Z" fill="currentColor"/></g></svg>