<svg width="24px" height="24px" viewBox="0 0 24 24" fill="currentColor" xmlns="http://www.w3.org/2000/svg"><g><path fill-rule="evenodd" clip-rule="evenodd" d="M14.2324 8.35396C13.966 7.4249 14.5031 6.45579 15.4322 6.18939L16.8741 5.77593C17.8032 5.50953 18.7723 6.04672 19.0387 6.97577L22.2085 18.0303C22.4749 18.9593 21.9377 19.9285 21.0087 20.1949L19.5668 20.6083C18.6377 20.8747 17.6686 20.3375 17.4022 19.4085L14.2324 8.35396Z" fill="currentColor"/><path fill-rule="evenodd" clip-rule="evenodd" d="M8.75 3C7.7835 3 7 3.7835 7 4.75V19.25C7 20.2165 7.7835 21 8.75 21H12.25C13.2165 21 14 20.2165 14 19.25V4.75C14 3.7835 13.2165 3 12.25 3H8.75ZM8.5 7.75C8.5 7.33579 8.83579 7 9.25 7H11.75C12.1642 7 12.5 7.33579 12.5 7.75C12.5 8.16421 12.1642 8.5 11.75 8.5H9.25C8.83579 8.5 8.5 8.16421 8.5 7.75ZM12.5 16.25C12.5 15.8358 12.1642 15.5 11.75 15.5H9.25C8.83579 15.5 8.5 15.8358 8.5 16.25C8.5 16.6642 8.83579 17 9.25 17H11.75C12.1642 17 12.5 16.6642 12.5 16.25Z" fill="currentColor"/><path d="M3.75 5C2.7835 5 2 5.7835 2 6.75V19.25C2 20.2165 2.7835 21 3.75 21H4.25C5.2165 21 6 20.2165 6 19.25V6.75C6 5.7835 5.2165 5 4.25 5H3.75Z" fill="currentColor"/></g></svg>