<svg width="24px" height="24px" viewBox="0 0 24 24" fill="currentColor" xmlns="http://www.w3.org/2000/svg"><g><path fill-rule="evenodd" clip-rule="evenodd" d="M8 5.75C8 3.67893 9.67893 2 11.75 2H18.25C20.3211 2 22 3.67893 22 5.75V12.25C22 14.3211 20.3211 16 18.25 16H16V18.25C16 20.3211 14.3211 22 12.25 22H5.75C3.67893 22 2 20.3211 2 18.25V11.75C2 9.67893 3.67893 8 5.75 8H8V5.75ZM16 14.5V11.75C16 9.67893 14.3211 8 12.25 8H9.5V5.75C9.5 4.50736 10.5074 3.5 11.75 3.5H18.25C19.4926 3.5 20.5 4.50736 20.5 5.75V12.25C20.5 13.4926 19.4926 14.5 18.25 14.5H16ZM8 9.5H5.75C4.50736 9.5 3.5 10.5074 3.5 11.75V18.25C3.5 19.4926 4.50736 20.5 5.75 20.5H12.25C13.4926 20.5 14.5 19.4926 14.5 18.25V16H11.75C9.67893 16 8 14.3211 8 12.25V9.5Z" fill="currentColor"/></g></svg>