<svg width="24px" height="24px" viewBox="0 0 24 24" fill="currentColor" xmlns="http://www.w3.org/2000/svg"><g><path fill-rule="evenodd" clip-rule="evenodd" d="M11.75 2C9.67893 2 8 3.67893 8 5.75V8H5.75C3.67893 8 2 9.67893 2 11.75V18.25C2 20.3211 3.67893 22 5.75 22H12.25C14.3211 22 16 20.3211 16 18.25V16H18.25C20.3211 16 22 14.3211 22 12.25V5.75C22 3.67893 20.3211 2 18.25 2H11.75ZM18.25 14.5C19.4926 14.5 20.5 13.4926 20.5 12.25V5.75C20.5 4.50736 19.4926 3.5 18.25 3.5H11.75C10.5074 3.5 9.5 4.50736 9.5 5.75V12.25C9.5 13.4926 10.5074 14.5 11.75 14.5H18.25Z" fill="currentColor"/></g></svg>