<svg width="24px" height="24px" viewBox="0 0 24 24" fill="currentColor" xmlns="http://www.w3.org/2000/svg"><g><path fill-rule="evenodd" clip-rule="evenodd" d="M12 2C9.79086 2 8 3.79086 8 6V8H6C3.79086 8 2 9.79086 2 12V18C2 20.2091 3.79086 22 6 22H12C14.2091 22 16 20.2091 16 18V16H18C20.2091 16 22 14.2091 22 12V6C22 3.79086 20.2091 2 18 2H12ZM13 15.25C13 15.6642 12.6642 16 12.25 16H11.75C9.67893 16 8 14.3211 8 12.25V11.75C8 11.3358 8.33579 11 8.75 11C9.16421 11 9.5 11.3358 9.5 11.75V12.25C9.5 13.4926 10.5074 14.5 11.75 14.5H12.25C12.6642 14.5 13 14.8358 13 15.25ZM11.75 8C11.3358 8 11 8.33579 11 8.75C11 9.16421 11.3358 9.5 11.75 9.5H12.25C13.4926 9.5 14.5 10.5074 14.5 11.75V12.25C14.5 12.6642 14.8358 13 15.25 13C15.6642 13 16 12.6642 16 12.25V11.75C16 9.67893 14.3211 8 12.25 8H11.75Z" fill="currentColor"/></g></svg>