<svg width="24px" height="24px" viewBox="0 0 24 24" fill="currentColor" xmlns="http://www.w3.org/2000/svg"><g><path d="M9.375 1C8.96079 1 8.625 1.33579 8.625 1.75C8.625 2.12162 8.89529 2.43012 9.25 2.48963V5.93651C9.25 6.56448 8.98757 7.16387 8.52613 7.58981L7.20645 8.80798C6.43739 9.51788 6 10.5169 6 11.5635V19.25C6 21.3211 7.67893 23 9.75 23H14.25C16.3211 23 18 21.3211 18 19.25V11.5635C18 10.5169 17.5626 9.51788 16.7936 8.80798L15.4739 7.58981C15.0124 7.16387 14.75 6.56448 14.75 5.93651V2.48963C15.1047 2.43012 15.375 2.12162 15.375 1.75C15.375 1.33579 15.0392 1 14.625 1H9.375Z" fill="currentColor"/></g></svg>