<svg width="24px" height="24px" viewBox="0 0 24 24" fill="currentColor" xmlns="http://www.w3.org/2000/svg"><g><path fill-rule="evenodd" clip-rule="evenodd" d="M4 6.75C4 4.67893 5.67893 3 7.75 3H8.25C8.66421 3 9 3.33579 9 3.75C9 4.16421 8.66421 4.5 8.25 4.5H7.75C6.50736 4.5 5.5 5.50736 5.5 6.75V10C5.5 10.788 5.16855 11.4986 4.63747 12C5.16855 12.5014 5.5 13.212 5.5 14V17.25C5.5 18.4926 6.50736 19.5 7.75 19.5H8.25C8.66421 19.5 9 19.8358 9 20.25C9 20.6642 8.66421 21 8.25 21H7.75C5.67893 21 4 19.3211 4 17.25V14C4 13.3096 3.44036 12.75 2.75 12.75C2.33579 12.75 2 12.4142 2 12C2 11.5858 2.33579 11.25 2.75 11.25C3.44036 11.25 4 10.6904 4 10V6.75ZM15 3.75C15 3.33579 15.3358 3 15.75 3H16.25C18.3211 3 20 4.67893 20 6.75V10C20 10.6904 20.5596 11.25 21.25 11.25C21.6642 11.25 22 11.5858 22 12C22 12.4142 21.6642 12.75 21.25 12.75C20.5596 12.75 20 13.3096 20 14V17.25C20 19.3211 18.3211 21 16.25 21H15.75C15.3358 21 15 20.6642 15 20.25C15 19.8358 15.3358 19.5 15.75 19.5H16.25C17.4926 19.5 18.5 18.4926 18.5 17.25V14C18.5 13.212 18.8314 12.5014 19.3625 12C18.8314 11.4986 18.5 10.788 18.5 10V6.75C18.5 5.50736 17.4926 4.5 16.25 4.5H15.75C15.3358 4.5 15 4.16421 15 3.75Z" fill="currentColor"/></g></svg>