<svg width="24px" height="24px" viewBox="0 0 24 24" fill="currentColor" xmlns="http://www.w3.org/2000/svg"><g><path fill-rule="evenodd" clip-rule="evenodd" d="M3 6.75C3 4.67893 4.67893 3 6.75 3H7.25C7.66421 3 8 3.33579 8 3.75C8 4.16421 7.66421 4.5 7.25 4.5H6.75C5.50736 4.5 4.5 5.50736 4.5 6.75V17.25C4.5 18.4926 5.50736 19.5 6.75 19.5H7.25C7.66421 19.5 8 19.8358 8 20.25C8 20.6642 7.66421 21 7.25 21H6.75C4.67893 21 3 19.3211 3 17.25V6.75ZM16 3.75C16 3.33579 16.3358 3 16.75 3H17.25C19.3211 3 21 4.67893 21 6.75V17.25C21 19.3211 19.3211 21 17.25 21H16.75C16.3358 21 16 20.6642 16 20.25C16 19.8358 16.3358 19.5 16.75 19.5H17.25C18.4926 19.5 19.5 18.4926 19.5 17.25V6.75C19.5 5.50736 18.4926 4.5 17.25 4.5H16.75C16.3358 4.5 16 4.16421 16 3.75Z" fill="currentColor"/></g></svg>