<svg width="24px" height="24px" viewBox="0 0 24 24" fill="currentColor" xmlns="http://www.w3.org/2000/svg"><g><path d="M12.5897 3C13.9101 3.01699 14.9248 3.46661 15.7538 4.34473C15.7655 4.34974 15.7987 4.36169 15.8671 4.37305C15.9309 4.38361 16.0047 4.39057 16.1005 4.39746C16.1843 4.40349 16.3085 4.41153 16.4178 4.42383H16.4198C17.8701 4.59045 18.8267 5.4712 19.4227 6.63965L19.538 6.87793L19.6024 7.00098C19.7663 7.27777 20.0293 7.48595 20.4481 7.83008C20.8917 8.19457 21.4686 8.69142 21.7499 9.54688L21.8339 9.8252C22.0142 10.4846 22.076 11.2092 21.8749 11.9336L21.8739 11.9365C21.834 12.0788 21.8283 12.226 21.8466 12.415C21.856 12.5127 21.8708 12.614 21.8895 12.7344C21.9073 12.8488 21.9299 12.9865 21.9462 13.126L21.9686 13.3672C22.054 14.5657 21.7144 15.6618 20.8778 16.5635L20.8759 16.5654C20.5365 16.929 20.0832 17.2589 19.8153 17.4844C19.2091 17.9962 18.4917 18.3949 17.6366 18.5088C16.9943 18.5942 16.3302 18.5423 15.6815 18.2598C15.1005 18.5914 14.4792 18.9576 13.8182 19.1436C13.042 19.362 12.2273 19.3374 11.2694 18.9375C11.1747 18.8988 10.9213 18.8925 10.4325 19.4141C9.99757 19.8782 9.60839 20.5299 9.35339 21.0137C9.04962 21.5897 8.44754 21.9998 7.7489 22H6.99402C5.88839 21.9999 5.13659 21.0091 5.36218 19.9609C5.42312 19.6778 5.46375 19.4246 5.47058 19.2295C5.47315 19.1561 5.46865 19.1053 5.46472 19.0732C5.14135 18.6961 4.86022 18.3627 4.55457 18.084L4.41394 17.9609C3.16987 16.9222 2.59769 15.5626 2.70789 13.9043C2.7066 13.9232 2.71208 13.9076 2.68933 13.8301C2.67876 13.7941 2.66488 13.7532 2.64636 13.7012C2.63049 13.6565 2.60517 13.5867 2.58484 13.5273C2.51326 13.3185 2.43006 13.1429 2.31922 12.8711C2.21938 12.6263 2.10854 12.3262 2.0575 11.9951C1.82038 10.4559 2.32781 9.13881 3.3739 8.09961L3.37586 8.09668C3.49913 7.97527 3.5915 7.83437 3.62976 7.72461L3.78113 7.32129C4.15526 6.40166 4.68018 5.63409 5.36511 5.04492C6.14996 4.36986 7.10777 3.96133 8.20203 3.80273C8.60479 3.74425 8.99532 3.77447 9.32507 3.81152C9.68455 3.85193 9.93709 3.89345 10.2186 3.9082C10.9275 3.37047 11.7519 3.01498 12.5663 3H12.5897Z" fill="currentColor"/></g></svg>