<svg width="24px" height="24px" viewBox="0 0 24 24" fill="currentColor" xmlns="http://www.w3.org/2000/svg"><g><path d="M6.5 3C4.84315 3 3.5 4.34315 3.5 6C3.5 7.39788 4.45608 8.57245 5.75 8.90549V15.0945C4.45608 15.4275 3.5 16.6021 3.5 18C3.5 19.6569 4.84315 21 6.5 21C8.15685 21 9.5 19.6569 9.5 18C9.5 16.6021 8.54392 15.4275 7.25 15.0945V15C7.25 13.7574 8.25736 12.75 9.5 12.75H14.5C16.5711 12.75 18.25 11.0711 18.25 9V8.90549C19.5439 8.57245 20.5 7.39788 20.5 6C20.5 4.34315 19.1569 3 17.5 3C15.8431 3 14.5 4.34315 14.5 6C14.5 7.39788 15.4561 8.57245 16.75 8.90549V9C16.75 10.2426 15.7426 11.25 14.5 11.25H9.5C8.6558 11.25 7.87675 11.529 7.25 11.9997V8.90549C8.54392 8.57245 9.5 7.39788 9.5 6C9.5 4.34315 8.15685 3 6.5 3Z" fill="currentColor"/></g></svg>