<svg width="24px" height="24px" viewBox="0 0 24 24" fill="currentColor" xmlns="http://www.w3.org/2000/svg"><g><path d="M12.75 1.75C12.75 1.33579 12.4142 1 12 1C11.5858 1 11.25 1.33579 11.25 1.75V2.775C11.25 3.18921 11.5858 3.525 12 3.525C12.4142 3.525 12.75 3.18921 12.75 2.775V1.75Z" fill="currentColor"/><path d="M5.28251 4.22183C4.98962 3.92893 4.51474 3.92893 4.22185 4.22183C3.92896 4.51472 3.92896 4.98959 4.22185 5.28249L4.94663 6.00727C5.23953 6.30016 5.7144 6.30016 6.00729 6.00727C6.30019 5.71438 6.30019 5.2395 6.00729 4.94661L5.28251 4.22183Z" fill="currentColor"/><path d="M19.7782 5.28251C20.0711 4.98962 20.0711 4.51474 19.7782 4.22185C19.4853 3.92896 19.0105 3.92896 18.7176 4.22185L17.9928 4.94663C17.6999 5.23953 17.6999 5.7144 17.9928 6.00729C18.2857 6.30019 18.7605 6.30019 19.0534 6.00729L19.7782 5.28251Z" fill="currentColor"/><path d="M12 6C8.68629 6 6 8.68629 6 12C6 15.3137 8.68629 18 12 18C15.3137 18 18 15.3137 18 12C18 8.68629 15.3137 6 12 6Z" fill="currentColor"/><path d="M1.75 11.25C1.33579 11.25 1 11.5858 1 12C1 12.4142 1.33579 12.75 1.75 12.75H2.775C3.18921 12.75 3.525 12.4142 3.525 12C3.525 11.5858 3.18921 11.25 2.775 11.25H1.75Z" fill="currentColor"/><path d="M21.225 11.25C20.8108 11.25 20.475 11.5858 20.475 12C20.475 12.4142 20.8108 12.75 21.225 12.75H22.25C22.6642 12.75 23 12.4142 23 12C23 11.5858 22.6642 11.25 22.25 11.25H21.225Z" fill="currentColor"/><path d="M19.0534 17.9927C18.7605 17.6998 18.2856 17.6998 17.9928 17.9927C17.6999 18.2856 17.6999 18.7605 17.9928 19.0534L18.7175 19.7782C19.0104 20.0711 19.4853 20.0711 19.7782 19.7782C20.0711 19.4853 20.0711 19.0104 19.7782 18.7175L19.0534 17.9927Z" fill="currentColor"/><path d="M6.00732 19.0534C6.30021 18.7605 6.30021 18.2856 6.00732 17.9928C5.71442 17.6999 5.23955 17.6999 4.94666 17.9928L4.22187 18.7175C3.92898 19.0104 3.92898 19.4853 4.22187 19.7782C4.51477 20.0711 4.98964 20.0711 5.28253 19.7782L6.00732 19.0534Z" fill="currentColor"/><path d="M12.75 21.225C12.75 20.8108 12.4142 20.475 12 20.475C11.5858 20.475 11.25 20.8108 11.25 21.225V22.25C11.25 22.6642 11.5858 23 12 23C12.4142 23 12.75 22.6642 12.75 22.25V21.225Z" fill="currentColor"/></g></svg>