<svg width="24px" height="24px" viewBox="0 0 24 24" fill="currentColor" xmlns="http://www.w3.org/2000/svg"><g><path fill-rule="evenodd" clip-rule="evenodd" d="M8.97146 1.05384C9.35604 0.900007 9.79252 1.08707 9.94636 1.47166L10.9464 3.97166C11.1002 4.35624 10.9131 4.79272 10.5285 4.94656C10.144 5.10039 9.70748 4.91333 9.55364 4.52874L8.55364 2.02874C8.39981 1.64415 8.58687 1.20768 8.97146 1.05384ZM15.0285 1.05384C15.4131 1.20768 15.6002 1.64415 15.4464 2.02874L14.4464 4.52874C14.2925 4.91333 13.856 5.10039 13.4715 4.94656C13.0869 4.79272 12.8998 4.35624 13.0536 3.97166L14.0536 1.47166C14.2075 1.08707 14.644 0.900007 15.0285 1.05384ZM4.75 7.5002C3.50736 7.5002 2.5 8.50756 2.5 9.7502V14.2502C2.5 15.4928 3.50736 16.5002 4.75 16.5002H8.25C8.66421 16.5002 9 16.836 9 17.2502C9 17.6644 8.66421 18.0002 8.25 18.0002H4.75C2.67893 18.0002 1 16.3213 1 14.2502V9.7502C1 7.67913 2.67893 6.0002 4.75 6.0002H8.25C8.66421 6.0002 9 6.33599 9 6.7502C9 7.16441 8.66421 7.5002 8.25 7.5002H4.75ZM15 6.7502C15 6.33599 15.3358 6.0002 15.75 6.0002H19.25C21.3211 6.0002 23 7.67913 23 9.7502V14.2502C23 16.3213 21.3211 18.0002 19.25 18.0002H15.75C15.3358 18.0002 15 17.6644 15 17.2502C15 16.836 15.3358 16.5002 15.75 16.5002H19.25C20.4926 16.5002 21.5 15.4928 21.5 14.2502V9.7502C21.5 8.50756 20.4926 7.5002 19.25 7.5002H15.75C15.3358 7.5002 15 7.16441 15 6.7502ZM10.5285 19.0538C10.9131 19.2077 11.1002 19.6442 10.9464 20.0287L9.94636 22.5287C9.79252 22.9133 9.35604 23.1004 8.97146 22.9466C8.58687 22.7927 8.39981 22.3562 8.55364 21.9717L9.55364 19.4717C9.70748 19.0871 10.144 18.9 10.5285 19.0538ZM13.4715 19.0538C13.856 18.9 14.2925 19.0871 14.4464 19.4717L15.4464 21.9717C15.6002 22.3562 15.4131 22.7927 15.0285 22.9466C14.644 23.1004 14.2075 22.9133 14.0536 22.5287L13.0536 20.0287C12.8998 19.6442 13.0869 19.2077 13.4715 19.0538Z" fill="currentColor"/></g></svg>