<svg width="24px" height="24px" viewBox="0 0 24 24" fill="currentColor" xmlns="http://www.w3.org/2000/svg"><g><path d="M10.9157 3.79162C9.55669 3.02382 8.09741 2.83493 6.74682 3.13681C4.85695 3.55922 3.24924 4.92822 2.48209 6.8458C0.913293 10.7672 2.91243 16.5047 11.6322 21.404C11.8603 21.5322 12.1388 21.5322 12.367 21.404C21.0867 16.5047 23.0858 10.7671 21.517 6.84578C20.7498 4.92821 19.1421 3.55922 17.2522 3.1368C15.9446 2.84454 14.5352 3.01229 13.2135 3.72004C12.6434 4.07148 12.2208 4.48678 11.886 5.0225C11.3829 5.82749 11.036 6.96973 10.7918 8.73115L13.5303 11.4696C13.7312 11.6705 13.8013 11.9676 13.7115 12.2371L12.7115 15.2371C12.5805 15.6301 12.1558 15.8425 11.7628 15.7115C11.3699 15.5805 11.1575 15.1558 11.2885 14.7628L12.1419 12.2025L9.46967 9.53029C9.30602 9.36664 9.22708 9.13659 9.25579 8.90694C9.50967 6.87592 9.90078 5.36865 10.614 4.2275C10.7096 4.07455 10.8101 3.92947 10.9157 3.79162Z" fill="currentColor"/></g></svg>