<svg width="24px" height="24px" viewBox="0 0 24 24" fill="currentColor" xmlns="http://www.w3.org/2000/svg"><g><path d="M20.9002 3.12245C21.1058 2.76288 20.9811 2.3047 20.6215 2.09907C20.2619 1.89344 19.8037 2.01824 19.5981 2.37781L14.4873 11.3149L13.6579 11.015C11.624 10.2795 9.58131 11.4042 8.53498 13.0396C7.59849 14.5033 6.35491 15.507 4.83501 16.5137C4.60424 16.6666 4.47642 16.9341 4.5025 17.2097C4.52859 17.4853 4.70434 17.7241 4.95969 17.8309L7.20691 18.7711C7.26677 18.7961 7.33507 18.7906 7.3901 18.7562L10.3428 16.9108C10.518 16.8013 10.7239 16.9969 10.6236 17.1775L9.36941 19.4351C9.31151 19.5393 9.35707 19.6707 9.46705 19.7167L14.7859 21.942C15.0685 22.0602 15.3946 21.9947 15.6096 21.7766C17.532 19.826 18.552 18.1023 18.8891 15.7164C19.1292 14.0173 17.9752 12.5762 16.5027 12.0437L15.9191 11.8327L20.9002 3.12245Z" fill="currentColor"/><path d="M9.55849 3.72046C9.62816 3.68563 9.68465 3.62913 9.71949 3.55947L10.1772 2.64412C10.3098 2.37878 10.6885 2.37878 10.8211 2.64412L11.2788 3.55946C11.3137 3.62913 11.3701 3.68563 11.4398 3.72046L12.3552 4.17814C12.6205 4.3108 12.6205 4.68945 12.3552 4.82212L11.4398 5.2798C11.3701 5.31463 11.3137 5.37112 11.2788 5.44079L10.8211 6.35614C10.6885 6.62148 10.3098 6.62148 10.1772 6.35614L9.71949 5.44079C9.68465 5.37112 9.62816 5.31463 9.55849 5.2798L8.64314 4.82212C8.3778 4.68946 8.3778 4.3108 8.64314 4.17814L9.55849 3.72046Z" fill="currentColor"/><path d="M4.18342 7.408C4.28018 7.35962 4.35864 7.28116 4.40702 7.18439L5.05194 5.89456C5.2362 5.52603 5.7621 5.52603 5.94637 5.89456L6.59128 7.18439C6.63967 7.28116 6.71813 7.35962 6.81489 7.408L8.10473 8.05292C8.47325 8.23718 8.47325 8.76308 8.10473 8.94734L6.81489 9.59226C6.71813 9.64064 6.63967 9.7191 6.59128 9.81587L5.94637 11.1057C5.7621 11.4742 5.2362 11.4742 5.05194 11.1057L4.40702 9.81587C4.35864 9.7191 4.28018 9.64064 4.18342 9.59226L2.89358 8.94734C2.52506 8.76308 2.52506 8.23718 2.89358 8.05292L4.18342 7.408Z" fill="currentColor"/></g></svg>