<svg width="24px" height="24px" viewBox="0 0 24 24" fill="currentColor" xmlns="http://www.w3.org/2000/svg"><g><path fill-rule="evenodd" clip-rule="evenodd" d="M21.002 6.75C21.002 4.67893 19.323 3 17.252 3H6.75195C4.68089 3 3.00195 4.67893 3.00195 6.75V21.75C3.00195 22.0226 3.14991 22.2738 3.38838 22.406C3.62684 22.5382 3.91825 22.5305 4.14945 22.386L7.90625 20.038C7.94598 20.0132 7.99189 20 8.03875 20H17.252C19.323 20 21.002 18.3211 21.002 16.25V6.75ZM6.49976 11.5C6.49976 12.0523 6.94747 12.5 7.49976 12.5C8.05204 12.5 8.49976 12.0523 8.49976 11.5C8.49976 10.9477 8.05204 10.5 7.49976 10.5C6.94747 10.5 6.49976 10.9477 6.49976 11.5ZM10.9998 11.5C10.9998 12.0523 11.4475 12.5 11.9998 12.5C12.552 12.5 12.9998 12.0523 12.9998 11.5C12.9998 10.9477 12.552 10.5 11.9998 10.5C11.4475 10.5 10.9998 10.9477 10.9998 11.5ZM16.4998 12.5C15.9475 12.5 15.4998 12.0523 15.4998 11.5C15.4998 10.9477 15.9475 10.5 16.4998 10.5C17.052 10.5 17.4998 10.9477 17.4998 11.5C17.4998 12.0523 17.052 12.5 16.4998 12.5Z" fill="currentColor"/></g></svg>