<svg width="24px" height="24px" viewBox="0 0 24 24" fill="currentColor" xmlns="http://www.w3.org/2000/svg"><g><path fill-rule="evenodd" clip-rule="evenodd" d="M2 6.75C2 4.67893 3.67893 3 5.75 3H18.25C20.3211 3 22 4.67893 22 6.75V15.25C22 17.3211 20.3211 19 18.25 19H15.3759C15.3177 19 15.2613 19.0203 15.2164 19.0575L13.1181 20.7959C12.4676 21.3348 11.5249 21.3321 10.8775 20.7894L8.81242 19.0584C8.76741 19.0207 8.71055 19 8.65182 19H5.75C3.67893 19 2 17.3211 2 15.25V6.75ZM7.5 10.0331C7.5 8.91026 8.40577 8 9.52309 8C10.6363 8 11.5395 8.90356 11.5461 10.0207C11.6045 11.17 11.3621 12.006 10.8876 12.6801C10.426 13.3359 9.76827 13.8004 9.0981 14.2494C8.89179 14.3876 8.6116 14.3305 8.47432 14.1236C8.33704 13.9166 8.39303 13.6358 8.59934 13.4975C9.2779 13.0429 9.80027 12.6602 10.1535 12.1583C10.2095 12.0788 10.2619 11.9952 10.3101 11.9067C10.0682 12.0094 9.80224 12.0662 9.52309 12.0662C8.40577 12.0662 7.5 11.156 7.5 10.0331ZM12.4453 10.0331C12.4453 8.91026 13.3511 8 14.4684 8C15.5816 8 16.4848 8.90356 16.4915 10.0207C16.5498 11.17 16.3074 12.006 15.8329 12.6801C15.3713 13.3359 14.7136 13.8004 14.0434 14.2494C13.8371 14.3876 13.5569 14.3305 13.4196 14.1236C13.2824 13.9166 13.3383 13.6358 13.5447 13.4975C14.2232 13.0429 14.7456 12.6602 15.0989 12.1583C15.1548 12.0788 15.2072 11.9952 15.2554 11.9067C15.0135 12.0094 14.7476 12.0662 14.4684 12.0662C13.3511 12.0662 12.4453 11.156 12.4453 10.0331Z" fill="currentColor"/></g></svg>