<svg width="24px" height="24px" viewBox="0 0 24 24" fill="currentColor" xmlns="http://www.w3.org/2000/svg"><g><path fill-rule="evenodd" clip-rule="evenodd" d="M3 6.75C3 4.67893 4.67893 3 6.75 3H17.25C19.3211 3 21 4.67893 21 6.75V15.25C21 17.3211 19.3211 19 17.25 19H15.3759C15.3177 19 15.2613 19.0203 15.2164 19.0575L13.1181 20.7959C12.4676 21.3348 11.5249 21.3321 10.8775 20.7894L8.81242 19.0584C8.76741 19.0207 8.71055 19 8.65182 19H6.75C4.67893 19 3 17.3211 3 15.25V6.75ZM12.75 7.75C12.75 7.33578 12.4142 7 12 7C11.5858 7 11.25 7.33578 11.25 7.75L11.25 10.25H8.75C8.33579 10.25 8 10.5858 8 11C8 11.4142 8.33579 11.75 8.75 11.75H11.25V14.25C11.25 14.6642 11.5858 15 12 15C12.4142 15 12.75 14.6642 12.75 14.25V11.75H15.25C15.6642 11.75 16 11.4142 16 11C16 10.5858 15.6642 10.25 15.25 10.25H12.75L12.75 7.75Z" fill="currentColor"/></g></svg>