<svg width="24px" height="24px" viewBox="0 0 24 24" fill="currentColor" xmlns="http://www.w3.org/2000/svg"><g><path fill-rule="evenodd" clip-rule="evenodd" d="M3 6.75C3 4.67893 4.67893 3 6.75 3H17.25C19.3211 3 21 4.67893 21 6.75V15.25C21 17.3211 19.3211 19 17.25 19H15.3759C15.3177 19 15.2613 19.0203 15.2164 19.0575L13.1181 20.7959C12.4676 21.3348 11.5249 21.3321 10.8775 20.7894L8.81242 19.0584C8.76741 19.0207 8.71055 19 8.65182 19H6.75C4.67893 19 3 17.3211 3 15.25V6.75ZM14.6517 9.38346C14.9445 9.09057 14.9445 8.61569 14.6517 8.3228C14.3588 8.02991 13.8839 8.02991 13.591 8.3228L12 9.91379L10.409 8.3228C10.1161 8.02991 9.64124 8.02991 9.34835 8.3228C9.05546 8.61569 9.05546 9.09057 9.34835 9.38346L10.9393 10.9745L9.34835 12.5654C9.05546 12.8583 9.05546 13.3332 9.34835 13.6261C9.64124 13.919 10.1161 13.919 10.409 13.6261L12 12.0351L13.591 13.6261C13.8839 13.919 14.3588 13.919 14.6517 13.6261C14.9445 13.3332 14.9445 12.8583 14.6517 12.5654L13.0607 10.9745L14.6517 9.38346Z" fill="currentColor"/></g></svg>