<svg width="24px" height="24px" viewBox="0 0 24 24" fill="currentColor" xmlns="http://www.w3.org/2000/svg"><g><path fill-rule="evenodd" clip-rule="evenodd" d="M2 12C2 6.47715 6.47715 2 12 2C17.5228 2 22 6.47715 22 12C22 17.5228 17.5228 22 12 22C10.6296 22 9.32175 21.7239 8.13052 21.2236C7.91818 21.1344 7.70954 21.1217 7.53616 21.172L4.88237 21.9433C3.16229 22.4432 1.57614 20.8305 2.10456 19.119L2.88015 16.6069C2.93578 16.4267 2.92281 16.208 2.82668 15.9871C2.29465 14.7646 2 13.4157 2 12ZM6.5 12C6.5 12.5523 6.94772 13 7.5 13C8.05228 13 8.5 12.5523 8.5 12C8.5 11.4477 8.05228 11 7.5 11C6.94772 11 6.5 11.4477 6.5 12ZM11 12C11 12.5523 11.4477 13 12 13C12.5523 13 13 12.5523 13 12C13 11.4477 12.5523 11 12 11C11.4477 11 11 11.4477 11 12ZM16.5 13C15.9477 13 15.5 12.5523 15.5 12C15.5 11.4477 15.9477 11 16.5 11C17.0523 11 17.5 11.4477 17.5 12C17.5 12.5523 17.0523 13 16.5 13Z" fill="currentColor"/></g></svg>