<svg width="24px" height="24px" viewBox="0 0 24 24" fill="currentColor" xmlns="http://www.w3.org/2000/svg"><g><path fill-rule="evenodd" clip-rule="evenodd" d="M2 8.75C2 5.57436 4.57436 3 7.75 3H16.25C19.4256 3 22 5.57436 22 8.75V15.25C22 18.4256 19.4256 21 16.25 21H2.75C2.33579 21 2 20.6642 2 20.25V8.75ZM6.5 12C6.5 12.5523 6.94772 13 7.5 13C8.05228 13 8.5 12.5523 8.5 12C8.5 11.4477 8.05228 11 7.5 11C6.94772 11 6.5 11.4477 6.5 12ZM11 12C11 12.5523 11.4477 13 12 13C12.5523 13 13 12.5523 13 12C13 11.4477 12.5523 11 12 11C11.4477 11 11 11.4477 11 12ZM16.5 13C15.9477 13 15.5 12.5523 15.5 12C15.5 11.4477 15.9477 11 16.5 11C17.0523 11 17.5 11.4477 17.5 12C17.5 12.5523 17.0523 13 16.5 13Z" fill="currentColor"/></g></svg>