<svg width="24px" height="24px" viewBox="0 0 24 24" fill="currentColor" xmlns="http://www.w3.org/2000/svg"><g><path fill-rule="evenodd" clip-rule="evenodd" d="M3 6.75C3 4.67893 4.67893 3 6.75 3H17.25C19.3211 3 21 4.67893 21 6.75V15.25C21 17.3211 19.3211 19 17.25 19H15.3759C15.3177 19 15.2613 19.0203 15.2164 19.0575L13.1181 20.7959C12.4676 21.3348 11.5249 21.3321 10.8775 20.7894L8.81242 19.0584C8.76741 19.0207 8.71055 19 8.65182 19H6.75C4.67893 19 3 17.3211 3 15.25V6.75ZM15.3803 9.68036C15.6732 9.38747 15.6732 8.91259 15.3803 8.6197C15.0874 8.32681 14.6125 8.32681 14.3197 8.6197L11 11.9394L9.88031 10.8197C9.58742 10.5268 9.11255 10.5268 8.81965 10.8197C8.52676 11.1126 8.52676 11.5875 8.81965 11.8804L10.4697 13.5304C10.6103 13.671 10.8011 13.75 11 13.75C11.1989 13.75 11.3897 13.671 11.5303 13.5304L15.3803 9.68036Z" fill="currentColor"/></g></svg>