<svg width="24px" height="24px" viewBox="0 0 24 24" fill="currentColor" xmlns="http://www.w3.org/2000/svg"><g><path fill-rule="evenodd" clip-rule="evenodd" d="M2 6.75C2 4.67893 3.67893 3 5.75 3H18.25C20.3211 3 22 4.67893 22 6.75V15.25C22 17.3211 20.3211 19 18.25 19H15.3759C15.3177 19 15.2613 19.0203 15.2164 19.0575L13.1181 20.7959C12.4676 21.3348 11.5249 21.3321 10.8775 20.7894L8.81242 19.0584C8.76741 19.0207 8.71055 19 8.65182 19H5.75C3.67893 19 2 17.3211 2 15.25V6.75ZM6.5 11C6.5 11.5523 6.94772 12 7.5 12C8.05228 12 8.5 11.5523 8.5 11C8.5 10.4477 8.05228 10 7.5 10C6.94772 10 6.5 10.4477 6.5 11ZM11 11C11 11.5523 11.4477 12 12 12C12.5523 12 13 11.5523 13 11C13 10.4477 12.5523 10 12 10C11.4477 10 11 10.4477 11 11ZM16.5 12C15.9477 12 15.5 11.5523 15.5 11C15.5 10.4477 15.9477 10 16.5 10C17.0523 10 17.5 10.4477 17.5 11C17.5 11.5523 17.0523 12 16.5 12Z" fill="currentColor"/></g></svg>