<svg width="24px" height="24px" viewBox="0 0 24 24" fill="currentColor" xmlns="http://www.w3.org/2000/svg"><g><path fill-rule="evenodd" clip-rule="evenodd" d="M19.591 5.36647C17.7271 3.80507 15.1014 3 12 3C8.89859 3 6.27295 3.80507 4.40901 5.36647C2.52909 6.94126 1.5 9.22327 1.5 12C1.5 12.7949 1.76422 13.7934 2.01376 14.5754C2.27092 15.3813 2.54585 16.0568 2.62186 16.2398L2.63378 16.2682L2.64194 16.2874C2.64623 16.2977 2.64763 16.3014 2.64763 16.3014C2.6656 16.3505 3.09393 17.5191 1.65131 19.431C1.51559 19.6109 1.46793 19.8423 1.52151 20.0611C1.57509 20.28 1.72422 20.4632 1.92768 20.56C3.26057 21.1944 4.60162 20.9739 5.54319 20.6457C6.02 20.4795 6.41781 20.2781 6.69679 20.1185C6.72083 20.1047 6.74403 20.0912 6.76639 20.0781C8.42958 20.8376 10.3067 21 12 21C15.1014 21 17.7271 20.1949 19.591 18.6335C21.4709 17.0587 22.5 14.7767 22.5 12C22.5 9.22327 21.4709 6.94126 19.591 5.36647Z" fill="currentColor"/></g></svg>