<svg width="24px" height="24px" viewBox="0 0 24 24" fill="currentColor" xmlns="http://www.w3.org/2000/svg"><g><path d="M20.2405 4.18518L19.5436 2.37334C19.4571 2.14842 19.241 2 19 2C18.759 2 18.5429 2.14842 18.4564 2.37334L17.7595 4.18518C17.658 4.44927 17.4493 4.65797 17.1852 4.75955L15.3733 5.45641C15.1484 5.54292 15 5.75901 15 6C15 6.24099 15.1484 6.45708 15.3733 6.54359L17.1852 7.24045C17.4493 7.34203 17.658 7.55073 17.7595 7.81482L18.4564 9.62666C18.5429 9.85158 18.759 10 19 10C19.241 10 19.4571 9.85158 19.5436 9.62666L20.2405 7.81482C20.342 7.55073 20.5507 7.34203 20.8148 7.24045L22.6267 6.54359C22.8516 6.45708 23 6.24099 23 6C23 5.75901 22.8516 5.54292 22.6267 5.45641L20.8148 4.75955C20.5507 4.65797 20.342 4.44927 20.2405 4.18518Z" fill="currentColor"/><path d="M16.6074 3L16.4385 3.43848L14.835 4.05664C14.0308 4.36595 13.5 5.13836 13.5 6C13.5 6.86164 14.0308 7.63405 14.835 7.94336L16.4385 8.56055L17.0566 10.165C17.366 10.9692 18.1384 11.5 19 11.5C19.8616 11.5 20.634 10.9692 20.9434 10.165L21.5605 8.56055L22 8.39062V15.25C22 17.3211 20.3211 19 18.25 19H15.376C15.3178 19 15.2616 19.0205 15.2168 19.0576L13.1182 20.7959C12.4677 21.3348 11.5254 21.3317 10.8779 20.7891L8.8125 19.0586C8.76749 19.0209 8.7101 19 8.65137 19H5.75C3.67893 19 2 17.3211 2 15.25V6.75C2 4.67893 3.67893 3 5.75 3H16.6074Z" fill="currentColor"/><path d="M15.3733 5.45641C15.3453 5.46721 15.3185 5.48049 15.293 5.49512L15.292 5.49414C15.3176 5.47943 15.3452 5.46725 15.3733 5.45641L15.8643 5.2666L17.1852 4.75955L15.3733 5.45641Z" fill="currentColor"/></g></svg>