<svg width="24px" height="24px" viewBox="0 0 24 24" fill="currentColor" xmlns="http://www.w3.org/2000/svg"><g><path fill-rule="evenodd" clip-rule="evenodd" d="M3 6.75C3 4.67893 4.67893 3 6.75 3H17.25C19.3211 3 21 4.67893 21 6.75V15.25C21 17.3211 19.3211 19 17.25 19H15.3759C15.3177 19 15.2613 19.0203 15.2164 19.0575L13.1181 20.7959C12.4676 21.3348 11.5249 21.3321 10.8775 20.7894L8.81242 19.0584C8.76741 19.0207 8.71055 19 8.65182 19H6.75C4.67893 19 3 17.3211 3 15.25V6.75ZM7 11.25C7 11.8023 7.44772 12.25 8 12.25C8.55228 12.25 9 11.8023 9 11.25C9 10.6977 8.55228 10.25 8 10.25C7.44772 10.25 7 10.6977 7 11.25ZM11 11.25C11 11.8023 11.4477 12.25 12 12.25C12.5523 12.25 13 11.8023 13 11.25C13 10.6977 12.5523 10.25 12 10.25C11.4477 10.25 11 10.6977 11 11.25ZM16 12.25C15.4477 12.25 15 11.8023 15 11.25C15 10.6977 15.4477 10.25 16 10.25C16.5523 10.25 17 10.6977 17 11.25C17 11.8023 16.5523 12.25 16 12.25Z" fill="currentColor"/></g></svg>