<svg width="24px" height="24px" viewBox="0 0 24 24" fill="currentColor" xmlns="http://www.w3.org/2000/svg"><g><path fill-rule="evenodd" clip-rule="evenodd" d="M19 1.9375C16.7563 1.9375 14.9375 3.75634 14.9375 6C14.9375 8.24366 16.7563 10.0625 19 10.0625C21.2437 10.0625 23.0625 8.24366 23.0625 6C23.0625 3.75634 21.2437 1.9375 19 1.9375ZM16.5625 6C16.5625 4.65381 17.6538 3.5625 19 3.5625C20.3462 3.5625 21.4375 4.65381 21.4375 6C21.4375 7.34619 20.3462 8.4375 19 8.4375C17.6538 8.4375 16.5625 7.34619 16.5625 6Z" fill="currentColor"/><path d="M13.4375 6C13.4375 4.89517 13.7596 3.86558 14.315 3H5.75C3.67893 3 2 4.67893 2 6.75V15.25C2 17.3211 3.67893 19 5.75 19H8.65182C8.71055 19 8.76741 19.0207 8.81242 19.0584L10.8775 20.7894C11.5249 21.3321 12.4676 21.3348 13.1181 20.7959L15.2164 19.0575C15.2613 19.0203 15.3177 19 15.3759 19H18.25C20.3211 19 22 17.3211 22 15.25V10.685C21.1344 11.2404 20.1048 11.5625 19 11.5625C15.9279 11.5625 13.4375 9.07208 13.4375 6Z" fill="currentColor"/></g></svg>