<svg width="24px" height="24px" viewBox="0 0 24 24" fill="currentColor" xmlns="http://www.w3.org/2000/svg"><g><path fill-rule="evenodd" clip-rule="evenodd" d="M6.75 3C4.67893 3 3 4.67893 3 6.75V15.25C3 17.3211 4.67893 19 6.75 19H8.65182C8.71055 19 8.76741 19.0207 8.81242 19.0584L10.8775 20.7894C11.5249 21.3321 12.4676 21.3348 13.1181 20.7959L15.2164 19.0575C15.2613 19.0203 15.3177 19 15.3759 19H17.25C19.3211 19 21 17.3211 21 15.25V6.75C21 4.67893 19.3211 3 17.25 3H6.75ZM11.9994 14.2801C12.2703 14.2801 15.2507 12.7448 15.2507 10.6675C15.2507 9.22252 14.3475 8.5 13.4444 8.5C12.5412 8.5 11.9994 9.04189 11.9994 9.04189C11.9994 9.04189 11.4575 8.5 10.5543 8.5C9.65119 8.5 8.74805 9.22252 8.74805 10.6675C8.74805 12.7448 11.7284 14.2801 11.9994 14.2801Z" fill="currentColor"/></g></svg>