<svg width="24px" height="24px" viewBox="0 0 24 24" fill="currentColor" xmlns="http://www.w3.org/2000/svg"><g><path fill-rule="evenodd" clip-rule="evenodd" d="M6.75 3C4.67893 3 3 4.67893 3 6.75V15.25C3 17.3211 4.67893 19 6.75 19H8.65182C8.71055 19 8.76741 19.0207 8.81242 19.0584L10.8775 20.7894C11.5249 21.3321 12.4676 21.3348 13.1181 20.7959L15.2164 19.0575C15.2613 19.0203 15.3177 19 15.3759 19H17.25C19.3211 19 21 17.3211 21 15.25V6.75C21 4.67893 19.3211 3 17.25 3H6.75ZM12 7C12.4142 7 12.75 7.33579 12.75 7.75V11.25C12.75 11.6642 12.4142 12 12 12C11.5858 12 11.25 11.6642 11.25 11.25V7.75C11.25 7.33579 11.5858 7 12 7ZM12 14.75C12.5523 14.75 13 14.3023 13 13.75C13 13.1977 12.5523 12.75 12 12.75C11.4477 12.75 11 13.1977 11 13.75C11 14.3023 11.4477 14.75 12 14.75Z" fill="currentColor"/></g></svg>