<svg width="24px" height="24px" viewBox="0 0 24 24" fill="currentColor" xmlns="http://www.w3.org/2000/svg"><g><path fill-rule="evenodd" clip-rule="evenodd" d="M3 6.75C3 4.67893 4.67893 3 6.75 3H17.25C19.3211 3 21 4.67893 21 6.75V15.25C21 17.3211 19.3211 19 17.25 19H15.3759C15.3177 19 15.2613 19.0203 15.2164 19.0575L13.1181 20.7959C12.4676 21.3348 11.5249 21.3321 10.8775 20.7894L8.81242 19.0584C8.76741 19.0207 8.71055 19 8.65182 19H6.75C4.67893 19 3 17.3211 3 15.25V6.75ZM12 7C12.3156 7 12.5714 7.25584 12.5714 7.57143C12.5714 8.69215 12.8197 9.36869 13.2255 9.77451C13.6313 10.1803 14.3078 10.4286 15.4286 10.4286C15.7442 10.4286 16 10.6844 16 11C16 11.3156 15.7442 11.5714 15.4286 11.5714C14.3078 11.5714 13.6313 11.8197 13.2255 12.2255C12.8197 12.6313 12.5714 13.3078 12.5714 14.4286C12.5714 14.7442 12.3156 15 12 15C11.6844 15 11.4286 14.7442 11.4286 14.4286C11.4286 13.3078 11.1803 12.6313 10.7745 12.2255C10.3687 11.8197 9.69215 11.5714 8.57143 11.5714C8.25584 11.5714 8 11.3156 8 11C8 10.6844 8.25584 10.4286 8.57143 10.4286C9.69215 10.4286 10.3687 10.1803 10.7745 9.77451C11.1803 9.36869 11.4286 8.69215 11.4286 7.57143C11.4286 7.25584 11.6844 7 12 7Z" fill="currentColor"/></g></svg>