<svg width="24px" height="24px" viewBox="0 0 24 24" fill="currentColor" xmlns="http://www.w3.org/2000/svg"><g><path d="M7.35508 10.6274C7.47407 10.5783 7.60516 10.5655 7.73136 10.5909C7.85755 10.6162 7.97356 10.6786 8.06437 10.7698C8.15517 10.861 8.21701 10.9774 8.24177 11.1037C8.26651 11.2301 8.25309 11.3612 8.2034 11.48C8.15371 11.5987 8.06978 11.7002 7.96247 11.7713C7.85512 11.8423 7.72875 11.8799 7.6 11.8793C7.42807 11.8784 7.26337 11.8096 7.14208 11.6878C7.02078 11.5659 6.95274 11.4009 6.95271 11.2289C6.95272 11.1002 6.99097 10.9741 7.06258 10.8671C7.13421 10.7601 7.23606 10.6765 7.35508 10.6274Z" fill="currentColor"/><path d="M15.1398 10.6274C15.2588 10.5783 15.3899 10.5655 15.5161 10.5909C15.6423 10.6162 15.7586 10.6785 15.8494 10.7698C15.9402 10.861 16.0017 10.9774 16.0265 11.1037C16.0512 11.2301 16.0381 11.3612 15.9884 11.48C15.9387 11.5988 15.8545 11.7002 15.7472 11.7713C15.6398 11.8423 15.5137 11.8799 15.385 11.8793H15.3786C15.2077 11.8768 15.0446 11.8073 14.9246 11.6856C14.8047 11.5639 14.7374 11.3998 14.7374 11.2289C14.7374 11.1002 14.7757 10.9741 14.8473 10.8671C14.9189 10.7601 15.0208 10.6765 15.1398 10.6274Z" fill="currentColor"/><path fill-rule="evenodd" clip-rule="evenodd" d="M12 2.24969C13.5149 2.24969 14.8098 3.5477 18.2167 5.39255C21.1143 6.94513 23 9.56321 23 12.5269C23 17.3072 18.0751 21.1823 12 21.1823C5.92488 21.1823 1.00004 17.3072 1 12.5269C1 9.56321 2.88567 6.94513 5.78334 5.39255C8.68106 3.83998 10.4851 2.24969 12 2.24969ZM10.0891 14.5664C10.0549 14.5623 10.0201 14.5661 9.98753 14.5774C9.95492 14.5888 9.92525 14.6075 9.90098 14.6321C9.87672 14.6566 9.85855 14.6865 9.84757 14.7192C9.8366 14.752 9.83319 14.7869 9.83775 14.8211C9.97555 15.3977 10.2924 15.916 10.7429 16.3014C11.0957 16.6403 11.5536 16.8487 12.0408 16.8922C12.5139 16.8405 12.9563 16.6326 13.298 16.3014C13.7531 15.9178 14.0745 15.3994 14.2157 14.8211C14.2201 14.7872 14.2169 14.7526 14.2061 14.7201C14.1953 14.6877 14.1772 14.6581 14.1533 14.6336C14.1294 14.6091 14.1002 14.5903 14.068 14.5787C14.0358 14.5671 14.0014 14.5628 13.9674 14.5664H10.0891ZM8.47656 10.0712C8.14066 10.0042 7.79222 10.0383 7.4757 10.1691C7.15916 10.3001 6.88838 10.5222 6.69796 10.8069C6.50756 11.0917 6.40611 11.4268 6.40608 11.7694C6.40608 12.2281 6.58787 12.6681 6.91189 12.9928C7.23596 13.3174 7.67594 13.5002 8.13465 13.5011C8.47716 13.5016 8.81237 13.4008 9.09746 13.211C9.38259 13.0211 9.60524 12.7505 9.73677 12.4342C9.86822 12.1179 9.90294 11.7697 9.83652 11.4337C9.77006 11.0976 9.60528 10.7885 9.36325 10.546C9.12123 10.3036 8.8125 10.1383 8.47656 10.0712ZM16.2745 10.0722C15.9383 10.0043 15.5892 10.0379 15.2721 10.1685C14.9551 10.2992 14.6839 10.5211 14.4931 10.806C14.3023 11.091 14.2003 11.4264 14.2003 11.7694C14.1995 12.2268 14.3799 12.6658 14.7021 12.9903C15.0243 13.3149 15.462 13.4986 15.9194 13.5011C16.2623 13.5035 16.5986 13.4044 16.8849 13.2156C17.1713 13.0269 17.3953 12.7571 17.5282 12.441C17.6612 12.1248 17.6973 11.7762 17.632 11.4395C17.5666 11.1028 17.4025 10.7928 17.1609 10.5494C16.9192 10.3061 16.6106 10.14 16.2745 10.0722Z" fill="currentColor"/></g></svg>