<svg width="24px" height="24px" viewBox="0 0 24 24" fill="currentColor" xmlns="http://www.w3.org/2000/svg"><g><path d="M2 14C2 13.4477 2.44772 13 3 13H12H21C21.5523 13 22 13.4477 22 14C22 14.5523 21.5523 15 21 15H3C2.44772 15 2 14.5523 2 14Z" fill="currentColor"/><path d="M15.7757 20.9999C16.4521 21 16.9976 21 17.4416 20.9697C17.8982 20.9385 18.3019 20.8728 18.6842 20.7145C19.603 20.3339 20.3331 19.6039 20.7137 18.685C20.872 18.3027 20.9377 17.899 20.9688 17.4425C21.0033 16.937 20.5888 16.526 20.0822 16.5252L3.94231 16.5013C3.42162 16.5006 2.99396 16.923 3.0294 17.4425C3.06055 17.899 3.12622 18.3027 3.28457 18.685C3.66517 19.6039 4.3952 20.3339 5.31405 20.7145C5.69633 20.8728 6.10004 20.9385 6.55659 20.9697C7.0006 21 7.54616 21 8.22248 20.9999H15.7757Z" fill="currentColor"/><path d="M17.865 4.67307C19.5729 5.85567 20.827 7.73781 20.9839 10.5C21.0152 11.0514 20.5528 11.5 20.0005 11.5H12.0005H4.00052C3.44824 11.5 2.9858 11.0514 3.01713 10.5C3.17407 7.73781 4.42818 5.85567 6.13606 4.67307C7.9246 3.43463 10.152 3 12.0005 3C13.8491 3 16.0764 3.43463 17.865 4.67307Z" fill="currentColor"/></g></svg>