<svg width="24px" height="24px" viewBox="0 0 24 24" fill="currentColor" xmlns="http://www.w3.org/2000/svg"><g><path d="M11.25 4H5.75C3.67893 4 2 5.67893 2 7.75V8.25C2 9.77329 2.90826 11.0844 4.21277 11.6715L3.00968 19.1306C2.94373 19.5395 3.22176 19.9245 3.63069 19.9904C4.03962 20.0564 4.42459 19.7784 4.49054 19.3694L5.67927 11.9993C5.70279 11.9998 5.72637 12 5.75 12H11.25V4Z" fill="currentColor"/><path d="M12.75 12H18.25C18.2736 12 18.2972 11.9998 18.3207 11.9993L19.5095 19.3694C19.5754 19.7784 19.9604 20.0564 20.3693 19.9904C20.7782 19.9245 21.0563 19.5395 20.9903 19.1306L19.7872 11.6715C21.0917 11.0844 22 9.77329 22 8.25V7.75C22 5.67893 20.3211 4 18.25 4H12.75V12Z" fill="currentColor"/></g></svg>