<svg width="24px" height="24px" viewBox="0 0 24 24" fill="currentColor" xmlns="http://www.w3.org/2000/svg"><g><path fill-rule="evenodd" clip-rule="evenodd" d="M7.75 2C5.67893 2 4 3.67893 4 5.75V18.25C4 20.3211 5.67893 22 7.75 22H16.25C18.3211 22 20 20.3211 20 18.25V5.75C20 3.67893 18.3211 2 16.25 2H7.75ZM18.5 7V5.75C18.5 4.50736 17.4926 3.5 16.25 3.5H7.75C6.50736 3.5 5.5 4.50736 5.5 5.75V7H18.5ZM9.5 13.25C10.0523 13.25 10.5 12.8023 10.5 12.25C10.5 11.6977 10.0523 11.25 9.5 11.25C8.94772 11.25 8.5 11.6977 8.5 12.25C8.5 12.8023 8.94772 13.25 9.5 13.25ZM9.5 17.75C10.0523 17.75 10.5 17.3023 10.5 16.75C10.5 16.1977 10.0523 15.75 9.5 15.75C8.94772 15.75 8.5 16.1977 8.5 16.75C8.5 17.3023 8.94772 17.75 9.5 17.75ZM15.5 12.25C15.5 12.8023 15.0523 13.25 14.5 13.25C13.9477 13.25 13.5 12.8023 13.5 12.25C13.5 11.6977 13.9477 11.25 14.5 11.25C15.0523 11.25 15.5 11.6977 15.5 12.25ZM14.5 17.75C15.0523 17.75 15.5 17.3023 15.5 16.75C15.5 16.1977 15.0523 15.75 14.5 15.75C13.9477 15.75 13.5 16.1977 13.5 16.75C13.5 17.3023 13.9477 17.75 14.5 17.75Z" fill="currentColor"/></g></svg>