<svg width="24px" height="24px" viewBox="0 0 24 24" fill="currentColor" xmlns="http://www.w3.org/2000/svg"><g><path fill-rule="evenodd" clip-rule="evenodd" d="M7.75 2C8.16421 2 8.5 2.33579 8.5 2.75V4H15.5V2.75C15.5 2.33579 15.8358 2 16.25 2C16.6642 2 17 2.33579 17 2.75V4H17.25C19.3211 4 21 5.67893 21 7.75V17.25C21 19.3211 19.3211 21 17.25 21H6.75C4.67893 21 3 19.3211 3 17.25V7.75C3 5.67893 4.67893 4 6.75 4H7V2.75C7 2.33579 7.33579 2 7.75 2ZM15.2803 10.0447C15.5732 10.3376 15.5732 10.8124 15.2803 11.1053L11.4303 14.9553C11.2897 15.096 11.0989 15.175 10.9 15.175C10.7011 15.175 10.5103 15.096 10.3697 14.9553L8.71967 13.3053C8.42678 13.0124 8.42678 12.5376 8.71967 12.2447C9.01256 11.9518 9.48744 11.9518 9.78033 12.2447L10.9 13.3644L14.2197 10.0447C14.5126 9.75179 14.9874 9.75179 15.2803 10.0447Z" fill="currentColor"/></g></svg>