<svg width="24px" height="24px" viewBox="0 0 24 24" fill="currentColor" xmlns="http://www.w3.org/2000/svg"><g><path d="M7.75 2C8.16421 2 8.5 2.33579 8.5 2.75V4H15.5V2.75C15.5 2.33579 15.8358 2 16.25 2C16.6642 2 17 2.33579 17 2.75V4H17.25C19.3211 4 21 5.67893 21 7.75V10.6568C19.0117 9.40513 16.4671 9.10438 14.1306 10.0722C10.3043 11.6572 8.4879 16.0437 10.0718 19.8691C10.2373 20.2684 10.4333 20.646 10.6559 21H6.75C4.67893 21 3 19.3211 3 17.25V7.75C3 5.67893 4.67893 4 6.75 4H7V2.75C7 2.33579 7.33579 2 7.75 2Z" fill="currentColor"/><path d="M17 14C17.4142 14 17.75 14.3358 17.75 14.75V16.689L19.2804 18.2197C19.5732 18.5127 19.5732 18.9875 19.2803 19.2804C18.9873 19.5732 18.5125 19.5732 18.2196 19.2803L16.4696 17.5299C16.329 17.3892 16.25 17.1985 16.25 16.9996V14.75C16.25 14.3358 16.5858 14 17 14Z" fill="currentColor"/><path fill-rule="evenodd" clip-rule="evenodd" d="M17 11.25C13.8244 11.25 11.25 13.8244 11.25 17C11.25 20.1756 13.8244 22.75 17 22.75C20.1756 22.75 22.75 20.1756 22.75 17C22.75 13.8244 20.1756 11.25 17 11.25ZM12.75 17C12.75 14.6528 14.6528 12.75 17 12.75C19.3472 12.75 21.25 14.6528 21.25 17C21.25 19.3472 19.3472 21.25 17 21.25C14.6528 21.25 12.75 19.3472 12.75 17Z" fill="currentColor"/></g></svg>