<svg width="24px" height="24px" viewBox="0 0 24 24" fill="currentColor" xmlns="http://www.w3.org/2000/svg"><g><path fill-rule="evenodd" clip-rule="evenodd" d="M3 6.75C3 4.67893 4.67893 3 6.75 3H17.25C19.3211 3 21 4.67893 21 6.75V17.25C21 19.3211 19.3211 21 17.25 21H6.75C4.67893 21 3 19.3211 3 17.25V6.75ZM19.5 8H4.5V17.25C4.5 18.4926 5.50736 19.5 6.75 19.5H17.25C18.4926 19.5 19.5 18.4926 19.5 17.25V8ZM7.96967 11.2197C8.26256 10.9268 8.73744 10.9268 9.03033 11.2197L11.0303 13.2197C11.3232 13.5126 11.3232 13.9874 11.0303 14.2803L9.03033 16.2803C8.73744 16.5732 8.26256 16.5732 7.96967 16.2803C7.67678 15.9874 7.67678 15.5126 7.96967 15.2197L9.43934 13.75L7.96967 12.2803C7.67678 11.9874 7.67678 11.5126 7.96967 11.2197ZM12.9697 11.2197C13.2626 10.9268 13.7374 10.9268 14.0303 11.2197L16.0303 13.2197C16.3232 13.5126 16.3232 13.9874 16.0303 14.2803L14.0303 16.2803C13.7374 16.5732 13.2626 16.5732 12.9697 16.2803C12.6768 15.9874 12.6768 15.5126 12.9697 15.2197L14.4393 13.75L12.9697 12.2803C12.6768 11.9874 12.6768 11.5126 12.9697 11.2197Z" fill="currentColor"/></g></svg>