<svg width="24px" height="24px" viewBox="0 0 24 24" fill="currentColor" xmlns="http://www.w3.org/2000/svg"><g><path d="M7.75 2C8.16421 2 8.5 2.33579 8.5 2.75V4H15.5V2.75C15.5 2.33579 15.8358 2 16.25 2C16.6642 2 17 2.33579 17 2.75V4H17.25C19.3211 4 21 5.67893 21 7.75V9.25C21 9.66421 20.6642 10 20.25 10H4.5V17.25C4.5 18.4926 5.50736 19.5 6.75 19.5H10.25C10.6642 19.5 11 19.8358 11 20.25C11 20.6642 10.6642 21 10.25 21H6.75C4.67893 21 3 19.3211 3 17.25V7.75C3 5.67893 4.67893 4 6.75 4H7V2.75C7 2.33579 7.33579 2 7.75 2Z" fill="currentColor"/><path d="M15.6397 14.0772C16.1818 13.7413 16.8226 13.5469 17.5 13.5469C19.1079 13.5469 20.461 14.6466 20.8443 16.1361C20.954 16.5623 21.3885 16.8189 21.8147 16.7092C22.2409 16.5995 22.4975 16.1651 22.3878 15.7389C21.8276 13.5623 19.8527 11.9531 17.5 11.9531C16.3847 11.9531 15.3389 12.3156 14.4919 12.9294L13.6257 12.0632C13.291 11.7285 12.7188 11.9655 12.7188 12.4388V14.875C12.7188 15.4618 13.1944 15.9375 13.7812 15.9375H16.2174C16.6907 15.9375 16.9278 15.3653 16.5931 15.0306L15.6397 14.0772Z" fill="currentColor"/><path d="M14.1556 17.8639C14.0459 17.4377 13.6114 17.1811 13.1852 17.2908C12.759 17.4005 12.5024 17.8349 12.6121 18.2611C13.1723 20.4377 15.1472 22.0469 17.5 22.0469C18.6155 22.0469 19.6614 21.6841 20.5081 21.0706L21.3744 21.9368C21.709 22.2715 22.2813 22.0345 22.2813 21.5612V19.125C22.2813 18.5382 21.8056 18.0625 21.2188 18.0625H18.7826C18.3093 18.0625 18.0722 18.6347 18.4069 18.9694L19.3602 19.9227C18.8179 20.2588 18.1771 20.4531 17.5 20.4531C15.892 20.4531 14.539 19.3534 14.1556 17.8639Z" fill="currentColor"/></g></svg>