<svg width="24px" height="24px" viewBox="0 0 24 24" fill="currentColor" xmlns="http://www.w3.org/2000/svg"><g><path d="M7.75 2C8.16421 2 8.5 2.33579 8.5 2.75V4H15.5V2.75C15.5 2.33579 15.8358 2 16.25 2C16.6642 2 17 2.33579 17 2.75V4H17.25C19.3211 4 21 5.67893 21 7.75V11.25C21 11.6642 20.6642 12 20.25 12C19.8358 12 19.5 11.6642 19.5 11.25V10H4.5V17.25C4.5 18.4926 5.50736 19.5 6.75 19.5H11.25C11.6642 19.5 12 19.8358 12 20.25C12 20.6642 11.6642 21 11.25 21H6.75C4.67893 21 3 19.3211 3 17.25V7.75C3 5.67893 4.67893 4 6.75 4H7V2.75C7 2.33579 7.33579 2 7.75 2Z" fill="currentColor"/><path fill-rule="evenodd" clip-rule="evenodd" d="M19.9016 14.591C18.4372 13.1265 16.0628 13.1265 14.5983 14.591C13.1339 16.0554 13.1339 18.4298 14.5983 19.8943C15.8812 21.1771 17.8623 21.3362 19.3183 20.3716L20.7197 21.773C21.0126 22.0659 21.4874 22.0659 21.7803 21.773C22.0732 21.4801 22.0732 21.0052 21.7803 20.7123L20.3789 19.3109C21.3436 17.8549 21.1845 15.8738 19.9016 14.591ZM15.659 18.8336C14.7803 17.9549 14.7803 16.5303 15.659 15.6516C16.5377 14.773 17.9623 14.773 18.841 15.6516C19.7197 16.5303 19.7197 17.9549 18.841 18.8336C17.9623 19.7123 16.5377 19.7123 15.659 18.8336Z" fill="currentColor"/></g></svg>