<svg width="24px" height="24px" viewBox="0 0 24 24" fill="currentColor" xmlns="http://www.w3.org/2000/svg"><g><path fill-rule="evenodd" clip-rule="evenodd" d="M3 6.75C3 4.67893 4.67893 3 6.75 3H17.25C19.3211 3 21 4.67893 21 6.75V17.25C21 19.3211 19.3211 21 17.25 21H6.75C4.67893 21 3 19.3211 3 17.25V6.75ZM19.5 8H4.5V17.25C4.5 18.4926 5.50736 19.5 6.75 19.5H17.25C18.4926 19.5 19.5 18.4926 19.5 17.25V8ZM10.4697 10.9697C10.7626 10.6768 11.2374 10.6768 11.5303 10.9697L13.7803 13.2197C14.0732 13.5126 14.0732 13.9874 13.7803 14.2803L11.5303 16.5303C11.2374 16.8232 10.7626 16.8232 10.4697 16.5303C10.1768 16.2374 10.1768 15.7626 10.4697 15.4697L12.1893 13.75L10.4697 12.0303C10.1768 11.7374 10.1768 11.2626 10.4697 10.9697Z" fill="currentColor"/></g></svg>