<svg width="24px" height="24px" viewBox="0 0 24 24" fill="currentColor" xmlns="http://www.w3.org/2000/svg"><g><path d="M8.5 2.75C8.5 2.33579 8.16421 2 7.75 2C7.33579 2 7 2.33579 7 2.75V4H6.75C4.67893 4 3 5.67893 3 7.75V17.25C3 19.3211 4.67893 21 6.75 21H11.25C11.6642 21 12 20.6642 12 20.25C12 19.8358 11.6642 19.5 11.25 19.5H6.75C5.50736 19.5 4.5 18.4926 4.5 17.25V10H19.5V10.25C19.5 10.6642 19.8358 11 20.25 11C20.6642 11 21 10.6642 21 10.25V7.75C21 5.67893 19.3211 4 17.25 4H17V2.75C17 2.33579 16.6642 2 16.25 2C15.8358 2 15.5 2.33579 15.5 2.75V4H8.5V2.75Z" fill="currentColor"/><path d="M21.7803 17.2803C22.6255 16.4352 22.6255 15.0648 21.7803 14.2197C20.9352 13.3745 19.5648 13.3745 18.7197 14.2197L15.0983 17.841C14.3951 18.5443 14 19.4981 14 20.4926V21.25C14 21.6642 14.3358 22 14.75 22H15.5074C16.5019 22 17.4557 21.6049 18.159 20.9016L21.7803 17.2803Z" fill="currentColor"/></g></svg>