<svg width="24px" height="24px" viewBox="0 0 24 24" fill="currentColor" xmlns="http://www.w3.org/2000/svg"><g><path d="M8.5 2.75C8.5 2.33579 8.16421 2 7.75 2C7.33579 2 7 2.33579 7 2.75V4H6.75C4.67893 4 3 5.67893 3 7.75V17.25C3 19.3211 4.67893 21 6.75 21H11.25C11.6642 21 12 20.6642 12 20.25C12 19.8358 11.6642 19.5 11.25 19.5H6.75C5.50736 19.5 4.5 18.4926 4.5 17.25V10H19.5V12.25C19.5 12.6642 19.8358 13 20.25 13C20.6642 13 21 12.6642 21 12.25V7.75C21 5.67893 19.3211 4 17.25 4H17V2.75C17 2.33579 16.6642 2 16.25 2C15.8358 2 15.5 2.33579 15.5 2.75V4H8.5V2.75Z" fill="currentColor"/><path d="M21.8391 16.2141C22.0955 15.8888 22.0395 15.4172 21.7142 15.1609C21.3888 14.9045 20.9172 14.9605 20.6609 15.2858L16.8541 20.1176L15.2844 18.5237C14.9937 18.2286 14.5189 18.225 14.2237 18.5156C13.9286 18.8063 13.925 19.2811 14.2156 19.5762L16.3823 21.7762C16.5334 21.9296 16.7431 22.0107 16.9581 21.9988C17.173 21.9869 17.3725 21.8832 17.5058 21.7141L21.8391 16.2141Z" fill="currentColor"/></g></svg>