<svg width="24px" height="24px" viewBox="0 0 24 24" fill="currentColor" xmlns="http://www.w3.org/2000/svg"><g><path d="M8.5 2.75C8.5 2.33579 8.16421 2 7.75 2C7.33579 2 7 2.33579 7 2.75V4H6.75C4.67893 4 3 5.67893 3 7.75V17.25C3 19.3211 4.67893 21 6.75 21H11.25C11.6642 21 12 20.6642 12 20.25C12 19.8358 11.6642 19.5 11.25 19.5H6.75C5.50736 19.5 4.5 18.4926 4.5 17.25V10H19.5V11.25C19.5 11.6642 19.8358 12 20.25 12C20.6642 12 21 11.6642 21 11.25V7.75C21 5.67893 19.3211 4 17.25 4H17V2.75C17 2.33579 16.6642 2 16.25 2C15.8358 2 15.5 2.33579 15.5 2.75V4H8.5V2.75Z" fill="currentColor"/><path d="M16.2803 15.2197C15.9874 14.9268 15.5126 14.9268 15.2197 15.2197C14.9268 15.5126 14.9268 15.9874 15.2197 16.2803L16.9393 18L15.2197 19.7197C14.9268 20.0126 14.9268 20.4874 15.2197 20.7803C15.5126 21.0732 15.9874 21.0732 16.2803 20.7803L18 19.0607L19.7197 20.7803C20.0126 21.0732 20.4874 21.0732 20.7803 20.7803C21.0732 20.4874 21.0732 20.0126 20.7803 19.7197L19.0607 18L20.7803 16.2803C21.0732 15.9874 21.0732 15.5126 20.7803 15.2197C20.4874 14.9268 20.0126 14.9268 19.7197 15.2197L18 16.9393L16.2803 15.2197Z" fill="currentColor"/></g></svg>