<svg width="24px" height="24px" viewBox="0 0 24 24" fill="currentColor" xmlns="http://www.w3.org/2000/svg"><g><path d="M6.70522 3C4.70137 3 2.87023 4.65 3.23392 6.81677C3.56969 8.81719 4.26074 10.7558 5.2839 12.5194C6.77261 15.0853 8.91294 17.2256 11.4789 18.7143C13.2478 19.7406 15.1599 20.4069 17.1367 20.7419C19.3164 21.1113 20.9982 19.2738 20.9982 17.247C20.9982 15.5841 19.9029 14.1167 18.3064 13.6471L17.3421 13.3635C16.3779 13.0799 15.3359 13.3569 14.6399 14.082C14.2635 14.474 13.7268 14.5345 13.3555 14.2944C11.8951 13.35 10.6483 12.1031 9.70384 10.6427C9.46374 10.2715 9.52424 9.73471 9.91627 9.35836C10.6413 8.66231 10.9184 7.62038 10.6348 6.65615L10.2814 5.45485C9.85337 3.99944 8.51765 3 7.0006 3H6.70522Z" fill="currentColor"/><path fill-rule="evenodd" clip-rule="evenodd" d="M15 3.75C15 3.33579 15.3358 3 15.75 3H20.25C20.6642 3 21 3.33579 21 3.75V8.25C21 8.66421 20.6642 9 20.25 9C19.8358 9 19.5 8.66421 19.5 8.25V5.56066L15.2803 9.78033C14.9874 10.0732 14.5126 10.0732 14.2197 9.78033C13.9268 9.48744 13.9268 9.01256 14.2197 8.71967L18.4393 4.5H15.75C15.3358 4.5 15 4.16421 15 3.75Z" fill="currentColor"/></g></svg>