<svg width="24px" height="24px" viewBox="0 0 24 24" fill="currentColor" xmlns="http://www.w3.org/2000/svg"><g><path fill-rule="evenodd" clip-rule="evenodd" d="M7.98536 4.66987C8.68086 3.62663 9.85173 3 11.1056 3H12.8944C14.1483 3 15.3191 3.62663 16.0146 4.66987L16.2334 4.99808C16.6507 5.62402 17.3533 6 18.1056 6H18.25C20.3211 6 22 7.67893 22 9.75V17.25C22 19.3211 20.3211 21 18.25 21H5.75C3.67893 21 2 19.3211 2 17.25V9.75C2 7.67893 3.67893 6 5.75 6H5.89445C6.64674 6 7.34926 5.62402 7.76656 4.99808L7.98536 4.66987ZM12 9C10.067 9 8.5 10.567 8.5 12.5C8.5 14.433 10.067 16 12 16C13.933 16 15.5 14.433 15.5 12.5C15.5 10.567 13.933 9 12 9Z" fill="currentColor"/></g></svg>