<svg width="24px" height="24px" viewBox="0 0 24 24" fill="currentColor" xmlns="http://www.w3.org/2000/svg"><g><path fill-rule="evenodd" clip-rule="evenodd" d="M3.28033 2.21967C2.98744 1.92678 2.51256 1.92678 2.21967 2.21967C1.92678 2.51256 1.92678 2.98744 2.21967 3.28033L5.01195 6.07261C3.29432 6.41543 2 7.93156 2 9.75V17.25C2 19.3211 3.67893 21 5.75 21H18.25C18.7501 21 19.2274 20.9021 19.6637 20.7244L20.7197 21.7803C21.0126 22.0732 21.4874 22.0732 21.7803 21.7803C22.0732 21.4874 22.0732 21.0126 21.7803 20.7197L3.28033 2.21967ZM14.1787 15.2394L9.26063 10.3213C8.78451 10.9191 8.5 11.6763 8.5 12.5C8.5 14.433 10.067 16 12 16C12.8237 16 13.5809 15.7155 14.1787 15.2394Z" fill="currentColor"/><path d="M22 17.25C22 17.7173 21.9145 18.1646 21.7584 18.5772L7.93165 4.75045L7.98536 4.66987C8.68086 3.62663 9.85173 3 11.1056 3H12.8944C14.1483 3 15.3191 3.62663 16.0146 4.66987L16.2334 4.99808C16.6507 5.62402 17.3533 6 18.1056 6H18.25C20.3211 6 22 7.67893 22 9.75V17.25Z" fill="currentColor"/></g></svg>