<svg width="24px" height="24px" viewBox="0 0 24 24" fill="currentColor" xmlns="http://www.w3.org/2000/svg"><g><path fill-rule="evenodd" clip-rule="evenodd" d="M5.75 3C3.67893 3 2 4.67893 2 6.75V17.25C2 19.3211 3.67893 21 5.75 21H18.25C20.3211 21 22 19.3211 22 17.25V6.75C22 4.67893 20.3211 3 18.25 3H5.75ZM16.5 7.5C16.5 8.05228 16.9477 8.5 17.5 8.5C18.0523 8.5 18.5 8.05228 18.5 7.5C18.5 6.94772 18.0523 6.5 17.5 6.5C16.9477 6.5 16.5 6.94772 16.5 7.5ZM8.375 12C8.375 9.99797 9.99797 8.375 12 8.375C14.002 8.375 15.625 9.99797 15.625 12C15.625 14.002 14.002 15.625 12 15.625C9.99797 15.625 8.375 14.002 8.375 12Z" fill="currentColor"/></g></svg>