<svg width="24px" height="24px" viewBox="0 0 24 24" fill="currentColor" xmlns="http://www.w3.org/2000/svg"><g><path fill-rule="evenodd" clip-rule="evenodd" d="M11.1056 3C9.85173 3 8.68086 3.62663 7.98536 4.66987L7.76656 4.99808C7.34926 5.62402 6.64674 6 5.89445 6H5.75C3.67893 6 2 7.67893 2 9.75V17.25C2 19.3211 3.67893 21 5.75 21H18.25C20.3211 21 22 19.3211 22 17.25V9.75C22 7.67893 20.3211 6 18.25 6H18.1056C17.3533 6 16.6507 5.62402 16.2334 4.99808L16.0146 4.66987C15.3191 3.62663 14.1483 3 12.8944 3H11.1056ZM9.468 10.9697C9.7609 10.6768 10.2358 10.6768 10.5287 10.9697L12 12.441L13.4713 10.9697C13.7642 10.6768 14.2391 10.6768 14.532 10.9697C14.8249 11.2626 14.8249 11.7374 14.532 12.0303L13.0607 13.5017L14.5303 14.9713C14.8232 15.2642 14.8232 15.7391 14.5303 16.032C14.2374 16.3249 13.7626 16.3249 13.4697 16.032L12 14.5623L10.5303 16.032C10.2374 16.3249 9.76256 16.3249 9.46967 16.032C9.17678 15.7391 9.17678 15.2642 9.46967 14.9713L10.9393 13.5017L9.468 12.0303C9.17511 11.7374 9.17511 11.2626 9.468 10.9697Z" fill="currentColor"/></g></svg>