<svg width="24px" height="24px" viewBox="0 0 24 24" fill="currentColor" xmlns="http://www.w3.org/2000/svg"><g><path d="M14 9.5C12.6193 9.5 11.5 10.6193 11.5 12C11.5 13.3807 12.6193 14.5 14 14.5C15.3807 14.5 16.5 13.3807 16.5 12C16.5 10.6193 15.3807 9.5 14 9.5Z" fill="currentColor"/><path fill-rule="evenodd" clip-rule="evenodd" d="M5.95993 3C5.44907 3 4.9637 3.22323 4.63124 3.61112L3.86058 4.51022C2.74909 5.15966 2 6.36681 2 7.75V16.25C2 18.3211 3.67893 20 5.75 20H18.25C20.3211 20 22 18.3211 22 16.25V7.75C22 5.67893 20.3211 4 18.25 4H9.70209L9.36876 3.61111C9.03629 3.22323 8.55093 3 8.04006 3H5.95993ZM10 12C10 9.79086 11.7909 8 14 8C16.2091 8 18 9.79086 18 12C18 14.2091 16.2091 16 14 16C11.7909 16 10 14.2091 10 12ZM7 10C7.55228 10 8 9.55228 8 9C8 8.44772 7.55228 8 7 8C6.44772 8 6 8.44772 6 9C6 9.55228 6.44772 10 7 10Z" fill="currentColor"/></g></svg>