<svg width="24px" height="24px" viewBox="0 0 24 24" fill="currentColor" xmlns="http://www.w3.org/2000/svg"><g><path d="M12 12.0374L12.8352 13.875H11.1648L12 12.0374Z" fill="currentColor"/><path fill-rule="evenodd" clip-rule="evenodd" d="M7.98536 4.66987C8.68086 3.62663 9.85173 3 11.1056 3H12.8944C14.1483 3 15.3191 3.62663 16.0146 4.66987L16.2334 4.99808C16.6507 5.62402 17.3533 6 18.1056 6H18.25C20.3211 6 22 7.67893 22 9.75V17.25C22 19.3211 20.3211 21 18.25 21H5.75C3.67893 21 2 19.3211 2 17.25V9.75C2 7.67893 3.67893 6 5.75 6H5.89445C6.64674 6 7.34926 5.62402 7.76656 4.99808L7.98536 4.66987ZM12.6828 9.91462C12.5611 9.64688 12.2941 9.47498 12 9.47498C11.7059 9.47498 11.4389 9.64688 11.3172 9.91462L8.56722 15.9646C8.39582 16.3417 8.56256 16.7863 8.93965 16.9578C9.31673 17.1292 9.76137 16.9624 9.93278 16.5853L10.4829 15.375H13.5171L14.0672 16.5853C14.2386 16.9624 14.6833 17.1292 15.0604 16.9578C15.4374 16.7863 15.6042 16.3417 15.4328 15.9646L12.6828 9.91462Z" fill="currentColor"/></g></svg>