<svg width="24px" height="24px" viewBox="0 0 24 24" fill="currentColor" xmlns="http://www.w3.org/2000/svg"><g><path fill-rule="evenodd" clip-rule="evenodd" d="M12.5095 4C11.8799 4.74122 11.5 5.70125 11.5 6.75V10.2526C11.5 12.5999 13.4028 14.5026 15.75 14.5026H19.25C20.2988 14.5026 21.2588 14.1228 22 13.4931V17.25C22 19.3211 20.3211 21 18.25 21H5.75C3.67893 21 2 19.3211 2 17.25V7.75C2 5.67893 3.67893 4 5.75 4H12.5095ZM5 17.25C5 16.8358 5.33579 16.5 5.75 16.5H8.25C8.66421 16.5 9 16.8358 9 17.25C9 17.6642 8.66421 18 8.25 18H5.75C5.33579 18 5 17.6642 5 17.25Z" fill="currentColor"/><path fill-rule="evenodd" clip-rule="evenodd" d="M15.75 4C14.2312 4 13 5.23122 13 6.75V10.2526C13 11.7714 14.2312 13.0026 15.75 13.0026H19.25C20.7688 13.0026 22 11.7714 22 10.2526V6.75C22 5.23122 20.7688 4 19.25 4H15.75ZM16.5 8.5C16.5 9.05228 16.9477 9.5 17.5 9.5C18.0523 9.5 18.5 9.05228 18.5 8.5C18.5 7.94772 18.0523 7.5 17.5 7.5C16.9477 7.5 16.5 7.94772 16.5 8.5Z" fill="currentColor"/></g></svg>