<svg width="24px" height="24px" viewBox="0 0 24 24" fill="currentColor" xmlns="http://www.w3.org/2000/svg"><g><path fill-rule="evenodd" clip-rule="evenodd" d="M17.25 3C19.3211 3 21 4.67893 21 6.75V17.25C21 19.3211 19.3211 21 17.25 21H6.75C4.67893 21 3 19.3211 3 17.25V6.75C3 4.67893 4.67893 3 6.75 3H17.25ZM12 17.5C11.5858 17.5 11.25 17.8358 11.25 18.25V19C11.25 19.4142 11.5858 19.75 12 19.75C12.4142 19.75 12.75 19.4142 12.75 19V18.25C12.75 17.8358 12.4142 17.5 12 17.5ZM12 8.25C11.5858 8.25 11.25 8.58579 11.25 9V11.25H9C8.58579 11.25 8.25 11.5858 8.25 12C8.25 12.4142 8.58579 12.75 9 12.75H11.25V15C11.25 15.4142 11.5858 15.75 12 15.75C12.4142 15.75 12.75 15.4142 12.75 15V12.75H15C15.4142 12.75 15.75 12.4142 15.75 12C15.75 11.5858 15.4142 11.25 15 11.25H12.75V9C12.75 8.58579 12.4142 8.25 12 8.25ZM5 11.25C4.58579 11.25 4.25 11.5858 4.25 12C4.25 12.4142 4.58579 12.75 5 12.75H5.75C6.16421 12.75 6.5 12.4142 6.5 12C6.5 11.5858 6.16421 11.25 5.75 11.25H5ZM18.25 11.25C17.8358 11.25 17.5 11.5858 17.5 12C17.5 12.4142 17.8358 12.75 18.25 12.75H19C19.4142 12.75 19.75 12.4142 19.75 12C19.75 11.5858 19.4142 11.25 19 11.25H18.25ZM12 4.25C11.5858 4.25 11.25 4.58579 11.25 5V5.75C11.25 6.16421 11.5858 6.5 12 6.5C12.4142 6.5 12.75 6.16421 12.75 5.75V5C12.75 4.58579 12.4142 4.25 12 4.25Z" fill="currentColor"/></g></svg>