<svg width="24px" height="24px" viewBox="0 0 24 24" fill="currentColor" xmlns="http://www.w3.org/2000/svg"><g><path fill-rule="evenodd" clip-rule="evenodd" d="M6.75 4.5C5.50736 4.5 4.5 5.50736 4.5 6.75V8.25C4.5 8.66421 4.16421 9 3.75 9C3.33579 9 3 8.66421 3 8.25V6.75C3 4.67893 4.67893 3 6.75 3H8.25C8.66421 3 9 3.33579 9 3.75C9 4.16421 8.66421 4.5 8.25 4.5H6.75ZM15 3.75C15 3.33579 15.3358 3 15.75 3H17.25C19.3211 3 21 4.67893 21 6.75V8.25C21 8.66421 20.6642 9 20.25 9C19.8358 9 19.5 8.66421 19.5 8.25V6.75C19.5 5.50736 18.4926 4.5 17.25 4.5H15.75C15.3358 4.5 15 4.16421 15 3.75ZM3.75 15C4.16421 15 4.5 15.3358 4.5 15.75V17.25C4.5 18.4926 5.50736 19.5 6.75 19.5H8.25C8.66421 19.5 9 19.8358 9 20.25C9 20.6642 8.66421 21 8.25 21H6.75C4.67893 21 3 19.3211 3 17.25V15.75C3 15.3358 3.33579 15 3.75 15ZM20.25 15C20.6642 15 21 15.3358 21 15.75V17.25C21 19.3211 19.3211 21 17.25 21H15.75C15.3358 21 15 20.6642 15 20.25C15 19.8358 15.3358 19.5 15.75 19.5H17.25C18.4926 19.5 19.5 18.4926 19.5 17.25V15.75C19.5 15.3358 19.8358 15 20.25 15Z" fill="currentColor"/><path fill-rule="evenodd" clip-rule="evenodd" d="M11.4571 7C10.8054 7 10.1805 7.25887 9.71967 7.71967L9.63388 7.80546C9.50932 7.93002 9.34037 8 9.16421 8C7.96895 8 7 8.96895 7 10.1642V13.25C7 14.7688 8.23122 16 9.75 16H14.25C15.7688 16 17 14.7688 17 13.25V10.1642C17 8.96895 16.031 8 14.8358 8C14.6596 8 14.4907 7.93002 14.3661 7.80546L14.2803 7.71967C13.8195 7.25887 13.1946 7 12.5429 7H11.4571ZM12 10.35C11.1716 10.35 10.5 11.0216 10.5 11.85C10.5 12.6784 11.1716 13.35 12 13.35C12.8284 13.35 13.5 12.6784 13.5 11.85C13.5 11.0216 12.8284 10.35 12 10.35Z" fill="currentColor"/></g></svg>