<svg width="24px" height="24px" viewBox="0 0 24 24" fill="currentColor" xmlns="http://www.w3.org/2000/svg"><g><path fill-rule="evenodd" clip-rule="evenodd" d="M1 15.25V7.75C1 5.67893 2.67893 4 4.75 4H15.0039C16.1494 4 17.2567 4.41435 18.1211 5.16602L21.3672 7.98828L21.5566 8.16211C22.4767 9.05404 22.9999 10.2836 23 11.5723V15.25C23 16.7688 21.7688 18 20.25 18H20.1632C19.6015 19.1825 18.3962 20 17 20C15.6038 20 14.3985 19.1825 13.8368 18H10.1632C9.60145 19.1825 8.3962 20 7 20C5.6038 20 4.39855 19.1825 3.83682 18H3.75C2.23122 18 1 16.7688 1 15.25ZM9 16.5C9 15.3954 8.10457 14.5 7 14.5C5.89543 14.5 5 15.3954 5 16.5C5 17.6046 5.89543 18.5 7 18.5C8.10457 18.5 9 17.6046 9 16.5ZM19 16.5C19 15.3954 18.1046 14.5 17 14.5C15.8954 14.5 15 15.3954 15 16.5C15 17.6046 15.8954 18.5 17 18.5C18.1046 18.5 19 17.6046 19 16.5Z" fill="currentColor"/></g></svg>