<svg width="24px" height="24px" viewBox="0 0 24 24" fill="currentColor" xmlns="http://www.w3.org/2000/svg"><g><path fill-rule="evenodd" clip-rule="evenodd" d="M7.46208 4C5.63653 4 4.00216 4.70729 2.83075 6.00842C1.66332 7.30514 1 9.14028 1 11.3319V14.75C1 16.4005 2.23029 17.7636 3.82381 17.9723C4.37979 19.1697 5.59293 20 7 20C8.3962 20 9.60145 19.1825 10.1632 18H13.8368C14.3985 19.1825 15.6038 20 17 20C18.3965 20 19.6019 19.1822 20.1635 17.9993C21.7359 17.965 23 16.6796 23 15.099C23 12.208 21.2186 9.44877 18.5659 8.36674C17.9601 8.11968 17.4725 7.83452 17.1511 7.43889L15.4825 5.38528C14.7704 4.50886 13.7013 4 12.5721 4H7.46208ZM7 14.5C5.89543 14.5 5 15.3954 5 16.5C5 17.6046 5.89543 18.5 7 18.5C8.10457 18.5 9 17.6046 9 16.5C9 15.3954 8.10457 14.5 7 14.5ZM17 14.5C15.8954 14.5 15 15.3954 15 16.5C15 17.6046 15.8954 18.5 17 18.5C18.1046 18.5 19 17.6046 19 16.5C19 15.3954 18.1046 14.5 17 14.5ZM11.9168 9.99984H13.9935C14.2007 9.99984 14.3179 10.2375 14.1919 10.4019L11.2431 14.2481C11.0869 14.4519 10.7618 14.3159 10.7971 14.0616L11.0835 11.9998H9.00681C8.79957 11.9998 8.68232 11.7622 8.80841 11.5977L11.7571 7.75157C11.9134 7.5478 12.2385 7.68374 12.2032 7.93808L11.9168 9.99984Z" fill="currentColor"/></g></svg>