<svg width="24px" height="24px" viewBox="0 0 24 24" fill="currentColor" xmlns="http://www.w3.org/2000/svg"><g><path fill-rule="evenodd" clip-rule="evenodd" d="M8.67639 4C7.37416 4 6.16516 4.67558 5.48267 5.78463L4.73561 6.9986C4.55101 7.29857 4.29857 7.55101 3.9986 7.73561L2.78463 8.48267C1.67558 9.16516 1 10.3742 1 11.6764V14.75C1 16.4005 2.23029 17.7636 3.82381 17.9723C4.37979 19.1697 5.59293 20 7 20C8.3962 20 9.60145 19.1825 10.1632 18H13.8368C14.3985 19.1825 15.6038 20 17 20C18.4232 20 19.648 19.1505 20.195 17.931C21.7951 17.6086 23 16.195 23 14.5V12.4825C23 10.682 21.7204 9.13563 19.9517 8.79874L18.3309 8.49003C17.7581 8.38092 17.25 8.05369 16.9138 7.57731L15.5092 5.58744C14.8065 4.59199 13.664 4 12.4455 4H8.67639ZM9 16.5C9 17.6046 8.10457 18.5 7 18.5C5.89543 18.5 5 17.6046 5 16.5C5 15.3954 5.89543 14.5 7 14.5C8.10457 14.5 9 15.3954 9 16.5ZM17 18.5C18.1046 18.5 19 17.6046 19 16.5C19 15.3954 18.1046 14.5 17 14.5C15.8954 14.5 15 15.3954 15 16.5C15 17.6046 15.8954 18.5 17 18.5Z" fill="currentColor"/></g></svg>