<svg width="24px" height="24px" viewBox="0 0 24 24" fill="currentColor" xmlns="http://www.w3.org/2000/svg"><g><path fill-rule="evenodd" clip-rule="evenodd" d="M5.48692 5.64134C6.18511 4.61459 7.34625 4 8.58789 4H15.4121C16.6538 4 17.8149 4.61459 18.5131 5.64134L21.137 9.5H22.2498C22.664 9.5 22.9998 9.83579 22.9998 10.25C22.9998 10.6642 22.664 11 22.2498 11H22V18.25C22 19.2165 21.2165 20 20.25 20H18.75C17.7835 20 17 19.2165 17 18.25V18H7V18.25C7 19.2165 6.2165 20 5.25 20H3.75C2.7835 20 2 19.2165 2 18.25V11H1.75C1.33579 11 1 10.6642 1 10.25C1 9.83579 1.33579 9.5 1.75 9.5H2.86303L5.48692 5.64134ZM8 13.25C8 13.6642 7.66421 14 7.25 14H5.75C5.33579 14 5 13.6642 5 13.25C5 12.8358 5.33579 12.5 5.75 12.5H7.25C7.66421 12.5 8 12.8358 8 13.25ZM19 13.25C19 13.6642 18.6642 14 18.25 14H16.75C16.3358 14 16 13.6642 16 13.25C16 12.8358 16.3358 12.5 16.75 12.5H18.25C18.6642 12.5 19 12.8358 19 13.25Z" fill="currentColor"/></g></svg>