<svg width="24px" height="24px" viewBox="0 0 24 24" fill="currentColor" xmlns="http://www.w3.org/2000/svg"><g><path fill-rule="evenodd" clip-rule="evenodd" d="M6.3078 4L11.4996 4C12.68 4 13.7914 4.55573 14.4997 5.5L15.8717 7.32937C16.2219 7.79631 16.7398 8.10889 17.3162 8.20111L19.8421 8.60525C21.6613 8.89633 22.9996 10.4658 22.9996 12.3082V15.25C22.9996 16.7688 21.7684 18 20.2496 18H20.1629C19.6012 19.1825 18.396 20 16.9998 20C15.6036 20 14.3983 19.1825 13.8366 18H10.1629C9.60121 19.1825 8.39595 20 6.99976 20C5.59126 20 4.37709 19.168 3.82188 17.9687C2.26527 17.7383 1.14691 16.27 1.40404 14.6629L2.6049 7.15754C2.89598 5.33832 4.46545 4 6.3078 4ZM4.99976 16.5C4.99976 15.3954 5.89519 14.5 6.99976 14.5C8.10433 14.5 8.99976 15.3954 8.99976 16.5C8.99976 17.6046 8.10433 18.5 6.99976 18.5C5.89519 18.5 4.99976 17.6046 4.99976 16.5ZM16.9998 14.5C15.8952 14.5 14.9998 15.3954 14.9998 16.5C14.9998 17.6046 15.8952 18.5 16.9998 18.5C18.1043 18.5 18.9998 17.6046 18.9998 16.5C18.9998 15.3954 18.1043 14.5 16.9998 14.5ZM11.9166 9.99984H13.9932C14.2004 9.99984 14.3177 10.2375 14.1916 10.4019L11.2429 14.2481C11.0867 14.4519 10.7615 14.3159 10.7969 14.0616L11.0832 11.9998H9.00656C8.79933 11.9998 8.68207 11.7622 8.80816 11.5977L11.7569 7.75158C11.9131 7.5478 12.2382 7.68374 12.2029 7.93808L11.9166 9.99984Z" fill="currentColor"/></g></svg>