<svg width="24px" height="24px" viewBox="0 0 24 24" fill="currentColor" xmlns="http://www.w3.org/2000/svg"><g><path fill-rule="evenodd" clip-rule="evenodd" d="M11 4C11.5523 4 12 4.44771 12 5V16.5H13.5V7C13.5 6.44772 13.9477 6 14.5 6H17.1445C18.3983 6.00003 19.5692 6.6267 20.2646 7.66992L22.3701 10.8281L22.5156 11.0645C22.8325 11.6256 23 12.2606 23 12.9082V15.25C23 16.7688 21.7688 18 20.25 18H20.1632C19.6015 19.1825 18.3962 20 17 20C15.6038 20 14.3985 19.1825 13.8368 18H10.1632C9.60145 19.1825 8.3962 20 7 20C5.6038 20 4.39855 19.1825 3.83682 18H3.75C2.23122 18 1 16.7688 1 15.25V7.75C1 5.67893 2.67893 4 4.75 4H11ZM9 16.5C9 15.3954 8.10457 14.5 7 14.5C5.89543 14.5 5 15.3954 5 16.5C5 17.6046 5.89543 18.5 7 18.5C8.10457 18.5 9 17.6046 9 16.5ZM19 16.5C19 15.3954 18.1046 14.5 17 14.5C15.8954 14.5 15 15.3954 15 16.5C15 17.6046 15.8954 18.5 17 18.5C18.1046 18.5 19 17.6046 19 16.5ZM8.77179 9.10367H6.87965L7.14057 7.25567C7.17275 7.02771 6.87652 6.90586 6.73417 7.08851L4.04743 10.5359C3.93255 10.6833 4.03939 10.8963 4.22821 10.8963H6.12034L5.85944 12.7443C5.82726 12.9723 6.12349 13.0941 6.26584 12.9115L8.95257 9.46409C9.06745 9.31668 8.96061 9.10367 8.77179 9.10367Z" fill="currentColor"/></g></svg>