<svg width="24px" height="24px" viewBox="0 0 24 24" fill="currentColor" xmlns="http://www.w3.org/2000/svg"><g><path fill-rule="evenodd" clip-rule="evenodd" d="M9.75 4C8.7835 4 8 4.7835 8 5.75V9H3.75C2.23122 9 1 10.2312 1 11.75V15.25C1 16.7688 2.23122 18 3.75 18H3.83682C4.39855 19.1825 5.6038 20 7 20C8.3962 20 9.60145 19.1825 10.1632 18H13.8368C14.3985 19.1825 15.6038 20 17 20C18.3962 20 19.6015 19.1825 20.1632 18H20.25C21.7688 18 23 16.7688 23 15.25V12.126C23 10.3859 21.8028 8.8743 20.1089 8.47573L18.8782 8.18616C18.593 8.11904 18.3404 7.95383 18.1645 7.71939L16.2 5.1C15.6807 4.40753 14.8656 4 14 4H9.75ZM5 16.5C5 15.3954 5.89543 14.5 7 14.5C8.10457 14.5 9 15.3954 9 16.5C9 17.6046 8.10457 18.5 7 18.5C5.89543 18.5 5 17.6046 5 16.5ZM15 16.5C15 15.3954 15.8954 14.5 17 14.5C18.1046 14.5 19 15.3954 19 16.5C19 17.6046 18.1046 18.5 17 18.5C15.8954 18.5 15 17.6046 15 16.5ZM13.8797 10.1037H15.7718C15.9606 10.1037 16.0675 10.3167 15.9526 10.4641L13.2658 13.9115C13.1235 14.0941 12.8273 13.9723 12.8594 13.7443L13.1203 11.8963H11.2282C11.0394 11.8963 10.9325 11.6833 11.0474 11.5359L13.7342 8.08851C13.8765 7.90586 14.1728 8.02771 14.1406 8.25567L13.8797 10.1037Z" fill="currentColor"/></g></svg>