<svg width="24px" height="24px" viewBox="0 0 24 24" fill="currentColor" xmlns="http://www.w3.org/2000/svg"><g><path fill-rule="evenodd" clip-rule="evenodd" d="M2.83075 6.00842C4.00216 4.70729 5.63653 4 7.46208 4H12.5721C13.7013 4 14.7704 4.50886 15.4825 5.38528L17.1511 7.43889C17.4725 7.83452 17.9601 8.11968 18.5659 8.36674C21.2186 9.44877 23 12.208 23 15.099C23 16.6796 21.7359 17.965 20.1635 17.9993C19.6019 19.1822 18.3965 20 17 20C15.6038 20 14.3985 19.1825 13.8368 18H10.1632C9.60145 19.1825 8.3962 20 7 20C5.59293 20 4.37979 19.1697 3.82381 17.9723C2.23029 17.7636 1 16.4005 1 14.75V11.3319C1 9.14028 1.66332 7.30514 2.83075 6.00842ZM5 16.5C5 15.3954 5.89543 14.5 7 14.5C8.10457 14.5 9 15.3954 9 16.5C9 17.6046 8.10457 18.5 7 18.5C5.89543 18.5 5 17.6046 5 16.5ZM15 16.5C15 15.3954 15.8954 14.5 17 14.5C18.1046 14.5 19 15.3954 19 16.5C19 17.6046 18.1046 18.5 17 18.5C15.8954 18.5 15 17.6046 15 16.5Z" fill="currentColor"/></g></svg>