<svg width="24px" height="24px" viewBox="0 0 24 24" fill="currentColor" xmlns="http://www.w3.org/2000/svg"><g><path fill-rule="evenodd" clip-rule="evenodd" d="M8.24264 4C7.24808 4 6.29425 4.39509 5.59099 5.09835L2.09835 8.59099C1.39509 9.29425 1 10.2481 1 11.2426V14.75C1 16.4005 2.23029 17.7636 3.82381 17.9723C4.37979 19.1697 5.59293 20 7 20C8.3962 20 9.60145 19.1825 10.1632 18H13.8368C14.3985 19.1825 15.6038 20 17 20C18.3962 20 19.6015 19.1825 20.1632 18H20.25C21.7688 18 23 16.7688 23 15.25V12.3696C23 10.6331 21.8078 9.12376 20.1186 8.72155L18.2284 8.2715C17.7172 8.1498 17.2648 7.85304 16.9495 7.43269L15.5 5.5C14.7918 4.55573 13.6803 4 12.5 4H8.24264ZM5 16.5C5 15.3954 5.89543 14.5 7 14.5C8.10457 14.5 9 15.3954 9 16.5C9 17.6046 8.10457 18.5 7 18.5C5.89543 18.5 5 17.6046 5 16.5ZM15 16.5C15 15.3954 15.8954 14.5 17 14.5C18.1046 14.5 19 15.3954 19 16.5C19 17.6046 18.1046 18.5 17 18.5C15.8954 18.5 15 17.6046 15 16.5ZM11.9168 9.99996H13.9935C14.2007 9.99996 14.3179 10.2376 14.1919 10.4021L11.2431 14.2482C11.0869 14.452 10.7618 14.3161 10.7971 14.0617L11.0835 12H9.00681C8.79957 12 8.68232 11.7623 8.80841 11.5979L11.7571 7.7517C11.9134 7.54792 12.2385 7.68387 12.2032 7.9382L11.9168 9.99996Z" fill="currentColor"/></g></svg>