<svg width="24px" height="24px" viewBox="0 0 24 24" fill="currentColor" xmlns="http://www.w3.org/2000/svg"><g><path fill-rule="evenodd" clip-rule="evenodd" d="M1 7.75C1 5.67894 2.67893 4 4.75 4L12.5 4C13.6803 4 14.7918 4.55573 15.5 5.5L16.9028 7.37041C17.2392 7.81897 17.731 8.12575 18.2818 8.23067L19.9517 8.54874C21.7204 8.88563 23 10.432 23 12.2325V15.25C23 16.7688 21.7688 18 20.25 18H20.1632C19.6015 19.1825 18.3962 20 17 20C15.6038 20 14.3985 19.1825 13.8368 18H10.1632C9.60145 19.1825 8.3962 20 7 20C5.6038 20 4.39855 19.1825 3.83682 18H3.75C2.23122 18 1 16.7688 1 15.25V7.75ZM7 14.5C5.89543 14.5 5 15.3954 5 16.5C5 17.6046 5.89543 18.5 7 18.5C8.10457 18.5 9 17.6046 9 16.5C9 15.3954 8.10457 14.5 7 14.5ZM17 14.5C15.8954 14.5 15 15.3954 15 16.5C15 17.6046 15.8954 18.5 17 18.5C18.1046 18.5 19 17.6046 19 16.5C19 15.3954 18.1046 14.5 17 14.5Z" fill="currentColor"/></g></svg>