<svg width="24px" height="24px" viewBox="0 0 24 24" fill="currentColor" xmlns="http://www.w3.org/2000/svg"><g><path fill-rule="evenodd" clip-rule="evenodd" d="M18.2432 4.00293C20.3138 4.00302 21.9926 5.68134 21.9932 7.75195L21.9951 16.252C21.9957 18.3234 20.3166 20.0029 18.2451 20.0029H5.75C3.67893 20.0029 2 18.324 2 16.2529V7.75293C2 5.68186 3.67893 4.00293 5.75 4.00293H18.2432ZM13.3818 8.33105C13.1253 8.00603 12.6533 7.95056 12.3281 8.20703C12.0033 8.46364 11.9477 8.93568 12.2041 9.26074C12.837 10.0633 13.2148 11.0757 13.2148 12.1777C13.2146 13.2797 12.837 14.2923 12.2041 15.0947C11.9482 15.4198 12.0034 15.891 12.3281 16.1475C12.6532 16.4037 13.1253 16.3482 13.3818 16.0234C14.2161 14.9658 14.7146 13.6286 14.7148 12.1777C14.7148 10.7267 14.2161 9.38882 13.3818 8.33105ZM10.5283 10.0088C10.2259 9.7259 9.75073 9.74158 9.46777 10.0439C9.18514 10.3464 9.20065 10.8216 9.50293 11.1045C9.79048 11.3735 9.96875 11.7544 9.96875 12.1777C9.96858 12.601 9.79048 12.982 9.50293 13.251C9.201 13.5339 9.18522 14.0082 9.46777 14.3105C9.75066 14.6127 10.2259 14.6293 10.5283 14.3467C11.1064 13.806 11.4686 13.0332 11.4688 12.1777C11.4688 11.3222 11.1064 10.5496 10.5283 10.0088Z" fill="currentColor"/></g></svg>