<svg width="24px" height="24px" viewBox="0 0 24 24" fill="currentColor" xmlns="http://www.w3.org/2000/svg"><g><path fill-rule="evenodd" clip-rule="evenodd" d="M5.85352 5C6.17998 3.84575 7.24122 3 8.5 3H15.5C16.7588 3 17.82 3.84575 18.1465 5H19.25C20.7688 5 22 6.23122 22 7.75V16.25C22 17.7688 20.7688 19 19.25 19H18.1465C17.82 20.1543 16.7588 21 15.5 21H8.5C7.24122 21 6.17998 20.1543 5.85352 19H4.75C3.23122 19 2 17.7688 2 16.25V7.75C2 6.23122 3.23122 5 4.75 5H5.85352ZM5.75 6.5H4.75C4.05964 6.5 3.5 7.05964 3.5 7.75V16.25C3.5 16.9404 4.05964 17.5 4.75 17.5H5.75V6.5ZM18.25 17.5H19.25C19.9404 17.5 20.5 16.9404 20.5 16.25V7.75C20.5 7.05964 19.9404 6.5 19.25 6.5H18.25V17.5Z" fill="currentColor"/></g></svg>