<svg width="24px" height="24px" viewBox="0 0 24 24" fill="currentColor" xmlns="http://www.w3.org/2000/svg"><g><path d="M13.9884 14.4899C14.1717 15.1742 13.8581 15.8527 13.2879 16.0055C12.7177 16.1583 12.1068 15.7275 11.9234 15.0432C11.7401 14.359 12.0537 13.6804 12.6239 13.5276C13.1941 13.3748 13.805 13.8057 13.9884 14.4899Z" fill="currentColor"/><path d="M17.0494 17.6534C17.7337 17.4701 18.1893 16.9516 18.0671 16.4955C17.9448 16.0393 17.2911 15.8181 16.6068 16.0015C15.9225 16.1848 15.4669 16.7032 15.5892 17.1594C15.7114 17.6156 16.3652 17.8367 17.0494 17.6534Z" fill="currentColor"/><path fill-rule="evenodd" clip-rule="evenodd" d="M3 6.75C3 4.67893 4.67893 3 6.75 3H17.25C19.3211 3 21 4.67893 21 6.75V17.25C21 19.3211 19.3211 21 17.25 21H6.75C4.67893 21 3 19.3211 3 17.25V6.75ZM14.4908 9.1564C13.6405 9.38423 12.8547 9.71647 12.1523 10.1283L8.74017 9.33604C8.39011 9.25475 8.07117 9.55828 8.13503 9.91193L8.85894 13.9206C8.54237 14.8441 8.4833 15.814 8.73631 16.7583C9.03717 17.8811 9.73835 18.8147 10.6997 19.5H17.2508C18.4934 19.5 19.5008 18.4926 19.5008 17.25V14.3404C19.4946 14.3422 19.4884 14.3439 19.4822 14.3456C18.912 14.4984 18.3011 14.0676 18.1178 13.3833C17.9344 12.699 18.2481 12.0205 18.8183 11.8677C19.0495 11.8057 19.2874 11.8398 19.5008 11.9477V6.99158C19.5008 6.77055 19.235 6.65826 19.0765 6.81232L17.0021 8.82886C16.1878 8.8234 15.3411 8.92856 14.4908 9.1564Z" fill="currentColor"/></g></svg>