<svg width="24px" height="24px" viewBox="0 0 24 24" fill="currentColor" xmlns="http://www.w3.org/2000/svg"><g><path fill-rule="evenodd" clip-rule="evenodd" d="M6.64125 9.29847C8.49624 7.44348 11.5038 7.44348 13.3588 9.29847L13.7019 9.64161C14.4775 10.4172 14.9295 11.3963 15.0562 12.4071C15.1076 12.8181 14.8162 13.1931 14.4052 13.2445C13.9942 13.296 13.6193 13.0046 13.5678 12.5936C13.4811 11.9019 13.1729 11.2339 12.6413 10.7023L12.2981 10.3591C11.0289 9.08993 8.97111 9.08992 7.70191 10.3591L4.35876 13.7023C3.08956 14.9715 3.08956 17.0293 4.35876 18.2985L4.70191 18.6416C5.97111 19.9108 8.02888 19.9108 9.29809 18.6416L9.46965 18.4701C9.76253 18.1772 10.2374 18.1771 10.5303 18.47C10.8232 18.7629 10.8232 19.2378 10.5303 19.5307L10.3588 19.7023C8.50379 21.5572 5.49624 21.5573 3.64125 19.7023L3.2981 19.3591C1.44311 17.5041 1.44311 14.4966 3.2981 12.6416L6.64125 9.29847Z" fill="currentColor"/><path fill-rule="evenodd" clip-rule="evenodd" d="M13.6412 5.29847C15.4962 3.44348 18.5037 3.44348 20.3587 5.29847L20.7019 5.64161C22.5568 7.4966 22.5568 10.5041 20.7019 12.3591L17.3587 15.7023C15.5037 17.5573 12.4962 17.5573 10.6412 15.7023L10.298 15.3591C9.52244 14.5835 9.07043 13.6044 8.9438 12.5936C8.89232 12.1826 9.18376 11.8077 9.59476 11.7562C10.0058 11.7047 10.3807 11.9961 10.4322 12.4071C10.5188 13.0988 10.8271 13.7668 11.3587 14.2985L11.7019 14.6416C12.9711 15.9108 15.0288 15.9108 16.298 14.6416L19.6412 11.2985C20.9104 10.0293 20.9104 7.97148 19.6412 6.70228L19.298 6.35913C18.0288 5.08993 15.9711 5.08993 14.7019 6.35913L14.5304 6.53063C14.2375 6.82356 13.7627 6.82362 13.4697 6.53077C13.1768 6.23791 13.1767 5.76304 13.4696 5.47011L13.6412 5.29847Z" fill="currentColor"/></g></svg>