<svg width="24px" height="24px" viewBox="0 0 24 24" fill="currentColor" xmlns="http://www.w3.org/2000/svg"><g><path fill-rule="evenodd" clip-rule="evenodd" d="M4.75 7.5C3.50736 7.5 2.5 8.50736 2.5 9.75V14.25C2.5 15.4926 3.50736 16.5 4.75 16.5H8.25C8.66421 16.5 9 16.8358 9 17.25C9 17.6642 8.66421 18 8.25 18H4.75C2.67893 18 1 16.3211 1 14.25V9.75C1 7.67893 2.67893 6 4.75 6H8.25C8.66421 6 9 6.33579 9 6.75C9 7.16421 8.66421 7.5 8.25 7.5H4.75ZM15 6.75C15 6.33579 15.3358 6 15.75 6H19.25C21.3211 6 23 7.67893 23 9.75V14.25C23 16.3211 21.3211 18 19.25 18H15.75C15.3358 18 15 17.6642 15 17.25C15 16.8358 15.3358 16.5 15.75 16.5H19.25C20.4926 16.5 21.5 15.4926 21.5 14.25V9.75C21.5 8.50736 20.4926 7.5 19.25 7.5H15.75C15.3358 7.5 15 7.16421 15 6.75ZM6 12C6 11.5858 6.33579 11.25 6.75 11.25H17.25C17.6642 11.25 18 11.5858 18 12C18 12.4142 17.6642 12.75 17.25 12.75H6.75C6.33579 12.75 6 12.4142 6 12Z" fill="currentColor"/></g></svg>