<svg width="24px" height="24px" viewBox="0 0 24 24" fill="currentColor" xmlns="http://www.w3.org/2000/svg"><g><path fill-rule="evenodd" clip-rule="evenodd" d="M5 5.75C5 3.67893 6.67893 2 8.75 2H15.25C17.3211 2 19 3.67893 19 5.75V7.25C19 8.88277 17.9565 10.2718 16.5 10.7866V13H19.25C19.6642 13 20 13.3358 20 13.75C20 14.1642 19.6642 14.5 19.25 14.5H19V21.25C19 21.6642 18.6642 22 18.25 22C17.8358 22 17.5 21.6642 17.5 21.25V18.75H6.5V21.25C6.5 21.6642 6.16421 22 5.75 22C5.33579 22 5 21.6642 5 21.25V14.5H4.75C4.33579 14.5 4 14.1642 4 13.75C4 13.3358 4.33579 13 4.75 13H7.5V10.7866C6.04351 10.2718 5 8.88277 5 7.25V5.75ZM9 11V13H15V11H9ZM17.5 14.5V17.25H6.5V14.5H17.5Z" fill="currentColor"/></g></svg>