<svg width="24px" height="24px" viewBox="0 0 24 24" fill="currentColor" xmlns="http://www.w3.org/2000/svg"><g><path fill-rule="evenodd" clip-rule="evenodd" d="M18.9125 5.08755C16.7957 2.97082 13.3638 2.97082 11.2471 5.08755L10.2806 6.05404C9.98771 6.34693 9.51283 6.34693 9.21994 6.05404C8.92705 5.76115 8.92705 5.28627 9.21994 4.99338L10.1864 4.02689C12.889 1.32437 17.2706 1.32437 19.9731 4.02689C22.6756 6.7294 22.6756 11.111 19.9731 13.8136L19.0045 14.7822C18.7116 15.0751 18.2367 15.0751 17.9438 14.7822C17.6509 14.4893 17.6509 14.0144 17.9438 13.7215L18.9125 12.7529C21.0292 10.6362 21.0292 7.20428 18.9125 5.08755ZM15.0303 8.96967C15.3232 9.26256 15.3232 9.73744 15.0303 10.0303L10.0303 15.0303C9.73744 15.3232 9.26256 15.3232 8.96967 15.0303C8.67678 14.7374 8.67678 14.2626 8.96967 13.9697L13.9697 8.96967C14.2626 8.67678 14.7374 8.67678 15.0303 8.96967ZM6.05919 9.2148C6.35208 9.50769 6.35208 9.98256 6.05919 10.2755L5.08755 11.2471C2.97082 13.3638 2.97082 16.7957 5.08755 18.9125C7.20428 21.0292 10.6362 21.0292 12.7529 18.9125L13.7174 17.9479C14.0103 17.655 14.4852 17.655 14.7781 17.9479C15.071 18.2408 15.071 18.7157 14.7781 19.0086L13.8136 19.9731C11.1111 22.6756 6.72941 22.6756 4.02689 19.9731C1.32437 17.2706 1.32437 12.889 4.02689 10.1864L4.99853 9.2148C5.29142 8.9219 5.76629 8.9219 6.05919 9.2148Z" fill="currentColor"/></g></svg>