<svg width="24px" height="24px" viewBox="0 0 24 24" fill="currentColor" xmlns="http://www.w3.org/2000/svg"><g><path d="M11.5 3.00098C10.3954 3.00098 9.5 3.89641 9.5 5.00098V19.001C9.5 20.1055 10.3954 21.001 11.5 21.001H12.5C13.6046 21.001 14.5 20.1055 14.5 19.001V5.00098C14.5 3.89641 13.6046 3.00098 12.5 3.00098H11.5Z" fill="currentColor"/><path d="M5 13.001C3.89543 13.001 3 13.8964 3 15.001V19.001C3 20.1055 3.89543 21.001 5 21.001H6C7.10457 21.001 8 20.1055 8 19.001V15.001C8 13.8964 7.10457 13.001 6 13.001H5Z" fill="currentColor"/><path d="M16 10.001C16 8.89641 16.8954 8.00098 18 8.00098H19C20.1046 8.00098 21 8.89641 21 10.001V19.001C21 20.1055 20.1046 21.001 19 21.001H18C16.8954 21.001 16 20.1055 16 19.001V10.001Z" fill="currentColor"/></g></svg>