<svg width="24px" height="24px" viewBox="0 0 24 24" fill="currentColor" xmlns="http://www.w3.org/2000/svg"><g><path d="M3.75 3C4.16421 3 4.5 3.33579 4.5 3.75V17.25C4.5 18.4926 5.50736 19.5 6.75 19.5H20.25C20.6642 19.5 21 19.8358 21 20.25C21 20.6642 20.6642 21 20.25 21H6.75C4.67893 21 3 19.3211 3 17.25V3.75C3 3.33579 3.33579 3 3.75 3Z" fill="currentColor"/><path d="M19.75 11C20.1642 11 20.5 11.3358 20.5 11.75V16.25C20.5 16.6642 20.1642 17 19.75 17C19.3358 17 19 16.6642 19 16.25V11.75C19 11.3358 19.3358 11 19.75 11Z" fill="currentColor"/><path d="M11.75 9C12.1642 9 12.5 9.33579 12.5 9.75V14.25C12.5 14.6642 12.1642 15 11.75 15C11.3358 15 11 14.6642 11 14.25V9.75C11 9.33579 11.3358 9 11.75 9Z" fill="currentColor"/><path d="M15.75 8C16.1642 8 16.5 8.33579 16.5 8.75V13.25C16.5 13.6642 16.1642 14 15.75 14C15.3358 14 15 13.6642 15 13.25V8.75C15 8.33579 15.3358 8 15.75 8Z" fill="currentColor"/><path d="M7.75 5C8.16421 5 8.5 5.33579 8.5 5.75V10.25C8.5 10.6642 8.16421 11 7.75 11C7.33579 11 7 10.6642 7 10.25V5.75C7 5.33579 7.33579 5 7.75 5Z" fill="currentColor"/></g></svg>