<svg width="24px" height="24px" viewBox="0 0 24 24" fill="currentColor" xmlns="http://www.w3.org/2000/svg"><g><path d="M16 5.00098C16 3.89641 16.8954 3.00098 18 3.00098H19C20.1046 3.00098 21 3.89641 21 5.00098V19.001C21 20.1055 20.1046 21.001 19 21.001H18C16.8954 21.001 16 20.1055 16 19.001V5.00098Z" fill="currentColor"/><path d="M11.5 8.50098C10.3954 8.50098 9.5 9.39641 9.5 10.501V19.001C9.5 20.1055 10.3954 21.001 11.5 21.001H12.5C13.6046 21.001 14.5 20.1055 14.5 19.001V10.501C14.5 9.39641 13.6046 8.50098 12.5 8.50098H11.5Z" fill="currentColor"/><path d="M5 14.001C3.89543 14.001 3 14.8964 3 16.001V19.001C3 20.1055 3.89543 21.001 5 21.001H6C7.10457 21.001 8 20.1055 8 19.001V16.001C8 14.8964 7.10457 14.001 6 14.001H5Z" fill="currentColor"/></g></svg>