<svg width="24px" height="24px" viewBox="0 0 24 24" fill="currentColor" xmlns="http://www.w3.org/2000/svg"><g><path d="M4.5 1.75098C4.5 1.33676 4.16421 1.00098 3.75 1.00098C3.33579 1.00098 3 1.33676 3 1.75098L3 22.251C3 22.6652 3.33579 23.001 3.75 23.001C4.16421 23.001 4.5 22.6652 4.5 22.251V21.001H18.999C20.1036 21.001 20.999 20.1055 20.999 19.001V18.001C20.999 16.8964 20.1036 16.001 18.999 16.001L4.5 16.001L4.5 14.501H13.499C14.6036 14.501 15.499 13.6055 15.499 12.501V11.501C15.499 10.3964 14.6036 9.50098 13.499 9.50098H4.5L4.5 8.00098H7.99902C9.10359 8.00098 9.99902 7.10555 9.99902 6.00098V5.00098C9.99902 3.89641 9.10359 3.00098 7.99902 3.00098L4.5 3.00098V1.75098Z" fill="currentColor"/></g></svg>