<svg width="24px" height="24px" viewBox="0 0 24 24" fill="currentColor" xmlns="http://www.w3.org/2000/svg"><g><path d="M13.4258 20.3809C13.8341 20.3122 14.2211 20.5878 14.29 20.9961C14.3588 21.4044 14.0832 21.7914 13.6748 21.8604C13.1298 21.9523 12.5702 22 12 22C11.4298 22 10.8702 21.9523 10.3252 21.8604C9.91684 21.7914 9.6412 21.4044 9.70996 20.9961C9.77886 20.5878 10.1659 20.3122 10.5742 20.3809C11.0372 20.459 11.5137 20.5 12 20.5C12.4863 20.5 12.9628 20.459 13.4258 20.3809Z" fill="currentColor"/><path d="M4.02051 16.7422C4.35812 16.5022 4.82643 16.5813 5.06641 16.9189C5.62014 17.6979 6.30205 18.3799 7.08105 18.9336C7.41867 19.1736 7.49779 19.6419 7.25781 19.9795C7.01785 20.3166 6.55032 20.3957 6.21289 20.1562C5.297 19.5052 4.49478 18.703 3.84375 17.7871C3.6043 17.4497 3.68344 16.9821 4.02051 16.7422Z" fill="currentColor"/><path d="M18.9336 16.9189C19.1736 16.5813 19.6419 16.5022 19.9795 16.7422C20.3166 16.9821 20.3957 17.4497 20.1562 17.7871C19.5052 18.703 18.703 19.5052 17.7871 20.1562C17.4497 20.3957 16.9821 20.3166 16.7422 19.9795C16.5022 19.6419 16.5813 19.1736 16.9189 18.9336C17.6979 18.3799 18.3799 17.6979 18.9336 16.9189Z" fill="currentColor"/><path d="M14.627 8.33301C14.8574 7.98889 15.3228 7.89661 15.667 8.12695C16.0111 8.35739 16.1034 8.82283 15.873 9.16699L11.1855 16.167C11.0605 16.3537 10.8584 16.4744 10.6348 16.4961C10.4112 16.5177 10.1897 16.4384 10.0312 16.2793L7.21875 13.4521C6.9267 13.1586 6.92733 12.6838 7.2207 12.3916C7.51434 12.0995 7.98911 12.1009 8.28125 12.3945L10.4482 14.5723L14.627 8.33301Z" fill="currentColor"/><path d="M2.13965 10.3252C2.20855 9.91684 2.59556 9.6412 3.00391 9.70996C3.41221 9.77886 3.68781 10.1659 3.61914 10.5742C3.54102 11.0372 3.5 11.5137 3.5 12C3.5 12.4863 3.54102 12.9628 3.61914 13.4258C3.68781 13.8341 3.41221 14.2211 3.00391 14.29C2.59556 14.3588 2.20855 14.0832 2.13965 13.6748C2.04769 13.1298 2 12.5702 2 12C2 11.4298 2.04769 10.8702 2.13965 10.3252Z" fill="currentColor"/><path d="M20.9961 9.70996C21.4044 9.6412 21.7914 9.91684 21.8604 10.3252C21.9523 10.8702 22 11.4298 22 12C22 12.5702 21.9523 13.1298 21.8604 13.6748C21.7914 14.0832 21.4044 14.3588 20.9961 14.29C20.5878 14.2211 20.3122 13.8341 20.3809 13.4258C20.459 12.9628 20.5 12.4863 20.5 12C20.5 11.5137 20.459 11.0372 20.3809 10.5742C20.3122 10.1659 20.5878 9.77885 20.9961 9.70996Z" fill="currentColor"/><path d="M6.21289 3.84375C6.55032 3.6043 7.01785 3.68344 7.25781 4.02051C7.49779 4.35812 7.41867 4.82643 7.08105 5.06641C6.30205 5.62015 5.62014 6.30205 5.06641 7.08105C4.82643 7.41867 4.35812 7.49779 4.02051 7.25781C3.68344 7.01785 3.6043 6.55032 3.84375 6.21289C4.49478 5.297 5.297 4.49478 6.21289 3.84375Z" fill="currentColor"/><path d="M16.7422 4.02051C16.9821 3.68344 17.4497 3.6043 17.7871 3.84375C18.703 4.49478 19.5052 5.297 20.1562 6.21289C20.3957 6.55032 20.3166 7.01785 19.9795 7.25781C19.6419 7.49779 19.1736 7.41867 18.9336 7.08105C18.3799 6.30205 17.6979 5.62014 16.9189 5.06641C16.5813 4.82643 16.5022 4.35812 16.7422 4.02051Z" fill="currentColor"/><path d="M12 2C12.5702 2 13.1298 2.04769 13.6748 2.13965C14.0832 2.20855 14.3588 2.59556 14.29 3.00391C14.2211 3.41221 13.8341 3.68781 13.4258 3.61914C12.9628 3.54102 12.4863 3.5 12 3.5C11.5137 3.5 11.0372 3.54102 10.5742 3.61914C10.1659 3.68781 9.77885 3.41221 9.70996 3.00391C9.6412 2.59556 9.91684 2.20855 10.3252 2.13965C10.8702 2.04769 11.4298 2 12 2Z" fill="currentColor"/></g></svg>