<svg width="24px" height="24px" viewBox="0 0 24 24" fill="currentColor" xmlns="http://www.w3.org/2000/svg"><g><path d="M5.83041 5.12432C7.72901 4.34796 10.0798 4 12 4C13.9202 4 16.271 4.34796 18.1696 5.12432C20.0115 5.87751 21.75 7.18243 21.75 9.25C21.75 9.66421 21.4142 10 21 10H3C2.58579 10 2.25 9.66421 2.25 9.25C2.25 7.18243 3.98848 5.87751 5.83041 5.12432Z" fill="currentColor"/><path d="M4.78846 13.0673C5.56385 12.7442 6.43615 12.7442 7.21154 13.0673C8.35615 13.5442 9.64385 13.5442 10.7885 13.0673C11.5638 12.7442 12.4362 12.7442 13.2115 13.0673C14.3562 13.5442 15.6438 13.5442 16.7885 13.0673C17.5638 12.7442 18.4362 12.7442 19.2115 13.0673C19.8162 13.3192 20.6847 13.4249 21.2494 13.425C21.6636 13.425 21.9995 13.0893 21.9995 12.6751C21.9996 12.2609 21.6638 11.925 21.2496 11.925C20.7947 11.9249 20.1435 11.8306 19.7885 11.6827C18.6438 11.2058 17.3562 11.2058 16.2115 11.6827C15.4362 12.0058 14.5638 12.0058 13.7885 11.6827C12.6438 11.2058 11.3562 11.2058 10.2115 11.6827C9.43615 12.0058 8.56385 12.0058 7.78846 11.6827C6.64385 11.2058 5.35615 11.2058 4.21154 11.6827C3.85634 11.8307 3.20506 11.925 2.75 11.925C2.33579 11.925 2 12.2608 2 12.675C2 13.0892 2.33579 13.425 2.75 13.425C3.31494 13.425 4.18366 13.3193 4.78846 13.0673Z" fill="currentColor"/><path d="M18.0999 20C18.6251 20 19.0634 20 19.4217 19.9712C19.7954 19.9412 20.1464 19.8763 20.4792 19.71C21.0119 19.4438 21.4438 19.0119 21.71 18.4792C21.8763 18.1464 21.9412 17.7954 21.9712 17.4217C22 17.0634 22 16.6251 22 16.0999V15.75C22 15.3358 21.6642 15 21.25 15H2.75C2.33579 15 2 15.3358 2 15.75V16.0999C1.99999 16.6251 1.99998 17.0634 2.02878 17.4217C2.0588 17.7954 2.1237 18.1464 2.29 18.4792C2.55618 19.0119 2.9881 19.4438 3.52081 19.71C3.85364 19.8763 4.20465 19.9412 4.57827 19.9712C4.93657 20 5.37492 20 5.90008 20H18.0999Z" fill="currentColor"/></g></svg>