<svg width="24px" height="24px" viewBox="0 0 24 24" fill="currentColor" xmlns="http://www.w3.org/2000/svg"><g><path fill-rule="evenodd" clip-rule="evenodd" d="M13.2517 4.78245C13.3139 2.68292 15.0354 1 17.15 1H18.25C19.2165 1 20 1.7835 20 2.75V3.85C20 6.00391 18.2539 7.75 16.1 7.75H15.3084C15.8769 8.8269 16.3205 9.99813 16.616 11.2843C17.788 10.9898 18.9953 11.0402 20.0002 11.6537C21.2926 12.4428 22 14.0055 22 16.2335C22 19.6097 19.2664 22 16 22C14.3604 22 12.8551 21.3978 11.7624 20.371C10.359 21.8292 8.20914 22.3849 6.11125 21.8228C4.2804 21.3322 3.09848 20.1952 2.49247 18.8259C1.89671 17.4797 1.87153 15.946 2.25573 14.628C2.637 13.32 3.45736 12.1152 4.67203 11.5509C5.76825 11.0417 7.04269 11.1182 8.34645 11.882L8.34774 11.8797C9.88702 9.16822 10.1086 6.06036 9.27541 2.94373C9.1919 2.63135 9.318 2.3006 9.5883 2.12311C9.85859 1.94562 10.2122 1.96135 10.4657 2.16214C11.4871 2.97125 12.4245 3.83696 13.2517 4.78245ZM9.91308 12.1359C10.3277 12.1862 10.7284 12.284 11.1028 12.4359C11.3598 12.1228 11.6595 11.8615 11.9998 11.6537C12.9104 11.0978 13.9871 11.0042 15.0533 11.2107C14.3751 8.62738 13.0119 6.5535 11.1504 4.74841C11.4554 7.28422 11.0972 9.81461 9.91308 12.1359Z" fill="currentColor"/></g></svg>