<svg width="24px" height="24px" viewBox="0 0 24 24" fill="currentColor" xmlns="http://www.w3.org/2000/svg"><g><path d="M22 17.0002C21.9999 19.2093 20.2091 21.0002 18 21.0002H6C3.9603 21.0002 2.27842 19.4732 2.03223 17.5002H15.25C15.6642 17.5002 15.9999 17.1643 16 16.7502C16 16.336 15.6642 16.0002 15.25 16.0002H2V12.5002H22V17.0002Z" fill="currentColor"/><path d="M12.71 2.80879C13.754 2.3407 15.0009 2.31785 16.0703 2.96015C19.0363 4.74179 20.8724 7.2224 21.9551 10.7033C21.9853 10.8005 21.999 10.9008 21.999 11.0002H2C2.0003 10.6865 2.14866 10.3833 2.41211 10.1916L6.23438 7.41035C6.91232 8.65525 8.2327 9.50019 9.75 9.50019C11.959 9.50019 13.7498 7.70918 13.75 5.50019C13.75 4.46406 13.3563 3.51929 12.71 2.80879Z" fill="currentColor"/><path d="M9.75 3.00019C11.1307 3.00019 12.25 4.11948 12.25 5.50019C12.2499 6.88083 11.1307 8.00019 9.75 8.00019C8.36934 8.00019 7.25009 6.88083 7.25 5.50019C7.25 4.11948 8.36929 3.00019 9.75 3.00019Z" fill="currentColor"/></g></svg>