<svg width="24px" height="24px" viewBox="0 0 24 24" fill="currentColor" xmlns="http://www.w3.org/2000/svg"><g><path fill-rule="evenodd" clip-rule="evenodd" d="M14.4695 7.46967C14.7624 7.17678 15.2372 7.17678 15.5301 7.46967L18.6463 10.5858C19.4273 11.3668 19.4273 12.6332 18.6463 13.4142L15.5301 16.5303C15.2372 16.8232 14.7624 16.8232 14.4695 16.5303C14.1766 16.2374 14.1766 15.7626 14.4695 15.4697L17.5856 12.3536C17.7809 12.1583 17.7809 11.8417 17.5856 11.6464L14.4695 8.53033C14.1766 8.23744 14.1766 7.76256 14.4695 7.46967ZM9.53014 7.46967C9.82304 7.76256 9.82304 8.23744 9.53014 8.53033L6.41403 11.6464C6.21876 11.8417 6.21876 12.1583 6.41402 12.3536L9.53014 15.4697C9.82303 15.7626 9.82303 16.2374 9.53014 16.5303C9.23725 16.8232 8.76237 16.8232 8.46948 16.5303L5.35336 13.4142C4.57231 12.6332 4.57232 11.3668 5.35337 10.5858L8.46948 7.46967C8.76238 7.17678 9.23725 7.17678 9.53014 7.46967Z" fill="currentColor"/></g></svg>