<svg width="24px" height="24px" viewBox="0 0 24 24" fill="currentColor" xmlns="http://www.w3.org/2000/svg"><g><path fill-rule="evenodd" clip-rule="evenodd" d="M3 6.75C3 4.67893 4.67893 3 6.75 3H17.25C19.3211 3 21 4.67893 21 6.75V17.25C21 19.3211 19.3211 21 17.25 21H6.75C4.67893 21 3 19.3211 3 17.25V6.75ZM8.5 19.5V18.75C8.5 18.3358 8.16421 18 7.75 18C7.33579 18 7 18.3358 7 18.75V19.5H6.75C5.50736 19.5 4.5 18.4926 4.5 17.25V6.75C4.5 5.50736 5.50736 4.5 6.75 4.5H7V5.25C7 5.66421 7.33579 6 7.75 6C8.16421 6 8.5 5.66421 8.5 5.25V4.5H11.25V5.25C11.25 5.66421 11.5858 6 12 6C12.4142 6 12.75 5.66421 12.75 5.25V4.5H15.5V5.25C15.5 5.66421 15.8358 6 16.25 6C16.6642 6 17 5.66421 17 5.25V4.5H17.25C18.4926 4.5 19.5 5.50736 19.5 6.75V17.25C19.5 18.4926 18.4926 19.5 17.25 19.5H17V18.75C17 18.3358 16.6642 18 16.25 18C15.8358 18 15.5 18.3358 15.5 18.75V19.5H12.75V18.75C12.75 18.3358 12.4142 18 12 18C11.5858 18 11.25 18.3358 11.25 18.75V19.5H8.5ZM7 9.75C7 8.7835 7.7835 8 8.75 8H15.25C16.2165 8 17 8.7835 17 9.75V14.25C17 15.2165 16.2165 16 15.25 16H8.75C7.7835 16 7 15.2165 7 14.25V9.75Z" fill="currentColor"/></g></svg>