<svg width="24px" height="24px" viewBox="0 0 24 24" fill="currentColor" xmlns="http://www.w3.org/2000/svg"><g><path fill-rule="evenodd" clip-rule="evenodd" d="M13.25 2C14.6888 2 15.9376 2.81079 16.5664 4H17.25C19.3211 4 21 5.67893 21 7.75V15.6074L20.5605 15.4385L19.9434 13.835C19.634 13.0308 18.8616 12.5 18 12.5C17.1922 12.5 16.463 12.9666 16.1201 13.6875L16.0566 13.835L15.4385 15.4385L13.835 16.0566C13.0308 16.366 12.5 17.1384 12.5 18C12.5 18.8616 13.0308 19.634 13.835 19.9434L15.4385 20.5605L15.9932 22H6.75C4.67893 22 3 20.3211 3 18.25V7.75C3 5.67893 4.67893 4 6.75 4H7.43359C8.06242 2.81079 9.31116 2 10.75 2H13.25ZM10.75 3.5C9.50736 3.5 8.5 4.50736 8.5 5.75V6.25C8.5 6.38807 8.61193 6.5 8.75 6.5H15.25C15.3881 6.5 15.5 6.38807 15.5 6.25V5.75C15.5 4.50736 14.4926 3.5 13.25 3.5H10.75Z" fill="currentColor"/><path d="M18 14C18.2409 14 18.4574 14.1482 18.5439 14.373L19.2402 16.1855C19.3418 16.4494 19.5506 16.6582 19.8145 16.7598L21.627 17.4561C21.8518 17.5426 22 17.7591 22 18C22 18.2409 21.8518 18.4574 21.627 18.5439L19.8145 19.2402C19.5506 19.3418 19.3418 19.5506 19.2402 19.8145L18.5439 21.627C18.4574 21.8518 18.2409 22 18 22C17.7591 22 17.5426 21.8518 17.4561 21.627L16.7598 19.8145C16.6582 19.5506 16.4494 19.3418 16.1855 19.2402L14.373 18.5439C14.1482 18.4574 14 18.2409 14 18C14 17.8194 14.0832 17.6525 14.2197 17.5439L14.293 17.4951L14.292 17.4941C14.3176 17.4794 14.3449 17.4669 14.373 17.4561L14.8643 17.2666L16.1855 16.7598L16.2812 16.7168C16.4996 16.6053 16.6708 16.4166 16.7598 16.1855L17.4561 14.373C17.5426 14.1482 17.7591 14 18 14Z" fill="currentColor"/></g></svg>