<svg width="24px" height="24px" viewBox="0 0 24 24" fill="currentColor" xmlns="http://www.w3.org/2000/svg"><g><path d="M12 9C12.4142 9 12.75 9.33579 12.75 9.75V11.6893L14.2803 13.2197C14.5732 13.5126 14.5732 13.9874 14.2803 14.2803C13.9874 14.5732 13.5126 14.5732 13.2197 14.2803L11.4697 12.5303C11.329 12.3897 11.25 12.1989 11.25 12V9.75C11.25 9.33579 11.5858 9 12 9Z" fill="currentColor"/><path fill-rule="evenodd" clip-rule="evenodd" d="M3 6.75C3 4.67893 4.67893 3 6.75 3H17.25C19.3211 3 21 4.67893 21 6.75V17.25C21 19.3211 19.3211 21 17.25 21H6.75C4.67893 21 3 19.3211 3 17.25V6.75ZM12 6.375C8.8934 6.375 6.375 8.8934 6.375 12C6.375 15.1066 8.8934 17.625 12 17.625C15.1066 17.625 17.625 15.1066 17.625 12C17.625 8.8934 15.1066 6.375 12 6.375Z" fill="currentColor"/></g></svg>