<svg width="24px" height="24px" viewBox="0 0 24 24" fill="currentColor" xmlns="http://www.w3.org/2000/svg"><g><path d="M5.75 4C3.67893 4 2 5.67893 2 7.75V10.0357C2 12.0228 3.54549 13.6489 5.5 13.7775V19.25C5.5 19.4975 5.62214 19.7291 5.82641 19.8689C6.29407 20.189 6.84771 19.8183 7.25254 19.5825C7.66787 19.3405 8.21967 18.9655 8.77247 18.4287C9.88719 17.3463 11 15.608 11 13.0357V7.74972C11 5.67856 9.32098 4 7.25 4H5.75Z" fill="currentColor"/><path d="M16.75 4C14.6789 4 13 5.67893 13 7.75V10.0357C13 12.0228 14.5455 13.6489 16.5 13.7775V19.25C16.5 19.4975 16.6221 19.7291 16.8264 19.8689C17.2941 20.189 17.8477 19.8183 18.2525 19.5825C18.6679 19.3405 19.2197 18.9655 19.7725 18.4287C20.8872 17.3463 22 15.608 22 13.0357V7.74972C22 5.67856 20.321 4 18.25 4H16.75Z" fill="currentColor"/></g></svg>