<svg width="24px" height="24px" viewBox="0 0 24 24" fill="currentColor" xmlns="http://www.w3.org/2000/svg"><g><path d="M9.45394 20.0002L16.8264 6.03125C17.9158 7.1453 18.6226 8.63499 18.7344 10.2879C21.1392 10.5878 23 12.6392 23 15.1252C23 17.8176 20.8174 20.0002 18.125 20.0002H9.45394Z" fill="currentColor"/><path d="M16.4133 3.60022C16.6066 3.2339 16.4664 2.7802 16.1001 2.58686C15.7337 2.39352 15.28 2.53376 15.0867 2.90008L14.2948 4.40048C13.5778 4.1413 12.8048 4.00015 12 4.00015C9.20241 4.00015 6.80396 5.70168 5.77996 8.12442C3.05102 8.6884 1 11.1042 1 14.0002C1 17.007 3.21185 19.4973 6.09728 19.9327L5.58671 20.9001C5.39337 21.2664 5.53361 21.7201 5.89993 21.9134C6.26626 22.1068 6.71995 21.9665 6.91329 21.6002L16.4133 3.60022Z" fill="currentColor"/></g></svg>