<svg width="24px" height="24px" viewBox="0 0 24 24" fill="currentColor" xmlns="http://www.w3.org/2000/svg"><g><path fill-rule="evenodd" clip-rule="evenodd" d="M12 4C15.5571 4 18.4918 6.65353 18.9385 10.0889C21.2512 10.5281 23 12.5594 23 15C23 17.7614 20.7614 20 18 20H7C3.68629 20 1 17.3137 1 14C1 11.1688 2.96013 8.79692 5.59766 8.16504C6.68528 5.7124 9.14173 4 12 4ZM15 11.7998C14.6134 11.7998 14.2998 12.1134 14.2998 12.5C14.2998 13.7701 13.27 14.7995 12 14.7998V14.332C11.9998 13.997 11.6124 13.8106 11.3506 14.0195L9.89062 15.1875C9.69046 15.3476 9.69046 15.6524 9.89062 15.8125L11.3506 16.9805C11.6124 17.1894 11.9998 17.003 12 16.668V16.2002C14.0432 16.1999 15.7002 14.5433 15.7002 12.5C15.7002 12.1136 15.3864 11.8001 15 11.7998ZM12.6494 8.01953C12.3876 7.81064 12.0002 7.99696 12 8.33203V8.7998C9.95655 8.7998 8.2998 10.4565 8.2998 12.5C8.2998 12.8866 8.6134 13.2002 9 13.2002C9.38638 13.1999 9.7002 12.8864 9.7002 12.5C9.7002 11.309 10.6047 10.3295 11.7646 10.2119L12 10.2002V10.668C12.0002 11.003 12.3876 11.1894 12.6494 10.9805L14.1094 9.8125C14.3095 9.65237 14.3095 9.34763 14.1094 9.1875L12.6494 8.01953Z" fill="currentColor"/></g></svg>