<svg width="24px" height="24px" viewBox="0 0 24 24" fill="currentColor" xmlns="http://www.w3.org/2000/svg"><g><path fill-rule="evenodd" clip-rule="evenodd" d="M10.4903 6.28083C9.98427 6.16249 9.45738 6.1 8.91667 6.1C5.09289 6.1 2 9.21544 2 13.05C2 16.8846 5.09289 20 8.91667 20H16.625C19.5973 20 22 17.5785 22 14.6C22 12.6634 20.985 10.9643 19.4597 10.0113C19.7703 9.36765 19.9444 8.64528 19.9444 7.88333C19.9444 5.19016 17.7719 3 15.0833 3C12.9547 3 11.1501 4.37275 10.4903 6.28083ZM11.9046 6.78036C13.0049 7.31064 13.9427 8.12396 14.6257 9.12541C14.7558 9.31606 15.0414 9.43061 15.3141 9.36192C15.7345 9.25603 16.1737 9.2 16.625 9.2C17.1313 9.2 17.622 9.27052 18.0876 9.40252C18.3159 8.94618 18.4444 8.43055 18.4444 7.88333C18.4444 6.01095 16.9358 4.5 15.0833 4.5C13.6134 4.5 12.3594 5.45155 11.9046 6.78036Z" fill="currentColor"/></g></svg>