<svg width="24px" height="24px" viewBox="0 0 24 24" fill="currentColor" xmlns="http://www.w3.org/2000/svg"><g><path d="M12 2.89941C15.6395 2.89941 18.6415 5.62 19.0898 9.1377C21.4574 9.57887 23.25 11.6549 23.25 14.1504C23.2497 16.9667 20.9667 19.2498 18.1504 19.25H17.6377C17.0856 19.25 16.638 18.8021 16.6377 18.25C16.6379 17.6979 17.0855 17.25 17.6377 17.25H18.1504C19.8621 17.2498 21.2497 15.8621 21.25 14.1504C21.25 12.4384 19.8623 11.051 18.1504 11.0508C17.5984 11.0508 17.1509 10.6027 17.1504 10.0508C17.1504 7.20651 14.8443 4.90039 12 4.90039C9.7448 4.90039 7.8253 6.35042 7.12891 8.37207C7.00569 8.72926 6.69187 8.9876 6.31738 9.03809C4.30349 9.30966 2.75019 11.0365 2.75 13.125C2.75026 15.403 4.59699 17.25 6.875 17.25H11.5859L9.79297 15.457C9.40244 15.0665 9.40244 14.4335 9.79297 14.043C10.1835 13.6524 10.8165 13.6524 11.207 14.043L14.707 17.543C15.0976 17.9335 15.0976 18.5665 14.707 18.957L11.207 22.457C10.8165 22.8476 10.1835 22.8476 9.79297 22.457C9.40244 22.0665 9.40244 21.4335 9.79297 21.043L11.5859 19.25H6.875C3.49242 19.25 0.750264 16.5075 0.75 13.125C0.750181 10.2302 2.75793 7.80619 5.45703 7.16602C6.56556 4.65506 9.07633 2.89941 12 2.89941Z" fill="currentColor"/></g></svg>