<svg width="24px" height="24px" viewBox="0 0 24 24" fill="currentColor" xmlns="http://www.w3.org/2000/svg"><g><path fill-rule="evenodd" clip-rule="evenodd" d="M1 14C1 17.3137 3.68629 20 7 20H17C20.3137 20 23 17.3137 23 14C23 11.342 21.2717 9.08774 18.8776 8.29963C18.5816 8.20219 18.3319 7.99536 18.1856 7.72017C17.0097 5.50705 14.6809 4 12 4C9.31914 4 6.99026 5.50705 5.81435 7.72017C5.66814 7.99536 5.41842 8.20219 5.12243 8.29963C2.72831 9.08774 1 11.342 1 14ZM15.5483 11.0117C15.8309 10.7089 15.8146 10.2343 15.5117 9.95171C15.2089 9.66908 14.7343 9.68545 14.4517 9.98826L10.3333 14.4008L8.54829 12.4883C8.26567 12.1854 7.79107 12.1691 7.48826 12.4517C7.18545 12.7343 7.16908 13.2089 7.45171 13.5117L9.78504 16.0117C9.92689 16.1637 10.1254 16.25 10.3333 16.25C10.5412 16.25 10.7398 16.1637 10.8816 16.0117L15.5483 11.0117Z" fill="currentColor"/></g></svg>