<svg width="24px" height="24px" viewBox="0 0 24 24" fill="currentColor" xmlns="http://www.w3.org/2000/svg"><g><path d="M9.28125 8.39062V9.28125H8.39062C7.89875 9.28125 7.5 8.8825 7.5 8.39062C7.5 7.89875 7.89875 7.5 8.39062 7.5C8.8825 7.5 9.28125 7.89875 9.28125 8.39062Z" fill="currentColor"/><path d="M10.7812 13.2188V10.7812H13.2188V13.2188H10.7812Z" fill="currentColor"/><path d="M8.39062 14.7188H9.28125V15.6094C9.28125 16.1013 8.8825 16.5 8.39062 16.5C7.89875 16.5 7.5 16.1013 7.5 15.6094C7.5 15.1175 7.89875 14.7188 8.39062 14.7188Z" fill="currentColor"/><path d="M14.7188 15.6094V14.7188H15.6094C16.1013 14.7188 16.5 15.1175 16.5 15.6094C16.5 16.1013 16.1013 16.5 15.6094 16.5C15.1175 16.5 14.7188 16.1013 14.7188 15.6094Z" fill="currentColor"/><path d="M15.6094 9.28125H14.7188V8.39062C14.7188 7.89875 15.1175 7.5 15.6094 7.5C16.1013 7.5 16.5 7.89875 16.5 8.39062C16.5 8.8825 16.1013 9.28125 15.6094 9.28125Z" fill="currentColor"/><path fill-rule="evenodd" clip-rule="evenodd" d="M4.75 3C3.7835 3 3 3.7835 3 4.75V19.25C3 20.2165 3.7835 21 4.75 21H19.25C20.2165 21 21 20.2165 21 19.25V4.75C21 3.7835 20.2165 3 19.25 3H4.75ZM8.39062 6C7.07032 6 6 7.07032 6 8.39062C6 9.71093 7.07032 10.7812 8.39062 10.7812H9.28125V13.2188H8.39062C7.07032 13.2188 6 14.2891 6 15.6094C6 16.9297 7.07032 18 8.39062 18C9.71093 18 10.7812 16.9297 10.7812 15.6094V14.7188H13.2188V15.6094C13.2188 16.9297 14.2891 18 15.6094 18C16.9297 18 18 16.9297 18 15.6094C18 14.2891 16.9297 13.2188 15.6094 13.2188H14.7188V10.7812H15.6094C16.9297 10.7812 18 9.71093 18 8.39062C18 7.07032 16.9297 6 15.6094 6C14.2891 6 13.2188 7.07032 13.2188 8.39062V9.28125H10.7812V8.39062C10.7812 7.07032 9.71093 6 8.39062 6Z" fill="currentColor"/></g></svg>