<svg width="24px" height="24px" viewBox="0 0 24 24" fill="currentColor" xmlns="http://www.w3.org/2000/svg"><g><path fill-rule="evenodd" clip-rule="evenodd" d="M4.75 3C5.16421 3 5.5 3.33579 5.5 3.75V4.26465C5.5015 4.284 5.50293 4.30351 5.50293 4.32324V6.75C5.50296 7.99261 6.51031 9 7.75293 9H13.082C13.4255 7.42756 14.8246 6.25 16.5 6.25C18.433 6.25 20 7.817 20 9.75C20 11.683 18.433 13.25 16.5 13.25C14.8246 13.25 13.4255 12.0724 13.082 10.5H7.75293C6.9072 10.5 6.12733 10.2194 5.5 9.74707V14.75C5.5 15.9926 6.50736 17 7.75 17H13.082C13.4255 15.4276 14.8246 14.25 16.5 14.25C18.433 14.25 20 15.817 20 17.75C20 19.683 18.433 21.25 16.5 21.25C14.8246 21.25 13.4255 20.0724 13.082 18.5H7.75C5.67893 18.5 4 16.8211 4 14.75V3.75C4 3.33579 4.33579 3 4.75 3Z" fill="currentColor"/></g></svg>