<svg width="24px" height="24px" viewBox="0 0 24 24" fill="currentColor" xmlns="http://www.w3.org/2000/svg"><g><path fill-rule="evenodd" clip-rule="evenodd" d="M2 4.75C2 4.33579 2.33579 4 2.75 4H13.2C13.6142 4 13.95 4.33579 13.95 4.75C13.95 5.16421 13.6142 5.5 13.2 5.5H2.75C2.33579 5.5 2 5.16421 2 4.75ZM17 4.75C17 4.33579 17.3358 4 17.75 4H21.25C21.6642 4 22 4.33579 22 4.75C22 5.16421 21.6642 5.5 21.25 5.5H17.75C17.3358 5.5 17 5.16421 17 4.75ZM2 12C2 11.5858 2.33579 11.25 2.75 11.25H8.25C8.66421 11.25 9 11.5858 9 12C9 12.4142 8.66421 12.75 8.25 12.75H2.75C2.33579 12.75 2 12.4142 2 12ZM12 12C12 11.5858 12.3358 11.25 12.75 11.25H21.25C21.6642 11.25 22 11.5858 22 12C22 12.4142 21.6642 12.75 21.25 12.75H12.75C12.3358 12.75 12 12.4142 12 12ZM2 19.25C2 18.8358 2.33579 18.5 2.75 18.5H10.25C10.6642 18.5 11 18.8358 11 19.25C11 19.6642 10.6642 20 10.25 20H2.75C2.33579 20 2 19.6642 2 19.25ZM14 19.25C14 18.8358 14.3358 18.5 14.75 18.5H21.25C21.6642 18.5 22 18.8358 22 19.25C22 19.6642 21.6642 20 21.25 20H14.75C14.3358 20 14 19.6642 14 19.25Z" fill="currentColor"/></g></svg>