<svg width="24px" height="24px" viewBox="0 0 24 24" fill="currentColor" xmlns="http://www.w3.org/2000/svg"><g><path fill-rule="evenodd" clip-rule="evenodd" d="M3 7C3 4.79086 4.79086 3 7 3H17C19.2091 3 21 4.79086 21 7V17C21 19.2091 19.2091 21 17 21H7C4.79086 21 3 19.2091 3 17V7ZM10.7803 8.46967C11.0732 8.76256 11.0732 9.23744 10.7803 9.53033L8.48744 11.8232C8.38981 11.9209 8.38981 12.0791 8.48744 12.1768L10.7803 14.4697C11.0732 14.7626 11.0732 15.2374 10.7803 15.5303C10.4874 15.8232 10.0126 15.8232 9.71967 15.5303L7.42678 13.2374C6.74336 12.554 6.74336 11.446 7.42678 10.7626L9.71967 8.46967C10.0126 8.17678 10.4874 8.17678 10.7803 8.46967ZM14.2803 8.46967C13.9874 8.17678 13.5126 8.17678 13.2197 8.46967C12.9268 8.76256 12.9268 9.23744 13.2197 9.53033L15.5126 11.8232C15.6102 11.9209 15.6102 12.0791 15.5126 12.1768L13.2197 14.4697C12.9268 14.7626 12.9268 15.2374 13.2197 15.5303C13.5126 15.8232 13.9874 15.8232 14.2803 15.5303L16.5732 13.2374C17.2566 12.554 17.2566 11.446 16.5732 10.7626L14.2803 8.46967Z" fill="currentColor"/></g></svg>