<svg width="24px" height="24px" viewBox="0 0 24 24" fill="currentColor" xmlns="http://www.w3.org/2000/svg"><g><path d="M7.71967 5.21967C8.01256 4.92678 8.48732 4.92678 8.78022 5.21967C9.07305 5.51257 9.07309 5.98734 8.78022 6.28022L3.06049 11.9999L8.78022 17.7197C9.07305 18.0126 9.07309 18.4873 8.78022 18.7802C8.48734 19.0731 8.01257 19.0731 7.71967 18.7802L1.46967 12.5302C1.17678 12.2373 1.17678 11.7626 1.46967 11.4697L7.71967 5.21967Z" fill="currentColor"/><path d="M15.2197 5.21967C15.5126 4.92678 15.9873 4.92678 16.2802 5.21967L22.5302 11.4697C22.8231 11.7626 22.8231 12.2373 22.5302 12.5302L16.2802 18.7802C15.9873 19.0731 15.5126 19.0731 15.2197 18.7802C14.9268 18.4873 14.9268 18.0126 15.2197 17.7197L20.9394 11.9999L15.2197 6.28022C14.9268 5.98732 14.9268 5.51256 15.2197 5.21967Z" fill="currentColor"/></g></svg>