<svg width="24px" height="24px" viewBox="0 0 24 24" fill="currentColor" xmlns="http://www.w3.org/2000/svg"><g><path d="M21.9917 8.85354C21.9118 8.33327 21.3324 8.05313 20.9328 7.79299C20.2135 7.31275 19.5142 6.85251 18.7949 6.37226C17.0965 5.23167 15.3782 4.09108 13.6799 2.95049C13.2803 2.69036 12.8807 2.41021 12.4811 2.15008C12.2013 1.94997 11.8217 1.94997 11.522 2.15008C10.3831 2.91047 9.22426 3.69087 8.08538 4.45127L3.05033 7.813C2.61076 8.09315 2.03133 8.37329 2.01135 8.9736C1.99137 9.63395 2.01135 10.3143 2.01135 10.9746V14.1763C2.01135 14.7566 1.89147 15.4369 2.43094 15.7971C3.70968 16.6776 5.00841 17.518 6.30713 18.3785C7.90556 19.439 9.50399 20.5196 11.1024 21.5801C11.542 21.8803 11.9816 22.2004 12.521 21.8403C12.9806 21.5401 13.4201 21.2399 13.8797 20.9398C15.6579 19.7592 17.4362 18.5586 19.2145 17.3779L21.1925 16.0573C21.3124 15.9772 21.4523 15.8972 21.5721 15.7971C21.8519 15.597 21.9717 15.3169 21.9717 14.9767V9.47386C21.9917 9.25375 22.0117 9.05365 21.9917 8.85354C21.9917 8.89356 21.9917 8.83353 21.9917 8.85354ZM12.8607 4.47128L19.5941 8.9736L16.597 10.9946L12.8607 8.49336V4.47128ZM11.1424 4.47128V8.47335L7.42603 10.9746L4.40899 8.9736L11.1424 4.47128ZM3.72966 10.5744L5.86756 12.0152L3.72966 13.4559V10.5744ZM11.1424 19.5591L4.40899 15.0567L7.40605 13.0357L11.1224 15.537V19.5591H11.1424ZM12.0015 14.0562L8.96452 12.0152L12.0015 9.97412L15.0386 12.0152L12.0015 14.0562ZM12.8607 19.5591V15.557L16.577 13.0557L19.5741 15.0768L12.8607 19.5591ZM20.2734 13.4559L18.1355 12.0152L20.2934 10.5744L20.2734 13.4559Z" fill="currentColor"/></g></svg>