<svg width="24px" height="24px" viewBox="0 0 24 24" fill="currentColor" xmlns="http://www.w3.org/2000/svg"><g><path fill-rule="evenodd" clip-rule="evenodd" d="M7.26577 7.20385C7.5674 7.48774 7.58179 7.9624 7.2979 8.26403L3.94295 11.8287C3.85235 11.9249 3.85235 12.0751 3.94295 12.1713L7.2979 15.736C7.58179 16.0376 7.5674 16.5123 7.26577 16.7962C6.96414 17.08 6.48949 17.0657 6.2056 16.764L2.85065 13.1994C2.21645 12.5256 2.21645 11.4745 2.85065 10.8006L6.2056 7.23598C6.48949 6.93435 6.96414 6.91996 7.26577 7.20385ZM16.7377 7.20385C17.0394 6.91996 17.514 6.93435 17.7979 7.23598L21.1529 10.8006C21.7871 11.4745 21.7871 12.5256 21.1529 13.1994L17.7979 16.764C17.514 17.0657 17.0394 17.08 16.7377 16.7962C16.4361 16.5123 16.4217 16.0376 16.7056 15.736L20.0606 12.1713C20.1512 12.0751 20.1512 11.9249 20.0606 11.8287L16.7056 8.26403C16.4217 7.9624 16.4361 7.48774 16.7377 7.20385Z" fill="currentColor"/></g></svg>