<svg width="24px" height="24px" viewBox="0 0 24 24" fill="currentColor" xmlns="http://www.w3.org/2000/svg"><g><path d="M14 19C14 20.1046 11.3137 21 8 21C4.68629 21 2 20.1046 2 19V16.2666C2.39455 16.5005 2.83555 16.6877 3.2832 16.8369C4.55936 17.2623 6.22682 17.5 8 17.5C9.77318 17.5 11.4406 17.2623 12.7168 16.8369C13.1645 16.6877 13.6055 16.5005 14 16.2666V19Z" fill="currentColor"/><path d="M22 15C22 16.1046 19.3137 17 16 17C15.7802 17 15.5633 16.995 15.3496 16.9873V13.8965L15.3457 13.8984C15.3387 13.7531 15.3158 13.6156 15.2822 13.4854C15.5191 13.494 15.7585 13.5 16 13.5C17.7732 13.5 19.4406 13.2623 20.7168 12.8369C21.1645 12.6877 21.6055 12.5005 22 12.2666V15Z" fill="currentColor"/><path d="M8 12C11.3137 12 14 12.8954 14 14C14 15.1046 11.3137 16 8 16C4.68629 16 2 15.1046 2 14C2 12.8954 4.68629 12 8 12Z" fill="currentColor"/><path d="M22 10C22 11.1046 19.3137 12 16 12C15.2796 12 14.5892 11.9545 13.9492 11.877C13.561 11.643 13.1213 11.4551 12.6699 11.3047C12.0427 11.0956 11.3175 10.9315 10.5293 10.8203C10.1899 10.5696 10 10.2929 10 10V7.2666C10.3945 7.50053 10.8355 7.6877 11.2832 7.83691C12.5594 8.26229 14.2268 8.5 16 8.5C17.7732 8.5 19.4406 8.26229 20.7168 7.83691C21.1645 7.6877 21.6055 7.50053 22 7.2666V10Z" fill="currentColor"/><path d="M16 3C19.3137 3 22 3.89543 22 5C22 6.10457 19.3137 7 16 7C12.6863 7 10 6.10457 10 5C10 3.89543 12.6863 3 16 3Z" fill="currentColor"/></g></svg>