<svg width="24px" height="24px" viewBox="0 0 24 24" fill="currentColor" xmlns="http://www.w3.org/2000/svg"><g><path fill-rule="evenodd" clip-rule="evenodd" d="M12 2C17.5228 2 22 6.47715 22 12C22 17.5228 17.5228 22 12 22C6.47715 22 2 17.5228 2 12C2 6.47715 6.47715 2 12 2ZM9.75 7C9.33579 7 9 7.33579 9 7.75C9 8.16421 9.33579 8.5 9.75 8.5H11.75C12.7293 8.5 13.56 9.12657 13.8691 10H7.75C7.33579 10 7 10.3358 7 10.75C7 11.1642 7.33579 11.5 7.75 11.5H13.8691C13.56 12.3734 12.7293 13 11.75 13H9.75C9.41964 13 9.12813 13.2161 9.03223 13.5322C8.93645 13.8485 9.05899 14.1907 9.33398 14.374L13.834 17.374L13.9004 17.4131C14.2363 17.5907 14.6587 17.489 14.874 17.166C15.0894 16.8429 15.0209 16.4136 14.7275 16.1719L14.666 16.126L12.1875 14.4736C13.8033 14.2858 15.1056 13.0717 15.4248 11.5H16.25C16.6642 11.5 17 11.1642 17 10.75C17 10.3358 16.6642 10 16.25 10H15.4248C15.0773 8.28834 13.5642 7 11.75 7H9.75Z" fill="currentColor"/></g></svg>