<svg width="24px" height="24px" viewBox="0 0 24 24" fill="currentColor" xmlns="http://www.w3.org/2000/svg"><g><path d="M21.6959 13.7188C21.5406 13.335 21.1032 13.1497 20.7193 13.3048L16.3248 15.0812C15.7591 15.3098 15.3103 15.7586 15.0816 16.3243L13.3053 20.7188C13.1501 21.1028 13.3354 21.5401 13.7193 21.6954C14.1033 21.8505 14.5406 21.6652 14.6959 21.2813L16.4723 16.8858C16.5485 16.6974 16.6979 16.548 16.8863 16.4718L21.2818 14.6954C21.6656 14.5401 21.851 14.1028 21.6959 13.7188Z" fill="currentColor"/><path d="M6.52889 3.69345C4.78124 3.12665 3.12716 4.78075 3.69393 6.52842L7.49276 18.2394C8.14506 20.2496 10.9582 20.3327 11.7281 18.3644L13.4742 13.8995C13.5505 13.7047 13.7052 13.5499 13.9 13.4737L18.3648 11.7276C20.3329 10.9576 20.2499 8.14463 18.2398 7.49228L6.52889 3.69345Z" fill="currentColor"/></g></svg>