<svg width="24px" height="24px" viewBox="0 0 24 24" fill="currentColor" xmlns="http://www.w3.org/2000/svg"><g><path d="M2.30433 13.7188C2.4596 13.335 2.89698 13.1497 3.28089 13.3048L7.67542 15.0812C8.24115 15.3098 8.68993 15.7586 8.91859 16.3243L10.695 20.7188C10.8501 21.1028 10.6648 21.5401 10.2809 21.6954C9.89695 21.8505 9.45959 21.6652 9.30433 21.2813L7.52796 16.8858C7.45173 16.6974 7.30231 16.548 7.1139 16.4718L2.71839 14.6954C2.33462 14.5401 2.14918 14.1028 2.30433 13.7188Z" fill="currentColor"/><path d="M17.4713 3.69345C19.219 3.12665 20.8731 4.78075 20.3063 6.52842L16.5075 18.2394C15.8552 20.2496 13.042 20.3327 12.2721 18.3644L10.526 13.8995C10.4498 13.7047 10.295 13.5499 10.1002 13.4737L5.63539 11.7276C3.66728 10.9576 3.75033 8.14463 5.76039 7.49228L17.4713 3.69345Z" fill="currentColor"/></g></svg>