<svg width="24px" height="24px" viewBox="0 0 24 24" fill="currentColor" xmlns="http://www.w3.org/2000/svg"><g><path fill-rule="evenodd" clip-rule="evenodd" d="M12 2C17.5228 2 22 6.47715 22 12C22 12.5967 21.9467 13.1818 21.8457 13.75C21.6201 15.0173 20.4653 15.75 19.3213 15.75H14C13.3096 15.75 12.75 16.3096 12.75 17V19.25C12.75 20.7115 11.5134 22.1323 9.85449 21.7695C5.36285 20.7873 2 16.7871 2 12C2 6.47715 6.47715 2 12 2ZM6.9502 11.7998C6.25984 11.7998 5.7002 12.3594 5.7002 13.0498C5.7002 13.7402 6.25984 14.2998 6.9502 14.2998C7.64055 14.2998 8.2002 13.7402 8.2002 13.0498C8.2002 12.3594 7.64055 11.7998 6.9502 11.7998ZM17.1504 9.2002C16.46 9.2002 15.9004 9.75984 15.9004 10.4502C15.9007 11.1403 16.4602 11.7002 17.1504 11.7002C17.8404 11.6999 18.4001 11.1402 18.4004 10.4502C18.4004 9.76 17.8405 9.20046 17.1504 9.2002ZM8.15039 6.7002C7.46003 6.7002 6.90039 7.25984 6.90039 7.9502C6.90052 8.64044 7.46012 9.2002 8.15039 9.2002C8.84044 9.19993 9.40026 8.64028 9.40039 7.9502C9.40039 7.26 8.84052 6.70046 8.15039 6.7002ZM13.25 5.5C12.5596 5.5 12 6.05964 12 6.75C12 7.44036 12.5596 8 13.25 8C13.9404 8 14.5 7.44036 14.5 6.75C14.5 6.05964 13.9404 5.5 13.25 5.5Z" fill="currentColor"/></g></svg>