<svg width="24px" height="24px" viewBox="0 0 24 24" fill="currentColor" xmlns="http://www.w3.org/2000/svg"><g><path fill-rule="evenodd" clip-rule="evenodd" d="M2 12C2 6.71457 6.51697 2.5 12 2.5C17.483 2.5 22 6.71457 22 12C22 13.8878 21.4937 15.1519 20.4345 15.8123C19.4491 16.4266 18.2002 16.3605 17.1496 16.2236C16.7813 16.1757 16.397 16.1121 16.0307 16.0515C15.8617 16.0235 15.6965 15.9962 15.5384 15.9713C15.0184 15.8895 14.5499 15.8295 14.1335 15.8234C13.298 15.8112 12.8925 16.0091 12.671 16.4526C12.539 16.7171 12.5395 17.0363 12.6858 17.4705C12.8149 17.8538 13.0214 18.2277 13.2435 18.63C13.2828 18.7012 13.3226 18.7734 13.3626 18.8465C13.4857 19.0721 13.6169 19.3217 13.7077 19.5624C13.7926 19.7875 13.8875 20.117 13.8161 20.466C13.7303 20.8858 13.4434 21.1713 13.0891 21.3241C12.7768 21.4588 12.3992 21.5 12 21.5C6.51697 21.5 2 17.2854 2 12ZM10.25 6.25C9.42157 6.25 8.75 6.92157 8.75 7.75C8.75 8.57843 9.42157 9.25 10.25 9.25C11.0784 9.25 11.75 8.57843 11.75 7.75C11.75 6.92157 11.0784 6.25 10.25 6.25ZM7.25 10.5C6.42157 10.5 5.75 11.1716 5.75 12C5.75 12.8284 6.42157 13.5 7.25 13.5C8.07843 13.5 8.75 12.8284 8.75 12C8.75 11.1716 8.07843 10.5 7.25 10.5ZM15.25 7.75C14.4216 7.75 13.75 8.42157 13.75 9.25C13.75 10.0784 14.4216 10.75 15.25 10.75C16.0784 10.75 16.75 10.0784 16.75 9.25C16.75 8.42157 16.0784 7.75 15.25 7.75Z" fill="currentColor"/></g></svg>