<svg width="24px" height="24px" viewBox="0 0 24 24" fill="currentColor" xmlns="http://www.w3.org/2000/svg"><g><path fill-rule="evenodd" clip-rule="evenodd" d="M11.9996 2C9.05028 2 6.65784 4.39493 6.65784 7.35116C6.65784 8.12673 6.82218 8.86229 7.11732 9.52606C7.81846 11.1029 9.25792 12.2762 10.9929 12.6075C11.1528 12.3056 11.3356 12.0178 11.539 11.7466C12.7226 10.1688 14.6088 9.14617 16.7336 9.14617C16.8333 9.14617 16.9325 9.14842 17.0312 9.15289C17.2319 8.59048 17.3413 7.98414 17.3413 7.35116C17.3413 4.39493 14.9489 2 11.9996 2ZM12.7193 19.1794C13.6991 20.2965 15.1344 21 16.7336 21C19.6829 21 22.0753 18.6051 22.0753 15.6488C22.0753 12.8993 20.0052 10.6345 17.3429 10.3321C17.1432 10.3094 16.9399 10.2977 16.7336 10.2977C15.1344 10.2977 13.6991 11.0012 12.7193 12.1183C12.9014 12.3999 13.0624 12.6966 13.2 13.0061C13.5594 13.8143 13.7588 14.709 13.7588 15.6488C13.7588 16.9496 13.3769 18.1625 12.7193 19.1794ZM12.2972 13.8471C12.4979 14.4095 12.6073 15.0159 12.6073 15.6488C12.6073 16.8546 12.2099 17.9657 11.539 18.8601C10.5633 20.1608 9.01222 21 7.26558 21C4.31627 21 1.92383 18.6051 1.92383 15.6488C1.92383 13.0377 3.79085 10.8637 6.25894 10.3925C7.23864 12.2434 9.08541 13.565 11.2602 13.8121C11.5031 13.8397 11.7498 13.8538 11.9996 13.8538C12.0993 13.8538 12.1985 13.8516 12.2972 13.8471Z" fill="currentColor"/></g></svg>