<svg width="24px" height="24px" viewBox="0 0 24 24" fill="currentColor" xmlns="http://www.w3.org/2000/svg"><g><path d="M18.25 5.5H12.75V19.25C12.75 19.6642 12.4142 20 12 20H5.75C3.67893 20 2 18.3211 2 16.25V7.75C2 5.67893 3.67893 4 5.75 4H18.25C20.3211 4 22 5.67893 22 7.75V10.25C22 10.6642 21.6642 11 21.25 11C20.8358 11 20.5 10.6642 20.5 10.25V7.75C20.5 6.50736 19.4926 5.5 18.25 5.5Z" fill="currentColor"/><path d="M17.2803 14.2197C16.9874 13.9268 16.5126 13.9268 16.2197 14.2197C15.9268 14.5126 15.9268 14.9874 16.2197 15.2803L17.9393 17L16.2197 18.7197C15.9268 19.0126 15.9268 19.4874 16.2197 19.7803C16.5126 20.0732 16.9874 20.0732 17.2803 19.7803L19 18.0607L20.7197 19.7803C21.0126 20.0732 21.4874 20.0732 21.7803 19.7803C22.0732 19.4874 22.0732 19.0126 21.7803 18.7197L20.0607 17L21.7803 15.2803C22.0732 14.9874 22.0732 14.5126 21.7803 14.2197C21.4874 13.9268 21.0126 13.9268 20.7197 14.2197L19 15.9393L17.2803 14.2197Z" fill="currentColor"/></g></svg>