<svg width="24px" height="24px" viewBox="0 0 24 24" fill="currentColor" xmlns="http://www.w3.org/2000/svg"><g><path d="M18.25 5.5H12.75V19.25C12.75 19.6642 12.4142 20 12 20H5.75C3.67893 20 2 18.3211 2 16.25V7.75C2 5.67893 3.67893 4 5.75 4H18.25C20.3211 4 22 5.67893 22 7.75V10.25C22 10.6642 21.6642 11 21.25 11C20.8358 11 20.5 10.6642 20.5 10.25V7.75C20.5 6.50736 19.4926 5.5 18.25 5.5Z" fill="currentColor"/><path d="M19.75 13.75C19.75 13.3358 19.4142 13 19 13C18.5858 13 18.25 13.3358 18.25 13.75V16.25H15.75C15.3358 16.25 15 16.5858 15 17C15 17.4142 15.3358 17.75 15.75 17.75H18.25V20.25C18.25 20.6642 18.5858 21 19 21C19.4142 21 19.75 20.6642 19.75 20.25V17.75H22.25C22.6642 17.75 23 17.4142 23 17C23 16.5858 22.6642 16.25 22.25 16.25H19.75V13.75Z" fill="currentColor"/></g></svg>