<svg width="24px" height="24px" viewBox="0 0 24 24" fill="currentColor" xmlns="http://www.w3.org/2000/svg"><g><path d="M5.75 4C3.67893 4 2 5.67893 2 7.75V16.25C2 18.3211 3.67893 20 5.75 20H11.25C11.6642 20 12 19.6642 12 19.25C12 18.8358 11.6642 18.5 11.25 18.5H5.75C4.50736 18.5 3.5 17.4926 3.5 16.25V12.75H21.25C21.6642 12.75 22 12.4142 22 12V7.75C22 5.67893 20.3211 4 18.25 4H5.75Z" fill="currentColor"/><path d="M19.5 16.25C19.5 15.8358 19.1642 15.5 18.75 15.5C18.3358 15.5 18 15.8358 18 16.25V18.5H15.75C15.3358 18.5 15 18.8358 15 19.25C15 19.6642 15.3358 20 15.75 20H18V22.25C18 22.6642 18.3358 23 18.75 23C19.1642 23 19.5 22.6642 19.5 22.25V20H21.75C22.1642 20 22.5 19.6642 22.5 19.25C22.5 18.8358 22.1642 18.5 21.75 18.5H19.5V16.25Z" fill="currentColor"/></g></svg>