<svg width="24px" height="24px" viewBox="0 0 24 24" fill="currentColor" xmlns="http://www.w3.org/2000/svg"><g><path d="M3.75 3C4.16421 3 4.5 3.33579 4.5 3.75V9.85938L6.94629 7.97168C7.8335 7.28696 8.98072 7.03448 10.0732 7.28418L12.4355 7.8252C12.9526 7.94344 13.4951 7.87451 13.9668 7.63184L19.4072 4.83301C19.7755 4.64375 20.2275 4.78901 20.417 5.15723C20.6063 5.52549 20.461 5.97754 20.0928 6.16699L14.6533 8.96582C13.8673 9.37027 12.9633 9.48415 12.1016 9.28711L9.73926 8.74707C9.08371 8.59716 8.39566 8.74836 7.86328 9.15918L4.70801 11.5938C4.64369 11.6434 4.57259 11.6773 4.5 11.7031V17.25C4.5 18.4926 5.50736 19.5 6.75 19.5H20.75C21.1642 19.5 21.5 19.8358 21.5 20.25C21.5 20.6642 21.1642 21 20.75 21H6.75C4.67893 21 3 19.3211 3 17.25V3.75C3 3.33579 3.33579 3 3.75 3Z" fill="currentColor"/><path d="M7.75 12C8.16421 12 8.5 12.3358 8.5 12.75V17.25C8.5 17.6642 8.16421 18 7.75 18C7.33579 18 7 17.6642 7 17.25V12.75C7 12.3358 7.33579 12 7.75 12Z" fill="currentColor"/><path d="M12.75 13C13.1642 13 13.5 13.3358 13.5 13.75V17.25C13.5 17.6642 13.1642 18 12.75 18C12.3358 18 12 17.6642 12 17.25V13.75C12 13.3358 12.3358 13 12.75 13Z" fill="currentColor"/><path d="M17.75 11C18.1642 11 18.5 11.3358 18.5 11.75V17.25C18.5 17.6642 18.1642 18 17.75 18C17.3358 18 17 17.6642 17 17.25V11.75C17 11.3358 17.3358 11 17.75 11Z" fill="currentColor"/></g></svg>