<svg width="24px" height="24px" viewBox="0 0 24 24" fill="currentColor" xmlns="http://www.w3.org/2000/svg"><g><path fill-rule="evenodd" clip-rule="evenodd" d="M3 6.75C3 4.67893 4.67893 3 6.75 3H17.25C19.3211 3 21 4.67893 21 6.75V17.25C21 19.3211 19.3211 21 17.25 21H6.75C4.67893 21 3 19.3211 3 17.25V6.75ZM14.5572 8.36844C15.2104 8.1903 15.8097 8.78965 15.6316 9.44283L14.5122 13.5474C14.3841 14.0171 14.0171 14.384 13.5474 14.5121L9.44286 15.6316C8.78968 15.8097 8.19033 15.2103 8.36847 14.5572L9.48789 10.4526C9.61599 9.98291 9.98294 9.61596 10.4527 9.48786L14.5572 8.36844Z" fill="currentColor"/></g></svg>