<svg width="24px" height="24px" viewBox="0 0 24 24" fill="currentColor" xmlns="http://www.w3.org/2000/svg"><g><path fill-rule="evenodd" clip-rule="evenodd" d="M2 12C2 6.47715 6.47715 2 12 2C17.5228 2 22 6.47715 22 12C22 17.5228 17.5228 22 12 22C6.47715 22 2 17.5228 2 12ZM14.5565 8.36774C15.2096 8.18959 15.809 8.78895 15.6309 9.44213L14.5114 13.5467C14.3833 14.0164 14.0164 14.3833 13.5467 14.5114L9.44213 15.6309C8.78894 15.809 8.18959 15.2096 8.36774 14.5565L9.48716 10.4519C9.61526 9.98221 9.98221 9.61526 10.4519 9.48715L14.5565 8.36774Z" fill="currentColor"/></g></svg>