<svg width="24px" height="24px" viewBox="0 0 24 24" fill="currentColor" xmlns="http://www.w3.org/2000/svg"><g><path d="M13.2373 2.17663C12.5539 1.49321 11.4458 1.49321 10.7624 2.17663L8.42663 4.51241C7.74321 5.19583 7.74321 6.30387 8.42663 6.98729L10.7624 9.32307C11.4458 10.0065 12.5539 10.0065 13.2373 9.32307L15.5731 6.98729C16.2565 6.30387 16.2565 5.19583 15.5731 4.51241L13.2373 2.17663Z" fill="currentColor"/><path d="M6.98729 8.42663C6.30387 7.74321 5.19583 7.74321 4.51241 8.42663L2.17663 10.7624C1.49321 11.4458 1.49321 12.5539 2.17663 13.2373L4.51241 15.5731C5.19583 16.2565 6.30387 16.2565 6.98729 15.5731L9.32307 13.2373C10.0065 12.5539 10.0065 11.4458 9.32307 10.7624L6.98729 8.42663Z" fill="currentColor"/><path d="M19.4873 8.42663C18.8039 7.74321 17.6958 7.74321 17.0124 8.42663L14.6766 10.7624C13.9932 11.4458 13.9932 12.5539 14.6766 13.2373L17.0124 15.5731C17.6958 16.2565 18.8039 16.2565 19.4873 15.5731L21.8231 13.2373C22.5065 12.5539 22.5065 11.4458 21.8231 10.7624L19.4873 8.42663Z" fill="currentColor"/><path d="M13.2373 14.6766C12.5539 13.9932 11.4458 13.9932 10.7624 14.6766L8.42663 17.0124C7.74321 17.6958 7.74321 18.8039 8.42663 19.4873L10.7624 21.8231C11.4458 22.5065 12.5539 22.5065 13.2373 21.8231L15.5731 19.4873C16.2565 18.8039 16.2565 17.6958 15.5731 17.0124L13.2373 14.6766Z" fill="currentColor"/></g></svg>