<svg width="24px" height="24px" viewBox="0 0 24 24" fill="currentColor" xmlns="http://www.w3.org/2000/svg"><g><path d="M20.8586 1.88481C21.1981 1.9457 21.4241 2.27076 21.3634 2.61039L20.2375 8.9102C21.046 8.92239 21.8156 9.49092 21.9289 10.3965C22.0008 10.9725 21.7679 11.5446 21.3146 11.9073L17.8429 14.6846C17.3094 15.1115 16.9984 15.7582 16.9982 16.4414V20.25C16.9982 20.6643 16.6624 21 16.2482 21H7.74821C7.33408 20.9999 6.99821 20.6642 6.99821 20.25V16.4414C6.99805 15.7581 6.68708 15.1115 6.15349 14.6846L2.68181 11.9073C2.22862 11.5446 1.99564 10.9725 2.06755 10.3965C2.22314 9.15208 3.61828 8.54015 4.65056 9.14067C5.51892 9.64595 6.75123 10.3047 8.0822 10.835C9.42466 11.3699 10.8091 11.75 11.9982 11.75C13.1873 11.75 14.5717 11.3699 15.9142 10.835C17.0238 10.3929 18.0633 9.85871 18.882 9.40141C18.8826 9.39757 18.8823 9.39353 18.883 9.38969L20.133 2.38969C20.1939 2.05023 20.519 1.82427 20.8586 1.88481Z" fill="currentColor"/><path d="M11.9982 3.00004C13.9312 3.00004 15.4982 4.56708 15.4982 6.50004C15.4982 8.43304 13.9312 10 11.9982 10C10.0653 9.99995 8.49821 8.43298 8.49821 6.50004C8.49825 4.56714 10.0653 3.00014 11.9982 3.00004Z" fill="currentColor"/></g></svg>