<svg width="24px" height="24px" viewBox="0 0 24 24" fill="currentColor" xmlns="http://www.w3.org/2000/svg"><g><path d="M17 3C19.2091 3 21 4.79086 21 7C21 9.20914 19.2091 11 17 11C16.1663 11 15.3928 10.744 14.752 10.3076L10.3076 14.752C10.744 15.3928 11 16.1663 11 17C11 19.2091 9.20914 21 7 21C4.79086 21 3 19.2091 3 17C3 14.7909 4.79086 13 7 13C7.83325 13 8.60649 13.2555 9.24707 13.6914L13.6914 9.24707C13.2555 8.60649 13 7.83325 13 7C13 4.79086 14.7909 3 17 3Z" fill="currentColor"/><path d="M17 13C19.2091 13 21 14.7909 21 17C21 19.2091 19.2091 21 17 21C14.7909 21 13 19.2091 13 17C13 14.7909 14.7909 13 17 13Z" fill="currentColor"/><path d="M7 3C9.20914 3 11 4.79086 11 7C11 9.20914 9.20914 11 7 11C4.79086 11 3 9.20914 3 7C3 4.79086 4.79086 3 7 3Z" fill="currentColor"/></g></svg>