<svg width="24px" height="24px" viewBox="0 0 24 24" fill="currentColor" xmlns="http://www.w3.org/2000/svg"><g><path d="M14 4.75C14 3.7835 13.2165 3 12.25 3H11.75C10.7835 3 10 3.7835 10 4.75V14.5H14V4.75Z" fill="currentColor"/><path d="M3 12.5C3 8.77087 5.26806 5.57145 8.5 4.20593V14.5H3V12.5Z" fill="currentColor"/><path d="M21 14.5V12.5C21 8.77087 18.7319 5.57145 15.5 4.20593V14.5H21Z" fill="currentColor"/><path d="M2 17.25C2 16.5596 2.55964 16 3.25 16H20.75C21.4404 16 22 16.5596 22 17.25V18.75C22 19.4404 21.4404 20 20.75 20H3.25C2.55964 20 2 19.4404 2 18.75V17.25Z" fill="currentColor"/></g></svg>