<svg width="24px" height="24px" viewBox="0 0 24 24" fill="currentColor" xmlns="http://www.w3.org/2000/svg"><g><path fill-rule="evenodd" clip-rule="evenodd" d="M17.25 3C19.3211 3 21 4.67893 21 6.75V15.6074L20.5605 15.4385L19.9434 13.835C19.634 13.0308 18.8616 12.5 18 12.5C17.1922 12.5 16.463 12.9666 16.1201 13.6875L16.0566 13.835L15.4385 15.4385L13.835 16.0566C13.0308 16.366 12.5 17.1384 12.5 18C12.5 18.8616 13.0308 19.634 13.835 19.9434L15.4385 20.5605L15.6074 21H6.75C4.67893 21 3 19.3211 3 17.25V6.75C3 4.67893 4.67893 3 6.75 3H17.25ZM7.78027 6.21973C7.48738 5.92683 7.01262 5.92683 6.71973 6.21973C6.42683 6.51262 6.42683 6.98738 6.71973 7.28027L7.93945 8.5L6.71973 9.71973C6.42683 10.0126 6.42683 10.4874 6.71973 10.7803C7.01262 11.0732 7.48738 11.0732 7.78027 10.7803L9.53027 9.03027C9.82317 8.73738 9.82317 8.26262 9.53027 7.96973L7.78027 6.21973ZM10.75 9.5C10.3358 9.5 10 9.83579 10 10.25C10 10.6642 10.3358 11 10.75 11H12.75C13.1642 11 13.5 10.6642 13.5 10.25C13.5 9.83579 13.1642 9.5 12.75 9.5H10.75Z" fill="currentColor"/><path d="M14.373 17.4561C14.345 17.4669 14.3185 17.4805 14.293 17.4951L14.292 17.4941C14.3176 17.4794 14.3449 17.4669 14.373 17.4561L14.8643 17.2666L16.1855 16.7598L14.373 17.4561Z" fill="currentColor"/><path d="M19.2405 16.1852L18.5436 14.3733C18.4571 14.1484 18.241 14 18 14C17.759 14 17.5429 14.1484 17.4564 14.3733L16.7595 16.1852C16.658 16.4493 16.4496 16.6582 16.1855 16.7598L14.373 17.4561C14.1481 17.5426 14 17.759 14 18C14 18.241 14.1484 18.4571 14.3733 18.5436L16.1852 19.2405C16.4493 19.342 16.658 19.5507 16.7595 19.8148L17.4564 21.6267C17.5429 21.8516 17.759 22 18 22C18.241 22 18.4571 21.8516 18.5436 21.6267L19.2405 19.8148C19.342 19.5507 19.5507 19.342 19.8148 19.2405L21.6267 18.5436C21.8516 18.4571 22 18.241 22 18C22 17.759 21.8516 17.5429 21.6267 17.4564L19.8148 16.7595C19.5507 16.658 19.342 16.4493 19.2405 16.1852Z" fill="currentColor"/></g></svg>