<svg width="24px" height="24px" viewBox="0 0 24 24" fill="currentColor" xmlns="http://www.w3.org/2000/svg"><g><path fill-rule="evenodd" clip-rule="evenodd" d="M4 5.75C4 3.67893 5.67893 2 7.75 2H19.25C19.6642 2 20 2.33579 20 2.75V18.75C20 19.1642 19.6642 19.5 19.25 19.5H6C5.72386 19.5 5.5 19.7239 5.5 20C5.5 20.2761 5.72386 20.5 6 20.5H19.25C19.6642 20.5 20 20.8358 20 21.25C20 21.6642 19.6642 22 19.25 22H6C4.89543 22 4 21.1046 4 20V5.75ZM10.25 9.25C10.25 8.2835 11.0335 7.5 12 7.5C12.9665 7.5 13.75 8.2835 13.75 9.25C13.75 10.2165 12.9665 11 12 11C11.0335 11 10.25 10.2165 10.25 9.25ZM14.25 14.5H9.75C9.51229 14.5 8.39548 13.931 9.43125 12.55C9.88322 11.9474 10.692 11.5 12 11.5C13.308 11.5 14.1168 11.9474 14.5688 12.55C15.6045 13.931 14.4877 14.5 14.25 14.5Z" fill="currentColor"/></g></svg>