<svg width="24px" height="24px" viewBox="0 0 24 24" fill="currentColor" xmlns="http://www.w3.org/2000/svg"><g><path fill-rule="evenodd" clip-rule="evenodd" d="M3 6.75C3 4.67893 4.67893 3 6.75 3H17.25C19.3211 3 21 4.67893 21 6.75V17.25C21 19.3211 19.3211 21 17.25 21H6.75C4.67893 21 3 19.3211 3 17.25V6.75ZM14.5303 7.21967C14.2374 6.92678 13.7626 6.92678 13.4697 7.21967L11.2197 9.46967C10.9268 9.76256 10.9268 10.2374 11.2197 10.5303C11.5126 10.8232 11.9874 10.8232 12.2803 10.5303L14 8.81066L15.7197 10.5303C16.0126 10.8232 16.4874 10.8232 16.7803 10.5303C17.0732 10.2374 17.0732 9.76256 16.7803 9.46967L14.5303 7.21967Z" fill="currentColor"/></g></svg>