<svg width="24px" height="24px" viewBox="0 0 24 24" fill="currentColor" xmlns="http://www.w3.org/2000/svg"><g><path d="M15.0893 2.01881L13.1887 9.10067C13.898 9.56435 14.3188 10.3692 14.5328 11.1246C14.8202 12.1388 14.8304 13.3467 14.5384 14.4366C14.2463 15.5265 13.6335 16.5675 12.8775 17.3022C12.1532 18.0061 11.0916 18.6098 9.95773 18.306C8.82385 18.0022 8.20633 16.9485 7.93102 15.9768C7.64366 14.9625 7.63345 13.7546 7.92548 12.6647C8.21751 11.5748 8.83032 10.5338 9.58632 9.79915C10.1439 9.2573 10.9013 8.7748 11.7378 8.71996L13.6406 1.63C13.7479 1.22994 14.1593 0.992671 14.5593 1.10004C14.9594 1.20741 15.1967 1.61875 15.0893 2.01881Z" fill="currentColor"/><path d="M17.3176 12.7687C16.9038 12.7495 16.5528 13.0693 16.5336 13.4831C16.5143 13.8969 16.8341 14.2479 17.2479 14.2671C18.3597 14.3188 19.3858 14.4863 20.1094 14.7614C20.9032 15.063 20.9993 15.3488 21 15.4519C21.0013 15.6484 20.9094 15.8612 20.5754 16.1058C20.2293 16.3593 19.7054 16.5789 19.059 16.7549C17.7753 17.1044 16.2418 17.2216 15.3366 17.2452C14.9226 17.256 14.5956 17.6004 14.6064 18.0144C14.6172 18.4285 14.9616 18.7555 15.3757 18.7447C16.3309 18.7198 18.0013 18.5974 19.453 18.2022C20.1743 18.0058 20.9009 17.7267 21.4617 17.316C22.0345 16.8964 22.5057 16.2796 22.5 15.4416C22.4922 14.3122 21.5049 13.6871 20.6423 13.3592C19.7096 13.0047 18.5064 12.824 17.3176 12.7687Z" fill="currentColor"/><path d="M5.51393 14.9152C5.90891 14.7905 6.12796 14.3691 6.0032 13.9742C5.87843 13.5792 5.4571 13.3601 5.06212 13.4849C4.15441 13.7716 3.28703 14.1699 2.63401 14.7337C1.96365 15.3124 1.50005 16.0871 1.5 17.0658C1.49992 18.7083 2.71829 19.8072 4.1878 20.5054C5.67877 21.2138 7.6547 21.6321 9.68878 21.8413C11.7346 22.0517 13.8963 22.0563 15.792 21.905C17.6668 21.7553 19.3568 21.4476 20.4195 20.9937C20.8005 20.8311 20.9774 20.3904 20.8147 20.0094C20.652 19.6285 20.2113 19.4516 19.8304 19.6143C18.9973 19.9701 17.505 20.2634 15.6727 20.4097C13.8614 20.5543 11.7912 20.5497 9.84227 20.3492C7.88154 20.1475 6.09965 19.7531 4.83153 19.1506C3.54196 18.5378 2.99996 17.8275 3 17.0659C3.00002 16.6171 3.19554 16.2305 3.61423 15.8691C4.05026 15.4926 4.70186 15.1718 5.51393 14.9152Z" fill="currentColor"/></g></svg>