<svg width="24px" height="24px" viewBox="0 0 24 24" fill="currentColor" xmlns="http://www.w3.org/2000/svg"><g><path d="M3 20.25V16.5498C3 14.3221 2.99926 12.606 3.11133 11.2344C3.22412 9.85405 3.4553 8.75631 3.9541 7.77734L4.11719 7.47266C4.96144 5.96607 6.23401 4.74056 7.77734 3.9541L8.15039 3.7793C9.03524 3.39937 10.0265 3.21003 11.2344 3.11133C12.606 2.99926 14.3221 3 16.5498 3H20.25C20.6642 3 21 3.33579 21 3.75C21 4.16421 20.6642 4.5 20.25 4.5H16.5498C14.2973 4.5 12.6528 4.50053 11.3564 4.60645C10.2297 4.69852 9.41653 4.86743 8.74023 5.1582L8.45898 5.29004C7.18007 5.94168 6.12536 6.95761 5.42578 8.20605L5.29004 8.45898C4.91707 9.19116 4.71164 10.0692 4.60645 11.3564C4.50053 12.6528 4.5 14.2973 4.5 16.5498V20.25C4.5 20.6642 4.16421 21 3.75 21C3.33579 21 3 20.6642 3 20.25Z" fill="currentColor"/></g></svg>