<svg width="24px" height="24px" viewBox="0 0 24 24" fill="currentColor" xmlns="http://www.w3.org/2000/svg"><g><path d="M20.25 19.4998C20.6641 19.4998 20.9999 19.8357 21 20.2498C20.9999 20.664 20.6642 20.9998 20.25 20.9998H3.75C3.33583 20.9998 3.00007 20.664 3 20.2498C3.00012 19.8357 3.33586 19.4998 3.75 19.4998H20.25Z" fill="currentColor"/><path d="M11.2881 2.19613C11.7499 2.04221 12.2501 2.04221 12.7119 2.19613L19.4619 4.44613C20.3805 4.75245 20.9999 5.61262 21 6.58089V7.74984C21 8.99244 19.9926 9.99984 18.75 9.99984V17.7498C18.7499 18.164 18.4142 18.4998 18 18.4998C17.5858 18.4998 17.2501 18.164 17.25 17.7498V9.99984H14.75V17.7498C14.7499 18.164 14.4142 18.4998 14 18.4998C13.5858 18.4998 13.2501 18.164 13.25 17.7498V9.99984H10.75V17.7498C10.7499 18.164 10.4142 18.4998 10 18.4998C9.58583 18.4998 9.25007 18.164 9.25 17.7498V9.99984H6.75V17.7498C6.74993 18.164 6.41417 18.4998 6 18.4998C5.58583 18.4998 5.25007 18.164 5.25 17.7498V9.99984C4.00739 9.99984 3.00005 8.99244 3 7.74984V6.58089C3.0001 5.61262 3.61955 4.75245 4.53809 4.44613L11.2881 2.19613Z" fill="currentColor"/></g></svg>