<svg width="24px" height="24px" viewBox="0 0 24 24" fill="currentColor" xmlns="http://www.w3.org/2000/svg"><g><path fill-rule="evenodd" clip-rule="evenodd" d="M13.4903 2.54952C12.567 2.02109 11.433 2.02109 10.5097 2.54952L4.50974 5.98373C3.57605 6.51814 3 7.5116 3 8.58741V15.4109C3 16.4867 3.57605 17.4802 4.50974 18.0146L10.5097 21.4488C11.433 21.9772 12.567 21.9772 13.4903 21.4488L19.4903 18.0146C20.424 17.4802 21 16.4867 21 15.4109V8.58741C21 7.5116 20.424 6.51814 19.4903 5.98373L13.4903 2.54952ZM17.4294 12.5723H18.9444V11.6284H17.4294V10.1196H16.4844V11.6284H14.9619V12.5723H16.4844V14.0736H17.4294V12.5723ZM14.2314 12.5723H12.7164V14.0736H11.7714V12.5723H10.2489V11.6284H11.7714V10.1196H12.7164V11.6284H14.2314V12.5723ZM7.47519 13.6723C6.72519 13.6723 6.19269 13.0182 6.19269 12C6.19269 10.9818 6.72519 10.3277 7.47519 10.3277C8.03019 10.3277 8.42769 10.677 8.55519 11.2419L9.73269 10.8554C9.40269 9.88176 8.63769 9.25 7.48269 9.25C6.00519 9.25 4.94019 10.3872 4.94019 12C4.94019 13.6128 6.00519 14.75 7.48269 14.75C8.63769 14.75 9.40269 14.1182 9.73269 13.1446L8.55519 12.7581C8.42769 13.323 8.03019 13.6723 7.47519 13.6723Z" fill="currentColor"/></g></svg>