<svg width="24px" height="24px" viewBox="0 0 24 24" fill="currentColor" xmlns="http://www.w3.org/2000/svg"><g><path d="M2 7.75293C2 5.68186 3.67893 4.00293 5.75 4.00293H18.2461C20.3172 4.00293 21.9961 5.68186 21.9961 7.75293L21.9955 9H2V7.75293Z" fill="currentColor"/><path d="M2 10.5V16.2461C2 18.3172 3.67893 19.9961 5.75 19.9961L14.0001 19.9961L14 17.25C14 16.0074 15.0074 15 16.25 15H17V14.25C17 13.0074 18.0074 12 19.25 12L21.9941 12L21.9948 10.5H2Z" fill="currentColor"/><path d="M20 14.25C20 13.8358 19.6642 13.5 19.25 13.5C18.8358 13.5 18.5 13.8358 18.5 14.25V16.5H16.25C15.8358 16.5 15.5 16.8358 15.5 17.25C15.5 17.6642 15.8358 18 16.25 18H18.5V20.25C18.5 20.6642 18.8358 21 19.25 21C19.6642 21 20 20.6642 20 20.25V18H22.25C22.6642 18 23 17.6642 23 17.25C23 16.8358 22.6642 16.5 22.25 16.5H20V14.25Z" fill="currentColor"/></g></svg>