<svg width="24px" height="24px" viewBox="0 0 24 24" fill="currentColor" xmlns="http://www.w3.org/2000/svg"><g><path d="M5.75 4.00293C3.67893 4.00293 2 5.68186 2 7.75293V9H21.9955L21.9961 7.75293C21.9961 5.68186 20.3172 4.00293 18.2461 4.00293H5.75Z" fill="currentColor"/><path fill-rule="evenodd" clip-rule="evenodd" d="M2 16.2461V10.5H21.9948L21.9922 16.2461C21.9919 18.317 20.3131 19.9961 18.2422 19.9961L5.75 19.9961C3.67893 19.9961 2 18.3172 2 16.2461ZM6.75 12.5C6.33579 12.5 6 12.8358 6 13.25C6 13.6642 6.33579 14 6.75 14H9.75C10.1642 14 10.5 13.6642 10.5 13.25C10.5 12.8358 10.1642 12.5 9.75 12.5H6.75Z" fill="currentColor"/></g></svg>