<svg width="24px" height="24px" viewBox="0 0 24 24" fill="currentColor" xmlns="http://www.w3.org/2000/svg"><g><path d="M21.0859 15.8496C21.4903 15.761 21.8896 16.0167 21.9785 16.4209C22.067 16.8253 21.8116 17.2256 21.4072 17.3145C20.3634 17.5435 19.5397 18.3686 19.3125 19.4131C19.2241 19.8171 18.8252 20.074 18.4209 19.9863C18.0163 19.8983 17.7599 19.4983 17.8477 19.0938C18.1995 17.4764 19.4697 16.2043 21.0859 15.8496Z" fill="currentColor"/><path d="M21.167 12.7979C21.5784 12.7508 21.95 13.0465 21.9971 13.458C22.0437 13.8691 21.7489 14.2408 21.3379 14.2881C18.694 14.591 16.5933 16.6898 16.2881 19.333C16.2403 19.7441 15.8682 20.0396 15.457 19.9922C15.0459 19.9446 14.7508 19.5722 14.7979 19.1611C15.183 15.8253 17.8303 13.1801 21.167 12.7979Z" fill="currentColor"/><path d="M21.9941 11C17.0276 11.0032 13.0021 15.0293 13 19.9961H5.75C3.67893 19.9961 2 18.3172 2 16.2461V10.5H21.9951L21.9941 11Z" fill="currentColor"/><path d="M18.2461 4.00293C20.3172 4.00293 21.9961 5.68186 21.9961 7.75293L21.9951 9H2V7.75293C2 5.68186 3.67893 4.00293 5.75 4.00293H18.2461Z" fill="currentColor"/></g></svg>