<svg width="24px" height="24px" viewBox="0 0 24 24" fill="currentColor" xmlns="http://www.w3.org/2000/svg"><g><path d="M14.5 8H8V14.5C8 15.3284 8.67157 16 9.5 16H16V9.5C16 8.67157 15.3284 8 14.5 8Z" fill="currentColor"/><path fill-rule="evenodd" clip-rule="evenodd" d="M5.75 2C6.16421 2 6.5 2.33579 6.5 2.75V5H15.25C17.3211 5 19 6.67893 19 8.75V17.5H21.25C21.6642 17.5 22 17.8358 22 18.25C22 18.6642 21.6642 19 21.25 19H19V21.25C19 21.6642 18.6642 22 18.25 22C17.8358 22 17.5 21.6642 17.5 21.25V19H8.75C6.67893 19 5 17.3211 5 15.25V6.5H2.75C2.33579 6.5 2 6.16421 2 5.75C2 5.33579 2.33579 5 2.75 5H5V2.75C5 2.33579 5.33579 2 5.75 2ZM6.5 15.25V6.5H15.25C16.4926 6.5 17.5 7.50736 17.5 8.75V17.5H8.75C7.50736 17.5 6.5 16.4926 6.5 15.25Z" fill="currentColor"/></g></svg>