<svg width="24px" height="24px" viewBox="0 0 24 24" fill="currentColor" xmlns="http://www.w3.org/2000/svg"><g><path d="M17.2197 5.71967C17.5126 5.42678 17.9873 5.42678 18.2802 5.71967C18.5731 6.01256 18.5731 6.48732 18.2802 6.78022L13.0605 11.9999L18.2802 17.2197C18.5731 17.5126 18.5731 17.9873 18.2802 18.2802C17.9873 18.5731 17.5126 18.5731 17.2197 18.2802L11.9999 13.0605L6.78022 18.2802C6.48732 18.5731 6.01256 18.5731 5.71967 18.2802C5.42678 17.9873 5.42678 17.5126 5.71967 17.2197L10.9394 11.9999L5.71967 6.78022C5.42678 6.48732 5.42678 6.01256 5.71967 5.71967C6.01256 5.42678 6.48732 5.42678 6.78022 5.71967L11.9999 10.9394L17.2197 5.71967Z" fill="currentColor"/></g></svg>