<svg width="24px" height="24px" viewBox="0 0 24 24" fill="currentColor" xmlns="http://www.w3.org/2000/svg"><g><path fill-rule="evenodd" clip-rule="evenodd" d="M2 12C2 6.47715 6.47715 2 12 2C17.5228 2 22 6.47715 22 12C22 17.5228 17.5228 22 12 22C6.47715 22 2 17.5228 2 12ZM12.75 6.75C12.75 6.33579 12.4142 6 12 6C11.5858 6 11.25 6.33579 11.25 6.75V7.81597C9.26049 8.1702 7.75 9.9087 7.75 12C7.75 14.0913 9.26049 15.8298 11.25 16.184V17.25C11.25 17.6642 11.5858 18 12 18C12.4142 18 12.75 17.6642 12.75 17.25V16.184C13.7955 15.9977 14.7087 15.429 15.339 14.6297C15.5954 14.3044 15.5396 13.8328 15.2144 13.5763C14.8891 13.3199 14.4175 13.3757 14.161 13.7009C13.6562 14.3412 12.8761 14.75 12 14.75C10.4812 14.75 9.25 13.5188 9.25 12C9.25 10.4812 10.4812 9.25 12 9.25C12.8761 9.25 13.6562 9.65881 14.161 10.2991C14.4175 10.6243 14.8891 10.6801 15.2144 10.4237C15.5396 10.1672 15.5954 9.6956 15.339 9.37033C14.7087 8.57099 13.7955 8.00233 12.75 7.81603V6.75Z" fill="currentColor"/></g></svg>