<svg width="24px" height="24px" viewBox="0 0 24 24" fill="currentColor" xmlns="http://www.w3.org/2000/svg"><g><path d="M17.2411 3.35016C17.6005 2.93084 18.2309 2.88234 18.6502 3.24177C19.0693 3.60123 19.118 4.23171 18.7586 4.65095L13.3153 11.0006H16.9998C17.5521 11.0006 17.9998 11.4483 17.9998 12.0006C17.9996 12.5526 17.5519 13.0005 16.9998 13.0006H12.9998V15.0006H16.9998C17.5521 15.0006 17.9998 15.4483 17.9998 16.0006C17.9996 16.5526 17.5519 17.0005 16.9998 17.0006H12.9998V20.0006C12.9996 20.5526 12.5519 21.0005 11.9998 21.0006C11.4477 21.0006 11.0001 20.5526 10.9998 20.0006V17.0006H6.99984C6.4477 17.0006 6.00007 16.5526 5.99984 16.0006C5.99984 15.4483 6.44756 15.0006 6.99984 15.0006H10.9998V13.0006H6.99984C6.4477 13.0006 6.00007 12.5526 5.99984 12.0006C5.99984 11.4483 6.44756 11.0006 6.99984 11.0006H10.6844L5.24105 4.65095L5.17758 4.56989C4.88873 4.1538 4.95662 3.57861 5.34945 3.24177C5.76878 2.88234 6.39921 2.93084 6.75863 3.35016L11.9998 9.46442L17.2411 3.35016Z" fill="currentColor"/></g></svg>