<svg width="24px" height="24px" viewBox="0 0 24 24" fill="currentColor" xmlns="http://www.w3.org/2000/svg"><g><path fill-rule="evenodd" clip-rule="evenodd" d="M11.9999 0.5C12.5521 0.500051 12.9999 0.947747 12.9999 1.5V2.80566C14.8703 2.99957 16.7393 3.71483 18.0038 5.04199C18.3847 5.44184 18.3694 6.07511 17.9696 6.45605C17.5698 6.8369 16.9365 6.82166 16.5556 6.42188C15.7284 5.55366 14.4111 5.00303 12.9999 4.81934V11.3721C14.2571 11.6983 15.6201 12.0691 16.6942 12.6748C17.3225 13.0291 17.9075 13.4913 18.3339 14.1211C18.7682 14.7627 18.9999 15.5224 18.9999 16.4004C18.9999 17.9867 18.1698 19.189 17.0067 19.9756C15.892 20.7294 14.4507 21.1237 12.9999 21.2227V22.5C12.9999 23.0523 12.5521 23.4999 11.9999 23.5C11.4476 23.5 10.9999 23.0523 10.9999 22.5V21.1738C10.1296 21.0739 9.26911 20.8735 8.47354 20.5605C7.18302 20.0529 5.99473 19.2303 5.26065 18.0342L5.12002 17.79L5.07608 17.6973C4.88183 17.2291 5.06954 16.6803 5.5253 16.4346C5.98095 16.1891 6.54269 16.3336 6.82705 16.7529L6.87979 16.8408L6.96475 16.9873C7.40894 17.7102 8.18563 18.2981 9.20498 18.6992C9.76207 18.9184 10.372 19.0715 10.9999 19.1602V12.9092C9.87379 12.5949 8.70992 12.2067 7.76162 11.6064C6.44779 10.7747 5.49991 9.50793 5.49991 7.57129C5.49995 6.15334 6.14965 5.02558 7.12588 4.23535C8.0778 3.46494 9.32711 3.01835 10.6083 2.84082C10.7375 2.82292 10.8682 2.80854 10.9999 2.7959V1.5C10.9999 0.947715 11.4476 0.5 11.9999 0.5ZM12.9999 19.2158C14.1521 19.119 15.1716 18.8019 15.8866 18.3184C16.616 17.8249 16.9999 17.1931 16.9999 16.4004C16.9999 15.8929 16.8721 15.5294 16.6776 15.2422C16.4752 14.9432 16.1616 14.6706 15.7118 14.417C14.9913 14.0108 14.0655 13.7252 12.9999 13.4395V19.2158ZM10.8827 4.82227C9.85052 4.96532 8.97718 5.31053 8.38467 5.79004C7.81662 6.24979 7.49995 6.83095 7.49991 7.57129C7.49991 8.70434 7.98966 9.38382 8.83194 9.91699C9.42307 10.2911 10.1603 10.5724 10.9999 10.8271V4.80859C10.9608 4.81338 10.9216 4.81687 10.8827 4.82227Z" fill="currentColor"/></g></svg>