<svg width="24px" height="24px" viewBox="0 0 24 24" fill="currentColor" xmlns="http://www.w3.org/2000/svg"><g><path d="M12.9336 2C15.5502 2.00008 17.8759 3.25484 19.4893 5.2041L19.8027 5.60352L19.8594 5.68848C20.1193 6.1237 20.0122 6.69394 19.5967 7.00293C19.1812 7.31179 18.6047 7.25002 18.2627 6.87598L18.1973 6.79688L17.9482 6.47949C16.6672 4.93054 14.8798 4.00008 12.9336 4C10.0952 4 7.54845 6.02102 6.50391 9H13C13.5523 9 14 9.44772 14 10C14 10.5523 13.5523 11 13 11H6.05566C6.02074 11.3267 6 11.6602 6 12C6 12.3398 6.02074 12.6733 6.05566 13H13C13.5523 13 14 13.4477 14 14C14 14.5523 13.5523 15 13 15H6.50391C7.54845 17.979 10.0952 20 12.9336 20C15.0094 19.9999 16.9045 18.9415 18.1973 17.2031C18.5268 16.76 19.1535 16.6676 19.5967 16.9971C20.0398 17.3266 20.1322 17.9533 19.8027 18.3965C18.185 20.572 15.7249 21.9999 12.9336 22C8.85609 22 5.53883 18.9994 4.41309 15H3C2.44772 15 2 14.5523 2 14C2 13.4477 2.44772 13 3 13H4.04492C4.01537 12.6704 4 12.3368 4 12C4 11.6632 4.01537 11.3296 4.04492 11H3C2.44772 11 2 10.5523 2 10C2 9.44772 2.44772 9 3 9H4.41309C5.53883 5.0006 8.85609 2 12.9336 2Z" fill="currentColor"/></g></svg>