<svg width="24px" height="24px" viewBox="0 0 24 24" fill="currentColor" xmlns="http://www.w3.org/2000/svg"><g><path d="M19 2C19.5523 2 20 2.44772 20 3C20 3.55228 19.5523 4 19 4H15.4707C16.2104 4.82621 16.7234 5.85821 16.915 7H19C19.5523 7 20 7.44772 20 8C20 8.55228 19.5523 9 19 9H16.915C16.4388 11.8376 13.9729 14 11 14H7.96387L16.1064 20.2041L16.1846 20.2705C16.5545 20.6169 16.6097 21.1946 16.2959 21.6064C15.9821 22.0182 15.4106 22.1182 14.9785 21.8535L14.8936 21.7959L4.39355 13.7959C4.05241 13.536 3.91573 13.0871 4.05273 12.6807C4.18995 12.2742 4.57096 12 5 12H11C12.8638 12 14.43 10.7252 14.874 9H5C4.44772 9 4 8.55228 4 8C4 7.44772 4.44772 7 5 7H14.874C14.43 5.27477 12.8638 4 11 4H5C4.44772 4 4 3.55228 4 3C4 2.44772 4.44772 2 5 2H19Z" fill="currentColor"/></g></svg>