<svg width="24px" height="24px" viewBox="0 0 24 24" fill="currentColor" xmlns="http://www.w3.org/2000/svg"><g><path d="M2 12C2 6.47715 6.47715 2 12 2C17.5228 2 22 6.47715 22 12C22 13.1108 21.8189 14.1793 21.4846 15.1776C21.3539 15.0668 21.1847 15 21 15H12.4546L9.66494 9.65308C9.47334 9.28584 9.02031 9.14346 8.65308 9.33506C8.28584 9.52666 8.14346 9.97969 8.33506 10.3469L10.7628 15H3C2.81526 15 2.64612 15.0668 2.51541 15.1776C2.18111 14.1793 2 13.1108 2 12Z" fill="currentColor"/><path d="M3.06641 16.5C4.71322 19.7626 8.09488 22 11.9991 22C15.9034 22 19.285 19.7626 20.9318 16.5H3.06641Z" fill="currentColor"/></g></svg>