<svg width="24px" height="24px" viewBox="0 0 24 24" fill="currentColor" xmlns="http://www.w3.org/2000/svg"><g><path d="M12 3C10.6193 3 9.5 4.11929 9.5 5.5C9.5 6.88071 10.6193 8 12 8C13.3807 8 14.5 6.88071 14.5 5.5C14.5 4.11929 13.3807 3 12 3Z" fill="currentColor"/><path d="M18.5 4C17.6716 4 17 4.67157 17 5.5C17 6.32843 17.6716 7 18.5 7C19.3284 7 20 6.32843 20 5.5C20 4.67157 19.3284 4 18.5 4Z" fill="currentColor"/><path d="M5.5 9.5C4.11929 9.5 3 10.6193 3 12C3 13.3807 4.11929 14.5 5.5 14.5C6.88071 14.5 8 13.3807 8 12C8 10.6193 6.88071 9.5 5.5 9.5Z" fill="currentColor"/><path d="M12 9.5C10.6193 9.5 9.5 10.6193 9.5 12C9.5 13.3807 10.6193 14.5 12 14.5C13.3807 14.5 14.5 13.3807 14.5 12C14.5 10.6193 13.3807 9.5 12 9.5Z" fill="currentColor"/><path d="M18.5 10.5C17.6716 10.5 17 11.1716 17 12C17 12.8284 17.6716 13.5 18.5 13.5C19.3284 13.5 20 12.8284 20 12C20 11.1716 19.3284 10.5 18.5 10.5Z" fill="currentColor"/><path d="M5.5 16C4.11929 16 3 17.1193 3 18.5C3 19.8807 4.11929 21 5.5 21C6.88071 21 8 19.8807 8 18.5C8 17.1193 6.88071 16 5.5 16Z" fill="currentColor"/><path d="M12 16C10.6193 16 9.5 17.1193 9.5 18.5C9.5 19.8807 10.6193 21 12 21C13.3807 21 14.5 19.8807 14.5 18.5C14.5 17.1193 13.3807 16 12 16Z" fill="currentColor"/></g></svg>