<svg width="24px" height="24px" viewBox="0 0 24 24" fill="currentColor" xmlns="http://www.w3.org/2000/svg"><g><path d="M23.7587 4.78854C23.5151 4.66917 23.4102 4.89666 23.2677 5.01223C23.219 5.04951 23.1777 5.09796 23.1365 5.14269C22.7804 5.52295 22.3644 5.77283 21.8209 5.74296C21.0263 5.69819 20.3478 5.94807 19.7481 6.55582C19.6207 5.80639 19.1972 5.35889 18.5525 5.07185C18.2152 4.92269 17.8741 4.77352 17.6379 4.44912C17.473 4.21803 17.428 3.96074 17.3455 3.70718C17.293 3.55433 17.2406 3.39767 17.0644 3.37156C16.8732 3.34177 16.7983 3.50203 16.7233 3.63634C16.4235 4.18447 16.3073 4.7885 16.3185 5.39998C16.3447 6.77587 16.9257 7.872 18.0801 8.65131C18.2113 8.74081 18.245 8.83023 18.2038 8.96081C18.1251 9.22927 18.0314 9.49024 17.949 9.7587C17.8965 9.93025 17.8177 9.96753 17.6341 9.89289C17.0006 9.62823 16.4534 9.23668 15.9699 8.76319C15.149 7.96899 14.4069 7.09278 13.4811 6.4067C13.2637 6.24636 13.0463 6.09727 12.8214 5.95551C11.8768 5.03834 12.9451 4.2851 13.1925 4.19568C13.4511 4.10246 13.2824 3.78174 12.4465 3.78555C11.6107 3.78923 10.8461 4.0689 9.87156 4.44175C9.72915 4.4977 9.57916 4.53866 9.42549 4.57222C8.54093 4.40447 7.62261 4.36711 6.66308 4.47531C4.85643 4.67661 3.41342 5.53048 2.35269 6.98838C1.07833 8.74081 0.778483 10.7318 1.14581 12.8087C1.53188 14.9973 2.64881 16.8094 4.36551 18.2263C6.14593 19.6953 8.19619 20.415 10.5351 20.277C11.9556 20.195 13.5374 20.0049 15.3215 18.4948C15.7713 18.7185 16.2436 18.8079 17.0269 18.8751C17.6304 18.931 18.2114 18.8453 18.6611 18.7521C19.3658 18.6029 19.3171 17.9504 19.0622 17.8311C16.997 16.8692 17.4505 17.2606 17.0382 16.9437C18.0877 15.7021 19.6695 14.4119 20.2879 10.2322C20.3366 9.90037 20.2954 9.69154 20.2879 9.42308C20.2841 9.25906 20.3216 9.19571 20.509 9.17701C21.0263 9.11735 21.5285 8.97571 21.9896 8.72215C23.3277 7.99138 23.8674 6.79076 23.9948 5.35153C24.0136 5.13152 23.9911 4.90403 23.7587 4.78854ZM12.098 17.7416C10.0965 16.1682 9.12577 15.6498 8.72468 15.6722C8.34986 15.6946 8.41734 16.1234 8.49976 16.4031C8.58599 16.6789 8.69845 16.8692 8.85584 17.1115C8.96453 17.2718 9.03954 17.5104 8.74719 17.6894C8.10248 18.0884 6.98175 17.5552 6.92924 17.5291C5.62493 16.761 4.53419 15.7467 3.76577 14.3598C3.02363 13.0249 2.59262 11.5932 2.52137 10.0644C2.50263 9.69535 2.61132 9.56476 2.97865 9.49773C3.46216 9.40823 3.96069 9.38953 4.4442 9.46037C6.48702 9.7587 8.22615 10.6722 9.68417 12.1189C10.5163 12.9429 11.146 13.9273 11.7944 14.8892C12.4841 15.9108 13.2262 16.8841 14.1708 17.6819C14.5043 17.9616 14.7705 18.1741 15.0253 18.3307C14.257 18.4165 12.9751 18.4352 12.098 17.7416ZM13.0576 11.5708C13.0576 11.4067 13.1888 11.2763 13.3537 11.2763C13.3912 11.2763 13.4249 11.2836 13.4549 11.2948C13.4962 11.3098 13.5337 11.3322 13.5636 11.3656C13.6161 11.4179 13.6461 11.4924 13.6461 11.5707C13.6461 11.7348 13.5149 11.8653 13.3501 11.8653C13.1852 11.8653 13.0576 11.7349 13.0576 11.5708ZM16.0374 13.0995C15.8463 13.1779 15.6551 13.2449 15.4714 13.2524C15.1866 13.2673 14.8755 13.1517 14.7068 13.01C14.4445 12.79 14.257 12.667 14.1783 12.2829C14.1446 12.1189 14.1633 11.8653 14.1934 11.72C14.2608 11.4067 14.1858 11.2054 13.9647 11.0227C13.7848 10.8735 13.5561 10.8325 13.305 10.8325C13.2113 10.8325 13.1251 10.7915 13.0614 10.7579C12.9564 10.7057 12.8703 10.5752 12.9527 10.4149C12.9789 10.3628 13.1064 10.2359 13.1364 10.2136C13.4775 10.0197 13.8711 10.0831 14.2346 10.2285C14.572 10.3665 14.8269 10.62 15.1941 10.9779C15.569 11.4104 15.6364 11.5298 15.8501 11.8541C16.0188 12.1077 16.1725 12.3687 16.2774 12.667C16.3411 12.8535 16.2586 13.0063 16.0374 13.0995Z" fill="currentColor"/></g></svg>