<svg width="24px" height="24px" viewBox="0 0 24 24" fill="currentColor" xmlns="http://www.w3.org/2000/svg"><g><path d="M15.1448 19.2499C15.1448 19.3039 15.1371 19.3563 15.1263 19.4071C16.835 19.4361 18.6266 19.1399 20.6546 18.0848C21.022 17.8938 21.4742 18.0368 21.6653 18.4042C21.8563 18.7716 21.7134 19.2238 21.346 19.4149C17.5159 21.4074 14.3803 20.996 11.5315 20.5214C8.68127 20.0464 6.22104 19.544 3.32352 20.9266C2.94977 21.105 2.50199 20.9468 2.32352 20.5731C2.14516 20.1994 2.30338 19.7516 2.67704 19.5731C4.89326 18.5155 6.91578 18.4172 8.82645 18.6044C8.71192 17.334 8.25883 16.4689 7.6536 15.7645C6.89812 14.8854 5.95352 14.2822 4.887 13.4247C3.86222 12.6007 2.82576 11.6028 2.23856 10.0634C1.65249 8.52656 1.55094 6.55257 2.16923 3.83386L2.20048 3.73328C2.28687 3.50612 2.47906 3.33237 2.71903 3.27234C2.99339 3.2038 3.28303 3.29579 3.46805 3.50964C4.91422 5.1811 6.29658 5.62723 7.73758 5.96179C9.0418 6.26459 10.5421 6.4883 12.0003 7.54578C13.4585 6.48807 14.9589 6.26459 16.263 5.96179C17.7037 5.62724 19.0863 5.18119 20.5325 3.50964L20.6057 3.43542C20.7866 3.27722 21.0349 3.21397 21.2727 3.27039C21.5446 3.33499 21.758 3.54537 21.8265 3.81628C22.4515 6.28944 22.3476 8.13911 21.7581 9.62878C21.1733 11.1064 20.1469 12.1323 19.137 13.0116C17.0739 14.8078 15.1448 16.0214 15.1448 19.2499Z" fill="currentColor"/></g></svg>