<svg width="24px" height="24px" viewBox="0 0 24 24" fill="currentColor" xmlns="http://www.w3.org/2000/svg"><g><path d="M15.4035 3C17.6588 3 19.9125 4.31593 20.5471 6.6377C20.6895 7.15899 20.8048 7.69039 20.883 8.23535C21.1132 9.8398 19.7514 10.9998 18.3244 11H17.9973V16.25C17.9973 16.6642 17.6615 17 17.2473 17C16.8331 16.9999 16.4973 16.6641 16.4973 16.25V11H12.7473V19.5H16.2473C16.6615 19.5 16.9973 19.8358 16.9973 20.25C16.9973 20.6642 16.6615 21 16.2473 21H7.74727C7.33315 20.9999 6.99727 20.6641 6.99727 20.25C6.99727 19.8359 7.33315 19.5001 7.74727 19.5H11.2473V11H5.67012C4.2432 10.9998 2.88126 9.83979 3.11152 8.23535C3.18976 7.69034 3.30496 7.15902 3.44746 6.6377C4.08207 4.31602 6.33582 3.0001 8.59102 3H15.4035Z" fill="currentColor"/></g></svg>