<svg width="24px" height="24px" viewBox="0 0 24 24" fill="currentColor" xmlns="http://www.w3.org/2000/svg"><g><path d="M20 9C21.6569 9 23 10.3431 23 12V18C23 19.6569 21.6569 21 20 21H18C16.3431 21 15 19.6569 15 18V12C15 10.3431 16.3431 9 18 9H20Z" fill="currentColor"/><path d="M13.5 18C13.5 18.9253 13.78 19.7849 14.2588 20.5H4.5C2.567 20.5 1 18.933 1 17C1 16.4477 1.44772 16 2 16H13.5V18Z" fill="currentColor"/><path d="M18 3C19.6569 3 21 4.34315 21 6V7.6123C20.6783 7.5393 20.3438 7.5 20 7.5H18C15.5147 7.5 13.5 9.51472 13.5 12V14.5H3.04395C3.0164 14.3374 3 14.1706 3 14V6C3 4.34315 4.34315 3 6 3H18Z" fill="currentColor"/></g></svg>