<svg width="24px" height="24px" viewBox="0 0 24 24" fill="currentColor" xmlns="http://www.w3.org/2000/svg"><g><path fill-rule="evenodd" clip-rule="evenodd" d="M20 11V5.75C20 3.67893 18.3211 2 16.25 2H7.75C5.67893 2 4 3.67893 4 5.75V11H2.75C2.33579 11 2 11.3358 2 11.75C2 12.1642 2.33579 12.5 2.75 12.5H4.52633L10.6315 16.5L4.33907 20.6226C3.99259 20.8496 3.89574 21.3145 4.12274 21.661C4.34974 22.0075 4.81463 22.1043 5.1611 21.8773L12.0001 17.3966L18.8391 21.8773C19.1855 22.1043 19.6504 22.0075 19.8774 21.661C20.1044 21.3145 20.0076 20.8496 19.6611 20.6226L13.3686 16.5L19.4738 12.5H21.25C21.6642 12.5 22 12.1642 22 11.75C22 11.3358 21.6642 11 21.25 11H20ZM16.7367 12.5H7.26343L12.0001 15.6033L16.7367 12.5Z" fill="currentColor"/></g></svg>