<svg width="24px" height="24px" viewBox="0 0 24 24" fill="currentColor" xmlns="http://www.w3.org/2000/svg"><g><path fill-rule="evenodd" clip-rule="evenodd" d="M11.2511 4.75C11.2511 3.7835 12.0346 3 13.0011 3H17.9648C18.8584 3 19.6962 3.43413 20.2115 4.16412L21.7997 6.41412C22.4708 7.36487 22.4708 8.63513 21.7997 9.58588L20.2115 11.8359C19.6962 12.5659 18.8584 13 17.9648 13H13.0011C12.9163 13 12.8328 12.994 12.7511 12.9823V20.25C12.7511 20.6642 12.4154 21 12.0011 21C11.5869 21 11.2511 20.6642 11.2511 20.25V17H6.03745C5.14392 17 4.30608 16.5659 3.79079 15.8359L2.20256 13.5859C1.53144 12.6351 1.53144 11.3649 2.20256 10.4141L3.79079 8.16412C4.30608 7.43413 5.14392 7 6.03745 7H11.0011C11.086 7 11.1695 7.00604 11.2511 7.01772V4.75ZM13.0011 4.5C12.8631 4.5 12.7511 4.61193 12.7511 4.75V11.25C12.7511 11.3881 12.8631 11.5 13.0011 11.5H17.9648C18.371 11.5 18.7518 11.3027 18.986 10.9709L20.5743 8.72085C20.8793 8.28869 20.8793 7.71131 20.5743 7.27915L18.986 5.02915C18.7518 4.69733 18.371 4.5 17.9648 4.5H13.0011Z" fill="currentColor"/></g></svg>