<svg width="24px" height="24px" viewBox="0 0 24 24" fill="currentColor" xmlns="http://www.w3.org/2000/svg"><g><path fill-rule="evenodd" clip-rule="evenodd" d="M12.2324 6.33966C12.8296 5.96397 13.6167 6.12469 14.0188 6.70444L14.4585 7.33829C14.7978 7.82746 15.2832 8.19667 15.8453 8.393L16.5735 8.6474C17.2396 8.88009 17.6047 9.59568 17.4022 10.2715L17.1807 11.0105C17.0098 11.5808 17.0238 12.1905 17.2208 12.7523L17.4759 13.4803C17.7093 14.1462 17.3775 14.8778 16.7228 15.1408L16.007 15.4284C15.4546 15.6504 14.9866 16.0415 14.6701 16.5457L14.26 17.1991C13.885 17.7967 13.1061 17.9934 12.4922 17.6456L11.8211 17.2653C11.3031 16.9717 10.7056 16.8497 10.114 16.9167L9.34751 17.0035C8.64642 17.0828 8.00699 16.5965 7.89623 15.8997L7.77513 15.1379C7.68167 14.5499 7.40448 14.0066 6.9833 13.5859L6.43755 13.0407C5.93838 12.5421 5.91992 11.7389 6.39565 11.2179L6.91578 10.6482C7.31718 10.2085 7.56911 9.65309 7.63546 9.06147L7.72143 8.29487C7.80006 7.5937 8.41647 7.07851 9.12046 7.12558L9.89015 7.17704C10.4842 7.21676 11.0755 7.06742 11.5794 6.75042L12.2324 6.33966ZM12 10.5C11.1716 10.5 10.5 11.1716 10.5 12C10.5 12.8284 11.1716 13.5 12 13.5C12.8284 13.5 13.5 12.8284 13.5 12C13.5 11.1716 12.8284 10.5 12 10.5Z" fill="currentColor"/><path fill-rule="evenodd" clip-rule="evenodd" d="M2 12C2 6.47715 6.47715 2 12 2C17.5228 2 22 6.47715 22 12C22 17.5228 17.5228 22 12 22C6.47715 22 2 17.5228 2 12ZM15.2514 5.84952C14.392 4.61058 12.7099 4.26713 11.4336 5.06999L10.7807 5.48075C10.5449 5.62909 10.2682 5.69897 9.99022 5.68039L9.22053 5.62892C7.71609 5.52834 6.39881 6.62929 6.23077 8.1277L6.1448 8.8943C6.11376 9.17115 5.99587 9.43106 5.80803 9.63679L5.28791 10.2065C4.27126 11.32 4.31071 13.0363 5.37744 14.1019L5.9232 14.6471C6.12029 14.844 6.24999 15.0982 6.29372 15.3733L6.41482 16.1352C6.65153 17.6243 8.018 18.6635 9.51624 18.4939L10.2827 18.4072C10.5596 18.3758 10.8392 18.4329 11.0816 18.5703L11.7527 18.9506C13.0645 19.694 14.729 19.2736 15.5306 17.9965L15.9406 17.3431C16.0887 17.1071 16.3077 16.9241 16.5662 16.8203L17.282 16.5327C18.6811 15.9705 19.3902 14.4071 18.8915 12.9841L18.6363 12.2562C18.5442 11.9933 18.5376 11.7079 18.6176 11.4411L18.839 10.7021C19.2719 9.2578 18.4916 7.72857 17.0682 7.23132L16.3399 6.97692C16.077 6.88505 15.8498 6.71228 15.691 6.48337L15.2514 5.84952Z" fill="currentColor"/></g></svg>