<svg width="24px" height="24px" viewBox="0 0 24 24" fill="currentColor" xmlns="http://www.w3.org/2000/svg"><g><path d="M13.6143 7.35242C13.8339 7.00124 14.2963 6.89462 14.6475 7.11414C14.9986 7.33372 15.1053 7.79615 14.8858 8.14734L9.57329 16.6473C9.45217 16.841 9.24949 16.9691 9.02251 16.995C8.79546 17.0209 8.56889 16.9417 8.40728 16.7802L5.21978 13.5927C4.92689 13.2998 4.92691 12.825 5.21978 12.5321C5.51267 12.2392 5.98743 12.2392 6.28032 12.5321L8.80083 15.0526L13.6143 7.35242Z" fill="currentColor"/><path d="M17.6143 7.35242C17.8339 7.00124 18.2963 6.89462 18.6475 7.11414C18.9986 7.33372 19.1053 7.79615 18.8858 8.14734L13.5733 16.6473C13.3537 16.9984 12.8913 17.105 12.5401 16.8856C12.1889 16.6661 12.0823 16.2036 12.3018 15.8524L17.6143 7.35242Z" fill="currentColor"/></g></svg>