<svg width="24px" height="24px" viewBox="0 0 24 24" fill="currentColor" xmlns="http://www.w3.org/2000/svg"><g><path d="M13.9355 7.50586C14.2083 7.19433 14.6825 7.16285 14.9941 7.43555C15.3057 7.70831 15.3371 8.18246 15.0645 8.49414L8.06445 16.4941C7.92787 16.6502 7.73261 16.743 7.52539 16.75C7.31793 16.7569 7.11651 16.6771 6.96973 16.5303L3.96973 13.5303C3.67684 13.2374 3.67684 12.7626 3.96973 12.4697C4.26262 12.1769 4.7374 12.1769 5.03027 12.4697L7.46289 14.9023L13.9355 7.50586ZM18.9355 7.50586C19.2083 7.19433 19.6825 7.16285 19.9941 7.43555C20.3057 7.70831 20.3371 8.18246 20.0645 8.49414L13.0645 16.4941C12.7917 16.8057 12.3175 16.8372 12.0059 16.5645C11.6943 16.2917 11.6628 15.8175 11.9355 15.5059L18.9355 7.50586Z" fill="currentColor"/></g></svg>