<svg width="24px" height="24px" viewBox="0 0 24 24" fill="currentColor" xmlns="http://www.w3.org/2000/svg"><g><path fill-rule="evenodd" clip-rule="evenodd" d="M10 6.25C10 8.32107 8.32107 10 6.25 10H3.75C3.33579 10 3 9.66421 3 9.25C3 8.83579 3.33579 8.5 3.75 8.5H6.25C7.49264 8.5 8.5 7.49264 8.5 6.25V3.75C8.5 3.33579 8.83579 3 9.25 3C9.66421 3 10 3.33579 10 3.75V6.25Z" fill="currentColor"/><path fill-rule="evenodd" clip-rule="evenodd" d="M21 9.25C21 9.66421 20.6642 10 20.25 10H17.75C15.6789 10 14 8.32107 14 6.25V3.75C14 3.33579 14.3358 3 14.75 3C15.1642 3 15.5 3.33579 15.5 3.75V6.25C15.5 7.49264 16.5074 8.5 17.75 8.5H20.25C20.6642 8.5 21 8.83579 21 9.25Z" fill="currentColor"/><path fill-rule="evenodd" clip-rule="evenodd" d="M14.75 21C14.3358 21 14 20.6642 14 20.25V17.75C14 15.6789 15.6789 14 17.75 14H20.25C20.6642 14 21 14.3358 21 14.75C21 15.1642 20.6642 15.5 20.25 15.5H17.75C16.5074 15.5 15.5 16.5074 15.5 17.75V20.25C15.5 20.6642 15.1642 21 14.75 21Z" fill="currentColor"/><path fill-rule="evenodd" clip-rule="evenodd" d="M9.25 21C8.83579 21 8.5 20.6642 8.5 20.25V17.75C8.5 16.5074 7.49264 15.5 6.25 15.5H3.75C3.33579 15.5 3 15.1642 3 14.75C3 14.3358 3.33579 14 3.75 14H6.25C8.32107 14 10 15.6789 10 17.75V20.25C10 20.6642 9.66421 21 9.25 21Z" fill="currentColor"/></g></svg>