<svg width="24px" height="24px" viewBox="0 0 24 24" fill="currentColor" xmlns="http://www.w3.org/2000/svg"><g><path fill-rule="evenodd" clip-rule="evenodd" d="M11 7.25C11 9.32107 9.32107 11 7.25 11H3.75C3.33579 11 3 10.6642 3 10.25C3 9.83579 3.33579 9.5 3.75 9.5H7.25C8.49264 9.5 9.5 8.49264 9.5 7.25V3.75C9.5 3.33579 9.83579 3 10.25 3C10.6642 3 11 3.33579 11 3.75V7.25Z" fill="currentColor"/><path fill-rule="evenodd" clip-rule="evenodd" d="M21 10.25C21 10.6642 20.6642 11 20.25 11H16.75C14.6789 11 13 9.32107 13 7.25V3.75C13 3.33579 13.3358 3 13.75 3C14.1642 3 14.5 3.33579 14.5 3.75V7.25C14.5 8.49264 15.5074 9.5 16.75 9.5H20.25C20.6642 9.5 21 9.83579 21 10.25Z" fill="currentColor"/><path fill-rule="evenodd" clip-rule="evenodd" d="M13.75 21C13.3358 21 13 20.6642 13 20.25V16.75C13 14.6789 14.6789 13 16.75 13H20.25C20.6642 13 21 13.3358 21 13.75C21 14.1642 20.6642 14.5 20.25 14.5H16.75C15.5074 14.5 14.5 15.5074 14.5 16.75V20.25C14.5 20.6642 14.1642 21 13.75 21Z" fill="currentColor"/><path fill-rule="evenodd" clip-rule="evenodd" d="M10.25 21C9.83579 21 9.5 20.6642 9.5 20.25V16.75C9.5 15.5074 8.49264 14.5 7.25 14.5H3.75C3.33579 14.5 3 14.1642 3 13.75C3 13.3358 3.33579 13 3.75 13H7.25C9.32107 13 11 14.6789 11 16.75V20.25C11 20.6642 10.6642 21 10.25 21Z" fill="currentColor"/></g></svg>