<svg width="24px" height="24px" viewBox="0 0 24 24" fill="currentColor" xmlns="http://www.w3.org/2000/svg"><g><path d="M18 14.25C20.0711 14.25 21.75 15.9289 21.75 18C21.75 20.0711 20.0711 21.75 18 21.75C15.9289 21.75 14.25 20.0711 14.25 18C14.25 15.9289 15.9289 14.25 18 14.25Z" fill="currentColor"/><path d="M6 2.25C8.07107 2.25 9.75 3.92893 9.75 6C9.75 7.81421 8.46166 9.32734 6.75 9.6748V20.25C6.75 20.6642 6.41421 21 6 21C5.58579 21 5.25 20.6642 5.25 20.25V9.6748C3.53834 9.32734 2.25 7.81421 2.25 6C2.25 3.92893 3.92893 2.25 6 2.25Z" fill="currentColor"/><path d="M18 9C18.5523 9 19 9.44772 19 10C19 10.5523 18.5523 11 18 11C17.4477 11 17 10.5523 17 10C17 9.44772 17.4477 9 18 9Z" fill="currentColor"/><path d="M18 4C18.5523 4 19 4.44772 19 5C19 5.55228 18.5523 6 18 6C17.4477 6 17 5.55228 17 5C17 4.44772 17.4477 4 18 4Z" fill="currentColor"/></g></svg>