<svg width="24px" height="24px" viewBox="0 0 24 24" fill="currentColor" xmlns="http://www.w3.org/2000/svg"><g><path fill-rule="evenodd" clip-rule="evenodd" d="M5.75 4H11.25V19H5.75C5.66599 19 5.58263 18.9972 5.5 18.9918V20.25C5.5 20.6642 5.16421 21 4.75 21C4.33579 21 4 20.6642 4 20.25V18.5675C2.81055 17.9387 2 16.689 2 15.25V7.75C2 5.67893 3.67893 4 5.75 4ZM9.5 9.75C9.5 9.33579 9.16421 9 8.75 9C8.33579 9 8 9.33579 8 9.75V12.25C8 12.6642 8.33579 13 8.75 13C9.16421 13 9.5 12.6642 9.5 12.25V9.75Z" fill="currentColor"/><path fill-rule="evenodd" clip-rule="evenodd" d="M18.25 19H12.75V4H18.25C20.3211 4 22 5.67893 22 7.75V15.25C22 16.689 21.1895 17.9387 20 18.5675V20.25C20 20.6642 19.6642 21 19.25 21C18.8358 21 18.5 20.6642 18.5 20.25V18.9918C18.4174 18.9972 18.334 19 18.25 19ZM15.25 9C15.6642 9 16 9.33579 16 9.75V12.25C16 12.6642 15.6642 13 15.25 13C14.8358 13 14.5 12.6642 14.5 12.25V9.75C14.5 9.33579 14.8358 9 15.25 9Z" fill="currentColor"/></g></svg>