<svg width="24px" height="24px" viewBox="0 0 24 24" fill="currentColor" xmlns="http://www.w3.org/2000/svg"><g><path d="M14.3407 3.04684C15.3119 2.87918 16.1468 3.16331 16.8134 3.87203C17.377 4.47141 17.4714 5.21544 17.3153 5.92867C17.1664 6.6087 16.7845 7.31332 16.3173 7.99508C15.3797 9.36291 13.9121 10.9007 12.5487 12.3486C11.15 13.834 9.86836 15.2181 9.16883 16.3603C8.81528 16.9376 8.67585 17.3514 8.67176 17.6211C8.67 17.7397 8.69507 17.8181 8.73035 17.8779C8.76706 17.94 8.84074 18.0258 9.00086 18.1181C9.43662 18.3692 10.0505 18.2976 11.0116 17.6582C11.9439 17.0378 12.9428 16.0515 13.9745 15.0166C14.9683 14.0196 16.0144 12.9536 16.9598 12.3271C17.4323 12.0141 17.9667 11.7491 18.5233 11.7099C19.1409 11.6666 19.6986 11.9077 20.122 12.4228L20.2245 12.5595C20.6954 13.2527 20.5367 14.0545 20.2977 14.664C20.038 15.3264 19.579 16.036 19.1776 16.6621C18.7514 17.3268 18.3789 17.9136 18.1737 18.4316C17.964 18.961 18.0191 19.1896 18.1014 19.3076C18.1926 19.4381 18.2787 19.4782 18.3778 19.4931C18.507 19.5125 18.7085 19.4922 18.9891 19.3857C19.5547 19.171 20.2038 18.702 20.744 18.2148C21.0516 17.9374 21.5262 17.9619 21.8036 18.2695C22.0808 18.5771 22.0563 19.0507 21.7489 19.3281C21.156 19.8629 20.3434 20.476 19.5214 20.788C19.1081 20.9449 18.6332 21.0479 18.1561 20.9765C17.649 20.9005 17.1977 20.6348 16.871 20.167C16.3441 19.4121 16.5143 18.5475 16.7792 17.8789C17.0488 17.1985 17.5109 16.4811 17.9139 15.8525C18.3417 15.1853 18.7071 14.6115 18.9013 14.1162C19.1003 13.6085 19.0206 13.4441 18.9638 13.375H18.9628C18.8343 13.2187 18.7407 13.1992 18.6288 13.207C18.456 13.2191 18.182 13.317 17.788 13.5781C17.0003 14.1001 16.0796 15.0293 15.037 16.0752C14.0323 17.0831 12.9244 18.1874 11.8427 18.9072C10.8554 19.5641 9.64436 20.0608 8.48328 19.5361L8.25184 19.417C7.91261 19.2213 7.63063 18.9662 7.43836 18.6406C7.24477 18.3126 7.16753 17.9557 7.17274 17.5996C7.18281 16.9196 7.49462 16.222 7.88953 15.5771C8.68747 14.2742 10.0939 12.7678 11.4569 11.3203C12.8553 9.83518 14.2239 8.39632 15.08 7.14742C15.5093 6.52103 15.7632 6.00668 15.8505 5.60836C15.9304 5.24326 15.8603 5.049 15.7206 4.90035C15.3975 4.55673 15.069 4.44387 14.5966 4.52535C14.0493 4.61982 13.3016 4.98252 12.2694 5.73141C10.2154 7.22163 7.37696 9.97667 3.27332 14.0332C2.97879 14.3243 2.50398 14.3218 2.21277 14.0273C1.92162 13.7328 1.92419 13.258 2.21863 12.9668C6.28693 8.9452 9.21982 6.09102 11.3886 4.51754C12.4676 3.73471 13.4441 3.2017 14.3407 3.04684Z" fill="currentColor"/></g></svg>