<svg width="24px" height="24px" viewBox="0 0 24 24" fill="currentColor" xmlns="http://www.w3.org/2000/svg"><g><path fill-rule="evenodd" clip-rule="evenodd" d="M4 5V10.25H20V5C20 3.34315 18.6569 2 17 2H7C5.34315 2 4 3.34315 4 5ZM9.75 5C9.33579 5 9 5.33579 9 5.75C9 6.16421 9.33579 6.5 9.75 6.5H14.25C14.6642 6.5 15 6.16421 15 5.75C15 5.33579 14.6642 5 14.25 5H9.75Z" fill="currentColor"/><path fill-rule="evenodd" clip-rule="evenodd" d="M4 17V11.75H20V17C20 18.3062 19.1652 19.4175 18 19.8293V21C18 21.5523 17.5523 22 17 22C16.4477 22 16 21.5523 16 21V20H8V21C8 21.5523 7.55228 22 7 22C6.44772 22 6 21.5523 6 21V19.8293C4.83481 19.4175 4 18.3062 4 17ZM9 15.75C9 15.3358 9.33579 15 9.75 15H14.25C14.6642 15 15 15.3358 15 15.75C15 16.1642 14.6642 16.5 14.25 16.5H9.75C9.33579 16.5 9 16.1642 9 15.75Z" fill="currentColor"/></g></svg>