<svg width="24px" height="24px" viewBox="0 0 24 24" fill="currentColor" xmlns="http://www.w3.org/2000/svg"><g><path fill-rule="evenodd" clip-rule="evenodd" d="M19.2914 11.2652C19.6586 14.3902 17.7601 17.3381 14.7679 18.2893C11.7757 19.2405 8.53342 17.9267 7.04247 15.159C4.50025 15.2638 2.19174 13.7559 1.28024 11.4362C1.18953 11.2047 1.21482 10.9436 1.34827 10.7338C1.48171 10.524 1.70719 10.3909 1.95479 10.3756L5.3456 10.1655L4.50379 7.48709C4.28143 6.77947 4.42767 6.00691 4.89322 5.42963C5.35878 4.85237 6.08168 4.54727 6.81835 4.61712C8.66044 4.79316 9.88374 4.78603 10.4882 4.59576C11.0927 4.40549 12.0818 3.71815 13.4554 2.53374C14.0178 2.04964 14.7848 1.88102 15.497 2.0849C16.2092 2.28879 16.7713 2.83791 16.9931 3.5465L17.8264 6.20088L20.6789 4.44728C20.8905 4.31705 21.1513 4.29624 21.3806 4.39131C21.6098 4.48639 21.7797 4.68584 21.8375 4.9278C22.4109 7.33475 21.401 9.87962 19.2914 11.2652ZM10.6153 19.9277L9.06774 19.1863C8.52635 18.9384 7.88636 19.1724 7.63067 19.7118C7.37493 20.2512 7.59824 20.8962 8.13207 21.1601L9.68053 21.9011C10.2219 22.149 10.862 21.915 11.1177 21.3756C11.3734 20.8361 11.1501 20.1912 10.6162 19.9273L10.6153 19.9277ZM21.419 15.3329C21.1679 15.1901 20.8703 15.1534 20.592 15.2309C20.3137 15.3085 20.0776 15.494 19.9357 15.7463L19.0914 17.2434C18.815 17.766 19.0032 18.4138 19.5159 18.7053C20.0287 18.9967 20.6801 18.8259 20.9856 18.3199L21.8291 16.8226C22.1262 16.2973 21.9426 15.6304 21.419 15.3329Z" fill="currentColor"/></g></svg>