<svg width="24px" height="24px" viewBox="0 0 24 24" fill="currentColor" xmlns="http://www.w3.org/2000/svg"><g><path fill-rule="evenodd" clip-rule="evenodd" d="M5 9.5C5 5.35786 8.35786 2 12.5 2C16.6449 2 20 5.37973 20 9.51911C20 11.3015 19.2875 13.0181 18.0193 14.2733L15.511 16.7558C14.9554 17.3057 14.4923 17.9418 14.1398 18.6396L13.7203 19.47C12.9364 21.0216 11.346 22 9.60765 22C7.06292 22 5 19.9371 5 17.3923V9.5ZM12.5 5.75C10.4124 5.75 8.75 7.54924 8.75 9.5C8.75 10.1278 8.83496 10.6609 8.9347 11.1368C8.97817 11.3442 9.01965 11.5223 9.05853 11.6891C9.11562 11.9342 9.16708 12.1551 9.21091 12.4092C9.33788 13.1453 9.35002 13.9404 8.81017 15.2057C8.64761 15.5867 8.82469 16.0273 9.20567 16.1898C9.58666 16.3524 10.0273 16.1753 10.1898 15.7943C10.85 14.2471 10.8621 13.1574 10.6891 12.1542C10.6402 11.8706 10.5693 11.5633 10.5036 11.2785C10.4668 11.119 10.4316 10.9665 10.4028 10.8291C10.315 10.4104 10.25 9.98745 10.25 9.5C10.25 8.34415 11.2739 7.25 12.5 7.25C13.789 7.25 14.75 8.21827 14.75 9.3125C14.75 9.72671 15.0858 10.0625 15.5 10.0625C15.9142 10.0625 16.25 9.72671 16.25 9.3125C16.25 7.30013 14.5247 5.75 12.5 5.75Z" fill="currentColor"/></g></svg>