<svg width="24px" height="24px" viewBox="0 0 24 24" fill="currentColor" xmlns="http://www.w3.org/2000/svg"><g><path d="M16.9697 2.96965C18.091 1.84833 19.909 1.84833 21.0303 2.96965C22.1516 4.09097 22.1516 5.90899 21.0303 7.03031L16.5303 11.5303C16.3897 11.671 16.1989 11.75 16 11.75H13C12.5858 11.75 12.25 11.4142 12.25 11V7.99998C12.25 7.80107 12.329 7.6103 12.4697 7.46965L16.9697 2.96965Z" fill="currentColor"/><path d="M11.25 3L8.5179 3C7.70506 2.99999 7.04944 2.99999 6.51853 3.04336C5.9719 3.08803 5.49175 3.18239 5.04754 3.40873C4.34193 3.76825 3.76825 4.34193 3.40873 5.04754C3.18239 5.49175 3.08803 5.9719 3.04336 6.51853C2.99999 7.04944 2.99999 7.70505 3 8.51789V15.4821C2.99999 16.2949 2.99999 16.9506 3.04336 17.4815C3.08803 18.0281 3.18239 18.5082 3.40873 18.9525C3.76825 19.6581 4.34193 20.2317 5.04754 20.5913C5.49175 20.8176 5.9719 20.912 6.51853 20.9566C7.04944 21 7.70505 21 8.51788 21H15.4821C16.295 21 16.9506 21 17.4815 20.9566C18.0281 20.912 18.5082 20.8176 18.9525 20.5913C19.6581 20.2317 20.2317 19.6581 20.5913 18.9525C20.8176 18.5082 20.912 18.0281 20.9566 17.4815C21 16.9506 21 16.295 21 15.4821V12.75C21 12.3358 20.6642 12 20.25 12C19.8358 12 19.5 12.3358 19.5 12.75V15.45C19.5 16.3025 19.4994 16.8967 19.4616 17.3593C19.4245 17.8132 19.3554 18.074 19.2548 18.2715C19.039 18.6948 18.6948 19.039 18.2715 19.2548C18.074 19.3554 17.8132 19.4245 17.3593 19.4616C16.8967 19.4994 16.3025 19.5 15.45 19.5H8.55C7.69755 19.5 7.10331 19.4994 6.64068 19.4616C6.18681 19.4245 5.92604 19.3554 5.72852 19.2548C5.30516 19.039 4.96095 18.6948 4.74524 18.2715C4.6446 18.074 4.57547 17.8132 4.53838 17.3593C4.50058 16.8967 4.5 16.3025 4.5 15.45V8.55C4.5 7.69755 4.50058 7.10331 4.53838 6.64068C4.57547 6.1868 4.6446 5.92604 4.74524 5.72852C4.96095 5.30516 5.30516 4.96095 5.72852 4.74524C5.92604 4.6446 6.18681 4.57547 6.64068 4.53838C7.10331 4.50058 7.69755 4.5 8.55 4.5H11.25C11.6642 4.5 12 4.16421 12 3.75C12 3.33579 11.6642 3 11.25 3Z" fill="currentColor"/></g></svg>