<svg width="24px" height="24px" viewBox="0 0 24 24" fill="currentColor" xmlns="http://www.w3.org/2000/svg"><g><path d="M8.74736 3.68467C8.76766 3.60179 8.80343 3.56301 8.83424 3.54062C8.87138 3.51364 8.92611 3.49399 8.99076 3.49414C9.05542 3.49429 9.11005 3.51419 9.14706 3.54134C9.17777 3.56387 9.21337 3.60282 9.23328 3.6858L13.2887 20.5833C13.719 22.3762 16.2715 22.3706 16.6938 20.5758L18.1859 14.2347C18.425 13.2184 19.3319 12.5001 20.376 12.5001H22.25C22.6642 12.5001 23 12.1643 23 11.7501C23 11.3358 22.6642 11.0001 22.25 11.0001H20.376C18.6359 11.0001 17.1243 12.1972 16.7257 13.8912L15.2337 20.2322C15.214 20.3159 15.1784 20.355 15.1478 20.3775C15.1108 20.4047 15.056 20.4248 14.9909 20.4249C14.9259 20.4251 14.871 20.4053 14.8338 20.3782C14.8032 20.3558 14.7673 20.3169 14.7473 20.2333L10.6919 3.33574C10.2636 1.55119 7.72695 1.54532 7.29041 3.32787L5.83146 9.28526C5.58491 10.292 4.68253 11.0001 3.64604 11.0001H1.75C1.33579 11.0001 1 11.3358 1 11.7501C1 12.1643 1.33579 12.5001 1.75 12.5001H3.64604C5.37352 12.5001 6.87749 11.32 7.28841 9.64207L8.74736 3.68467Z" fill="currentColor"/></g></svg>