<svg width="24px" height="24px" viewBox="0 0 24 24" fill="currentColor" xmlns="http://www.w3.org/2000/svg"><g><path d="M5.90234 16.5626C6.73081 15.128 8.56525 14.6367 10 15.4649C11.4346 16.2933 11.9268 18.1278 11.0986 19.5626C10.2702 20.9972 8.43477 21.4895 7 20.6612C5.56533 19.8328 5.07415 17.9974 5.90234 16.5626Z" fill="currentColor"/><path d="M14 15.4649C15.4348 14.6365 17.2702 15.1278 18.0986 16.5626C18.9269 17.9974 18.4348 19.8328 17 20.6612C15.5653 21.4892 13.7307 20.9971 12.9023 19.5626C12.0742 18.1279 12.5655 16.2934 14 15.4649Z" fill="currentColor"/><path d="M5 9.00009C6.65681 9.00009 7.99992 10.3433 8 12.0001C8 13.6569 6.65685 15.0001 5 15.0001C3.34315 15.0001 2 13.6569 2 12.0001C2.00008 10.3433 3.3432 9.00009 5 9.00009Z" fill="currentColor"/><path d="M19 9.00009C20.6568 9.00009 21.9999 10.3433 22 12.0001C22 13.6569 20.6569 15.0001 19 15.0001C17.3431 15.0001 16 13.6569 16 12.0001C16.0001 10.3433 17.3432 9.00009 19 9.00009Z" fill="currentColor"/><path d="M12.9023 4.43857C13.7308 3.00398 15.5652 2.51271 17 3.34091C18.4346 4.16931 18.9268 6.00379 18.0986 7.43857C17.2702 8.8732 15.4348 9.36546 14 8.5372C12.5653 7.70878 12.0742 5.87336 12.9023 4.43857Z" fill="currentColor"/><path d="M7 3.33994C8.43478 2.51161 10.2701 3.00294 11.0986 4.43759C11.927 5.87245 11.4348 7.70778 10 8.53623C8.56517 9.36437 6.7307 8.87235 5.90234 7.43759C5.07423 6.00286 5.56545 4.16838 7 3.33994Z" fill="currentColor"/></g></svg>