<svg width="24px" height="24px" viewBox="0 0 24 24" fill="currentColor" xmlns="http://www.w3.org/2000/svg"><g><path fill-rule="evenodd" clip-rule="evenodd" d="M12 22C17.5228 22 22 17.5228 22 12C22 6.47715 17.5228 2 12 2C6.47715 2 2 6.47715 2 12C2 17.5228 6.47715 22 12 22ZM10.9655 8.29915C11.5277 9.1802 11.25 10.6235 9.35225 12.1294C9.28437 12.1833 9.19388 12.1993 9.11168 12.1719C6.8133 11.4058 6.05866 10.1446 6.28569 9.12432C6.39592 8.62897 6.73978 8.22729 7.19611 8.04148C7.59788 7.87789 8.07025 7.88807 8.52176 8.12294C8.8657 7.74781 9.3061 7.57668 9.73959 7.593C10.232 7.61153 10.6925 7.87138 10.9655 8.29915ZM14.8905 12.1719C17.1889 11.4059 17.9435 10.1446 17.7165 9.12439C17.6062 8.62905 17.2624 8.22737 16.806 8.04156C16.4043 7.87796 15.9319 7.88815 15.4804 8.12302C15.1365 7.74789 14.6961 7.57676 14.2626 7.59308C13.7702 7.61161 13.3097 7.87145 13.0367 8.29923C12.4744 9.18028 12.7522 10.6236 14.6499 12.1295C14.7178 12.1834 14.8083 12.1993 14.8905 12.1719ZM15.4483 14.053C15.7436 14.0267 16.0027 14.2591 15.9621 14.5527C15.693 16.5003 14.0216 18 12 18C9.97838 18 8.30705 16.5003 8.03787 14.5527C7.99729 14.2591 8.25642 14.0267 8.55166 14.053C10.8609 14.2588 13.1391 14.2588 15.4483 14.053Z" fill="currentColor"/></g></svg>