<svg width="24px" height="24px" viewBox="0 0 24 24" fill="currentColor" xmlns="http://www.w3.org/2000/svg"><g><path fill-rule="evenodd" clip-rule="evenodd" d="M12 2C17.5228 2 22 6.47715 22 12C22 17.5228 17.5228 22 12 22C6.47715 22 2 17.5228 2 12C2 6.47715 6.47715 2 12 2ZM15.8516 13.8652C14.9343 14.0196 13.2324 14.2744 12 14.2744C10.7673 14.2744 9.06458 14.0196 8.14746 13.8652C7.82115 13.8105 7.52671 14.0801 7.58789 14.4053C8.55393 19.5403 15.4443 19.5228 16.4121 14.4053C16.4735 14.08 16.178 13.8103 15.8516 13.8652ZM9.25 7.5C8.42157 7.5 7.75 8.29582 7.75 9.40039C7.75016 10.5047 8.42167 11.25 9.25 11.25C10.0783 11.25 10.7498 10.5047 10.75 9.40039C10.75 8.29582 10.0784 7.5 9.25 7.5ZM14.625 8.5C13.5895 8.5 12.75 9.02167 12.75 9.74609C12.75 11 13.5895 10.1885 14.625 10.1885C15.6605 10.1885 16.5 11 16.5 9.74609C16.5 9.02167 15.6605 8.5 14.625 8.5Z" fill="currentColor"/></g></svg>