<svg width="24px" height="24px" viewBox="0 0 24 24" fill="currentColor" xmlns="http://www.w3.org/2000/svg"><g><path d="M13.25 15.75C13.25 16.4404 12.6904 17 12 17C11.3096 17 10.75 16.4404 10.75 15.75V14.5H13.25V15.75Z" fill="currentColor"/><path fill-rule="evenodd" clip-rule="evenodd" d="M12 2C17.5228 2 22 6.47715 22 12C22 17.5228 17.5228 22 12 22C6.47715 22 2 17.5228 2 12C2 6.47715 6.47715 2 12 2ZM7.75 13C7.33579 13 7 13.3358 7 13.75C7 14.1642 7.33579 14.5 7.75 14.5H9.25V15.75C9.25 17.2688 10.4812 18.5 12 18.5C13.5188 18.5 14.75 17.2688 14.75 15.75V14.5H16.25C16.6642 14.5 17 14.1642 17 13.75C17 13.3358 16.6642 13 16.25 13H7.75ZM9.25 8C8.42157 8 7.75 8.79582 7.75 9.90039C7.75016 11.0047 8.42167 11.75 9.25 11.75C10.0783 11.75 10.7498 11.0047 10.75 9.90039C10.75 8.79582 10.0784 8 9.25 8ZM14.75 8C13.9216 8 13.25 8.79582 13.25 9.90039C13.2502 11.0047 13.9217 11.75 14.75 11.75C15.5783 11.75 16.2498 11.0047 16.25 9.90039C16.25 8.79582 15.5784 8 14.75 8Z" fill="currentColor"/></g></svg>