<svg width="24px" height="24px" viewBox="0 0 24 24" fill="currentColor" xmlns="http://www.w3.org/2000/svg"><g><path fill-rule="evenodd" clip-rule="evenodd" d="M12 2C17.5228 2 22 6.47715 22 12C22 17.5228 17.5228 22 12 22C6.47715 22 2 17.5228 2 12C2 6.47715 6.47715 2 12 2ZM16.3184 12.0586C16.1449 11.8745 15.8551 11.8745 15.6816 12.0586C13.8856 13.9645 13.5535 17.2499 16 17.25C18.4466 17.25 18.1144 13.9646 16.3184 12.0586ZM12 14.4795C10.6195 14.4795 9.50041 15.3627 9.5 15.9795C9.5 16.5963 10.6193 15.9639 12 15.9639C12.6038 15.9639 13.1578 16.0844 13.5898 16.1689C13.5096 15.8353 13.4876 15.4864 13.5068 15.1455C13.5121 15.0517 13.5206 14.9569 13.5322 14.8613C13.1089 14.6362 12.5778 14.4795 12 14.4795ZM9.25 7.75C8.42163 7.75 7.75009 8.43929 7.75 9.39648C7.75 10.3538 8.42157 11 9.25 11C10.0784 11 10.75 10.3538 10.75 9.39648C10.7499 8.43929 10.0784 7.75 9.25 7.75ZM14.75 7.75C13.9216 7.75 13.2501 8.43929 13.25 9.39648C13.25 10.3538 13.9216 11 14.75 11C15.5784 11 16.25 10.3538 16.25 9.39648C16.2499 8.43929 15.5784 7.75 14.75 7.75Z" fill="currentColor"/></g></svg>