<svg width="24px" height="24px" viewBox="0 0 24 24" fill="currentColor" xmlns="http://www.w3.org/2000/svg"><g><path fill-rule="evenodd" clip-rule="evenodd" d="M12 2C17.5228 2 22 6.47715 22 12C22 17.5228 17.5228 22 12 22C6.47715 22 2 17.5228 2 12C2 6.47715 6.47715 2 12 2ZM12 13C10.8954 13 10 13.7741 10 15.5C10 17.2259 10.8954 18 12 18C13.1046 18 14 17.2259 14 15.5C14 13.7741 13.1046 13 12 13ZM9.25 9C8.55964 9 8 9.67157 8 10.5C8 11.3284 8.55964 12 9.25 12C9.94036 12 10.5 11.3284 10.5 10.5C10.5 9.67157 9.94036 9 9.25 9ZM14.75 9C14.0596 9 13.5 9.67157 13.5 10.5C13.5 11.3284 14.0596 12 14.75 12C15.4404 12 16 11.3284 16 10.5C16 9.67157 15.4404 9 14.75 9ZM9.94629 6.90039C9.39392 5.6691 6.00965 7.55742 6.56055 8.78809C6.8274 9.38245 7.49086 8.58551 8.35449 8.12695C9.19926 7.67846 10.2515 7.58232 9.94629 6.90039ZM17.4395 8.78809C17.9904 7.55742 14.6061 5.6691 14.0537 6.90039C13.7485 7.58232 14.8007 7.67846 15.6455 8.12695C16.5091 8.58551 17.1726 9.38245 17.4395 8.78809Z" fill="currentColor"/></g></svg>