<svg width="24px" height="24px" viewBox="0 0 24 24" fill="currentColor" xmlns="http://www.w3.org/2000/svg"><g><path fill-rule="evenodd" clip-rule="evenodd" d="M12 2C17.5228 2 22 6.47715 22 12C22 17.5228 17.5228 22 12 22C6.47715 22 2 17.5228 2 12C2 6.47715 6.47715 2 12 2ZM15.8516 13.8652C14.9343 14.0196 13.2324 14.2744 12 14.2744C10.7673 14.2744 9.06458 14.0196 8.14746 13.8652C7.82115 13.8105 7.52671 14.0801 7.58789 14.4053C8.55393 19.5403 15.4443 19.5228 16.4121 14.4053C16.4735 14.08 16.178 13.8103 15.8516 13.8652ZM8.46973 6.60645C8.36152 6.45223 8.12765 6.4689 8.04199 6.63672L7.40918 7.87793C7.37846 7.93811 7.32433 7.98303 7.25977 8.00293L5.92676 8.41113C5.74661 8.46635 5.69013 8.69381 5.82324 8.82715L6.80762 9.81348C6.85542 9.86135 6.88196 9.9265 6.88086 9.99414L6.85742 11.3877C6.85427 11.5759 7.05284 11.7002 7.2207 11.6152L8.46289 10.9834C8.52323 10.9527 8.59418 10.9477 8.6582 10.9697L9.97559 11.4219C10.1538 11.4831 10.334 11.3326 10.3047 11.1465L10.0869 9.77051C10.0764 9.70364 10.0941 9.63515 10.1348 9.58105L10.9727 8.4668C11.0855 8.31624 10.9975 8.0999 10.8115 8.07031L9.43555 7.85059C9.3689 7.83998 9.30938 7.80319 9.27051 7.74805L8.46973 6.60645ZM15.96 6.63672C15.8743 6.46892 15.6414 6.45227 15.5332 6.60645L14.7324 7.74805C14.6936 7.8032 14.634 7.83997 14.5674 7.85059L13.1914 8.07031C13.0054 8.0999 12.9174 8.31624 13.0303 8.4668L13.8682 9.58105C13.9089 9.63515 13.9266 9.70364 13.916 9.77051L13.6982 11.1465C13.6689 11.3325 13.8482 11.4829 14.0264 11.4219L15.3447 10.9697C15.4087 10.9478 15.4788 10.9528 15.5391 10.9834L16.7822 11.6152C16.9501 11.7001 17.1487 11.5759 17.1455 11.3877L17.1221 9.99414C17.121 9.92662 17.1467 9.86132 17.1943 9.81348L18.1797 8.82715C18.3127 8.69381 18.2563 8.46637 18.0762 8.41113L16.7432 8.00293C16.6786 7.98305 16.6245 7.93812 16.5938 7.87793L15.96 6.63672Z" fill="currentColor"/></g></svg>