<svg width="24px" height="24px" viewBox="0 0 24 24" fill="currentColor" xmlns="http://www.w3.org/2000/svg"><g><path fill-rule="evenodd" clip-rule="evenodd" d="M12 2C17.5228 2 22 6.47715 22 12C22 17.5228 17.5228 22 12 22C6.47715 22 2 17.5228 2 12C2 6.47715 6.47715 2 12 2ZM16.5674 12.8232C13.7457 13.7744 10.9651 14.2647 7.98828 14.3359C7.65957 14.344 7.42145 14.6603 7.54297 14.9658C9.48787 19.8477 17.0378 18.4992 17.2012 13.2637C17.2114 12.9347 16.8793 12.7181 16.5674 12.8232ZM7.07812 9.03809C6.63674 9.00313 6.43456 9.52726 6.75781 9.83008L7.43945 10.4688C7.60163 10.6207 7.64438 10.8613 7.54395 11.0596L7.12207 11.8936C6.92209 12.2887 7.29146 12.7115 7.69434 12.5273C8.7003 12.0673 9.65434 11.4207 10.3564 10.6025C10.5377 10.3913 10.4817 10.0731 10.2393 9.93652C9.2995 9.40771 8.18099 9.12626 7.07812 9.03809ZM16.1836 8.16797C16.3838 7.77273 16.0143 7.34897 15.6113 7.5332C14.6054 7.9932 13.6513 8.63989 12.9492 9.45801C12.768 9.66921 12.824 9.98739 13.0664 10.124C14.0062 10.6528 15.1247 10.9343 16.2275 11.0225C16.6688 11.0574 16.8708 10.5343 16.5479 10.2314L15.8662 9.5918C15.704 9.43987 15.6613 9.19921 15.7617 9.00098L16.1836 8.16797Z" fill="currentColor"/></g></svg>