<svg width="24px" height="24px" viewBox="0 0 24 24" fill="currentColor" xmlns="http://www.w3.org/2000/svg"><g><path fill-rule="evenodd" clip-rule="evenodd" d="M17.25 3C19.3211 3 21 4.67893 21 6.75V17.25C21 19.3211 19.3211 21 17.25 21H6.75C4.67893 21 3 19.3211 3 17.25V12.75C3 10.6789 4.67893 9 6.75 9H7.75C8.44036 9 9 8.44036 9 7.75V6.75C9 4.67893 10.6789 3 12.75 3H17.25ZM15 9.25C14.5858 9.25 14.25 9.58579 14.25 10V13C14.25 13.6904 13.6904 14.25 13 14.25H11V13.2002C10.9998 12.7979 10.5484 12.5603 10.2168 12.7881L7.59961 14.5879C7.31063 14.7866 7.31063 15.2134 7.59961 15.4121L10.2168 17.2119C10.5484 17.4397 10.9998 17.2021 11 16.7998V15.75H13C14.5188 15.75 15.75 14.5188 15.75 13V10C15.75 9.58579 15.4142 9.25 15 9.25Z" fill="currentColor"/></g></svg>