<svg width="24px" height="24px" viewBox="0 0 24 24" fill="currentColor" xmlns="http://www.w3.org/2000/svg"><g><path fill-rule="evenodd" clip-rule="evenodd" d="M12 2C17.5228 2 22 6.47715 22 12C22 17.5228 17.5228 22 12 22C6.47715 22 2 17.5228 2 12C2 6.47715 6.47715 2 12 2ZM12 14.7998C11.3926 14.7998 10.9006 15.2921 10.9004 15.8994C10.9004 16.5069 11.3925 17 12 17C12.6075 16.9999 13.0996 16.5069 13.0996 15.8994C13.0994 15.2921 12.6073 14.7999 12 14.7998ZM12 7C11.4575 7 11.0271 7.45647 11.0586 7.99805L11.3125 12.3516C11.334 12.7157 11.6352 13 12 13C12.3648 13 12.666 12.7157 12.6875 12.3516L12.9414 7.99805C12.9729 7.45647 12.5425 7 12 7Z" fill="currentColor"/></g></svg>