<svg width="24px" height="24px" viewBox="0 0 24 24" fill="currentColor" xmlns="http://www.w3.org/2000/svg"><g><path fill-rule="evenodd" clip-rule="evenodd" d="M12 2C17.5228 2 22 6.47715 22 12C22 17.5228 17.5228 22 12 22C6.47715 22 2 17.5228 2 12C2 6.47715 6.47715 2 12 2ZM12 15C11.4477 15 11 15.4477 11 16C11 16.5523 11.4477 17 12 17C12.5523 17 13 16.5523 13 16C13 15.4477 12.5523 15 12 15ZM12 7C11.5858 7 11.25 7.33579 11.25 7.75V12.25C11.25 12.6642 11.5858 13 12 13C12.4142 13 12.75 12.6642 12.75 12.25V7.75C12.75 7.33579 12.4142 7 12 7Z" fill="currentColor"/></g></svg>