<svg width="24px" height="24px" viewBox="0 0 24 24" fill="currentColor" xmlns="http://www.w3.org/2000/svg"><g><path fill-rule="evenodd" clip-rule="evenodd" d="M12 5.75C12 5.33579 12.3358 5 12.75 5H16.25C17.7688 5 19 6.23122 19 7.75V11.25C19 11.6642 18.6642 12 18.25 12C17.8358 12 17.5 11.6642 17.5 11.25V7.75C17.5 7.05964 16.9404 6.5 16.25 6.5H12.75C12.3358 6.5 12 6.16421 12 5.75ZM5.75 12C6.16421 12 6.5 12.3358 6.5 12.75V16.25C6.5 16.9404 7.05964 17.5 7.75 17.5H11.25C11.6642 17.5 12 17.8358 12 18.25C12 18.6642 11.6642 19 11.25 19H7.75C6.23122 19 5 17.7688 5 16.25V12.75C5 12.3358 5.33579 12 5.75 12Z" fill="currentColor"/></g></svg>