<svg width="24px" height="24px" viewBox="0 0 24 24" fill="currentColor" xmlns="http://www.w3.org/2000/svg"><g><path d="M9.25 13C10.7688 13 12 14.2312 12 15.75V19.25C12 20.7688 10.7688 22 9.25 22H4.75C3.23122 22 2 20.7688 2 19.25V15.75C2 14.2312 3.23122 13 4.75 13H9.25Z" fill="currentColor"/><path d="M20.5 6.75C20.5 5.50736 19.4926 4.5 18.25 4.5H6.75C5.50736 4.5 4.5 5.50736 4.5 6.75V10.25C4.5 10.6642 4.16421 11 3.75 11C3.33579 11 3 10.6642 3 10.25V6.75C3 4.67893 4.67893 3 6.75 3H18.25C20.3211 3 22 4.67893 22 6.75V12.25C22 14.3211 20.3211 16 18.25 16H14.75C14.3358 16 14 15.6642 14 15.25C14 14.8358 14.3358 14.5 14.75 14.5H18.25C19.4926 14.5 20.5 13.4926 20.5 12.25V6.75Z" fill="currentColor"/><path d="M17.25 7C17.6642 7 18 7.33579 18 7.75V10.75C18 11.1642 17.6642 11.5 17.25 11.5C16.8358 11.5 16.5 11.1642 16.5 10.75V9.56066L14.5303 11.5303C14.2374 11.8232 13.7626 11.8232 13.4697 11.5303C13.1768 11.2374 13.1768 10.7626 13.4697 10.4697L15.4393 8.5H14.25C13.8358 8.5 13.5 8.16421 13.5 7.75C13.5 7.33579 13.8358 7 14.25 7H17.25Z" fill="currentColor"/></g></svg>