<svg width="24px" height="24px" viewBox="0 0 24 24" fill="currentColor" xmlns="http://www.w3.org/2000/svg"><g><path fill-rule="evenodd" clip-rule="evenodd" d="M11 3.75C11 3.33579 10.6642 3 10.25 3H3.75C3.33579 3 3 3.33579 3 3.75V10.25C3 10.6642 3.33579 11 3.75 11C4.16421 11 4.5 10.6642 4.5 10.25V5.56066L9.71967 10.7803C10.0126 11.0732 10.4874 11.0732 10.7803 10.7803C11.0732 10.4874 11.0732 10.0126 10.7803 9.71967L5.56066 4.5H10.25C10.6642 4.5 11 4.16421 11 3.75ZM21 13.75C21 13.3358 20.6642 13 20.25 13C19.8358 13 19.5 13.3358 19.5 13.75V18.4393L14.2803 13.2197C13.9874 12.9268 13.5126 12.9268 13.2197 13.2197C12.9268 13.5126 12.9268 13.9874 13.2197 14.2803L18.4393 19.5H13.75C13.3358 19.5 13 19.8358 13 20.25C13 20.6642 13.3358 21 13.75 21H20.25C20.6642 21 21 20.6642 21 20.25V13.75Z" fill="currentColor"/></g></svg>