<svg width="24px" height="24px" viewBox="0 0 24 24" fill="currentColor" xmlns="http://www.w3.org/2000/svg"><g><path fill-rule="evenodd" clip-rule="evenodd" d="M5.75 12C5.33579 12 5 11.6642 5 11.25V7.75C5 6.23122 6.23122 5 7.75 5H11.25C11.6642 5 12 5.33579 12 5.75C12 6.16421 11.6642 6.5 11.25 6.5H7.75C7.05964 6.5 6.5 7.05964 6.5 7.75V11.25C6.5 11.6642 6.16421 12 5.75 12ZM12 18.25C12 17.8358 12.3358 17.5 12.75 17.5H16.25C16.9404 17.5 17.5 16.9404 17.5 16.25V12.75C17.5 12.3358 17.8358 12 18.25 12C18.6642 12 19 12.3358 19 12.75V16.25C19 17.7688 17.7688 19 16.25 19H12.75C12.3358 19 12 18.6642 12 18.25Z" fill="currentColor"/></g></svg>