<svg width="24px" height="24px" viewBox="0 0 24 24" fill="currentColor" xmlns="http://www.w3.org/2000/svg"><g><path fill-rule="evenodd" clip-rule="evenodd" d="M11.25 13.9536C8.29027 13.5845 6 11.0597 6 8.00003V4.38448C6 3.33445 7.06051 2.61646 8.03543 3.00643L8.9109 3.35662C9.11909 3.43989 9.35597 3.40479 9.53106 3.26472L10.2821 2.66389C11.2864 1.86041 12.7136 1.86041 13.7179 2.66389L14.4689 3.26472C14.644 3.40479 14.8809 3.43989 15.0891 3.35662L15.9646 3.00643C16.9395 2.61646 18 3.33445 18 4.38448V8.00003C18 11.0597 15.7097 13.5845 12.75 13.9536V16.4648C13.829 15.2589 15.3973 14.5 17.1429 14.5C17.4522 14.5 17.7566 14.5239 18.0539 14.5701C18.3766 14.6202 18.6298 14.8734 18.6799 15.1961C18.7261 15.4934 18.75 15.7978 18.75 16.1071C18.75 19.3617 16.1117 22 12.8571 22C12.6432 22 12.4317 21.9886 12.2232 21.9662C12.1527 21.9882 12.0777 22 12 22C11.9223 22 11.8473 21.9882 11.7768 21.9662C11.5683 21.9886 11.3568 22 11.1429 22C7.88832 22 5.25 19.3617 5.25 16.1071C5.25 15.7978 5.27391 15.4934 5.32011 15.1961C5.37024 14.8734 5.6234 14.6202 5.94608 14.5701C6.24344 14.5239 6.54775 14.5 6.85714 14.5C8.60268 14.5 10.171 15.2589 11.25 16.4648V13.9536ZM6.85714 16C9.28325 16 11.25 17.9667 11.25 20.3929C11.25 20.4283 11.2496 20.4636 11.2488 20.4988C11.2136 20.4996 11.1783 20.5 11.1429 20.5C8.71675 20.5 6.75 18.5333 6.75 16.1071C6.75 16.0717 6.75042 16.0364 6.75125 16.0012C6.78644 16.0004 6.82173 16 6.85714 16ZM12.7512 20.4988C12.7504 20.4636 12.75 20.4283 12.75 20.3929C12.75 17.9667 14.7167 16 17.1429 16C17.1783 16 17.2136 16.0004 17.2488 16.0012C17.2496 16.0364 17.25 16.0717 17.25 16.1071C17.25 18.5333 15.2833 20.5 12.8571 20.5C12.8217 20.5 12.7864 20.4996 12.7512 20.4988Z" fill="currentColor"/></g></svg>