<svg width="24px" height="24px" viewBox="0 0 24 24" fill="currentColor" xmlns="http://www.w3.org/2000/svg"><g><path fill-rule="evenodd" clip-rule="evenodd" d="M22 12C22 17.5228 17.5228 22 12 22C6.47715 22 2 17.5228 2 12C2 6.47715 6.47715 2 12 2C17.5228 2 22 6.47715 22 12ZM12 6C12.4142 6 12.75 6.33579 12.75 6.75V8.75H14.75C15.1642 8.75 15.5 9.08579 15.5 9.5C15.5 9.91421 15.1642 10.25 14.75 10.25H12.75V12.25C12.75 12.6642 12.4142 13 12 13C11.5858 13 11.25 12.6642 11.25 12.25V10.25H9.25C8.83579 10.25 8.5 9.91421 8.5 9.5C8.5 9.08579 8.83579 8.75 9.25 8.75H11.25V6.75C11.25 6.33579 11.5858 6 12 6ZM9.25 15.5C8.83579 15.5 8.5 15.8358 8.5 16.25C8.5 16.6642 8.83579 17 9.25 17H14.75C15.1642 17 15.5 16.6642 15.5 16.25C15.5 15.8358 15.1642 15.5 14.75 15.5H9.25Z" fill="currentColor"/></g></svg>