<svg width="24px" height="24px" viewBox="0 0 24 24" fill="currentColor" xmlns="http://www.w3.org/2000/svg"><g><path fill-rule="evenodd" clip-rule="evenodd" d="M12.0001 4C15.7434 4.00003 19.3963 6.16075 21.9147 10.2948C22.5514 11.34 22.5514 12.66 21.9147 13.7052C19.3963 17.8393 15.7434 20 12.0001 19.9999C8.25676 19.9999 4.60378 17.8392 2.08543 13.7051C1.44874 12.6599 1.44873 11.3399 2.08544 10.2947C4.60378 6.16064 8.25676 3.99997 12.0001 4ZM8.37506 12C8.37506 9.99797 9.99803 8.375 12.0001 8.375C14.0021 8.375 15.6251 9.99797 15.6251 12C15.6251 14.002 14.0021 15.625 12.0001 15.625C9.99803 15.625 8.37506 14.002 8.37506 12Z" fill="currentColor"/></g></svg>