<svg width="24px" height="24px" viewBox="0 0 24 24" fill="currentColor" xmlns="http://www.w3.org/2000/svg"><g><path fill-rule="evenodd" clip-rule="evenodd" d="M3.28033 2.21967C2.98744 1.92678 2.51256 1.92678 2.21967 2.21967C1.92678 2.51256 1.92678 2.98744 2.21967 3.28033L5.38733 6.44799C4.04329 7.533 2.8302 8.97021 1.81768 10.7471C1.37472 11.5245 1.37667 12.4782 1.81881 13.2539C3.74678 16.6364 6.40456 18.789 9.29444 19.6169C12.0009 20.3923 14.8469 19.9857 17.3701 18.4308L20.7197 21.7803C21.0126 22.0732 21.4874 22.0732 21.7803 21.7803C22.0732 21.4874 22.0732 21.0126 21.7803 20.7197L3.28033 2.21967ZM14.2475 15.3082L13.1559 14.2166C12.81 14.3975 12.4167 14.4995 11.9991 14.4995C10.6184 14.4995 9.49911 13.3802 9.49911 11.9995C9.49911 11.5819 9.60116 11.1886 9.78207 10.8427L8.69048 9.75114C8.25449 10.3917 7.99911 11.1662 7.99911 11.9995C7.99911 14.2087 9.78998 15.9995 11.9991 15.9995C12.8324 15.9995 13.6069 15.7441 14.2475 15.3082Z" fill="currentColor"/><path d="M19.7234 16.5416C20.5189 15.7335 21.2556 14.7869 21.9145 13.7052C22.5512 12.66 22.5512 11.34 21.9145 10.2948C19.3961 6.16075 15.7432 4.00003 11.9999 4C10.6454 3.99999 9.30281 4.28286 8.02148 4.83974L19.7234 16.5416Z" fill="currentColor"/></g></svg>