<svg width="24px" height="24px" viewBox="0 0 24 24" fill="currentColor" xmlns="http://www.w3.org/2000/svg"><g><path fill-rule="evenodd" clip-rule="evenodd" d="M12.0019 4C15.745 4.00019 19.3977 6.16102 21.9159 10.2949C22.5526 11.3401 22.5526 12.6599 21.9159 13.7051C19.3977 17.839 15.745 19.9999 12.0019 20C8.25858 20 4.60518 17.8391 2.08684 13.7051C1.45019 12.6599 1.45025 11.3401 2.08684 10.2949C4.60519 6.16087 8.25858 3.99997 12.0019 4ZM11.9999 8C11.759 8 11.5425 8.1482 11.456 8.37305L10.7597 10.1855C10.6581 10.4494 10.4494 10.6582 10.1855 10.7598L8.37298 11.4561C8.14813 11.5426 7.99993 11.7591 7.99993 12C7.99993 12.2409 8.14813 12.4574 8.37298 12.5439L10.1855 13.2402C10.4494 13.3418 10.6581 13.5506 10.7597 13.8145L11.456 15.627C11.5425 15.8518 11.759 16 11.9999 16C12.2409 16 12.4573 15.8518 12.5439 15.627L13.2402 13.8145C13.3417 13.5506 13.5505 13.3418 13.8144 13.2402L15.6269 12.5439C15.8517 12.4574 15.9999 12.2409 15.9999 12C15.9999 11.7591 15.8517 11.5426 15.6269 11.4561L13.8144 10.7598C13.5505 10.6582 13.3417 10.4494 13.2402 10.1855L12.5439 8.37305C12.4573 8.1482 12.2409 8 11.9999 8Z" fill="currentColor"/></g></svg>