<svg width="24px" height="24px" viewBox="0 0 24 24" fill="currentColor" xmlns="http://www.w3.org/2000/svg"><g><path d="M14.958 13.7498L9.98045 18.7273C9.50731 19.2004 8.91627 19.5382 8.26853 19.7059L7.11326 20.0047C6.75046 20.0985 6.41895 20.2882 6.15428 20.5535C5.40675 21.3009 4.19476 21.3009 3.44725 20.5535C2.69988 19.806 2.69987 18.594 3.44725 17.8465C3.71059 17.5825 3.89936 17.2533 3.99314 16.8924L4.29393 15.7303C4.46188 15.0837 4.8001 14.4936 5.27244 14.0213L10.251 9.04276L14.958 13.7498Z" fill="currentColor"/><path d="M15.7969 3.73124C17.0554 2.65253 18.9323 2.72427 20.1045 3.89628C21.2766 5.06844 21.3482 6.94527 20.2695 8.2039L19.622 8.95976C19.2215 9.42723 19.001 10.0229 19.001 10.6385V10.8787C19.0008 11.409 18.79 11.9178 18.415 12.2928C17.634 13.0735 16.3679 13.0735 15.5869 12.2928L11.708 8.41386C10.9271 7.63288 10.9272 6.36678 11.708 5.58573C12.083 5.21073 12.5917 4.99988 13.1221 4.99979H13.3623C13.9783 4.99979 14.5743 4.77873 15.042 4.37772L15.7969 3.73124Z" fill="currentColor"/></g></svg>