<svg width="24px" height="24px" viewBox="0 0 24 24" fill="currentColor" xmlns="http://www.w3.org/2000/svg"><g><path fill-rule="evenodd" clip-rule="evenodd" d="M3 6.75C3 4.67893 4.67893 3 6.75 3H8.25C8.66421 3 9 3.33579 9 3.75C9 4.16421 8.66421 4.5 8.25 4.5H6.75C5.50736 4.5 4.5 5.50736 4.5 6.75V8.25C4.5 8.66421 4.16421 9 3.75 9C3.33579 9 3 8.66421 3 8.25V6.75ZM15 3.75C15 3.33579 15.3358 3 15.75 3H17.25C19.3211 3 21 4.67893 21 6.75V8.25C21 8.66421 20.6642 9 20.25 9C19.8358 9 19.5 8.66421 19.5 8.25V6.75C19.5 5.50736 18.4926 4.5 17.25 4.5H15.75C15.3358 4.5 15 4.16421 15 3.75ZM7.75 8C8.16421 8 8.5 8.33579 8.5 8.75V10.25C8.5 10.6642 8.16421 11 7.75 11C7.33579 11 7 10.6642 7 10.25V8.75C7 8.33579 7.33579 8 7.75 8ZM12.25 8C12.6642 8 13 8.33579 13 8.75V11C13 12.4029 11.9501 13.5595 10.5928 13.7288C10.1818 13.78 9.80702 13.4884 9.75576 13.0773C9.70451 12.6663 9.99616 12.2915 10.4072 12.2403C11.023 12.1635 11.5 11.6369 11.5 11V8.75C11.5 8.33579 11.8358 8 12.25 8ZM16.25 8C16.6642 8 17 8.33579 17 8.75V10.25C17 10.6642 16.6642 11 16.25 11C15.8358 11 15.5 10.6642 15.5 10.25V8.75C15.5 8.33579 15.8358 8 16.25 8ZM8.3508 15.3218C8.5582 14.9632 9.017 14.8407 9.37554 15.0481C10.147 15.4944 11.0425 15.75 12 15.75C12.9575 15.75 13.853 15.4944 14.6245 15.0481C14.983 14.8407 15.4418 14.9632 15.6492 15.3218C15.8566 15.6803 15.7341 16.1391 15.3755 16.3465C14.3819 16.9213 13.2282 17.25 12 17.25C10.7718 17.25 9.61805 16.9213 8.62446 16.3465C8.26591 16.1391 8.14339 15.6803 8.3508 15.3218ZM3.75 15C4.16421 15 4.5 15.3358 4.5 15.75V17.25C4.5 18.4926 5.50736 19.5 6.75 19.5H8.25C8.66421 19.5 9 19.8358 9 20.25C9 20.6642 8.66421 21 8.25 21H6.75C4.67893 21 3 19.3211 3 17.25V15.75C3 15.3358 3.33579 15 3.75 15ZM20.25 15C20.6642 15 21 15.3358 21 15.75V17.25C21 19.3211 19.3211 21 17.25 21H15.75C15.3358 21 15 20.6642 15 20.25C15 19.8358 15.3358 19.5 15.75 19.5H17.25C18.4926 19.5 19.5 18.4926 19.5 17.25V15.75C19.5 15.3358 19.8358 15 20.25 15Z" fill="currentColor"/></g></svg>