<svg width="24px" height="24px" viewBox="0 0 24 24" fill="currentColor" xmlns="http://www.w3.org/2000/svg"><g><path fill-rule="evenodd" clip-rule="evenodd" d="M5 4C5.55228 4 6 4.44772 6 5V8C6 8.55228 5.55228 9 5 9C4.44772 9 4 8.55228 4 8V5C4 4.44772 4.44772 4 5 4ZM19 4C19.5523 4 20 4.44772 20 5V8C20 8.55228 19.5523 9 19 9C18.4477 9 18 8.55228 18 8V5C18 4.44772 18.4477 4 19 4ZM13 5C13.5523 5 14 5.44772 14 6V12.5C14 14.1569 12.6569 15.5 11 15.5C10.4477 15.5 10 15.0523 10 14.5C10 13.9477 10.4477 13.5 11 13.5C11.5523 13.5 12 13.0523 12 12.5V6C12 5.44772 12.4477 5 13 5ZM5.22934 16.8627C5.58129 16.4371 6.21163 16.3774 6.63725 16.7293C8.53151 18.2957 10.3059 19 12 19C13.6941 19 15.4685 18.2957 17.3627 16.7293C17.7884 16.3774 18.4187 16.4371 18.7707 16.8627C19.1226 17.2884 19.0629 17.9187 18.6373 18.2707C16.5004 20.0376 14.2903 21 12 21C9.70965 21 7.49962 20.0376 5.36275 18.2707C4.93713 17.9187 4.8774 17.2884 5.22934 16.8627Z" fill="currentColor"/></g></svg>