<svg width="24px" height="24px" viewBox="0 0 24 24" fill="currentColor" xmlns="http://www.w3.org/2000/svg"><g><path d="M16.3846 5.63353C16.347 5.62444 16.3119 5.6075 16.2816 5.58395C16.2513 5.56034 16.2266 5.53068 16.2091 5.49693C16.1916 5.46318 16.1819 5.42614 16.1804 5.38837C16.1791 5.35056 16.186 5.31297 16.2009 5.27806C16.7146 4.0589 16.9412 3.08339 16.5755 2.67501C15.6066 1.59154 11.7215 3.74606 10.4827 4.47576C10.4495 4.49522 10.4124 4.50747 10.374 4.51166C10.3355 4.51584 10.2966 4.51187 10.2598 4.50005C10.2231 4.48823 10.1893 4.46881 10.161 4.44312C10.1326 4.41743 10.1103 4.38607 10.0955 4.35121C9.57475 3.1346 9.02735 2.28839 8.47251 2.25169C7.00184 2.15354 5.81646 6.35637 5.46946 7.72617C5.46018 7.76287 5.4429 7.79718 5.4188 7.82671C5.39464 7.85628 5.36423 7.88039 5.32966 7.89742C5.2951 7.91444 5.25715 7.92396 5.21843 7.92533C5.17974 7.92673 5.1412 7.91995 5.10541 7.90544C3.85527 7.40446 2.85454 7.18342 2.43623 7.54016C1.32524 8.48494 3.53409 12.2739 4.28233 13.482C4.30234 13.5143 4.31493 13.5505 4.31927 13.588C4.3236 13.6255 4.31958 13.6636 4.30745 13.6993C4.29533 13.7352 4.27537 13.7682 4.24899 13.7958C4.22261 13.8235 4.19041 13.8451 4.15456 13.8596C2.90748 14.3674 2.03979 14.9012 2.00172 15.4423C1.90151 16.8765 6.21071 18.0326 7.61575 18.371C7.65329 18.3801 7.68834 18.397 7.71858 18.4207C7.74876 18.4442 7.77345 18.4739 7.79082 18.5076C7.80824 18.5412 7.81799 18.5782 7.8194 18.6159C7.82084 18.6536 7.81393 18.6912 7.79909 18.726C7.28538 19.9452 7.05872 20.9211 7.42453 21.3291C8.39331 22.4125 12.2789 20.2584 13.5177 19.5287C13.5509 19.5092 13.588 19.4969 13.6264 19.4927C13.665 19.4885 13.7039 19.4924 13.7407 19.5042C13.7775 19.516 13.8112 19.5356 13.8395 19.5612C13.8679 19.587 13.8902 19.6183 13.905 19.6533C14.4257 20.8695 14.9726 21.7157 15.5279 21.7529C16.9985 21.8505 18.1839 17.6481 18.5305 16.2779C18.5398 16.2413 18.5572 16.207 18.5814 16.1775C18.6056 16.148 18.6361 16.1239 18.6707 16.1069C18.7053 16.09 18.7433 16.0805 18.782 16.0791C18.8207 16.0777 18.8593 16.0845 18.895 16.0991C20.1451 16.6 21.1454 16.8207 21.5641 16.4644C22.6752 15.5196 20.4658 11.7302 19.7176 10.5221C19.6978 10.4898 19.6853 10.4536 19.6811 10.4161C19.6768 10.3786 19.6809 10.3406 19.693 10.3048C19.7052 10.269 19.725 10.2361 19.7513 10.2085C19.7776 10.1808 19.8097 10.159 19.8454 10.1445C21.093 9.63668 21.9606 9.1028 21.9983 8.5617C22.0989 7.12747 17.7893 5.9715 16.3846 5.63353ZM14.6974 4.25856C14.98 4.75272 13.5234 8.04541 12.44 10.3485C12.4218 10.387 12.3921 10.4191 12.3547 10.4406C12.3172 10.4622 12.2739 10.472 12.2306 10.4688C12.1873 10.4656 12.146 10.4495 12.1123 10.4227C12.0786 10.3959 12.0542 10.3597 12.0422 10.319C11.6046 8.82159 11.1045 7.06223 10.5694 5.56867C10.5483 5.51003 10.5494 5.44602 10.5723 5.38812C10.5952 5.33016 10.6386 5.28208 10.6945 5.25242C12.0308 4.54063 14.3175 3.59542 14.6974 4.25856ZM8.2931 4.66608C8.851 4.82056 10.2084 8.15337 11.1119 10.529C11.127 10.5687 11.1293 10.6119 11.1184 10.6529C11.1075 10.6939 11.0841 10.7306 11.0512 10.7582C11.0182 10.7858 10.9774 10.8029 10.9342 10.8073C10.8911 10.8116 10.8476 10.8029 10.8096 10.7825C9.41329 10.0267 7.78508 9.12632 6.3236 8.43928C6.26637 8.41219 6.22087 8.36622 6.19513 8.30947C6.1694 8.25276 6.16515 8.18896 6.18314 8.12948C6.61327 6.7059 7.54355 4.45913 8.2931 4.66608ZM4.06005 9.37079C4.56632 9.09512 7.94305 10.5157 10.3042 11.5723C10.3437 11.59 10.3767 11.619 10.3987 11.6556C10.4208 11.692 10.4309 11.7343 10.4276 11.7765C10.4242 11.8188 10.4078 11.859 10.3803 11.8919C10.3529 11.9247 10.3158 11.9486 10.274 11.9602C8.73899 12.387 6.93445 12.8747 5.40295 13.3967C5.34292 13.4169 5.27737 13.4159 5.21808 13.3935C5.15879 13.3712 5.10951 13.329 5.07915 13.2745C4.3506 11.9713 3.37963 9.74119 4.06005 9.37079ZM4.47793 15.6165C4.63589 15.0724 8.05375 13.7486 10.4897 12.8674C10.5304 12.8527 10.5748 12.8505 10.6168 12.8612C10.6588 12.8717 10.6965 12.8946 10.7248 12.9267C10.7531 12.9588 10.7707 12.9986 10.7751 13.0408C10.7795 13.0828 10.7706 13.1252 10.7496 13.1623C9.97425 14.524 9.05098 16.1119 8.34649 17.5367C8.31897 17.5928 8.27184 17.6373 8.2136 17.6625C8.1554 17.6877 8.0899 17.6918 8.02881 17.6742C6.56908 17.2572 4.26527 16.3475 4.47793 15.6165ZM9.30214 19.7446C9.01904 19.2509 10.4761 15.9578 11.5596 13.6552C11.5777 13.6167 11.6075 13.5845 11.6449 13.5629C11.6823 13.5415 11.7256 13.5317 11.7689 13.5349C11.8123 13.538 11.8536 13.5542 11.8872 13.5809C11.9209 13.6077 11.9454 13.6439 11.9573 13.6847C12.3949 15.1816 12.895 16.9415 13.4302 18.435C13.4511 18.4936 13.4499 18.5575 13.4269 18.6154C13.4039 18.6732 13.3605 18.7213 13.3045 18.7508C11.9687 19.4612 9.68151 20.4082 9.30346 19.7446H9.30214ZM15.7064 19.3371C15.1481 19.183 13.7907 15.8499 12.8872 13.4743C12.872 13.4345 12.8697 13.3912 12.8806 13.3501C12.8914 13.309 12.915 13.2722 12.948 13.2446C12.981 13.217 13.0219 13.1999 13.0651 13.1956C13.1084 13.1913 13.152 13.2002 13.19 13.2208C14.5858 13.9765 16.2144 14.8774 17.6755 15.5644C17.7328 15.5914 17.7784 15.6373 17.8042 15.6941C17.8299 15.7508 17.8342 15.8147 17.816 15.8742C17.3863 17.2999 16.456 19.5444 15.7064 19.3371ZM19.9394 14.6324C19.4328 14.9085 16.0565 13.4875 13.695 12.4309C13.6554 12.4132 13.6224 12.3842 13.6004 12.3477C13.5783 12.3112 13.5683 12.2689 13.5715 12.2267C13.5748 12.1844 13.5913 12.1442 13.6187 12.1113C13.6462 12.0785 13.6834 12.0547 13.7251 12.043C15.2605 11.6163 17.0646 11.1285 18.5961 10.6066C18.6563 10.5863 18.7219 10.5874 18.7813 10.6098C18.8407 10.6323 18.89 10.6745 18.9204 10.7291C19.6485 12.0319 20.6195 14.2624 19.9394 14.6324ZM19.5216 8.38674C19.3632 8.93126 15.9457 10.255 13.5098 11.1362C13.469 11.151 13.4246 11.1532 13.3826 11.1426C13.3404 11.132 13.3026 11.1091 13.2744 11.0769C13.2461 11.0447 13.2285 11.0048 13.2241 10.9626C13.2198 10.9205 13.2287 10.878 13.2499 10.8409C14.0249 9.47961 14.9481 7.89132 15.6527 6.46646C15.6803 6.4106 15.7274 6.36618 15.7857 6.34109C15.8438 6.316 15.9093 6.31186 15.9703 6.32948C17.43 6.74853 19.7338 7.65576 19.5216 8.38674Z" fill="currentColor"/></g></svg>