<svg width="24px" height="24px" viewBox="0 0 24 24" fill="currentColor" xmlns="http://www.w3.org/2000/svg"><g><path fill-rule="evenodd" clip-rule="evenodd" d="M3 6.75C3 4.67893 4.67893 3 6.75 3H17.25C19.3211 3 21 4.67893 21 6.75V17.25C21 19.3211 19.3211 21 17.25 21H12.75C12.3358 21 12 20.6642 12 20.25C12 19.8358 12.3358 19.5 12.75 19.5H17.25C18.4926 19.5 19.5 18.4926 19.5 17.25V6.75C19.5 5.50736 18.4926 4.5 17.25 4.5H16V7.25C16 8.76878 14.7688 10 13.25 10H10.75C9.23122 10 8 8.76878 8 7.25V4.5H6.75C5.50736 4.5 4.5 5.50736 4.5 6.75V9.25C4.5 9.66421 4.16421 10 3.75 10C3.33579 10 3 9.66421 3 9.25V6.75ZM3 13.75C3 13.3358 3.33579 13 3.75 13H8.25C8.66421 13 9 13.3358 9 13.75C9 14.1642 8.66421 14.5 8.25 14.5H3.75C3.33579 14.5 3 14.1642 3 13.75ZM1 17C1 16.5858 1.33579 16.25 1.75 16.25H6.25C6.66421 16.25 7 16.5858 7 17C7 17.4142 6.66421 17.75 6.25 17.75H1.75C1.33579 17.75 1 17.4142 1 17ZM3 20.25C3 19.8358 3.33579 19.5 3.75 19.5H8.25C8.66421 19.5 9 19.8358 9 20.25C9 20.6642 8.66421 21 8.25 21H3.75C3.33579 21 3 20.6642 3 20.25Z" fill="currentColor"/></g></svg>