<svg width="24px" height="24px" viewBox="0 0 24 24" fill="currentColor" xmlns="http://www.w3.org/2000/svg"><g><path d="M11.4607 0.0741891C11.1796 0.203501 11 0.480851 11 0.785721V2.04938C5.94668 2.5511 2 6.81465 2 12C2 17.5228 6.47715 22 12 22C17.5228 22 22 17.5228 22 12C22 9.35353 20.971 6.94576 19.2926 5.15764C19.0092 4.85562 18.5345 4.84059 18.2325 5.12406C17.9305 5.40754 17.9155 5.88217 18.1989 6.18419C19.6266 7.70528 20.5 9.74982 20.5 12C20.5 16.6944 16.6944 20.5 12 20.5C7.30558 20.5 3.5 16.6944 3.5 12C3.5 7.64389 6.77683 4.05313 11 3.5582V4.71428C11 5.01915 11.1796 5.2965 11.4607 5.42581C11.7418 5.55512 12.0737 5.51305 12.3121 5.31788L14.7121 3.3536C14.8945 3.20432 15 2.98318 15 2.75C15 2.51682 14.8945 2.29568 14.7121 2.1464L12.3121 0.182121C12.0737 -0.0130522 11.7418 -0.0551232 11.4607 0.0741891Z" fill="currentColor"/><path d="M8.70752 15.0356C8.70752 15.5244 8.9707 15.8145 9.42188 15.8145C9.87842 15.8145 10.1416 15.5298 10.1416 15.0356V9.27246C10.1416 8.72998 9.79248 8.37012 9.27148 8.37012C8.9707 8.37012 8.66455 8.47754 8.27783 8.74072L7.31641 9.41211C7.04248 9.59473 6.90283 9.79346 6.90283 10.019C6.90283 10.3145 7.12305 10.5347 7.41846 10.5347C7.57422 10.5347 7.7085 10.4863 7.93945 10.3359L8.67529 9.81494H8.70752V15.0356Z" fill="currentColor"/><path d="M11.6938 14.2622C11.6938 15.084 12.7251 15.9058 14.1807 15.9058C15.8457 15.9058 16.9683 14.8584 16.9683 13.2954C16.9683 11.8774 16.0068 10.9106 14.6104 10.9106C13.9819 10.9106 13.3857 11.147 13.1333 11.4907H13.0581L13.2085 9.59473H15.9854C16.4204 9.59473 16.6675 9.38525 16.6675 9.00928C16.6675 8.6333 16.415 8.41309 15.9854 8.41309H12.9453C12.3545 8.41309 12.0483 8.66016 12.0107 9.17041L11.812 11.9312C11.7798 12.4253 12.0806 12.7422 12.521 12.7422C12.7197 12.7422 12.8755 12.6777 13.1924 12.4092C13.5093 12.1621 13.8745 12.0278 14.2344 12.0278C15.0078 12.0278 15.561 12.5649 15.561 13.3491C15.561 14.1602 14.9863 14.7241 14.1753 14.7241C13.6274 14.7241 13.1978 14.4717 12.8594 13.9668C12.6821 13.7144 12.5103 13.6177 12.2847 13.6177C11.9248 13.6177 11.6938 13.9023 11.6938 14.2622Z" fill="currentColor"/></g></svg>