<svg width="24px" height="24px" viewBox="0 0 24 24" fill="currentColor" xmlns="http://www.w3.org/2000/svg"><g><path d="M7.4976 15C8.87815 15.0002 9.9976 16.1194 9.9976 17.5C9.9976 18.8806 8.87815 19.9998 7.4976 20C6.11688 20 4.9976 18.8807 4.9976 17.5C4.9976 16.1193 6.11688 15 7.4976 15Z" fill="currentColor"/><path d="M16.4976 15C17.8782 15.0002 18.9976 16.1194 18.9976 17.5C18.9976 18.8806 17.8782 19.9998 16.4976 20C15.1169 20 13.9976 18.8807 13.9976 17.5C13.9976 16.1193 15.1169 15 16.4976 15Z" fill="currentColor"/><path d="M11.4478 4C13.6322 4.00004 15.3546 5.86013 15.187 8.03809L14.7349 13.9082C13.552 14.4898 12.6996 15.6388 12.5298 17H11.4654C11.2192 15.027 9.5372 13.5002 7.4976 13.5C5.74759 13.5 4.26102 14.6241 3.7183 16.1895C2.77896 15.4436 2.20835 14.2592 2.30814 12.9619L2.42045 11.5H5.2476C5.66181 11.5 5.9976 11.1642 5.9976 10.75C5.9976 10.3358 5.66181 10 5.2476 10H2.53568L2.72807 7.5H7.2476C7.66181 7.5 7.9976 7.16421 7.9976 6.75C7.9976 6.33579 7.66181 6 7.2476 6H3.15385C3.78527 4.80509 5.03928 4 6.47025 4H11.4478Z" fill="currentColor"/><path d="M18.8111 6C19.7304 6.00013 20.5892 6.45967 21.0992 7.22461L22.2183 8.90332C22.5843 9.45242 22.7406 10.1157 22.6587 10.7705L22.4009 12.8389C22.2223 14.2679 21.4193 15.481 20.2876 16.2227C19.7544 14.6402 18.2597 13.5001 16.4976 13.5C16.3981 13.5 16.2994 13.5046 16.2017 13.5117L16.8277 6H18.8111Z" fill="currentColor"/></g></svg>