<svg width="24px" height="24px" viewBox="0 0 24 24" fill="currentColor" xmlns="http://www.w3.org/2000/svg"><g><path d="M11.4607 0.0741891C11.1796 0.203501 11 0.480851 11 0.785721V2.04938C5.94668 2.5511 2 6.81465 2 12C2 17.5228 6.47715 22 12 22C17.5228 22 22 17.5228 22 12C22 9.35353 20.971 6.94576 19.2926 5.15764C19.0092 4.85562 18.5345 4.84059 18.2325 5.12406C17.9305 5.40754 17.9155 5.88217 18.1989 6.18419C19.6266 7.70528 20.5 9.74982 20.5 12C20.5 16.6944 16.6944 20.5 12 20.5C7.30558 20.5 3.5 16.6944 3.5 12C3.5 7.64389 6.77683 4.05313 11 3.5582V4.71428C11 5.01915 11.1796 5.2965 11.4607 5.42581C11.7418 5.55512 12.0737 5.51305 12.3121 5.31788L14.7121 3.3536C14.8945 3.20432 15 2.98318 15 2.75C15 2.51682 14.8945 2.29568 14.7121 2.1464L12.3121 0.182121C12.0737 -0.0130522 11.7418 -0.0551232 11.4607 0.0741891Z" fill="currentColor"/><path d="M6.18848 14.2031C6.18848 15.0894 7.30029 15.9058 8.75049 15.9058C10.3672 15.9058 11.5059 15.0088 11.5059 13.7251C11.5059 12.7959 10.8345 12.0332 9.94287 11.9473V11.856C10.6841 11.7485 11.2803 11.0181 11.2803 10.2231C11.2803 9.0791 10.2383 8.27881 8.75586 8.27881C7.354 8.27881 6.30664 9.06836 6.30664 9.92773C6.30664 10.2769 6.55371 10.5186 6.89746 10.5186C7.1499 10.5186 7.33789 10.4058 7.49902 10.1372C7.78369 9.65381 8.19727 9.40674 8.729 9.40674C9.41113 9.40674 9.88379 9.80957 9.88379 10.4004C9.88379 10.9912 9.40039 11.4209 8.73975 11.4209H8.24023C7.9126 11.4209 7.68164 11.6626 7.68164 11.9849C7.68164 12.3179 7.91797 12.5596 8.24023 12.5596H8.7666C9.55615 12.5596 10.0879 13.0107 10.0879 13.6768C10.0879 14.3428 9.56689 14.7778 8.76123 14.7778C8.15967 14.7778 7.68164 14.5146 7.37012 14.0205C7.17139 13.7305 6.99414 13.6177 6.75781 13.6177C6.43018 13.6177 6.18848 13.8647 6.18848 14.2031Z" fill="currentColor"/><path d="M12.3276 12.2642C12.3276 14.4771 13.3643 15.9058 15.1045 15.9058C16.8447 15.9058 17.9082 14.4609 17.9082 12.2642V11.9204C17.9082 9.70215 16.877 8.27881 15.126 8.27881C13.3804 8.27881 12.3276 9.71826 12.3276 11.9204V12.2642ZM13.7778 11.9258C13.7778 10.3789 14.2827 9.46045 15.1152 9.46045C15.9478 9.46045 16.4526 10.3843 16.4526 11.9258V12.2534C16.4526 13.8003 15.9478 14.7241 15.1152 14.7241C14.2827 14.7241 13.7778 13.8003 13.7778 12.2534V11.9258Z" fill="currentColor"/></g></svg>