<svg width="24px" height="24px" viewBox="0 0 24 24" fill="currentColor" xmlns="http://www.w3.org/2000/svg"><g><path fill-rule="evenodd" clip-rule="evenodd" d="M19.3448 2.93773C20.0133 3.67015 20.2394 4.74614 19.6965 5.78931C18.9571 7.21017 17.8683 8.37116 16.987 9.16606C16.7001 9.42483 16.4318 9.64788 16.1995 9.83161C17.2024 10.8162 17.6401 12.3699 16.7192 13.6986C15.2194 15.8623 11.9639 18.8621 5.58501 18.8798C5.52766 19.6638 5.5 20.4558 5.5 21.25C5.5 21.6642 5.16421 22 4.75 22C4.33579 22 4 21.6642 4 21.25C4 16.9503 4.7775 12.5888 6.73674 9.07687C8.71081 5.53834 11.8792 2.8799 16.5674 2.0508C17.6545 1.85853 18.6946 2.22532 19.3448 2.93773Z" fill="currentColor"/></g></svg>