<svg width="24px" height="24px" viewBox="0 0 24 24" fill="currentColor" xmlns="http://www.w3.org/2000/svg"><g><path fill-rule="evenodd" clip-rule="evenodd" d="M15.0781 2C17.2023 2 18.9248 3.72251 18.9248 5.84668C18.9246 7.10463 18.3198 8.22032 17.3857 8.92188C18.3207 9.62361 18.9257 10.7411 18.9258 12C18.9257 14.124 17.2041 15.8456 15.0801 15.8457C14.2133 15.8457 13.4138 15.5589 12.7705 15.0752V18.1543C12.7703 20.2782 11.0487 21.9999 8.9248 22C6.80087 21.9999 5.07837 20.2782 5.07812 18.1543C5.07812 16.8962 5.6821 15.778 6.61621 15.0762C5.6825 14.3745 5.0782 13.2578 5.07812 12C5.0782 10.7418 5.68292 9.62466 6.61719 8.92285C5.68305 8.22131 5.07829 7.10473 5.07812 5.84668C5.07812 3.72257 6.80072 2.00011 8.9248 2H15.0781ZM8.9248 15.8467C7.65039 15.8468 6.61719 16.8799 6.61719 18.1543C6.61743 19.4285 7.65054 20.4618 8.9248 20.4619C10.1991 20.4618 11.2322 19.4285 11.2324 18.1543V15.8467H8.9248ZM8.9248 9.69238C7.65047 9.69249 6.61731 10.7257 6.61719 12C6.61731 13.2743 7.65047 14.3075 8.9248 14.3076H11.2324V9.69238H8.9248ZM15.0801 9.69238C13.8057 9.69238 12.7726 10.7256 12.7725 12C12.7726 13.2744 13.8056 14.3076 15.0801 14.3076C16.3544 14.3075 17.3876 13.2743 17.3877 12C17.3876 10.7257 16.3544 9.69251 15.0801 9.69238ZM12.7705 8.1543H15.04C15.0534 8.15416 15.0667 8.15332 15.0801 8.15332C15.0837 8.15332 15.0872 8.15331 15.0908 8.15332C16.3594 8.14659 17.3855 7.11677 17.3857 5.84668C17.3857 4.57218 16.3526 3.53906 15.0781 3.53906H12.7705V8.1543ZM8.9248 3.53906C7.65039 3.53917 6.61719 4.57224 6.61719 5.84668C6.61747 7.11664 7.64372 8.14638 8.91211 8.15332H11.2324V3.53906H8.9248Z" fill="currentColor"/></g></svg>