<svg width="24px" height="24px" viewBox="0 0 24 24" fill="currentColor" xmlns="http://www.w3.org/2000/svg"><g><path fill-rule="evenodd" clip-rule="evenodd" d="M8.66146 2C6.82146 2 5.32812 3.49333 5.32812 5.33333C5.32812 7.16852 6.81365 8.65884 8.64701 8.66664C6.81366 8.67445 5.32815 10.1648 5.32815 11.9999C5.32815 13.8399 6.82148 15.3333 8.66148 15.3333H11.9948V12.0205C12.0059 13.851 13.4949 15.3333 15.3281 15.3333C17.1681 15.3333 18.6614 13.8399 18.6614 11.9999C18.6614 10.1646 17.1757 8.67424 15.3422 8.66664C17.1757 8.65904 18.6614 7.16864 18.6614 5.33333C18.6614 3.49333 17.1681 2 15.3281 2H8.66146ZM15.3076 8.66667H11.9948V11.9794C12.0058 10.1557 13.4838 8.67769 15.3076 8.66667Z" fill="currentColor"/><path d="M8.66148 22C10.5015 22 11.9948 20.5067 11.9948 18.6667V15.3333H8.66148C6.82148 15.3333 5.32815 16.8267 5.32815 18.6667C5.32815 20.5067 6.82148 22 8.66148 22Z" fill="currentColor"/></g></svg>