<svg width="24px" height="24px" viewBox="0 0 24 24" fill="currentColor" xmlns="http://www.w3.org/2000/svg"><g><path d="M12 2H7.75C5.67893 2 4 3.67893 4 5.75V13.2987C4.54736 13.1053 5.13639 13 5.75 13C7.24413 13 8.59077 13.6248 9.54442 14.6221C11.5266 15.0935 13 16.874 13 19C13 20.1525 12.5667 21.2039 11.8542 22H16.25C18.3211 22 20 20.3211 20 18.25V10H14.75C13.2312 10 12 8.76878 12 7.25V2Z" fill="currentColor"/><path d="M19.5566 8.5C19.5343 8.475 19.5112 8.45058 19.4874 8.42678L13.5732 2.51256C13.5494 2.48876 13.525 2.46571 13.5 2.44343V7.25C13.5 7.94036 14.0596 8.5 14.75 8.5H19.5566Z" fill="currentColor"/><path fill-rule="evenodd" clip-rule="evenodd" d="M5.75 14.5C3.67893 14.5 2 16.1789 2 18.25C2 20.3211 3.67893 22 5.75 22H8.5C10.1569 22 11.5 20.6569 11.5 19C11.5 17.4301 10.2941 16.1419 8.75815 16.011C8.07569 15.0953 6.98332 14.5 5.75 14.5Z" fill="currentColor"/></g></svg>