<svg width="24px" height="24px" viewBox="0 0 24 24" fill="currentColor" xmlns="http://www.w3.org/2000/svg"><g><path d="M16.7197 15.4697C17.0126 15.1768 17.4874 15.1768 17.7803 15.4697L20.7803 18.4697C21.0732 18.7626 21.0732 19.2374 20.7803 19.5303L17.7803 22.5303C17.4874 22.8232 17.0126 22.8232 16.7197 22.5303C16.4268 22.2374 16.4268 21.7626 16.7197 21.4697L18.4395 19.75H12.75C12.3358 19.75 12 19.4142 12 19C12 18.5858 12.3358 18.25 12.75 18.25H18.4395L16.7197 16.5303C16.4268 16.2374 16.4268 15.7626 16.7197 15.4697Z" fill="currentColor"/><path d="M12 7.25C12 8.76878 13.2312 10 14.75 10H20V15.5684L18.8408 14.4092C17.9621 13.5305 16.5379 13.5305 15.6592 14.4092C15.0259 15.0425 14.8512 15.9584 15.1309 16.75H12.75C11.5074 16.75 10.5 17.7574 10.5 19V22H7.75C5.67893 22 4 20.3211 4 18.25V5.75C4 3.67893 5.67893 2 7.75 2H12V7.25Z" fill="currentColor"/><path d="M13.5732 2.5127L19.4873 8.42676C19.5111 8.45056 19.5344 8.475 19.5566 8.5H14.75C14.0596 8.5 13.5 7.94036 13.5 7.25V2.44336C13.525 2.46564 13.5494 2.48889 13.5732 2.5127Z" fill="currentColor"/></g></svg>