<svg width="24px" height="24px" viewBox="0 0 24 24" fill="currentColor" xmlns="http://www.w3.org/2000/svg"><g><path d="M7.75073 2H12.0007V7.25C12.0007 8.76878 13.2319 10 14.7507 10H20.0007V18.25C20.0007 20.3211 18.3218 22 16.2507 22H7.75073C7.72604 22 7.70141 21.9998 7.67684 21.9993L8.33513 21.341C8.75709 20.919 8.99414 20.3467 8.99414 19.75V13.2566C8.99414 11.1855 7.31521 9.50659 5.24414 9.50659C4.80831 9.50659 4.38984 9.58094 4.00073 9.71765V5.75C4.00073 3.67893 5.67966 2 7.75073 2Z" fill="currentColor"/><path d="M19.4882 8.42678C19.512 8.45058 19.535 8.475 19.5573 8.5H14.7507C14.0604 8.5 13.5007 7.94036 13.5007 7.25V2.44343C13.5257 2.46571 13.5502 2.48876 13.574 2.51256L19.4882 8.42678Z" fill="currentColor"/><path fill-rule="evenodd" clip-rule="evenodd" d="M2.99414 13.2566C2.99414 12.0139 4.0015 11.0066 5.24414 11.0066C6.48678 11.0066 7.49414 12.014 7.49414 13.2566V19.75C7.49414 19.9489 7.41512 20.1397 7.27447 20.2803L5.77447 21.7803C5.63382 21.921 5.44305 22 5.24414 22C5.04523 22 4.85446 21.921 4.71381 21.7803L3.21381 20.2803C3.07316 20.1397 2.99414 19.9489 2.99414 19.75L2.99414 13.2566Z" fill="currentColor"/></g></svg>