<svg width="24px" height="24px" viewBox="0 0 24 24" fill="currentColor" xmlns="http://www.w3.org/2000/svg"><g><path d="M7.75 2H12V7.25C12 8.76878 13.2312 10 14.75 10H20V18.25C20 20.3211 18.3211 22 16.25 22H11.9891C12.3125 21.4949 12.5 20.8943 12.5 20.25V17.75C12.5 16.6806 11.9841 15.7337 11.1888 15.1418C10.8401 13.0746 9.04142 11.5 6.875 11.5C5.77448 11.5 4.76886 11.9063 4 12.5772V5.75C4 3.67893 5.67893 2 7.75 2Z" fill="currentColor"/><path d="M19.4874 8.42678C19.5112 8.45058 19.5343 8.475 19.5566 8.5H14.75C14.0596 8.5 13.5 7.94036 13.5 7.25V2.44343C13.525 2.46571 13.5494 2.48876 13.5732 2.51256L19.4874 8.42678Z" fill="currentColor"/><path fill-rule="evenodd" clip-rule="evenodd" d="M10 16.1684V16C10 14.3431 8.65685 13 7 13C5.34315 13 4 14.3431 4 16V16.1684C3.40876 16.4493 3 17.0519 3 17.75V20.25C3 21.2165 3.7835 22 4.75 22H9.25C10.2165 22 11 21.2165 11 20.25V17.75C11 17.0519 10.5912 16.4493 10 16.1684ZM5.5 16H8.5C8.5 15.1716 7.82843 14.5 7 14.5C6.17157 14.5 5.5 15.1716 5.5 16Z" fill="currentColor"/></g></svg>