<svg width="24px" height="24px" viewBox="0 0 24 24" fill="currentColor" xmlns="http://www.w3.org/2000/svg"><g><path fill-rule="evenodd" clip-rule="evenodd" d="M17.9372 18.9372C17.6144 20.6801 16.0863 22 14.25 22H7.75C5.67893 22 4 20.3211 4 18.25V8.75C4 6.91365 5.31994 5.38559 7.06282 5.06282C7.38559 3.31994 8.91365 2 10.75 2H14.5V5.75C14.5 7.26878 15.7312 8.5 17.25 8.5H21V15.25C21 17.0863 19.6801 18.6144 17.9372 18.9372ZM7 6.62803C6.12611 6.93691 5.5 7.77034 5.5 8.75V18.25C5.5 19.4926 6.50736 20.5 7.75 20.5H14.25C15.2297 20.5 16.0631 19.8739 16.372 19H10.75C8.67893 19 7 17.3211 7 15.25V6.62803Z" fill="currentColor"/><path d="M16 2.43934L20.5607 7H17.25C16.5596 7 16 6.44036 16 5.75V2.43934Z" fill="currentColor"/></g></svg>