<svg width="24px" height="24px" viewBox="0 0 24 24" fill="currentColor" xmlns="http://www.w3.org/2000/svg"><g><path fill-rule="evenodd" clip-rule="evenodd" d="M12.5 5.75V2H7.75C5.67893 2 4 3.67893 4 5.75V18.25C4 20.3211 5.67893 22 7.75 22H8V20.5H9.5V22H16.25C18.3211 22 20 20.3211 20 18.25V9.5H16.25C14.1789 9.5 12.5 7.82107 12.5 5.75ZM9.5 19V20.5H11V19H9.5ZM9.5 17.5H8V19H9.5V17.5ZM9.5 16V17.5H11V16H9.5ZM9.5 14.5H8V16H9.5V14.5ZM9.5 13V14.5H11V13H9.5ZM9.5 13V11.5H8V13H9.5Z" fill="currentColor"/><path d="M14 5.75V2.14941C14.2348 2.24683 14.4506 2.38998 14.6339 2.57322L19.4268 7.36612C19.61 7.54936 19.7532 7.7652 19.8506 8H16.25C15.0074 8 14 6.99264 14 5.75Z" fill="currentColor"/></g></svg>