<svg width="24px" height="24px" viewBox="0 0 24 24" fill="currentColor" xmlns="http://www.w3.org/2000/svg"><g><path d="M6.0016 4C6.41581 4 6.7516 4.33579 6.7516 4.75V17.4387L8.46953 15.7198C8.76234 15.4268 9.23722 15.4267 9.53019 15.7195C9.82316 16.0123 9.82329 16.4872 9.53047 16.7802L6.53207 19.7802C6.39146 19.9209 6.20071 19.9999 6.0018 20C5.80289 20.0001 5.6121 19.9211 5.47141 19.7805L2.46981 16.7805C2.17684 16.4877 2.17671 16.0128 2.46953 15.7198C2.76234 15.4268 3.23722 15.4267 3.53019 15.7195L5.2516 17.44V4.75C5.2516 4.33579 5.58738 4 6.0016 4Z" fill="currentColor"/><path d="M11.75 6C11.3358 6 11 6.33579 11 6.75C11 7.16421 11.3358 7.5 11.75 7.5H20.25C20.6642 7.5 21 7.16421 21 6.75C21 6.33579 20.6642 6 20.25 6H11.75Z" fill="currentColor"/><path d="M15.75 16.5C15.3358 16.5 15 16.8358 15 17.25C15 17.6642 15.3358 18 15.75 18H20.25C20.6642 18 21 17.6642 21 17.25C21 16.8358 20.6642 16.5 20.25 16.5H15.75Z" fill="currentColor"/><path d="M13 12C13 11.5858 13.3358 11.25 13.75 11.25H20.25C20.6642 11.25 21 11.5858 21 12C21 12.4142 20.6642 12.75 20.25 12.75H13.75C13.3358 12.75 13 12.4142 13 12Z" fill="currentColor"/></g></svg>