<svg width="24px" height="24px" viewBox="0 0 24 24" fill="currentColor" xmlns="http://www.w3.org/2000/svg"><g><path fill-rule="evenodd" clip-rule="evenodd" d="M2 12C2 6.47715 6.47715 2 12 2C17.5228 2 22 6.47715 22 12C22 17.5228 17.5228 22 12 22C6.47715 22 2 17.5228 2 12ZM8.75 11.75C8.33579 11.75 8 12.0858 8 12.5C8 12.9142 8.33579 13.25 8.75 13.25H15.25C15.6642 13.25 16 12.9142 16 12.5C16 12.0858 15.6642 11.75 15.25 11.75H8.75ZM6.5 9.25C6.5 8.83579 6.83579 8.5 7.25 8.5H16.75C17.1642 8.5 17.5 8.83579 17.5 9.25C17.5 9.66421 17.1642 10 16.75 10H7.25C6.83579 10 6.5 9.66421 6.5 9.25ZM10.25 15C9.83579 15 9.5 15.3358 9.5 15.75C9.5 16.1642 9.83579 16.5 10.25 16.5H13.75C14.1642 16.5 14.5 16.1642 14.5 15.75C14.5 15.3358 14.1642 15 13.75 15H10.25Z" fill="currentColor"/></g></svg>