<svg width="24px" height="24px" viewBox="0 0 24 24" fill="currentColor" xmlns="http://www.w3.org/2000/svg"><g><path fill-rule="evenodd" clip-rule="evenodd" d="M12.2471 3H6.75C4.67893 3 3 4.67893 3 6.75V17.25C3 19.3211 4.67893 21 6.75 21H17.25C19.3211 21 21 19.3211 21 17.25V6.75C21 4.67893 19.3211 3 17.25 3H13.8084C12.8892 6.13244 12.2978 9.2578 12.0519 12.5H13.25C13.6642 12.5 14 12.8358 14 13.25C14 13.6642 13.6642 14 13.25 14H11.25C11.0435 14 10.8462 13.9149 10.7045 13.7647C10.5628 13.6145 10.4893 13.4126 10.5013 13.2065C10.7047 9.70534 11.2949 6.34876 12.2471 3ZM7.75 8C8.16421 8 8.5 8.33579 8.5 8.75V10.25C8.5 10.6642 8.16421 11 7.75 11C7.33579 11 7 10.6642 7 10.25V8.75C7 8.33579 7.33579 8 7.75 8ZM16.25 8C16.6642 8 17 8.33579 17 8.75V10.25C17 10.6642 16.6642 11 16.25 11C15.8358 11 15.5 10.6642 15.5 10.25V8.75C15.5 8.33579 15.8358 8 16.25 8ZM7.13336 15.0731C7.36913 14.7325 7.83634 14.6476 8.17691 14.8834C9.75587 15.9765 10.9143 16.4375 12 16.4375C13.0857 16.4375 14.2441 15.9765 15.8231 14.8834C16.1637 14.6476 16.6309 14.7325 16.8666 15.0731C17.1024 15.4137 17.0175 15.8809 16.6769 16.1166C15.0059 17.2735 13.5393 17.9375 12 17.9375C10.4607 17.9375 8.99413 17.2735 7.32309 16.1166C6.98253 15.8809 6.89758 15.4137 7.13336 15.0731Z" fill="currentColor"/></g></svg>