<svg width="24px" height="24px" viewBox="0 0 24 24" fill="currentColor" xmlns="http://www.w3.org/2000/svg"><g><path d="M19.99 5.93207C19.6621 5.49642 19.2998 5.09001 18.9072 4.71642C18.6557 4.46925 18.3888 4.24047 18.1092 4.02979C17.6364 3.62717 17.0891 3.28199 16.4627 3.01122C15.1971 2.38819 13.8121 2.0438 12.401 2.00224C10.0797 1.95567 8.47592 2.65425 7.56828 3.21617L7.56741 3.21668C7.24611 3.40754 6.94752 3.63441 6.67741 3.89289C8.27135 2.99999 10.1203 2.64955 11.9289 2.90287C15.4644 3.3677 18.6969 6.12291 18.6969 9.75846C18.6969 12.5557 16.5392 14.6923 14.0124 14.5388C10.2587 14.3134 9.31244 10.4565 11.2652 8.78997C10.7387 8.67651 9.74919 8.89891 9.06019 9.93077C8.44194 10.8574 8.47694 12.2875 8.85844 13.3021C8.61456 12.8017 8.44893 12.2668 8.36741 11.716C7.87341 8.37246 10.1147 5.52108 12.1699 4.81505C11.0612 3.84481 8.28291 3.91068 6.21516 5.43467C5.0156 6.31881 4.15548 7.57437 3.6991 9.07027C3.82966 7.89099 4.18032 6.74636 4.73322 5.69614C4.04097 6.05504 3.15947 7.19008 2.72447 8.24147C2.09124 9.84562 1.86799 11.5828 2.07497 13.2953L2.08781 13.4085C2.09812 13.5004 2.10841 13.592 2.12047 13.6833C2.37969 15.1786 2.97417 16.5956 3.85914 17.8274C4.74411 19.0593 5.89651 20.074 7.22958 20.7951C8.56265 21.5163 10.0417 21.925 11.5552 21.9906C13.0688 22.0563 14.5775 21.777 15.9678 21.174C17.3581 20.5709 18.5937 19.6598 19.5816 18.5091C20.5695 17.3584 21.2839 15.9982 21.6711 14.5309C22.0583 13.0635 22.1082 11.5273 21.817 10.0379C21.5258 8.54848 20.9011 7.14463 19.99 5.93207Z" fill="currentColor"/></g></svg>