<svg width="24px" height="24px" viewBox="0 0 24 24" fill="currentColor" xmlns="http://www.w3.org/2000/svg"><g><path fill-rule="evenodd" clip-rule="evenodd" d="M11.3808 2.73048C11.8932 2.00228 12.9088 1.74609 13.7008 2.28543C14.6627 2.94049 16.3458 4.22021 17.7951 6.01874C19.2437 7.81639 20.5 10.1853 20.5 12.9995C20.5 17.8655 16.7411 21.9995 12 21.9995C7.25888 21.9995 3.5 17.8655 3.5 12.9995C3.5 10.9742 4.37918 8.36405 6.10248 6.27682C6.76645 5.47265 7.92011 5.52872 8.58569 6.19C8.6979 6.30149 8.88136 6.2827 8.96859 6.15874L11.3808 2.73048ZM11.9992 20.4995C13.5456 20.4995 14.7992 19.0622 14.7992 17.2892C14.7992 15.3625 13.2885 13.9518 12.4864 13.3386C12.195 13.1158 11.8034 13.1158 11.512 13.3386C10.7099 13.9518 9.19922 15.3625 9.19922 17.2892C9.19922 19.0622 10.4528 20.4995 11.9992 20.4995Z" fill="currentColor"/></g></svg>