<svg width="24px" height="24px" viewBox="0 0 24 24" fill="currentColor" xmlns="http://www.w3.org/2000/svg"><g><path d="M3 6.40909C3 4.5263 4.5263 3 6.40909 3H9.5C10.4665 3 11.25 3.7835 11.25 4.75V6.25C11.25 7.2165 10.4665 8 9.5 8H4.59091C3.71227 8 3 7.28773 3 6.40909Z" fill="currentColor"/><path d="M8 11.25C8 10.2835 8.7835 9.5 9.75 9.5H14.25C15.2165 9.5 16 10.2835 16 11.25V12.75C16 13.7165 15.2165 14.5 14.25 14.5H9.75C8.7835 14.5 8 13.7165 8 12.75V11.25Z" fill="currentColor"/><path d="M3 11.125C3 10.2275 3.72754 9.5 4.625 9.5C5.52246 9.5 6.25 10.2275 6.25 11.125V12.875C6.25 13.7725 5.52246 14.5 4.625 14.5C3.72754 14.5 3 13.7725 3 12.875V11.125Z" fill="currentColor"/><path d="M17.7 11.125C17.7 10.2275 18.4275 9.5 19.325 9.5C20.2225 9.5 20.95 10.2275 20.95 11.125V12.875C20.95 13.7725 20.2225 14.5 19.325 14.5C18.4275 14.5 17.7 13.7725 17.7 12.875V11.125Z" fill="currentColor"/><path d="M12.75 4.75C12.75 3.7835 13.5335 3 14.5 3H17.5909C19.4737 3 21 4.5263 21 6.40909C21 7.28773 20.2877 8 19.4091 8H14.5C13.5335 8 12.75 7.2165 12.75 6.25V4.75Z" fill="currentColor"/><path d="M3 17.5909C3 16.7123 3.71227 16 4.59091 16H9.5C10.4665 16 11.25 16.7835 11.25 17.75V19.25C11.25 20.2165 10.4665 21 9.5 21H6.40909C4.5263 21 3 19.4737 3 17.5909Z" fill="currentColor"/><path d="M12.75 17.75C12.75 16.7835 13.5335 16 14.5 16H19.4091C20.2877 16 21 16.7123 21 17.5909C21 19.4737 19.4737 21 17.5909 21H14.5C13.5335 21 12.75 20.2165 12.75 19.25V17.75Z" fill="currentColor"/></g></svg>