<svg width="24px" height="24px" viewBox="0 0 24 24" fill="currentColor" xmlns="http://www.w3.org/2000/svg"><g><path d="M11.7929 1.87148C11.5932 1.74149 11.3437 1.71409 11.1206 1.79767C10.8974 1.88124 10.7273 2.06586 10.6622 2.29504C10.0865 4.32161 8.89344 5.44786 7.43008 6.82931C7.23272 7.01563 7.03043 7.2066 6.82408 7.40504C6.17895 8.02669 5.52146 8.72307 4.98439 9.50667C3.39173 11.8318 3.00596 14.4496 4.193 17.0852C6.17492 21.4722 10.5918 22.7265 14.2868 21.6178C17.9957 20.5049 21.0595 16.9978 20.414 11.8994C20.2137 10.304 19.6676 8.68597 18.3415 7.41799C18.1837 7.26719 17.9681 7.19256 17.7509 7.21356C17.5337 7.23457 17.3365 7.34913 17.2106 7.52736C16.9886 7.84154 16.3699 8.50024 15.7492 9.13158C15.6515 8.29906 15.4701 7.36482 15.1522 6.4261C14.5881 4.76026 13.5766 3.0328 11.7929 1.87148Z" fill="currentColor"/></g></svg>