<svg width="24px" height="24px" viewBox="0 0 24 24" fill="currentColor" xmlns="http://www.w3.org/2000/svg"><g><path d="M9.5 14.25C9.5 12.8693 10.6193 11.75 12 11.75C13.3807 11.75 14.5 12.8693 14.5 14.25C14.5 15.6307 13.3807 16.75 12 16.75C10.6193 16.75 9.5 15.6307 9.5 14.25Z" fill="currentColor"/><path fill-rule="evenodd" clip-rule="evenodd" d="M6.75 3H8V7.25C8 8.2165 8.7835 9 9.75 9H14.25C15.2165 9 16 8.2165 16 7.25V3H16.0074C17.0019 3 17.9557 3.39509 18.659 4.09835L19.9016 5.34099C20.6049 6.04425 21 6.99808 21 7.99264V17.25C21 19.3211 19.3211 21 17.25 21H6.75C4.67893 21 3 19.3211 3 17.25V6.75C3 4.67893 4.67893 3 6.75 3ZM12 10.25C9.79086 10.25 8 12.0409 8 14.25C8 16.4591 9.79086 18.25 12 18.25C14.2091 18.25 16 16.4591 16 14.25C16 12.0409 14.2091 10.25 12 10.25Z" fill="currentColor"/><path d="M9.5 3H14.5V7.25C14.5 7.38807 14.3881 7.5 14.25 7.5H9.75C9.61193 7.5 9.5 7.38807 9.5 7.25V3Z" fill="currentColor"/></g></svg>