<svg width="24px" height="24px" viewBox="0 0 24 24" fill="currentColor" xmlns="http://www.w3.org/2000/svg"><g><path d="M7 3H6.75C4.67893 3 3 4.67893 3 6.75V17.25C3 19.3211 4.67893 21 6.75 21H7V12.75C7 12.3358 7.33579 12 7.75 12H16.25C16.6642 12 17 12.3358 17 12.75V21H17.25C19.3211 21 21 19.3211 21 17.25V7.99264C21 6.99808 20.6049 6.04425 19.9016 5.34099L18.659 4.09835C18.195 3.63434 17.6219 3.30448 17 3.13375V8.25C17 8.66421 16.6642 9 16.25 9H7.75C7.33579 9 7 8.66421 7 8.25V3Z" fill="currentColor"/><path d="M15.5 3H8.5V7.5H15.5V3Z" fill="currentColor"/><path d="M15.5 21V13.5H8.5V21H15.5Z" fill="currentColor"/></g></svg>