<svg width="24px" height="24px" viewBox="0 0 24 24" fill="currentColor" xmlns="http://www.w3.org/2000/svg"><g><path d="M12.0004 2.03613C14.1431 2.03613 15.9976 3.26401 16.9018 5.05078C16.9882 5.22165 17.1598 5.34543 17.349 5.375C19.3277 5.68275 21.0687 7.06773 21.7309 9.10547C22.3929 11.1432 21.7981 13.2863 20.3783 14.6982C20.2426 14.8333 20.177 15.0346 20.2074 15.2236C20.5263 17.2007 19.7476 19.2844 18.0141 20.5439C16.2807 21.8031 14.0583 21.9003 12.2768 20.9863C12.1063 20.899 11.8944 20.8989 11.724 20.9863C9.94242 21.9001 7.72003 21.8033 5.98672 20.5439C4.2534 19.2844 3.47451 17.2005 3.79336 15.2236C3.82385 15.0345 3.75834 14.8334 3.62246 14.6982C2.2029 13.2863 1.60804 11.143 2.26992 9.10547C2.932 7.06782 4.67325 5.6829 6.65176 5.375C6.84106 5.34557 7.01247 5.22169 7.09903 5.05078C8.00306 3.26404 9.85782 2.03631 12.0004 2.03613Z" fill="currentColor"/></g></svg>