<svg width="24px" height="24px" viewBox="0 0 24 24" fill="currentColor" xmlns="http://www.w3.org/2000/svg"><g><path d="M4.5 6.75C4.5 5.50736 5.50736 4.5 6.75 4.5H8C8.41421 4.5 8.75 4.16421 8.75 3.75C8.75 3.33579 8.41421 3 8 3H6.75C4.67893 3 3 4.67893 3 6.75V8C3 8.41421 3.33579 8.75 3.75 8.75C4.16421 8.75 4.5 8.41421 4.5 8V6.75Z" fill="currentColor"/><path d="M16 3C15.5858 3 15.25 3.33579 15.25 3.75C15.25 4.16421 15.5858 4.5 16 4.5H17.25C18.4926 4.5 19.5 5.50736 19.5 6.75V8C19.5 8.41421 19.8358 8.75 20.25 8.75C20.6642 8.75 21 8.41421 21 8V6.75C21 4.67893 19.3211 3 17.25 3H16Z" fill="currentColor"/><path d="M4.5 16C4.5 15.5858 4.16421 15.25 3.75 15.25C3.33579 15.25 3 15.5858 3 16V17.25C3 19.3211 4.67893 21 6.75 21H8C8.41421 21 8.75 20.6642 8.75 20.25C8.75 19.8358 8.41421 19.5 8 19.5H6.75C5.50736 19.5 4.5 18.4926 4.5 17.25V16Z" fill="currentColor"/><path d="M21 16C21 15.5858 20.6642 15.25 20.25 15.25C19.8358 15.25 19.5 15.5858 19.5 16V17.25C19.5 18.4926 18.4926 19.5 17.25 19.5H16C15.5858 19.5 15.25 19.8358 15.25 20.25C15.25 20.6642 15.5858 21 16 21H17.25C19.3211 21 21 19.3211 21 17.25V16Z" fill="currentColor"/><path d="M10.2322 9.17157C9.93934 8.87868 9.46447 8.87868 9.17157 9.17157C8.87868 9.46447 8.87868 9.93934 9.17157 10.2322L10.9393 12L9.17157 13.7678C8.87868 14.0607 8.87868 14.5355 9.17157 14.8284C9.46447 15.1213 9.93934 15.1213 10.2322 14.8284L12 13.0607L13.7678 14.8284C14.0607 15.1213 14.5355 15.1213 14.8284 14.8284C15.1213 14.5355 15.1213 14.0607 14.8284 13.7678L13.0607 12L14.8284 10.2322C15.1213 9.93934 15.1213 9.46447 14.8284 9.17157C14.5355 8.87868 14.0607 8.87868 13.7678 9.17157L12 10.9393L10.2322 9.17157Z" fill="currentColor"/></g></svg>