<svg width="24px" height="24px" viewBox="0 0 24 24" fill="currentColor" xmlns="http://www.w3.org/2000/svg"><g><path d="M4.5 6.75C4.5 5.50736 5.50736 4.5 6.75 4.5H8C8.41421 4.5 8.75 4.16421 8.75 3.75C8.75 3.33579 8.41421 3 8 3H6.75C4.67893 3 3 4.67893 3 6.75V8C3 8.41421 3.33579 8.75 3.75 8.75C4.16421 8.75 4.5 8.41421 4.5 8V6.75Z" fill="currentColor"/><path d="M16 3C15.5858 3 15.25 3.33579 15.25 3.75C15.25 4.16421 15.5858 4.5 16 4.5H17.25C18.4926 4.5 19.5 5.50736 19.5 6.75V8C19.5 8.41421 19.8358 8.75 20.25 8.75C20.6642 8.75 21 8.41421 21 8V6.75C21 4.67893 19.3211 3 17.25 3H16Z" fill="currentColor"/><path d="M4.5 16C4.5 15.5858 4.16421 15.25 3.75 15.25C3.33579 15.25 3 15.5858 3 16V17.25C3 19.3211 4.67893 21 6.75 21H8C8.41421 21 8.75 20.6642 8.75 20.25C8.75 19.8358 8.41421 19.5 8 19.5H6.75C5.50736 19.5 4.5 18.4926 4.5 17.25V16Z" fill="currentColor"/><path d="M21 16C21 15.5858 20.6642 15.25 20.25 15.25C19.8358 15.25 19.5 15.5858 19.5 16V17.25C19.5 18.4926 18.4926 19.5 17.25 19.5H16C15.5858 19.5 15.25 19.8358 15.25 20.25C15.25 20.6642 15.5858 21 16 21H17.25C19.3211 21 21 19.3211 21 17.25V16Z" fill="currentColor"/><path fill-rule="evenodd" clip-rule="evenodd" d="M15 10.3789V10C15 8.34315 13.6569 7 12 7C10.3431 7 9 8.34315 9 10V10.3789C8.39701 10.7825 8 11.4699 8 12.25V13.75C8 14.9926 9.00736 16 10.25 16H13.75C14.9926 16 16 14.9926 16 13.75V12.25C16 11.4699 15.603 10.7825 15 10.3789ZM10.5 10H13.5C13.5 9.17157 12.8284 8.5 12 8.5C11.1716 8.5 10.5 9.17157 10.5 10Z" fill="currentColor"/></g></svg>