<svg width="24px" height="24px" viewBox="0 0 24 24" fill="currentColor" xmlns="http://www.w3.org/2000/svg"><g><path d="M6.75 4.5C5.50736 4.5 4.5 5.50736 4.5 6.75V8C4.5 8.41421 4.16421 8.75 3.75 8.75C3.33579 8.75 3 8.41421 3 8V6.75C3 4.67893 4.67893 3 6.75 3H8C8.41421 3 8.75 3.33579 8.75 3.75C8.75 4.16421 8.41421 4.5 8 4.5H6.75Z" fill="currentColor"/><path d="M15.25 3.75C15.25 3.33579 15.5858 3 16 3H17.25C19.3211 3 21 4.67893 21 6.75V8C21 8.41421 20.6642 8.75 20.25 8.75C19.8358 8.75 19.5 8.41421 19.5 8V6.75C19.5 5.50736 18.4926 4.5 17.25 4.5H16C15.5858 4.5 15.25 4.16421 15.25 3.75Z" fill="currentColor"/><path d="M3.75 15.25C4.16421 15.25 4.5 15.5858 4.5 16V17.25C4.5 18.4926 5.50736 19.5 6.75 19.5H8C8.41421 19.5 8.75 19.8358 8.75 20.25C8.75 20.6642 8.41421 21 8 21H6.75C4.67893 21 3 19.3211 3 17.25V16C3 15.5858 3.33579 15.25 3.75 15.25Z" fill="currentColor"/><path d="M20.25 15.25C20.6642 15.25 21 15.5858 21 16V17.25C21 19.3211 19.3211 21 17.25 21H16C15.5858 21 15.25 20.6642 15.25 20.25C15.25 19.8358 15.5858 19.5 16 19.5H17.25C18.4926 19.5 19.5 18.4926 19.5 17.25V16C19.5 15.5858 19.8358 15.25 20.25 15.25Z" fill="currentColor"/><path d="M12.75 14.9193C14.6006 14.5683 16 12.9423 16 10.9895V8.55204C16 8.29994 15.8733 8.06469 15.6629 7.92591C15.4524 7.78713 15.1863 7.76337 14.9546 7.86268L13.5254 8.47516L12.5303 7.48005C12.2374 7.18715 11.7626 7.18715 11.4697 7.48005L10.4746 8.47516L9.04544 7.86268C8.81372 7.76337 8.5476 7.78713 8.33713 7.92591C8.12666 8.06469 8 8.29994 8 8.55204V10.9895C8 12.9423 9.39935 14.5683 11.25 14.9193V16.25C11.25 16.6642 11.5858 17 12 17C12.4142 17 12.75 16.6642 12.75 16.25V14.9193Z" fill="currentColor"/></g></svg>