<svg width="24px" height="24px" viewBox="0 0 24 24" fill="currentColor" xmlns="http://www.w3.org/2000/svg"><g><path d="M6.75 4.5C5.50736 4.5 4.5 5.50736 4.5 6.75V8C4.5 8.41421 4.16421 8.75 3.75 8.75C3.33579 8.75 3 8.41421 3 8V6.75C3 4.67893 4.67893 3 6.75 3H8C8.41421 3 8.75 3.33579 8.75 3.75C8.75 4.16421 8.41421 4.5 8 4.5H6.75Z" fill="currentColor"/><path d="M15.25 3.75C15.25 3.33579 15.5858 3 16 3H17.25C19.3211 3 21 4.67893 21 6.75V8C21 8.41421 20.6642 8.75 20.25 8.75C19.8358 8.75 19.5 8.41421 19.5 8V6.75C19.5 5.50736 18.4926 4.5 17.25 4.5H16C15.5858 4.5 15.25 4.16421 15.25 3.75Z" fill="currentColor"/><path d="M3.75 15.25C4.16421 15.25 4.5 15.5858 4.5 16V17.25C4.5 18.4926 5.50736 19.5 6.75 19.5H8C8.41421 19.5 8.75 19.8358 8.75 20.25C8.75 20.6642 8.41421 21 8 21H6.75C4.67893 21 3 19.3211 3 17.25V16C3 15.5858 3.33579 15.25 3.75 15.25Z" fill="currentColor"/><path d="M20.25 15.25C20.6642 15.25 21 15.5858 21 16V17.25C21 19.3211 19.3211 21 17.25 21H16C15.5858 21 15.25 20.6642 15.25 20.25C15.25 19.8358 15.5858 19.5 16 19.5H17.25C18.4926 19.5 19.5 18.4926 19.5 17.25V16C19.5 15.5858 19.8358 15.25 20.25 15.25Z" fill="currentColor"/><path d="M10.75 8C9.23122 8 8 9.23122 8 10.75V13.25C8 14.7688 9.23122 16 10.75 16H13.25C14.7688 16 16 14.7688 16 13.25V10.75C16 9.23122 14.7688 8 13.25 8H10.75Z" fill="currentColor"/></g></svg>