<svg width="24px" height="24px" viewBox="0 0 24 24" fill="currentColor" xmlns="http://www.w3.org/2000/svg"><g><path d="M4.5 6.75C4.5 5.50736 5.50736 4.5 6.75 4.5H8C8.41421 4.5 8.75 4.16421 8.75 3.75C8.75 3.33579 8.41421 3 8 3H6.75C4.67893 3 3 4.67893 3 6.75V8C3 8.41421 3.33579 8.75 3.75 8.75C4.16421 8.75 4.5 8.41421 4.5 8V6.75Z" fill="currentColor"/><path d="M16 3C15.5858 3 15.25 3.33579 15.25 3.75C15.25 4.16421 15.5858 4.5 16 4.5H17.25C18.4926 4.5 19.5 5.50736 19.5 6.75V8C19.5 8.41421 19.8358 8.75 20.25 8.75C20.6642 8.75 21 8.41421 21 8V6.75C21 4.67893 19.3211 3 17.25 3H16Z" fill="currentColor"/><path d="M4.5 16C4.5 15.5858 4.16421 15.25 3.75 15.25C3.33579 15.25 3 15.5858 3 16V17.25C3 19.3211 4.67893 21 6.75 21H8C8.41421 21 8.75 20.6642 8.75 20.25C8.75 19.8358 8.41421 19.5 8 19.5H6.75C5.50736 19.5 4.5 18.4926 4.5 17.25V16Z" fill="currentColor"/><path d="M21 16C21 15.5858 20.6642 15.25 20.25 15.25C19.8358 15.25 19.5 15.5858 19.5 16V17.25C19.5 18.4926 18.4926 19.5 17.25 19.5H16C15.5858 19.5 15.25 19.8358 15.25 20.25C15.25 20.6642 15.5858 21 16 21H17.25C19.3211 21 21 19.3211 21 17.25V16Z" fill="currentColor"/><path d="M12.6 8.45004C12.8485 8.11867 12.7814 7.64857 12.45 7.40004C12.1186 7.15152 11.6485 7.21867 11.4 7.55004L8.4 11.55C8.22956 11.7773 8.20214 12.0814 8.32918 12.3355C8.45623 12.5895 8.71593 12.75 9 12.75H13.5L11.4 15.55C11.1515 15.8814 11.2186 16.3515 11.55 16.6C11.8814 16.8486 12.3515 16.7814 12.6 16.45L15.6 12.45C15.7705 12.2228 15.7979 11.9187 15.6708 11.6646C15.5438 11.4105 15.2841 11.25 15 11.25H10.5L12.6 8.45004Z" fill="currentColor"/></g></svg>