<svg width="24px" height="24px" viewBox="0 0 24 24" fill="currentColor" xmlns="http://www.w3.org/2000/svg"><g><path d="M4.5 6.75C4.5 5.50736 5.50736 4.5 6.75 4.5H8C8.41421 4.5 8.75 4.16421 8.75 3.75C8.75 3.33579 8.41421 3 8 3H6.75C4.67893 3 3 4.67893 3 6.75V8C3 8.41421 3.33579 8.75 3.75 8.75C4.16421 8.75 4.5 8.41421 4.5 8V6.75Z" fill="currentColor"/><path d="M16 3C15.5858 3 15.25 3.33579 15.25 3.75C15.25 4.16421 15.5858 4.5 16 4.5H17.25C18.4926 4.5 19.5 5.50736 19.5 6.75V8C19.5 8.41421 19.8358 8.75 20.25 8.75C20.6642 8.75 21 8.41421 21 8V6.75C21 4.67893 19.3211 3 17.25 3H16Z" fill="currentColor"/><path d="M4.5 16C4.5 15.5858 4.16421 15.25 3.75 15.25C3.33579 15.25 3 15.5858 3 16V17.25C3 19.3211 4.67893 21 6.75 21H8C8.41421 21 8.75 20.6642 8.75 20.25C8.75 19.8358 8.41421 19.5 8 19.5H6.75C5.50736 19.5 4.5 18.4926 4.5 17.25V16Z" fill="currentColor"/><path d="M21 16C21 15.5858 20.6642 15.25 20.25 15.25C19.8358 15.25 19.5 15.5858 19.5 16V17.25C19.5 18.4926 18.4926 19.5 17.25 19.5H16C15.5858 19.5 15.25 19.8358 15.25 20.25C15.25 20.6642 15.5858 21 16 21H17.25C19.3211 21 21 19.3211 21 17.25V16Z" fill="currentColor"/><path d="M12.4081 9.06623C12.3598 9.16299 12.2813 9.24145 12.1845 9.28983L10.8947 9.93475C10.5262 10.119 10.5262 10.6449 10.8947 10.8292L12.1845 11.4741C12.2813 11.5225 12.3598 11.6009 12.4081 11.6977L13.0531 12.9875C13.2373 13.3561 13.7632 13.3561 13.9475 12.9875L14.5924 11.6977C14.6408 11.6009 14.7192 11.5225 14.816 11.4741L16.1058 10.8292C16.4744 10.6449 16.4744 10.119 16.1058 9.93475L14.816 9.28983C14.7192 9.24145 14.6408 9.16299 14.5924 9.06623L13.9475 7.77639C13.7632 7.40787 13.2373 7.40787 13.0531 7.77639L12.4081 9.06623Z" fill="currentColor"/><path d="M8.71166 13.4592C8.68263 13.5172 8.63556 13.5643 8.5775 13.5934L7.53693 14.1136C7.31581 14.2242 7.31582 14.5397 7.53693 14.6503L8.5775 15.1706C8.63556 15.1996 8.68263 15.2467 8.71166 15.3047L9.23195 16.3453C9.3425 16.5664 9.65804 16.5664 9.7686 16.3453L10.2889 15.3047C10.3179 15.2467 10.365 15.1996 10.423 15.1706L11.4636 14.6503C11.6847 14.5397 11.6847 14.2242 11.4636 14.1136L10.423 13.5934C10.365 13.5643 10.3179 13.5172 10.2889 13.4592L9.7686 12.4186C9.65804 12.1975 9.3425 12.1975 9.23194 12.4186L8.71166 13.4592Z" fill="currentColor"/></g></svg>