<svg width="24px" height="24px" viewBox="0 0 24 24" fill="currentColor" xmlns="http://www.w3.org/2000/svg"><g><path d="M5.75 3C3.67893 3 2 4.67893 2 6.75V12.777C2.79977 12.2843 3.74169 12 4.75 12C6.24413 12 7.59077 12.6248 8.54442 13.6221C10.5266 14.0935 12 15.874 12 18C12 18.7184 11.8316 19.3975 11.5322 20H18.25C20.3211 20 22 18.3211 22 16.25V9.75C22 7.67893 20.3211 6 18.25 6H13.0704C12.6524 6 12.2621 5.79112 12.0303 5.44338L11.5146 4.66987C10.8191 3.62663 9.64827 3 8.39445 3H5.75Z" fill="currentColor"/><path fill-rule="evenodd" clip-rule="evenodd" d="M4.75 13.5C2.67893 13.5 1 15.1789 1 17.25C1 19.3211 2.67893 21 4.75 21H7.5C9.15685 21 10.5 19.6569 10.5 18C10.5 16.4301 9.29415 15.1419 7.75815 15.011C7.07569 14.0953 5.98332 13.5 4.75 13.5Z" fill="currentColor"/></g></svg>