<svg width="24px" height="24px" viewBox="0 0 24 24" fill="currentColor" xmlns="http://www.w3.org/2000/svg"><g><path fill-rule="evenodd" clip-rule="evenodd" d="M1 14.75C1 13.7835 1.7835 13 2.75 13H6.25C7.2165 13 8 13.7835 8 14.75V20.25C8 20.5147 7.86047 20.7598 7.63285 20.8949C7.40523 21.03 7.12324 21.0352 6.89086 20.9084L4.5 19.6043L2.10914 20.9084C1.87676 21.0352 1.59477 21.03 1.36715 20.8949C1.13953 20.7598 1 20.5147 1 20.25V14.75Z" fill="currentColor"/><path d="M2 6.75C2 4.67893 3.67893 3 5.75 3H8.39445C9.64827 3 10.8191 3.62663 11.5146 4.66987L12.0303 5.44338C12.2621 5.79112 12.6524 6 13.0704 6H18.25C20.3211 6 22 7.67893 22 9.75V16.25C22 18.3211 20.3211 20 18.25 20H9.5V14.5C9.5 12.8431 8.15685 11.5 6.5 11.5H2V6.75Z" fill="currentColor"/></g></svg>