<svg width="24px" height="24px" viewBox="0 0 24 24" fill="currentColor" xmlns="http://www.w3.org/2000/svg"><g><path d="M8.59861 3C9.72489 3 10.7766 3.56288 11.4014 4.5C12.0261 5.43712 13.0779 6 14.2042 6H18.25C20.3211 6 22 7.67893 22 9.75V12.5278C20.9385 11.5777 19.5367 11 18 11C14.6863 11 12 13.6863 12 17C12 18.0929 12.2922 19.1175 12.8027 20H5.75C3.67893 20 2 18.3211 2 16.25V6.75C2 4.67893 3.67893 3 5.75 3H8.59861Z" fill="currentColor"/><path fill-rule="evenodd" clip-rule="evenodd" d="M18 13C18.4142 13 18.75 13.3358 18.75 13.75V16.25H21.25C21.6642 16.25 22 16.5858 22 17C22 17.4142 21.6642 17.75 21.25 17.75H18.75V20.25C18.75 20.6642 18.4142 21 18 21C17.5858 21 17.25 20.6642 17.25 20.25V17.75H14.75C14.3358 17.75 14 17.4142 14 17C14 16.5858 14.3358 16.25 14.75 16.25H17.25V13.75C17.25 13.3358 17.5858 13 18 13Z" fill="currentColor"/></g></svg>