<svg width="24px" height="24px" viewBox="0 0 24 24" fill="currentColor" xmlns="http://www.w3.org/2000/svg"><g><path d="M5.75 3C3.67893 3 2 4.67893 2 6.75V10.636C4.62332 8.87958 8.20588 9.15994 10.523 11.477C12.8401 13.7941 13.1204 17.3767 11.364 20H18.25C20.3211 20 22 18.3211 22 16.25V9.75C22 7.67893 20.3211 6 18.25 6H13.0704C12.6524 6 12.2621 5.79112 12.0303 5.44338L11.5146 4.66987C10.8191 3.62663 9.64827 3 8.39445 3H5.75Z" fill="currentColor"/><path fill-rule="evenodd" clip-rule="evenodd" d="M9.46231 12.5377C7.41206 10.4874 4.08794 10.4874 2.03769 12.5377C-0.0125632 14.5879 -0.0125632 17.9121 2.03769 19.9623C4.08794 22.0126 7.41206 22.0126 9.46231 19.9623C11.5126 17.9121 11.5126 14.5879 9.46231 12.5377ZM8.87894 18.3183L3.68172 13.1211C5.13775 12.1564 7.1188 12.3155 8.40165 13.5983C9.6845 14.8812 9.84359 16.8623 8.87894 18.3183ZM2.62106 14.1817L7.81828 19.3789C6.36225 20.3436 4.3812 20.1845 3.09835 18.9017C1.8155 17.6188 1.65641 15.6377 2.62106 14.1817Z" fill="currentColor"/></g></svg>