<svg width="24px" height="24px" viewBox="0 0 24 24" fill="currentColor" xmlns="http://www.w3.org/2000/svg"><g><path d="M18.7432 11.0449C18.9366 10.9745 19.1519 10.9871 19.3379 11.0811L22.0391 12.4463C22.6281 12.7441 23 13.3477 23 14.0078V16.0234C23 18.0393 21.7278 19.836 19.8262 20.5049L19.249 20.708C19.088 20.7646 18.912 20.7646 18.751 20.708L18.1738 20.5049C16.2722 19.836 15 18.0393 15 16.0234V14.0078C15 13.3477 15.3719 12.7441 15.9609 12.4463L18.6621 11.0811L18.7432 11.0449Z" fill="currentColor"/><path d="M8.59863 3C9.6546 3.00001 10.6449 3.49497 11.2793 4.3291L11.5234 4.6709C12.1579 5.50503 13.1481 5.99999 14.2041 6H18.5C20.433 6 22 7.567 22 9.5V10.7451L20.0146 9.74219C19.4162 9.43976 18.7165 9.4207 18.1055 9.68555L17.9854 9.74219L15.2842 11.1074C14.1902 11.6604 13.5 12.782 13.5 14.0078V16.0234C13.5 17.5098 14.0261 18.9052 14.9287 20H5.5C3.567 20 2 18.433 2 16.5V6.5C2 4.567 3.567 3 5.5 3H8.59863Z" fill="currentColor"/></g></svg>