<svg width="24px" height="24px" viewBox="0 0 24 24" fill="currentColor" xmlns="http://www.w3.org/2000/svg"><g><path d="M2.75 6C3.16421 6 3.5 6.33579 3.5 6.75V16.25C3.5 17.4926 4.50736 18.5 5.75 18.5H18.25C18.6642 18.5 19 18.8358 19 19.25C19 19.6642 18.6642 20 18.25 20H5.75C3.67893 20 2 18.3211 2 16.25V6.75C2 6.33579 2.33579 6 2.75 6Z" fill="currentColor"/><path d="M9.42188 3C10.1511 3.00008 10.8506 3.29001 11.3662 3.80566L12.1943 4.63379C12.4287 4.86814 12.7467 4.99992 13.0781 5H19.25C20.7688 5 22 6.23122 22 7.75V13.25C22 15.3211 20.3211 17 18.25 17H8.75C6.67893 17 5 15.3211 5 13.25V5.75C5 4.23122 6.23122 3 7.75 3H9.42188Z" fill="currentColor"/></g></svg>