<svg width="24px" height="24px" viewBox="0 0 24 24" fill="currentColor" xmlns="http://www.w3.org/2000/svg"><g><path d="M4.24219 10.0068C5.48483 10.0068 6.49219 11.0142 6.49219 12.2568V18.75C6.49219 18.9489 6.41304 19.1396 6.27246 19.2803L4.77246 20.7803C4.63182 20.9208 4.44104 21 4.24219 21C4.04336 20.9999 3.85251 20.9209 3.71191 20.7803L2.21191 19.2803C2.07141 19.1396 1.99219 18.9488 1.99219 18.75V12.2568C1.99219 11.0143 2.99966 10.007 4.24219 10.0068Z" fill="currentColor"/><path d="M8.39355 3C9.64735 3.00003 10.8182 3.6267 11.5137 4.66992L12.0293 5.44336C12.2611 5.79109 12.6514 5.99998 13.0693 6H18.249C20.3201 6 21.999 7.67893 21.999 9.75V16.25C21.999 18.3211 20.3201 20 18.249 20H7.6123C7.85767 19.633 7.99219 19.1988 7.99219 18.75V12.2568C7.99219 10.2506 6.41675 8.61235 4.43555 8.51172L4.24219 8.50684C3.40604 8.50692 2.63348 8.78039 2.00977 9.24316L1.99902 6.75C1.99902 4.67893 3.67796 3 5.74902 3H8.39355Z" fill="currentColor"/></g></svg>