<svg width="24px" height="24px" viewBox="0 0 24 24" fill="currentColor" xmlns="http://www.w3.org/2000/svg"><g><path d="M2 6.75C2 4.67893 3.67893 3 5.75 3H8.39445C9.64827 3 10.8191 3.62663 11.5146 4.66987L12.0303 5.44338C12.2621 5.79112 12.6524 6 13.0704 6H18.25C20.3211 6 22 7.67893 22 9.75V16.25C22 18.3211 20.3211 20 18.25 20H13.5V16C13.5 13.5148 11.4852 11.5 9 11.5H3.5C2.97406 11.5 2.46918 11.5902 2 11.7561V6.75Z" fill="currentColor"/><path fill-rule="evenodd" clip-rule="evenodd" d="M4.5 17C4.5 16.5858 4.83579 16.25 5.25 16.25H7.75C8.16421 16.25 8.5 16.5858 8.5 17C8.5 17.4142 8.16421 17.75 7.75 17.75H5.25C4.83579 17.75 4.5 17.4142 4.5 17Z" fill="currentColor"/><path d="M4.25 13C2.45507 13 1 14.4551 1 16.25V17.75C1 19.5449 2.45507 21 4.25 21H4.75C5.16421 21 5.5 20.6642 5.5 20.25C5.5 19.8358 5.16421 19.5 4.75 19.5H4.25C3.2835 19.5 2.5 18.7165 2.5 17.75V16.25C2.5 15.2835 3.2835 14.5 4.25 14.5H4.75C5.16421 14.5 5.5 14.1642 5.5 13.75C5.5 13.3358 5.16421 13 4.75 13H4.25Z" fill="currentColor"/><path d="M8.75 13C10.5449 13 12 14.4551 12 16.25V17.75C12 19.5449 10.5449 21 8.75 21H8.25C7.83579 21 7.5 20.6642 7.5 20.25C7.5 19.8358 7.83579 19.5 8.25 19.5H8.75C9.7165 19.5 10.5 18.7165 10.5 17.75V16.25C10.5 15.2835 9.7165 14.5 8.75 14.5H8.25C7.83579 14.5 7.5 14.1642 7.5 13.75C7.5 13.3358 7.83579 13 8.25 13H8.75Z" fill="currentColor"/></g></svg>