<svg width="24px" height="24px" viewBox="0 0 24 24" fill="currentColor" xmlns="http://www.w3.org/2000/svg"><g><path fill-rule="evenodd" clip-rule="evenodd" d="M3 5.75C3 4.23122 4.23122 3 5.75 3H14.25C15.5088 3 16.57 3.84575 16.8965 5H18.25C19.7688 5 21 6.23122 21 7.75V10.1684C21.5912 10.4493 22 11.0519 22 11.75V17.25C22 19.3211 20.3211 21 18.25 21H5.75C3.67893 21 2 19.3211 2 17.25V8.75C2 8.0519 2.40876 7.44927 3 7.16841V5.75ZM4.5 7H7.50736C8.50192 7 9.45575 7.39509 10.159 8.09835L11.4016 9.34099C11.8236 9.76295 12.3959 10 12.9926 10H15.5V5.75C15.5 5.05964 14.9404 4.5 14.25 4.5H5.75C5.05964 4.5 4.5 5.05964 4.5 5.75V7ZM17 10H19.5V7.75C19.5 7.05964 18.9404 6.5 18.25 6.5H17V10Z" fill="currentColor"/></g></svg>