<svg width="24px" height="24px" viewBox="0 0 24 24" fill="currentColor" xmlns="http://www.w3.org/2000/svg"><g><path d="M2 6.75C2 4.67893 3.67893 3 5.75 3H8.39445C9.64827 3 10.8191 3.62663 11.5146 4.66987L12.0303 5.44338C12.2621 5.79112 12.6524 6 13.0704 6H18.25C20.3211 6 22 7.67893 22 9.75V16.25C22 18.3211 20.3211 20 18.25 20H12.75V14.8107L13.9697 16.0303C14.2626 16.3232 14.7374 16.3232 15.0303 16.0303C15.3232 15.7374 15.3232 15.2626 15.0303 14.9697L12.5303 12.4697C12.2374 12.1768 11.7626 12.1768 11.4697 12.4697L8.96967 14.9697C8.67678 15.2626 8.67678 15.7374 8.96967 16.0303C9.26256 16.3232 9.73744 16.3232 10.0303 16.0303L11.25 14.8107V20H5.75C3.67893 20 2 18.3211 2 16.25V6.75Z" fill="currentColor"/></g></svg>