<svg width="24px" height="24px" viewBox="0 0 24 24" fill="currentColor" xmlns="http://www.w3.org/2000/svg"><g><path fill-rule="evenodd" clip-rule="evenodd" d="M8.75 3C6.67893 3 5 4.67893 5 6.75V7H4.75C2.67893 7 1 8.67893 1 10.75V17.25C1 19.3211 2.67893 21 4.75 21H15.25C17.3211 21 19 19.3211 19 17.25V17H19.25C21.3211 17 23 15.3211 23 13.25V8.75C23 6.67893 21.3211 5 19.25 5H14.8284C14.4969 5 14.179 4.8683 13.9445 4.63388L13.1161 3.80546C12.6004 3.28973 11.9009 3 11.1716 3H8.75ZM19 15.5H19.25C20.4926 15.5 21.5 14.4926 21.5 13.25V8.75C21.5 7.50736 20.4926 6.5 19.25 6.5H14.8284C14.0991 6.5 13.3996 6.21027 12.8839 5.69454L12.0555 4.86612C11.821 4.6317 11.5031 4.5 11.1716 4.5H8.75C7.50736 4.5 6.5 5.50736 6.5 6.75V7H7.17157C7.90092 7 8.60039 7.28973 9.11612 7.80546L9.94454 8.63388C10.179 8.8683 10.4969 9 10.8284 9H15.25C17.3211 9 19 10.6789 19 12.75V15.5Z" fill="currentColor"/></g></svg>