<svg width="24px" height="24px" viewBox="0 0 24 24" fill="currentColor" xmlns="http://www.w3.org/2000/svg"><g><path d="M20.4794 11C22.2506 11 23.5596 12.6501 23.1572 14.375L22.3407 17.875C22.0503 19.1195 20.9409 19.9999 19.663 20H4.33684C3.05892 19.9999 1.94956 19.1195 1.6591 17.875L0.842697 14.375C0.440204 12.6501 1.74919 11 3.52043 11H20.4794Z" fill="currentColor"/><path d="M8.72551 3C9.70226 3.00002 10.6407 3.38136 11.3407 4.0625L11.6493 4.3623C12.0694 4.77098 12.6326 5 13.2187 5H18.2499C20.321 5.00004 21.9999 6.67896 21.9999 8.75V9.5H1.99992V6.75C1.99992 4.67893 3.67886 3 5.74992 3H8.72551Z" fill="currentColor"/></g></svg>