<svg width="24px" height="24px" viewBox="0 0 24 24" fill="currentColor" xmlns="http://www.w3.org/2000/svg"><g><path d="M8.39453 3C9.64832 3.00003 10.8192 3.6267 11.5146 4.66992L12.0303 5.44336C12.2621 5.79109 12.6524 5.99998 13.0703 6H18.25C20.3211 6 22 7.67893 22 9.75V16.25C22 18.3211 20.3211 20 18.25 20H7.3916L7.56055 19.5605L9.16504 18.9434C9.96925 18.634 10.5 17.8616 10.5 17C10.5 16.1384 9.96925 15.366 9.16504 15.0566L7.56055 14.4385L6.94336 12.835C6.63405 12.0308 5.86164 11.5 5 11.5C4.19222 11.5 3.46303 11.9666 3.12012 12.6875L3.05664 12.835L2.43848 14.4385L2 14.6074V6.75C2 4.67893 3.67893 3 5.75 3H8.39453Z" fill="currentColor"/><path d="M6.24045 15.1852L5.54359 13.3733C5.45708 13.1484 5.24099 13 5 13C4.75901 13 4.54292 13.1484 4.45641 13.3733L3.75955 15.1852C3.65797 15.4493 3.44927 15.658 3.18518 15.7595L1.37334 16.4564C1.14842 16.5429 1 16.759 1 17C1 17.241 1.14842 17.4571 1.37334 17.5436L3.18518 18.2405C3.44927 18.342 3.65797 18.5507 3.75955 18.8148L4.45641 20.6267C4.54292 20.8516 4.75901 21 5 21C5.24099 21 5.45708 20.8516 5.54359 20.6267L6.24045 18.8148C6.34203 18.5507 6.55073 18.342 6.81482 18.2405L8.62666 17.5436C8.85158 17.4571 9 17.241 9 17C9 16.759 8.85188 16.5426 8.62695 16.4561L6.81445 15.7598C6.55036 15.6582 6.34203 15.4493 6.24045 15.1852Z" fill="currentColor"/></g></svg>