<svg width="24px" height="24px" viewBox="0 0 24 24" fill="currentColor" xmlns="http://www.w3.org/2000/svg"><g><path fill-rule="evenodd" clip-rule="evenodd" d="M2 6.75C2 4.67893 3.67893 3 5.75 3H8.39445C9.64827 3 10.8191 3.62663 11.5146 4.66987L12.0303 5.44338C12.2621 5.79112 12.6524 6 13.0704 6H18.25C20.3211 6 22 7.67893 22 9.75V16.25C22 18.3211 20.3211 20 18.25 20H5.75C3.67893 20 2 18.3211 2 16.25V6.75ZM15.0303 16.0303L12.5303 18.5303C12.2374 18.8232 11.7626 18.8232 11.4697 18.5303L8.96967 16.0303C8.67678 15.7374 8.67678 15.2626 8.96967 14.9697C9.26256 14.6768 9.73744 14.6768 10.0303 14.9697L11.25 16.1893V11.75C11.25 11.3358 11.5858 11 12 11C12.4142 11 12.75 11.3358 12.75 11.75V16.1893L13.9697 14.9697C14.2626 14.6768 14.7374 14.6768 15.0303 14.9697C15.3232 15.2626 15.3232 15.7374 15.0303 16.0303Z" fill="currentColor"/></g></svg>