<svg width="24px" height="24px" viewBox="0 0 24 24" fill="currentColor" xmlns="http://www.w3.org/2000/svg"><g><path d="M2 6.75C2 4.67893 3.67893 3 5.75 3H8.39445C9.64827 3 10.8191 3.62663 11.5146 4.66987L12.0303 5.44338C12.2621 5.79112 12.6524 6 13.0704 6H18.25C20.3211 6 22 7.67893 22 9.75V16.25C22 18.3211 20.3211 20 18.25 20H11.9971C12.1221 19.3651 12.0452 18.6715 11.6963 18.0152C11.077 16.8502 10.124 15.8618 8.94789 15.2326C9.61706 14.5175 10.0267 13.5566 10.0267 12.5C10.0267 10.2909 8.23588 8.5 6.02674 8.5C3.8176 8.5 2.02674 10.2909 2.02674 12.5L2 6.75Z" fill="currentColor"/><path fill-rule="evenodd" clip-rule="evenodd" d="M3.5 12.5C3.5 11.1193 4.61929 10 6 10C7.38071 10 8.5 11.1193 8.5 12.5C8.5 13.8807 7.38071 15 6 15C4.61929 15 3.5 13.8807 3.5 12.5Z" fill="currentColor"/><path fill-rule="evenodd" clip-rule="evenodd" d="M6.00085 16C4.11651 16 2.50645 17.1187 1.65559 18.7193C1.35885 19.2775 1.44914 19.8787 1.76575 20.3148C2.07161 20.736 2.57971 21 3.13798 21H8.86372C9.42198 21 9.93009 20.736 10.2359 20.3148C10.5525 19.8787 10.6428 19.2775 10.3461 18.7193C9.49524 17.1187 7.88518 16 6.00085 16Z" fill="currentColor"/></g></svg>