<svg width="24px" height="24px" viewBox="0 0 24 24" fill="currentColor" xmlns="http://www.w3.org/2000/svg"><g><path fill-rule="evenodd" clip-rule="evenodd" d="M19.1826 19.75H19.875C20.2202 19.75 20.5 20.0298 20.5 20.375C20.5 20.7202 20.2202 21 19.875 21H15.125C14.7798 21 14.5 20.7202 14.5 20.375C14.5 20.0298 14.7798 19.75 15.125 19.75H16.0264L14.3174 14.5H8.05566L6.34668 19.75H7.125C7.47018 19.75 7.75 20.0298 7.75 20.375C7.75 20.7202 7.47018 21 7.125 21H4.125C3.77982 21 3.5 20.7202 3.5 20.375C3.5 20.0298 3.77982 19.75 4.125 19.75H4.76953L9.67986 4.66729C10.0036 3.67299 10.9304 3 11.9761 3C13.0217 3 13.9486 3.67299 14.2723 4.66729L19.1826 19.75ZM8.54395 13H13.8291L11.4242 5.61389C11.3493 5.38376 11.0237 5.38376 10.9488 5.61389L8.54395 13Z" fill="currentColor"/></g></svg>