<svg width="24px" height="24px" viewBox="0 0 24 24" fill="currentColor" xmlns="http://www.w3.org/2000/svg"><g><path d="M5.55194 6.64444C5.7362 6.27591 6.2621 6.27591 6.44637 6.64444L7.34128 8.43427C7.38967 8.53103 7.46813 8.6095 7.56489 8.65788L9.35473 9.55279C9.72325 9.73706 9.72325 10.263 9.35473 10.4472L7.56489 11.3421C7.46813 11.3905 7.38967 11.469 7.34128 11.5657L6.44637 13.3556C6.2621 13.7241 5.7362 13.7241 5.55194 13.3556L4.65702 11.5657C4.60864 11.469 4.53018 11.3905 4.43342 11.3421L2.64358 10.4472C2.27506 10.263 2.27506 9.73706 2.64358 9.55279L4.43342 8.65788C4.53018 8.6095 4.60864 8.53103 4.65702 8.43427L5.55194 6.64444Z" fill="currentColor"/><path d="M9.49915 3C8.67072 3 7.99915 3.67157 7.99915 4.5C7.99915 5.32843 8.67072 6 9.49915 6C10.3276 6 10.9991 5.32843 10.9991 4.5C10.9991 3.67157 10.3276 3 9.49915 3Z" fill="currentColor"/><path d="M16.92 3.41459C16.7929 3.1605 16.5332 3 16.2491 3C15.9651 3 15.7054 3.1605 15.5783 3.41459L14.1901 6.19098L11.4137 7.57918C11.1596 7.70622 10.9991 7.96592 10.9991 8.25C10.9991 8.53408 11.1596 8.79378 11.4137 8.92082L14.1901 10.309L15.5783 13.0854C15.7054 13.3395 15.9651 13.5 16.2491 13.5C16.5332 13.5 16.7929 13.3395 16.92 13.0854L18.3082 10.309L21.0846 8.92082C21.3386 8.79378 21.4991 8.53408 21.4991 8.25C21.4991 7.96592 21.3386 7.70622 21.0846 7.57918L18.3082 6.19098L16.92 3.41459Z" fill="currentColor"/><path d="M3.74915 15C3.33493 15 2.99915 15.3358 2.99915 15.75C2.99915 15.75 2.99706 15.8212 2.99915 15.8667C3.04214 16.8068 4.45978 17.7375 5.14238 18.1854C6.10028 18.8139 7.42369 19.425 9.18758 19.7529C9.07033 19.8852 8.99915 20.0593 8.99915 20.25C8.99915 20.6642 9.33493 21 9.74915 21H14.2491C14.6634 21 14.9991 20.6642 14.9991 20.25C14.9991 20.0593 14.928 19.8852 14.8107 19.7529C16.5746 19.425 17.898 18.8139 18.8559 18.1854C19.5385 17.7375 20.9562 16.8068 20.9991 15.8667C21.0012 15.8212 20.9991 15.75 20.9991 15.75C20.9991 15.3358 20.6634 15 20.2491 15H3.74915Z" fill="currentColor"/></g></svg>