<svg width="24px" height="24px" viewBox="0 0 24 24" fill="currentColor" xmlns="http://www.w3.org/2000/svg"><g><path d="M10 16C10.0275 15.1798 9.37001 14.5 8.54937 14.5H5.55105C4.71416 14.5 4.028 15.1636 4 16C4 17.6569 5.34315 19 7 19C8.65685 19 10 17.6569 10 16Z" fill="currentColor"/><path d="M10.4246 11.9405C10.186 12.6186 9.5059 13 8.78706 13H5.21302C4.49415 13 3.81401 12.6186 3.57547 11.9405C2.29304 8.29464 3.03655 2 6.99985 2C10.9632 2 11.7071 8.2947 10.4246 11.9405Z" fill="currentColor"/><path d="M20.4246 14.9405C20.186 15.6186 19.5059 16 18.7871 16H15.213C14.4942 16 13.814 15.6186 13.5755 14.9405C12.293 11.2946 13.0365 5 16.9998 5C20.9632 5 21.7071 11.2947 20.4246 14.9405Z" fill="currentColor"/><path d="M20 19C20 18.1716 19.3284 17.5 18.5 17.5H15.5C14.6716 17.5 14 18.1716 14 19C14 20.6569 15.3431 22 17 22C18.6569 22 20 20.6569 20 19Z" fill="currentColor"/></g></svg>