<svg width="24px" height="24px" viewBox="0 0 24 24" fill="currentColor" xmlns="http://www.w3.org/2000/svg"><g><path fill-rule="evenodd" clip-rule="evenodd" d="M3 6.75C3 4.67893 4.67893 3 6.75 3H17.25C19.3211 3 21 4.67893 21 6.75V17.25C21 19.3211 19.3211 21 17.25 21H6.75C4.67893 21 3 19.3211 3 17.25V6.75ZM7 16.25C7 15.8358 7.33579 15.5 7.75 15.5H16.25C16.6642 15.5 17 15.8358 17 16.25C17 16.6642 16.6642 17 16.25 17H7.75C7.33579 17 7 16.6642 7 16.25ZM7.75 7C7.33579 7 7 7.33579 7 7.75V9.25C7 9.66421 7.33579 10 7.75 10H9.25C9.66421 10 10 9.66421 10 9.25V7.75C10 7.33579 9.66421 7 9.25 7H7.75Z" fill="currentColor"/></g></svg>