<svg width="24px" height="24px" viewBox="0 0 24 24" fill="currentColor" xmlns="http://www.w3.org/2000/svg"><g><path d="M6 3C4.34315 3 3 4.34315 3 6C3 7.39788 3.95608 8.57245 5.25 8.90549V9C5.25 11.0711 6.92893 12.75 9 12.75C10.2426 12.75 11.25 13.7574 11.25 15V15.0945C9.95608 15.4275 9 16.6021 9 18C9 19.6569 10.3431 21 12 21C13.6569 21 15 19.6569 15 18C15 16.6021 14.0439 15.4275 12.75 15.0945V15C12.75 13.7574 13.7574 12.75 15 12.75C17.0711 12.75 18.75 11.0711 18.75 9V8.90549C20.0439 8.57245 21 7.39788 21 6C21 4.34315 19.6569 3 18 3C16.3431 3 15 4.34315 15 6C15 7.39788 15.9561 8.57245 17.25 8.90549V9C17.25 10.2426 16.2426 11.25 15 11.25C13.7733 11.25 12.6842 11.839 12 12.7496C11.3158 11.839 10.2267 11.25 9 11.25C7.75736 11.25 6.75 10.2426 6.75 9V8.90549C8.04392 8.57245 9 7.39788 9 6C9 4.34315 7.65685 3 6 3Z" fill="currentColor"/></g></svg>