<svg width="24px" height="24px" viewBox="0 0 24 24" fill="currentColor" xmlns="http://www.w3.org/2000/svg"><g><path fill-rule="evenodd" clip-rule="evenodd" d="M6.09698 2.00063C6.47797 2.01696 6.77883 2.34657 6.77883 2.74764V12.1398C6.77883 12.898 7.36323 13.5127 8.08412 13.5127C8.80501 13.5127 9.38941 12.898 9.38941 12.1398V2.77874C9.38941 2.36514 9.70817 2.02986 10.1014 2.02986C10.4946 2.02986 10.8134 2.36514 10.8134 2.77874V12.2646C10.8134 12.9539 11.3446 13.5127 12 13.5127C12.6554 13.5127 13.1866 12.9539 13.1866 12.2646V2.77874C13.1866 2.36514 13.5054 2.02986 13.8986 2.02986C14.2918 2.02986 14.6106 2.36514 14.6106 2.77874V12.1397C14.6106 12.898 15.195 13.5127 15.9159 13.5127C16.6368 13.5127 17.2212 12.898 17.2212 12.1397V2.74761C17.2212 2.34656 17.5221 2.01696 17.903 2.00063C18.284 1.9843 18.6094 2.28707 18.6404 2.68678L19.4882 13.6106C19.5708 14.6753 19.2172 15.7264 18.5163 16.4994L16.7809 18.4135C16.1495 19.11 15.7972 20.0353 15.7972 20.9977V21.2511C15.7972 21.6647 15.4785 22 15.0852 22H8.91475C8.52154 22 8.20277 21.6647 8.20277 21.2511V20.9977C8.20277 20.0353 7.85052 19.11 7.21911 18.4135L5.48368 16.4994C4.7828 15.7264 4.42919 14.6753 4.51181 13.6106L5.35962 2.68681C5.39064 2.28708 5.716 1.9843 6.09698 2.00063Z" fill="currentColor"/></g></svg>