<svg width="24px" height="24px" viewBox="0 0 24 24" fill="currentColor" xmlns="http://www.w3.org/2000/svg"><g><path d="M10.5637 2.03172C11.4824 1.65116 12.516 1.65126 13.4348 2.03172L18.0324 3.93699C18.9512 4.31754 19.6811 5.04763 20.0617 5.96629L21.967 10.5639C22.3476 11.4827 22.3476 12.5162 21.967 13.435L20.0617 18.0327C19.6811 18.9515 18.9513 19.6814 18.0324 20.062L13.4348 21.9673C12.516 22.3478 11.4825 22.3478 10.5637 21.9673L5.96604 20.062C5.04739 19.6813 4.3173 18.9514 3.93675 18.0327L2.03147 13.435C1.65102 12.5163 1.65092 11.4827 2.03147 10.5639L3.93675 5.96629C4.31734 5.04758 5.04734 4.31759 5.96604 3.93699L10.5637 2.03172Z" fill="currentColor"/></g></svg>