<svg width="24px" height="24px" viewBox="0 0 24 24" fill="currentColor" xmlns="http://www.w3.org/2000/svg"><g><path d="M17.4395 8.00391C19.4225 8.10256 21 9.74245 21 11.75V17.25C21 19.3211 19.3211 21 17.25 21H11.75C9.74245 21 8.10256 19.4225 8.00391 17.4395C8.33074 17.4776 8.66292 17.5 9 17.5C13.6944 17.5 17.5 13.6944 17.5 9C17.5 8.66292 17.4776 8.33074 17.4395 8.00391Z" fill="currentColor"/><path d="M9 2C12.866 2 16 5.13401 16 9C16 12.866 12.866 16 9 16C5.13401 16 2 12.866 2 9C2 5.13401 5.13401 2 9 2Z" fill="currentColor"/></g></svg>