<svg width="24px" height="24px" viewBox="0 0 24 24" fill="currentColor" xmlns="http://www.w3.org/2000/svg"><g><path fill-rule="evenodd" clip-rule="evenodd" d="M21.5 11.4057C21.5 14.3714 20.1137 17.0136 17.9535 18.7357C18.0797 18.8903 18.1839 19.0654 18.2607 19.2572C18.7862 20.5709 17.8186 22 16.4037 22H7.59629C6.18136 22 5.21385 20.5709 5.73934 19.2572C5.81605 19.0654 5.92031 18.8903 6.04648 18.7357C3.88634 17.0136 2.5 14.3714 2.5 11.4057C2.5 6.20345 6.76097 2 12 2C17.239 2 21.5 6.20345 21.5 11.4057ZM7.13205 19.8143C7.20798 19.6245 7.39184 19.5 7.59629 19.5H16.4037C16.6082 19.5 16.792 19.6245 16.8679 19.8143C16.9993 20.1427 16.7574 20.5 16.4037 20.5H7.59629C7.24256 20.5 7.00068 20.1427 7.13205 19.8143ZM12.833 6.09703C12.8769 5.96758 13.1231 5.96758 13.1671 6.09703C13.2935 6.46956 13.4949 6.93046 13.7822 7.21777C14.0695 7.50507 14.5304 7.70649 14.903 7.83292C15.0324 7.87685 15.0324 8.12309 14.903 8.16702C14.5304 8.29345 14.0695 8.49487 13.7822 8.78217C13.4949 9.06948 13.2935 9.53038 13.1671 9.90291C13.1231 10.0324 12.8769 10.0324 12.833 9.90291C12.7066 9.53038 12.5051 9.06948 12.2178 8.78217C11.9305 8.49487 11.4696 8.29345 11.0971 8.16702C10.9676 8.12309 10.9676 7.87685 11.0971 7.83292C11.4696 7.70649 11.9305 7.50507 12.2178 7.21777C12.5051 6.93046 12.7066 6.46956 12.833 6.09703ZM15.3121 9.35922C15.3615 9.21359 15.6385 9.21359 15.6879 9.35922C15.8302 9.77831 16.0568 10.2968 16.38 10.62C16.7032 10.9432 17.2217 11.1698 17.6408 11.3121C17.7864 11.3615 17.7864 11.6385 17.6408 11.6879C17.2217 11.8302 16.7032 12.0568 16.38 12.38C16.0568 12.7032 15.8302 13.2217 15.6879 13.6408C15.6385 13.7864 15.3615 13.7864 15.3121 13.6408C15.1698 13.2217 14.9432 12.7032 14.62 12.38C14.2968 12.0568 13.7783 11.8302 13.3592 11.6879C13.2136 11.6385 13.2136 11.3615 13.3592 11.3121C13.7783 11.1698 14.2968 10.9432 14.62 10.62C14.9432 10.2968 15.1698 9.77831 15.3121 9.35922Z" fill="currentColor"/></g></svg>