<svg width="24px" height="24px" viewBox="0 0 24 24" fill="currentColor" xmlns="http://www.w3.org/2000/svg"><g><path fill-rule="evenodd" clip-rule="evenodd" d="M3 6.75C3 4.67893 4.67893 3 6.75 3H8.25C8.66421 3 9 3.33579 9 3.75C9 4.16421 8.66421 4.5 8.25 4.5H6.75C5.50736 4.5 4.5 5.50736 4.5 6.75V8.25C4.5 8.66421 4.16421 9 3.75 9C3.33579 9 3 8.66421 3 8.25V6.75ZM15 3.75C15 3.33579 15.3358 3 15.75 3H17.25C19.3211 3 21 4.67893 21 6.75V8.25C21 8.66421 20.6642 9 20.25 9C19.8358 9 19.5 8.66421 19.5 8.25V6.75C19.5 5.50736 18.4926 4.5 17.25 4.5H15.75C15.3358 4.5 15 4.16421 15 3.75ZM3.75 15C4.16421 15 4.5 15.3358 4.5 15.75V17.25C4.5 18.4926 5.50736 19.5 6.75 19.5H8.25C8.66421 19.5 9 19.8358 9 20.25C9 20.6642 8.66421 21 8.25 21H6.75C4.67893 21 3 19.3211 3 17.25V15.75C3 15.3358 3.33579 15 3.75 15ZM20.25 15C20.6642 15 21 15.3358 21 15.75V17.25C21 19.3211 19.3211 21 17.25 21H15.75C15.3358 21 15 20.6642 15 20.25C15 19.8358 15.3358 19.5 15.75 19.5H17.25C18.4926 19.5 19.5 18.4926 19.5 17.25V15.75C19.5 15.3358 19.8358 15 20.25 15Z" fill="currentColor"/></g></svg>