<svg width="24px" height="24px" viewBox="0 0 24 24" fill="currentColor" xmlns="http://www.w3.org/2000/svg"><g><path d="M2 16.25V14.75C2 14.3358 2.33579 14 2.75 14C3.16421 14 3.5 14.3358 3.5 14.75V16.25C3.5 17.4926 4.50736 18.5 5.75 18.5H7.25C7.66421 18.5 8 18.8358 8 19.25C8 19.6642 7.66421 20 7.25 20H5.75C3.67893 20 2 18.3211 2 16.25ZM20.5 16.25V14.75C20.5 14.3358 20.8358 14 21.25 14C21.6642 14 22 14.3358 22 14.75V16.25C22 18.3211 20.3211 20 18.25 20H16.75C16.3358 20 16 19.6642 16 19.25C16 18.8358 16.3358 18.5 16.75 18.5H18.25C19.4926 18.5 20.5 17.4926 20.5 16.25ZM2 9.25V7.75C2 5.67893 3.67893 4 5.75 4H7.25C7.66421 4 8 4.33579 8 4.75C8 5.16421 7.66421 5.5 7.25 5.5H5.75C4.50736 5.5 3.5 6.50736 3.5 7.75V9.25C3.5 9.66421 3.16421 10 2.75 10C2.33579 10 2 9.66421 2 9.25ZM20.5 9.25V7.75C20.5 6.50736 19.4926 5.5 18.25 5.5H16.75C16.3358 5.5 16 5.16421 16 4.75C16 4.33579 16.3358 4 16.75 4H18.25C20.3211 4 22 5.67893 22 7.75V9.25C22 9.66421 21.6642 10 21.25 10C20.8358 10 20.5 9.66421 20.5 9.25Z" fill="currentColor"/></g></svg>