<svg width="24px" height="24px" viewBox="0 0 24 24" fill="currentColor" xmlns="http://www.w3.org/2000/svg"><g><path fill-rule="evenodd" clip-rule="evenodd" d="M12 2C12.1545 2 12.3082 2.00381 12.4609 2.01074C12.52 2.01342 12.5789 2.01778 12.6377 2.02148C12.7433 2.02813 12.8484 2.036 12.9531 2.0459C13.0004 2.05037 13.0476 2.05542 13.0947 2.06055C13.2129 2.07342 13.3304 2.08852 13.4473 2.10547C13.4854 2.111 13.5235 2.11611 13.5615 2.12207C13.688 2.14191 13.8136 2.16491 13.9385 2.18945C13.97 2.19565 14.0018 2.20054 14.0332 2.20703C14.1805 2.23747 14.3268 2.27078 14.4717 2.30762C14.5225 2.32053 14.5726 2.33592 14.623 2.34961C14.7123 2.37382 14.8014 2.3982 14.8896 2.4248C14.9561 2.44482 15.0221 2.46595 15.0879 2.4873C15.1681 2.51333 15.2478 2.54038 15.3271 2.56836C15.3905 2.59072 15.4538 2.61312 15.5166 2.63672C15.6082 2.67115 15.6987 2.70809 15.7891 2.74512C15.8317 2.76257 15.8747 2.77885 15.917 2.79688C16.1902 2.91331 16.4567 3.04223 16.7168 3.18164C16.7699 3.21009 16.8225 3.23919 16.875 3.26855C16.9472 3.30897 17.0187 3.35044 17.0898 3.39258C17.1474 3.4267 17.2049 3.46086 17.2617 3.49609C17.3473 3.54915 17.4318 3.60364 17.5156 3.65918C17.5503 3.68213 17.5848 3.70515 17.6191 3.72852C17.7086 3.7894 17.7965 3.85234 17.8838 3.91602C17.9584 3.97044 18.0324 4.02561 18.1055 4.08203C18.177 4.13731 18.2483 4.19285 18.3184 4.25C18.3658 4.28873 18.4123 4.32859 18.459 4.36816C18.5303 4.4286 18.6013 4.48938 18.6709 4.55176C18.7076 4.58468 18.744 4.61792 18.7803 4.65137C18.8524 4.71792 18.9231 4.78587 18.9932 4.85449C19.0351 4.89556 19.0769 4.93672 19.1182 4.97852C19.1861 5.04737 19.2524 5.11768 19.3184 5.18848C19.3509 5.22337 19.384 5.25761 19.416 5.29297C19.5098 5.39663 19.602 5.50183 19.6914 5.60938C19.7323 5.6585 19.7716 5.70888 19.8115 5.75879C19.8629 5.82306 19.914 5.88758 19.9639 5.95312C20.004 6.00593 20.0429 6.05966 20.082 6.11328C20.1335 6.18382 20.1838 6.25522 20.2334 6.32715C20.2672 6.37611 20.301 6.42502 20.334 6.47461C20.3749 6.53619 20.4145 6.5986 20.4541 6.66113C20.4972 6.72919 20.5406 6.79705 20.582 6.86621C20.6474 6.97531 20.7112 7.08552 20.7725 7.19727C20.7928 7.23441 20.8121 7.27214 20.832 7.30957C20.8859 7.41075 20.9379 7.513 20.9883 7.61621C21.0148 7.67049 21.0399 7.72545 21.0654 7.78027C21.102 7.85864 21.1383 7.93715 21.1729 8.0166C21.1971 8.07235 21.2209 8.1283 21.2441 8.18457C21.279 8.2689 21.3121 8.35398 21.3447 8.43945C21.3686 8.50217 21.3933 8.56462 21.416 8.62793C21.4433 8.70411 21.4677 8.78137 21.4932 8.8584C21.82 9.84665 22 10.9022 22 12C22 15.1903 20.5042 18.0293 18.1777 19.8604C18.1577 19.8761 18.1374 19.8916 18.1172 19.9072C17.9014 20.0744 17.6785 20.2324 17.4492 20.3818C17.4017 20.4128 17.3547 20.4444 17.3066 20.4746C17.2365 20.5186 17.166 20.5622 17.0947 20.6045C17.0464 20.6332 16.9971 20.6605 16.9482 20.6885C16.8431 20.7485 16.7364 20.806 16.6289 20.8623C16.5621 20.8973 16.4954 20.9323 16.4277 20.9658C16.3745 20.9922 16.3213 21.0185 16.2676 21.0439C16.158 21.0958 16.0473 21.1454 15.9355 21.1934C15.8905 21.2127 15.8452 21.2313 15.7998 21.25C15.709 21.2874 15.6176 21.3236 15.5254 21.3584C15.4699 21.3793 15.4143 21.4 15.3584 21.4199C15.2637 21.4537 15.1682 21.4856 15.0723 21.5166C15 21.5399 14.9274 21.5623 14.8545 21.584C14.768 21.6097 14.6812 21.6348 14.5938 21.6582C14.5334 21.6744 14.4729 21.69 14.4121 21.7051C14.2854 21.7365 14.1579 21.7664 14.0293 21.793C14.0098 21.797 13.9902 21.8008 13.9707 21.8047C13.8398 21.8309 13.7079 21.854 13.5752 21.875C13.5398 21.8806 13.5043 21.8854 13.4688 21.8906C13.3274 21.9115 13.1852 21.9305 13.042 21.9453C13.0215 21.9474 13.001 21.9492 12.9805 21.9512C12.849 21.964 12.7169 21.9738 12.584 21.9814C12.5382 21.9841 12.4923 21.9863 12.4463 21.9883C12.2983 21.9948 12.1496 22 12 22C6.47715 22 2 17.5228 2 12C2 6.47715 6.47715 2 12 2ZM10 12.5996C8.67452 12.5996 7.59961 13.6745 7.59961 15C7.59961 16.3255 8.67452 17.4004 10 17.4004C11.3255 17.4004 12.4004 16.3255 12.4004 15C12.4004 13.6745 11.3255 12.5996 10 12.5996ZM20 9.125C18.2746 9.56896 17 11.1361 17 13C17 14.5505 17.883 15.8931 19.1729 16.5566C20.0114 15.2393 20.5 13.6773 20.5 12C20.5 10.9908 20.3228 10.0231 20 9.125ZM7.59961 8.5C6.99241 8.50021 6.50021 8.99241 6.5 9.59961C6.5 10.207 6.99228 10.7 7.59961 10.7002C8.20712 10.7002 8.7002 10.2071 8.7002 9.59961C8.69998 8.99228 8.20699 8.5 7.59961 8.5ZM12.5 6C11.6716 6 11 6.67157 11 7.5C11 8.32843 11.6716 9 12.5 9C13.3284 9 14 8.32843 14 7.5C14 6.67157 13.3284 6 12.5 6Z" fill="currentColor"/></g></svg>