<svg width="24px" height="24px" viewBox="0 0 24 24" fill="currentColor" xmlns="http://www.w3.org/2000/svg"><g><path fill-rule="evenodd" clip-rule="evenodd" d="M8 5.25C4.27208 5.25 1.25 8.27208 1.25 12C1.25 15.7279 4.27208 18.75 8 18.75H16C19.7279 18.75 22.75 15.7279 22.75 12C22.75 8.27208 19.7279 5.25 16 5.25H8ZM8 9C8.41421 9 8.75 9.33579 8.75 9.75V11.25H10.25C10.6642 11.25 11 11.5858 11 12C11 12.4142 10.6642 12.75 10.25 12.75H8.75V14.25C8.75 14.6642 8.41421 15 8 15C7.58579 15 7.25 14.6642 7.25 14.25V12.75H5.75C5.33579 12.75 5 12.4142 5 12C5 11.5858 5.33579 11.25 5.75 11.25H7.25V9.75C7.25 9.33579 7.58579 9 8 9ZM18 11.25C17.4477 11.25 17 10.8023 17 10.25C17 9.69772 17.4477 9.25 18 9.25C18.5523 9.25 19 9.69772 19 10.25C19 10.8023 18.5523 11.25 18 11.25ZM15 14.75C14.4477 14.75 14 14.3023 14 13.75C14 13.1977 14.4477 12.75 15 12.75C15.5523 12.75 16 13.1977 16 13.75C16 14.3023 15.5523 14.75 15 14.75Z" fill="currentColor"/></g></svg>