<svg width="24px" height="24px" viewBox="0 0 24 24" fill="currentColor" xmlns="http://www.w3.org/2000/svg"><g><path fill-rule="evenodd" clip-rule="evenodd" d="M8 4.25C8 3.00736 9.00736 2 10.25 2H13.75C14.9926 2 16 3.00736 16 4.25V6.12868C16 6.72542 15.7629 7.29771 15.341 7.71967L13.2374 9.82322C12.554 10.5066 11.446 10.5066 10.7626 9.82322L8.65901 7.71967C8.23705 7.29771 8 6.72542 8 6.12868V4.25ZM10.25 3.5C9.83579 3.5 9.5 3.83579 9.5 4.25V6.12868C9.5 6.32759 9.57902 6.51836 9.71967 6.65901L11.8232 8.76256C11.9209 8.86019 12.0791 8.86019 12.1768 8.76256L14.2803 6.65901C14.421 6.51836 14.5 6.32759 14.5 6.12868V4.25C14.5 3.83579 14.1642 3.5 13.75 3.5H10.25Z" fill="currentColor"/><path d="M22 13.75V10.25C22 9.00736 20.9926 8 19.75 8H17.8713C17.2746 8 16.7023 8.23705 16.2803 8.65901L14.1768 10.7626C13.4934 11.446 13.4934 12.554 14.1768 13.2374L16.2803 15.341C16.7023 15.7629 17.2746 16 17.8713 16H19.75C20.9926 16 22 14.9926 22 13.75Z" fill="currentColor"/><path d="M16 19.75V17.8713C16 17.2746 15.7629 16.7023 15.341 16.2803L13.2374 14.1768C12.554 13.4934 11.446 13.4934 10.7626 14.1768L8.65901 16.2803C8.23705 16.7023 8 17.2746 8 17.8713V19.75C8 20.9926 9.00736 22 10.25 22H13.75C14.9926 22 16 20.9926 16 19.75Z" fill="currentColor"/><path d="M2 13.75C2 14.9926 3.00736 16 4.25 16H6.12868C6.72542 16 7.29771 15.7629 7.71967 15.341L9.82322 13.2374C10.5066 12.554 10.5066 11.446 9.82322 10.7626L7.71967 8.65901C7.29771 8.23705 6.72542 8 6.12868 8H4.25C3.00736 8 2 9.00736 2 10.25V13.75Z" fill="currentColor"/></g></svg>