<svg width="24px" height="24px" viewBox="0 0 24 24" fill="currentColor" xmlns="http://www.w3.org/2000/svg"><g><path fill-rule="evenodd" clip-rule="evenodd" d="M12 2C14.0711 2 15.75 3.67893 15.75 5.75C15.75 7.82107 14.0711 9.5 12 9.5C9.92893 9.5 8.25 7.82107 8.25 5.75C8.25 3.67893 9.92893 2 12 2ZM14.25 5.75C14.25 4.50736 13.2426 3.5 12 3.5C10.7574 3.5 9.75 4.50736 9.75 5.75C9.75 6.99264 10.7574 8 12 8C13.2426 8 14.25 6.99264 14.25 5.75Z" fill="currentColor"/><path d="M5.75 8.25C3.67893 8.25 2 9.92893 2 12C2 14.0711 3.67893 15.75 5.75 15.75C7.82107 15.75 9.5 14.0711 9.5 12C9.5 9.92893 7.82107 8.25 5.75 8.25Z" fill="currentColor"/><path d="M18.25 8.25C16.1789 8.25 14.5 9.92893 14.5 12C14.5 14.0711 16.1789 15.75 18.25 15.75C20.3211 15.75 22 14.0711 22 12C22 9.92893 20.3211 8.25 18.25 8.25Z" fill="currentColor"/><path d="M12 14.5C9.92893 14.5 8.25 16.1789 8.25 18.25C8.25 20.3211 9.92893 22 12 22C14.0711 22 15.75 20.3211 15.75 18.25C15.75 16.1789 14.0711 14.5 12 14.5Z" fill="currentColor"/></g></svg>