<svg width="24px" height="24px" viewBox="0 0 24 24" fill="currentColor" xmlns="http://www.w3.org/2000/svg"><g><path fill-rule="evenodd" clip-rule="evenodd" d="M3 6.75C3 4.67893 4.67893 3 6.75 3H11.25C13.3211 3 15 4.67893 15 6.75V9.0082C16.9545 9.13685 18.5 10.7629 18.5 12.75V15.5C18.5 16.0523 18.9477 16.5 19.5 16.5C20.0523 16.5 20.5 16.0523 20.5 15.5V9.33609C20.5 8.69824 20.2293 8.09037 19.7552 7.66368L18.2483 6.30747C17.9404 6.03038 17.9154 5.55616 18.1925 5.24828C18.4696 4.94039 18.9438 4.91544 19.2517 5.19253L20.7586 6.54873C21.5488 7.25989 22 8.27301 22 9.33609V15.5C22 16.8807 20.8807 18 19.5 18C18.1193 18 17 16.8807 17 15.5V12.75C17 11.5919 16.125 10.6381 15 10.5137V19.5H15.25C15.6642 19.5 16 19.8358 16 20.25C16 20.6642 15.6642 21 15.25 21H2.75C2.33579 21 2 20.6642 2 20.25C2 19.8358 2.33579 19.5 2.75 19.5H3V6.75ZM6 9.75C6 9.33579 6.33579 9 6.75 9H11.25C11.6642 9 12 9.33579 12 9.75C12 10.1642 11.6642 10.5 11.25 10.5H6.75C6.33579 10.5 6 10.1642 6 9.75Z" fill="currentColor"/></g></svg>