<svg width="24px" height="24px" viewBox="0 0 24 24" fill="currentColor" xmlns="http://www.w3.org/2000/svg"><g><path fill-rule="evenodd" clip-rule="evenodd" d="M14 3.75C14 3.33579 14.3358 3 14.75 3H20.25C20.6642 3 21 3.33579 21 3.75V9.25C21 9.66421 20.6642 10 20.25 10C19.8358 10 19.5 9.66421 19.5 9.25V5.56066L14.096 10.9647C14.975 12.0732 15.5 13.4753 15.5 15C15.5 18.5899 12.5899 21.5 9 21.5C5.41015 21.5 2.5 18.5899 2.5 15C2.5 11.4101 5.41015 8.5 9 8.5C10.5247 8.5 11.9268 9.02496 13.0353 9.90399L18.4393 4.5H14.75C14.3358 4.5 14 4.16421 14 3.75ZM9 10C6.23858 10 4 12.2386 4 15C4 17.7614 6.23858 20 9 20C11.7614 20 14 17.7614 14 15C14 12.2386 11.7614 10 9 10Z" fill="currentColor"/></g></svg>