<svg width="24px" height="24px" viewBox="0 0 24 24" fill="currentColor" xmlns="http://www.w3.org/2000/svg"><g><path fill-rule="evenodd" clip-rule="evenodd" d="M11.9999 2C16.4412 2.00004 19.9003 5.63883 19.9872 10.0264C20.0493 13.1593 20.2962 16.2122 21.0038 19.2627C21.3076 20.5728 20.0837 21.8253 18.7314 21.3965L16.6806 20.7461C16.1865 20.5895 15.6536 20.6088 15.1718 20.7998L12.6444 21.8008C12.2303 21.9649 11.7695 21.9649 11.3554 21.8008L8.82804 20.7998C8.34624 20.6088 7.81331 20.5895 7.31925 20.7461L5.26847 21.3965C3.91606 21.8254 2.6922 20.5728 2.99601 19.2627C3.70361 16.2122 3.95052 13.1593 4.01261 10.0264C4.09957 5.6388 7.55856 2 11.9999 2ZM9.70011 7.5C8.98214 7.5 8.39933 8.39543 8.39933 9.5C8.39933 10.6046 8.98214 11.5 9.70011 11.5C10.4179 11.4997 10.9999 10.6044 10.9999 9.5C10.9999 8.39562 10.4179 7.50031 9.70011 7.5ZM14.2997 7.5C13.5818 7.50009 12.9999 8.39549 12.9999 9.5C12.9999 10.6045 13.5818 11.4999 14.2997 11.5C15.0177 11.5 15.5995 10.6046 15.5995 9.5C15.5995 8.39543 15.0177 7.5 14.2997 7.5Z" fill="currentColor"/></g></svg>