<svg width="24px" height="24px" viewBox="0 0 24 24" fill="currentColor" xmlns="http://www.w3.org/2000/svg"><g><path fill-rule="evenodd" clip-rule="evenodd" d="M3 6.75C3 4.67893 4.67893 3 6.75 3H17.25C19.3211 3 21 4.67893 21 6.75V17.25C21 19.3211 19.3211 21 17.25 21H6.75C4.67893 21 3 19.3211 3 17.25V6.75ZM5.75 12.3676C5.75 14.0113 6.70955 15 8.34036 15C9.79045 15 10.7672 14.138 10.7672 12.8662V12.5155C10.7672 11.9789 10.5176 11.738 9.94966 11.738H8.89544C8.51678 11.738 8.31454 11.9113 8.31454 12.2282C8.31454 12.5493 8.52108 12.7268 8.89544 12.7268H9.4247V12.9718C9.4247 13.5 9.01162 13.8549 8.3963 13.8549C7.60456 13.8549 7.16997 13.3268 7.16997 12.3634V11.6662C7.16997 10.6901 7.59596 10.1789 8.40921 10.1789C8.95193 10.1789 9.27253 10.4939 9.61231 10.8279L9.63554 10.8507C9.76033 10.9732 9.88941 11.0282 10.0572 11.0282C10.3972 11.0282 10.6338 10.8 10.6338 10.4662C10.6338 10.1324 10.3799 9.76901 9.99268 9.49437C9.56239 9.17746 8.97289 9 8.30594 9C6.72246 9 5.75 10.0014 5.75 11.5986V12.3676ZM12.3894 14.9155C12.8412 14.9155 13.0951 14.6451 13.0951 14.1634V9.81549C13.0951 9.33803 12.8369 9.06338 12.3808 9.06338C11.9247 9.06338 11.6708 9.3338 11.6708 9.81549V14.1634C11.6708 14.6408 11.9333 14.9155 12.3894 14.9155ZM15.6596 14.1634C15.6596 14.6451 15.4101 14.9155 14.9626 14.9155C14.5022 14.9155 14.2354 14.6366 14.2354 14.1634V9.90423C14.2354 9.38873 14.5237 9.10563 15.0572 9.10563H17.6863C18.0133 9.10563 18.25 9.34225 18.25 9.67183C18.25 9.99718 18.0133 10.2254 17.6863 10.2254H15.6596V11.6113H17.4669C17.8068 11.6113 18.0306 11.831 18.0306 12.1563C18.0306 12.4817 17.8025 12.7014 17.4669 12.7014H15.6596V14.1634Z" fill="currentColor"/></g></svg>