<svg width="24px" height="24px" viewBox="0 0 24 24" fill="currentColor" xmlns="http://www.w3.org/2000/svg"><g><path d="M11.25 3H6.75C4.67893 3 3 4.67893 3 6.75V11.25H7.66752C7.24731 10.6629 7 9.94368 7 9.16667C7 7.97005 7.97005 7 9.16667 7C9.94368 7 10.6629 7.24731 11.25 7.66752V3Z" fill="currentColor"/><path d="M3 12.75V17.25C3 19.3211 4.67893 21 6.75 21H11.25V14.2063C10.4271 15.1268 9.4956 15.9274 8.4067 16.6302C8.05868 16.8548 7.59446 16.7547 7.36985 16.4067C7.14523 16.0587 7.24527 15.5945 7.5933 15.3698C8.73769 14.6313 9.68765 13.7735 10.5213 12.75H3Z" fill="currentColor"/><path d="M12.75 21H17.25C19.3211 21 21 19.3211 21 17.25V12.75H13.4787C14.3124 13.7735 15.2623 14.6313 16.4067 15.3698C16.7547 15.5945 16.8548 16.0587 16.6302 16.4067C16.4055 16.7547 15.9413 16.8548 15.5933 16.6302C14.5044 15.9274 13.5729 15.1268 12.75 14.2063V21Z" fill="currentColor"/><path d="M21 11.25V6.75C21 4.67893 19.3211 3 17.25 3H12.75V7.66752C13.3371 7.24731 14.0563 7 14.8333 7C16.0299 7 17 7.97005 17 9.16667C17 9.94368 16.7527 10.6629 16.3325 11.25H21Z" fill="currentColor"/><path d="M9.16667 8.5C10.3173 8.5 11.25 9.43274 11.25 10.5833V11.25H10.5833C9.43274 11.25 8.5 10.3173 8.5 9.16667C8.5 8.79848 8.79848 8.5 9.16667 8.5Z" fill="currentColor"/><path d="M12.75 10.5833V11.25H13.4167C14.5673 11.25 15.5 10.3173 15.5 9.16667C15.5 8.79848 15.2015 8.5 14.8333 8.5C13.6827 8.5 12.75 9.43274 12.75 10.5833Z" fill="currentColor"/></g></svg>