<svg width="24px" height="24px" viewBox="0 0 24 24" fill="currentColor" xmlns="http://www.w3.org/2000/svg"><g><path d="M13.25 4H5.75C3.67893 4 2 5.67893 2 7.75V11.25H12.1893L10.7197 9.78033C10.4268 9.48744 10.4268 9.01256 10.7197 8.71967C11.0126 8.42678 11.4874 8.42678 11.7803 8.71967L13.25 10.1893V4Z" fill="currentColor"/><path d="M2 12.75V16.25C2 18.3211 3.67893 20 5.75 20H13.25V13.8107L11.7803 15.2803C11.4874 15.5732 11.0126 15.5732 10.7197 15.2803C10.4268 14.9874 10.4268 14.5126 10.7197 14.2197L12.1893 12.75H2Z" fill="currentColor"/><path d="M14.75 20H18.25C20.3211 20 22 18.3211 22 16.25V12.75H15.8107L17.2803 14.2197C17.5732 14.5126 17.5732 14.9874 17.2803 15.2803C16.9874 15.5732 16.5126 15.5732 16.2197 15.2803L14.75 13.8107V20Z" fill="currentColor"/><path d="M22 11.25V7.75C22 5.67893 20.3211 4 18.25 4H14.75V10.1893L16.2197 8.71967C16.5126 8.42678 16.9874 8.42678 17.2803 8.71967C17.5732 9.01256 17.5732 9.48744 17.2803 9.78033L15.8107 11.25H22Z" fill="currentColor"/></g></svg>