<svg width="24px" height="24px" viewBox="0 0 24 24" fill="currentColor" xmlns="http://www.w3.org/2000/svg"><g><path fill-rule="evenodd" clip-rule="evenodd" d="M2 7.75C2 5.67893 3.67893 4 5.75 4H14.25C16.3211 4 18 5.67893 18 7.75V8H18.25C20.3211 8 22 9.67893 22 11.75V16.25C22 18.3211 20.3211 20 18.25 20H9.75C7.67893 20 6 18.3211 6 16.25V16H5.75C3.67893 16 2 14.3211 2 12.25V7.75ZM7.5 16V16.25C7.5 17.4926 8.50736 18.5 9.75 18.5H18.25C19.4926 18.5 20.5 17.4926 20.5 16.25V11.75C20.5 10.5074 19.4926 9.5 18.25 9.5H18V12.25C18 14.3211 16.3211 16 14.25 16H7.5ZM6 8.75C6 8.33579 6.33579 8 6.75 8H8.25C8.66421 8 9 8.33579 9 8.75C9 9.16421 8.66421 9.5 8.25 9.5H6.75C6.33579 9.5 6 9.16421 6 8.75Z" fill="currentColor"/></g></svg>