<svg width="24px" height="24px" viewBox="0 0 24 24" fill="currentColor" xmlns="http://www.w3.org/2000/svg"><g><path fill-rule="evenodd" clip-rule="evenodd" d="M19.2539 3C19.4691 3 19.674 3.09255 19.8164 3.25391C19.9587 3.41526 20.0248 3.63029 19.998 3.84375L18.2558 17.7168C18.0204 19.5925 16.4256 21 14.5351 21H9.47264C7.58219 21 5.98742 19.5925 5.75194 17.7168L4.00975 3.84375C3.98295 3.63028 4.04909 3.41526 4.19139 3.25391C4.33377 3.09255 4.5387 3 4.75389 3H19.2539ZM6.10741 8.5127C8.21073 7.96341 10.2786 8.39116 12.1474 8.76465C14.2068 9.17622 16.0404 9.52562 17.8457 8.93945L18.4043 4.5H5.6035L6.10741 8.5127Z" fill="currentColor"/></g></svg>