<svg width="24px" height="24px" viewBox="0 0 24 24" fill="currentColor" xmlns="http://www.w3.org/2000/svg"><g><path d="M2.02734 11.2499H7.01106C7.08879 8.70549 7.55954 6.38765 8.30419 4.63553C8.7122 3.67552 9.21724 2.85039 9.8163 2.2542C9.82288 2.24765 9.82947 2.24112 9.83609 2.23462C5.58995 3.17115 2.35681 6.80647 2.02734 11.2499Z" fill="currentColor"/><path d="M2.02734 12.7499C2.35681 17.1934 5.58994 20.8288 9.83609 21.7653C9.82947 21.7588 9.82288 21.7522 9.8163 21.7457C9.21724 21.1495 8.7122 20.3244 8.30419 19.3644C7.55954 17.6122 7.08879 15.2944 7.01106 12.7499H2.02734Z" fill="currentColor"/><path d="M14.1632 21.7653C18.4093 20.8287 21.6425 17.1934 21.9719 12.7499H16.9882C16.9105 15.2944 16.4397 17.6122 15.6951 19.3644C15.2871 20.3244 14.7821 21.1495 14.183 21.7457C14.1764 21.7522 14.1698 21.7588 14.1632 21.7653Z" fill="currentColor"/><path d="M21.9719 11.2499C21.6425 6.80648 18.4093 3.17115 14.1632 2.23462C14.1698 2.24112 14.1764 2.24765 14.183 2.2542C14.7821 2.85039 15.2871 3.67552 15.6951 4.63553C16.4397 6.38765 16.9105 8.70549 16.9882 11.2499H21.9719Z" fill="currentColor"/><path d="M13.1249 3.3174C12.7101 2.90457 12.3306 2.74995 11.9996 2.74995C11.6687 2.74995 11.2892 2.90457 10.8744 3.3174C10.4565 3.73326 10.0458 4.3726 9.68469 5.22224C9.03155 6.75905 8.58925 8.8698 8.5118 11.2499H15.4875C15.41 8.8698 14.9677 6.75905 14.3146 5.22224C13.9535 4.3726 13.5427 3.73326 13.1249 3.3174Z" fill="currentColor"/><path d="M14.3146 18.7777C14.9677 17.2409 15.41 15.1301 15.4875 12.7499L8.5118 12.7499C8.58925 15.1301 9.03154 17.2409 9.68469 18.7777C10.0458 19.6273 10.4565 20.2666 10.8744 20.6825C11.2892 21.0953 11.6687 21.2499 11.9996 21.2499C12.3306 21.2499 12.7101 21.0953 13.1249 20.6825C13.5427 20.2666 13.9535 19.6273 14.3146 18.7777Z" fill="currentColor"/></g></svg>