<svg width="24px" height="24px" viewBox="0 0 24 24" fill="currentColor" xmlns="http://www.w3.org/2000/svg"><g><path d="M12.1369 2C14.8367 2.00011 17.0911 2.99128 18.8273 4.60938L15.9641 7.47266C14.9187 6.49094 13.6095 5.98155 12.1369 5.98145C9.5402 5.98145 7.33274 7.73178 6.53921 10.0908V10.0996C5.29869 13.8213 8.01593 18.0273 12.1369 18.0273C14.6114 18.0273 17.0288 16.6458 17.5207 14.0547H12.1389V10.1816H21.5568C21.675 10.8362 21.7385 11.5184 21.7385 12.2275C21.7384 15.2729 20.6479 17.8366 18.757 19.582H18.7551L18.4377 19.8604C16.8159 21.2168 14.6682 21.9999 12.1369 22C8.22787 22 4.85463 19.7547 3.20913 16.4912V16.4766C1.79482 13.6817 1.7946 10.3141 3.2101 7.51953L3.20913 7.51855C4.85458 4.24582 8.22777 2 12.1369 2Z" fill="currentColor"/></g></svg>