<svg width="24px" height="24px" viewBox="0 0 24 24" fill="currentColor" xmlns="http://www.w3.org/2000/svg"><g><path d="M13.7338 11.8499C14.8414 11.2405 16.059 11.0389 17.3043 11.3432C18.2563 11.5781 19.1166 12.0916 19.7752 12.818C19.855 12.9058 20.1171 13.2046 20.1583 13.308C20.2671 13.4405 20.407 13.6875 20.4846 13.841C20.918 14.6986 21.0651 15.5935 20.9732 16.546C20.8401 17.8076 20.2107 18.9646 19.2236 19.7618C18.4633 20.3844 17.6463 20.698 16.6802 20.8188C16.3329 20.8551 15.4959 20.863 15.1365 20.8448C14.7092 20.8611 14.1612 20.849 13.7295 20.844C13.2636 20.866 12.6404 20.8458 12.1625 20.8453L6.46973 20.8468C5.82545 20.8469 4.90862 20.9133 4.31998 20.6876C3.24873 20.277 2.72977 18.9429 3.14709 17.8843C3.28931 17.527 3.52881 17.2164 3.83847 16.9881C4.11621 16.782 4.70581 16.5023 5.03711 16.3324L9.89793 13.8288C10.1494 13.6996 10.4016 13.5717 10.6529 13.4423C10.8796 13.3255 11.1067 13.1926 11.3407 13.091C11.5227 12.9768 11.9138 12.7874 12.1177 12.6833C12.4701 12.5035 12.8623 12.2867 13.2166 12.1225C13.3851 12.0202 13.5641 11.9432 13.7338 11.8499Z" fill="currentColor"/><path d="M7.34723 3.17415C7.84355 3.13543 8.34806 3.14436 8.84629 3.14633C9.50142 3.14895 10.1609 3.13899 10.8155 3.14979L18.0463 3.14753C18.419 3.14757 18.9413 3.1328 19.2994 3.19996C19.6994 3.27317 20.0673 3.4669 20.354 3.7552C20.77 4.17482 21.003 4.74228 21.0017 5.33325C21.0073 5.88752 20.788 6.42039 20.394 6.8102C20.2693 6.93564 20.1289 7.04454 19.9765 7.13423C19.6317 7.33661 19.1721 7.55518 18.8083 7.74347L16.3076 9.02946L14.8681 9.7729C14.7676 9.82463 14.3305 10.0577 14.2538 10.0835C13.896 10.2746 13.5365 10.4626 13.1755 10.6474C13.1016 10.6856 12.7553 10.8695 12.6907 10.8877C12.4219 11.0603 11.7607 11.3777 11.444 11.5393C10.4488 12.0468 9.25794 12.7956 8.10323 12.7759C8.02004 12.791 7.87909 12.7919 7.79107 12.791C6.50351 12.7738 5.27484 12.2488 4.37254 11.3301C3.46906 10.4153 2.97434 9.17369 3.00103 7.88822C3.02281 6.59456 3.56418 5.36408 4.50322 4.47402C5.24199 3.76023 6.32567 3.26514 7.34723 3.17415Z" fill="currentColor"/></g></svg>