<svg width="24px" height="24px" viewBox="0 0 24 24" fill="currentColor" xmlns="http://www.w3.org/2000/svg"><g><path fill-rule="evenodd" clip-rule="evenodd" d="M19.5953 21.1906C20.5192 20.9895 21.4992 20.4432 21.4992 20.4432L19.7837 19.031C18.936 18.3329 18.2144 17.4945 17.6503 16.5524C16.8707 15.2505 15.7937 14.1521 14.5075 13.347L13.8789 12.9813C13.771 12.9088 13.6804 12.8134 13.6136 12.7019C13.5468 12.5904 13.5055 12.4654 13.4926 12.3361C13.4766 12.1746 13.5199 12.0128 13.6145 11.8809C13.9414 11.4202 15.6316 9.41495 15.9419 9.15767C16.3401 8.82835 16.785 8.55444 17.1975 8.24016C17.256 8.19583 17.3146 8.1515 17.3724 8.10558C17.3748 8.104 17.3779 8.10242 17.3795 8.10004C17.5117 7.99634 17.6368 7.88472 17.7358 7.7533C18.0944 7.33849 18.1815 6.97117 18.2028 6.80888C18.1545 6.65293 18.0097 6.30303 17.6067 5.90008C17.8593 5.91591 18.1648 6.11541 18.4427 6.35052C18.6287 6.05287 18.8235 5.73859 19.0182 5.42352C19.1488 5.21294 18.9549 5.0554 18.9501 5.05065H18.9493V5.04907C18.9438 5.04353 18.7863 4.85116 18.5765 4.98099C18.1276 5.25806 17.6788 5.53672 17.279 5.78925C17.279 5.78925 16.8064 5.77975 16.2459 6.26344C16.1156 6.36691 15.9991 6.48663 15.8992 6.61968L15.8936 6.6268C15.8477 6.6838 15.8034 6.74318 15.759 6.80176C15.4448 7.2142 15.1709 7.6591 14.8407 8.05808C14.585 8.36761 12.579 10.0578 12.1175 10.3855C11.9858 10.4797 11.8243 10.5228 11.6631 10.5066C11.5338 10.4937 11.4089 10.4524 11.2973 10.3856C11.1858 10.3188 11.0904 10.2282 11.0179 10.1203L10.6522 9.49174C9.84723 8.20547 8.74873 7.12841 7.44686 6.34894C6.50505 5.78463 5.66697 5.06302 4.96903 4.21548L3.55438 2.5C3.55438 2.5 3.00894 3.48005 2.80865 4.40389C3.08731 4.74271 3.81403 5.58343 4.66109 6.22624C3.7507 5.79875 3.07781 5.46864 2.54741 5.19157C2.46588 5.79717 2.49754 6.71151 2.58145 7.42082C3.15618 7.67177 4.13386 8.05888 5.12973 8.2647C4.33335 8.45153 3.45938 8.48478 2.7857 8.47211C2.90444 8.91068 3.0691 9.35795 3.29234 9.80839C3.38655 10.0166 3.49025 10.22 3.60108 10.418C3.9589 10.5169 5.3601 10.7212 6.10582 10.5533L4.11881 11.2634C4.74103 12.0271 5.41385 12.748 6.13274 13.4214C7.74055 12.557 8.10708 12.439 9.31354 11.6497C7.36057 13.2393 6.85313 13.8885 6.30532 14.555L5.92296 15.0918C5.72505 15.3696 5.55168 15.6657 5.40839 15.976C4.92549 17.0131 4.24468 19.2218 4.24468 19.2218C4.12277 19.6065 4.40459 19.8883 4.77825 19.7553C4.77825 19.7553 6.98692 19.0737 8.02396 18.5916C8.33428 18.4475 8.63035 18.275 8.90901 18.077L9.44495 17.6947C9.62465 17.5466 9.80356 17.4018 9.99989 17.2308C9.99989 17.2308 11.3496 18.8299 12.7374 19.882L13.4467 17.8942C13.2796 18.6399 13.4831 20.0411 13.5813 20.3981C13.7807 20.5105 13.9842 20.6134 14.1924 20.7084C14.6428 20.9301 15.0901 21.0963 15.5287 21.2151C15.516 20.5398 15.5493 19.6667 15.7353 18.8703C15.9411 19.8661 16.329 20.8438 16.58 21.4185C17.2885 21.5025 18.2036 21.5341 18.8092 21.4526C18.4499 20.755 18.1047 20.0503 17.7738 19.3389C18.4158 20.186 19.2573 20.9127 19.5961 21.1913L19.5953 21.1906Z" fill="currentColor"/></g></svg>