<svg width="24px" height="24px" viewBox="0 0 24 24" fill="currentColor" xmlns="http://www.w3.org/2000/svg"><g><path d="M12.0039 7.84948C13.2465 7.84948 14.2538 8.36479 14.2539 8.99987C14.2539 9.11562 14.2185 9.22652 14.1563 9.3319L17.5488 11.202C19.0635 12.0377 20.0038 13.6313 20.0039 15.3612V17.6346C20.3025 17.8076 20.5039 18.1299 20.5039 18.4999V20.9999C20.5038 21.5521 20.0561 21.9999 19.5039 21.9999H19.0039C18.4517 21.9999 18.004 21.5521 18.0039 20.9999V18.4999C18.0039 18.1299 18.2053 17.8076 18.5039 17.6346V15.3612C18.5038 14.1776 17.8605 13.0873 16.8242 12.5155L12.4873 10.1219C12.3316 10.1394 12.1699 10.1503 12.0039 10.1503C10.7614 10.1503 9.75406 9.63493 9.75391 8.99987C9.75401 8.36479 10.7613 7.84948 12.0039 7.84948Z" fill="currentColor"/><path d="M11.2217 15.8163C11.7172 16.0473 12.2906 16.0473 12.7861 15.8163L16.9424 13.8749C17.2984 14.2793 17.5039 14.8051 17.5039 15.3612V17.1776C17.1937 17.5289 17.0039 17.9914 17.0039 18.4999V19.6005C15.6282 20.1693 13.8811 20.4998 12.0039 20.4999C9.9148 20.4998 7.98583 20.0924 6.55176 19.4003C5.17043 18.7333 4.00406 17.6671 4.00391 16.2499V12.4471L11.2217 15.8163Z" fill="currentColor"/><path d="M11.7314 3.05553C11.908 2.99581 12.0998 2.99582 12.2764 3.05553L12.3633 3.08971L23.377 8.22936C24.0306 8.53476 24.0306 9.46511 23.377 9.77038L19.5596 11.5506C19.1306 11.0656 18.6172 10.6488 18.0322 10.326L15.2383 8.786C15.1398 8.02246 14.528 7.54033 14.0498 7.29577C13.4747 7.00178 12.7498 6.84948 12.0039 6.84948C11.258 6.84948 10.5331 7.00178 9.95801 7.29577C9.46923 7.54573 8.83882 8.04359 8.76172 8.83678L8.75391 8.99987C8.75399 9.8885 9.43659 10.4373 9.95801 10.704C10.5331 10.9979 11.258 11.1503 12.0039 11.1503C12.0928 11.1503 12.1797 11.1459 12.2647 11.1415L16.0088 13.2079L12.3633 14.91C12.1357 15.016 11.8721 15.016 11.6445 14.91L0.630862 9.77038C-0.0228038 9.46505 -0.0227706 8.5347 0.630862 8.22936L11.6445 3.08971L11.7314 3.05553Z" fill="currentColor"/></g></svg>