<svg width="24px" height="24px" viewBox="0 0 24 24" fill="currentColor" xmlns="http://www.w3.org/2000/svg"><g><path d="M19.5895 18.931C19.1575 19.4158 18.7873 19.7094 18.5833 19.8497C18.4874 19.9135 18.4274 20.0027 18.3434 20.0792C17.8994 20.4619 17.4182 20.5758 17.0822 20.8437C16.6262 21.2009 14.9227 21.6256 14.4386 21.7746C13.6195 21.9607 12.698 22.0279 11.69 21.9897C11.4718 21.9897 11.2701 21.9896 11.0848 21.9752C11.0095 21.9693 10.934 21.9887 10.8585 21.9896C10.8555 21.9897 10.8527 21.9897 10.85 21.9897C10.842 21.9897 10.8287 21.9839 10.8099 21.9725C10.7887 21.9596 10.7647 21.9513 10.7398 21.9513C10.7333 21.9513 10.7267 21.9507 10.7203 21.9499C10.6187 21.936 10.5646 21.9716 10.5256 21.9914C10.496 22.0064 10.4638 21.9938 10.4357 21.9761C10.3471 21.9198 10.1494 21.7933 10.0821 21.7729C10.0158 21.7527 10.0093 21.7802 9.97401 21.7864C9.95039 21.7906 9.92582 21.7823 9.90806 21.7662C9.88818 21.7482 9.86691 21.7222 9.81809 21.6962C9.72831 21.6485 9.6805 21.7569 9.5471 21.6356C9.52772 21.6179 9.51634 21.5833 9.49019 21.5816C9.48364 21.5812 9.4789 21.5808 9.47245 21.5796C9.33815 21.5535 9.09411 21.5036 8.93011 21.4538C8.73811 21.4027 8.79795 21.3646 8.71394 21.3263C7.58596 20.9053 5.97808 20.076 5.39008 19.4892C5.17409 19.2723 4.92212 18.7748 4.76611 18.6472C4.6461 18.5451 4.40606 18.341 4.34605 18.239C4.29806 18.1497 4.34596 17.9839 4.262 17.8691C4.154 17.7287 3.93795 17.6521 3.73396 17.3332C3.50597 16.976 3.37398 16.504 3.146 16.0192C2.95399 15.5982 2.41407 14.2204 2.41406 11.7072C2.41406 10.0232 3.19406 7.68854 3.53006 7.36962C3.74599 7.16548 3.72197 6.71905 3.87793 6.50218C5.65816 4.02725 8.77401 2.20645 12.482 2.01509C12.6327 2.00735 12.7835 2.00253 12.9343 2.00077C13.8491 1.99009 14.766 2.09016 15.6551 2.30699C16.5433 2.52363 17.3925 2.86169 18.2203 3.24601C18.2203 3.24601 18.3186 3.2538 18.3445 3.26652C18.3877 3.28775 18.4059 3.32642 18.4491 3.34768C18.4922 3.36891 18.5547 3.3509 18.6018 3.36055C18.7573 3.39239 18.7852 3.48472 18.8139 3.5215C18.8487 3.56617 18.8905 3.58324 18.9696 3.60594C19.1758 3.66513 19.2029 3.73329 19.231 3.76468C19.2534 3.78977 19.2631 3.8223 19.2743 3.85146C19.2857 3.8811 19.3082 3.90816 19.3399 3.91558C19.4082 3.93159 19.5011 4.01525 19.5204 4.12936C19.5329 4.20376 19.6133 4.23582 19.5914 4.37538C19.5842 4.42058 19.6324 4.48741 19.3794 4.73678C19.1265 4.98616 18.5957 5.14335 18.2726 5.01948C17.1556 4.5913 16.99 4.50889 16.5413 4.38651C15.7221 4.16311 15.0242 4.01132 14.1741 4.02732C12.8181 4.05284 11.75 4.18042 10.466 4.62693C9.90314 4.82637 8.84057 5.36909 8.30738 5.7917C7.7742 6.21431 7.00227 6.79803 6.68368 7.33837C6.57212 7.52758 6.44656 7.7083 6.18258 8.00171C5.79859 8.42268 5.35413 9.64041 5.2101 10.2273C5.17409 10.3548 5.26994 10.4952 5.22197 10.6228C5.17396 10.7631 4.94595 10.827 4.92195 10.9418C4.82597 11.3501 4.84997 11.8731 4.84997 12.3195C4.84997 12.5619 4.92201 12.8935 5.00601 13.0849C5.06599 13.2125 5.25809 13.3018 5.28209 13.4294C5.29407 13.5187 5.17422 13.6207 5.17412 13.6972C5.17412 13.761 5.282 14.6287 5.34201 14.7563C5.42605 14.9093 5.69007 15.1007 5.76207 15.2792C5.81005 15.4068 5.67793 15.5345 5.77393 15.662C5.83392 15.7386 6.02608 15.7385 6.09808 15.8405C6.19406 15.9681 6.39799 16.3379 6.49401 16.4528C6.56601 16.5421 6.69803 16.5806 6.75802 16.6188C6.93797 16.7464 6.78211 16.8611 6.95006 17.0524C7.47805 17.652 8.29409 18.3921 9.0741 18.7238C9.19443 18.7749 10.4292 19.2464 10.502 19.2468C12.2419 19.5033 14.1987 19.4793 15.8907 18.5353C16.2868 18.3183 18.5301 16.7591 18.9022 14.9093C18.9861 14.5394 19.0941 13.6462 19.0461 13.289C18.8541 11.9623 18.0366 10.0539 16.538 9.34714C15.7397 8.97065 15.134 8.97713 14.978 9.00265C14.5221 9.09193 14.3661 8.82402 13.9461 8.86227C12.6621 8.96434 11.4021 9.3216 10.4181 10.3549C9.51812 11.3117 9.33795 12.5364 9.79396 13.3147C9.84196 13.4167 9.81796 13.5443 9.72196 13.6081C9.67999 13.6336 9.641 13.6655 9.62301 13.699C9.58721 13.7656 9.69071 13.8012 9.76207 13.8261C10.2612 14.0008 10.4412 14.843 11.102 14.8073H11.246C11.246 14.8073 11.522 14.8072 11.63 14.6796C11.7188 14.5748 11.7184 14.4527 11.6555 14.3984C11.6274 14.3742 11.592 14.3597 11.5837 14.3236C11.5747 14.2837 11.5701 14.2313 11.5701 14.2077C11.5701 14.1822 11.6061 14.1693 11.6061 14.1438C11.606 14.0673 11.5221 14.0035 11.5341 13.927C11.5418 13.8862 11.5984 13.8299 11.6383 13.7878C11.6686 13.7559 11.669 13.7151 11.6492 13.6758C11.6485 13.6744 11.6477 13.673 11.647 13.6715C11.6278 13.632 11.6242 13.5852 11.6373 13.5433C11.6448 13.5192 11.6539 13.4934 11.654 13.4677C11.666 13.3529 11.6181 13.3019 11.6061 13.2126C11.6061 13.1811 11.777 13.1062 11.8373 13.0594C11.8551 13.0456 11.857 13.0225 11.8511 13.0008C11.8386 12.9545 11.8221 12.9401 11.8221 12.8554C11.8221 12.835 11.8393 12.8065 11.86 12.7796C11.9016 12.7254 11.94 12.6677 11.9588 12.6019L11.992 12.4862C12.0058 12.4378 12.0426 12.3993 12.0903 12.3833C12.173 12.3555 12.1347 12.2207 12.2134 12.1831C12.2364 12.1722 12.2939 12.1861 12.3861 12.1665C12.578 12.1282 12.4461 12.0644 12.482 11.9624C12.4988 11.8999 12.5508 11.9061 12.6011 11.9111C12.6414 11.9151 12.6807 11.9019 12.7097 11.8736C12.7383 11.8457 12.7671 11.8131 12.8059 11.7966C12.8546 11.7759 12.9822 11.7719 13.0735 11.7711C13.1111 11.7708 13.1484 11.7654 13.1857 11.761C13.2876 11.749 13.4323 11.7562 13.5021 11.7456C13.5861 11.7328 13.634 11.6562 13.706 11.6562C13.766 11.6562 13.8501 11.7583 13.9101 11.7583C13.9701 11.7582 14.0301 11.7072 14.0901 11.7072C14.1261 11.7072 14.1381 11.7709 14.198 11.771H14.222C14.222 11.771 14.774 11.7837 15.35 12.1408C15.746 12.3832 16.0341 12.9702 16.0341 12.9702C16.3101 13.4422 16.0039 13.9274 16.0039 14.3612C16.0039 14.5398 16.0638 14.6929 16.0279 14.8587C16.0038 14.9863 15.9078 15.0884 15.8718 15.1905C15.8359 15.2798 15.8359 15.3946 15.716 15.5604C15.62 15.7007 15.5719 15.7007 15.5479 15.7262C15.5119 15.7644 15.2011 16.2343 14.9971 16.4129C14.4571 16.8977 13.958 17.0397 13.226 17.0524C12.902 17.0652 12.866 17.1291 12.818 17.1291C12.65 17.1418 11.8822 17.1036 11.6421 17.0654C11.6421 17.0654 10.5742 16.8613 10.1541 16.6572C9.9261 16.5551 8.42599 15.4451 8.08999 14.82C7.04598 12.8554 7.28607 10.7631 8.36607 9.35984C9.14608 8.33924 10.43 7.01248 13.478 6.75729C15.026 6.62973 16.4061 6.83391 17.4861 7.34421C19.0101 8.05863 20.1261 9.32157 20.8221 10.8142C22.0101 13.3656 21.9415 16.252 19.5895 18.931Z" fill="currentColor"/></g></svg>