<svg width="24px" height="24px" viewBox="0 0 24 24" fill="currentColor" xmlns="http://www.w3.org/2000/svg"><g><path fill-rule="evenodd" clip-rule="evenodd" d="M22 18.5001C22.4142 18.5001 22.75 18.8359 22.75 19.2501C22.7499 19.6643 22.4142 20.0001 22 20.0001H2C1.58584 20.0001 1.25008 19.6643 1.25 19.2501C1.25 18.8359 1.58579 18.5001 2 18.5001H4C3.96476 15.7434 3.57066 12.4111 2.49707 9.63977C2.33433 9.21968 2.74278 8.78481 3.15039 8.97668C7.34922 10.9533 8.5 14.356 8.5 18.5001H9.5C9.46264 14.1932 8.6325 9.26066 6.51172 4.97473C6.32127 4.58985 6.65774 4.1508 7.06836 4.27649C13.1549 6.13978 14.5 11.8716 14.5 18.5001H15.5C15.5 14.356 16.6508 10.9533 20.8496 8.97668C21.2572 8.78481 21.6657 9.21968 21.5029 9.63977C20.4293 12.4111 20.0352 15.7434 20 18.5001H22ZM17.8086 3.3136C18.2365 3.1786 18.5742 3.65716 18.3506 4.04602C16.8547 6.64419 16.1338 9.34651 15.792 12.0421C15.5522 12.4671 15.3535 12.9093 15.1885 13.3663C14.931 11.6685 14.4888 10.0592 13.7676 8.6261C13.4765 8.04774 13.141 7.50143 12.7588 6.99133C13.8724 5.33013 15.49 4.04526 17.8086 3.3136Z" fill="currentColor"/></g></svg>