<svg width="24px" height="24px" viewBox="0 0 24 24" fill="currentColor" xmlns="http://www.w3.org/2000/svg"><g><path fill-rule="evenodd" clip-rule="evenodd" d="M15.5 3C15.9142 3 16.25 3.33579 16.25 3.75V7.75H20.25C20.6642 7.75 21 8.08579 21 8.5C21 8.91421 20.6642 9.25 20.25 9.25H16.25V14.75H20.25C20.6642 14.75 21 15.0858 21 15.5C21 15.9142 20.6642 16.25 20.25 16.25H16.25V20.25C16.25 20.6642 15.9142 21 15.5 21C15.0858 21 14.75 20.6642 14.75 20.25V16.25H9.25V20.25C9.25 20.6642 8.91421 21 8.5 21C8.08579 21 7.75 20.6642 7.75 20.25V16.25H3.75C3.33579 16.25 3 15.9142 3 15.5C3 15.0858 3.33579 14.75 3.75 14.75H7.75V9.25H3.75C3.33579 9.25 3 8.91421 3 8.5C3 8.08579 3.33579 7.75 3.75 7.75H7.75V3.75C7.75 3.33579 8.08579 3 8.5 3C8.91421 3 9.25 3.33579 9.25 3.75V7.75H14.75V3.75C14.75 3.33579 15.0858 3 15.5 3ZM9.25 14.75H14.75V9.25H9.25V14.75Z" fill="currentColor"/></g></svg>