<svg width="24px" height="24px" viewBox="0 0 24 24" fill="currentColor" xmlns="http://www.w3.org/2000/svg"><g><path d="M8 21H6.75C4.67893 21 3 19.3211 3 17.25V16H8V21Z" fill="currentColor"/><path d="M14.5 21H9.5V16H14.5V21Z" fill="currentColor"/><path d="M21 17.25C21 19.3211 19.3211 21 17.25 21H16V16H21V17.25Z" fill="currentColor"/><path d="M8 14.5H3V9.5H8V14.5Z" fill="currentColor"/><path d="M14.5 14.5H9.5V9.5H14.5V14.5Z" fill="currentColor"/><path d="M21 14.5H16V9.5H21V14.5Z" fill="currentColor"/><path d="M8 8H3V6.75C3 4.67893 4.67893 3 6.75 3H8V8Z" fill="currentColor"/><path d="M14.5 8H9.5V3H14.5V8Z" fill="currentColor"/><path d="M17.25 3C19.3211 3 21 4.67893 21 6.75V8H16V3H17.25Z" fill="currentColor"/></g></svg>