<svg width="24px" height="24px" viewBox="0 0 24 24" fill="currentColor" xmlns="http://www.w3.org/2000/svg"><g><path d="M4.00146 7C4.00146 4.79086 5.79233 3 8.00146 3C10.2106 3 12.0015 4.79086 12.0015 7C12.0015 9.20914 10.2106 11 8.00146 11C5.79233 11 4.00146 9.20914 4.00146 7Z" fill="currentColor"/><path d="M13.5015 7.5C13.5015 5.567 15.0685 4 17.0015 4C18.9345 4 20.5015 5.567 20.5015 7.5C20.5015 9.433 18.9345 11 17.0015 11C15.0685 11 13.5015 9.433 13.5015 7.5Z" fill="currentColor"/><path d="M8.00139 12C4.81696 12 2.69919 14.0433 1.68843 16.8419C1.29068 17.9432 1.58284 19.0116 2.24229 19.7775C2.89073 20.5305 3.89448 21 4.97876 21H11.024C12.1083 21 13.1121 20.5305 13.7605 19.7775C14.4199 19.0116 14.7121 17.9432 14.3144 16.8419C13.3036 14.0433 11.1858 12 8.00139 12Z" fill="currentColor"/><path d="M15.9915 20C16.5394 18.884 16.6907 17.5339 16.1954 16.1625C15.7377 14.8953 15.0638 13.7067 14.1734 12.7179C14.9785 12.26 15.9224 12 17.0012 12C19.6647 12 21.5056 13.5844 22.4657 15.8202C22.9354 16.9139 22.6635 17.9959 22.0076 18.7692C21.3658 19.5259 20.3553 20 19.2703 20H15.9915Z" fill="currentColor"/></g></svg>