<svg width="24px" height="24px" viewBox="0 0 24 24" fill="currentColor" xmlns="http://www.w3.org/2000/svg"><g><path fill-rule="evenodd" clip-rule="evenodd" d="M22 12C22 17.5228 17.5228 22 12 22C6.47715 22 2 17.5228 2 12C2 6.47715 6.47715 2 12 2C17.5228 2 22 6.47715 22 12ZM6.47937 11.7676C6.47937 14.6902 8.20248 17.0397 11.1318 17.0397C14.0611 17.0397 14.8077 14.6902 14.98 13.4868V16.8105H17.3594V11.5384H11.9359V12.5699H14.5206C14.2334 13.8306 13.5441 15.0913 11.9359 15.0913C10.1553 15.0913 9.00656 13.5441 9.00656 11.653C9.00656 9.76194 10.1553 8.21473 11.9359 8.21473C13.6016 8.21473 14.2908 9.41813 14.3483 10.2204H17.0478C16.9903 8.78775 15.7267 6.26636 11.9933 6.26636C8.37481 6.26636 6.47937 8.7305 6.47937 11.7676Z" fill="currentColor"/></g></svg>