<svg width="24px" height="24px" viewBox="0 0 24 24" fill="currentColor" xmlns="http://www.w3.org/2000/svg"><g><path d="M1.73717 12.7374C1.05375 12.054 1.05376 10.946 1.73717 10.2626L9.48717 2.51256C9.81536 2.18437 10.2605 2 10.7246 2H14.2749C14.739 2 15.1841 2.18437 15.5123 2.51256L16.2623 3.26256C16.9457 3.94598 16.9457 5.05402 16.2623 5.73744L6.73717 15.2626C6.05376 15.946 4.94572 15.946 4.2623 15.2626L1.73717 12.7374Z" fill="currentColor"/><path fill-rule="evenodd" clip-rule="evenodd" d="M20.2497 20.25C19.2832 21.2165 17.7162 21.2165 16.7497 20.25L10.2497 13.75L13.7497 10.25L20.2497 16.75C21.2162 17.7165 21.2162 19.2835 20.2497 20.25Z" fill="currentColor"/></g></svg>