<svg width="24px" height="24px" viewBox="0 0 24 24" fill="currentColor" xmlns="http://www.w3.org/2000/svg"><g><path fill-rule="evenodd" clip-rule="evenodd" d="M13.9212 2C13.0082 2 12.2681 2.74619 12.2681 3.66667V9.77778C12.2681 10.0846 12.0214 10.3333 11.7171 10.3333C11.4128 10.3333 11.1661 10.0846 11.1661 9.77778V4.77778C11.1661 3.8573 10.4259 3.11111 9.51294 3.11111C8.59995 3.11111 7.85983 3.8573 7.85983 4.77778V11.4444C7.85983 11.6691 7.72557 11.8717 7.51967 11.9577C7.31376 12.0437 7.07675 11.9962 6.91915 11.8373L5.9053 10.8151C5.20861 10.1127 4.06101 10.1768 3.44551 10.9525L3 11.5139L6.18774 17.9417C7.42123 20.4289 9.94265 22 12.7008 22C16.7225 22 19.9826 18.7131 19.9826 14.6585V10.3333C19.9826 10.2854 19.9887 10.2388 20 10.1944C19.9887 10.1501 19.9826 10.1035 19.9826 10.0556V5.61111C19.9826 4.69064 19.2425 3.94444 18.3295 3.94444C17.4165 3.94444 16.6764 4.69064 16.6764 5.61111V10.6111C16.6764 10.9179 16.4297 11.1667 16.1254 11.1667C15.8211 11.1667 15.5743 10.9179 15.5743 10.6111V3.66667C15.5743 2.74619 14.8342 2 13.9212 2Z" fill="currentColor"/></g></svg>