<svg width="24px" height="24px" viewBox="0 0 24 24" fill="currentColor" xmlns="http://www.w3.org/2000/svg"><g><path d="M15.377 8.23438H15.373L15.4053 8.23633C15.4336 8.23921 15.4614 8.24486 15.4893 8.24902L15.4854 8.24805C16.365 8.37743 17.0408 9.13326 17.041 10.0488V13.1904C17.8981 13.3837 19.2222 13.8452 20.1592 14.3125C20.1391 14.3026 20.119 14.2922 20.0986 14.2822C20.1287 14.297 20.1591 14.3104 20.1885 14.3252C20.2034 14.3327 20.2177 14.3411 20.2324 14.3486C20.223 14.3438 20.2136 14.3388 20.2041 14.334C20.3322 14.3988 20.453 14.4632 20.5635 14.5273C21.1267 14.8549 20.9833 16.4669 20.6504 18.1211C20.3022 19.8502 18.714 21 16.9502 21H15.3105C13.7932 21 12.4398 20.1215 11.6641 18.8174C11.1829 18.0084 10.7098 17.3423 10.1475 16.6875C9.54866 15.9903 9.61704 14.9167 10.3623 14.3789C10.7859 14.0732 11.3397 14.0144 11.8184 14.2236L13.3955 14.9131V10.0488C13.3957 9.0425 14.2114 8.22675 15.2178 8.22656C15.2713 8.22656 15.3246 8.22985 15.377 8.23438Z" fill="currentColor"/><path d="M17 3C19.2091 3 21 4.79086 21 7V13C21 13.0186 20.9983 13.0371 20.998 13.0557C20.2829 12.6827 19.3679 12.3228 18.541 12.0557V10.0488C18.5408 8.21416 17.0534 6.7269 15.2188 6.72656C13.3838 6.72656 11.8957 8.21396 11.8955 10.0488V12.6758C11.1311 12.4996 10.3214 12.6318 9.64844 13.0527L9.48535 13.1621C8.19036 14.0965 7.95643 15.7373 8.57324 17H7C4.79086 17 3 15.2091 3 13V7C3 4.79086 4.79086 3 7 3H17Z" fill="currentColor"/></g></svg>