<svg width="24px" height="24px" viewBox="0 0 24 24" fill="currentColor" xmlns="http://www.w3.org/2000/svg"><g><path d="M19 19.25C19 21.3211 17.3211 23 15.25 23H8.75C6.67893 23 5 21.3211 5 19.25V16.8193C6.53318 19.042 9.09557 20.5 12 20.5C14.9044 20.5 17.4668 19.042 19 16.8193V19.25Z" fill="currentColor"/><path fill-rule="evenodd" clip-rule="evenodd" d="M12 8.5C13.933 8.5 15.5 10.067 15.5 12C15.5 13.933 13.933 15.5 12 15.5C10.067 15.5 8.5 13.933 8.5 12C8.5 10.067 10.067 8.5 12 8.5ZM12 10C10.8954 10 10 10.8954 10 12C10 13.1046 10.8954 14 12 14C13.1046 14 14 13.1046 14 12C14 10.8954 13.1046 10 12 10Z" fill="currentColor"/><path fill-rule="evenodd" clip-rule="evenodd" d="M12 5C15.866 5 19 8.13401 19 12C19 15.866 15.866 19 12 19C8.13401 19 5 15.866 5 12C5 8.13401 8.13401 5 12 5ZM12 6.5C8.96243 6.5 6.5 8.96243 6.5 12C6.5 15.0376 8.96243 17.5 12 17.5C15.0376 17.5 17.5 15.0376 17.5 12C17.5 8.96243 15.0376 6.5 12 6.5Z" fill="currentColor"/><path d="M15.25 1C17.3211 1 19 2.67893 19 4.75V7.17969C17.4668 4.95737 14.9041 3.5 12 3.5C9.09586 3.5 6.53324 4.95737 5 7.17969V4.75C5 2.67893 6.67893 1 8.75 1H15.25Z" fill="currentColor"/></g></svg>