<svg width="24px" height="24px" viewBox="0 0 24 24" fill="currentColor" xmlns="http://www.w3.org/2000/svg"><g><path d="M11 10.0001H6C5.15408 6.61645 5.43865 4.19023 6.38068 1.62896C6.62994 0.951257 7.50427 0.810071 7.94014 1.38576C9.84142 3.89692 10.7409 6.67368 11 10.0001Z" fill="currentColor"/><path d="M18 10.0001H13C13.0654 7.49783 13.5483 1.70463 17.4966 2.9194C19.1707 3.43446 20.385 4.73838 21.4276 6.13642C21.933 6.81409 21.3806 7.76724 20.5379 7.70065L18 7.50014C18 7.50014 18.5 9.00014 18 10.0001Z" fill="currentColor"/><path d="M2.75 12.5002H4V18.2502C4 20.3213 5.67893 22.0002 7.75 22.0002H16.25C18.3211 22.0002 20 20.3213 20 18.2502V12.5002H21.25C21.6642 12.5002 22 12.1645 22 11.7502C22 11.336 21.6642 11.0002 21.25 11.0002H2.75C2.33579 11.0002 2 11.336 2 11.7502C2 12.1645 2.33579 12.5002 2.75 12.5002Z" fill="currentColor"/></g></svg>