<svg width="24px" height="24px" viewBox="0 0 24 24" fill="currentColor" xmlns="http://www.w3.org/2000/svg"><g><path d="M15.2471 14.2793H14.207V9.66992H15.2471C16.5459 9.66992 17.2783 10.4805 17.2783 11.9551C17.2783 13.4785 16.5654 14.2793 15.2471 14.2793Z" fill="currentColor"/><path fill-rule="evenodd" clip-rule="evenodd" d="M2 7.75C2 5.67893 3.67893 4 5.75 4H18.25C20.3211 4 22 5.67893 22 7.75V16.25C22 18.3211 20.3211 20 18.25 20H5.75C3.67893 20 2 18.3211 2 16.25V7.75ZM5.4375 14.8262C5.4375 15.3096 5.71094 15.5928 6.1748 15.5928C6.63867 15.5928 6.91211 15.3096 6.91211 14.8262V12.5312H10.0859V14.8262C10.0859 15.3096 10.3594 15.5928 10.8232 15.5928C11.2871 15.5928 11.5605 15.3096 11.5605 14.8262V9.12793C11.5605 8.63965 11.2871 8.35645 10.8232 8.35645C10.3594 8.35645 10.0859 8.63965 10.0859 9.12793V11.3154H6.91211V9.12793C6.91211 8.63965 6.63867 8.35645 6.1748 8.35645C5.71094 8.35645 5.4375 8.63965 5.4375 9.12793V14.8262ZM12.7324 14.7285C12.7324 15.2168 13.0059 15.5 13.4697 15.5H15.4229C17.5371 15.5 18.7822 14.1865 18.7822 11.9502C18.7822 9.71387 17.5371 8.4541 15.4229 8.4541H13.4697C13.0059 8.4541 12.7324 8.7373 12.7324 9.2207V14.7285Z" fill="currentColor"/></g></svg>