<svg width="24px" height="24px" viewBox="0 0 24 24" fill="currentColor" xmlns="http://www.w3.org/2000/svg"><g><path d="M11 20C11.4142 20 11.75 20.3358 11.75 20.75V22.25C11.75 22.6642 11.4142 23 11 23C10.5858 23 10.25 22.6642 10.25 22.25V20.75C10.25 20.3358 10.5859 20.0001 11 20Z" fill="currentColor"/><path d="M4.28223 17.6572C4.57514 17.3644 5.05088 17.3643 5.34375 17.6572C5.63623 17.9502 5.63555 18.425 5.34277 18.7178L4.28223 19.7783C3.98931 20.071 3.51449 20.0711 3.22168 19.7783C2.92889 19.4855 2.92903 19.0107 3.22168 18.7178L4.28223 17.6572Z" fill="currentColor"/><path d="M10.1533 8.62402C10.3608 8.26557 10.8202 8.14317 11.1787 8.35059C11.5372 8.55803 11.6596 9.01746 11.4521 9.37598C11.0059 10.1473 10.7501 11.0426 10.75 12C10.75 13.0745 11.0724 14.0722 11.625 14.9033C11.8539 15.2482 11.7598 15.7131 11.415 15.9424C11.0701 16.1717 10.6043 16.0783 10.375 15.7334C9.66398 14.6639 9.25 13.3789 9.25 12C9.25007 10.7717 9.57846 9.61762 10.1533 8.62402Z" fill="currentColor"/><path fill-rule="evenodd" clip-rule="evenodd" d="M16 5.25C19.7279 5.25 22.75 8.27208 22.75 12C22.75 15.7279 19.7279 18.75 16 18.75C15.1178 18.75 14.2742 18.5785 13.5 18.2695C12.7266 18.5782 11.8835 18.75 11 18.75C7.27208 18.75 4.25 15.7279 4.25 12C4.25 8.27208 7.27208 5.25 11 5.25C11.8834 5.25 12.7267 5.42091 13.5 5.72949C14.2741 5.42064 15.118 5.25004 16 5.25ZM11 6.75C8.1005 6.75 5.75 9.1005 5.75 12C5.75 14.8995 8.1005 17.25 11 17.25C13.8995 17.25 16.25 14.8995 16.25 12C16.25 9.1005 13.8995 6.75 11 6.75Z" fill="currentColor"/><path d="M2.25 11.25C2.66421 11.25 3 11.5858 3 12C3 12.4142 2.66421 12.75 2.25 12.75H0.75C0.335786 12.75 0 12.4142 0 12C0 11.5858 0.335786 11.25 0.75 11.25H2.25Z" fill="currentColor"/><path d="M3.22168 4.22168C3.5145 3.92887 3.98932 3.92902 4.28223 4.22168L5.34277 5.28223C5.63566 5.57512 5.63566 6.04988 5.34277 6.34277C5.04988 6.63567 4.57512 6.63567 4.28223 6.34277L3.22168 5.28223C2.92901 4.98932 2.92886 4.5145 3.22168 4.22168Z" fill="currentColor"/><path d="M11 1C11.4142 1 11.75 1.33579 11.75 1.75V3.25C11.75 3.66421 11.4142 4 11 4C10.5858 3.99995 10.25 3.66418 10.25 3.25V1.75C10.25 1.33582 10.5858 1.00005 11 1Z" fill="currentColor"/></g></svg>