<svg width="24px" height="24px" viewBox="0 0 24 24" fill="currentColor" xmlns="http://www.w3.org/2000/svg"><g><path d="M10.9621 2C6.5665 2 3 5.55512 3 9.94444C3 11.7926 3.63342 13.4951 4.69469 14.8447C5.9896 16.4915 6.02718 18.0878 6.00705 20.2428C5.99798 21.2141 6.78285 22 7.75 22H13.25C14.2165 22 15 21.2165 15 20.25V19.1667C15 19.0286 15.1119 18.9167 15.25 18.9167C17.3211 18.9167 19 17.2377 19 15.1667V14.1506C19 14.0571 19.0522 13.9714 19.1352 13.9285L20.1001 13.43C21.0288 12.9501 21.3303 11.77 20.7489 10.9031C19.812 9.5063 19.0245 8.27928 18.4145 6.72377C17.1621 3.53044 14.1314 2 10.9621 2Z" fill="currentColor"/></g></svg>