<svg width="24px" height="24px" viewBox="0 0 24 24" fill="currentColor" xmlns="http://www.w3.org/2000/svg"><g><path fill-rule="evenodd" clip-rule="evenodd" d="M3 3.75C3 3.33579 3.33579 3 3.75 3H7.75C8.16421 3 8.5 3.33579 8.5 3.75C8.5 4.16421 8.16421 4.5 7.75 4.5H6.5V11.25H17.5V4.5H16.25C15.8358 4.5 15.5 4.16421 15.5 3.75C15.5 3.33579 15.8358 3 16.25 3H20.25C20.6642 3 21 3.33579 21 3.75C21 4.16421 20.6642 4.5 20.25 4.5H19V19.5H20.25C20.6642 19.5 21 19.8358 21 20.25C21 20.6642 20.6642 21 20.25 21H16.25C15.8358 21 15.5 20.6642 15.5 20.25C15.5 19.8358 15.8358 19.5 16.25 19.5H17.5V12.75H6.5V19.5H7.75C8.16421 19.5 8.5 19.8358 8.5 20.25C8.5 20.6642 8.16421 21 7.75 21H3.75C3.33579 21 3 20.6642 3 20.25C3 19.8358 3.33579 19.5 3.75 19.5H5V4.5H3.75C3.33579 4.5 3 4.16421 3 3.75Z" fill="currentColor"/></g></svg>