<svg width="24px" height="24px" viewBox="0 0 24 24" fill="currentColor" xmlns="http://www.w3.org/2000/svg"><g><path d="M12 4.32781C12.1935 4.18729 12.4386 4.02609 12.7319 3.86553C13.5214 3.43347 14.6725 3 16.1111 3C17.5979 3 19.0829 3.5977 20.1921 4.78484C21.3047 5.97563 22 7.71515 22 9.9375C22 13.2536 19.6489 16.0247 17.3927 17.8948C16.2446 18.8464 15.0735 19.6049 14.1357 20.1276C13.6669 20.3889 13.2492 20.5954 12.9151 20.7391C12.7487 20.8106 12.5947 20.8702 12.4603 20.9134C12.3511 20.9485 12.1754 21 12 21C11.8246 21 11.6489 20.9485 11.5397 20.9134C11.4053 20.8702 11.2513 20.8106 11.0849 20.7391C10.7508 20.5954 10.3331 20.3889 9.86432 20.1276C8.92652 19.6049 7.75539 18.8464 6.60732 17.8948C4.35114 16.0247 2 13.2536 2 9.9375C2 7.71515 2.69528 5.97563 3.80789 4.78484C4.91708 3.5977 6.40208 3 7.88889 3C9.32752 3 10.4786 3.43347 11.2681 3.86553C11.5614 4.02609 11.8065 4.18729 12 4.32781Z" fill="currentColor"/></g></svg>