<svg width="24px" height="24px" viewBox="0 0 24 24" fill="currentColor" xmlns="http://www.w3.org/2000/svg"><g><path fill-rule="evenodd" clip-rule="evenodd" d="M11.9992 4.54984C13.6391 3.16341 15.5338 2.75266 17.2522 3.13676C19.142 3.55916 20.7497 4.92821 21.5168 6.84574C23.0856 10.7671 21.0862 16.505 12.3664 21.4043C12.1384 21.5322 11.86 21.5324 11.6321 21.4043C2.91233 16.505 0.912918 10.7671 2.48167 6.84574C3.24877 4.9283 4.85663 3.55928 6.74632 3.13676C8.46475 2.75266 10.3594 3.16341 11.9992 4.54984ZM12.0002 7.54984C11.5861 7.54984 11.2504 7.88573 11.2502 8.29984V8.62992C10.7919 8.70266 10.3215 8.88055 9.9514 9.20902C9.56177 9.55494 9.31581 10.0432 9.31566 10.6328C9.31566 11.4552 9.70407 12.0186 10.2395 12.3828C10.7121 12.7042 11.3113 12.8756 11.758 13.0078C12.267 13.1585 12.6217 13.2699 12.8655 13.4317C13.045 13.5509 13.1252 13.6659 13.1252 13.9092C13.1252 14.051 13.0718 14.1563 12.927 14.2578C12.759 14.3755 12.4795 14.4693 12.1252 14.4864C11.7767 14.5031 11.4151 14.4423 11.1184 14.3145C10.8576 14.2021 10.6824 14.0552 10.5823 13.9014L10.5061 13.7686C10.3007 13.4488 9.88159 13.3302 9.53538 13.5059C9.16614 13.6935 9.01876 14.1454 9.20628 14.5147C9.49702 15.087 10.0014 15.4659 10.5246 15.6914C10.7562 15.7912 11.0015 15.8638 11.2502 15.9131V16.5C11.2503 16.9142 11.5861 17.25 12.0002 17.25C12.4142 17.2499 12.7501 16.9141 12.7502 16.5V15.9141C13.1186 15.8384 13.4788 15.7024 13.7873 15.4864C14.2731 15.146 14.6252 14.6091 14.6252 13.9092C14.6251 13.0906 14.2289 12.5363 13.6946 12.1817C13.2242 11.8696 12.626 11.7015 12.1828 11.5703C11.6778 11.4209 11.3248 11.3068 11.0832 11.1426C10.9044 11.0209 10.8157 10.8967 10.8157 10.6328C10.8158 10.4913 10.8629 10.4044 10.9465 10.3301C11.0478 10.2404 11.2285 10.1521 11.4895 10.1114C12.0325 10.0267 12.6512 10.1864 12.9983 10.4991C13.3061 10.776 13.7807 10.7511 14.0578 10.4434C14.3347 10.1356 14.3098 9.66093 14.0022 9.38383C13.6463 9.06335 13.2084 8.84546 12.7502 8.71976V8.29984C12.7501 7.88583 12.4142 7.54999 12.0002 7.54984Z" fill="currentColor"/></g></svg>