<svg width="24px" height="24px" viewBox="0 0 24 24" fill="currentColor" xmlns="http://www.w3.org/2000/svg"><g><path d="M3.99927 6C3.32674 6.89535 2.80101 7.90726 2.4578 9H11.25C11.6642 9 12 9.33579 12 9.75C12 10.1642 11.6642 10.5 11.25 10.5H2.11175C2.03815 10.9893 2 11.4902 2 12C2 12.5098 2.03815 13.0107 2.11175 13.5H11.25C11.6642 13.5 12 13.8358 12 14.25C12 14.6642 11.6642 15 11.25 15H2.4578C2.80101 16.0927 3.32674 17.1046 3.99927 18H11.25C11.6642 18 12 18.3358 12 18.75C12 19.1642 11.6642 19.5 11.25 19.5H5.38544C7.14827 21.0559 9.46388 22 12 22C17.5228 22 22 17.5228 22 12C22 6.47715 17.5228 2 12 2C9.46388 2 7.14827 2.94409 5.38544 4.5H11.25C11.6642 4.5 12 4.83579 12 5.25C12 5.66421 11.6642 6 11.25 6H3.99927Z" fill="currentColor"/></g></svg>