<svg width="24px" height="24px" viewBox="0 0 24 24" fill="currentColor" xmlns="http://www.w3.org/2000/svg"><g><path d="M11.5696 1.78363C11.8521 1.71194 12.148 1.71194 12.4305 1.78363C12.7558 1.86618 13.0369 2.06863 13.3008 2.25865L13.368 2.30697L21.9366 8.44137C22.2734 8.68249 22.351 9.15099 22.1099 9.48779C21.8687 9.82459 21.4002 9.90215 21.0634 9.66103L20 8.89971V15.4821C20 16.295 20 16.9506 19.9567 17.4815C19.912 18.0281 19.8176 18.5083 19.5913 18.9525C19.2318 19.6581 18.6581 20.2318 17.9525 20.5913C17.5083 20.8176 17.0281 20.912 16.4815 20.9566C15.9506 21 15.295 21 14.4822 21H9.51791C8.70508 21 8.04947 21 7.51856 20.9566C6.97193 20.912 6.49179 20.8176 6.04757 20.5913C5.34196 20.2318 4.76828 19.6581 4.40876 18.9525C4.18242 18.5083 4.08806 18.0281 4.04339 17.4815C4.00002 16.9506 4.00002 16.295 4.00003 15.4821L4.00003 8.89973L2.93664 9.66103C2.59984 9.90215 2.13135 9.82459 1.89023 9.48779C1.64911 9.15099 1.72667 8.68249 2.06347 8.44137L10.6321 2.30697L10.6993 2.25865C10.9632 2.06862 11.2443 1.86618 11.5696 1.78363Z" fill="currentColor"/></g></svg>