<svg width="24px" height="24px" viewBox="0 0 24 24" fill="currentColor" xmlns="http://www.w3.org/2000/svg"><g><path fill-rule="evenodd" clip-rule="evenodd" d="M14.2056 3.67671C12.8907 2.72039 11.1093 2.72039 9.79436 3.67671L4.54436 7.49489C3.57406 8.20056 3 9.32789 3 10.5277V17.25C3 19.3214 4.68049 21 6.75118 21H7.02469C7.27556 18.4733 9.40733 16.5 12 16.5C14.5927 16.5 16.7244 18.4733 16.9753 21H17.2488C19.3195 21 21 19.3214 21 17.25V10.5277C21 9.32789 20.4259 8.20056 19.4556 7.4949L14.2056 3.67671ZM12 9.75C10.6193 9.75 9.5 10.8693 9.5 12.25C9.5 13.6307 10.6193 14.75 12 14.75C13.3807 14.75 14.5 13.6307 14.5 12.25C14.5 10.8693 13.3807 9.75 12 9.75Z" fill="currentColor"/></g></svg>