<svg width="24px" height="24px" viewBox="0 0 24 24" fill="currentColor" xmlns="http://www.w3.org/2000/svg"><g><path d="M9.79894 21.7699H12.9989C13.4089 21.7699 13.7489 21.4299 13.7489 21.0199C13.7489 20.6099 13.4089 20.2699 12.9989 20.2699H9.79894C8.23894 20.2699 7.45894 20.2699 6.97894 20.0199C6.55894 19.8099 6.21894 19.4699 5.99894 19.0399C5.74894 18.5599 5.74894 17.7799 5.74894 16.2199V9.09995L11.7589 4.79995C11.7763 4.78742 11.7937 4.7748 11.8111 4.7622C11.9744 4.64408 12.1347 4.52802 12.1889 4.50995C12.2156 4.50328 12.2423 4.5055 12.2689 4.50772C12.2823 4.50884 12.2956 4.50995 12.3089 4.50995C12.3537 4.52486 12.4707 4.60649 12.6061 4.70094C12.6523 4.73316 12.7006 4.76688 12.7489 4.79995L18.7389 9.10995V11.3799C18.7389 11.7899 19.0789 12.1299 19.4889 12.1299C19.8989 12.1299 20.2389 11.7899 20.2389 11.3799V10.1799L21.2989 10.9399C21.6389 11.1899 22.1089 11.1099 22.3489 10.7699C22.5889 10.4299 22.5189 9.95995 22.1789 9.71995L19.9389 8.10995L19.9289 8.09995L13.6089 3.57995C13.5931 3.56871 13.5776 3.55764 13.5622 3.54675C13.2096 3.29595 12.9856 3.13662 12.6789 3.05995C12.3989 2.98995 12.0989 2.98995 11.8189 3.05995C11.4989 3.13995 11.2689 3.29995 10.8789 3.57995L4.55894 8.08995L4.54894 8.09995L2.30894 9.70995C1.97894 9.94995 1.89894 10.4199 2.13894 10.7599C2.38894 11.0999 2.84894 11.1699 3.18894 10.9299L4.24894 10.1699V16.2199C4.24894 18.0199 4.24894 18.9199 4.65894 19.7199C5.01894 20.4299 5.58894 20.9999 6.29894 21.3599C7.09894 21.7699 7.99894 21.7699 9.79894 21.7699Z" fill="currentColor"/><path d="M11.999 8.75C10.204 8.75 8.74896 10.2051 8.74896 12C8.74896 13.7949 10.204 15.25 11.999 15.25C13.7939 15.25 15.249 13.7949 15.249 12C15.249 10.2051 13.7939 8.75 11.999 8.75Z" fill="currentColor"/><path d="M19.0174 14.0218C19.0174 13.5324 18.4171 13.3132 18.1141 13.692L15.115 17.441C14.843 17.781 15.0796 18.2916 15.5091 18.2916H16.9806V20.4782C16.9806 20.9676 17.5808 21.1868 17.8839 20.808L20.8829 17.059C21.1549 16.719 20.9184 16.2084 20.4888 16.2084H19.0174V14.0218Z" fill="currentColor"/></g></svg>