<svg width="24px" height="24px" viewBox="0 0 24 24" fill="currentColor" xmlns="http://www.w3.org/2000/svg"><g><path d="M14.3746 2.22364C12.9933 1.09342 11.0067 1.09342 9.62536 2.22364L4.37536 6.51909C3.50485 7.23133 3 8.29668 3 9.42143V17.2498C3 19.3209 4.67893 20.9998 6.75 20.9998H8V16C8 13.7909 9.79086 12 12 12C14.2091 12 16 13.7909 16 16V20.9998H17.25C19.3211 20.9998 21 19.3209 21 17.2498V9.42143C21 8.29668 20.4952 7.23133 19.6246 6.51909L14.3746 2.22364Z" fill="currentColor"/><path d="M14.5 20.9998V16C14.5 14.6193 13.3807 13.5 12 13.5C10.6193 13.5 9.5 14.6193 9.5 16V20.9998H14.5Z" fill="currentColor"/></g></svg>