<svg width="24px" height="24px" viewBox="0 0 24 24" fill="currentColor" xmlns="http://www.w3.org/2000/svg"><g><path fill-rule="evenodd" clip-rule="evenodd" d="M9.25 2C11.3211 2 13 3.67893 13 5.75C13 7.56421 11.7117 9.07734 10 9.4248V17.5C10 19.1569 11.3431 20.5 13 20.5C14.6569 20.5 16 19.1569 16 17.5V13.8105L14.2803 15.5303C13.9874 15.8232 13.5126 15.8232 13.2197 15.5303C12.9268 15.2374 12.9268 14.7626 13.2197 14.4697L16.2197 11.4697C16.4342 11.2552 16.7569 11.1906 17.0371 11.3066C17.3174 11.4227 17.5 11.6967 17.5 12V17.5C17.5 19.9853 15.4853 22 13 22C10.5147 22 8.5 19.9853 8.5 17.5V9.4248C6.78834 9.07734 5.5 7.56421 5.5 5.75C5.5 3.67893 7.17893 2 9.25 2ZM9.25 3.5C8.00736 3.5 7 4.50736 7 5.75C7 6.99264 8.00736 8 9.25 8C10.4926 8 11.5 6.99264 11.5 5.75C11.5 4.50736 10.4926 3.5 9.25 3.5Z" fill="currentColor"/></g></svg>