<svg width="24px" height="24px" viewBox="0 0 24 24" fill="currentColor" xmlns="http://www.w3.org/2000/svg"><g><path d="M11 6.5V11.25H13V8.5C13 7.11929 14.1193 6 15.5 6C16.8807 6 18 7.11929 18 8.5V11.25H20.25C20.6642 11.25 21 11.5858 21 12C21 12.4142 20.6642 12.75 20.25 12.75H18V15.5C18 16.8807 16.8807 18 15.5 18C14.1193 18 13 16.8807 13 15.5V12.75H11V18C11 19.3807 9.88071 20.5 8.5 20.5C7.11929 20.5 6 19.3807 6 18V12.75H3.75C3.33579 12.75 3 12.4142 3 12C3 11.5858 3.33579 11.25 3.75 11.25H6V6.5C6 5.11929 7.11929 4 8.5 4C9.88071 4 11 5.11929 11 6.5Z" fill="currentColor"/></g></svg>