<svg width="24px" height="24px" viewBox="0 0 24 24" fill="currentColor" xmlns="http://www.w3.org/2000/svg"><g><path d="M8.5 3C7.11929 3 6 4.11929 6 5.5V15.5C6 16.8807 7.11929 18 8.5 18C9.88071 18 11 16.8807 11 15.5V5.5C11 4.11929 9.88071 3 8.5 3Z" fill="currentColor"/><path d="M15.5 7C14.1193 7 13 8.11929 13 9.5V15.5C13 16.8807 14.1193 18 15.5 18C16.8807 18 18 16.8807 18 15.5V9.5C18 8.11929 16.8807 7 15.5 7Z" fill="currentColor"/><path d="M3.75 19.5C3.33579 19.5 3 19.8358 3 20.25C3 20.6642 3.33579 21 3.75 21H20.25C20.6642 21 21 20.6642 21 20.25C21 19.8358 20.6642 19.5 20.25 19.5H3.75Z" fill="currentColor"/></g></svg>