<svg width="24px" height="24px" viewBox="0 0 24 24" fill="currentColor" xmlns="http://www.w3.org/2000/svg"><g><path fill-rule="evenodd" clip-rule="evenodd" d="M8.60127 3.5C7.65513 3.5 6.81006 4.09191 6.48673 4.9811L6.47986 5H17.5201L17.5132 4.98106C17.1899 4.09189 16.3448 3.5 15.3987 3.5H8.60127ZM19.1277 5.03156L18.9229 4.46843C18.384 2.98649 16.9756 2 15.3987 2H8.60127C7.02436 2 5.61592 2.98652 5.07703 4.4685L4.87229 5.03157C3.80948 5.21121 3 6.13607 3 7.25C3 8.03475 3.40175 8.72567 4.0108 9.12829L4.9118 18.6049C5.09481 20.5298 6.71139 22 8.64497 22H15.3555C17.2888 22 18.9053 20.5302 19.0886 18.6055L19.9913 9.1269C20.5992 8.72407 21 8.03385 21 7.25C21 6.13607 20.1905 5.21121 19.1277 5.03156ZM5.25 6.5C4.83579 6.5 4.5 6.83579 4.5 7.25C4.5 7.66421 4.83579 8 5.25 8H18.75C19.1642 8 19.5 7.66421 19.5 7.25C19.5 6.83579 19.1642 6.5 18.75 6.5H5.25Z" fill="currentColor"/></g></svg>