<svg width="24px" height="24px" viewBox="0 0 24 24" fill="currentColor" xmlns="http://www.w3.org/2000/svg"><g><path fill-rule="evenodd" clip-rule="evenodd" d="M5 3.5H3.75C3.33579 3.5 3 3.16421 3 2.75C3 2.33579 3.33579 2 3.75 2H20.25C20.6642 2 21 2.33579 21 2.75C21 3.16421 20.6642 3.5 20.25 3.5H19V6.3582C19 7.63689 18.3485 8.82744 17.2715 9.51672L13.3913 12L17.2715 14.4833C18.3485 15.1726 19 16.3631 19 17.6418V20.5H20.25C20.6642 20.5 21 20.8358 21 21.25C21 21.6642 20.6642 22 20.25 22H3.75C3.33579 22 3 21.6642 3 21.25C3 20.8358 3.33579 20.5 3.75 20.5H5V17.6418C5 16.3631 5.65155 15.1726 6.72855 14.4833L10.6087 12L6.72855 9.51672C5.65155 8.82744 5 7.63689 5 6.3582V3.5ZM6.5 3.5V6.3582C6.5 6.57845 6.53222 6.79433 6.59344 7H17.4066C17.4678 6.79433 17.5 6.57845 17.5 6.3582V3.5H6.5ZM17.5 17.6418V18H6.5V17.6418C6.5 16.8746 6.89093 16.1603 7.53713 15.7467L12 12.8904L16.4629 15.7467C17.1091 16.1603 17.5 16.8746 17.5 17.6418Z" fill="currentColor"/></g></svg>