<svg width="24px" height="24px" viewBox="0 0 24 24" fill="currentColor" xmlns="http://www.w3.org/2000/svg"><g><path d="M15.709 2C16.4729 2.00007 17.1438 2.50729 17.3525 3.24219L20.6201 14.748C20.6822 14.9668 20.8167 15.1582 21.0019 15.29L21.498 15.6426C21.8058 15.8617 21.9637 16.2359 21.9062 16.6094L21.2275 21.0225C21.1192 21.7264 20.33 22.0944 19.7207 21.7256L17.0674 20.1191C16.9115 20.0248 16.7491 19.9395 16.5742 19.8887C16.3214 19.8153 16.059 19.7773 15.7949 19.7773C14.2513 19.7773 13 18.526 13 16.9824V11.1914C13.2319 10.5078 13.8758 10.0002 14.6572 10C15.1993 10 15.667 10.3825 15.7734 10.9141L16.5097 14.5977L16.539 14.6953C16.6295 14.9093 16.8609 15.0374 17.0976 14.9902C17.3345 14.9429 17.4988 14.7354 17.5 14.5029L17.4902 14.4023L16.7539 10.7178C16.5539 9.71889 15.6759 9 14.6572 9C14.4299 9.00004 14.2099 9.02777 14 9.0791V3.70898C14 2.76522 14.7652 2 15.709 2Z" fill="currentColor"/><path d="M3.05026 14.8281C3.01744 15.0473 3.00046 15.2716 3.00046 15.5C3.00046 17.8481 4.7986 19.7748 7.09323 19.9805L4.10007 21.8232C3.5432 22.1659 2.813 21.8905 2.62057 21.2656L1.23581 16.7656C1.0982 16.3184 1.28854 15.8347 1.69479 15.6025L3.05026 14.8281Z" fill="currentColor"/><path d="M8.34518 2C9.25889 2 10.0003 2.74063 10.0005 3.6543V11.7578C9.28546 11.2791 8.4255 11.0001 7.50046 11C6.55882 11 5.68394 11.2887 4.96139 11.7832L6.72604 3.31738C6.88588 2.55018 7.56153 2.0001 8.34518 2Z" fill="currentColor"/><path fill-rule="evenodd" clip-rule="evenodd" d="M7.49997 12C9.43296 12 11 13.567 11 15.5C11 17.433 9.43296 19 7.49997 19C5.56697 19 3.99997 17.433 3.99997 15.5C3.99997 13.567 5.56697 12 7.49997 12ZM7.49997 14.5C6.94768 14.5 6.49997 14.9477 6.49997 15.5C6.49997 16.0523 6.94768 16.5 7.49997 16.5C8.05225 16.5 8.49997 16.0523 8.49997 15.5C8.49997 14.9477 8.05225 14.5 7.49997 14.5Z" fill="currentColor"/></g></svg>