<svg width="24px" height="24px" viewBox="0 0 24 24" fill="currentColor" xmlns="http://www.w3.org/2000/svg"><g><path fill-rule="evenodd" clip-rule="evenodd" d="M13.25 2C15.3211 2 17 3.67893 17 5.75V6H18.25C20.3211 6 22 7.67893 22 9.75V17.25C22 19.3211 20.3211 21 18.25 21H5.75C3.67893 21 2 19.3211 2 17.25V9.75C2 7.67893 3.67893 6 5.75 6H7V5.75C7 3.67893 8.67893 2 10.75 2H13.25ZM12 10.5C11.5858 10.5 11.25 10.8358 11.25 11.25V12.75H9.75C9.33579 12.75 9 13.0858 9 13.5C9 13.9142 9.33579 14.25 9.75 14.25H11.25V15.75C11.25 16.1642 11.5858 16.5 12 16.5C12.4142 16.5 12.75 16.1642 12.75 15.75V14.25H14.25C14.6642 14.25 15 13.9142 15 13.5C15 13.0858 14.6642 12.75 14.25 12.75H12.75V11.25C12.75 10.8358 12.4142 10.5 12 10.5ZM10.75 3.5C9.50736 3.5 8.5 4.50736 8.5 5.75V6H15.5V5.75C15.5 4.50736 14.4926 3.5 13.25 3.5H10.75Z" fill="currentColor"/></g></svg>