<svg width="24px" height="24px" viewBox="0 0 24 24" fill="currentColor" xmlns="http://www.w3.org/2000/svg"><g><path fill-rule="evenodd" clip-rule="evenodd" d="M18.25 4C20.3211 4 22 5.67893 22 7.75V16.25C22 18.3211 20.3211 20 18.25 20H5.75C3.67893 20 2 18.3211 2 16.25V7.75C2 5.67893 3.67893 4 5.75 4H18.25ZM17.9531 13.8379C16.3538 12.9378 14.4299 16.3942 16.7373 16.9746C18.0009 17.2924 19.2469 14.5525 17.9531 13.8379ZM15.1309 8.11914C15.0166 7.21338 14.1392 6.83207 13.1416 7.06934C9.38657 7.96311 11.7928 10.1547 10.2666 10.9756C9.42001 10.8161 10.2629 9.00728 8.875 8.88672C6.65837 8.69423 8.95909 12.129 8.09668 12.7666C8.05409 12.7976 8.00982 12.8262 7.96387 12.8516C7.50506 12.7673 7.14945 8.9408 6.02539 10.1084C4.77828 11.404 6.09248 12.6725 6.47266 13.6562C6.29639 14.0863 6.16401 14.3485 5.9834 14.6611C5.84948 14.8933 5.9179 15.1887 6.15723 15.3115C7.68648 16.0955 11.1708 17.2325 12.0869 16.2061C12.2108 15.953 12.2205 15.8964 12.1641 15.6191C11.6105 14.5494 9.61129 15.4462 9.01758 14.4238C8.7397 12.4887 13.9314 14.9635 15.2998 13.7109C15.7549 11.523 11.9436 12.586 11.3936 12.1084C11.9938 10.4335 18.839 12.2567 18.1387 10.0049C16.2341 8.11927 13.6541 10.9348 12.1377 10.4316C11.3828 9.45696 14.9408 8.55542 15.1309 8.11914Z" fill="currentColor"/></g></svg>