<svg width="24px" height="24px" viewBox="0 0 24 24" fill="currentColor" xmlns="http://www.w3.org/2000/svg"><g><path fill-rule="evenodd" clip-rule="evenodd" d="M3 6.75C3 4.67893 4.67893 3 6.75 3H17.25C19.3211 3 21 4.67893 21 6.75V17.25C21 19.3211 19.3211 21 17.25 21H6.75C4.67893 21 3 19.3211 3 17.25V6.75ZM6.75 4.5C5.50736 4.5 4.5 5.50736 4.5 6.75V14.4393L5.34835 13.591C6.81282 12.1265 9.18718 12.1265 10.6517 13.591L16.5607 19.5H17.25C18.4926 19.5 19.5 18.4926 19.5 17.25V6.75C19.5 5.50736 18.4926 4.5 17.25 4.5H6.75Z" fill="currentColor"/><path d="M13.5745 8.35093L14.0528 7.39443C14.237 7.0259 14.763 7.0259 14.9472 7.39443L15.4255 8.35093C15.4738 8.44769 15.5523 8.52615 15.6491 8.57454L16.6056 9.05279C16.9741 9.23705 16.9741 9.76295 16.6056 9.94721L15.6491 10.4255C15.5523 10.4738 15.4738 10.5523 15.4255 10.6491L14.9472 11.6056C14.763 11.9741 14.237 11.9741 14.0528 11.6056L13.5745 10.6491C13.5262 10.5523 13.4477 10.4738 13.3509 10.4255L12.3944 9.94721C12.0259 9.76295 12.0259 9.23705 12.3944 9.05279L13.3509 8.57454C13.4477 8.52615 13.5262 8.44769 13.5745 8.35093Z" fill="currentColor"/></g></svg>