<svg width="24px" height="24px" viewBox="0 0 24 24" fill="currentColor" xmlns="http://www.w3.org/2000/svg"><g><path d="M17.6291 8.75012C17.6291 10.0646 16.5636 11.1301 15.2491 11.1301C13.9347 11.1301 12.8691 10.0646 12.8691 8.75012C12.8691 7.43568 13.9347 6.37012 15.2491 6.37012C16.5636 6.37012 17.6291 7.43568 17.6291 8.75012Z" fill="currentColor"/><path fill-rule="evenodd" clip-rule="evenodd" d="M6.75 3H17.25C19.32 3 21 4.68 21 6.75V17.25C21 19.32 19.32 21 17.25 21H6.75C4.68 21 3 19.32 3 17.25V6.75C3 4.68 4.68 3 6.75 3ZM17.25 4.5H6.75C5.51 4.5 4.5 5.51 4.5 6.75V12.9L6.41 11.46H6.43C7.55 10.71 9.05 10.89 9.97 11.88C11.44 13.47 13.07 14.71 15 14.71C16.93 14.71 18.19 14.02 19.47 12.74C19.48 12.72 19.5 12.71 19.5 12.71V6.75C19.5 5.51 18.49 4.5 17.25 4.5Z" fill="currentColor"/></g></svg>