<svg width="24px" height="24px" viewBox="0 0 24 24" fill="currentColor" xmlns="http://www.w3.org/2000/svg"><g><path d="M14.25 6.75C13.0074 6.75 12 7.75736 12 9C12 10.2426 13.0074 11.25 14.25 11.25C15.4926 11.25 16.5 10.2426 16.5 9C16.5 7.75736 15.4926 6.75 14.25 6.75Z" fill="currentColor"/><path fill-rule="evenodd" clip-rule="evenodd" d="M3 6.75C3 4.67893 4.67893 3 6.75 3H17.25C19.3211 3 21 4.67893 21 6.75V17.25C21 18.2847 20.5809 19.2215 19.9033 19.9L19.9017 19.9017C19.8818 19.9215 19.8617 19.9412 19.8414 19.9606C19.2114 20.563 18.3718 20.948 17.443 20.9951C17.3791 20.9984 17.3147 21 17.25 21H6.75C4.67893 21 3 19.3211 3 17.25V6.75ZM19.2807 18.2201L15.2374 14.1768C14.554 13.4934 13.446 13.4934 12.7626 14.1768L12 14.9393L9.21633 12.1557C8.54751 11.4869 7.46828 11.4705 6.77951 12.1188L4.5 14.2642V6.75C4.5 5.50736 5.50736 4.5 6.75 4.5H17.25C18.4926 4.5 19.5 5.50736 19.5 6.75V17.25C19.5 17.5974 19.4213 17.9263 19.2807 18.2201Z" fill="currentColor"/></g></svg>