<svg width="24px" height="24px" viewBox="0 0 24 24" fill="currentColor" xmlns="http://www.w3.org/2000/svg"><g><path d="M19.6708 1.41459C19.5438 1.1605 19.2841 1 19 1C18.7159 1 18.4562 1.1605 18.3292 1.41459L17.3576 3.35765L15.4146 4.32918C15.1605 4.45622 15 4.71592 15 5C15 5.28408 15.1605 5.54378 15.4146 5.67082L17.3576 6.64235L18.3292 8.58541C18.4562 8.8395 18.7159 9 19 9C19.2841 9 19.5438 8.8395 19.6708 8.58541L20.6424 6.64235L22.5854 5.67082C22.8395 5.54378 23 5.28408 23 5C23 4.71592 22.8395 4.45622 22.5854 4.32918L20.6424 3.35765L19.6708 1.41459Z" fill="currentColor"/><path fill-rule="evenodd" clip-rule="evenodd" d="M4.5 6.75C4.5 5.50736 5.50736 4.5 6.75 4.5H11.25C11.6642 4.5 12 4.16421 12 3.75C12 3.33579 11.6642 3 11.25 3H6.75C4.67893 3 3 4.67893 3 6.75V17.25C3 19.3211 4.67893 21 6.75 21H17.25C19.3211 21 21 19.3211 21 17.25V12.75C21 12.3358 20.6642 12 20.25 12C19.8358 12 19.5 12.3358 19.5 12.75V17.25C19.5 18.4394 18.577 19.4133 17.4082 19.4945C16.9356 16.9369 14.6942 15 12 15C9.30581 15 7.06441 16.9369 6.59178 19.4945C5.42296 19.4133 4.5 18.4394 4.5 17.25V6.75Z" fill="currentColor"/><path d="M12 7.5C10.3431 7.5 9 8.84315 9 10.5C9 12.1569 10.3431 13.5 12 13.5C13.6569 13.5 15 12.1569 15 10.5C15 8.84315 13.6569 7.5 12 7.5Z" fill="currentColor"/></g></svg>