<svg width="24px" height="24px" viewBox="0 0 24 24" fill="currentColor" xmlns="http://www.w3.org/2000/svg"><g><path fill-rule="evenodd" clip-rule="evenodd" d="M3 6.75C3 4.67893 4.67893 3 6.75 3H17.25C19.3211 3 21 4.67893 21 6.75V17.25C21 19.3211 19.3211 21 17.25 21H6.75C4.67893 21 3 19.3211 3 17.25V6.75ZM6.75 4.5C5.50736 4.5 4.5 5.50736 4.5 6.75V10.2141L5.26316 9.43139C6.7358 7.92099 9.16405 7.92202 10.6354 9.43368L14.5933 13.5H19.5V6.75C19.5 5.50736 18.4926 4.5 17.25 4.5H6.75ZM19.5 15H4.5V17.25C4.5 18.4926 5.50736 19.5 6.75 19.5H17.25C18.4926 19.5 19.5 18.4926 19.5 17.25V15ZM13.5 8.25C13.5 7.00736 14.5074 6 15.75 6C16.9926 6 18 7.00736 18 8.25C18 9.49264 16.9926 10.5 15.75 10.5C14.5074 10.5 13.5 9.49264 13.5 8.25ZM6 17.25C6 16.8358 6.33579 16.5 6.75 16.5H12.25C12.6642 16.5 13 16.8358 13 17.25C13 17.6642 12.6642 18 12.25 18H6.75C6.33579 18 6 17.6642 6 17.25ZM14.5 17.25C14.5 16.8358 14.8358 16.5 15.25 16.5H17.25C17.6642 16.5 18 16.8358 18 17.25C18 17.6642 17.6642 18 17.25 18H15.25C14.8358 18 14.5 17.6642 14.5 17.25Z" fill="currentColor"/></g></svg>