<svg width="24px" height="24px" viewBox="0 0 24 24" fill="currentColor" xmlns="http://www.w3.org/2000/svg"><g><path d="M12.5 3.75C12.5 4.16421 12.1642 4.5 11.75 4.5H6.75C5.50736 4.5 4.5 5.50736 4.5 6.75V14.2646L6.7793 12.1191C7.46807 11.4709 8.54797 11.4864 9.2168 12.1553L12 14.9395L12.7627 14.1768C13.4461 13.4934 14.5539 13.4934 15.2373 14.1768L19.2803 18.2197C19.4208 17.926 19.5 17.5973 19.5 17.25V12.25C19.5 11.8358 19.8358 11.5 20.25 11.5C20.6642 11.5 21 11.8358 21 12.25V17.25C21 18.2847 20.581 19.2219 19.9033 19.9004L19.9014 19.9014C19.8815 19.9212 19.8621 19.9415 19.8418 19.9609C19.2119 20.5633 18.372 20.948 17.4434 20.9951C17.3794 20.9984 17.3147 21 17.25 21H6.75C4.67893 21 3 19.3211 3 17.25V6.75C3 4.67893 4.67893 3 6.75 3H11.75C12.1642 3 12.5 3.33579 12.5 3.75Z" fill="currentColor"/><path d="M19.2405 4.18518L18.5436 2.37334C18.4571 2.14842 18.241 2 18 2C17.759 2 17.5429 2.14842 17.4564 2.37334L16.7595 4.18518C16.658 4.44927 16.4493 4.65797 16.1852 4.75955L14.3733 5.45641C14.1484 5.54292 14 5.75901 14 6C14 6.24099 14.1484 6.45708 14.3733 6.54359L16.1852 7.24045C16.4493 7.34203 16.658 7.55073 16.7595 7.81482L17.4564 9.62666C17.5429 9.85158 17.759 10 18 10C18.241 10 18.4571 9.85158 18.5436 9.62666L19.2405 7.81482C19.342 7.55073 19.5507 7.34203 19.8148 7.24045L21.6267 6.54359C21.8516 6.45708 22 6.24099 22 6C22 5.75901 21.8516 5.54292 21.6267 5.45641L19.8148 4.75955C19.5507 4.65797 19.342 4.44927 19.2405 4.18518Z" fill="currentColor"/></g></svg>