<svg width="24px" height="24px" viewBox="0 0 24 24" fill="currentColor" xmlns="http://www.w3.org/2000/svg"><g><path fill-rule="evenodd" clip-rule="evenodd" d="M17.4554 2.25C19.8272 2.25 21.75 4.17278 21.75 6.54465V17.4554C21.75 19.8272 19.8272 21.75 17.4554 21.75H6.54465C4.17278 21.75 2.25 19.8272 2.25 17.4554V6.54465C2.25 4.17278 4.17278 2.25 6.54465 2.25H17.4554ZM12.0002 5.62563C10.1019 5.62565 8.28146 6.25372 6.93922 7.37172C5.59697 8.48972 4.8429 10.0061 4.84289 11.5871C4.84462 12.6156 5.16573 13.6261 5.77501 14.5206C6.38428 15.4151 7.26101 16.1631 8.31998 16.6919C8.03794 17.3233 7.61493 17.9154 7.06848 18.4437C8.12818 18.2577 9.12295 17.8669 9.97535 17.3017C10.6326 17.4644 11.3145 17.5476 12.0002 17.5487C13.8984 17.5487 15.7188 16.9206 17.0611 15.8026C18.4033 14.6846 19.1574 13.1682 19.1574 11.5871C19.1574 10.0061 18.4033 8.48972 17.0611 7.37172C15.7188 6.25373 13.8984 5.62565 12.0002 5.62563Z" fill="currentColor"/></g></svg>