<svg width="24px" height="24px" viewBox="0 0 24 24" fill="currentColor" xmlns="http://www.w3.org/2000/svg"><g><path d="M2.75 4C2.33579 4 2 4.33579 2 4.75C2 5.16421 2.33579 5.5 2.75 5.5H7C9.34721 5.5 11.25 7.40279 11.25 9.75V13.1893L8.78033 10.7197C8.48744 10.4268 8.01256 10.4268 7.71967 10.7197C7.42678 11.0126 7.42678 11.4874 7.71967 11.7803L11.4697 15.5303C11.7626 15.8232 12.2374 15.8232 12.5303 15.5303L16.2803 11.7803C16.5732 11.4874 16.5732 11.0126 16.2803 10.7197C15.9874 10.4268 15.5126 10.4268 15.2197 10.7197L12.75 13.1893V9.75C12.75 6.57436 10.1756 4 7 4H2.75Z" fill="currentColor"/><path d="M15.75 4C15.3358 4 15 4.33579 15 4.75C15 5.16421 15.3358 5.5 15.75 5.5H18.25C19.4926 5.5 20.5 6.50736 20.5 7.75V16.25C20.5 17.4926 19.4926 18.5 18.25 18.5H5.75C4.50736 18.5 3.5 17.4926 3.5 16.25V8.75C3.5 8.33579 3.16421 8 2.75 8C2.33579 8 2 8.33579 2 8.75V16.25C2 18.3211 3.67893 20 5.75 20H18.25C20.3211 20 22 18.3211 22 16.25V7.75C22 5.67893 20.3211 4 18.25 4H15.75Z" fill="currentColor"/></g></svg>