<svg width="24px" height="24px" viewBox="0 0 24 24" fill="currentColor" xmlns="http://www.w3.org/2000/svg"><g><path d="M17 4C13.8244 4 11.25 6.57436 11.25 9.75V13.1893L8.78033 10.7197C8.48744 10.4268 8.01256 10.4268 7.71967 10.7197C7.42678 11.0126 7.42678 11.4874 7.71967 11.7803L11.4697 15.5303C11.7626 15.8232 12.2374 15.8232 12.5303 15.5303L16.2803 11.7803C16.5732 11.4874 16.5732 11.0126 16.2803 10.7197C15.9874 10.4268 15.5126 10.4268 15.2197 10.7197L12.75 13.1893V9.75C12.75 7.40279 14.6528 5.5 17 5.5H21.25C21.6642 5.5 22 5.16421 22 4.75C22 4.33579 21.6642 4 21.25 4H17Z" fill="currentColor"/><path d="M3.5 7.75C3.5 6.50736 4.50736 5.5 5.75 5.5H8.25C8.66421 5.5 9 5.16421 9 4.75C9 4.33579 8.66421 4 8.25 4H5.75C3.67893 4 2 5.67893 2 7.75V16.25C2 18.3211 3.67893 20 5.75 20H18.25C20.3211 20 22 18.3211 22 16.25V8.75C22 8.33579 21.6642 8 21.25 8C20.8358 8 20.5 8.33579 20.5 8.75V16.25C20.5 17.4926 19.4926 18.5 18.25 18.5H5.75C4.50736 18.5 3.5 17.4926 3.5 16.25V7.75Z" fill="currentColor"/></g></svg>