<svg width="24px" height="24px" viewBox="0 0 24 24" fill="currentColor" xmlns="http://www.w3.org/2000/svg"><g><path fill-rule="evenodd" clip-rule="evenodd" d="M4.34629 6.03966C4.98799 4.78756 6.27658 4 7.68354 4H16.3165C17.7234 4 19.012 4.78755 19.6537 6.03966L22.5872 11.7636C22.8585 12.293 23 12.8792 23 13.474V16.25C23 18.3211 21.3211 20 19.25 20H4.75C2.67893 20 1 18.3211 1 16.25V13.474C1 12.8792 1.14148 12.293 1.41275 11.7636L4.34629 6.03966ZM21.5 13.5H16.8488C16.2865 13.5 15.7561 13.7613 15.4134 14.2071C14.7867 15.0223 13.8169 15.5 12.7887 15.5H11.2113C10.1831 15.5 9.2133 15.0223 8.58664 14.2071C8.24392 13.7613 7.7135 13.5 7.15116 13.5H2.5V16.25C2.5 17.4926 3.50736 18.5 4.75 18.5H19.25C20.4926 18.5 21.5 17.4926 21.5 16.25V13.5Z" fill="currentColor"/></g></svg>