<svg width="24px" height="24px" viewBox="0 0 24 24" fill="currentColor" xmlns="http://www.w3.org/2000/svg"><g><path fill-rule="evenodd" clip-rule="evenodd" d="M18.1728 3.6306C18.5149 3.8641 18.603 4.33074 18.3695 4.67286L11.5445 14.6729C11.4177 14.8585 11.2144 14.9776 10.9905 14.9972C10.7665 15.0168 10.5456 14.935 10.3885 14.7741L6.71349 11.012C6.42405 10.7157 6.42962 10.2408 6.72592 9.95138C7.02223 9.66194 7.49707 9.66751 7.78651 9.96381L10.8217 13.071L17.1305 3.82728C17.364 3.48516 17.8307 3.3971 18.1728 3.6306ZM3.75 14.0001C4.16421 14.0001 4.5 14.3359 4.5 14.7501V15.4501C4.5 16.3025 4.50058 16.8968 4.53838 17.3594C4.57547 17.8133 4.6446 18.074 4.74524 18.2716C4.96095 18.6949 5.30516 19.0391 5.72852 19.2548C5.92604 19.3555 6.1868 19.4246 6.64068 19.4617C7.10331 19.4995 7.69755 19.5001 8.55 19.5001H15.45C16.3025 19.5001 16.8967 19.4995 17.3593 19.4617C17.8132 19.4246 18.074 19.3555 18.2715 19.2548C18.6948 19.0391 19.0391 18.6949 19.2548 18.2716C19.3554 18.074 19.4245 17.8133 19.4616 17.3594C19.4994 16.8968 19.5 16.3025 19.5 15.4501V14.7501C19.5 14.3359 19.8358 14.0001 20.25 14.0001C20.6642 14.0001 21 14.3359 21 14.7501V15.4822C21 16.295 21 16.9506 20.9566 17.4815C20.912 18.0282 20.8176 18.5083 20.5913 18.9525C20.2317 19.6581 19.6581 20.2318 18.9525 20.5913C18.5082 20.8177 18.0281 20.912 17.4815 20.9567C16.9506 21.0001 16.295 21.0001 15.4821 21.0001H8.51788C7.70505 21.0001 7.04944 21.0001 6.51853 20.9567C5.9719 20.912 5.49175 20.8177 5.04754 20.5913C4.34193 20.2318 3.76825 19.6581 3.40873 18.9525C3.18239 18.5083 3.08803 18.0282 3.04336 17.4815C2.99999 16.9506 2.99999 16.295 3 15.4822L3 14.7501C3 14.3359 3.33579 14.0001 3.75 14.0001Z" fill="currentColor"/></g></svg>