<svg width="24px" height="24px" viewBox="0 0 24 24" fill="currentColor" xmlns="http://www.w3.org/2000/svg"><g><path d="M15.4697 15.4697C15.7626 15.1769 16.2373 15.1768 16.5302 15.4697L19.7802 18.7197C20.0731 19.0126 20.0731 19.4874 19.7802 19.7803L16.5302 23.0303C16.2373 23.3232 15.7626 23.3231 15.4697 23.0303C15.1768 22.7374 15.1768 22.2626 15.4697 21.9697L17.4394 20H8.75091C8.33678 19.9999 8.00091 19.6642 8.00091 19.25C8.00091 18.8358 8.33678 18.5001 8.75091 18.5H17.4394L15.4697 16.5303C15.1768 16.2374 15.1768 15.7626 15.4697 15.4697Z" fill="currentColor"/><path d="M4.74993 4C4.94873 4.00008 5.13962 4.07915 5.28021 4.21973L8.53021 7.46973C8.82305 7.7626 8.82304 8.23738 8.53021 8.53027C8.23733 8.82315 7.76256 8.82312 7.46966 8.53027L5.49993 6.56055V15.2539C5.4999 15.6681 5.1641 16.0039 4.74993 16.0039C4.33574 16.0039 3.99997 15.6681 3.99993 15.2539V6.56055L2.03021 8.53027C1.73733 8.82315 1.26256 8.82312 0.969661 8.53027C0.676776 8.23739 0.676784 7.76262 0.969661 7.46973L4.21966 4.21973L4.33392 4.12598C4.45617 4.04454 4.60087 4.00001 4.74993 4Z" fill="currentColor"/><path d="M19.2499 10C19.6641 10 19.9999 10.3358 19.9999 10.75V13.25C19.9999 13.6642 19.6641 14 19.2499 14C18.8357 14 18.4999 13.6642 18.4999 13.25V10.75C18.4999 10.3358 18.8357 10 19.2499 10Z" fill="currentColor"/><path d="M16.0058 4.66797C16.0738 4.25941 16.4605 3.98287 16.8691 4.05078C18.445 4.31298 19.6872 5.55579 19.9492 7.13184C20.017 7.54039 19.7405 7.9262 19.332 7.99414C18.9236 8.06186 18.5377 7.78628 18.4697 7.37793C18.3129 6.43459 17.5663 5.68824 16.623 5.53125C16.2144 5.46328 15.9379 5.07653 16.0058 4.66797Z" fill="currentColor"/><path d="M13.2499 4C13.6641 4.00004 13.9999 4.33581 13.9999 4.75C13.9999 5.16419 13.6641 5.49996 13.2499 5.5H10.7499C10.3357 5.5 9.99993 5.16421 9.99993 4.75C9.99993 4.33579 10.3357 4 10.7499 4H13.2499Z" fill="currentColor"/></g></svg>