<svg width="24px" height="24px" viewBox="0 0 24 24" fill="currentColor" xmlns="http://www.w3.org/2000/svg"><g><path fill-rule="evenodd" clip-rule="evenodd" d="M17.2196 2.21978C17.4942 1.94531 17.9289 1.92775 18.2235 2.16802L18.2801 2.21978L21.7801 5.71978L21.8319 5.77642C22.0721 6.07095 22.0546 6.50572 21.7801 6.78033C21.5055 7.05492 21.0708 7.07236 20.7762 6.83209L20.7196 6.78033L19.4998 5.5606L17.5604 7.50005L20.7801 10.7198L20.8319 10.7764C21.0721 11.071 21.0546 11.5057 20.7801 11.7803C20.5055 12.0549 20.0708 12.0724 19.7762 11.8321L19.7196 11.7803L18.577 10.6377L12.0116 17.2032C10.7532 18.4616 8.81139 18.6198 7.3807 17.6788L3.53011 21.5303C3.23728 21.8229 2.76241 21.8229 2.46956 21.5303C2.17674 21.2375 2.17688 20.7627 2.46956 20.4698L6.32015 16.6182C5.38004 15.1877 5.5388 13.2473 6.79671 11.9893L13.3621 5.42291L12.2196 4.28033L12.1678 4.22369C11.9275 3.92911 11.945 3.49438 12.2196 3.21978C12.4942 2.94531 12.9289 2.92775 13.2235 3.16802L13.2801 3.21978L16.4998 6.43951L18.4393 4.50005L17.2196 3.28033L17.1678 3.22369C16.9275 2.92911 16.945 2.49438 17.2196 2.21978Z" fill="currentColor"/></g></svg>