<svg width="24px" height="24px" viewBox="0 0 24 24" fill="currentColor" xmlns="http://www.w3.org/2000/svg"><g><path fill-rule="evenodd" clip-rule="evenodd" d="M7.75 3.5C6.50736 3.5 5.5 4.50736 5.5 5.75V10.8534L11.3059 12.7364C11.7571 12.8827 12.2429 12.8827 12.6941 12.7364L18.5 10.8534V5.75C18.5 4.50736 17.4926 3.5 16.25 3.5H7.75ZM20 10.3929V5.75C20 3.67893 18.3211 2 16.25 2H7.75C5.67893 2 4 3.67893 4 5.75V10.3929C2.96957 10.241 2 11.0387 2 12.1256V17.25C2 19.3211 3.67893 21 5.75 21H18.25C20.3211 21 22 19.3211 22 17.25V12.1256C22 11.0387 21.0304 10.241 20 10.3929ZM9 7.75C9 7.33579 9.33579 7 9.75 7H14.25C14.6642 7 15 7.33579 15 7.75C15 8.16421 14.6642 8.5 14.25 8.5H9.75C9.33579 8.5 9 8.16421 9 7.75Z" fill="currentColor"/></g></svg>