<svg width="24px" height="24px" viewBox="0 0 24 24" fill="currentColor" xmlns="http://www.w3.org/2000/svg"><g><path d="M13.7163 0C14.219 0.510808 14.5328 1.06232 14.5431 1.8149C14.5565 2.80531 14.0258 4.18835 11.9334 5.83119C10.6562 6.84505 10.2788 7.67154 10.3084 8.3877C10.3385 9.11509 10.7862 9.76024 11.2482 10.4208L11.2514 10.4255C11.5175 10.806 11.7871 11.1914 11.9623 11.5897L11.8073 11.7022C10.8289 10.8267 9.97653 9.99343 9.49132 9.19348C9.24801 8.79236 9.09343 8.39402 9.06456 7.99832C9.03553 7.60052 9.13411 7.21189 9.38609 6.83384C9.86385 6.11146 10.6175 5.51597 11.3629 4.92692L11.3707 4.92076C12.1259 4.32403 12.8731 3.7325 13.3637 3.01156C14.0052 2.0687 13.9839 1.05989 13.7163 0Z" fill="currentColor"/><path d="M13.08 11.0107C13.061 10.7778 12.9634 10.5202 12.7267 10.2509C11.8711 9.26437 11.662 8.39411 11.8595 7.64313C12.0551 6.89941 12.6427 6.29933 13.3201 5.83253C13.9995 5.36436 14.7831 5.02069 15.3945 4.79439C15.7007 4.68107 15.9647 4.59681 16.1523 4.54082C16.2501 4.51164 16.3483 4.48359 16.4472 4.45816L16.4512 4.45714L16.4527 4.45676L16.5253 4.63671C15.4614 5.25056 14.7022 5.75863 14.1766 6.1965C13.6499 6.63518 13.3652 6.99731 13.2389 7.31718C13.1148 7.63161 13.1401 7.91473 13.2572 8.20854C13.399 8.56407 13.6742 8.9304 13.9797 9.37389C14.2866 9.79852 14.3537 10.2106 14.2736 10.5882C14.1944 10.9617 13.9736 11.2917 13.7225 11.5627C13.4707 11.8343 13.1827 12.0528 12.959 12.2028C12.8341 12.2866 12.7058 12.3668 12.5725 12.4367L12.5702 12.4379L12.4641 12.2743L12.4662 12.2725C12.6655 12.103 12.8346 11.8859 12.9483 11.651C13.0395 11.4625 13.0992 11.2449 13.08 11.0107Z" fill="currentColor"/><path d="M8.70637 14.0778L8.61583 13.9069C8.17828 14.0542 7.86996 14.207 7.68183 14.3632C7.49342 14.5197 7.40375 14.7013 7.47284 14.8902C7.53546 15.0613 7.71821 15.1985 7.95612 15.3086C8.19983 15.4214 8.5256 15.5167 8.91213 15.5905C11.1767 16.023 13.5888 15.687 15.7752 15.0357C15.3589 14.8969 14.9634 14.7444 14.6604 14.4079C12.8143 14.7825 11.0105 14.8761 9.1378 14.6924C8.74002 14.6516 8.20259 14.4787 8.70504 14.0788L8.70637 14.0778Z" fill="currentColor"/><path d="M18.0675 17.9914L18.1697 17.8271C18.4392 17.9488 18.6196 18.107 18.6236 18.312C18.642 19.2641 16.1579 19.5503 15.5998 19.649C13.1364 20.0848 9.38058 20.2307 5.26457 19.5591C4.88691 19.4983 4.61642 19.4172 4.43911 19.3178C4.26175 19.2184 4.15646 19.0871 4.16449 18.925C4.17192 18.7749 4.2769 18.6379 4.41153 18.5211C4.55001 18.401 4.73915 18.2856 4.95362 18.1805C5.3831 17.9702 5.93073 17.7936 6.42211 17.704C6.90914 17.6153 7.35589 17.5949 7.6036 17.7672L7.86005 17.9456C7.20639 17.946 6.50391 18.0586 5.91759 18.3599C5.76602 18.4378 5.54193 18.5747 5.8001 18.6853C6.30016 18.902 7.13276 19.0557 8.1468 19.1512C9.15761 19.2463 10.3383 19.2828 11.5276 19.2699C13.91 19.2442 16.3112 19.0207 17.4481 18.6815C17.7512 18.5889 17.9329 18.4927 18.0381 18.406C18.1737 18.2942 18.2065 18.1256 18.0724 17.9969L18.0697 17.9943L18.0675 17.9914Z" fill="currentColor"/><path d="M9.56307 11.7589L9.56054 11.7595C9.03502 11.8877 8.5064 12.0331 8.00589 12.2394C7.37614 12.499 7.56957 12.6861 8.21297 12.7688C9.23268 12.9048 11.2509 12.8713 13.1398 12.734C14.1704 12.6424 15.1992 12.5026 16.2183 12.3237L16.2227 12.3229L16.2791 12.5091L16.2777 12.5098L16.2732 12.5118C16.1681 12.5585 16.064 12.6073 15.9607 12.6577C13.7287 13.7478 11.0061 13.6558 8.57284 13.5178C7.55037 13.4598 6.69949 13.3382 6.23315 13.1611C5.6921 12.9556 5.74243 12.5729 6.23327 12.3315C7.13739 11.8968 7.96429 11.705 8.56501 11.6223C8.88679 11.578 9.21647 11.5481 9.54184 11.5655L9.54557 11.5657L9.54716 11.5658L9.56307 11.7589Z" fill="currentColor"/><path d="M18.4623 12.7495C18.5707 13.3802 18.113 14.328 16.1948 15.3213C16.1948 15.3213 15.9162 15.6279 15.8474 15.6968L16.1958 15.6062C17.494 15.2687 18.3578 14.7965 18.8804 14.2833C19.4043 13.7688 19.5869 13.2104 19.5103 12.7136C19.2941 11.3115 17.0467 10.7927 16.3986 12.0888C16.6362 11.97 16.8182 11.8874 17.0843 11.8282C17.6562 11.7178 18.3527 12.1115 18.4623 12.7495Z" fill="currentColor"/><path d="M16.3628 20.0531C15.6875 20.1779 14.9775 20.2728 14.256 20.3411C11.7375 20.5797 9.16964 20.5436 6.67188 20.1335C6.67188 20.1335 7.08604 20.4817 7.52011 20.6045C7.95418 20.7273 8.69169 20.8654 9.91577 20.9344C12.7052 21.1152 16.5919 20.9559 18.4558 20.1044C19.0704 19.8237 19.4971 19.45 19.536 18.9547L19.3447 18.9149C19.2519 19.0729 19.0597 19.1819 18.907 19.2685L18.9047 19.2698C18.501 19.4987 17.7481 19.7966 16.3628 20.0531Z" fill="currentColor"/><path d="M9.21509 16.3166L9.21406 16.3172L9.20907 16.3204C9.20452 16.3234 9.19772 16.3279 9.18935 16.3339C9.17249 16.3458 9.14987 16.3628 9.1267 16.3834C9.07592 16.4286 9.04018 16.4752 9.03224 16.5115C9.02921 16.5254 9.03048 16.5362 9.03701 16.5482C9.04464 16.5621 9.06379 16.5849 9.11077 16.6113C9.20694 16.6655 9.39215 16.7198 9.72383 16.7538L9.72624 16.7541C11.3179 16.9573 12.1657 16.9256 13.917 16.5907C14.4113 16.7806 14.875 17.0391 15.3728 17.2225L15.1462 17.3193C13.1142 18.1877 10.8157 18.1619 9.41903 17.8051C9.06925 17.7158 8.772 17.6047 8.54794 17.4791C8.32792 17.3557 8.16142 17.2089 8.10171 17.0396C8.07071 16.9516 8.06958 16.8601 8.10244 16.7701C8.13466 16.6819 8.19725 16.6013 8.28381 16.5279C8.45539 16.3824 8.73768 16.2516 9.13749 16.1386L9.21509 16.3166Z" fill="currentColor"/></g></svg>