<svg width="24px" height="24px" viewBox="0 0 24 24" fill="currentColor" xmlns="http://www.w3.org/2000/svg"><g><path d="M20.6377 7.45728C21.7229 10.5946 20.6571 14.6546 17.6553 17.6565C13.75 21.5617 8.05191 22.1947 4.92773 19.0706C4.75021 18.893 4.58596 18.7063 4.43262 18.5129C6.50585 15.2263 9.2994 14.1229 12.3613 12.9319C15.1957 11.8294 18.2565 10.6517 20.6377 7.45728ZM6.3418 6.34302C10.247 2.43777 15.9461 1.80476 19.0703 4.92896C19.2477 5.10634 19.4112 5.2934 19.5645 5.48657C17.4912 8.77316 14.6986 9.87757 11.6367 11.0686C8.80231 12.1711 5.74061 13.3478 3.35938 16.5422C2.27447 13.405 3.34017 9.3447 6.3418 6.34302Z" fill="currentColor"/></g></svg>