<svg width="24px" height="24px" viewBox="0 0 24 24" fill="currentColor" xmlns="http://www.w3.org/2000/svg"><g><path d="M12.1698 20.3701C12.1698 20.3701 12.1686 20.3696 12.1672 20.3692L12.1627 20.3683C12.1661 20.3692 12.1695 20.3701 12.1698 20.3701ZM17.2207 10.7522C17.2207 10.5113 17.2113 10.2785 17.1983 10.0533C17.1915 9.93565 17.1842 9.82005 17.1741 9.70658C17.1696 9.65596 17.164 9.60585 17.1589 9.55605C17.1458 9.42975 17.1311 9.30613 17.1141 9.1851C17.1083 9.14358 17.1025 9.10236 17.0962 9.06145C17.0761 8.93055 17.0544 8.80268 17.0299 8.67795C17.0269 8.66297 17.0239 8.64804 17.0209 8.63315C16.9917 8.48839 16.9598 8.34771 16.925 8.21112C16.91 8.15227 16.8926 8.09468 16.8766 8.03729C16.8577 7.96939 16.8386 7.90244 16.8184 7.83659C16.8032 7.78704 16.7877 7.73805 16.7718 7.68964C16.7439 7.60484 16.7149 7.52187 16.6849 7.44054C16.6709 7.4026 16.6572 7.36486 16.6428 7.32765C16.6029 7.22474 16.5612 7.12479 16.5182 7.02748C16.3947 6.74796 16.2582 6.49148 16.1132 6.25511C16.0799 6.20072 16.0471 6.14689 16.0129 6.09472C15.9885 6.05752 15.9642 6.02062 15.9394 5.98451C15.8863 5.90726 15.832 5.83278 15.7772 5.7605C15.5654 5.48109 15.3419 5.23715 15.1142 5.02487C15.0423 4.95787 14.9702 4.89349 14.8973 4.83222C14.7475 4.70626 14.5961 4.59209 14.4448 4.48905C14.3788 4.44404 14.3125 4.40177 14.2468 4.36092C14.2419 4.35786 14.2374 4.3541 14.2325 4.35106C14.1663 4.31022 14.1 4.27226 14.0345 4.23547C13.8545 4.13447 13.6773 4.04907 13.5067 3.97652C13.3381 3.90476 13.1762 3.8458 13.0238 3.79911C12.9504 3.77663 12.8807 3.75742 12.815 3.74087C12.5107 3.68732 12.2314 3.66112 11.9826 3.66112C7.71531 3.66113 3.65244 7.19955 3.65226 12.0138C3.65226 14.4837 4.64705 16.4522 6.08138 17.855C6.0719 17.8346 6.06296 17.8138 6.0536 17.7932C6.02767 17.736 6.00242 17.678 5.97744 17.6193C5.9663 17.5932 5.95523 17.5669 5.94429 17.5405C5.92397 17.4914 5.90389 17.4419 5.88425 17.3918C5.86789 17.35 5.85175 17.3079 5.83587 17.2654C5.82598 17.239 5.816 17.2124 5.8063 17.1857C5.78076 17.1153 5.75611 17.0439 5.73193 16.9715C5.72894 16.9626 5.72594 16.9536 5.72297 16.9446C5.7069 16.8961 5.69092 16.8471 5.67548 16.7977C5.66115 16.7518 5.64714 16.7055 5.63337 16.6588C5.62053 16.6153 5.60897 16.5712 5.59663 16.5271C5.58624 16.4899 5.57531 16.4527 5.56527 16.4151C5.52315 16.2572 5.48444 16.095 5.44879 15.9286C5.44343 15.9035 5.43786 15.8785 5.43266 15.8533C5.42317 15.8074 5.41476 15.761 5.40578 15.7144C5.39526 15.6598 5.38423 15.605 5.37442 15.5495C5.36172 15.4777 5.35006 15.4051 5.33858 15.3318C5.33484 15.308 5.33053 15.2841 5.32693 15.2601C5.31799 15.2006 5.30997 15.1405 5.30184 15.08C5.22736 14.5254 5.18625 13.9282 5.18625 13.2862C5.18646 8.46412 8.87786 5.62848 12.2505 6.79093C12.3009 6.80834 12.3479 6.83213 12.393 6.85813C13.0033 7.1369 15.4984 8.49826 15.4986 12.0425L15.4896 12.4018C15.4167 13.8524 14.9053 14.9107 14.3131 15.6624C14.6738 15.5163 15.0383 15.3012 15.3866 15.0101C16.4095 14.1549 17.2207 12.6991 17.2207 10.7522ZM11.6636 17.2439C11.667 17.2454 11.67 17.2479 11.6734 17.2493C11.6577 17.2428 11.6455 17.2374 11.6385 17.2341C11.6337 17.2318 11.6287 17.2296 11.6251 17.2278H11.626C11.64 17.234 11.6526 17.2393 11.6636 17.2439ZM10.1269 12.0237C10.1269 14.1932 11.3866 15.2014 11.9817 15.5576C12.5757 15.2014 13.8463 14.1902 13.8463 12.0425C13.8462 9.85963 12.5714 8.85295 11.9799 8.50233C11.7769 8.62656 11.5055 8.82205 11.2335 9.10177C10.6916 9.65924 10.1269 10.5729 10.1269 12.0237ZM22.0028 11.9941C22.0028 17.7862 17.1327 22 12.0202 22C12.0139 22 12.0073 21.9983 12.0005 21.9982C11.9945 21.9983 11.9886 22 11.9826 22C7.66966 22 2.175 18.5779 2.00448 12.314L2 12.0138C2.0002 6.22187 6.87018 2.00886 11.9826 2.00886L11.9933 2.00976C12.2097 1.98998 12.4636 2.00003 12.7397 2.04201C16.99 2.40124 22.0026 5.8884 22.0028 11.9941ZM11.6152 17.2224C11.0639 16.9783 8.47558 15.6339 8.47555 12.0237C8.47555 10.4002 9.01938 9.2164 9.66457 8.39212C8.17949 8.92109 6.83775 10.5336 6.83762 13.2862C6.83762 13.9169 6.88173 14.4899 6.95948 15.0101C6.97946 15.1438 7.00226 15.2739 7.02668 15.4008C7.03315 15.4344 7.03872 15.468 7.0455 15.5012C7.07276 15.6346 7.10319 15.7641 7.1351 15.89C7.14101 15.9134 7.14606 15.9368 7.15212 15.9599C7.16916 16.0248 7.18947 16.0879 7.20768 16.1508C7.23253 16.2366 7.25602 16.3213 7.28294 16.4034C7.30261 16.4635 7.32495 16.5218 7.34566 16.58C7.3731 16.657 7.39982 16.7329 7.429 16.8067C7.45266 16.8665 7.47862 16.9245 7.50336 16.9823C7.53097 17.0467 7.55782 17.1104 7.58669 17.1722C7.61687 17.2369 7.64931 17.2993 7.68078 17.3613C7.70845 17.4158 7.73461 17.4702 7.76321 17.5226C7.7947 17.5803 7.82834 17.6358 7.86088 17.691C7.88996 17.7404 7.91795 17.7896 7.94779 17.8371C7.98453 17.8955 8.02289 17.9517 8.06069 18.0073C8.08826 18.0479 8.11504 18.0883 8.14312 18.1274C8.18846 18.1905 8.23547 18.2508 8.28201 18.3102C8.30145 18.335 8.31973 18.3604 8.33935 18.3846C8.38651 18.4426 8.43552 18.4976 8.48361 18.5521C8.5086 18.5804 8.53278 18.609 8.55798 18.6363C8.60412 18.6864 8.65102 18.7345 8.69776 18.7815C8.72237 18.8062 8.7465 18.8311 8.77124 18.855C8.81852 18.9007 8.86607 18.9448 8.9137 18.9876C8.9386 19.0099 8.96312 19.0323 8.98807 19.0539C9.05569 19.1123 9.12371 19.1676 9.19147 19.2205C9.26942 19.2814 9.34779 19.3389 9.42623 19.3935C9.49047 19.4382 9.55469 19.4809 9.61887 19.5216C10.5349 20.1021 11.4308 20.2846 11.8383 20.3316L11.9987 20.345L12.0256 20.3468C16.2909 20.3439 20.3505 16.8066 20.3505 11.9941C20.3504 9.53811 19.3662 7.57835 17.9447 6.17715C17.9658 6.22202 17.9878 6.26675 18.0083 6.31245C18.0976 6.51127 18.1809 6.71822 18.2583 6.9334C18.2775 6.98667 18.2964 7.0404 18.3148 7.09468C18.3457 7.18586 18.3757 7.27836 18.4044 7.37245C18.4134 7.40218 18.4224 7.43203 18.4312 7.46205C18.4659 7.57987 18.4989 7.69987 18.5298 7.82225C18.5352 7.84369 18.5406 7.86518 18.5459 7.88676C18.6082 8.14007 18.6618 8.40314 18.7072 8.67616C18.7138 8.71595 18.7198 8.75601 18.726 8.79623C18.7458 8.92376 18.7648 9.05325 18.7807 9.1851C18.7831 9.20474 18.7847 9.2245 18.787 9.24424C18.801 9.36547 18.8131 9.4885 18.8237 9.6134C18.8265 9.64615 18.8301 9.67895 18.8327 9.71196C18.8443 9.86396 18.8531 10.0187 18.8595 10.1761C18.8609 10.2082 18.862 10.2405 18.8631 10.2729C18.8685 10.43 18.8721 10.5897 18.8721 10.7522L18.8604 11.202C18.743 13.4174 17.7629 15.1759 16.4457 16.2771C15.0762 17.4219 13.258 17.9044 11.7111 17.2636V17.2654C11.7071 17.2639 11.7011 17.2605 11.6932 17.2574C11.6887 17.2555 11.6842 17.2539 11.6797 17.252C11.6776 17.2511 11.6756 17.2502 11.6734 17.2493V17.2484C11.6703 17.2471 11.6671 17.2454 11.6636 17.2439C11.6472 17.2369 11.6311 17.2296 11.6152 17.2215V17.2224Z" fill="currentColor"/></g></svg>