<svg width="24px" height="24px" viewBox="0 0 24 24" fill="currentColor" xmlns="http://www.w3.org/2000/svg"><g><path fill-rule="evenodd" clip-rule="evenodd" d="M16.4999 2C19.5374 2.00007 21.9999 4.46248 21.9999 7.5C21.9999 10.5375 19.5374 12.9999 16.4999 13C15.2488 13 14.0958 12.5815 13.1717 11.8779L9.14538 15.7988L9.99499 16.6484C10.9463 17.6002 10.9464 19.143 9.99499 20.0947C9.04316 21.0466 7.49958 21.0465 6.54772 20.0947L5.65221 19.1992L4.02331 20.7871C3.72664 21.076 3.25175 21.0699 2.96276 20.7734C2.67387 20.4767 2.67989 20.0019 2.97643 19.7129L12.1122 10.8164C11.4141 9.89435 10.9999 8.74564 10.9999 7.5C10.9999 4.46243 13.4623 2 16.4999 2ZM16.4999 3.5C14.2907 3.5 12.4999 5.29086 12.4999 7.5C12.4999 9.70914 14.2907 11.5 16.4999 11.5C18.7089 11.4999 20.4999 9.7091 20.4999 7.5C20.4999 5.2909 18.7089 3.50007 16.4999 3.5Z" fill="currentColor"/></g></svg>