<svg width="24px" height="24px" viewBox="0 0 24 24" fill="currentColor" xmlns="http://www.w3.org/2000/svg"><g><path fill-rule="evenodd" clip-rule="evenodd" d="M22 8.5C22 12.0899 19.0899 15 15.5 15C14.7504 15 14.0304 14.8731 13.3604 14.6396L11.5858 16.4142C11.2107 16.7893 10.702 17 10.1716 17H9.5C9.22386 17 9 17.2239 9 17.5V18.1716C9 18.702 8.78929 19.2107 8.41421 19.5858L7.58579 20.4142C7.21071 20.7893 6.70201 21 6.17157 21H4C3.44772 21 3 20.5523 3 20V17.8284C3 17.298 3.21071 16.7893 3.58579 16.4142L9.36037 10.6396C9.12689 9.96959 9 9.24962 9 8.5C9 4.91015 11.9101 2 15.5 2C19.0899 2 22 4.91015 22 8.5ZM17 8.5C17 9.32843 16.3284 10 15.5 10C14.6716 10 14 9.32843 14 8.5C14 7.67157 14.6716 7 15.5 7C16.3284 7 17 7.67157 17 8.5Z" fill="currentColor"/></g></svg>