<svg width="24px" height="24px" viewBox="0 0 24 24" fill="currentColor" xmlns="http://www.w3.org/2000/svg"><g><path fill-rule="evenodd" clip-rule="evenodd" d="M6.75 3C4.67893 3 3 4.67893 3 6.75V18.25C3 20.3211 4.67893 22 6.75 22H17.25C19.3211 22 21 20.3211 21 18.25V6.75C21 4.67893 19.3211 3 17.25 3H6.75ZM6.5 4.51373C5.37501 4.63809 4.5 5.59186 4.5 6.75V18.25C4.5 19.4926 5.50736 20.5 6.75 20.5H8V13.5H7.25C6.83579 13.5 6.5 13.1642 6.5 12.75V4.51373ZM9.5 20.5H14.5V13.5H13.75C13.3358 13.5 13 13.1642 13 12.75V4.5H11V12.75C11 13.1642 10.6642 13.5 10.25 13.5H9.5V20.5ZM17.5 4.51373V12.75C17.5 13.1642 17.1642 13.5 16.75 13.5H16V20.5H17.25C18.4926 20.5 19.5 19.4926 19.5 18.25V6.75C19.5 5.59186 18.625 4.63809 17.5 4.51373Z" fill="currentColor"/></g></svg>