<svg width="24px" height="24px" viewBox="0 0 24 24" fill="currentColor" xmlns="http://www.w3.org/2000/svg"><g><path d="M13.4697 5.53033C13.7626 5.82322 14.2374 5.82322 14.5303 5.53033C14.8232 5.23744 14.8232 4.76256 14.5303 4.46967L12.5303 2.46967C12.2374 2.17678 11.7626 2.17678 11.4697 2.46967L9.46967 4.46967C9.17678 4.76256 9.17678 5.23744 9.46967 5.53033C9.76256 5.82322 10.2374 5.82322 10.5303 5.53033L12 4.06066L13.4697 5.53033Z" fill="currentColor"/><path fill-rule="evenodd" clip-rule="evenodd" d="M1 11.75C1 9.67893 2.67893 8 4.75 8H19.25C21.3211 8 23 9.67893 23 11.75V18.25C23 20.3211 21.3211 22 19.25 22H4.75C2.67893 22 1 20.3211 1 18.25V11.75ZM9.75 16.5C9.33579 16.5 9 16.8358 9 17.25C9 17.6642 9.33579 18 9.75 18H14.25C14.6642 18 15 17.6642 15 17.25C15 16.8358 14.6642 16.5 14.25 16.5H9.75ZM5.75 13.75C6.30228 13.75 6.75 13.3023 6.75 12.75C6.75 12.1977 6.30228 11.75 5.75 11.75C5.19772 11.75 4.75 12.1977 4.75 12.75C4.75 13.3023 5.19772 13.75 5.75 13.75ZM5.75 18.25C6.30228 18.25 6.75 17.8023 6.75 17.25C6.75 16.6977 6.30228 16.25 5.75 16.25C5.19772 16.25 4.75 16.6977 4.75 17.25C4.75 17.8023 5.19772 18.25 5.75 18.25ZM19.2502 12.75C19.2502 13.3023 18.8025 13.75 18.2502 13.75C17.698 13.75 17.2502 13.3023 17.2502 12.75C17.2502 12.1977 17.698 11.75 18.2502 11.75C18.8025 11.75 19.2502 12.1977 19.2502 12.75ZM18.2502 18.25C18.8025 18.25 19.2502 17.8023 19.2502 17.25C19.2502 16.6977 18.8025 16.25 18.2502 16.25C17.698 16.25 17.2502 16.6977 17.2502 17.25C17.2502 17.8023 17.698 18.25 18.2502 18.25ZM10.75 12.75C10.75 13.3023 10.3023 13.75 9.75 13.75C9.19772 13.75 8.75 13.3023 8.75 12.75C8.75 12.1977 9.19772 11.75 9.75 11.75C10.3023 11.75 10.75 12.1977 10.75 12.75ZM14.25 13.75C14.8023 13.75 15.25 13.3023 15.25 12.75C15.25 12.1977 14.8023 11.75 14.25 11.75C13.6977 11.75 13.25 12.1977 13.25 12.75C13.25 13.3023 13.6977 13.75 14.25 13.75Z" fill="currentColor"/></g></svg>