<svg width="24px" height="24px" viewBox="0 0 24 24" fill="currentColor" xmlns="http://www.w3.org/2000/svg"><g><path fill-rule="evenodd" clip-rule="evenodd" d="M1 5.75C1 3.67893 2.67893 2 4.75 2H19.25C21.3211 2 23 3.67893 23 5.75V12.25C23 14.3211 21.3211 16 19.25 16H4.75C2.67893 16 1 14.3211 1 12.25V5.75ZM9.75 10.5C9.33579 10.5 9 10.8358 9 11.25C9 11.6642 9.33579 12 9.75 12H14.25C14.6642 12 15 11.6642 15 11.25C15 10.8358 14.6642 10.5 14.25 10.5H9.75ZM5.75 7.75C6.30228 7.75 6.75 7.30228 6.75 6.75C6.75 6.19772 6.30228 5.75 5.75 5.75C5.19772 5.75 4.75 6.19772 4.75 6.75C4.75 7.30228 5.19772 7.75 5.75 7.75ZM5.75 12.25C6.30228 12.25 6.75 11.8023 6.75 11.25C6.75 10.6977 6.30228 10.25 5.75 10.25C5.19772 10.25 4.75 10.6977 4.75 11.25C4.75 11.8023 5.19772 12.25 5.75 12.25ZM19.2502 6.75C19.2502 7.30228 18.8025 7.75 18.2502 7.75C17.698 7.75 17.2502 7.30228 17.2502 6.75C17.2502 6.19772 17.698 5.75 18.2502 5.75C18.8025 5.75 19.2502 6.19772 19.2502 6.75ZM18.2502 12.25C18.8025 12.25 19.2502 11.8023 19.2502 11.25C19.2502 10.6977 18.8025 10.25 18.2502 10.25C17.698 10.25 17.2502 10.6977 17.2502 11.25C17.2502 11.8023 17.698 12.25 18.2502 12.25ZM10.75 6.75C10.75 7.30228 10.3023 7.75 9.75 7.75C9.19772 7.75 8.75 7.30228 8.75 6.75C8.75 6.19772 9.19772 5.75 9.75 5.75C10.3023 5.75 10.75 6.19772 10.75 6.75ZM14.25 7.75C14.8023 7.75 15.25 7.30228 15.25 6.75C15.25 6.19772 14.8023 5.75 14.25 5.75C13.6977 5.75 13.25 6.19772 13.25 6.75C13.25 7.30228 13.6977 7.75 14.25 7.75Z" fill="currentColor"/><path d="M10.5303 18.4697C10.2374 18.1768 9.76256 18.1768 9.46967 18.4697C9.17678 18.7626 9.17678 19.2374 9.46967 19.5303L11.4697 21.5303C11.7626 21.8232 12.2374 21.8232 12.5303 21.5303L14.5303 19.5303C14.8232 19.2374 14.8232 18.7626 14.5303 18.4697C14.2374 18.1768 13.7626 18.1768 13.4697 18.4697L12 19.9393L10.5303 18.4697Z" fill="currentColor"/></g></svg>