<svg width="24px" height="24px" viewBox="0 0 24 24" fill="currentColor" xmlns="http://www.w3.org/2000/svg"><g><path fill-rule="evenodd" clip-rule="evenodd" d="M11.368 3.18987C11.7739 3.03306 12.2236 3.03306 12.6294 3.18987L20.8547 6.36783C22.3471 6.94443 22.3471 9.05601 20.8547 9.63262L12.6294 12.8106C12.2236 12.9674 11.7739 12.9674 11.368 12.8106L3.14274 9.63262C1.65034 9.05601 1.65034 6.94444 3.14274 6.36783L11.368 3.18987Z" fill="currentColor"/><path d="M20.8547 13.6326L12.6294 16.8105C12.2236 16.9673 11.7739 16.9673 11.368 16.8105L3.14274 13.6326C2.25338 13.289 1.89401 12.4002 2.06464 11.6161L11.8664 15.4031C11.9039 15.4176 11.9431 15.4258 11.9826 15.4276C11.9916 15.4282 12.0007 15.4283 12.0097 15.4279C12.0517 15.4268 12.0936 15.4185 12.1335 15.4031L21.933 11.6169C22.1032 12.4009 21.7438 13.2891 20.8547 13.6326Z" fill="currentColor"/><path d="M20.8547 17.6326L12.6294 20.8105C12.2236 20.9673 11.7739 20.9673 11.368 20.8105L3.14274 17.6326C2.25338 17.289 1.89401 16.4002 2.06464 15.6161L11.8664 19.4031C11.9039 19.4176 11.9431 19.4258 11.9826 19.4276C11.9916 19.4282 12.0007 19.4283 12.0097 19.4279C12.0517 19.4268 12.0936 19.4185 12.1335 19.4031L21.933 15.6169C22.1032 16.4009 21.7438 17.2891 20.8547 17.6326Z" fill="currentColor"/></g></svg>