<svg width="24px" height="24px" viewBox="0 0 24 24" fill="currentColor" xmlns="http://www.w3.org/2000/svg"><g><path d="M12.7774 3.18281C12.2876 2.93906 11.7124 2.93907 11.2226 3.18281L2.97341 7.28745C1.67553 7.93326 1.67553 9.79202 2.97341 10.4378L11.2226 14.5425C11.7124 14.7862 12.2876 14.7862 12.7774 14.5425L21.0266 10.4378C22.3245 9.79202 22.3245 7.93326 21.0266 7.28745L12.7774 3.18281Z" fill="currentColor"/><path d="M4.60567 12.75L2.97341 13.5622C1.67554 14.208 1.67553 16.0667 2.97341 16.7125L11.2226 20.8172C11.7124 21.0609 12.2876 21.0609 12.7774 20.8172L21.0266 16.7125C22.3245 16.0667 22.3245 14.208 21.0266 13.5622L19.3943 12.75L12.7774 16.0425C12.2876 16.2862 11.7124 16.2862 11.2226 16.0425L4.60567 12.75Z" fill="currentColor"/></g></svg>