<svg width="24px" height="24px" viewBox="0 0 24 24" fill="currentColor" xmlns="http://www.w3.org/2000/svg"><g><path d="M8.5179 3C7.70506 2.99999 7.04944 2.99999 6.51853 3.04336C5.9719 3.08803 5.49175 3.18239 5.04754 3.40873C4.34193 3.76825 3.76825 4.34193 3.40873 5.04754C3.18239 5.49175 3.08803 5.9719 3.04336 6.51853C3.00961 6.93171 3.00212 7.42043 3.00047 8L20.9995 8C20.9979 7.42043 20.9904 6.93171 20.9566 6.51853C20.912 5.9719 20.8176 5.49175 20.5913 5.04754C20.2317 4.34193 19.6581 3.76825 18.9525 3.40873C18.5082 3.18239 18.0281 3.08803 17.4815 3.04336C16.9506 2.99999 16.295 2.99999 15.4821 3H8.5179Z" fill="currentColor"/><path d="M3 14.5V9.5L21 9.5V14.5L3 14.5Z" fill="currentColor"/><path d="M3.00047 16C3.00212 16.5796 3.00961 17.0683 3.04336 17.4815C3.08803 18.0281 3.18239 18.5082 3.40873 18.9525C3.76825 19.6581 4.34193 20.2317 5.04754 20.5913C5.49175 20.8176 5.9719 20.912 6.51853 20.9566C7.04944 21 7.70505 21 8.51788 21H15.4821C16.295 21 16.9506 21 17.4815 20.9566C18.0281 20.912 18.5082 20.8176 18.9525 20.5913C19.6581 20.2317 20.2317 19.6581 20.5913 18.9525C20.8176 18.5082 20.912 18.0281 20.9566 17.4815C20.9904 17.0683 20.9979 16.5796 20.9995 16L3.00047 16Z" fill="currentColor"/></g></svg>