<svg width="24px" height="24px" viewBox="0 0 24 24" fill="currentColor" xmlns="http://www.w3.org/2000/svg"><g><path d="M8.5179 3C7.70506 2.99999 7.04944 2.99999 6.51853 3.04336C5.9719 3.08803 5.49175 3.18239 5.04754 3.40873C4.34193 3.76825 3.76825 4.34193 3.40873 5.04754C3.18239 5.49175 3.08803 5.9719 3.04336 6.51853C2.99999 7.04944 2.99999 7.70506 3 8.5179L3 10.25C3 10.6642 3.33579 11 3.75 11H10.25C10.6642 11 11 10.6642 11 10.25V3.75C11 3.33579 10.6642 3 10.25 3L8.5179 3Z" fill="currentColor"/><path d="M18.9525 3.40873C18.5082 3.18239 18.0281 3.08803 17.4815 3.04336C16.9506 2.99999 16.2949 2.99999 15.4821 3L13.75 3C13.3358 3 13 3.33579 13 3.75V10.25C13 10.6642 13.3358 11 13.75 11H20.25C20.6642 11 21 10.6642 21 10.25V8.51788C21 7.70505 21 7.04944 20.9566 6.51853C20.912 5.9719 20.8176 5.49175 20.5913 5.04754C20.2317 4.34193 19.6581 3.76825 18.9525 3.40873Z" fill="currentColor"/><path d="M3.75 13C3.33579 13 3 13.3358 3 13.75L3 15.4821C2.99999 16.2949 2.99999 16.9506 3.04336 17.4815C3.08803 18.0281 3.18239 18.5082 3.40873 18.9525C3.76825 19.6581 4.34193 20.2317 5.04754 20.5913C5.49175 20.8176 5.9719 20.912 6.51853 20.9566C7.04944 21 7.70505 21 8.51788 21H10.25C10.6642 21 11 20.6642 11 20.25V13.75C11 13.3358 10.6642 13 10.25 13H3.75Z" fill="currentColor"/><path d="M13.75 13C13.3358 13 13 13.3358 13 13.75V20.25C13 20.6642 13.3358 21 13.75 21H15.4821C16.295 21 16.9506 21 17.4815 20.9566C18.0281 20.912 18.5082 20.8176 18.9525 20.5913C19.6581 20.2317 20.2317 19.6581 20.5913 18.9525C20.8176 18.5082 20.912 18.0281 20.9566 17.4815C21 16.9506 21 16.295 21 15.4821V13.75C21 13.3358 20.6642 13 20.25 13H13.75Z" fill="currentColor"/></g></svg>