<svg width="24px" height="24px" viewBox="0 0 24 24" fill="currentColor" xmlns="http://www.w3.org/2000/svg"><g><path fill-rule="evenodd" clip-rule="evenodd" d="M17.25 3C19.3211 3 21 4.67893 21 6.75V17.25C21 19.3211 19.3211 21 17.25 21H6.75C4.67893 21 3 19.3211 3 17.25V6.75C3 4.67893 4.67893 3 6.75 3H17.25ZM7.75 15.5C7.33579 15.5 7 15.8358 7 16.25C7 16.6642 7.33579 17 7.75 17H16.25C16.6642 17 17 16.6642 17 16.25C17 15.8358 16.6642 15.5 16.25 15.5H7.75ZM7.75 7C7.33579 7 7 7.33579 7 7.75C7 8.16421 7.33579 8.5 7.75 8.5H16.25C16.6642 8.5 17 8.16421 17 7.75C17 7.33579 16.6642 7 16.25 7H7.75Z" fill="currentColor"/></g></svg>