<svg width="24px" height="24px" viewBox="0 0 24 24" fill="currentColor" xmlns="http://www.w3.org/2000/svg"><g><path fill-rule="evenodd" clip-rule="evenodd" d="M17.25 3C19.3211 3 21 4.67893 21 6.75V17.25C21 19.3211 19.3211 21 17.25 21H6.75C4.67893 21 3 19.3211 3 17.25V6.75C3 4.67893 4.67893 3 6.75 3H17.25ZM7.75 7C7.33579 7 7 7.33579 7 7.75V16.25C7 16.6642 7.33579 17 7.75 17C8.16421 17 8.5 16.6642 8.5 16.25V7.75C8.5 7.33579 8.16421 7 7.75 7ZM16.25 7C15.8358 7 15.5 7.33579 15.5 7.75V16.25C15.5 16.6642 15.8358 17 16.25 17C16.6642 17 17 16.6642 17 16.25V7.75C17 7.33579 16.6642 7 16.25 7Z" fill="currentColor"/></g></svg>