<svg width="24px" height="24px" viewBox="0 0 24 24" fill="currentColor" xmlns="http://www.w3.org/2000/svg"><g><path fill-rule="evenodd" clip-rule="evenodd" d="M9.63084 14.2751L15.0082 16.7559C15.6319 17.0382 16.1278 17.5431 16.399 18.1717C17.0407 19.6716 16.1632 21.2049 14.7849 21.7566C13.4057 22.3074 11.9358 21.9524 11.2683 20.3933L8.92752 14.9184C8.7467 14.4943 9.20252 14.0768 9.63084 14.2751ZM9.95417 12.6702L15.504 10.576C17.349 9.88023 19.3639 11.1969 19.3373 13.1093L19.3356 13.1843C19.2956 15.0476 17.3365 16.3001 15.5324 15.6409L9.95917 13.6051C9.86188 13.572 9.77734 13.5093 9.71726 13.4259C9.65719 13.3425 9.62457 13.2425 9.62393 13.1397C9.62329 13.0369 9.65466 12.9365 9.71369 12.8524C9.77271 12.7682 9.8573 12.7045 9.95417 12.6702ZM9.64251 11.9452L15.099 9.63107C16.9123 8.86275 17.3723 6.55531 15.9523 5.22284C15.9338 5.20497 15.9152 5.18719 15.8965 5.16951C14.5041 3.88038 12.2024 4.33453 11.41 6.03366L8.96086 11.281C8.76586 11.6993 9.20752 12.1302 9.64251 11.946V11.9452ZM8.23838 11.0302L10.2217 5.60367C10.4558 4.97052 10.4367 4.27146 10.1683 3.65205C9.52418 2.15292 7.78089 1.66876 6.40175 2.22125C5.02512 2.7754 4.24598 4.02954 4.91596 5.58783L7.2709 11.056C7.45423 11.4802 8.08088 11.4635 8.23921 11.031L8.23838 11.0302Z" fill="currentColor"/></g></svg>