<svg width="24px" height="24px" viewBox="0 0 24 24" fill="currentColor" xmlns="http://www.w3.org/2000/svg"><g><path d="M15.25 21.457C14.2308 21.8072 13.138 22 12 22C10.0753 22 8.27839 21.455 6.75293 20.5127L15.25 15.6084V21.457Z" fill="currentColor"/><path d="M21.8145 13.9131C21.2369 16.8933 19.3382 19.4009 16.75 20.8008V10.9893L21.8145 13.9131Z" fill="currentColor"/><path d="M10.499 16.6182L5.43652 19.541C3.33197 17.7077 2 15.0103 2 12C2 11.9046 2.00418 11.8096 2.00684 11.7148L10.499 16.6182Z" fill="currentColor"/><path d="M15.25 10.123V13.876L12 15.752L8.75 13.875V10.123L12 8.24609L15.25 10.123Z" fill="currentColor"/><path d="M7.25 13.0088L2.18457 10.085C2.76253 7.10531 4.66213 4.59777 7.25 3.19824V13.0088Z" fill="currentColor"/><path d="M18.5625 4.45801C20.6677 6.29131 22 8.98924 22 12C22 12.0948 21.9948 12.1891 21.9922 12.2832L13.499 7.38086L18.5625 4.45801Z" fill="currentColor"/><path d="M12 2C13.9242 2 15.7209 2.54449 17.2461 3.48633L8.75 8.39062V2.54199C9.76914 2.19187 10.8621 2 12 2Z" fill="currentColor"/></g></svg>