<svg width="24px" height="24px" viewBox="0 0 24 24" fill="currentColor" xmlns="http://www.w3.org/2000/svg"><g><path fill-rule="evenodd" clip-rule="evenodd" d="M12 2C17.5228 2 22 6.47715 22 12C22 17.5228 17.5228 22 12 22C6.47715 22 2 17.5228 2 12C2 6.47715 6.47715 2 12 2ZM9.50391 7.77246C9.08789 7.77246 8.8125 8.01855 8.8125 8.41113C8.8125 8.80371 9.08789 9.0498 9.50391 9.0498H13.2715V9.09082L9.01758 14.9033C8.85352 15.1318 8.7832 15.3018 8.7832 15.5186C8.7832 15.9463 9.09375 16.2275 9.55664 16.2275H14.6191C15.0293 16.2275 15.3105 15.9814 15.3105 15.5889C15.3105 15.1963 15.0352 14.9502 14.6191 14.9502H10.6348V14.9092L14.8594 9.10254C15.0117 8.88574 15.0996 8.73926 15.0996 8.50488C15.0996 8.05957 14.7949 7.77246 14.3145 7.77246H9.50391Z" fill="currentColor"/></g></svg>