<svg width="24px" height="24px" viewBox="0 0 24 24" fill="currentColor" xmlns="http://www.w3.org/2000/svg"><g><path d="M12 9.23633L13.2012 12.8457H10.7695L11.959 9.23633H12Z" fill="currentColor"/><path fill-rule="evenodd" clip-rule="evenodd" d="M17.25 3C19.3211 3 21 4.67893 21 6.75V17.25C21 19.3211 19.3211 21 17.25 21H6.75C4.67893 21 3 19.3211 3 17.25V6.75C3 4.67893 4.67893 3 6.75 3H17.25ZM11.9883 7.64258C11.4375 7.64258 11.0977 7.90039 10.8926 8.46289L8.4375 15.1367C8.36725 15.3183 8.33789 15.4825 8.33789 15.5996C8.338 16.0272 8.63681 16.2969 9.09961 16.2969C9.49212 16.2969 9.71484 16.1034 9.85547 15.6465L10.4121 14.041H13.5703L14.127 15.6582C14.2617 16.1092 14.4903 16.2969 14.9004 16.2969C15.3398 16.2969 15.6561 16.0096 15.6562 15.5996C15.6562 15.4649 15.6269 15.33 15.5566 15.1367L13.0957 8.45703C12.8848 7.88867 12.5449 7.64258 11.9883 7.64258Z" fill="currentColor"/></g></svg>