<svg width="24px" height="24px" viewBox="0 0 24 24" fill="currentColor" xmlns="http://www.w3.org/2000/svg"><g><path fill-rule="evenodd" clip-rule="evenodd" d="M17.25 3C19.3211 3 21 4.67893 21 6.75V17.25C21 19.3211 19.3211 21 17.25 21H6.75C4.67893 21 3 19.3211 3 17.25V6.75C3 4.67893 4.67893 3 6.75 3H17.25ZM9.50195 7.77246C9.08594 7.77246 8.81055 8.01855 8.81055 8.41113C8.81055 8.80371 9.08594 9.0498 9.50195 9.0498H13.2695V9.09082L9.01562 14.9033C8.85156 15.1318 8.78125 15.3018 8.78125 15.5186C8.78125 15.9463 9.0918 16.2275 9.55469 16.2275H14.6172C15.0273 16.2275 15.3086 15.9814 15.3086 15.5889C15.3086 15.1963 15.0332 14.9502 14.6172 14.9502H10.6328V14.9092L14.8574 9.10254C15.0098 8.88574 15.0977 8.73926 15.0977 8.50488C15.0977 8.05957 14.793 7.77246 14.3125 7.77246H9.50195Z" fill="currentColor"/></g></svg>