<svg width="24px" height="24px" viewBox="0 0 24 24" fill="currentColor" xmlns="http://www.w3.org/2000/svg"><g><path d="M12 9.03906L13.2012 12.6484H10.7695L11.959 9.03906H12Z" fill="currentColor"/><path fill-rule="evenodd" clip-rule="evenodd" d="M12 2C17.5228 2 22 6.47715 22 12C22 17.5228 17.5228 22 12 22C6.47715 22 2 17.5228 2 12C2 6.47715 6.47715 2 12 2ZM11.9883 7.44531C11.4375 7.44531 11.0977 7.70312 10.8926 8.26562L8.4375 14.9395C8.36719 15.1211 8.33789 15.2852 8.33789 15.4023C8.33789 15.8301 8.63672 16.0996 9.09961 16.0996C9.49219 16.0996 9.71484 15.9062 9.85547 15.4492L10.4121 13.8438H13.5703L14.127 15.4609C14.2617 15.9121 14.4902 16.0996 14.9004 16.0996C15.3398 16.0996 15.6562 15.8125 15.6562 15.4023C15.6562 15.2676 15.627 15.1328 15.5566 14.9395L13.0957 8.25977C12.8848 7.69141 12.5449 7.44531 11.9883 7.44531Z" fill="currentColor"/></g></svg>