<svg width="24px" height="24px" viewBox="0 0 24 24" fill="currentColor" xmlns="http://www.w3.org/2000/svg"><g><path d="M7.75 2C8.16421 2 8.5 2.33579 8.5 2.75C8.5 4.01033 8.95293 4.897 9.58411 5.4739C10.0458 5.8959 10.6271 6.1737 11.25 6.29694V11H9.75C9.33579 11 9 11.3358 9 11.75C9 12.1642 9.33579 12.5 9.75 12.5H11.25V15H3V12.75C3 11.6652 3.52643 10.792 4.11136 10.087C4.40562 9.73236 4.73236 9.39959 5.04208 9.09149C5.10654 9.02736 5.17009 8.96445 5.23248 8.90271C5.47753 8.66017 5.70698 8.43307 5.91973 8.20286C6.40973 7.67268 6.69741 6.87391 6.84846 5.87306C6.99853 4.87873 7 3.79179 7 2.75C7 2.33579 7.33579 2 7.75 2Z" fill="currentColor"/><path d="M3 16.5V17.25C3 19.3211 4.67893 21 6.75 21H11.25V16.5H3Z" fill="currentColor"/><path d="M12.75 21H17.25C19.3211 21 21 19.3211 21 17.25V16.5H12.75V21Z" fill="currentColor"/><path d="M21 15V12.6557C21 11.5974 20.5034 10.7395 19.9341 10.0443C19.5496 9.57484 19.0701 9.11261 18.6418 8.69973C18.4611 8.52563 18.2895 8.36013 18.138 8.20675C17.6207 7.68269 17.3188 6.8937 17.1599 5.89727C17.0017 4.90453 17 3.81247 17 2.75C17 2.33579 16.6642 2 16.25 2C15.8358 2 15.5 2.33579 15.5 2.75C15.5 4.01033 15.0471 4.897 14.4159 5.4739C13.9542 5.8959 13.3729 6.1737 12.75 6.29694V11H14.25C14.6642 11 15 11.3358 15 11.75C15 12.1642 14.6642 12.5 14.25 12.5H12.75V15H21Z" fill="currentColor"/></g></svg>