<svg width="24px" height="24px" viewBox="0 0 24 24" fill="currentColor" xmlns="http://www.w3.org/2000/svg"><g><path d="M19.9998 9.00089C19.9998 11.249 19.072 13.2807 17.5803 14.7334H6.41753C4.9259 13.2807 3.99805 11.249 3.99805 9.00089C3.99805 4.58212 7.58016 1 11.9989 1C16.4177 1 19.9998 4.58212 19.9998 9.00089Z" fill="currentColor"/><path d="M7.99775 16.75V16.2334H16.0001V16.75C16.0001 17.9926 14.9928 19 13.7501 19H10.2478C9.00511 19 7.99775 17.9926 7.99775 16.75Z" fill="currentColor"/><path d="M9.75 20.5C9.33579 20.5 9 20.8358 9 21.25C9 21.6642 9.33579 22 9.75 22H14.25C14.6642 22 15 21.6642 15 21.25C15 20.8358 14.6642 20.5 14.25 20.5H9.75Z" fill="currentColor"/></g></svg>