<svg width="24px" height="24px" viewBox="0 0 24 24" fill="currentColor" xmlns="http://www.w3.org/2000/svg"><g><path d="M16 18.999C15.9999 21.2087 14.2087 23 11.999 23C9.7893 23 7.99816 21.2087 7.99805 18.999V18.5H16V18.999ZM11.999 2C16.4177 2.00005 20 5.58224 20 10.001C20 12.5861 18.7732 14.8852 16.873 16.3467C16.596 16.5597 16.3042 16.7547 16 16.9307V17H7.99805V16.9307C7.69389 16.7547 7.402 16.5597 7.125 16.3467C5.22482 14.8853 3.99808 12.5861 3.99805 10.001C3.99805 5.58221 7.58026 2 11.999 2ZM12 6C11.7591 6 11.5426 6.1482 11.4561 6.37305L10.7598 8.18555C10.6582 8.44944 10.4494 8.65819 10.1855 8.75977L8.37305 9.45605C8.1482 9.5426 8 9.75906 8 10C8 10.2409 8.1482 10.4574 8.37305 10.5439L10.1855 11.2402C10.4494 11.3418 10.6582 11.5506 10.7598 11.8145L11.4561 13.627C11.5426 13.8518 11.7591 14 12 14C12.2409 14 12.4574 13.8518 12.5439 13.627L13.2402 11.8145C13.3418 11.5506 13.5506 11.3418 13.8145 11.2402L15.627 10.5439C15.8518 10.4574 16 10.2409 16 10C16 9.75906 15.8518 9.5426 15.627 9.45605L13.8145 8.75977C13.5506 8.65819 13.3418 8.44944 13.2402 8.18555L12.5439 6.37305C12.4574 6.1482 12.2409 6 12 6Z" fill="currentColor"/></g></svg>