<svg width="24px" height="24px" viewBox="0 0 24 24" fill="currentColor" xmlns="http://www.w3.org/2000/svg"><g><path d="M19.3715 5.125L19.4974 5.1377C19.7821 5.19589 19.9961 5.4479 19.9961 5.75C19.9961 6.0521 19.7821 6.30411 19.4974 6.3623L19.3715 6.375H4.62071C4.27575 6.375 3.99609 6.09518 3.99609 5.75C3.99609 5.40482 4.27575 5.125 4.62071 5.125H19.3715Z" fill="currentColor"/><path d="M18.3721 15.625L18.538 15.6338C19.3571 15.7169 19.9961 16.4085 19.9961 17.25C19.9961 18.0915 19.3571 18.7831 18.538 18.8662L18.3721 18.875H5.6201C4.72319 18.875 3.99609 18.1475 3.99609 17.25C3.99609 16.3525 4.72319 15.625 5.6201 15.625H18.3721Z" fill="currentColor"/><path d="M18.9869 9.88086L18.8718 9.875H5.12041C4.49947 9.875 3.99609 10.3787 3.99609 11C3.99609 11.6213 4.49947 12.125 5.12041 12.125H18.8718L18.9869 12.1191C19.5539 12.0615 19.9961 11.5825 19.9961 11C19.9961 10.4175 19.5539 9.93846 18.9869 9.88086Z" fill="currentColor"/></g></svg>