<svg width="24px" height="24px" viewBox="0 0 24 24" fill="currentColor" xmlns="http://www.w3.org/2000/svg"><g><path fill-rule="evenodd" clip-rule="evenodd" d="M2 4.75C2 4.33579 2.33579 4 2.75 4H21.25C21.6642 4 22 4.33579 22 4.75C22 5.16421 21.6642 5.5 21.25 5.5H2.75C2.33579 5.5 2 5.16421 2 4.75ZM11.4697 7.21967C11.7626 6.92678 12.2374 6.92678 12.5303 7.21967L14.7803 9.46967C15.0732 9.76256 15.0732 10.2374 14.7803 10.5303C14.4874 10.8232 14.0126 10.8232 13.7197 10.5303L12 8.81066L10.2803 10.5303C9.98744 10.8232 9.51256 10.8232 9.21967 10.5303C8.92678 10.2374 8.92678 9.76256 9.21967 9.46967L11.4697 7.21967ZM9.21967 13.7197C9.51256 13.4268 9.98744 13.4268 10.2803 13.7197L12 15.4393L13.7197 13.7197C14.0126 13.4268 14.4874 13.4268 14.7803 13.7197C15.0732 14.0126 15.0732 14.4874 14.7803 14.7803L12.5303 17.0303C12.2374 17.3232 11.7626 17.3232 11.4697 17.0303L9.21967 14.7803C8.92678 14.4874 8.92678 14.0126 9.21967 13.7197ZM2 19.25C2 18.8358 2.33579 18.5 2.75 18.5H21.25C21.6642 18.5 22 18.8358 22 19.25C22 19.6642 21.6642 20 21.25 20H2.75C2.33579 20 2 19.6642 2 19.25Z" fill="currentColor"/></g></svg>