<svg width="24px" height="24px" viewBox="0 0 24 24" fill="currentColor" xmlns="http://www.w3.org/2000/svg"><g><path d="M4.2002 16.7998C4.86285 16.7999 5.40039 17.3373 5.40039 18C5.40029 18.6626 4.86278 19.2001 4.2002 19.2002C3.53752 19.2002 3.00011 18.6627 3 18C3 17.3373 3.53745 16.7998 4.2002 16.7998Z" fill="currentColor"/><path d="M20.25 17.25C20.6642 17.25 21 17.5858 21 18C21 18.4142 20.6642 18.75 20.25 18.75H8.75C8.33579 18.75 8 18.4142 8 18C8 17.5858 8.33579 17.25 8.75 17.25H20.25Z" fill="currentColor"/><path d="M4.2002 10.7998C4.86285 10.7999 5.40039 11.3373 5.40039 12C5.40029 12.6626 4.86278 13.2001 4.2002 13.2002C3.53752 13.2002 3.00011 12.6627 3 12C3 11.3373 3.53745 10.7998 4.2002 10.7998Z" fill="currentColor"/><path d="M20.25 11.25C20.6642 11.25 21 11.5858 21 12C21 12.4142 20.6642 12.75 20.25 12.75H8.75C8.33579 12.75 8 12.4142 8 12C8 11.5858 8.33579 11.25 8.75 11.25H20.25Z" fill="currentColor"/><path d="M4.2002 4.7998C4.86285 4.79991 5.40039 5.33732 5.40039 6C5.40029 6.66259 4.86278 7.20009 4.2002 7.2002C3.53752 7.2002 3.00011 6.66265 3 6C3 5.33726 3.53745 4.7998 4.2002 4.7998Z" fill="currentColor"/><path d="M20.25 5.25C20.6642 5.25 21 5.58579 21 6C21 6.41421 20.6642 6.75 20.25 6.75H8.75C8.33579 6.75 8 6.41421 8 6C8 5.58579 8.33579 5.25 8.75 5.25H20.25Z" fill="currentColor"/></g></svg>