<svg width="24px" height="24px" viewBox="0 0 24 24" fill="currentColor" xmlns="http://www.w3.org/2000/svg"><g><path fill-rule="evenodd" clip-rule="evenodd" d="M21 6.75C21 4.67893 19.3211 3 17.25 3H6.75C4.67893 3 3 4.67893 3 6.75V17.25C3 19.3211 4.67893 21 6.75 21H17.25C19.3211 21 21 19.3211 21 17.25V6.75ZM9 8C9 8.69036 8.44036 9.25 7.75 9.25C7.05964 9.25 6.5 8.69036 6.5 8C6.5 7.30964 7.05964 6.75 7.75 6.75C8.44036 6.75 9 7.30964 9 8ZM9 12C9 12.6904 8.44036 13.25 7.75 13.25C7.05964 13.25 6.5 12.6904 6.5 12C6.5 11.3096 7.05964 10.75 7.75 10.75C8.44036 10.75 9 11.3096 9 12ZM7.75 17.25C8.44036 17.25 9 16.6904 9 16C9 15.3096 8.44036 14.75 7.75 14.75C7.05964 14.75 6.5 15.3096 6.5 16C6.5 16.6904 7.05964 17.25 7.75 17.25Z" fill="currentColor"/></g></svg>