<svg width="24px" height="24px" viewBox="0 0 24 24" fill="currentColor" xmlns="http://www.w3.org/2000/svg"><g><path d="M18 11C18.4142 11 18.75 11.3358 18.75 11.75V14H21.25C21.6642 14 22 14.3358 22 14.75C22 15.1642 21.6642 15.5 21.25 15.5H18.75V18.25C18.75 18.6642 18.4142 19 18 19C17.5858 19 17.25 18.6642 17.25 18.25V15.5H14.75C14.3358 15.5 14 15.1642 14 14.75C14 14.3358 14.3358 14 14.75 14H17.25V11.75C17.25 11.3358 17.5858 11 18 11Z" fill="currentColor"/><path d="M10.25 17.25C10.6642 17.25 11 17.5858 11 18C11 18.4142 10.6642 18.75 10.25 18.75H3.75C3.33579 18.75 3 18.4142 3 18C3 17.5858 3.33579 17.25 3.75 17.25H10.25Z" fill="currentColor"/><path d="M10.25 11.25C10.6642 11.25 11 11.5858 11 12C11 12.4142 10.6642 12.75 10.25 12.75H3.75C3.33579 12.75 3 12.4142 3 12C3 11.5858 3.33579 11.25 3.75 11.25H10.25Z" fill="currentColor"/><path d="M20.25 5.25C20.6642 5.25 21 5.58579 21 6C21 6.41421 20.6642 6.75 20.25 6.75H3.75C3.33579 6.75 3 6.41421 3 6C3 5.58579 3.33579 5.25 3.75 5.25H20.25Z" fill="currentColor"/></g></svg>