<svg width="24px" height="24px" viewBox="0 0 24 24" fill="currentColor" xmlns="http://www.w3.org/2000/svg"><g><path fill-rule="evenodd" clip-rule="evenodd" d="M11.9986 2.71965C12.0316 2.30675 12.393 1.99875 12.8059 2.03171C17.9523 2.44254 22 6.74804 22 11.9997C22 17.5225 17.5228 21.9997 12 21.9997C6.47715 21.9997 2 17.5225 2 11.9997C2 8.07222 4.26422 4.67498 7.55511 3.03954C7.92605 2.8552 8.37619 3.00647 8.56052 3.3774C8.74486 3.74834 8.5936 4.19848 8.22266 4.38281C5.42204 5.7746 3.5 8.66337 3.5 11.9997C3.5 16.6941 7.30558 20.4997 12 20.4997C16.6944 20.4997 20.5 16.6941 20.5 11.9997C20.5 7.53645 17.0595 3.87605 12.6865 3.52696C12.2736 3.494 11.9656 3.13255 11.9986 2.71965Z" fill="currentColor"/><path fill-rule="evenodd" clip-rule="evenodd" d="M12.0031 6.29851C12.0572 5.88785 12.4341 5.59885 12.8447 5.65301C15.9821 6.06676 18.4032 8.7503 18.4032 12.0005C18.4032 15.5367 15.5366 18.4033 12.0004 18.4033C8.46428 18.4033 5.59766 15.5367 5.59766 12.0005C5.59766 11.0485 5.80592 10.1431 6.18009 9.32908C6.35308 8.95272 6.79842 8.78786 7.17478 8.96085C7.55114 9.13385 7.716 9.57918 7.543 9.95554C7.25733 10.577 7.09766 11.2691 7.09766 12.0005C7.09766 14.7083 9.2927 16.9033 12.0004 16.9033C14.7082 16.9033 16.9032 14.7083 16.9032 12.0005C16.9032 9.5128 15.0497 7.45678 12.6486 7.14013C12.2379 7.08597 11.9489 6.70917 12.0031 6.29851Z" fill="currentColor"/><path fill-rule="evenodd" clip-rule="evenodd" d="M12.0483 9.81182C12.1987 9.42588 12.6335 9.23496 13.0195 9.38539C14.0641 9.79256 14.8064 10.8087 14.8064 12.0001C14.8064 13.5496 13.5503 14.8057 12.0009 14.8057C10.4514 14.8057 9.19531 13.5496 9.19531 12.0001C9.19531 11.5859 9.5311 11.2501 9.94531 11.2501C10.3595 11.2501 10.6953 11.5859 10.6953 12.0001C10.6953 12.7211 11.2798 13.3057 12.0009 13.3057C12.7219 13.3057 13.3064 12.7211 13.3064 12.0001C13.3064 11.4474 12.9627 10.9732 12.4747 10.783C12.0888 10.6326 11.8979 10.1978 12.0483 9.81182Z" fill="currentColor"/></g></svg>