<svg width="24px" height="24px" viewBox="0 0 24 24" fill="currentColor" xmlns="http://www.w3.org/2000/svg"><g><path d="M7.25 10C7.66421 10 8 10.3358 8 10.75V11.5H11.75C12.1642 11.5 12.5 11.8358 12.5 12.25C12.5 12.6642 12.1642 13 11.75 13H10.9004C10.5628 15.0903 9.84711 16.8048 8.6543 18.1357C8.5895 18.208 8.52237 18.278 8.45508 18.3477C9.20236 18.8512 10.0918 19.2437 11.1475 19.5254C11.5477 19.6322 11.7855 20.0432 11.6787 20.4434C11.5719 20.8436 11.1609 21.0814 10.7607 20.9746C9.41834 20.6164 8.25625 20.0841 7.27637 19.3506C6.20809 20.0977 4.92269 20.6311 3.41992 20.9805C3.01651 21.0742 2.61337 20.8233 2.51953 20.4199C2.42576 20.0165 2.67669 19.6134 3.08008 19.5195C4.29484 19.2372 5.30137 18.8337 6.13184 18.3105C5.30213 17.396 4.68064 16.2889 4.24316 14.9893C4.11105 14.5967 4.32229 14.1712 4.71484 14.0391C5.1074 13.907 5.5329 14.1182 5.66504 14.5107C6.05792 15.6779 6.60385 16.62 7.30957 17.375C7.3878 17.2964 7.46448 17.2169 7.53809 17.1348C8.44954 16.1177 9.06 14.77 9.37793 13H2.75C2.33579 13 2 12.6642 2 12.25C2 11.8358 2.33579 11.5 2.75 11.5H6.5V10.75C6.5 10.3358 6.83579 10 7.25 10Z" fill="currentColor"/><path d="M17.75 3C18.1642 3 18.5 3.33579 18.5 3.75V15.75C18.5 16.1642 18.1642 16.5 17.75 16.5C17.3358 16.5 17 16.1642 17 15.75V3.75C17 3.33579 17.3358 3 17.75 3Z" fill="currentColor"/><path d="M21.25 8C21.6642 8 22 8.33579 22 8.75V10.75C22 11.1642 21.6642 11.5 21.25 11.5C20.8358 11.5 20.5 11.1642 20.5 10.75V8.75C20.5 8.33579 20.8358 8 21.25 8Z" fill="currentColor"/><path d="M14.25 6C14.6642 6 15 6.33579 15 6.75V8.75C15 9.16421 14.6642 9.5 14.25 9.5C13.8358 9.5 13.5 9.16421 13.5 8.75V6.75C13.5 6.33579 13.8358 6 14.25 6Z" fill="currentColor"/><path d="M10.75 4C11.1642 4 11.5 4.33579 11.5 4.75V7.25C11.5 7.66421 11.1642 8 10.75 8C10.3358 8 10 7.66421 10 7.25V4.75C10 4.33579 10.3358 4 10.75 4Z" fill="currentColor"/></g></svg>