<svg width="24px" height="24px" viewBox="0 0 24 24" fill="currentColor" xmlns="http://www.w3.org/2000/svg"><g><path fill-rule="evenodd" clip-rule="evenodd" d="M18.1963 3.02048C19.8935 2.53554 21.4627 4.10474 20.9778 5.80203L18.1774 15.6034C17.8215 16.8492 16.8477 17.8229 15.6019 18.1789L5.80057 20.9793C4.10328 21.4642 2.53407 19.895 3.01902 18.1977L5.8194 8.39638C6.17534 7.1506 7.14913 6.1768 8.39491 5.82086L18.1963 3.02048ZM9.62341 12C9.62341 10.6883 10.6867 9.625 11.9984 9.625C13.3101 9.625 14.3734 10.6883 14.3734 12C14.3734 13.3117 13.3101 14.375 11.9984 14.375C10.6867 14.375 9.62341 13.3117 9.62341 12Z" fill="currentColor"/></g></svg>