<svg width="24px" height="24px" viewBox="0 0 24 24" fill="currentColor" xmlns="http://www.w3.org/2000/svg"><g><path fill-rule="evenodd" clip-rule="evenodd" d="M6.74818 3.04419C7.28937 2.99998 7.95374 2.99999 8.7587 3H15.2413C16.0463 2.99999 16.7106 2.99998 17.2518 3.04419C17.8139 3.09012 18.3306 3.18868 18.816 3.43598C19.5686 3.81947 20.1805 4.43139 20.564 5.18404C20.8113 5.66937 20.9099 6.18608 20.9558 6.74818C21 7.28937 21 7.95372 21 8.75868V15.2413C21 16.0463 21 16.7106 20.9558 17.2518C20.9099 17.8139 20.8113 18.3306 20.564 18.816C20.1805 19.5686 19.5686 20.1805 18.816 20.564C18.3306 20.8113 17.8139 20.9099 17.2518 20.9558C16.7106 21 16.0463 21 15.2413 21H8.75868C7.95372 21 7.28937 21 6.74818 20.9558C6.18608 20.9099 5.66937 20.8113 5.18404 20.564C4.43139 20.1805 3.81947 19.5686 3.43598 18.816C3.18868 18.3306 3.09012 17.8139 3.04419 17.2518C2.99998 16.7106 2.99999 16.0463 3 15.2413V8.75868C2.99999 7.95372 2.99998 7.28937 3.04419 6.74818C3.09012 6.18608 3.18868 5.66937 3.43598 5.18404C3.81947 4.43139 4.43139 3.81947 5.18404 3.43598C5.66937 3.18868 6.18608 3.09012 6.74818 3.04419ZM13.4492 9.97656C13.3112 9.95833 13.2135 9.94922 13.1562 9.94922C13.0052 9.94922 12.8633 9.97266 12.7305 10.0195C12.5977 10.0638 12.4779 10.1094 12.3711 10.1562C12.2643 10.2031 12.1706 10.2266 12.0898 10.2266C12.0065 10.2266 11.9128 10.2044 11.8086 10.1602C11.707 10.1159 11.5977 10.0729 11.4805 10.0312C11.3633 9.98698 11.2383 9.96484 11.1055 9.96484C10.8555 9.96484 10.6133 10.0339 10.3789 10.1719C10.1471 10.3073 9.95703 10.5091 9.80859 10.7773C9.66016 11.043 9.58594 11.3724 9.58594 11.7656C9.58594 12.1328 9.64714 12.4974 9.76953 12.8594C9.89453 13.2188 10.0443 13.5234 10.2188 13.7734C10.3698 13.9844 10.5169 14.1654 10.6602 14.3164C10.8034 14.4674 10.9701 14.543 11.1602 14.543C11.2852 14.543 11.3932 14.5221 11.4844 14.4805C11.5781 14.4388 11.6758 14.3971 11.7773 14.3555C11.8815 14.3138 12.0104 14.293 12.1641 14.293C12.3229 14.293 12.4492 14.3138 12.543 14.3555C12.6367 14.3945 12.7279 14.4349 12.8164 14.4766C12.9049 14.5156 13.0182 14.5352 13.1562 14.5352C13.362 14.5352 13.5378 14.457 13.6836 14.3008C13.832 14.1445 13.9701 13.974 14.0977 13.7891C14.2435 13.5755 14.3477 13.3815 14.4102 13.207C14.4753 13.0326 14.5091 12.9401 14.5117 12.9297C14.5065 12.9271 14.4622 12.9036 14.3789 12.8594C14.2982 12.8151 14.2044 12.7461 14.0977 12.6523C13.9935 12.556 13.901 12.4297 13.8203 12.2734C13.7422 12.1172 13.7031 11.9271 13.7031 11.7031C13.7031 11.5078 13.7344 11.3398 13.7969 11.1992C13.8594 11.056 13.9323 10.9388 14.0156 10.8477C14.099 10.7539 14.1745 10.6836 14.2422 10.6367C14.3099 10.5872 14.3477 10.5586 14.3555 10.5508C14.2201 10.3555 14.069 10.2161 13.9023 10.1328C13.7383 10.0469 13.5872 9.99479 13.4492 9.97656ZM12.5586 9.76172C12.7122 9.67839 12.8398 9.57552 12.9414 9.45312C13.0352 9.33854 13.112 9.20833 13.1719 9.0625C13.2318 8.91406 13.2617 8.76172 13.2617 8.60547C13.2617 8.55859 13.2578 8.51823 13.25 8.48438C13.099 8.48958 12.9401 8.53516 12.7734 8.62109C12.6068 8.70703 12.4688 8.8151 12.3594 8.94531C12.2734 9.04167 12.1966 9.16406 12.1289 9.3125C12.0612 9.45833 12.0273 9.60938 12.0273 9.76562C12.0273 9.78906 12.0286 9.8112 12.0312 9.83203C12.0339 9.85286 12.0365 9.86719 12.0391 9.875C12.0651 9.88021 12.0924 9.88281 12.1211 9.88281C12.2591 9.88281 12.4049 9.84245 12.5586 9.76172Z" fill="currentColor"/></g></svg>