<svg width="24px" height="24px" viewBox="0 0 24 24" fill="currentColor" xmlns="http://www.w3.org/2000/svg"><g><path d="M12.6812 4.36077C11.6654 3.49572 10.1104 4.28802 10.2132 5.6183L10.4103 8.17068L8.2295 9.51145C7.09288 10.2102 7.36588 11.9339 8.66281 12.2473L10.2969 12.6421L3.21967 19.7193C2.92678 20.0122 2.92678 20.4871 3.21967 20.78C3.51256 21.0729 3.98743 21.0729 4.28033 20.78L11.3576 13.7028L11.7524 15.3369C12.0658 16.6338 13.7895 16.9069 14.4883 15.7702L15.8291 13.5895L18.3814 13.7866C19.7117 13.8893 20.504 12.3344 19.639 11.3185L17.9792 9.36949L18.9554 7.00295C19.4642 5.76952 18.2302 4.53549 16.9968 5.04429L14.6302 6.0205L12.6812 4.36077Z" fill="currentColor"/></g></svg>