<svg width="24px" height="24px" viewBox="0 0 24 24" fill="currentColor" xmlns="http://www.w3.org/2000/svg"><g><path d="M21.75 7C22.4402 7 23.011 7.56435 22.8867 8.24316C22.1297 12.3686 17.7294 15.5709 13.7891 15.959C15.0488 16.5587 16.0026 17.6966 16.3535 19.0752C16.6438 20.2156 15.6468 21 14.75 21H7.75C6.85319 21 5.85625 20.2156 6.14648 19.0752L6.19922 18.8838C6.57786 17.6212 7.46807 16.5804 8.62891 16H7.5C5.567 16 4 14.433 4 12.5V11C4 10.3096 3.44036 9.75 2.75 9.75C2.05964 9.75 1.5 10.3096 1.5 11C1.5 11.5233 1.82189 11.9731 2.28125 12.1592C2.6651 12.3146 2.85052 12.7519 2.69531 13.1357C2.53991 13.5196 2.10267 13.7051 1.71875 13.5498C0.712315 13.1424 0 12.1553 0 11C0 9.48122 1.23122 8.25 2.75 8.25C3.85227 8.25 4.80066 8.89964 5.23926 9.83594C5.84951 9.32139 6.63886 9.01247 7.5 9.0166L15 9.05273C18.0908 9.01193 19.0921 8.40579 19.6182 7.6709C19.8937 7.28589 20.299 7.00003 20.7725 7H21.75Z" fill="currentColor"/><path d="M11.25 3C11.6642 3 12 3.33579 12 3.75V4.06152C14.3791 4.40952 15.75 6.20422 15.75 8H6.75C6.75 6.15538 8.0265 4.31161 10.5 4.03613V3.75C10.5 3.33579 10.8358 3 11.25 3Z" fill="currentColor"/></g></svg>