<svg width="24px" height="24px" viewBox="0 0 24 24" fill="currentColor" xmlns="http://www.w3.org/2000/svg"><g><path d="M4.75518 5.15769C4.65005 4.94744 4.35001 4.94744 4.24488 5.15769L3.59168 6.4641C3.56407 6.51931 3.51931 6.56407 3.4641 6.59168L2.15769 7.24488C1.94744 7.35001 1.94744 7.65005 2.15769 7.75518L3.4641 8.40839C3.51931 8.43599 3.56407 8.48075 3.59168 8.53596L4.24488 9.84237C4.35001 10.0526 4.65005 10.0526 4.75518 9.84237L5.40839 8.53596C5.43599 8.48075 5.48075 8.43599 5.53596 8.40839L6.84237 7.75518C7.05262 7.65005 7.05262 7.35001 6.84237 7.24488L5.53596 6.59168C5.48075 6.56407 5.43599 6.51931 5.40839 6.4641L4.75518 5.15769Z" fill="currentColor"/><path d="M9.26447 2.16345C9.1555 1.94552 8.8445 1.94552 8.73553 2.16345L8.25558 3.12335C8.22697 3.18057 8.18057 3.22697 8.12335 3.25558L7.16345 3.73553C6.94552 3.8445 6.94552 4.1555 7.16345 4.26447L8.12335 4.74442C8.18057 4.77303 8.22697 4.81943 8.25558 4.87665L8.73553 5.83655C8.8445 6.05448 9.1555 6.05448 9.26447 5.83655L9.74442 4.87665C9.77303 4.81943 9.81943 4.77303 9.87665 4.74442L10.8365 4.26447C11.0545 4.1555 11.0545 3.8445 10.8365 3.73553L9.87665 3.25558C9.81943 3.22697 9.77303 3.18057 9.74442 3.12335L9.26447 2.16345Z" fill="currentColor"/><path d="M18.7551 15.1577C18.65 14.9474 18.35 14.9474 18.2449 15.1577L17.5917 16.4641C17.5641 16.5193 17.5193 16.5641 17.4641 16.5917L16.1577 17.2449C15.9474 17.35 15.9474 17.65 16.1577 17.7551L17.4641 18.4083C17.5193 18.4359 17.5641 18.4807 17.5917 18.5359L18.2449 19.8423C18.35 20.0526 18.65 20.0526 18.7551 19.8423L19.4083 18.5359C19.4359 18.4807 19.4807 18.4359 19.5359 18.4083L20.8423 17.7551C21.0526 17.65 21.0526 17.35 20.8423 17.2449L19.5359 16.5917C19.4807 16.5641 19.4359 16.5193 19.4083 16.4641L18.7551 15.1577Z" fill="currentColor"/><path d="M20.0303 3.96948C18.6329 2.57202 16.3671 2.57202 14.9697 3.96948L4.09835 14.8408C3.39509 15.5441 3 16.4979 3 17.4925V20.2498C3 20.664 3.33579 20.9998 3.75 20.9998H6.50736C7.50192 20.9998 8.45575 20.6047 9.15901 19.9015L20.0303 9.03015C21.4278 7.63268 21.4278 5.36695 20.0303 3.96948Z" fill="currentColor"/></g></svg>