<svg width="24px" height="24px" viewBox="0 0 24 24" fill="currentColor" xmlns="http://www.w3.org/2000/svg"><g><path d="M5.03241 9.21397C6.13896 6.45009 8.84171 4.5 11.9981 4.5C15.1545 4.5 17.8573 6.45009 18.9638 9.21397C19.1178 9.59851 19.5543 9.78544 19.9388 9.63148C20.3234 9.47753 20.5103 9.04099 20.3563 8.65645C19.0297 5.34277 15.7884 3 11.9981 3C8.20783 3 4.96654 5.34277 3.63987 8.65645C3.48591 9.04099 3.67284 9.47753 4.05738 9.63148C4.44192 9.78544 4.87845 9.59851 5.03241 9.21397Z" fill="currentColor"/><path d="M7.35663 10.1427C8.09451 8.29966 9.89664 7 12.0005 7C14.1044 7 15.9065 8.29966 16.6444 10.1427C16.7984 10.5272 17.2349 10.7142 17.6194 10.5602C18.004 10.4063 18.1909 9.96971 18.0369 9.58518C17.0789 7.19234 14.7383 5.5 12.0005 5.5C9.26276 5.5 6.92209 7.19234 5.96409 9.58518C5.81013 9.96971 5.99706 10.4063 6.3816 10.5602C6.76613 10.7142 7.20267 10.5272 7.35663 10.1427Z" fill="currentColor"/><path d="M9.67694 11.0714C10.0462 10.1492 10.9477 9.5 11.999 9.5C13.0504 9.5 13.9519 10.1492 14.3211 11.0714C14.4751 11.456 14.9116 11.6429 15.2961 11.4889C15.6807 11.335 15.8676 10.8984 15.7136 10.5139C15.1243 9.0419 13.6842 8 11.999 8C10.3138 8 8.87373 9.0419 8.2844 10.5139C8.13044 10.8984 8.31737 11.335 8.70191 11.4889C9.08645 11.6429 9.52298 11.456 9.67694 11.0714Z" fill="currentColor"/><path d="M8.18364 13.4544L8.20698 13.5185C9.14345 13.3798 10.0796 13.9124 10.4161 14.8367C11.1244 16.7829 10.1209 18.9348 8.17478 19.6431L7.70494 19.8141C5.75877 20.5225 3.60686 19.519 2.89851 17.5729L2.1931 15.6348C1.591 13.9805 2.44394 12.1514 4.09818 11.5493C5.75242 10.9472 7.58154 11.8001 8.18364 13.4544Z" fill="currentColor"/><path d="M19.9044 11.5493C18.2502 10.9472 16.4211 11.8001 15.819 13.4544L15.7956 13.5185C14.8592 13.3798 13.923 13.9124 13.5865 14.8367C12.8782 16.7829 13.8817 18.9348 15.8278 19.6431L16.2977 19.8141C18.2438 20.5225 20.3957 19.519 21.1041 17.5729L21.8095 15.6348C22.4116 13.9805 21.5587 12.1514 19.9044 11.5493Z" fill="currentColor"/></g></svg>