<svg width="24px" height="24px" viewBox="0 0 24 24" fill="currentColor" xmlns="http://www.w3.org/2000/svg"><g><path d="M17.5 4C19.9853 4 22 6.01472 22 8.5V18.25C22 19.2165 21.2165 20 20.25 20H14V21.25C14 21.6642 13.6642 22 13.25 22C12.8358 22 12.5 21.6642 12.5 21.25V8.5C12.5 6.70744 11.7131 5.09944 10.4668 4H17.5Z" fill="currentColor"/><path fill-rule="evenodd" clip-rule="evenodd" d="M6.5 4C8.98528 4 11 6.01472 11 8.5V18.25C11 19.2165 10.2165 20 9.25 20H3.75C2.7835 20 2 19.2165 2 18.25L2 8.5C2 6.09234 3.89083 4.12632 6.26855 4.00586L6.5 4ZM5 9C4.58579 9 4.25 9.33579 4.25 9.75C4.25 10.1642 4.58579 10.5 5 10.5H8C8.41421 10.5 8.75 10.1642 8.75 9.75C8.75 9.33579 8.41421 9 8 9H5Z" fill="currentColor"/></g></svg>