<svg width="24px" height="24px" viewBox="0 0 24 24" fill="currentColor" xmlns="http://www.w3.org/2000/svg"><g><path d="M14.6649 1.90103C14.7724 1.72392 15.0364 1.74701 15.1115 1.94011L15.4823 2.89267C15.5122 2.96935 15.5778 3.02643 15.6579 3.04531L16.6528 3.2799C16.8545 3.32746 16.9141 3.58563 16.7537 3.71678L15.9623 4.36376C15.8986 4.41584 15.8646 4.49593 15.8714 4.57793L15.9557 5.59663C15.9728 5.80313 15.7457 5.93959 15.5714 5.82755L14.7115 5.27485C14.6423 5.23036 14.5556 5.22277 14.4797 5.25457L13.537 5.64956C13.3459 5.72963 13.1459 5.5558 13.1986 5.35541L13.4585 4.36684C13.4794 4.28726 13.4599 4.20248 13.4062 4.14013L12.7392 3.36556C12.604 3.20854 12.7075 2.96464 12.9144 2.95283L13.9349 2.89457C14.017 2.88988 14.0916 2.84507 14.1343 2.77473L14.6649 1.90103Z" fill="currentColor"/><path d="M8.30826 18.0043C8.38342 17.8112 8.64738 17.7881 8.75493 17.9652L9.28547 18.839C9.32818 18.9093 9.40276 18.9541 9.48491 18.9588L10.5054 19.0171C10.7123 19.0289 10.8158 19.2728 10.6806 19.4298L10.0136 20.2043C9.95993 20.2667 9.94036 20.3515 9.96128 20.4311L10.2212 21.4196C10.2739 21.62 10.0739 21.7939 9.88284 21.7138L8.94006 21.3188C8.86417 21.287 8.77749 21.2946 8.70828 21.3391L7.84842 21.8918C7.67411 22.0038 7.447 21.8673 7.46409 21.6608L7.54842 20.6422C7.55521 20.5602 7.52121 20.4801 7.45751 20.428L6.66614 19.781C6.50572 19.6498 6.56533 19.3917 6.767 19.3441L7.7619 19.1095C7.84198 19.0906 7.90765 19.0336 7.93749 18.9569L8.30826 18.0043Z" fill="currentColor"/><path d="M9.75152 4.87516C9.75152 5.63455 9.13591 6.25016 8.37652 6.25016C7.61713 6.25016 7.00152 5.63455 7.00152 4.87516C7.00152 4.11577 7.61713 3.50016 8.37652 3.50016C9.13591 3.50016 9.75152 4.11577 9.75152 4.87516Z" fill="currentColor"/><path d="M16.0015 19.3752C16.0015 20.1346 15.3859 20.7502 14.6265 20.7502C13.8671 20.7502 13.2515 20.1346 13.2515 19.3752C13.2515 18.6158 13.8671 18.0002 14.6265 18.0002C15.3859 18.0002 16.0015 18.6158 16.0015 19.3752Z" fill="currentColor"/><path fill-rule="evenodd" clip-rule="evenodd" d="M16.3423 7.72088C16.4947 7.59302 16.6916 7.53093 16.8898 7.54826L19.9329 7.8145C21.6307 7.96304 22.8867 9.45984 22.7381 11.1577C22.5896 12.8555 21.0928 14.1115 19.3949 13.9629L17.099 13.7621L16.9608 15.342C16.9247 15.7546 16.5609 16.0599 16.1482 16.0238C15.7356 15.9877 15.4304 15.6239 15.4665 15.2113L15.5514 14.2403C14.7944 15.4153 13.4745 16.1935 11.9728 16.1935C9.88505 16.1935 8.14858 14.6895 7.78768 12.7059C7.33712 13.2488 6.69903 13.6409 5.94983 13.773L3.68012 14.1732L3.95552 15.735C4.02744 16.143 3.75507 16.532 3.34715 16.6039C2.93923 16.6758 2.55023 16.4034 2.47831 15.9955L1.2614 9.09408C1.22686 8.89819 1.27155 8.6966 1.38564 8.53366C1.49973 8.37073 1.67388 8.25978 1.86977 8.22524L4.87808 7.69479C6.39676 7.42701 7.85167 8.31905 8.33412 9.73461C9.08009 8.5062 10.4306 7.68556 11.9728 7.68556C13.7387 7.68556 15.2533 8.76161 15.8967 10.2938L16.0772 8.23004C16.0946 8.03189 16.1899 7.84874 16.3423 7.72088ZM3.41964 12.696L5.68935 12.2957C6.55195 12.1436 7.12792 11.3211 6.97582 10.4585C6.82372 9.59588 6.00115 9.01991 5.13855 9.17201L2.86885 9.57222L3.41964 12.696ZM17.2297 12.2678L19.5257 12.4687C20.3982 12.545 21.1675 11.8995 21.2438 11.0269C21.3202 10.1544 20.6747 9.38513 19.8021 9.30879L17.5062 9.10792L17.2297 12.2678ZM11.9728 9.18556C10.4518 9.18556 9.21883 10.4185 9.21883 11.9395C9.21883 13.4605 10.4518 14.6935 11.9728 14.6935C13.4937 14.6935 14.7267 13.4605 14.7267 11.9395C14.7267 10.4185 13.4937 9.18556 11.9728 9.18556Z" fill="currentColor"/></g></svg>