<svg width="24px" height="24px" viewBox="0 0 24 24" fill="currentColor" xmlns="http://www.w3.org/2000/svg"><g><path d="M8.54271 0.0269889C8.06219 0.147116 7.77008 0.634015 7.89019 1.11452C7.974 1.44964 8.05212 1.73626 8.12364 1.99866L8.12402 2.00003C8.26102 2.50242 8.37417 2.91737 8.45598 3.41295C8.53662 3.90163 8.99818 4.23239 9.48688 4.15171C9.97549 4.07104 10.3063 3.60949 10.2256 3.12081C10.1289 2.53481 9.97823 1.98034 9.82702 1.42382L9.82259 1.40749C9.75709 1.16619 9.69146 0.924441 9.63027 0.679508C9.51016 0.199008 9.02324 -0.0931382 8.54271 0.0269889Z" fill="currentColor"/><path d="M4.10507 3.83824C3.66039 3.62011 3.47674 3.08281 3.69487 2.63814C3.913 2.19347 4.4503 2.00981 4.89497 2.22794C5.60171 2.57461 6.40664 3.00736 7.1886 3.88902C7.51725 4.25957 7.48333 4.82635 7.11281 5.155C6.74223 5.48365 6.17544 5.44973 5.84679 5.07922C5.29802 4.46047 4.74376 4.15154 4.10507 3.83824Z" fill="currentColor"/><path fill-rule="evenodd" clip-rule="evenodd" d="M16.1777 5.51693C17.1012 6.01133 17.3632 6.86422 17.4315 7.31421C17.4796 7.63063 17.4634 7.94124 17.411 8.25506L17.1238 9.3945C17.0685 9.67458 17.0613 9.83471 17.0643 9.91928C17.0667 9.9879 17.0756 10.0106 17.08 10.0217L17.0805 10.0231C17.0918 10.0517 17.1209 10.1138 17.227 10.2748C17.2908 10.3714 17.356 10.4671 17.4212 10.5628C17.5099 10.6927 17.5986 10.8229 17.6836 10.9554C18.2803 11.8853 18.3389 12.7778 18.3357 13.3498L18.3355 13.3748C18.5792 13.4583 18.8162 13.5485 19.0499 13.6431C19.1408 13.4645 19.4278 13.0041 19.9699 13.0041C20.6426 13.0041 20.9182 13.9502 20.9182 13.9502C21.1827 15.7122 19.9803 21.6296 18.2413 22.7329C16.9132 23.5755 15.9282 22.3233 15.1974 20.3969C15.0342 20.3623 14.8569 20.3243 14.6743 20.2847C14.0032 20.1389 13.0936 19.9351 12.6645 19.7927L12.6335 19.7824L12.6029 19.7711C12.4126 19.7004 12.0908 19.6211 11.5579 19.4996L11.4594 19.4772C10.9996 19.3726 10.4338 19.2437 9.89797 19.0815C9.34305 18.9134 8.65661 18.6635 8.07386 18.2562C7.46213 17.8287 6.76666 17.0749 6.72789 15.9442C6.7221 15.7749 6.72596 15.6113 6.73644 15.4561C6.46099 15.1575 6.22979 14.7671 6.11299 14.2673C5.99912 13.7804 6.06211 13.3486 6.14198 13.0457C6.2314 12.7061 6.38074 12.3869 6.55073 12.0809C6.21444 11.9747 5.83468 11.8437 5.46502 11.6861C4.98222 11.4803 4.29719 11.1407 3.78578 10.5927C3.05499 9.8095 2.83651 8.68369 3.32231 7.7114C3.90078 6.55368 5.00569 6.1447 5.98841 6.10932C6.87583 6.07732 7.82007 6.32564 8.66609 6.62237C9.43695 6.89274 10.5403 7.39562 11.4775 7.83359C11.7863 7.32739 12.1932 6.75536 12.5784 6.29342L12.7436 6.12103C13.4064 5.5177 14.151 5.31487 14.7184 5.27131C15.1824 5.23582 15.7665 5.26674 16.1777 5.51693ZM18.5256 15.3031C18.4514 15.5332 18.3839 15.7715 18.3165 16.0096C18.0173 17.0671 17.7194 18.1198 16.8311 18.4352C16.227 18.6497 15.6229 18.6392 15.1942 18.584C14.5888 18.4535 13.9923 18.2959 13.3959 18.1383C12.8827 18.0027 12.3696 17.8671 11.8508 17.7489L11.8481 17.7483C10.5868 17.461 9.0856 17.119 8.65565 16.3473C8.58326 16.2172 8.54124 16.075 8.53592 15.9188C8.51156 15.209 8.76027 14.5735 8.76027 14.5735C8.76027 14.5735 8.37457 14.5751 8.10412 14.3149C7.49394 13.7281 8.06592 12.8011 8.53582 12.3313C8.6493 12.2177 8.98582 11.9763 9.62469 11.9047C10.2312 11.8367 10.9819 11.9097 11.7601 12.2544C12.357 12.5187 12.7697 13.1253 12.9421 13.8527C13.0263 14.2081 13.0418 14.5532 13.0052 14.8347C12.9668 15.1314 12.8821 15.28 12.8433 15.3245C12.795 15.3798 12.6249 15.4751 12.1519 15.3747C11.8981 15.3209 11.6461 15.2335 11.4137 15.1173C10.9749 14.8906 10.435 15.0615 10.2067 15.4999C9.97801 15.9393 10.1492 16.4811 10.5885 16.7098L10.5902 16.7107L10.5931 16.7121C10.9647 16.9036 11.3717 17.0427 11.7797 17.1293C12.3684 17.2542 13.4569 17.3495 14.1947 16.5037C14.9028 15.6921 14.9232 14.4339 14.6873 13.439C14.4312 12.3581 13.7529 11.1754 12.4866 10.6144C11.4015 10.1338 10.3292 10.0208 9.42486 10.1222C8.83145 10.1887 8.26404 10.354 7.80486 10.6055L7.78179 10.5989C6.64856 10.2752 4.39387 9.63122 4.94908 8.52003C5.37004 7.67755 6.52332 7.74725 8.08762 8.29584C8.92 8.58781 10.1771 9.17855 11.1899 9.65485C11.5393 9.81906 12.1232 10.0895 12.1232 10.0895C12.7875 9.29236 13.0454 8.85324 13.273 8.46564C13.4296 8.19906 13.5719 7.95686 13.8221 7.63932C14.352 6.96711 15.8652 6.65766 15.6417 7.84755L15.3572 8.97627C15.0856 10.3045 15.3862 10.7441 15.8818 11.4685C15.9688 11.5958 16.0619 11.732 16.1588 11.8831C16.554 12.4989 16.5358 13.091 16.5209 13.5744C16.5113 13.8849 16.5031 14.1513 16.6072 14.3493C16.8216 14.7573 17.6238 15.0103 18.1498 15.1762C18.3073 15.2259 18.4384 15.2695 18.5256 15.3031Z" fill="currentColor"/><path d="M12.4364 0.880227C12.6934 0.456791 13.2449 0.321808 13.6684 0.578737C14.0918 0.835667 14.2268 1.38722 13.9699 1.81065C13.6235 2.3815 13.3413 3.11835 13.236 3.92745C13.172 4.41859 12.722 4.76488 12.2308 4.70094C11.7398 4.63699 11.3934 4.18699 11.4574 3.69584C11.5964 2.62814 11.9666 1.65458 12.4364 0.880227Z" fill="currentColor"/></g></svg>