<svg width="24px" height="24px" viewBox="0 0 24 24" fill="currentColor" xmlns="http://www.w3.org/2000/svg"><g><path d="M13 6.96C13 4.77 14.79 3 17 3C19.21 3 21 4.78 21 6.96C21 10.07 17.48 11.84 17.33 11.92C17.23 11.97 17.11 12 17 12C16.89 12 16.77 11.97 16.67 11.92C16.52 11.85 13 10.07 13 6.96ZM20.25 12C19.84 12 19.5 12.34 19.5 12.75V17.25C19.5 18.49 18.49 19.5 17.25 19.5H5.25C4.29 19.5 3.5 18.71 3.5 17.75C3.5 16.79 4.29 16 5.25 16H7C7.41 16 7.75 15.66 7.75 15.25V7.5H10.75C11.16 7.5 11.5 7.16 11.5 6.75C11.5 6.34 11.16 6 10.75 6H7.75V3.75C7.75 3.34 7.41 3 7 3H5.25C3.46 3 2 4.46 2 6.25V17.75C2 19.54 3.46 21 5.25 21H17.25C19.32 21 21 19.32 21 17.25V12.75C21 12.34 20.66 12 20.25 12Z" fill="currentColor"/></g></svg>