<svg width="24px" height="24px" viewBox="0 0 24 24" fill="currentColor" xmlns="http://www.w3.org/2000/svg"><g><path fill-rule="evenodd" clip-rule="evenodd" d="M14.5433 2.77454C16.0687 1.6012 18.2277 1.74141 19.5885 3.10219L20.8979 4.41157C22.2587 5.77234 22.3989 7.93139 21.2255 9.45674L14.7437 17.8831C13.8886 18.9947 12.5592 19.4967 11.2804 19.3552C11.2434 19.3711 11.2047 19.3843 11.1643 19.3944C9.55368 19.7971 7.53691 20.9107 6.05986 22.1459C5.35738 22.7333 4.2662 22.7688 3.5631 22.0657L1.93432 20.437C1.23122 19.7339 1.26675 18.6427 1.85419 17.9402C3.08938 16.4632 4.20301 14.4464 4.60566 12.8358C4.61575 12.7954 4.62894 12.7566 4.64491 12.7196C4.50334 11.4409 5.00538 10.1114 6.11691 9.2564L14.5433 2.77454ZM5.52817 14.7685C4.91634 16.226 3.98772 17.7272 3.00487 18.9025C2.86452 19.0703 2.89585 19.2772 2.99498 19.3763L4.62376 21.0051C4.72289 21.1042 4.92977 21.1355 5.0976 20.9952C6.2729 20.0123 7.77411 19.0837 9.23153 18.4719C9.15145 18.4039 9.07343 18.3321 8.99769 18.2563L5.74375 15.0024C5.66801 14.9266 5.59616 14.8486 5.52817 14.7685Z" fill="currentColor"/></g></svg>