<svg width="24px" height="24px" viewBox="0 0 24 24" fill="currentColor" xmlns="http://www.w3.org/2000/svg"><g><path fill-rule="evenodd" clip-rule="evenodd" d="M22 12C22 17.5228 17.5228 22 12 22C6.47715 22 2 17.5228 2 12C2 6.47715 6.47715 2 12 2C17.5228 2 22 6.47715 22 12ZM6.2894 18.296C6.30001 18.2783 6.31139 18.2608 6.32352 18.2438C7.26288 16.9232 7.82324 15.894 8.2174 14.5664C8.31549 14.236 8.61322 14 8.95788 14H15.0421C15.3867 14 15.6845 14.236 15.7826 14.5664C16.1767 15.894 16.7371 16.9232 17.6764 18.2438C17.6886 18.2608 17.6999 18.2783 17.7106 18.2961C16.2016 19.6655 14.1982 20.5 12 20.5C9.80172 20.5 7.79836 19.6655 6.2894 18.296ZM9 12.5V10.476C9 9.90239 9.39037 9.40241 9.94683 9.26329L13.4468 8.38829C14.2358 8.19106 15 8.78776 15 9.60097V12.5H9Z" fill="currentColor"/></g></svg>