<svg width="24px" height="24px" viewBox="0 0 24 24" fill="currentColor" xmlns="http://www.w3.org/2000/svg"><g><path d="M12.221 9.71755C13.1839 8.75475 14.5933 8.38949 15.9026 8.76345L16.9583 9.06521C17.5708 9.24028 18.1289 9.56889 18.5794 10.0193L20.5296 11.9695C20.8224 12.2624 20.8224 12.7372 20.5296 13.03L12.0296 21.5301C11.7367 21.8229 11.2619 21.8229 10.969 21.5301L9.01881 19.5799C8.5684 19.1294 8.23979 18.5713 8.06471 17.9588L7.76295 16.9031C7.38898 15.5938 7.75427 14.1844 8.71705 13.2215L12.221 9.71755Z" fill="currentColor"/><path d="M4.67506 2.69899C4.89411 1.87701 5.8776 1.51161 6.58034 1.99099L6.72682 2.1072L12.0061 6.94704C12.1567 7.08515 12.2447 7.27888 12.2493 7.48317C12.2537 7.68769 12.1742 7.8854 12.0296 8.03005L7.02955 13.03C6.88891 13.1707 6.69817 13.2498 6.49928 13.2498C6.30047 13.2497 6.1096 13.1706 5.96901 13.03L4.99733 12.0584C4.18601 11.2469 3.79009 10.1082 3.92409 8.96853L4.63991 2.88259L4.67506 2.69899Z" fill="currentColor"/></g></svg>