<svg width="24px" height="24px" viewBox="0 0 24 24" fill="currentColor" xmlns="http://www.w3.org/2000/svg"><g><path fill-rule="evenodd" clip-rule="evenodd" d="M15.9683 17.2439C18.4742 16.9446 20.6561 15.4006 20.9304 13.9898C21.3625 11.7674 21.3268 8.56632 21.3268 8.56632C21.3268 4.22771 18.4842 2.95599 18.4842 2.95599C17.051 2.29772 14.5899 2.0209 12.033 2H11.9702C9.41328 2.0209 6.95379 2.29772 5.52045 2.95599C5.52045 2.95599 2.67779 4.22771 2.67779 8.56632C2.67779 8.82934 2.67643 9.10599 2.67501 9.39399C2.67108 10.1938 2.66672 11.0812 2.68986 12.0074C2.79308 16.2504 3.46773 20.432 7.39063 21.4703C9.19939 21.9491 10.7523 22.0493 12.003 21.9805C14.2712 21.8548 15.5444 21.1711 15.5444 21.1711L15.4696 19.5254C15.4696 19.5254 13.8488 20.0365 12.0285 19.9742C10.225 19.9124 8.32108 19.7797 8.02939 17.5655C8.00246 17.371 7.98899 17.163 7.98899 16.9446C7.98899 16.9446 9.75939 17.3774 12.003 17.4802C13.375 17.5431 14.6616 17.3998 15.9683 17.2439ZM17.9739 14.1562V8.90285C17.9739 7.82919 17.7006 6.97599 17.1516 6.34477C16.5852 5.71354 15.8436 5.38996 14.9232 5.38996C13.858 5.38996 13.0515 5.79931 12.5183 6.61814L11.9998 7.48717L11.4814 6.61814C10.9481 5.79931 10.1416 5.38996 9.07657 5.38996C8.15602 5.38996 7.41446 5.71354 6.84821 6.34477C6.2991 6.97599 6.02572 7.82919 6.02572 8.90285V14.1562H8.107V9.05726C8.107 7.98241 8.55924 7.43685 9.46383 7.43685C10.464 7.43685 10.9654 8.08402 10.9654 9.36371V12.1547H13.0344V9.36371C13.0344 8.08402 13.5356 7.43685 14.5358 7.43685C15.4404 7.43685 15.8927 7.98241 15.8927 9.05726V14.1562H17.9739Z" fill="currentColor"/></g></svg>