<svg width="24px" height="24px" viewBox="0 0 24 24" fill="currentColor" xmlns="http://www.w3.org/2000/svg"><g><path fill-rule="evenodd" clip-rule="evenodd" d="M4 12C4 11.5858 4.33579 11.25 4.75 11.25H19.25C19.6642 11.25 20 11.5858 20 12C20 12.4142 19.6642 12.75 19.25 12.75H4.75C4.33579 12.75 4 12.4142 4 12Z" fill="currentColor"/><path fill-rule="evenodd" clip-rule="evenodd" d="M10.75 6.25C10.75 5.55964 11.3096 5 12 5C12.6904 5 13.25 5.55964 13.25 6.25C13.25 6.94036 12.6904 7.5 12 7.5C11.3096 7.5 10.75 6.94036 10.75 6.25Z" fill="currentColor"/><path fill-rule="evenodd" clip-rule="evenodd" d="M10.75 17.75C10.75 17.0596 11.3096 16.5 12 16.5C12.6904 16.5 13.25 17.0596 13.25 17.75C13.25 18.4404 12.6904 19 12 19C11.3096 19 10.75 18.4404 10.75 17.75Z" fill="currentColor"/></g></svg>