<svg width="24px" height="24px" viewBox="0 0 24 24" fill="currentColor" xmlns="http://www.w3.org/2000/svg"><g><path fill-rule="evenodd" clip-rule="evenodd" d="M12 1C7.58172 1 4 4.58172 4 9C4 11.5264 5.17108 13.7793 7 15.2454V21.1742C7 22.457 8.33447 23.3039 9.49514 22.7577L11.8936 21.629C11.961 21.5973 12.039 21.5973 12.1064 21.629L14.5049 22.7577C15.6655 23.3039 17 22.457 17 21.1742V15.2454C18.8289 13.7793 20 11.5264 20 9C20 4.58172 16.4183 1 12 1ZM8.5 16.1958C9.5572 16.7109 10.7448 17 12 17C13.2552 17 14.4428 16.7109 15.5 16.1958V21.1742C15.5 21.3575 15.3094 21.4785 15.1436 21.4004L12.7451 20.2718C12.2732 20.0497 11.7268 20.0497 11.2549 20.2718L8.85645 21.4004C8.69064 21.4785 8.5 21.3575 8.5 21.1742V16.1958Z" fill="currentColor"/></g></svg>