<svg width="24px" height="24px" viewBox="0 0 24 24" fill="currentColor" xmlns="http://www.w3.org/2000/svg"><g><path d="M20.0774 11.9502C20.4342 11.7127 20.7522 11.4547 21.0221 11.1766C21.6082 10.5725 22 9.83592 22 9C22 8.16408 21.6082 7.42748 21.0221 6.82342C20.4394 6.22291 19.6326 5.7164 18.694 5.30727C16.8145 4.48802 14.2705 4 11.5 4C9.38451 4 7.40106 4.28454 5.7447 4.78382L20.0774 11.9502Z" fill="currentColor"/><path d="M18.4303 12.8037L3.85552 5.51629C3.10898 5.88497 2.46514 6.32134 1.97795 6.82342C1.39181 7.42748 1 8.16408 1 9C1 9.83592 1.39181 10.5725 1.97795 11.1766C2.56065 11.7771 3.36744 12.2836 4.30602 12.6927C6.18548 13.512 8.72951 14 11.5 14C14.143 14 16.5799 13.5559 18.4303 12.8037Z" fill="currentColor"/><path d="M1 12.3205C1.74746 13.0569 2.7001 13.629 3.70664 14.0678C5.81624 14.9873 8.57333 15.5 11.5 15.5C14.4267 15.5 17.1838 14.9873 19.2934 14.0678C20.2999 13.629 21.2525 13.057 22 12.3205V15C22 15.8359 21.6082 16.5725 21.0221 17.1766C20.4394 17.7771 19.6326 18.2836 18.694 18.6927C16.8145 19.512 14.2705 20 11.5 20C8.72951 20 6.18548 19.512 4.30602 18.6927C3.36744 18.2836 2.56065 17.7771 1.97795 17.1766C1.39181 16.5725 1 15.8359 1 15V12.3205Z" fill="currentColor"/></g></svg>