<svg width="24px" height="24px" viewBox="0 0 24 24" fill="currentColor" xmlns="http://www.w3.org/2000/svg"><g><path fill-rule="evenodd" clip-rule="evenodd" d="M17.25 3C19.3211 3 21 4.67893 21 6.75V17.25C21 19.3211 19.3211 21 17.25 21H6.75C4.67893 21 3 19.3211 3 17.25V6.75C3 4.67893 4.67893 3 6.75 3H17.25ZM11 8C10.7239 8 10.5 8.22386 10.5 8.5V10C10.5 10.2761 10.2761 10.5 10 10.5H8.5C8.22386 10.5 8 10.7239 8 11V13C8 13.2761 8.22386 13.5 8.5 13.5H10C10.2761 13.5 10.5 13.7239 10.5 14V15.5C10.5 15.7761 10.7239 16 11 16H13C13.2761 16 13.5 15.7761 13.5 15.5V14C13.5 13.7239 13.7239 13.5 14 13.5H15.5C15.7761 13.5 16 13.2761 16 13V11C16 10.7239 15.7761 10.5 15.5 10.5H14C13.7239 10.5 13.5 10.2761 13.5 10V8.5C13.5 8.22386 13.2761 8 13 8H11Z" fill="currentColor"/></g></svg>