<svg width="24px" height="24px" viewBox="0 0 24 24" fill="currentColor" xmlns="http://www.w3.org/2000/svg"><g><path fill-rule="evenodd" clip-rule="evenodd" d="M12 2C17.5228 2 22 6.47715 22 12C22 17.5228 17.5228 22 12 22C6.47715 22 2 17.5228 2 12C2 6.47715 6.47715 2 12 2ZM11 8C10.7239 8 10.5 8.22386 10.5 8.5V10C10.5 10.2761 10.2761 10.5 10 10.5H8.5C8.22386 10.5 8 10.7239 8 11V13C8 13.2761 8.22386 13.5 8.5 13.5H10C10.2761 13.5 10.5 13.7239 10.5 14V15.5C10.5 15.7761 10.7239 16 11 16H13C13.2761 16 13.5 15.7761 13.5 15.5V14C13.5 13.7239 13.7239 13.5 14 13.5H15.5C15.7761 13.5 16 13.2761 16 13V11C16 10.7239 15.7761 10.5 15.5 10.5H14C13.7239 10.5 13.5 10.2761 13.5 10V8.5C13.5 8.22386 13.2761 8 13 8H11Z" fill="currentColor"/></g></svg>