<svg width="24px" height="24px" viewBox="0 0 24 24" fill="currentColor" xmlns="http://www.w3.org/2000/svg"><g><path d="M6.76859 18.8203C10.507 18.8203 13.5374 15.7689 13.5374 12.005C13.5374 8.24114 10.5067 5.19 6.76859 5.19C3.03045 5.19 0 8.24022 0 12.005C0 15.7698 3.03022 18.8203 6.76859 18.8203Z" fill="currentColor"/><path d="M17.5785 18.4203C19.4475 18.4203 20.9629 15.5482 20.9629 12.005C20.9629 8.46271 19.4475 5.5897 17.5785 5.5897C15.7094 5.5897 14.1941 8.46271 14.1941 12.005C14.1941 15.5473 15.7094 18.4203 17.5785 18.4203Z" fill="currentColor"/><path d="M22.8097 17.7529C23.467 17.7529 24 15.1796 24 12.005C24 8.83068 23.4675 6.25715 22.8099 6.25715C22.1523 6.25715 21.6193 8.83137 21.6193 12.005C21.6193 15.1787 22.1523 17.7529 22.8097 17.7529Z" fill="currentColor"/></g></svg>