<svg width="24px" height="24px" viewBox="0 0 24 24" fill="currentColor" xmlns="http://www.w3.org/2000/svg"><g><path d="M12.5 18.0185V19.5C12.5 20.8807 11.3807 22 10 22C8.61931 22 7.50003 20.8807 7.5 19.5V16.5H10.0693L12.5 18.0185Z" fill="currentColor"/><path d="M16.2051 3.43455C17.2041 2.81016 18.4998 3.52806 18.5 4.70603V17.2939C18.4998 18.4719 17.2041 19.1897 16.2051 18.5654L10.5 15V6.99998L16.2051 3.43455Z" fill="currentColor"/><path d="M9 15H5.5C3.29088 15 1.50003 13.2091 1.5 11C1.5 8.79084 3.29086 6.99998 5.5 6.99998H9V15Z" fill="currentColor"/><path d="M20 8.99998C21.3807 8.99998 22.5 10.1193 22.5 11.5C22.5 12.8807 21.3807 14 20 14V8.99998Z" fill="currentColor"/></g></svg>