<svg width="24px" height="24px" viewBox="0 0 24 24" fill="currentColor" xmlns="http://www.w3.org/2000/svg"><g><path fill-rule="evenodd" clip-rule="evenodd" d="M14.1398 3.23295C16.552 2.48817 18.9961 4.2915 18.9961 6.81604V7.32505C20.7078 7.6725 21.9961 9.18582 21.9961 11C21.9961 12.8143 20.7078 14.3276 18.9961 14.675V15.184C18.9961 17.7086 16.552 19.5119 14.1398 18.7671L13.2817 18.5022C12.7667 19.9565 11.3792 21 9.74609 21C7.67503 21 5.99609 19.3211 5.99609 17.25V16.2527L4.63979 15.8339C3.06808 15.3487 1.99609 13.8958 1.99609 12.2508V9.74922C1.99609 8.1043 3.06808 6.6514 4.63979 6.16613L6.51034 5.58858C6.5212 5.58495 6.53218 5.58156 6.54326 5.57842L14.1398 3.23295ZM7.49609 16.7158V17.25C7.49609 18.4927 8.50345 19.5 9.74609 19.5C10.7025 19.5 11.5212 18.903 11.8465 18.0591L7.49609 16.7158ZM20.4961 11C20.4961 11.9797 19.87 12.8131 18.9961 13.122V8.87807C19.87 9.18694 20.4961 10.0204 20.4961 11ZM5.99829 7.31655V14.6835L5.08231 14.4007C4.13929 14.1095 3.49609 13.2378 3.49609 12.2508V9.74922C3.49609 8.76227 4.13929 7.89053 5.08231 7.59936L5.99829 7.31655Z" fill="currentColor"/></g></svg>