<svg width="24px" height="24px" viewBox="0 0 24 24" fill="currentColor" xmlns="http://www.w3.org/2000/svg"><g><path d="M17.2407 5.18518L16.5438 3.37334C16.4573 3.14842 16.2412 3 16.0002 3C15.7592 3 15.5431 3.14842 15.4566 3.37334L14.7598 5.18518C14.6582 5.44927 14.4495 5.65797 14.1854 5.75955L12.3736 6.45641C12.1486 6.54292 12.0002 6.75901 12.0002 7C12.0002 7.24099 12.1486 7.45708 12.3736 7.54359L14.1854 8.24045C14.4495 8.34203 14.6582 8.55073 14.7598 8.81482L15.4566 10.6267C15.5431 10.8516 15.7592 11 16.0002 11C16.2412 11 16.4573 10.8516 16.5438 10.6267L17.2407 8.81482C17.3423 8.55073 17.551 8.34203 17.815 8.24045L19.6269 7.54359C19.8518 7.45708 20.0002 7.24099 20.0002 7C20.0002 6.75901 19.8518 6.54292 19.6269 6.45641L17.815 5.75955C17.551 5.65797 17.3423 5.44927 17.2407 5.18518Z" fill="currentColor"/><path d="M18.1886 14.2002C18.3543 13.8208 18.7964 13.647 19.1759 13.8125C19.5553 13.9783 19.729 14.4204 19.5636 14.7998C18.3863 17.4943 15.8094 19.4391 12.7501 19.7148V21.25C12.7501 21.6642 12.4143 22 12.0001 22C11.5859 21.9999 11.2501 21.6642 11.2501 21.25V19.7148C8.19083 19.4391 5.61392 17.4944 4.43662 14.7998C4.27119 14.4204 4.445 13.9783 4.82431 13.8125C5.20376 13.647 5.64583 13.8208 5.81162 14.2002C6.854 16.5854 9.23357 18.2499 12.0001 18.25C14.7666 18.25 17.1462 16.5855 18.1886 14.2002Z" fill="currentColor"/><path d="M12.0001 2C12.7947 2 13.5459 2.18581 14.213 2.51562C14.1798 2.57124 14.1484 2.62834 14.1202 2.6875L14.0567 2.83496L13.4386 4.43848L11.8351 5.05664C11.0309 5.36598 10.5001 6.1384 10.5001 7C10.5001 7.8616 11.0309 8.63402 11.8351 8.94336L13.4386 9.56055L14.0567 11.165C14.366 11.9692 15.1385 12.4999 16.0001 12.5C16.3341 12.5 16.6541 12.4189 16.9395 12.2744C16.5673 14.668 14.4981 16.5 12.0001 16.5C9.23873 16.4999 7.0001 14.2614 7.0001 11.5V7C7.0001 4.23862 9.23873 2.00007 12.0001 2Z" fill="currentColor"/><path d="M12.3736 6.45641C12.3455 6.4672 12.3186 6.48051 12.2931 6.49512L12.2921 6.49414C12.3177 6.47945 12.3454 6.46724 12.3736 6.45641L12.8644 6.2666L14.1854 5.75955L12.3736 6.45641Z" fill="currentColor"/></g></svg>