<svg width="24px" height="24px" viewBox="0 0 24 24" fill="currentColor" xmlns="http://www.w3.org/2000/svg"><g><path fill-rule="evenodd" clip-rule="evenodd" d="M20.8438 15.7415C20.9305 15.7359 21.0169 15.7576 21.0909 15.803C21.1649 15.8487 21.2238 15.9164 21.2579 15.9964C21.2919 16.0765 21.2999 16.1662 21.2813 16.2513C21.2626 16.3363 21.2177 16.4134 21.1534 16.472C19.9809 17.5363 18.4915 18.4814 16.7051 19.3597C16.8386 19.4222 16.9632 19.4524 17.0948 19.4524C17.257 19.4524 17.4092 19.4093 17.5782 19.3138L17.5948 19.304L17.5977 19.3021L17.6114 19.2942C17.7238 19.2268 17.8279 19.1503 18.0235 18.9876L18.1797 18.8577C18.4257 18.6532 18.5618 18.5498 18.7471 18.4437C19.0324 18.2804 19.328 18.1917 19.6524 18.1917C19.9766 18.1918 20.2715 18.2805 20.5567 18.4437L20.5606 18.4456L20.5772 18.4564C20.7527 18.5581 20.8889 18.6612 21.125 18.8577L21.2803 18.9876C21.3762 19.0675 21.4505 19.1259 21.5137 19.1732L21.6846 19.2884L21.71 19.304L21.7207 19.3099L21.7217 19.3108C21.8879 19.4058 22.036 19.4495 22.1924 19.4524H22.209C22.263 19.4496 22.3171 19.4573 22.3682 19.4749C22.4231 19.4939 22.4739 19.5244 22.5166 19.5638C22.5592 19.6031 22.593 19.6513 22.6163 19.7044C22.6395 19.7576 22.6523 19.8153 22.6524 19.8733C22.6524 19.9314 22.6395 19.9891 22.6163 20.0423C22.593 20.0954 22.5592 20.1436 22.5166 20.1829C22.4739 20.2223 22.4231 20.2518 22.3682 20.2708C22.317 20.2885 22.263 20.2951 22.209 20.2923C22.2074 20.2923 22.2058 20.2923 22.2041 20.2923C22.2019 20.2922 22.1995 20.2934 22.1973 20.2933C21.8775 20.2911 21.5863 20.2025 21.3038 20.0413L21.3028 20.0403C21.275 20.0243 21.247 20.0075 21.2198 19.9905L21.2041 19.9808L21.1748 19.9632L21.1573 19.9505C21.0051 19.8467 20.8581 19.7341 20.7188 19.6136L20.5801 19.4974L20.5772 19.4954C20.4508 19.3848 20.315 19.2841 20.1729 19.1946L20.1592 19.1858L20.1426 19.1771L20.1338 19.1722C19.9882 19.0832 19.8211 19.0346 19.6504 19.0325C19.4875 19.0328 19.3349 19.0766 19.1661 19.1732L19.1641 19.1741L19.1514 19.18L19.1368 19.1907C19.0243 19.2582 18.9193 19.3346 18.7237 19.4974L18.586 19.6126C18.4405 19.7389 18.2871 19.856 18.127 19.9632L18.1241 19.9661L18.1231 19.9651L18.1045 19.9778L18.085 19.9905L18.0821 19.9925L18.003 20.0394C17.7288 20.2037 17.4154 20.2914 17.0957 20.2933C16.7714 20.2932 16.4763 20.2044 16.1905 20.0413C16.1626 20.0252 16.1347 20.0075 16.1075 19.9905H16.1055L16.0909 19.9808L16.0713 19.9691L16.0655 19.9651L16.043 19.9505L16.0411 19.9495C15.9088 19.8594 15.781 19.7615 15.6592 19.6575C15.6177 19.6335 15.5809 19.6033 15.5498 19.5667L15.4668 19.4983L15.4639 19.4954C15.3376 19.3849 15.2026 19.2841 15.0606 19.1946L15.0362 19.18L15.0303 19.1771L15.0215 19.1722C14.8757 19.0829 14.7081 19.0346 14.5372 19.0325C14.3756 19.0329 14.224 19.076 14.0557 19.1712L14.0401 19.181L14.0372 19.1829L14.0215 19.1898L14.0225 19.1907C13.9101 19.2582 13.8067 19.3349 13.6114 19.4974L13.4727 19.6126C13.3272 19.7389 13.1738 19.856 13.0137 19.9632L13.0088 19.9671L12.9883 19.9798L12.9717 19.9905L12.9678 19.9925L12.8897 20.0394C12.6158 20.2036 12.3028 20.2912 11.9834 20.2933C11.659 20.2933 11.3625 20.2046 11.0772 20.0413C11.0493 20.0252 11.0215 20.0076 10.9942 19.9905L10.9776 19.9798L10.9581 19.9691L10.9512 19.9651L10.9336 19.9524L10.9317 19.9515C10.778 19.8467 10.6299 19.7334 10.4893 19.6116L10.3536 19.4974L10.3506 19.4954C10.2243 19.3848 10.0894 19.2841 9.94731 19.1946L9.92973 19.1839L9.91411 19.1751L9.90825 19.1722C9.76232 19.0828 9.59499 19.0345 9.42387 19.0325C9.26187 19.0328 9.10856 19.0754 8.93852 19.1722L8.9395 19.1732L8.92289 19.1829L8.9102 19.1907C8.79732 19.258 8.6939 19.3345 8.49809 19.4974L8.36137 19.6107C8.21496 19.7377 8.06062 19.8565 7.89946 19.9642L7.8975 19.9661L7.89653 19.9651L7.87797 19.9778L7.85844 19.9905L7.85551 19.9925L7.77641 20.0394C7.49213 20.2091 7.16608 20.2962 6.835 20.2913H6.82719L6.8184 20.2903C6.21757 20.2178 5.7383 20.0031 5.28129 19.6556L5.08598 19.4983L5.05571 19.472L5.05473 19.471C5.01185 19.4336 4.94803 19.3747 4.88383 19.3157L4.71196 19.1575L4.71098 19.1566L4.61723 19.0696L4.60942 19.0618L4.60454 19.0579C4.52841 18.9822 4.44226 18.9162 4.34868 18.8636C4.34252 18.8605 4.3357 18.8587 4.32914 18.8567C4.25175 18.873 4.17275 18.8977 4.08989 18.931C4.06951 18.9489 4.04796 18.9651 4.02446 18.9788L4.02543 18.9808L4.0186 18.9847L4.00786 18.9915L4.00688 18.9905C3.96793 19.0106 3.92588 19.0215 3.88286 19.0286C3.65925 19.1542 3.44588 19.2976 3.24516 19.4573L3.24321 19.4583L2.87993 19.7425L2.83207 19.7796C2.73751 19.853 2.63994 19.924 2.54106 19.9915L2.54008 19.9925C2.26548 20.1788 2.0182 20.2933 1.7559 20.2933H1.74711C1.64137 20.2866 1.54195 20.24 1.46879 20.1634C1.39574 20.0868 1.35332 19.9851 1.35161 19.8792C1.35009 19.7736 1.38864 19.6709 1.45903 19.5921C1.52967 19.5132 1.62802 19.4635 1.73344 19.4534L1.74028 19.4524H1.7559C1.76461 19.4524 1.79388 19.449 1.84965 19.4241C1.90303 19.4003 1.97135 19.3615 2.05571 19.305L2.09086 19.2816C2.15555 19.2361 2.22843 19.1823 2.31938 19.1126L2.65532 18.8509L2.70707 18.8099L2.70805 18.8089C2.89838 18.6626 3.07537 18.5387 3.24223 18.4329L2.752 17.4964C2.71982 17.4345 2.70299 17.365 2.70414 17.2952C2.70541 17.2256 2.72367 17.1567 2.75786 17.096C2.79214 17.0352 2.84139 16.9838 2.90043 16.9466C2.95947 16.9095 3.02716 16.8877 3.09672 16.8831L20.8438 15.7415ZM3.79692 17.679L4.00297 18.0735C4.08128 18.0511 4.15975 18.0314 4.24028 18.0179L4.31059 18.011H4.31254C4.45258 18.0111 4.58638 18.0453 4.71391 18.1067C4.82885 18.1616 4.93509 18.2342 5.0518 18.3314L5.17289 18.4378L5.17485 18.4398L5.1895 18.4525L5.26957 18.5276L5.39457 18.6439L5.47954 18.722C5.5358 18.7739 5.58674 18.8196 5.61528 18.8441C6.02005 19.1929 6.39711 19.3866 6.88774 19.4515C7.04547 19.4464 7.19989 19.4026 7.33598 19.3226L7.34184 19.3187L7.35649 19.3108L7.37114 19.3021L7.38383 19.2942H7.38579C7.4987 19.227 7.6009 19.1507 7.79692 18.9876L7.95219 18.8577C8.19829 18.6531 8.33516 18.5499 8.52055 18.4437C8.80647 18.2806 9.10063 18.1918 9.42582 18.1917C9.66856 18.1917 9.8958 18.2413 10.1143 18.3353L10.3301 18.4437L10.3331 18.4456L10.3506 18.4564C10.5259 18.558 10.6622 18.6612 10.8985 18.8577L11.0528 18.9866C11.1493 19.0667 11.224 19.126 11.2872 19.1732L11.4581 19.2884L11.461 19.2903L11.4747 19.2991L11.4913 19.3079L11.4961 19.3108C11.6654 19.4085 11.8197 19.4524 11.9825 19.4524C12.1458 19.4524 12.2985 19.4086 12.4678 19.3118L12.4844 19.3021L12.4971 19.2942C12.6102 19.2269 12.7147 19.1502 12.9102 18.9876L13.0655 18.8577L13.3731 18.6136C13.4612 18.5491 13.5422 18.4967 13.6348 18.4437C13.92 18.2805 14.2149 18.1917 14.5391 18.1917C14.8635 18.1917 15.1575 18.2806 15.4434 18.4437L15.4463 18.4456L15.4668 18.4573L15.5928 18.5355C15.6975 18.6046 15.7997 18.6854 15.9375 18.7982C17.3515 18.1282 18.571 17.4233 19.5909 16.6644L3.79692 17.679Z" fill="currentColor"/><path fill-rule="evenodd" clip-rule="evenodd" d="M4.70219 2.52081H4.71098L4.73832 2.53253L4.73735 2.53351H4.7393C6.878 3.44732 9.18449 5.10604 11.043 7.14679C13.0753 9.37739 14.4849 11.9445 15.0381 14.678L15.1368 15.2278C15.148 15.301 15.1403 15.3766 15.1133 15.4456C15.0863 15.5145 15.0412 15.5753 14.9834 15.6214C14.9254 15.6676 14.8557 15.6975 14.7823 15.7083C14.709 15.7191 14.6343 15.7103 14.5655 15.6829C12.6584 14.9154 10.8748 14.6315 9.20512 14.7679L8.87309 14.8011C7.56289 14.9518 6.34463 15.3608 5.20512 15.9876L4.72172 16.2689C4.32303 16.5156 3.87832 16.0224 4.17094 15.6517L4.45903 15.2679C5.84445 13.3379 6.38077 11.2037 6.18852 8.93878C6.02012 6.96086 5.29858 4.95439 4.21196 3.13409L4.21098 3.13311C4.16653 3.05685 4.14685 2.96806 4.15532 2.88018C4.1639 2.79245 4.19969 2.70914 4.25786 2.64288C4.31614 2.57657 4.39446 2.52985 4.48051 2.51007C4.55417 2.49323 4.63063 2.49799 4.70219 2.52081ZM5.57036 3.86944C6.36086 5.46532 6.88385 7.16815 7.02836 8.86749C7.20472 10.9484 6.81075 12.9396 5.7725 14.7747C6.70586 14.3703 7.6896 14.096 8.72856 13.971H8.73051L8.77739 13.9651L9.10844 13.9319C10.7098 13.7967 12.3959 14.0201 14.167 14.636C13.6236 12.1708 12.3375 9.83671 10.4834 7.78058L10.4219 7.71222C8.9772 6.12617 7.25049 4.7812 5.57036 3.86944Z" fill="currentColor"/><path fill-rule="evenodd" clip-rule="evenodd" d="M9.95024 5.39581C9.55481 5.12201 9.85411 4.5082 10.3125 4.64776C11.9052 5.13416 13.7754 6.52088 15.4375 8.40362C17.1851 10.3837 18.5689 12.7523 19.2715 15.0921C19.2935 15.1665 19.2945 15.2467 19.2745 15.3216C19.2543 15.3964 19.2144 15.4645 19.1582 15.5179C19.1019 15.5713 19.0311 15.6082 18.9551 15.6243C18.8794 15.6403 18.8006 15.6355 18.7276 15.6097L18.7149 15.6048L18.6963 15.596L18.3653 15.4642L18.3643 15.4632C18.2816 15.4299 18.198 15.3983 18.1143 15.3675L18.1133 15.3665L18.1006 15.3616C17.6036 15.1811 17.2172 15.1316 16.7129 15.2278L16.4883 15.2786C16.3815 15.3057 16.2681 15.2891 16.1729 15.2337C16.0779 15.1783 16.0078 15.0878 15.9786 14.9817C14.798 10.6889 12.7962 7.35987 9.95024 5.39581ZM13.3379 7.48175C14.7936 9.35158 15.9033 11.6872 16.6846 14.3802C17.2216 14.2962 17.6805 14.3433 18.1866 14.5032C17.4738 12.5825 16.2998 10.6636 14.8575 9.01593L14.8077 8.95929C14.3291 8.41742 13.8336 7.922 13.3379 7.48175Z" fill="currentColor"/></g></svg>