<svg width="24px" height="24px" viewBox="0 0 24 24" fill="currentColor" xmlns="http://www.w3.org/2000/svg"><g><path d="M9.25 13C10.7688 13 12 14.2312 12 15.75V19.25C12 20.7688 10.7688 22 9.25 22H4.75C3.23122 22 2 20.7688 2 19.25V15.75C2 14.2312 3.23122 13 4.75 13H9.25Z" fill="currentColor"/><path d="M20.5 6.75C20.5 5.50736 19.4926 4.5 18.25 4.5H6.75C5.50736 4.5 4.5 5.50736 4.5 6.75V10.25C4.5 10.6642 4.16421 11 3.75 11C3.33579 11 3 10.6642 3 10.25V6.75C3 4.67893 4.67893 3 6.75 3H18.25C20.3211 3 22 4.67893 22 6.75V12.25C22 14.3211 20.3211 16 18.25 16H14.75C14.3358 16 14 15.6642 14 15.25C14 14.8358 14.3358 14.5 14.75 14.5H18.25C19.4926 14.5 20.5 13.4926 20.5 12.25V6.75Z" fill="currentColor"/><path d="M13.75 12C13.3358 12 13 11.6642 13 11.25V8.25C13 7.83579 13.3358 7.5 13.75 7.5C14.1642 7.5 14.5 7.83579 14.5 8.25V9.43934L16.4697 7.46967C16.7626 7.17678 17.2374 7.17678 17.5303 7.46967C17.8232 7.76256 17.8232 8.23744 17.5303 8.53033L15.5607 10.5H16.75C17.1642 10.5 17.5 10.8358 17.5 11.25C17.5 11.6642 17.1642 12 16.75 12H13.75Z" fill="currentColor"/></g></svg>