<svg width="24px" height="24px" viewBox="0 0 24 24" fill="currentColor" xmlns="http://www.w3.org/2000/svg"><g><path d="M11.0533 2.79347C12.4449 1.40182 14.7017 1.40188 16.0933 2.79347L16.2193 2.92628C16.9519 3.73696 17.2448 4.80308 17.1002 5.81886C18.1172 5.67274 19.1848 5.96602 19.9966 6.69972L20.1294 6.82569L20.1714 6.86769L20.2974 7.0005C21.5615 8.3994 21.5197 10.5595 20.1714 11.9077L12.8785 19.2007C12.786 19.2935 12.7858 19.444 12.8785 19.5366L14.3755 21.0337C14.6538 21.312 14.6538 21.7632 14.3755 22.0415C14.0972 22.3196 13.646 22.3198 13.3677 22.0415L11.8707 20.5444C11.2213 19.8951 11.2215 18.8423 11.8707 18.1929L19.1627 10.8999C19.9456 10.1171 19.9952 8.87744 19.3101 8.03761L19.1627 7.8755L19.1207 7.83351C18.2856 6.99932 16.932 6.99885 16.0972 7.83351L10.0914 13.8394C10.085 13.8458 10.0765 13.8499 10.0699 13.856L10.0035 13.9234C9.72519 14.2014 9.27393 14.2014 8.99566 13.9234C8.71756 13.6451 8.71763 13.1939 8.99566 12.9155L15.0855 6.82569C15.9205 5.99069 15.9205 4.63629 15.0855 3.80128C14.2505 2.96644 12.8961 2.96629 12.0611 3.80128L3.99761 11.8648C3.71926 12.143 3.2681 12.1431 2.9898 11.8648C2.71179 11.5864 2.71167 11.1352 2.9898 10.8569L11.0533 2.79347Z" fill="currentColor"/><path d="M13.0777 4.80909C13.356 4.53092 13.8072 4.53098 14.0855 4.80909C14.3638 5.0874 14.3637 5.53856 14.0855 5.81691L8.12164 11.7808C7.28687 12.6156 7.28712 13.9691 8.12164 14.8042C8.95667 15.6392 10.311 15.6392 11.146 14.8042L17.1099 8.84132C17.3882 8.56315 17.8394 8.56321 18.1177 8.84132C18.3956 9.11965 18.3958 9.57091 18.1177 9.84913L12.1539 15.813C10.7622 17.2045 8.50553 17.2044 7.11382 15.813C5.72238 14.4213 5.72225 12.1646 7.11382 10.773L13.0777 4.80909Z" fill="currentColor"/></g></svg>