<svg width="24px" height="24px" viewBox="0 0 24 24" fill="currentColor" xmlns="http://www.w3.org/2000/svg"><g><path d="M14.5634 13.5799C14.6 13.2593 14.4292 12.9316 14.1078 12.9024C14.102 12.9019 14.0961 12.9014 14.0903 12.9009L9.19669 12.5131C8.65686 12.4704 8.11351 12.5323 7.5996 12.6952L3.69783 13.932C3.28233 14.0637 3 14.4494 3 14.8852V20.0199C3 20.5721 3.44772 21.0199 4 21.0199H4.83831L4.85056 21.0237C4.95989 21.0574 5.11685 21.1047 5.31199 21.1604C5.70161 21.2716 6.24688 21.4174 6.87145 21.5561C8.09069 21.8267 9.72522 22.0966 11.0994 21.9661C12.5697 21.8264 14.3876 21.1358 15.958 20.4236C17.5608 19.6966 19.0337 18.8864 19.8515 18.4189C20.5815 18.0016 21 17.2562 21 16.472C21 14.9261 19.557 14.5558 18 15L15.5 15.75C14.5 17 13.9507 17.3157 12.3751 17.6528L11.1171 17.922C10.7369 18.0033 10.3614 17.7659 10.2718 17.3875C10.1795 16.9975 10.426 16.6078 10.8179 16.5239L12.0458 16.2612C13.4015 15.9711 14.4132 14.8936 14.5634 13.5799Z" fill="currentColor"/><path d="M18 7.5C18 9.433 16.433 11 14.5 11C12.567 11 11 9.433 11 7.5C11 5.567 12.567 4 14.5 4C16.433 4 18 5.567 18 7.5Z" fill="currentColor"/><path d="M12.0731 3.12743C10.5384 3.98106 9.5 5.61927 9.5 7.5C9.5 8.01995 9.57937 8.52136 9.72664 8.99278C9.65171 8.99757 9.57614 9 9.5 9C7.567 9 6 7.433 6 5.5C6 3.567 7.567 2 9.5 2C10.5175 2 11.4336 2.4342 12.0731 3.12743Z" fill="currentColor"/></g></svg>