<svg width="24px" height="24px" viewBox="0 0 24 24" fill="currentColor" xmlns="http://www.w3.org/2000/svg"><g><path d="M12 2C6.47715 2 2 6.47715 2 12C2 17.5228 6.47715 22 12 22C17.5228 22 22 17.5228 22 12C22 11.9319 21.9993 11.8639 21.998 11.7962C21.9924 11.5186 21.834 11.2669 21.5862 11.1417C21.3384 11.0166 21.0418 11.0385 20.8151 11.1988C19.8784 11.861 18.7358 12.25 17.5 12.25C14.3244 12.25 11.75 9.67564 11.75 6.5C11.75 5.26425 12.139 4.12157 12.8012 3.18485C12.9615 2.95819 12.9834 2.66155 12.8583 2.41377C12.7331 2.16599 12.4814 2.0076 12.2038 2.00204C12.136 2.00068 12.0681 2 12 2Z" fill="currentColor"/><path d="M18.5655 4.86018L17.9756 3.32667C17.8999 3.12986 17.7109 3 17.5 3C17.2891 3 17.1001 3.12986 17.0244 3.32667L16.4345 4.86018C16.333 5.12427 16.1243 5.33297 15.8602 5.43455L14.3267 6.02436C14.1299 6.10005 14 6.28914 14 6.5C14 6.71086 14.1299 6.89995 14.3267 6.97564L15.8602 7.56545C16.1243 7.66703 16.333 7.87573 16.4345 8.13982L17.0244 9.67333C17.1001 9.87014 17.2891 10 17.5 10C17.7109 10 17.8999 9.87014 17.9756 9.67333L18.5655 8.13982C18.667 7.87573 18.8757 7.66703 19.1398 7.56545L20.6733 6.97564C20.8701 6.89995 21 6.71086 21 6.5C21 6.28914 20.8701 6.10005 20.6733 6.02436L19.1398 5.43455C18.8757 5.33297 18.667 5.12427 18.5655 4.86018Z" fill="currentColor"/></g></svg>