<svg width="24px" height="24px" viewBox="0 0 24 24" fill="currentColor" xmlns="http://www.w3.org/2000/svg"><g><path fill-rule="evenodd" clip-rule="evenodd" d="M22.7598 13.062C22.9781 12.6814 23.1409 12.362 23.2506 12.1345C23.5144 11.587 23.5681 11.2321 23.2205 10.6011C23.1134 10.4066 22.9575 10.1321 22.7587 9.80507C22.3627 9.15349 21.7896 8.28193 21.0867 7.41707C20.3886 6.55801 19.5337 5.66957 18.5668 5.01598C17.6024 4.36404 16.4431 3.89101 15.1778 4.02183C14.3175 4.11078 13.3709 4.49004 12.7056 4.79773C12.4269 4.92663 12.1785 5.05213 11.9807 5.15629C11.7292 5.03424 11.3951 4.88026 11.0151 4.72577C10.215 4.40053 9.07818 4.01653 8.0619 4.01653C6.85861 4.01653 5.78642 4.54257 4.90292 5.21312C4.01585 5.88639 3.24484 6.76057 2.6205 7.59597C1.9923 8.43653 1.48792 9.27131 1.1416 9.89275C0.967807 10.2046 0.832274 10.4655 0.739369 10.6502C0.428927 11.2675 0.494298 11.6075 0.748226 12.1345C0.857858 12.362 1.02067 12.6814 1.239 13.062C1.67449 13.8213 2.33719 14.8354 3.24794 15.8532C5.06681 17.8859 7.94182 20.0001 11.9994 20.0001C16.057 20.0001 18.932 17.8859 20.7509 15.8532C21.6616 14.8354 22.3243 13.8213 22.7598 13.062ZM20.1834 11.3436C20.4633 11.4035 20.7359 11.4634 20.9993 11.5226C20.7001 11.6411 20.388 11.7616 20.0658 11.882C17.4853 12.8462 14.3984 13.7501 11.9993 13.7501C9.6003 13.7501 6.51343 12.8462 3.93293 11.882C3.61065 11.7616 3.29859 11.6411 2.99935 11.5226C3.26282 11.4634 3.53537 11.4035 3.81532 11.3436C6.41839 10.7867 9.57266 10.2501 11.9993 10.2501C14.426 10.2501 17.5803 10.7867 20.1834 11.3436Z" fill="currentColor"/></g></svg>