<svg width="24px" height="24px" viewBox="0 0 24 24" fill="currentColor" xmlns="http://www.w3.org/2000/svg"><g><path d="M16.9697 13.9697C17.2626 13.6768 17.7374 13.6768 18.0303 13.9697C18.3232 14.2626 18.3232 14.7374 18.0303 15.0303L16.5605 16.5H22C22.4142 16.5 22.75 16.8358 22.75 17.25C22.75 17.6642 22.4142 18 22 18H16.5605L18.0303 19.4697C18.3232 19.7626 18.3232 20.2374 18.0303 20.5303C17.7374 20.8232 17.2626 20.8232 16.9697 20.5303L14.2197 17.7803C13.9268 17.4874 13.9268 17.0126 14.2197 16.7197L16.9697 13.9697Z" fill="currentColor"/><path d="M8.59863 3C9.6546 3.00001 10.6449 3.49497 11.2793 4.3291L11.5234 4.6709C12.1579 5.50503 13.1481 5.99999 14.2041 6H18.25C20.3211 6 22 7.67893 22 9.75V15H19.6914C19.857 14.2712 19.6583 13.4767 19.0908 12.9092L18.9199 12.7549C18.0362 12.034 16.733 12.0854 15.9092 12.9092L13.1592 15.6592C12.2805 16.5379 12.2805 17.9621 13.1592 18.8408L14.3184 20H5.75C3.67893 20 2 18.3211 2 16.25V6.75C2 4.67893 3.67893 3 5.75 3H8.59863Z" fill="currentColor"/></g></svg>