<svg width="24px" height="24px" viewBox="0 0 24 24" fill="currentColor" xmlns="http://www.w3.org/2000/svg"><g><path d="M18.7197 13.9697C19.0126 13.6768 19.4874 13.6768 19.7803 13.9697L22.5303 16.7197C22.8232 17.0126 22.8232 17.4874 22.5303 17.7803L19.7803 20.5303C19.4874 20.8232 19.0126 20.8232 18.7197 20.5303C18.4268 20.2374 18.4268 19.7626 18.7197 19.4697L20.1895 18H15.75C15.3358 18 15 17.6642 15 17.25C15 16.8358 15.3358 16.5 15.75 16.5H20.1895L18.7197 15.0303C18.4268 14.7374 18.4268 14.2626 18.7197 13.9697Z" fill="currentColor"/><path d="M8.59863 3C9.6546 3.00001 10.6449 3.49497 11.2793 4.3291L11.5234 4.6709C12.1579 5.50503 13.1481 5.99999 14.2041 6H18.25C20.3211 6 22 7.67893 22 9.75V14.0684L20.8408 12.9092C20.017 12.0854 18.7138 12.034 17.8301 12.7549L17.6592 12.9092C17.0917 13.4767 16.893 14.2712 17.0586 15H15.75C14.5852 15 13.6271 15.8851 13.5117 17.0195L13.5 17.25L13.5117 17.4805C13.6272 18.6148 14.5852 19.5 15.75 19.5H17.0586C17.0212 19.6644 17.0031 19.8322 17.0029 20H5.75C3.67893 20 2 18.3211 2 16.25V6.75C2 4.67893 3.67893 3 5.75 3H8.59863Z" fill="currentColor"/></g></svg>