<svg width="24px" height="24px" viewBox="0 0 24 24" fill="currentColor" xmlns="http://www.w3.org/2000/svg"><g><path fill-rule="evenodd" clip-rule="evenodd" d="M2 5.75C2 3.67893 3.67893 2 5.75 2H12.25C14.3211 2 16 3.67893 16 5.75V8H18.25C20.3211 8 22 9.67893 22 11.75V18.25C22 20.3211 20.3211 22 18.25 22H11.75C9.67893 22 8 20.3211 8 18.25V16H5.75C3.67893 16 2 14.3211 2 12.25V5.75ZM14.5 8V5.75C14.5 4.50736 13.4926 3.5 12.25 3.5H5.75C4.50736 3.5 3.5 4.50736 3.5 5.75V10.7413L3.93052 10.4592C5.18769 9.63557 6.8152 9.64208 8.06574 10.4758L8.19263 10.5604C8.68999 9.07243 10.0948 8 11.75 8H14.5ZM5 6.25C5 5.55964 5.55964 5 6.25 5C6.94036 5 7.5 5.55964 7.5 6.25C7.5 6.94036 6.94036 7.5 6.25 7.5C5.55964 7.5 5 6.94036 5 6.25ZM13.3906 12.5417C13.6314 12.4102 13.9248 12.4208 14.1556 12.5691L16.9556 14.3691C17.1702 14.5071 17.3 14.7448 17.3 15C17.3 15.2552 17.1702 15.4929 16.9556 15.6309L14.1556 17.4309C13.9248 17.5792 13.6314 17.5898 13.3906 17.4583C13.1498 17.3268 13 17.0744 13 16.8V13.2C13 12.9256 13.1498 12.6732 13.3906 12.5417Z" fill="currentColor"/></g></svg>