<svg width="24px" height="24px" viewBox="0 0 24 24" fill="currentColor" xmlns="http://www.w3.org/2000/svg"><g><path d="M20.7803 4.28033C21.0732 3.98744 21.0732 3.51256 20.7803 3.21967C20.4874 2.92678 20.0126 2.92678 19.7197 3.21967L17 5.93934V4.83043C17 3.36305 15.3026 2.54724 14.1568 3.46391L10.0793 6.72589C9.85767 6.90321 9.58228 6.99981 9.29844 6.99981H7.75C6.23122 6.99981 5 8.23103 5 9.74981V14.2498C5 15.2501 5.53402 16.1256 6.33252 16.6068L3.21967 19.7197C2.92678 20.0126 2.92678 20.4874 3.21967 20.7803C3.51256 21.0732 3.98744 21.0732 4.28033 20.7803L20.7803 4.28033Z" fill="currentColor"/><path d="M10.0793 17.2737C10.0469 17.2478 10.0134 17.2237 9.9789 17.2013L17 10.1802V19.1692C17 20.6366 15.3026 21.4524 14.1568 20.5357L10.0793 17.2737Z" fill="currentColor"/></g></svg>