<svg width="24px" height="24px" viewBox="0 0 24 24" fill="currentColor" xmlns="http://www.w3.org/2000/svg"><g><path d="M11.25 7.75C11.25 5.67893 9.57107 4 7.5 4H3.75C2.23122 4 1 5.23122 1 6.75V17.25C1 18.7688 2.23122 20 3.75 20H8.723C9.28361 20 9.81011 20.135 10.2549 20.4099C10.6676 20.6649 11.0093 21.0186 11.25 21.4378V7.75Z" fill="currentColor"/><path d="M12.75 21.4378C12.9907 21.0186 13.3324 20.6649 13.7451 20.4099C14.1899 20.135 14.7164 20 15.277 20H20.25C21.7688 20 23 18.7688 23 17.25V6.75C23 5.23122 21.7688 4 20.25 4H16.5C14.4289 4 12.75 5.67893 12.75 7.75V21.4378Z" fill="currentColor"/><path d="M12.0102 22H11.9894C11.9963 22.0001 12.0033 22.0001 12.0102 22Z" fill="currentColor"/></g></svg>