<svg width="24px" height="24px" viewBox="0 0 24 24" fill="currentColor" xmlns="http://www.w3.org/2000/svg"><g><path d="M7.5 8.5V11.5H11.5V8.5H7.5Z" fill="currentColor"/><path fill-rule="evenodd" clip-rule="evenodd" d="M2 6.75C2 4.67893 3.67893 3 5.75 3H13.25C15.3211 3 17 4.67893 17 6.75V11.25H18.25C20.3211 11.25 22 12.9289 22 15V17.75C22 19.5449 20.5449 21 18.75 21H5.25C3.45507 21 2 19.5449 2 17.75V6.75ZM18.75 19.5C19.7165 19.5 20.5 18.7165 20.5 17.75V15C20.5 13.7574 19.4926 12.75 18.25 12.75H17V17.75C17 18.7165 17.7835 19.5 18.75 19.5ZM6.75 15C6.33579 15 6 15.3358 6 15.75C6 16.1642 6.33579 16.5 6.75 16.5H12.25C12.6642 16.5 13 16.1642 13 15.75C13 15.3358 12.6642 15 12.25 15H6.75ZM6 7.75C6 7.33579 6.33579 7 6.75 7H12.25C12.6642 7 13 7.33579 13 7.75V12.25C13 12.6642 12.6642 13 12.25 13H6.75C6.33579 13 6 12.6642 6 12.25V7.75Z" fill="currentColor"/></g></svg>