<svg width="24px" height="24px" viewBox="0 0 24 24" fill="currentColor" xmlns="http://www.w3.org/2000/svg"><g><path fill-rule="evenodd" clip-rule="evenodd" d="M18.9998 4.46429C19.3567 4.25402 19.8164 4.37287 20.0267 4.72975C21.2805 6.85766 22 9.34308 22 11.9955C22 14.6479 21.2805 17.1333 20.0267 19.2612C19.8164 19.6181 19.3567 19.7369 18.9998 19.5267C18.6429 19.3164 18.5241 18.8566 18.7344 18.4997C19.8556 16.5968 20.5 14.3734 20.5 11.9955C20.5 9.61751 19.8556 7.39416 18.7344 5.4912C18.5241 5.13432 18.6429 4.67456 18.9998 4.46429ZM15.7142 6.95804C16.0808 6.76518 16.5343 6.906 16.7271 7.27258C17.469 8.68262 17.8887 10.2908 17.8887 11.9955C17.8887 13.7001 17.469 15.3083 16.7271 16.7184C16.5343 17.0849 16.0808 17.2258 15.7142 17.0329C15.3476 16.84 15.2068 16.3865 15.3997 16.02C16.0307 14.8205 16.3887 13.4515 16.3887 11.9955C16.3887 10.5395 16.0307 9.17043 15.3997 7.97099C15.2068 7.60441 15.3476 7.1509 15.7142 6.95804ZM10.3754 7.3922C10.6257 7.06217 11.0962 6.99754 11.4262 7.24784C12.8544 8.33104 13.7781 10.0557 13.7781 11.9956C13.7781 12.7294 13.6458 13.4338 13.4031 14.0847C13.0056 15.1508 12.3132 16.0707 11.4259 16.7435C11.1705 16.9373 10.8201 16.9472 10.554 16.7682L6.44253 14.0013C6.09888 13.77 6.00777 13.304 6.23903 12.9603C6.47029 12.6167 6.93634 12.5256 7.27999 12.7568L10.9193 15.2059C11.3914 14.7502 11.7632 14.1893 11.9976 13.5607C12.1787 13.075 12.2781 12.5479 12.2781 11.9956C12.2781 10.5415 11.5875 9.25274 10.5198 8.44299C10.1898 8.19268 10.1251 7.72223 10.3754 7.3922ZM4.35191 7.24784C4.6074 7.05407 4.95781 7.04416 5.22385 7.22318L9.3356 9.99009C9.67925 10.2213 9.77037 10.6874 9.53912 11.031C9.30787 11.3747 8.84182 11.4658 8.49817 11.2346L4.85864 8.78543C4.3866 9.24112 4.01483 9.80205 3.78049 10.4306C3.59945 10.9162 3.5 11.4433 3.5 11.9956C3.5 13.4497 4.19067 14.7384 5.25834 15.5482C5.58838 15.7985 5.65301 16.2689 5.4027 16.599C5.1524 16.929 4.68194 16.9936 4.35191 16.7433C2.9237 15.6601 2 13.9355 2 11.9956C2 11.2619 2.13233 10.5575 2.37499 9.90663C2.77245 8.84053 3.46474 7.9207 4.35191 7.24784Z" fill="currentColor"/></g></svg>