<svg width="24px" height="24px" viewBox="0 0 24 24" fill="currentColor" xmlns="http://www.w3.org/2000/svg"><g><path fill-rule="evenodd" clip-rule="evenodd" d="M7.75 1.5C8.16421 1.5 8.5 1.83579 8.5 2.25V2.52778H11.25V2.25C11.25 1.83579 11.5858 1.5 12 1.5C12.4142 1.5 12.75 1.83579 12.75 2.25V2.52778H15.5V2.25C15.5 1.83579 15.8358 1.5 16.25 1.5C16.6642 1.5 17 1.83579 17 2.25V2.53598C18.9545 2.66463 20.5 4.29072 20.5 6.27778V17.75C20.5 19.8211 18.8211 21.5 16.75 21.5H7.25C5.17893 21.5 3.5 19.8211 3.5 17.75V6.27778C3.5 4.29072 5.04549 2.66463 7 2.53598V2.25C7 1.83579 7.33579 1.5 7.75 1.5ZM8 9.75C8 9.33579 8.33579 9 8.75 9H15.25C15.6642 9 16 9.33579 16 9.75C16 10.1642 15.6642 10.5 15.25 10.5H8.75C8.33579 10.5 8 10.1642 8 9.75ZM8 13.75C8 13.3358 8.33579 13 8.75 13H13.25C13.6642 13 14 13.3358 14 13.75C14 14.1642 13.6642 14.5 13.25 14.5H8.75C8.33579 14.5 8 14.1642 8 13.75Z" fill="currentColor"/></g></svg>