<svg width="24px" height="24px" viewBox="0 0 24 24" fill="currentColor" xmlns="http://www.w3.org/2000/svg"><g><path fill-rule="evenodd" clip-rule="evenodd" d="M3 6.75C3 4.67893 4.67893 3 6.75 3H17.25C19.3211 3 21 4.67893 21 6.75V13.3355C21 14.33 20.6049 15.2839 19.9017 15.9871L15.9871 19.9017C15.2839 20.6049 14.33 21 13.3355 21H6.75C4.67893 21 3 19.3211 3 17.25V6.75ZM19.5 11C19.5 12.1046 18.6046 13 17.5 13H16.75C14.6789 13 13 14.6789 13 16.75V17.5C13 18.6046 12.1046 19.5 11 19.5H6.75C5.50736 19.5 4.5 18.4926 4.5 17.25V6.75C4.5 5.50736 5.50736 4.5 6.75 4.5H17.25C18.4926 4.5 19.5 5.50736 19.5 6.75V11Z" fill="currentColor"/></g></svg>