<svg width="24px" height="24px" viewBox="0 0 24 24" fill="currentColor" xmlns="http://www.w3.org/2000/svg"><g><path fill-rule="evenodd" clip-rule="evenodd" d="M10.9049 3.69296C9.02822 2.56906 6.70187 2.8555 5.15432 4.23945C4.79977 4.55651 4.76939 5.10097 5.08646 5.45551C5.40352 5.81006 5.94797 5.84044 6.30252 5.52337C7.30389 4.62787 8.80855 4.44522 10.0199 5.17067C10.3157 5.34782 10.5707 5.56473 10.7832 5.80995C11.0946 6.16942 11.6386 6.20831 11.998 5.89682C12.3574 5.58534 12.3964 5.04143 12.0848 4.68197C11.7544 4.30055 11.3592 3.96502 10.9049 3.69296ZM12.7047 6.74443C14.0871 4.43608 17.0792 3.68548 19.3875 5.06791C20.1155 5.50388 20.6902 6.10175 21.0909 6.78839C21.3306 7.19918 21.192 7.72656 20.7812 7.9663C20.3704 8.20606 19.843 8.0674 19.6032 7.6566C19.3451 7.21432 18.9752 6.82871 18.5026 6.54564C17.0103 5.65196 15.0762 6.13719 14.1824 7.62942L7.68161 18.4843L12.6428 19.2885C13.1122 19.3646 13.4312 19.8068 13.3551 20.2764C13.279 20.7459 12.8366 21.0648 12.3672 20.9888L6.15251 19.9814C5.87066 19.9357 5.62977 19.7533 5.50938 19.4944C5.38898 19.2356 5.40474 18.9338 5.55144 18.6889L12.7047 6.74443ZM17.0987 10.9953C16.9719 11.7778 16.2347 12.3094 15.4522 12.1825C14.6697 12.0557 14.1382 11.3185 14.265 10.536C14.3919 9.7535 15.129 9.22198 15.9116 9.34881C16.694 9.47564 17.2256 10.2128 17.0987 10.9953ZM9.5326 9.76913C9.40577 10.5516 8.66859 11.0832 7.88606 10.9564C7.10354 10.8295 6.57199 10.0923 6.69884 9.30981C6.82568 8.52729 7.56285 7.99575 8.34539 8.12259C9.12791 8.24942 9.65944 8.98661 9.5326 9.76913Z" fill="currentColor"/></g></svg>