<svg width="24px" height="24px" viewBox="0 0 24 24" fill="currentColor" xmlns="http://www.w3.org/2000/svg"><g><path fill-rule="evenodd" clip-rule="evenodd" d="M4.91663 6.44633C5.10002 4.51046 6.71195 3 8.67502 3H14.1101C16.0731 3 17.6851 4.51046 17.8685 6.44633C18.0152 7.99561 18.1832 9.43019 18.4015 10.8295C20.5793 11.9915 22.0018 14.2708 22.0018 17V19.25C22.0018 20.2165 21.2183 21 20.2518 21H4.1608C2.94855 21 2.12325 19.808 2.49027 18.6816C3.91247 14.317 4.50006 10.8437 4.91663 6.44633ZM9.69027 15.5H20.3134C19.6967 13.1327 17.6268 11.5 15.0018 11.5C12.3769 11.5 10.307 13.1327 9.69027 15.5ZM20.5018 17H9.50183V19.5H20.2518C20.3899 19.5 20.5018 19.3881 20.5018 19.25V17Z" fill="currentColor"/></g></svg>