<svg width="24px" height="24px" viewBox="0 0 24 24" fill="currentColor" xmlns="http://www.w3.org/2000/svg"><g><path d="M12.1465 11.8418C13.1191 11.8418 13.8281 12.5332 13.8223 13.5059C13.8223 14.4316 13.0723 15.1699 12.1289 15.1699C11.1855 15.1699 10.4414 14.4258 10.4414 13.4766C10.4414 12.5332 11.1738 11.8418 12.1465 11.8418Z" fill="currentColor"/><path fill-rule="evenodd" clip-rule="evenodd" d="M17.25 3C19.3211 3 21 4.67893 21 6.75V17.25C21 19.3211 19.3211 21 17.25 21H6.75C4.67893 21 3 19.3211 3 17.25V6.75C3 4.67893 4.67893 3 6.75 3H17.25ZM12.1758 7.59961C10.0254 7.59961 8.73633 9.28125 8.73633 12.0996C8.73633 13.0605 8.89453 13.8691 9.20508 14.5195C9.79102 15.7559 10.834 16.4004 12.1523 16.4004C13.9805 16.4004 15.3105 15.1641 15.3105 13.4473C15.3105 11.8477 14.168 10.6758 12.5391 10.6758C11.3906 10.6758 10.5469 11.2617 10.2129 12.041H10.1836V11.9531C10.2129 10.0078 10.8926 8.83008 12.1699 8.83008C12.7969 8.83008 13.248 9.07617 13.6406 9.61523C13.875 9.91406 14.0625 10.0547 14.3613 10.0547C14.7598 10.0547 15.0059 9.79102 15.0059 9.44531C15.0059 9.28125 14.9648 9.13477 14.8711 8.96484C14.4492 8.16211 13.4648 7.59961 12.1758 7.59961Z" fill="currentColor"/></g></svg>