<svg width="24px" height="24px" viewBox="0 0 24 24" fill="currentColor" xmlns="http://www.w3.org/2000/svg"><g><path d="M18.8521 18.4995C18.4039 18.4995 18.0875 18.1655 18.0875 17.6821V7.39014H18.0523L15.6793 9.05127C15.5035 9.17432 15.3365 9.23584 15.1432 9.23584C14.774 9.23584 14.5191 8.97217 14.5191 8.58545C14.5191 8.3042 14.6246 8.11963 14.9586 7.88232L17.6744 5.93994C18.1666 5.58838 18.3775 5.50049 18.7379 5.50049C19.2828 5.50049 19.6168 5.83447 19.6168 6.38818V17.6821C19.6168 18.1655 19.3004 18.4995 18.8521 18.4995Z" fill="currentColor"/><path d="M7.66016 18.5522C4.69824 18.5522 2.98438 16.0034 2.98438 11.9956C2.98438 8.02295 4.71582 5.44775 7.66016 5.44775C10.6045 5.44775 12.3184 8.00537 12.3184 11.9868C12.3184 15.9946 10.6133 18.5522 7.66016 18.5522ZM7.66016 17.1724C9.6377 17.1724 10.7275 15.1597 10.7275 11.9956C10.7275 8.87549 9.62012 6.83643 7.66016 6.83643C5.7002 6.83643 4.5752 8.89307 4.5752 11.9868C4.5752 15.1509 5.67383 17.1724 7.66016 17.1724Z" fill="currentColor"/></g></svg>