<svg width="24px" height="24px" viewBox="0 0 24 24" fill="currentColor" xmlns="http://www.w3.org/2000/svg"><g><path d="M11.9941 8.79199C13.0723 8.79199 13.6992 9.9873 13.6992 11.9912V12.0029C13.6992 14.0068 13.0723 15.2139 11.9941 15.2139C10.916 15.2139 10.3008 14.0068 10.3008 12.0029V11.9912C10.3008 9.9873 10.916 8.79199 11.9941 8.79199Z" fill="currentColor"/><path fill-rule="evenodd" clip-rule="evenodd" d="M17.25 3C19.3211 3 21 4.67893 21 6.75V17.25C21 19.3211 19.3211 21 17.25 21H6.75C4.67893 21 3 19.3211 3 17.25V6.75C3 4.67893 4.67893 3 6.75 3H17.25ZM11.9941 7.56152C9.98438 7.56152 8.77734 9.26074 8.77734 11.9912V12.0029C8.77734 14.7334 9.98438 16.4385 11.9941 16.4385C14.0039 16.4385 15.2227 14.7334 15.2227 12.0029V11.9912C15.2227 9.26074 14.0039 7.56152 11.9941 7.56152Z" fill="currentColor"/></g></svg>