<svg width="24px" height="24px" viewBox="0 0 24 24" fill="currentColor" xmlns="http://www.w3.org/2000/svg"><g><path d="M12 12.4189C13.0137 12.4189 13.7285 13.0049 13.7285 13.8311C13.7285 14.6514 13.0137 15.2432 12 15.2432C10.9863 15.2432 10.2715 14.6514 10.2715 13.8311C10.2715 13.0107 10.9863 12.4189 12 12.4189Z" fill="currentColor"/><path d="M12 8.74512C12.873 8.74512 13.4941 9.26074 13.4941 10.0107C13.4941 10.749 12.873 11.2646 12 11.2646C11.1211 11.2646 10.5059 10.749 10.5059 10.0107C10.5059 9.2666 11.1211 8.74512 12 8.74512Z" fill="currentColor"/><path fill-rule="evenodd" clip-rule="evenodd" d="M17.25 3C19.3211 3 21 4.67893 21 6.75V17.25C21 19.3211 19.3211 21 17.25 21H6.75C4.67893 21 3 19.3211 3 17.25V6.75C3 4.67893 4.67893 3 6.75 3H17.25ZM12 7.60254C10.2539 7.60254 9.01172 8.55762 9.01172 9.8584C9.01172 10.7666 9.64453 11.4873 10.6172 11.7451V11.7803C9.48633 12.0088 8.70703 12.8467 8.70703 13.9424C8.70703 15.3838 10.0605 16.3975 12 16.3975C13.9336 16.3975 15.2988 15.3896 15.2988 13.9424C15.2988 12.8525 14.5137 12.0146 13.3828 11.7803V11.7451C14.3555 11.4756 14.9824 10.7607 14.9824 9.86426C14.9824 8.55176 13.7461 7.60254 12 7.60254Z" fill="currentColor"/></g></svg>