<svg width="24px" height="24px" viewBox="0 0 24 24" fill="currentColor" xmlns="http://www.w3.org/2000/svg"><g><path d="M12.5596 8.9209V13.3975H9.6709V13.3564C10.3564 12.1084 11.1943 10.8428 12.5361 8.9209H12.5596Z" fill="currentColor"/><path fill-rule="evenodd" clip-rule="evenodd" d="M17.25 3C19.3211 3 21 4.67893 21 6.75V17.25C21 19.3211 19.3211 21 17.25 21H6.75C4.67893 21 3 19.3211 3 17.25V6.75C3 4.67893 4.67893 3 6.75 3H17.25ZM12.7354 7.65527C12.1143 7.65527 11.7451 7.91309 11.1943 8.7334C10.1807 10.2217 9.21973 11.6689 8.62793 12.7295C8.39355 13.1514 8.2998 13.4268 8.2998 13.7549C8.2998 14.2588 8.65723 14.6045 9.20215 14.6045H12.5361V15.6006C12.5361 16.0752 12.8408 16.3447 13.2568 16.3447C13.6787 16.3447 13.9775 16.0752 13.9775 15.6006V14.6045H14.5635C14.9678 14.6045 15.208 14.3525 15.208 13.9834C15.208 13.6201 14.9678 13.3623 14.5693 13.3623H13.9775V8.76855C13.9775 8.06543 13.5146 7.65527 12.7354 7.65527Z" fill="currentColor"/></g></svg>