<svg width="24px" height="24px" viewBox="0 0 24 24" fill="currentColor" xmlns="http://www.w3.org/2000/svg"><g><path fill-rule="evenodd" clip-rule="evenodd" d="M12 2C17.5228 2 22 6.47715 22 12C22 17.5228 17.5228 22 12 22C6.47715 22 2 17.5228 2 12C2 6.47715 6.47715 2 12 2ZM9.60352 7.79492C9.22852 7.79492 8.95898 8.03516 8.95898 8.41016C8.95898 8.78516 9.22852 9.03125 9.60352 9.03125H13.418V9.06055L10.1309 15.2715C10.043 15.4473 10.002 15.5762 10.002 15.752C10.002 16.1094 10.2715 16.3672 10.6934 16.3672C11.0215 16.3672 11.209 16.25 11.373 15.9277L14.6602 9.55273C14.8652 9.1543 14.9531 8.91992 14.9531 8.64453C14.9531 8.11133 14.584 7.79492 14.0449 7.79492H9.60352Z" fill="currentColor"/></g></svg>