<svg width="24px" height="24px" viewBox="0 0 24 24" fill="currentColor" xmlns="http://www.w3.org/2000/svg"><g><path fill-rule="evenodd" clip-rule="evenodd" d="M17.25 3C19.3211 3 21 4.67893 21 6.75V17.25C21 19.3211 19.3211 21 17.25 21H6.75C4.67893 21 3 19.3211 3 17.25V6.75C3 4.67893 4.67893 3 6.75 3H17.25ZM11.9531 7.60254C10.5762 7.60254 9.63867 8.21777 9.24023 9.05566C9.13477 9.26074 9.09375 9.44824 9.09375 9.65918C9.09375 10.0459 9.31641 10.292 9.73828 10.292C10.0898 10.292 10.2539 10.1572 10.418 9.79395C10.6992 9.13184 11.1621 8.80371 11.959 8.80371C12.8965 8.80371 13.377 9.2959 13.377 10.0283C13.377 10.7783 12.7559 11.3115 11.8242 11.3115H11.3789C11.0039 11.3115 10.7812 11.54 10.7812 11.874C10.7812 12.208 11.0039 12.4365 11.3789 12.4365H11.8594C12.9434 12.4365 13.5996 12.9404 13.5938 13.8428C13.5938 14.6104 12.9434 15.1611 11.9824 15.1611C11.0566 15.1611 10.5469 14.7803 10.2539 14.1416C10.0957 13.8311 9.9082 13.6963 9.59766 13.6963C9.17578 13.6963 8.92383 13.9482 8.92383 14.3467C8.92383 14.5459 8.9707 14.7393 9.08203 14.9443C9.52148 15.7939 10.4824 16.3975 11.9648 16.3975C13.8164 16.3975 15.1289 15.3779 15.1289 13.8779C15.1289 12.7002 14.3027 11.9502 13.0547 11.833V11.8037C14.0742 11.5928 14.8301 10.8838 14.8301 9.82324C14.8301 8.5166 13.7051 7.60254 11.9531 7.60254Z" fill="currentColor"/></g></svg>