<svg width="24px" height="24px" viewBox="0 0 24 24" fill="currentColor" xmlns="http://www.w3.org/2000/svg"><g><path d="M12.5596 8.9209V13.3975H9.6709V13.3564C10.3564 12.1084 11.1943 10.8428 12.5361 8.9209H12.5596Z" fill="currentColor"/><path fill-rule="evenodd" clip-rule="evenodd" d="M12 2C17.5228 2 22 6.47715 22 12C22 17.5228 17.5228 22 12 22C6.47715 22 2 17.5228 2 12C2 6.47715 6.47715 2 12 2ZM12.7354 7.65527C12.1143 7.65527 11.7451 7.91309 11.1943 8.7334C10.1807 10.2217 9.21973 11.6689 8.62793 12.7295C8.39355 13.1514 8.2998 13.4268 8.2998 13.7549C8.2998 14.2588 8.65723 14.6045 9.20215 14.6045H12.5361V15.6006C12.5361 16.0752 12.8408 16.3447 13.2568 16.3447C13.6787 16.3447 13.9775 16.0752 13.9775 15.6006V14.6045H14.5635C14.9678 14.6045 15.208 14.3525 15.208 13.9834C15.208 13.6201 14.9678 13.3623 14.5693 13.3623H13.9775V8.76855C13.9775 8.06543 13.5146 7.65527 12.7354 7.65527Z" fill="currentColor"/></g></svg>