<svg width="24px" height="24px" viewBox="0 0 24 24" fill="currentColor" xmlns="http://www.w3.org/2000/svg"><g><path fill-rule="evenodd" clip-rule="evenodd" d="M17.25 3C19.3211 3 21 4.67893 21 6.75V17.25C21 19.3211 19.3211 21 17.25 21H6.75C4.67893 21 3 19.3211 3 17.25V6.75C3 4.67893 4.67893 3 6.75 3H17.25ZM9.60352 7.79492C9.22852 7.79492 8.95898 8.03516 8.95898 8.41016C8.95898 8.78516 9.22852 9.03125 9.60352 9.03125H13.418V9.06055L10.1309 15.2715C10.043 15.4473 10.002 15.5762 10.002 15.752C10.002 16.1094 10.2715 16.3672 10.6934 16.3672C11.0215 16.3672 11.209 16.25 11.373 15.9277L14.6602 9.55273C14.8652 9.1543 14.9531 8.91992 14.9531 8.64453C14.9531 8.11133 14.584 7.79492 14.0449 7.79492H9.60352Z" fill="currentColor"/></g></svg>