<svg width="24px" height="24px" viewBox="0 0 24 24" fill="currentColor" xmlns="http://www.w3.org/2000/svg"><g><path d="M12 12.4189C13.0195 12.4189 13.7344 13.0107 13.7344 13.8311V13.8428C13.7344 14.6572 13.0137 15.2432 12 15.2432C10.9863 15.2432 10.2656 14.6572 10.2656 13.8428V13.8311C10.2656 13.0107 10.9746 12.4189 12 12.4189Z" fill="currentColor"/><path d="M12 8.74512C12.8848 8.74512 13.5 9.26074 13.5 9.99902V10.0107C13.5 10.749 12.8848 11.2646 12 11.2646C11.1152 11.2646 10.5 10.749 10.5 10.0107V9.99902C10.5 9.26074 11.1152 8.74512 12 8.74512Z" fill="currentColor"/><path fill-rule="evenodd" clip-rule="evenodd" d="M12 2C17.5228 2 22 6.47715 22 12C22 17.5228 17.5228 22 12 22C6.47715 22 2 17.5228 2 12C2 6.47715 6.47715 2 12 2ZM12 7.60254C10.248 7.60254 9.00586 8.55762 9.00586 9.8584V9.87012C9.00586 10.7783 9.65039 11.4873 10.6172 11.7451V11.7803C9.49219 12.0088 8.70117 12.8467 8.70117 13.9307V13.9424C8.70117 15.3896 10.0547 16.3975 12 16.3975C13.9453 16.3975 15.2988 15.3896 15.2988 13.9424V13.9307C15.2988 12.8467 14.5137 12.0088 13.3828 11.7803V11.7451C14.3496 11.4873 14.9941 10.7783 14.9941 9.87012V9.8584C14.9941 8.55762 13.752 7.60254 12 7.60254Z" fill="currentColor"/></g></svg>