<svg width="24px" height="24px" viewBox="0 0 24 24" fill="currentColor" xmlns="http://www.w3.org/2000/svg"><g><path fill-rule="evenodd" clip-rule="evenodd" d="M17.25 3C19.3211 3 21 4.67893 21 6.75V17.25C21 19.3211 19.3211 21 17.25 21H6.75C4.67893 21 3 19.3211 3 17.25V6.75C3 4.67893 4.67893 3 6.75 3H17.25ZM12.041 7.6875C10.3945 7.6875 9.38086 8.6543 9.15234 9.56836C9.12305 9.66797 9.10547 9.77344 9.10547 9.88477C9.10547 10.2598 9.35156 10.5117 9.76172 10.5117C10.1074 10.5117 10.2832 10.3535 10.4355 10.0488C10.7344 9.28711 11.2676 8.90039 12.0293 8.90039C12.8438 8.90039 13.4238 9.44531 13.4238 10.2012C13.4238 10.8457 13.1543 11.2734 12.0762 12.3398L9.49219 14.9004C9.16992 15.2051 9.07031 15.3809 9.07031 15.6738C9.07031 16.0547 9.31641 16.3125 9.78516 16.3125H14.4609C14.8594 16.3125 15.1055 16.0664 15.1055 15.6973C15.1055 15.3223 14.8594 15.0762 14.4609 15.0762H11.0859V15.0469L13.0254 13.1367C14.4258 11.7656 14.9004 11.0977 14.9004 10.1074C14.9004 8.68945 13.7344 7.6875 12.041 7.6875Z" fill="currentColor"/></g></svg>