<svg width="24px" height="24px" viewBox="0 0 24 24" fill="currentColor" xmlns="http://www.w3.org/2000/svg"><g><path d="M11.9941 8.79199C13.0723 8.79199 13.6992 9.9873 13.6992 11.9912V12.0029C13.6992 14.0068 13.0723 15.2139 11.9941 15.2139C10.916 15.2139 10.3008 14.0068 10.3008 12.0029V11.9912C10.3008 9.9873 10.916 8.79199 11.9941 8.79199Z" fill="currentColor"/><path fill-rule="evenodd" clip-rule="evenodd" d="M12 2C17.5228 2 22 6.47715 22 12C22 17.5228 17.5228 22 12 22C6.47715 22 2 17.5228 2 12C2 6.47715 6.47715 2 12 2ZM11.9941 7.56152C9.98438 7.56152 8.77734 9.26074 8.77734 11.9912V12.0029C8.77734 14.7334 9.98438 16.4385 11.9941 16.4385C14.0039 16.4385 15.2227 14.7334 15.2227 12.0029V11.9912C15.2227 9.26074 14.0039 7.56152 11.9941 7.56152Z" fill="currentColor"/></g></svg>