<svg width="24px" height="24px" viewBox="0 0 24 24" fill="currentColor" xmlns="http://www.w3.org/2000/svg"><g><path fill-rule="evenodd" clip-rule="evenodd" d="M12 2C17.5228 2 22 6.47715 22 12C22 17.5228 17.5228 22 12 22C6.47715 22 2 17.5228 2 12C2 6.47715 6.47715 2 12 2ZM12.3359 7.67773C12.0195 7.67773 11.7852 7.73047 11.4102 7.99414L9.68164 9.20703C9.42969 9.38281 9.33594 9.55859 9.33594 9.79297C9.33594 10.127 9.56445 10.3555 9.88086 10.3555C10.0449 10.3555 10.1621 10.3145 10.3086 10.209L11.6738 9.25977H11.7031V15.6055C11.7031 16.0625 12.0078 16.3672 12.4473 16.3672C12.8867 16.3672 13.1914 16.0625 13.1914 15.6055V8.52148C13.1914 8 12.8691 7.67773 12.3359 7.67773Z" fill="currentColor"/></g></svg>