<svg width="24px" height="24px" viewBox="0 0 24 24" fill="currentColor" xmlns="http://www.w3.org/2000/svg"><g><path fill-rule="evenodd" clip-rule="evenodd" d="M12 2C17.5228 2 22 6.47715 22 12C22 17.5228 17.5228 22 12 22C6.47715 22 2 17.5228 2 12C2 6.47715 6.47715 2 12 2ZM12.041 7.2373C10.3945 7.2373 9.38086 8.2041 9.15234 9.11816C9.12305 9.21777 9.10547 9.32324 9.10547 9.43457C9.10547 9.80957 9.35156 10.0615 9.76172 10.0615C10.1074 10.0615 10.2832 9.90332 10.4355 9.59863C10.7344 8.83691 11.2676 8.4502 12.0293 8.4502C12.8438 8.4502 13.4238 8.99512 13.4238 9.75098C13.4238 10.3955 13.1543 10.8232 12.0762 11.8896L9.49219 14.4502C9.16992 14.7549 9.07031 14.9307 9.07031 15.2236C9.07031 15.6045 9.31641 15.8623 9.78516 15.8623H14.4609C14.8594 15.8623 15.1055 15.6162 15.1055 15.2471C15.1055 14.8721 14.8594 14.626 14.4609 14.626H11.0859V14.5967L13.0254 12.6865C14.4258 11.3154 14.9004 10.6475 14.9004 9.65723C14.9004 8.23926 13.7344 7.2373 12.041 7.2373Z" fill="currentColor"/></g></svg>