<svg width="24px" height="24px" viewBox="0 0 24 24" fill="currentColor" xmlns="http://www.w3.org/2000/svg"><g><path d="M6.59642 4.08477C6.84447 4.21392 7.00006 4.47035 7.00006 4.75V9.75C7.00006 10.1642 6.66428 10.5 6.25006 10.5C5.83585 10.5 5.50006 10.1642 5.50006 9.75V6.19049L4.18016 7.11443C3.84082 7.35196 3.37318 7.26944 3.13564 6.9301C2.8981 6.59076 2.98063 6.12311 3.31997 5.88558L5.81997 4.13558C6.04907 3.97521 6.34837 3.95562 6.59642 4.08477Z" fill="currentColor"/><path d="M11.75 6.5C11.3358 6.5 11 6.83579 11 7.25C11 7.66421 11.3358 8 11.75 8H20.25C20.6642 8 21 7.66421 21 7.25C21 6.83579 20.6642 6.5 20.25 6.5H11.75Z" fill="currentColor"/><path d="M11.75 16C11.3358 16 11 16.3358 11 16.75C11 17.1642 11.3358 17.5 11.75 17.5H20.25C20.6642 17.5 21 17.1642 21 16.75C21 16.3358 20.6642 16 20.25 16H11.75Z" fill="currentColor"/><path fill-rule="evenodd" clip-rule="evenodd" d="M3.48571 14.3859C3.18422 14.6699 3.17007 15.1446 3.4541 15.4461C3.73718 15.7466 4.20961 15.7617 4.51125 15.4806L4.52394 15.4694C4.53693 15.4581 4.55902 15.4395 4.58913 15.4159C4.64997 15.3683 4.74007 15.3032 4.85102 15.2384C5.08338 15.1025 5.35162 15 5.60886 15C6.18414 15 6.46154 15.3832 6.46154 15.639C6.46154 15.8138 6.3888 15.9866 6.15641 16.2055C5.90748 16.44 5.55305 16.6538 5.11105 16.9043L4.98859 16.9734C4.60819 17.1878 4.16292 17.4387 3.81302 17.728C3.41697 18.0553 3 18.5472 3 19.25C3 19.6642 3.33579 20 3.75 20H7.5C7.91421 20 8.25 19.6642 8.25 19.25C8.25 18.8358 7.91421 18.5 7.5 18.5H5.34159C5.46577 18.427 5.60069 18.3507 5.74645 18.2682L5.85049 18.2094C6.27388 17.9695 6.78483 17.6743 7.18494 17.2974C7.60158 16.9049 7.96154 16.3639 7.96154 15.639C7.96154 14.3605 6.80386 13.5 5.60886 13.5C4.98098 13.5 4.44478 13.7384 4.09399 13.9434C3.91337 14.049 3.76722 14.1544 3.6647 14.2346C3.61313 14.275 3.57176 14.3096 3.54172 14.3357C3.52667 14.3487 3.51439 14.3596 3.50503 14.3681L3.49316 14.379L3.48888 14.3829L3.48716 14.3846L3.48571 14.3859ZM3.99993 14.9317C3.48571 14.3859 3.48571 14.3859 3.48571 14.3859L3.99993 14.9317Z" fill="currentColor"/></g></svg>