<svg width="24px" height="24px" viewBox="0 0 24 24" fill="currentColor" xmlns="http://www.w3.org/2000/svg"><g><path fill-rule="evenodd" clip-rule="evenodd" d="M12 2C17.5228 2 22 6.47715 22 12C22 17.5228 17.5228 22 12 22C6.47715 22 2 17.5228 2 12C2 6.47715 6.47715 2 12 2ZM11.2422 9.49512C10.8194 9.21324 10.2521 9.29275 9.92383 9.68066L6.4375 13.8008C6.0932 14.208 6.54078 14.7997 7.02637 14.5791L10.2471 13.1152C10.4044 13.0437 10.5876 13.0584 10.7314 13.1543L12.7578 14.5049C13.1806 14.7868 13.7479 14.7073 14.0762 14.3193L17.5625 10.1992C17.9068 9.79197 17.4592 9.20032 16.9736 9.4209L13.7529 10.8848C13.5956 10.9563 13.4124 10.9416 13.2686 10.8457L11.2422 9.49512Z" fill="currentColor"/></g></svg>