<svg width="24px" height="24px" viewBox="0 0 24 24" fill="currentColor" xmlns="http://www.w3.org/2000/svg"><g><path fill-rule="evenodd" clip-rule="evenodd" d="M4.75 1C5.16421 1 5.5 1.33579 5.5 1.75V3.74973C6.12675 3.27896 6.9058 3 7.75 3H16.25C18.3211 3 20 4.67893 20 6.75V17.25C20 19.8734 17.8734 22 15.25 22H8.75C6.12665 22 4 19.8734 4 17.25V1.75C4 1.33579 4.33579 1 4.75 1ZM8.75 7C8.33579 7 8 7.33579 8 7.75V13.25C8 13.6642 8.33579 14 8.75 14H15.25C15.6642 14 16 13.6642 16 13.25V7.75C16 7.33579 15.6642 7 15.25 7H8.75Z" fill="currentColor"/></g></svg>