<svg width="24px" height="24px" viewBox="0 0 24 24" fill="currentColor" xmlns="http://www.w3.org/2000/svg"><g><path d="M12 3C13.933 3 15.5 4.567 15.5 6.5C15.5 8.17545 14.3224 9.57452 12.75 9.91797V14H16.5V11.75C16.5 11.3358 16.8358 11 17.25 11C17.6642 11 18 11.3358 18 11.75V14.0352C19.6962 14.2778 21 15.7367 21 17.5C21 19.433 19.433 21 17.5 21H6.5C4.567 21 3 19.433 3 17.5C3 15.567 4.567 14 6.5 14H11.25V9.91797C9.67756 9.57452 8.5 8.17545 8.5 6.5C8.5 4.567 10.067 3 12 3Z" fill="currentColor"/></g></svg>