<svg width="24px" height="24px" viewBox="0 0 24 24" fill="currentColor" xmlns="http://www.w3.org/2000/svg"><g><path fill-rule="evenodd" clip-rule="evenodd" d="M8.27028 2.08201C8.46664 2.15928 8.64391 2.28656 8.80482 2.45474C9.073 2.73291 9.29936 3.13109 9.47208 3.60291C9.64572 4.07745 9.75845 4.6029 9.80117 5.13017C10.3735 4.80635 11.0088 4.60919 11.6639 4.55199L11.7102 4.54835C12.5011 4.48472 13.283 4.62744 13.9648 4.97926C14.0566 5.02744 14.1466 5.07926 14.2348 5.1338C14.2802 4.61653 14.3911 4.1029 14.562 3.63927C14.7348 3.16655 14.9611 2.76928 15.2284 2.49019C15.3778 2.32861 15.5605 2.20144 15.7638 2.11747C15.9975 2.02656 16.2457 2.01019 16.4875 2.07928C16.852 2.18292 17.1647 2.41383 17.4111 2.74928C17.6366 3.05564 17.8056 3.44836 17.9211 3.91927C18.1302 4.76835 18.1666 5.88561 18.0256 7.23287L18.0738 7.26924L18.0975 7.28651C18.7856 7.81014 19.2647 8.5565 19.5184 9.42285C19.9138 10.7747 19.7147 12.291 19.0329 13.1392L19.0165 13.1583L19.0184 13.161C19.3975 13.8537 19.6274 14.5855 19.6765 15.3428L19.6784 15.3701C19.7365 16.3382 19.4965 17.3128 18.9384 18.27L18.932 18.2791L18.9411 18.301C19.3702 19.3528 19.5047 20.4118 19.3393 21.47L19.3338 21.5055C19.3082 21.66 19.2223 21.7981 19.095 21.8895C18.9677 21.9808 18.8094 22.018 18.6547 21.9927C18.5782 21.9808 18.5047 21.9538 18.4386 21.9134C18.3724 21.8731 18.3149 21.82 18.2693 21.7573C18.2237 21.6947 18.1909 21.6236 18.1728 21.5483C18.1547 21.4729 18.1517 21.3947 18.1638 21.3182C18.3156 20.3791 18.1729 19.4373 17.7275 18.4791C17.6859 18.3901 17.6674 18.2921 17.6738 18.194C17.6802 18.096 17.7111 18.0011 17.7638 17.9182L17.7675 17.9128C18.3166 17.0728 18.5438 16.2492 18.4947 15.4401C18.4529 14.7319 18.1993 14.0364 17.7675 13.3737C17.6835 13.2449 17.6536 13.0882 17.6842 12.9375C17.7148 12.7867 17.8035 12.6541 17.9311 12.5683L17.9393 12.5628C18.1602 12.4183 18.3638 12.0492 18.4665 11.5447C18.5799 10.9481 18.5503 10.3331 18.3802 9.75012C18.1938 9.11377 17.8529 8.58286 17.3756 8.22014C16.8347 7.80741 16.1184 7.60833 15.212 7.6656C15.0935 7.6733 14.9754 7.64528 14.873 7.58516C14.7706 7.52503 14.6885 7.43557 14.6375 7.32833C14.352 6.72379 13.9357 6.29106 13.4166 6.02289C12.9182 5.77416 12.3603 5.66962 11.8057 5.72107C10.6739 5.81107 9.67572 6.44924 9.37845 7.25378C9.33639 7.36702 9.26075 7.4647 9.16164 7.53375C9.06254 7.6028 8.9447 7.63992 8.82391 7.64014C7.85392 7.64196 7.10301 7.86923 6.55393 8.27923C6.07939 8.63377 5.75575 9.12922 5.58485 9.72285C5.43019 10.2816 5.40902 10.8689 5.52303 11.4374C5.62485 11.9446 5.82394 12.3646 6.05211 12.591L6.05939 12.5974C6.25211 12.7856 6.29302 13.0792 6.15848 13.311C5.83121 13.8765 5.58666 14.7192 5.54666 15.5292C5.50121 16.4546 5.71575 17.2582 6.2003 17.8346L6.21484 17.8519C6.28796 17.9371 6.33499 18.0416 6.35031 18.1528C6.36562 18.264 6.34858 18.3773 6.3012 18.4791C5.77757 19.6028 5.61666 20.5264 5.7903 21.2537C5.82151 21.4049 5.79247 21.5623 5.70936 21.6925C5.62626 21.8226 5.49564 21.9152 5.34531 21.9505C5.19499 21.9858 5.03682 21.961 4.90447 21.8815C4.77212 21.8019 4.67604 21.6739 4.63667 21.5246C4.41577 20.5991 4.56576 19.5391 5.06667 18.3446L5.0794 18.3128L5.07212 18.3019C4.82594 17.9382 4.6422 17.536 4.52849 17.1119L4.52395 17.0946C4.38596 16.5654 4.33167 16.0179 4.36304 15.4719C4.40304 14.6446 4.61576 13.7974 4.92849 13.1174L4.9394 13.0937L4.93758 13.0919C4.67122 12.7119 4.47395 12.2256 4.36486 11.6874L4.36031 11.6656C4.21001 10.9149 4.23898 10.1393 4.44486 9.40195C4.68304 8.57014 5.15121 7.8556 5.84121 7.33924C5.89575 7.29833 5.95302 7.25742 6.0103 7.21924C5.86575 5.86198 5.90212 4.73744 6.11211 3.8829C6.22757 3.412 6.39757 3.01928 6.62302 2.71292C6.86847 2.37837 7.1812 2.14747 7.54574 2.04292C7.78755 1.97383 8.03664 1.98929 8.27028 2.0811V2.08201ZM12.0121 10.3456C12.863 10.3456 13.6484 10.6301 14.2357 11.1228C14.8084 11.6019 15.1493 12.2456 15.1493 12.8865C15.1493 13.6937 14.7802 14.3228 14.1193 14.7246C13.5557 15.0655 12.8002 15.231 11.9348 15.231C11.0175 15.231 10.2339 14.9955 9.66845 14.5637C9.10754 14.1364 8.793 13.5365 8.793 12.8865C8.793 12.2437 9.15481 11.5983 9.75299 11.1174C10.3603 10.6292 11.1621 10.3456 12.0121 10.3456ZM12.0121 11.1601C11.3814 11.1546 10.7674 11.3629 10.2703 11.751C9.85117 12.0874 9.6139 12.5101 9.6139 12.8874C9.6139 13.2765 9.80481 13.641 10.1684 13.9183C10.5821 14.2337 11.1903 14.4164 11.9348 14.4164C12.6611 14.4164 13.2739 14.2828 13.6911 14.0292C14.112 13.7746 14.3275 13.4055 14.3275 12.8865C14.3275 12.5019 14.1039 12.0774 13.7066 11.7447C13.2666 11.3765 12.6702 11.1601 12.0121 11.1601ZM12.6139 12.2601L12.6175 12.2637C12.7266 12.401 12.7039 12.6001 12.5666 12.7092L12.3011 12.9183V13.3237C12.3007 13.414 12.2644 13.5004 12.2003 13.5639C12.1363 13.6275 12.0496 13.6631 11.9593 13.6628C11.8691 13.6631 11.7824 13.6275 11.7183 13.5639C11.6543 13.5004 11.618 13.414 11.6175 13.3237V12.9056L11.3712 12.7074C11.3387 12.6813 11.3116 12.6491 11.2917 12.6126C11.2717 12.576 11.2591 12.5359 11.2547 12.4945C11.2503 12.4531 11.2542 12.4112 11.2661 12.3713C11.2779 12.3314 11.2976 12.2942 11.3239 12.2619C11.3775 12.1966 11.4548 12.1551 11.5389 12.1464C11.623 12.1377 11.7071 12.1626 11.773 12.2156L11.9684 12.3719L12.1684 12.2137C12.2341 12.1619 12.3174 12.1377 12.4006 12.1464C12.4838 12.155 12.5603 12.1958 12.6139 12.2601ZM8.0321 10.5156C8.46664 10.5156 8.82027 10.8701 8.82027 11.3074C8.82051 11.517 8.73754 11.7181 8.58959 11.8666C8.44163 12.015 8.24079 12.0987 8.03119 12.0992C7.8219 12.0985 7.62143 12.0148 7.4737 11.8666C7.32596 11.7183 7.24301 11.5176 7.24301 11.3083C7.24253 11.0987 7.32527 10.8975 7.47306 10.7488C7.62084 10.6002 7.82249 10.5163 8.0321 10.5156ZM15.9466 10.5156C16.3829 10.5156 16.7357 10.8701 16.7357 11.3074C16.7359 11.517 16.6529 11.7181 16.505 11.8666C16.357 12.015 16.1562 12.0987 15.9466 12.0992C15.7373 12.0985 15.5368 12.0148 15.3891 11.8666C15.2413 11.7183 15.1584 11.5176 15.1584 11.3083C15.1579 11.0987 15.2407 10.8975 15.3884 10.7488C15.5362 10.6002 15.737 10.5163 15.9466 10.5156ZM7.84755 3.182L7.84483 3.18382C7.73951 3.22962 7.64958 3.30472 7.58574 3.40018L7.58119 3.40564C7.45574 3.57745 7.34665 3.83018 7.26483 4.16199C7.11029 4.79108 7.06847 5.64471 7.15211 6.69106C7.54301 6.5747 7.96937 6.50197 8.42846 6.47561L8.43755 6.4747L8.45482 6.44379C8.49664 6.36925 8.54118 6.29743 8.58936 6.22652C8.70118 5.52562 8.60936 4.68835 8.35937 4.00472C8.23755 3.67382 8.08937 3.41382 7.94755 3.26564C7.91828 3.23483 7.88565 3.20739 7.85028 3.18382L7.84755 3.182ZM16.1875 3.21836L16.1857 3.21927C16.1503 3.24284 16.1177 3.27028 16.0884 3.30109C15.9466 3.44927 15.7975 3.71018 15.6766 4.04108C15.4129 4.7629 15.3248 5.65562 15.4675 6.37925L15.5202 6.46743L15.5275 6.48015H15.5548C16.0059 6.48027 16.4548 6.54517 16.8875 6.67288C16.9657 5.65107 16.922 4.81562 16.7711 4.19836C16.6893 3.86654 16.5802 3.61382 16.4538 3.442L16.4502 3.43654C16.3865 3.34075 16.2965 3.26532 16.1911 3.21927H16.1875V3.21836Z" fill="currentColor"/></g></svg>