<svg width="24px" height="24px" viewBox="0 0 24 24" fill="currentColor" xmlns="http://www.w3.org/2000/svg"><g><path fill-rule="evenodd" clip-rule="evenodd" d="M12 3.5C8.14025 3.5 5.01562 6.61774 5.01562 10.4583C5.01562 13.6559 7.18175 16.3537 10.1364 17.1664C10.4619 17.256 10.6875 17.552 10.6875 17.8896V19.25C10.6875 20.7688 9.45628 22 7.9375 22H5.75C4.23122 22 3 20.7688 3 19.25C3 18.8358 3.33579 18.5 3.75 18.5C4.16421 18.5 4.5 18.8358 4.5 19.25C4.5 19.9404 5.05964 20.5 5.75 20.5H7.9375C8.62786 20.5 9.1875 19.9404 9.1875 19.25V18.4406C5.88574 17.2843 3.51562 14.1491 3.51562 10.4583C3.51562 5.78454 7.3166 2 12 2C16.6834 2 20.4844 5.78454 20.4844 10.4583C20.4844 14.1491 18.1143 17.2843 14.8125 18.4406V19.25C14.8125 19.9404 15.3721 20.5 16.0625 20.5H18.25C18.9404 20.5 19.5 19.9404 19.5 19.25C19.5 18.8358 19.8358 18.5 20.25 18.5C20.6642 18.5 21 18.8358 21 19.25C21 20.7688 19.7688 22 18.25 22H16.0625C14.5437 22 13.3125 20.7688 13.3125 19.25V17.8896C13.3125 17.552 13.5381 17.256 13.8636 17.1664C16.8183 16.3537 18.9844 13.6559 18.9844 10.4583C18.9844 6.61774 15.8598 3.5 12 3.5Z" fill="currentColor"/></g></svg>