<svg width="24px" height="24px" viewBox="0 0 24 24" fill="currentColor" xmlns="http://www.w3.org/2000/svg"><g><path d="M9.20098 6.30087C9.47692 6.3011 9.70098 6.52487 9.70098 6.80087C9.70088 7.07679 9.47686 7.30064 9.20098 7.30087C8.92489 7.30087 8.70108 7.07693 8.70098 6.80087C8.70098 6.52473 8.92483 6.30087 9.20098 6.30087Z" fill="currentColor"/><path d="M15.2 6.30087C15.4761 6.30087 15.7 6.52473 15.7 6.80087C15.6999 7.07693 15.4761 7.30087 15.2 7.30087C14.9241 7.30064 14.7001 7.07679 14.7 6.80087C14.7 6.52487 14.9241 6.3011 15.2 6.30087Z" fill="currentColor"/><path fill-rule="evenodd" clip-rule="evenodd" d="M16.6229 1.379C17.172 1.12282 17.7029 1.07238 18.1541 1.34286C18.296 1.428 18.3414 1.61297 18.2566 1.75497C18.1713 1.89681 17.9875 1.9427 17.8455 1.85751C17.6303 1.72855 17.3268 1.71207 16.8768 1.92197C16.5424 2.07801 16.1525 2.34865 15.7078 2.74325C18.4186 3.92539 20.0871 6.35584 20.7146 8.81064C23.154 8.33753 23.9154 10.1694 22.9998 12.0011C22.4507 13.099 21.601 13.291 20.7801 12.9112C20.0373 16.2053 17.5189 19.1603 14.9998 20.0001V22.0001H12.9998V20.0001C12.0033 20.3987 11.0068 20.0029 10.9998 20.0001V22.0001H8.9998V20.0001C6.48071 19.1602 3.96125 16.2053 3.21855 12.9112C2.39793 13.2903 1.54865 13.0987 0.999803 12.0011C0.0843987 10.1698 0.84581 8.33859 3.28398 8.81064C3.91134 6.35608 5.58058 3.92562 8.29082 2.74325C7.84639 2.34891 7.45708 2.07794 7.12285 1.92197C6.67281 1.71208 6.36928 1.72857 6.1541 1.85751C6.01213 1.94268 5.82829 1.89681 5.74297 1.75497C5.65817 1.61298 5.70363 1.428 5.84551 1.34286C6.29669 1.07241 6.82765 1.12283 7.37676 1.379C7.84115 1.59576 8.35338 1.97432 8.91191 2.49814C9.83338 2.17989 10.8629 2.00012 11.9998 2.00009C13.1364 2.0001 14.1654 2.18104 15.0867 2.49911C15.6456 1.9748 16.1582 1.59589 16.6229 1.379ZM9.00078 5.80087C8.33827 5.80087 7.80095 6.33766 7.80058 7.00009C7.80058 7.66283 8.33804 8.20029 9.00078 8.20029C9.66326 8.19998 10.2 7.66264 10.2 7.00009C10.1996 6.33785 9.66304 5.80118 9.00078 5.80087ZM14.9998 5.80087C14.3375 5.8011 13.801 6.3378 13.8006 7.00009C13.8006 7.66269 14.3373 8.20006 14.9998 8.20029C15.6625 8.20022 16.2 7.66279 16.2 7.00009C16.1996 6.3377 15.6623 5.80094 14.9998 5.80087Z" fill="currentColor"/></g></svg>