<svg width="24px" height="24px" viewBox="0 0 24 24" fill="currentColor" xmlns="http://www.w3.org/2000/svg"><g><path fill-rule="evenodd" clip-rule="evenodd" d="M9.37088 2.18576C11.1759 1.70239 13.0087 2.19059 14.3229 3.32227C16.0284 2.99798 17.8626 3.49276 19.1849 4.81496C20.5066 6.13684 21 7.96945 20.6766 9.67409C21.8096 10.9886 22.2977 12.823 21.8141 14.629C21.3301 16.4355 19.9888 17.7788 18.35 18.3506C17.7783 19.9889 16.4362 21.3295 14.6302 21.8138C12.8243 22.2976 10.9899 21.8091 9.67535 20.6763C7.97048 21.0002 6.13741 20.5067 4.81526 19.1846C3.49332 17.8624 2.99758 16.0289 3.32161 14.3235C2.18976 13.0088 1.70243 11.1746 2.18606 9.36962C2.67009 7.56414 4.00987 6.21916 5.64825 5.647C6.22058 4.009 7.56548 2.66963 9.37088 2.18576ZM15.1406 8.39684C14.9626 8.33457 14.7759 8.33991 14.6111 8.39971L7.82744 10.8623C7.42035 11.0101 7.19562 11.4565 7.33722 11.8657C7.42629 12.1219 7.6337 12.3036 7.87627 12.3694L10.404 13.053C10.675 13.1258 10.8879 13.3371 10.9603 13.6083L11.6382 16.1379C11.7034 16.3806 11.883 16.5891 12.1389 16.6789C12.548 16.8217 12.9964 16.5975 13.1452 16.1906L15.6145 9.42707C15.765 9.0146 15.5547 8.5423 15.1406 8.39684Z" fill="currentColor"/></g></svg>