<svg width="24px" height="24px" viewBox="0 0 24 24" fill="currentColor" xmlns="http://www.w3.org/2000/svg"><g><path d="M22 12.0124C22 14.9763 20.7064 17.6413 18.6665 19.4844C16.1043 20.7298 13.7161 19.858 12.9201 19.3101C15.4326 18.7621 17.3481 15.6986 17.3481 12.0124C17.3481 8.32628 15.4326 5.26276 12.9201 4.71482C13.7161 4.16688 16.1043 3.29514 18.6665 4.54046C20.7064 6.38356 22 9.04856 22 12.0124Z" fill="currentColor"/><path d="M8.71665 6.35866C7.62208 7.6538 6.90066 9.59652 6.8509 11.7634V12.2366C6.90066 14.4035 7.62208 16.3462 8.71665 17.6413C10.1595 19.5093 12.274 20.6799 14.6621 20.6799C16.1298 20.6799 17.498 20.2316 18.6672 19.4595C16.901 21.0535 14.5626 22 12.0003 22C11.8511 22 11.6769 22 11.5277 22C6.22899 21.7758 2 17.3923 2 12.0125C2 6.48318 6.47776 2 12.0003 2C12.0252 2 12.0252 2 12.0501 2C14.5875 2 16.9003 2.97136 18.6665 4.54046C17.4974 3.76837 16.1298 3.32005 14.6621 3.32005C12.274 3.32005 10.1346 4.51556 8.71665 6.35866Z" fill="currentColor"/></g></svg>