<svg width="24px" height="24px" viewBox="0 0 24 24" fill="currentColor" xmlns="http://www.w3.org/2000/svg"><g><path fill-rule="evenodd" clip-rule="evenodd" d="M17.7711 5.5C16.9516 5.5 16.197 5.94555 15.8011 6.66308L9.51228 18.0615C8.85249 19.2574 7.59468 20 6.22886 20H3.75C3.33579 20 3 19.6642 3 19.25C3 18.8358 3.33579 18.5 3.75 18.5H6.22886C7.04835 18.5 7.80304 18.0545 8.19891 17.3369L14.4877 5.93846C15.1475 4.74258 16.4053 4 17.7711 4H20.25C20.6642 4 21 4.33579 21 4.75C21 5.16421 20.6642 5.5 20.25 5.5H17.7711ZM15 19.25C15 18.8358 15.3358 18.5 15.75 18.5H20.25C20.6642 18.5 21 18.8358 21 19.25C21 19.6642 20.6642 20 20.25 20H15.75C15.3358 20 15 19.6642 15 19.25Z" fill="currentColor"/></g></svg>