<svg width="24px" height="24px" viewBox="0 0 24 24" fill="currentColor" xmlns="http://www.w3.org/2000/svg"><g><path fill-rule="evenodd" clip-rule="evenodd" d="M3 4.75C3 4.33579 3.33579 4 3.75 4H6.22886C7.59468 4 8.85249 4.74258 9.51228 5.93846L15.8011 17.3369C16.197 18.0545 16.9516 18.5 17.7711 18.5H20.25C20.6642 18.5 21 18.8358 21 19.25C21 19.6642 20.6642 20 20.25 20H17.7711C16.4053 20 15.1475 19.2574 14.4877 18.0615L8.19891 6.66308C7.80304 5.94555 7.04835 5.5 6.22886 5.5H3.75C3.33579 5.5 3 5.16421 3 4.75ZM15 4.75C15 4.33579 15.3358 4 15.75 4H20.25C20.6642 4 21 4.33579 21 4.75C21 5.16421 20.6642 5.5 20.25 5.5H15.75C15.3358 5.5 15 5.16421 15 4.75Z" fill="currentColor"/></g></svg>