<svg width="24px" height="24px" viewBox="0 0 24 24" fill="currentColor" xmlns="http://www.w3.org/2000/svg"><g><path fill-rule="evenodd" clip-rule="evenodd" d="M17.25 3C19.3211 3 21 4.67893 21 6.75V17.25C21 19.3211 19.3211 21 17.25 21H6.75C4.67893 21 3 19.3211 3 17.25V6.75C3 4.67893 4.67893 3 6.75 3H17.25ZM7.75 7.5C7.33579 7.5 7 7.83579 7 8.25C7 8.66421 7.33579 9 7.75 9H8.58496C9.03496 9.00015 9.44999 9.24227 9.67188 9.63379L12.7725 15.1055C13.2607 15.967 14.1748 16.4998 15.165 16.5H16.25C16.6642 16.5 17 16.1642 17 15.75C17 15.3358 16.6642 15 16.25 15H15.165C14.715 14.9998 14.3 14.7577 14.0781 14.3662L10.9775 8.89453C10.4893 8.03299 9.57519 7.50015 8.58496 7.5H7.75ZM14.25 7.5C13.8358 7.5 13.5 7.83579 13.5 8.25C13.5 8.66421 13.8358 9 14.25 9H16.25C16.6641 8.99989 17 8.66415 17 8.25C17 7.83585 16.6641 7.50011 16.25 7.5H14.25Z" fill="currentColor"/></g></svg>