<svg width="24px" height="24px" viewBox="0 0 24 24" fill="currentColor" xmlns="http://www.w3.org/2000/svg"><g><path d="M12 2C8.96243 2 6.5 4.46243 6.5 7.5C6.5 10.2832 8.56724 12.5835 11.25 12.9493V14.0805C9.91903 14.3711 8.87113 15.419 8.58054 16.75H7.91946C7.57612 15.1774 6.17556 14 4.5 14C2.567 14 1 15.567 1 17.5C1 19.433 2.567 21 4.5 21C6.17556 21 7.57612 19.8226 7.91946 18.25H8.58054C8.92388 19.8226 10.3244 21 12 21C13.6756 21 15.0761 19.8226 15.4195 18.25H16.0805C16.4239 19.8226 17.8244 21 19.5 21C21.433 21 23 19.433 23 17.5C23 15.567 21.433 14 19.5 14C17.8244 14 16.4239 15.1774 16.0805 16.75H15.4195C15.1289 15.419 14.081 14.3711 12.75 14.0805V12.9493C15.4328 12.5835 17.5 10.2832 17.5 7.5C17.5 4.46243 15.0376 2 12 2Z" fill="currentColor"/></g></svg>