<svg width="24px" height="24px" viewBox="0 0 24 24" fill="currentColor" xmlns="http://www.w3.org/2000/svg"><g><path d="M8 3H6.75C4.67893 3 3 4.67893 3 6.75V17.25C3 19.3211 4.67893 21 6.75 21H12.6281C12.5451 20.7654 12.5 20.5129 12.5 20.2499V17.9166C12.5 17.3199 12.7371 16.7476 13.159 16.3256L16.909 12.5756C18.0152 11.4694 19.6206 11.1667 21 11.6674V6.75C21 4.67893 19.3211 3 17.25 3H16V6.75C16 7.99264 14.9926 9 13.75 9H10.25C9.00736 9 8 7.99264 8 6.75V3Z" fill="currentColor"/><path d="M14.5 3H9.5V6.75C9.5 7.16421 9.83579 7.5 10.25 7.5H13.75C14.1642 7.5 14.5 7.16421 14.5 6.75V3Z" fill="currentColor"/><path fill-rule="evenodd" clip-rule="evenodd" d="M21.3637 13.6363C20.4264 12.699 18.9069 12.699 17.9697 13.6363L14.2197 17.3863C14.079 17.5269 14 17.7177 14 17.9166V20.2499C14 20.6641 14.3358 20.9999 14.75 20.9999H17.0833C17.2822 20.9999 17.473 20.9209 17.6137 20.7803L21.3637 17.0303C22.3009 16.093 22.3009 14.5735 21.3637 13.6363ZM19.0303 14.6969C19.3818 14.3455 19.9516 14.3455 20.303 14.6969C20.6544 15.0484 20.6544 15.6182 20.303 15.9696L16.7727 19.4999H15.5V18.2273L19.0303 14.6969Z" fill="currentColor"/></g></svg>