<svg width="24px" height="24px" viewBox="0 0 24 24" fill="currentColor" xmlns="http://www.w3.org/2000/svg"><g><path d="M8 3H6.75C4.67893 3 3 4.67893 3 6.75V17.25C3 19.3211 4.67893 21 6.75 21H14.6802C14.1804 20.1391 14.2991 19.0176 15.0363 18.2804L15.5666 17.7501L15.0363 17.2197C14.1576 16.3411 14.1576 14.9164 15.0363 14.0378C15.915 13.1591 17.3396 13.1591 18.2183 14.0378L18.7486 14.5681L19.2789 14.0378C19.7514 13.5653 20.3816 13.3469 21 13.3825V6.75C21 4.67893 19.3211 3 17.25 3H16V6.75C16 7.99264 14.9926 9 13.75 9H10.25C9.00736 9 8 7.99264 8 6.75V3Z" fill="currentColor"/><path d="M14.5 3H9.5V6.75C9.5 7.16421 9.83579 7.5 10.25 7.5H13.75C14.1642 7.5 14.5 7.16421 14.5 6.75V3Z" fill="currentColor"/><path d="M21.4016 16.159C21.6945 15.8661 21.6945 15.3912 21.4016 15.0983C21.1088 14.8054 20.6339 14.8054 20.341 15.0983L18.75 16.6893L17.159 15.0983C16.8661 14.8054 16.3912 14.8054 16.0983 15.0983C15.8055 15.3912 15.8055 15.8661 16.0984 16.159L17.6893 17.75L16.0984 19.3409C15.8055 19.6338 15.8055 20.1087 16.0984 20.4016C16.3912 20.6945 16.8661 20.6945 17.159 20.4016L18.75 18.8106L20.341 20.4016C20.6339 20.6945 21.1088 20.6945 21.4016 20.4016C21.6945 20.1087 21.6945 19.6338 21.4016 19.3409L19.8107 17.75L21.4016 16.159Z" fill="currentColor"/></g></svg>