<svg width="24px" height="24px" viewBox="0 0 24 24" fill="currentColor" xmlns="http://www.w3.org/2000/svg"><g><path fill-rule="evenodd" clip-rule="evenodd" d="M6.75 3H8V7.75C8 8.99264 9.00736 10 10.25 10H13.75C14.9926 10 16 8.99264 16 7.75V3H17.25C19.3211 3 21 4.67893 21 6.75V17.25C21 19.3211 19.3211 21 17.25 21H6.75C4.67893 21 3 19.3211 3 17.25V6.75C3 4.67893 4.67893 3 6.75 3ZM14.75 16.5C14.3358 16.5 14 16.8358 14 17.25C14 17.6642 14.3358 18 14.75 18H17.25C17.6642 18 18 17.6642 18 17.25C18 16.8358 17.6642 16.5 17.25 16.5H14.75Z" fill="currentColor"/><path d="M9.5 3H14.5V7.75C14.5 8.16421 14.1642 8.5 13.75 8.5H10.25C9.83579 8.5 9.5 8.16421 9.5 7.75V3Z" fill="currentColor"/></g></svg>