<svg width="24px" height="24px" viewBox="0 0 24 24" fill="currentColor" xmlns="http://www.w3.org/2000/svg"><g><path d="M8 3H6.75C4.67893 3 3 4.67893 3 6.75V17.25C3 19.3211 4.67893 21 6.75 21H13.5311C13.4378 20.9176 13.3465 20.8318 13.2574 20.7426C10.9142 18.3995 10.9142 14.6005 13.2574 12.2574C15.3665 10.1482 18.6553 9.93758 21 11.6255V6.75C21 4.67893 19.3211 3 17.25 3H16V6.75C16 7.99264 14.9926 9 13.75 9H10.25C9.00736 9 8 7.99264 8 6.75V3Z" fill="currentColor"/><path d="M14.5 3H9.5V6.75C9.5 7.16421 9.83579 7.5 10.25 7.5H13.75C14.1642 7.5 14.5 7.16421 14.5 6.75V3Z" fill="currentColor"/><path fill-rule="evenodd" clip-rule="evenodd" d="M20.682 13.318C18.9246 11.5607 16.0754 11.5607 14.318 13.318C12.5607 15.0754 12.5607 17.9246 14.318 19.682C16.0754 21.4393 18.9246 21.4393 20.682 19.682C22.4393 17.9246 22.4393 15.0754 20.682 13.318ZM20.0848 18.0242L15.9758 13.9152C17.1263 13.2357 18.6329 13.3902 19.6213 14.3787C20.6098 15.3671 20.7643 16.8737 20.0848 18.0242ZM14.9152 14.9758L19.0242 19.0848C17.8737 19.7643 16.3671 19.6098 15.3787 18.6213C14.3902 17.6329 14.2357 16.1263 14.9152 14.9758Z" fill="currentColor"/></g></svg>