<svg width="24px" height="24px" viewBox="0 0 24 24" fill="currentColor" xmlns="http://www.w3.org/2000/svg"><g><path fill-rule="evenodd" clip-rule="evenodd" d="M6.75 4.5C5.50736 4.5 4.5 5.50736 4.5 6.75V17.25C4.5 18.4926 5.50736 19.5 6.75 19.5H12.25C12.6642 19.5 13 19.8358 13 20.25C13 20.6642 12.6642 21 12.25 21H6.75C4.67893 21 3 19.3211 3 17.25V6.75C3 4.67893 4.67893 3 6.75 3H17.25C19.3211 3 21 4.67893 21 6.75V10.25C21 10.6642 20.6642 11 20.25 11C19.8358 11 19.5 10.6642 19.5 10.25V6.75C19.5 5.50736 18.4926 4.5 17.25 4.5H16V7.25C16 8.76878 14.7688 10 13.25 10H10.75C9.23122 10 8 8.76878 8 7.25V4.5H6.75ZM17.2803 13.2197C17.5732 13.5126 17.5732 13.9874 17.2803 14.2803L16.3107 15.25H19.25C20.7688 15.25 22 16.4812 22 18V20.25C22 20.6642 21.6642 21 21.25 21C20.8358 21 20.5 20.6642 20.5 20.25V18C20.5 17.3096 19.9404 16.75 19.25 16.75H16.3107L17.2803 17.7197C17.5732 18.0126 17.5732 18.4874 17.2803 18.7803C16.9874 19.0732 16.5126 19.0732 16.2197 18.7803L13.9697 16.5303C13.6768 16.2374 13.6768 15.7626 13.9697 15.4697L16.2197 13.2197C16.5126 12.9268 16.9874 12.9268 17.2803 13.2197Z" fill="currentColor"/></g></svg>