<svg width="24px" height="24px" viewBox="0 0 24 24" fill="currentColor" xmlns="http://www.w3.org/2000/svg"><g><path d="M8 3H6.75C4.67893 3 3 4.67893 3 6.75V17.25C3 19.3211 4.67893 21 6.75 21H13.8635C13.0533 20.1196 12.5 18.948 12.5 17.4435V14.5C12.5 13.6896 12.9358 12.9418 13.6409 12.5424C15.0194 11.7614 16.4618 11.2939 18 11.2939C19.0406 11.2939 20.0373 11.5078 21 11.888V6.75C21 4.67893 19.3211 3 17.25 3H16V6.75C16 7.99264 14.9926 9 13.75 9H10.25C9.00736 9 8 7.99264 8 6.75V3Z" fill="currentColor"/><path d="M14.5 3H9.5V6.75C9.5 7.16421 9.83579 7.5 10.25 7.5H13.75C14.1642 7.5 14.5 7.16421 14.5 6.75V3Z" fill="currentColor"/><path fill-rule="evenodd" clip-rule="evenodd" d="M21.6197 13.8475C20.4102 13.1622 19.221 12.7939 18 12.7939C16.779 12.7939 15.5898 13.1622 14.3803 13.8475C14.1453 13.9806 14 14.2299 14 14.5V17.4435C14 18.7119 14.5234 19.619 15.275 20.286C15.9873 20.9182 16.9078 21.3353 17.6954 21.6854C17.8893 21.7716 18.1107 21.7716 18.3046 21.6854C19.0922 21.3353 20.0127 20.9182 20.725 20.286C21.4766 19.619 22 18.7119 22 17.4435V14.5C22 14.2299 21.8547 13.9806 21.6197 13.8475ZM15.5 17.4435V14.949C16.3905 14.5008 17.2075 14.2939 18 14.2939C18.7925 14.2939 19.6095 14.5008 20.5 14.949V17.4435C20.5 18.231 20.2013 18.7453 19.7293 19.1641C19.2827 19.5605 18.6885 19.8649 18 20.1779C17.3115 19.8649 16.7173 19.5605 16.2707 19.1641C15.7987 18.7453 15.5 18.231 15.5 17.4435Z" fill="currentColor"/></g></svg>