<svg width="24px" height="24px" viewBox="0 0 24 24" fill="currentColor" xmlns="http://www.w3.org/2000/svg"><g><path d="M8 3H6.75C4.67893 3 3 4.67893 3 6.75V17.25C3 19.3211 4.67893 21 6.75 21H16.128C16.0451 20.7654 16 20.513 16 20.25V19.5H15.25C14.0074 19.5 13 18.4926 13 17.25C13 16.0074 14.0074 15 15.25 15H16V14.25C16 13.0074 17.0074 12 18.25 12C19.4926 12 20.5 13.0074 20.5 14.25V15H21V6.75C21 4.67893 19.3211 3 17.25 3H16V6.75C16 7.99264 14.9926 9 13.75 9H10.25C9.00736 9 8 7.99264 8 6.75V3Z" fill="currentColor"/><path d="M14.5 3H9.5V6.75C9.5 7.16421 9.83579 7.5 10.25 7.5H13.75C14.1642 7.5 14.5 7.16421 14.5 6.75V3Z" fill="currentColor"/><path d="M19 14.25C19 13.8358 18.6642 13.5 18.25 13.5C17.8358 13.5 17.5 13.8358 17.5 14.25V16.5H15.25C14.8358 16.5 14.5 16.8358 14.5 17.25C14.5 17.6642 14.8358 18 15.25 18H17.5V20.25C17.5 20.6642 17.8358 21 18.25 21C18.6642 21 19 20.6642 19 20.25V18H21.25C21.6642 18 22 17.6642 22 17.25C22 16.8358 21.6642 16.5 21.25 16.5H19V14.25Z" fill="currentColor"/></g></svg>