<svg width="24px" height="24px" viewBox="0 0 24 24" fill="currentColor" xmlns="http://www.w3.org/2000/svg"><g><path d="M8 3H6.75C4.67893 3 3 4.67893 3 6.75V17.25C3 19.3211 4.67893 21 6.75 21H13.5832C13.5748 20.9918 13.5664 20.9835 13.558 20.9752C13.5512 20.9685 13.5444 20.9617 13.5377 20.955C11.4874 18.9047 11.4874 15.5806 13.5377 13.5304C15.5879 11.4801 18.9121 11.4801 20.9623 13.5304L21 13.5684V6.75C21 4.67893 19.3211 3 17.25 3H16V6.75C16 7.99264 14.9926 9 13.75 9H10.25C9.00736 9 8 7.99264 8 6.75V3Z" fill="currentColor"/><path d="M14.5 3H9.5V6.75C9.5 7.16421 9.83579 7.5 10.25 7.5H13.75C14.1642 7.5 14.5 7.16421 14.5 6.75V3Z" fill="currentColor"/><path fill-rule="evenodd" clip-rule="evenodd" d="M19.9016 14.591C18.4372 13.1265 16.0628 13.1265 14.5983 14.591C13.1339 16.0554 13.1339 18.4298 14.5983 19.8943C15.8812 21.1771 17.8623 21.3362 19.3183 20.3716L20.7197 21.773C21.0126 22.0659 21.4874 22.0659 21.7803 21.773C22.0732 21.4801 22.0732 21.0052 21.7803 20.7123L20.3789 19.3109C21.3436 17.8549 21.1845 15.8738 19.9016 14.591ZM15.659 18.8336C14.7803 17.9549 14.7803 16.5303 15.659 15.6516C16.5377 14.773 17.9623 14.773 18.841 15.6516C19.7197 16.5303 19.7197 17.9549 18.841 18.8336C17.9623 19.7123 16.5377 19.7123 15.659 18.8336Z" fill="currentColor"/></g></svg>