<svg width="24px" height="24px" viewBox="0 0 24 24" fill="currentColor" xmlns="http://www.w3.org/2000/svg"><g><path d="M8 3H6.75C4.67893 3 3 4.67893 3 6.75V17.25C3 19.3211 4.67893 21 6.75 21H14.818L13.659 19.841C12.7803 18.9623 12.7803 17.5377 13.659 16.659C14.5377 15.7803 15.9623 15.7803 16.841 16.659L17 16.818L19.409 14.409C19.8484 13.9697 20.4242 13.75 21 13.75V6.75C21 4.67893 19.3211 3 17.25 3H16V6.75C16 7.99264 14.9926 9 13.75 9H10.25C9.00736 9 8 7.99264 8 6.75V3Z" fill="currentColor"/><path d="M14.5 3H9.5V6.75C9.5 7.16421 9.83579 7.5 10.25 7.5H13.75C14.1642 7.5 14.5 7.16421 14.5 6.75V3Z" fill="currentColor"/><path d="M21.5303 16.5303C21.8232 16.2374 21.8232 15.7626 21.5303 15.4697C21.2374 15.1768 20.7626 15.1768 20.4697 15.4697L17 18.9393L15.7803 17.7197C15.4874 17.4268 15.0126 17.4268 14.7197 17.7197C14.4268 18.0126 14.4268 18.4874 14.7197 18.7803L16.4697 20.5303C16.6103 20.671 16.8011 20.75 17 20.75C17.1989 20.75 17.3897 20.671 17.5303 20.5303L21.5303 16.5303Z" fill="currentColor"/></g></svg>