<svg width="24px" height="24px" viewBox="0 0 24 24" fill="currentColor" xmlns="http://www.w3.org/2000/svg"><g><path d="M4.5 6.75C4.5 5.50736 5.50736 4.5 6.75 4.5H8V8.25C8 9.2165 8.7835 10 9.75 10H14.25C15.2165 10 16 9.2165 16 8.25V4.5H17.25C18.4926 4.5 19.5 5.50736 19.5 6.75V10.25C19.5 10.6642 19.8358 11 20.25 11C20.6642 11 21 10.6642 21 10.25V6.75C21 4.67893 19.3211 3 17.25 3H6.75C4.67893 3 3 4.67893 3 6.75V17.25C3 19.3211 4.67893 21 6.75 21H13.23C13.6442 21 13.98 20.6642 13.98 20.25C13.98 19.8358 13.6442 19.5 13.23 19.5H6.75C5.50736 19.5 4.5 18.4926 4.5 17.25V6.75Z" fill="currentColor"/><path d="M20.9019 13.5995C19.4374 12.1335 17.0626 12.1335 15.5981 13.5995C14.134 15.0651 14.134 17.441 15.5981 18.9066L17.7194 21.0301C17.8601 21.1709 18.051 21.25 18.25 21.25C18.449 21.25 18.6399 21.1709 18.7806 21.0301L20.9019 18.9066C22.366 17.441 22.366 15.0651 20.9019 13.5995Z" fill="currentColor"/></g></svg>