<svg width="24px" height="24px" viewBox="0 0 24 24" fill="currentColor" xmlns="http://www.w3.org/2000/svg"><g><path d="M8 3H6.75C4.67893 3 3 4.67893 3 6.75V17.25C3 19.3211 4.67893 21 6.75 21H15.5691L14.5369 19.9667C12.4877 17.9154 12.4877 14.5906 14.5369 12.5394C16.2904 10.7841 18.9764 10.5299 21 11.7769V6.75C21 4.67893 19.3211 3 17.25 3H16V6.75C16 7.99264 14.9926 9 13.75 9H10.25C9.00736 9 8 7.99264 8 6.75V3Z" fill="currentColor"/><path d="M14.5 3H9.5V6.75C9.5 7.16421 9.83579 7.5 10.25 7.5H13.75C14.1642 7.5 14.5 7.16421 14.5 6.75V3Z" fill="currentColor"/><path fill-rule="evenodd" clip-rule="evenodd" d="M20.9019 13.5995C19.4374 12.1335 17.0626 12.1335 15.5981 13.5995C14.134 15.0651 14.134 17.441 15.5981 18.9066L17.7194 21.0301C17.8601 21.1709 18.051 21.25 18.25 21.25C18.449 21.25 18.6399 21.1709 18.7806 21.0301L20.9019 18.9066C22.366 17.441 22.366 15.0651 20.9019 13.5995ZM16.6593 14.6596C17.5379 13.7801 18.9621 13.7801 19.8407 14.6596C20.7198 15.5396 20.7198 16.9665 19.8407 17.8465L18.25 19.4388L16.6593 17.8465C15.7802 16.9665 15.7802 15.5396 16.6593 14.6596Z" fill="currentColor"/></g></svg>