<svg width="24px" height="24px" viewBox="0 0 24 24" fill="currentColor" xmlns="http://www.w3.org/2000/svg"><g><path d="M4 5.75C4 3.67893 5.67893 2 7.75 2H16.25C18.3211 2 20 3.67893 20 5.75V12.6674C18.6206 12.1667 17.0152 12.4694 15.909 13.5756L12.159 17.3256C11.7371 17.7476 11.5 18.3199 11.5 18.9166V21.2499C11.5 21.5129 11.5451 21.7654 11.6281 22H7.75C5.67893 22 4 20.3211 4 18.25V5.75Z" fill="currentColor"/><path fill-rule="evenodd" clip-rule="evenodd" d="M16.9697 14.6363C17.9069 13.699 19.4264 13.699 20.3637 14.6363C21.3009 15.5735 21.3009 17.093 20.3637 18.0303L16.6137 21.7803C16.473 21.9209 16.2822 21.9999 16.0833 21.9999H13.75C13.3358 21.9999 13 21.6641 13 21.2499V18.9166C13 18.7177 13.079 18.5269 13.2197 18.3863L16.9697 14.6363Z" fill="currentColor"/></g></svg>