<svg width="24px" height="24px" viewBox="0 0 24 24" fill="currentColor" xmlns="http://www.w3.org/2000/svg"><g><path d="M7.75 2C5.67893 2 4 3.67893 4 5.75V18.25C4 20.3211 5.67893 22 7.75 22H12.9701L11.6502 20.6653C10.7764 19.7818 10.7843 18.3572 11.6679 17.4834C12.5514 16.6096 13.976 16.6176 14.8498 17.5011L15.241 17.8966L20 12.3351V5.75C20 3.67893 18.3211 2 16.25 2H7.75Z" fill="currentColor"/><path d="M21.3288 15.227C21.5922 14.9074 21.5466 14.4347 21.227 14.1712C20.9074 13.9078 20.4347 13.9534 20.1712 14.273L15.3422 20.1322L13.7833 18.5558C13.492 18.2613 13.0171 18.2586 12.7226 18.5499C12.4281 18.8411 12.4255 19.316 12.7167 19.6105L14.8596 21.7774C15.0088 21.9282 15.2149 22.0088 15.4268 21.9992C15.6387 21.9896 15.8367 21.8907 15.9716 21.727L21.3288 15.227Z" fill="currentColor"/></g></svg>