<svg width="24px" height="24px" viewBox="0 0 24 24" fill="currentColor" xmlns="http://www.w3.org/2000/svg"><g><path fill-rule="evenodd" clip-rule="evenodd" d="M7.75 2C5.67893 2 4 3.67893 4 5.75V18.25C4 20.3211 5.67893 22 7.75 22H11.628C11.5451 21.7654 11.5 21.513 11.5 21.25V16.75C11.5 15.9134 11.9566 15.1835 12.6341 14.7958C13.1147 12.9014 14.8312 11.5 16.875 11.5C18.0992 11.5 19.2059 12.0028 20 12.8131V5.75C20 3.67893 18.3211 2 16.25 2H7.75ZM7.75 5C7.33579 5 7 5.33579 7 5.75C7 6.16421 7.33579 6.5 7.75 6.5H14.25C14.6642 6.5 15 6.16421 15 5.75C15 5.33579 14.6642 5 14.25 5H7.75ZM7.75 9C7.33579 9 7 9.33579 7 9.75C7 10.1642 7.33579 10.5 7.75 10.5H11.25C11.6642 10.5 12 10.1642 12 9.75C12 9.33579 11.6642 9 11.25 9H7.75Z" fill="currentColor"/><path fill-rule="evenodd" clip-rule="evenodd" d="M20 16.1684V16C20 14.3431 18.6569 13 17 13C15.3431 13 14 14.3431 14 16V16.1684C13.4088 16.4493 13 17.0519 13 17.75V20.25C13 21.2165 13.7835 22 14.75 22H19.25C20.2165 22 21 21.2165 21 20.25V17.75C21 17.0519 20.5912 16.4493 20 16.1684ZM15.5 16H18.5C18.5 15.1716 17.8284 14.5 17 14.5C16.1716 14.5 15.5 15.1716 15.5 16ZM19.25 17.5H14.75C14.6119 17.5 14.5 17.6119 14.5 17.75V20.25C14.5 20.3881 14.6119 20.5 14.75 20.5H19.25C19.3881 20.5 19.5 20.3881 19.5 20.25V17.75C19.5 17.6119 19.3881 17.5 19.25 17.5Z" fill="currentColor"/></g></svg>