<svg width="24px" height="24px" viewBox="0 0 24 24" fill="currentColor" xmlns="http://www.w3.org/2000/svg"><g><path fill-rule="evenodd" clip-rule="evenodd" d="M16.25 2C18.3211 2 20 3.67893 20 5.75V14.5762C19.0492 13.6057 17.7211 13 16.25 13C13.3505 13 11 15.3505 11 18.25C11 19.719 11.6038 21.0471 12.5762 22H7.75C5.67893 22 4 20.3211 4 18.25V5.75C4 3.67893 5.67893 2 7.75 2H16.25ZM7.75 9C7.33579 9 7 9.33579 7 9.75C7 10.1642 7.33579 10.5 7.75 10.5H10.25C10.6642 10.5 11 10.1642 11 9.75C11 9.33579 10.6642 9 10.25 9H7.75ZM7.75 5C7.33579 5 7 5.33579 7 5.75C7 6.16421 7.33579 6.5 7.75 6.5H14.25C14.6642 6.5 15 6.16421 15 5.75C15 5.33579 14.6642 5 14.25 5H7.75Z" fill="currentColor"/><path d="M16.25 14.5C17.4832 14.5 18.5753 15.0953 19.2578 16.0107C20.7938 16.1416 22 17.4301 22 19C22 20.6569 20.6569 22 19 22H16.25C14.1789 22 12.5 20.3211 12.5 18.25C12.5 16.1789 14.1789 14.5 16.25 14.5Z" fill="currentColor"/></g></svg>