<svg width="24px" height="24px" viewBox="0 0 24 24" fill="currentColor" xmlns="http://www.w3.org/2000/svg"><g><path d="M7.75 2C5.67893 2 4 3.67893 4 5.75V18.25C4 20.3211 5.67893 22 7.75 22H12.8464C11.4127 20.8077 10.5 19.0104 10.5 17C10.5 13.4101 13.4101 10.5 17 10.5C18.0821 10.5 19.1025 10.7644 20 11.2322V5.75C20 3.67893 18.3211 2 16.25 2H7.75Z" fill="currentColor"/><path fill-rule="evenodd" clip-rule="evenodd" d="M17 12C14.2386 12 12 14.2386 12 17C12 19.7614 14.2386 22 17 22C18.3805 22 19.6315 21.4395 20.5355 20.5355C21.4395 19.6315 22 18.3805 22 17C22 14.2386 19.7614 12 17 12ZM13.5 17C13.5 15.3244 14.6774 13.9239 16.25 13.5805V17C16.25 17.1989 16.329 17.3897 16.4697 17.5303L18.8875 19.9481C18.3428 20.2977 17.6954 20.5 17 20.5C15.067 20.5 13.5 18.933 13.5 17ZM17.75 16.6893V13.5805C19.3226 13.9239 20.5 15.3244 20.5 17C20.5 17.6954 20.2977 18.3428 19.9481 18.8875L17.75 16.6893Z" fill="currentColor"/></g></svg>