<svg width="24px" height="24px" viewBox="0 0 24 24" fill="currentColor" xmlns="http://www.w3.org/2000/svg"><g><path fill-rule="evenodd" clip-rule="evenodd" d="M4 5.75C4 3.67893 5.67893 2 7.75 2H16.25C18.3211 2 20 3.67893 20 5.75V12.626C19.0149 11.9174 17.8062 11.5 16.5 11.5C13.1863 11.5 10.5 14.1863 10.5 17.5C10.5 19.292 11.2856 20.9006 12.5313 22H7.75C5.67893 22 4 20.3211 4 18.25V5.75ZM7 5.75C7 5.33579 7.33579 5 7.75 5H14.25C14.6642 5 15 5.33579 15 5.75C15 6.16421 14.6642 6.5 14.25 6.5H7.75C7.33579 6.5 7 6.16421 7 5.75ZM7 9.75C7 9.33579 7.33579 9 7.75 9H11.25C11.6642 9 12 9.33579 12 9.75C12 10.1642 11.6642 10.5 11.25 10.5H7.75C7.33579 10.5 7 10.1642 7 9.75Z" fill="currentColor"/><path fill-rule="evenodd" clip-rule="evenodd" d="M16.5 13C14.0147 13 12 15.0147 12 17.5C12 19.9853 14.0147 22 16.5 22C17.4786 22 18.3849 21.687 19.1232 21.1567L19.9613 22.0218C20.2495 22.3193 20.7243 22.3269 21.0218 22.0387C21.3193 21.7505 21.3269 21.2757 21.0387 20.9782L20.1794 20.0912C20.696 19.3587 21 18.4644 21 17.5C21 15.0147 18.9853 13 16.5 13ZM13.5 17.5C13.5 15.8431 14.8431 14.5 16.5 14.5C18.1569 14.5 19.5 15.8431 19.5 17.5C19.5 18.32 19.172 19.0618 18.6384 19.6041C18.0934 20.158 17.3373 20.5 16.5 20.5C14.8431 20.5 13.5 19.1569 13.5 17.5Z" fill="currentColor"/></g></svg>