<svg width="24px" height="24px" viewBox="0 0 24 24" fill="currentColor" xmlns="http://www.w3.org/2000/svg"><g><path fill-rule="evenodd" clip-rule="evenodd" d="M12 2C15.854 2 19.0407 4.79901 19.8174 8.5H20.25C20.6642 8.5 21 8.83579 21 9.25C21 9.66421 20.6642 10 20.25 10H20V18.25C20 20.3211 18.3211 22 16.25 22H7.75C5.67893 22 4 20.3211 4 18.25V10H3.75C3.33579 10 3 9.66421 3 9.25C3 8.83579 3.33579 8.5 3.75 8.5H4.18262C4.95927 4.79901 8.146 2 12 2ZM12 3.5C9.01009 3.5 6.46522 5.60758 5.7207 8.5H8V13.25C8 13.6642 8.33579 14 8.75 14C9.16421 14 9.5 13.6642 9.5 13.25V8.5H11V11.25C11 11.6642 11.3358 12 11.75 12C12.1642 12 12.5 11.6642 12.5 11.25V8.5H18.2793C17.5348 5.60758 14.9899 3.5 12 3.5Z" fill="currentColor"/></g></svg>