<svg width="24px" height="24px" viewBox="0 0 24 24" fill="currentColor" xmlns="http://www.w3.org/2000/svg"><g><path d="M20 12.25C20 13.7688 18.7688 15 17.25 15H14.5L14.8008 19.5068C14.9087 21.1267 13.6235 22.5 12 22.5C10.3765 22.5 9.09135 21.1267 9.19922 19.5068L9.5 15H6.75C5.23122 15 4 13.7688 4 12.25V12H20V12.25Z" fill="currentColor"/><path d="M8.125 2C8.36094 2 8.58296 2.11114 8.72461 2.2998L9.7998 3.7334C9.8998 3.86673 10.1002 3.86673 10.2002 3.7334L11.2754 2.2998C11.417 2.11114 11.6391 2 11.875 2H18.25C19.2165 2 20 2.7835 20 3.75V10.5H4V3.75C4 2.7835 4.7835 2 5.75 2H8.125Z" fill="currentColor"/></g></svg>