<svg width="24px" height="24px" viewBox="0 0 24 24" fill="currentColor" xmlns="http://www.w3.org/2000/svg"><g><path d="M21 5.05C21 4.4701 20.5299 4 19.95 4H4.05C3.4701 4 3 4.4701 3 5.05C3 5.6299 3.4701 6.1 4.05 6.1H5.25C6.76878 6.1 8 7.33122 8 8.85V14.5C8 15.3284 8.67157 16 9.5 16C10.3284 16 11 15.3284 11 14.5V10.5C11 11.3284 11.6716 12 12.5 12C13.3284 12 14 11.3284 14 10.5V8.85C14 7.33122 15.2312 6.1 16.75 6.1H19.95C20.5299 6.1 21 5.6299 21 5.05Z" fill="currentColor"/><path d="M5.25 7.6001C5.94036 7.6001 6.5 8.15974 6.5 8.8501V9.7001H3.05C2.4701 9.7001 2 9.23 2 8.6501C2 8.0702 2.4701 7.6001 3.05 7.6001H5.25Z" fill="currentColor"/><path d="M15.4179 11.2001C15.1872 12.1649 14.4905 12.9486 13.579 13.3001H20.95C21.5299 13.3001 22 12.83 22 12.2501C22 11.6702 21.5299 11.2001 20.95 11.2001H15.4179Z" fill="currentColor"/><path d="M6.5 13.3001V11.2001H4.05C3.4701 11.2001 3 11.6702 3 12.2501C3 12.83 3.4701 13.3001 4.05 13.3001H6.5Z" fill="currentColor"/><path d="M7.69977 16.9C7.04641 16.4092 6.59999 15.6578 6.51482 14.8H4.05C3.4701 14.8 3 15.2701 3 15.85C3 16.4299 3.4701 16.9 4.05 16.9H7.69977Z" fill="currentColor"/><path d="M12.4852 14.8C12.4 15.6578 11.9536 16.4092 11.3002 16.9H19.95C20.5299 16.9 21 16.4299 21 15.85C21 15.2701 20.5299 14.8 19.95 14.8H12.4852Z" fill="currentColor"/><path d="M16.75 7.6001C16.0596 7.6001 15.5 8.15974 15.5 8.8501V9.7001H19.95C20.5299 9.7001 21 9.23 21 8.6501C21 8.0702 20.5299 7.6001 19.95 7.6001H16.75Z" fill="currentColor"/><path d="M1.75 18.5001C1.33579 18.5001 1 18.8359 1 19.2501C1 19.6643 1.33579 20.0001 1.75 20.0001H22.25C22.6642 20.0001 23 19.6643 23 19.2501C23 18.8359 22.6642 18.5001 22.25 18.5001H1.75Z" fill="currentColor"/></g></svg>