<svg width="24px" height="24px" viewBox="0 0 24 24" fill="currentColor" xmlns="http://www.w3.org/2000/svg"><g><path fill-rule="evenodd" clip-rule="evenodd" d="M11.25 5.375C11.25 3.51104 12.761 2 14.625 2C16.489 2 18 3.51104 18 5.375V16C18 19.3137 15.3137 22 12 22C8.68629 22 6 19.3137 6 16V8.75C6 8.33579 6.33579 8 6.75 8C7.16421 8 7.5 8.33579 7.5 8.75V16C7.5 18.4853 9.51472 20.5 12 20.5C14.4853 20.5 16.5 18.4853 16.5 16V5.375C16.5 4.33947 15.6605 3.5 14.625 3.5C13.5895 3.5 12.75 4.33947 12.75 5.375V15.25C12.75 15.6642 12.4142 16 12 16C11.5858 16 11.25 15.6642 11.25 15.25V5.375Z" fill="currentColor"/></g></svg>