<svg width="24px" height="24px" viewBox="0 0 24 24" fill="currentColor" xmlns="http://www.w3.org/2000/svg"><g><path fill-rule="evenodd" clip-rule="evenodd" d="M20.6892 12.7812C17.94 11.0385 15.3246 10.1161 12.75 9.96631V16.0945C13.4705 16.28 14.0863 16.7263 14.4905 17.3269L20.6892 12.7812ZM14.9931 18.7949C15.0442 18.7728 15.0936 18.7448 15.1403 18.7105L22.4435 13.3548C22.6362 13.2135 22.75 12.9889 22.75 12.75C22.75 6.81294 17.9371 2 12 2C6.06294 2 1.25 6.81294 1.25 12.75C1.25 12.9889 1.36382 13.2135 1.55648 13.3548L8.85969 18.7105C8.90644 18.7448 8.95584 18.7728 9.0069 18.7949C9.00233 18.8626 9 18.931 9 19C9 20.6569 10.3431 22 12 22C13.6569 22 15 20.6569 15 19C15 18.931 14.9977 18.8626 14.9931 18.7949ZM9.50949 17.3269C9.91375 16.7263 10.5295 16.28 11.25 16.0945V9.96631C8.67535 10.1161 6.05999 11.0385 3.31084 12.7812L9.50949 17.3269Z" fill="currentColor"/></g></svg>