<svg width="24px" height="24px" viewBox="0 0 24 24" fill="currentColor" xmlns="http://www.w3.org/2000/svg"><g><path d="M11.999 2C13.788 2 15.3215 3.07194 16.002 4.60547C18.2466 4.79375 20.0115 6.67168 20.0117 8.96387C20.0117 9.5045 19.9106 10.022 19.7305 10.5C20.5421 11.293 21.0488 12.3989 21.0488 13.625C21.0488 16.0425 19.0864 18 16.668 18H12.749V20.5H14.249C14.6632 20.5 14.999 20.8358 14.999 21.25C14.999 21.6642 14.6632 22 14.249 22H9.74902C9.33481 22 8.99902 21.6642 8.99902 21.25C8.99902 20.8358 9.33481 20.5 9.74902 20.5H11.249V18H7.33008C4.91178 17.9998 2.94922 16.0423 2.94922 13.625C2.94922 12.3995 3.45539 11.2932 4.2666 10.5C4.08675 10.0217 3.98633 9.50394 3.98633 8.96387C3.98654 6.67214 5.7511 4.79439 7.99512 4.60547C8.67574 3.07161 10.2102 2.00008 11.999 2Z" fill="currentColor"/></g></svg>