<svg width="24px" height="24px" viewBox="0 0 24 24" fill="currentColor" xmlns="http://www.w3.org/2000/svg"><g><path fill-rule="evenodd" clip-rule="evenodd" d="M8.5179 3H15.4821C16.2949 2.99999 16.9506 2.99999 17.4815 3.04336C18.0281 3.08803 18.5082 3.18239 18.9525 3.40873C19.6581 3.76825 20.2317 4.34193 20.5913 5.04754C20.8176 5.49175 20.912 5.9719 20.9566 6.51853C21 7.04944 21 7.70505 21 8.51788V15.4821C21 16.295 21 16.9506 20.9566 17.4815C20.912 18.0281 20.8176 18.5082 20.5913 18.9525C20.2317 19.6581 19.6581 20.2317 18.9525 20.5913C18.5082 20.8176 18.0281 20.912 17.4815 20.9566C16.9506 21 16.295 21 15.4821 21H8.51788C7.70505 21 7.04944 21 6.51853 20.9566C5.9719 20.912 5.49175 20.8176 5.04754 20.5913C4.34193 20.2317 3.76825 19.6581 3.40873 18.9525C3.18239 18.5082 3.08803 18.0281 3.04336 17.4815C2.99999 16.9506 2.99999 16.2949 3 15.4821V8.5179C2.99999 7.70506 2.99999 7.04944 3.04336 6.51853C3.08803 5.9719 3.18239 5.49175 3.40873 5.04754C3.76825 4.34193 4.34193 3.76825 5.04754 3.40873C5.49175 3.18239 5.9719 3.08803 6.51853 3.04336C7.04944 2.99999 7.70506 2.99999 8.5179 3ZM17 8.75C17 8.33579 16.6642 8 16.25 8C15.8358 8 15.5 8.33579 15.5 8.75V15.25C15.5 15.6642 15.8358 16 16.25 16C16.6642 16 17 15.6642 17 15.25V8.75ZM9 12C9 12.5523 8.55228 13 8 13C7.44772 13 7 12.5523 7 12C7 11.4477 7.44772 11 8 11C8.55228 11 9 11.4477 9 12ZM12 13C12.5523 13 13 12.5523 13 12C13 11.4477 12.5523 11 12 11C11.4477 11 11 11.4477 11 12C11 12.5523 11.4477 13 12 13Z" fill="currentColor"/></g></svg>