<svg width="24px" height="24px" viewBox="0 0 24 24" fill="currentColor" xmlns="http://www.w3.org/2000/svg"><g><path fill-rule="evenodd" clip-rule="evenodd" d="M3.5 6.25C3.5 4.17893 5.17893 2.5 7.25 2.5H16.75C18.8211 2.5 20.5 4.17893 20.5 6.25V17.75C20.5 19.8211 18.8211 21.5 16.75 21.5H7.25C5.17893 21.5 3.5 19.8211 3.5 17.75V6.25ZM12 8.25C10.7574 8.25 9.75 9.25736 9.75 10.5C9.75 11.7426 10.7574 12.75 12 12.75C13.2426 12.75 14.25 11.7426 14.25 10.5C14.25 9.25736 13.2426 8.25 12 8.25ZM8.25 10.5C8.25 8.42893 9.92893 6.75 12 6.75C14.0711 6.75 15.75 8.42893 15.75 10.5C15.75 12.5711 14.0711 14.25 12 14.25C9.92893 14.25 8.25 12.5711 8.25 10.5ZM8.5 16.25C8.5 15.8358 8.83579 15.5 9.25 15.5H14.75C15.1642 15.5 15.5 15.8358 15.5 16.25C15.5 16.6642 15.1642 17 14.75 17H9.25C8.83579 17 8.5 16.6642 8.5 16.25Z" fill="currentColor"/></g></svg>