<svg width="24px" height="24px" viewBox="0 0 24 24" fill="currentColor" xmlns="http://www.w3.org/2000/svg"><g><path d="M12 2C9.51472 2 7.5 4.01472 7.5 6.5C7.5 8.98528 9.51472 11 12 11C14.4853 11 16.5 8.98528 16.5 6.5C16.5 4.01472 14.4853 2 12 2Z" fill="currentColor"/><path d="M12.0012 12C8.18331 12 5.32396 14.4854 4.21894 17.882C3.65812 19.6059 5.13839 21 6.6844 21H15.25V17.5619C14.1869 16.7399 13.5 15.4512 13.5 14C13.5 13.3638 13.632 12.7584 13.8702 12.2098C13.2778 12.0725 12.6535 12 12.0012 12Z" fill="currentColor"/><path fill-rule="evenodd" clip-rule="evenodd" d="M18 11C16.3431 11 15 12.3431 15 14C15 15.2107 15.7172 16.254 16.75 16.728V20.2597C16.75 20.4116 16.819 20.5552 16.9377 20.6501L17.6877 21.2501C17.8703 21.3962 18.1297 21.3962 18.3123 21.2501L19.0623 20.6501C19.181 20.5552 19.25 20.4116 19.25 20.2597V19.6492C19.25 19.5078 19.1901 19.3729 19.085 19.2781L18.5 18.75L19.1036 18.1464C19.1973 18.0527 19.25 17.9255 19.25 17.7929V16.728C20.2828 16.254 21 15.2107 21 14C21 12.3431 19.6569 11 18 11ZM17 14C17 13.4477 17.4477 13 18 13C18.5523 13 19 13.4477 19 14C19 14.5523 18.5523 15 18 15C17.4477 15 17 14.5523 17 14Z" fill="currentColor"/></g></svg>