<svg width="24px" height="24px" viewBox="0 0 24 24" fill="currentColor" xmlns="http://www.w3.org/2000/svg"><g><path d="M19.4258 12.4868L11.3692 20.5444C10.7939 21.1197 10.0563 21.5053 9.25587 21.6509L4.67774 22.4829C4.35501 22.5415 4.02394 22.4385 3.792 22.2065C3.5603 21.9746 3.45701 21.6434 3.51563 21.3208L4.34767 16.7427C4.49326 15.9424 4.87895 15.2046 5.45411 14.6294L13.5108 6.57178L19.4258 12.4868Z" fill="currentColor"/><path d="M15.542 4.54248C17.175 2.90955 19.8229 2.90978 21.4561 4.54248C23.0892 6.17562 23.0891 8.82337 21.4561 10.4565L20.4863 11.4263L14.5713 5.51123L15.542 4.54248Z" fill="currentColor"/><path d="M7.24045 4.18518L6.54359 2.37334C6.45708 2.14842 6.24099 2 6 2C5.75901 2 5.54292 2.14842 5.45641 2.37334L4.75955 4.18518C4.65797 4.44927 4.44927 4.65797 4.18518 4.75955L2.37334 5.45641C2.14842 5.54292 2 5.75901 2 6C2 6.24099 2.14842 6.45708 2.37334 6.54359L4.18518 7.24045C4.44927 7.34203 4.65797 7.55073 4.75955 7.81482L5.45641 9.62666C5.54292 9.85158 5.75901 10 6 10C6.24099 10 6.45708 9.85158 6.54359 9.62666L7.24045 7.81482C7.34203 7.55073 7.55073 7.34203 7.81482 7.24045L9.62666 6.54359C9.85158 6.45708 10 6.24099 10 6C10 5.75901 9.85158 5.54292 9.62666 5.45641L7.81482 4.75955C7.55073 4.65797 7.34203 4.44927 7.24045 4.18518Z" fill="currentColor"/></g></svg>