<svg width="24px" height="24px" viewBox="0 0 24 24" fill="currentColor" xmlns="http://www.w3.org/2000/svg"><g><path d="M4.18342 7.40782C4.28018 7.35944 4.35864 7.28098 4.40702 7.18422L5.05194 5.89438C5.2362 5.52586 5.76211 5.52586 5.94637 5.89438L6.59128 7.18422C6.63967 7.28098 6.71813 7.35944 6.81489 7.40782L8.10473 8.05274C8.47325 8.237 8.47325 8.7629 8.10473 8.94717L6.81489 9.59208C6.71813 9.64047 6.63967 9.71893 6.59128 9.81569L5.94637 11.1055C5.7621 11.4741 5.2362 11.4741 5.05194 11.1055L4.40702 9.81569C4.35864 9.71893 4.28018 9.64047 4.18342 9.59208L2.89358 8.94717C2.52506 8.7629 2.52506 8.237 2.89358 8.05274L4.18342 7.40782Z" fill="currentColor"/><path d="M8.55934 3.71986C8.62846 3.6853 8.6845 3.62926 8.71906 3.56014L9.17972 2.63883C9.31133 2.3756 9.68698 2.3756 9.81859 2.63883L10.2792 3.56014C10.3138 3.62926 10.3698 3.6853 10.439 3.71986L11.3603 4.18051C11.6235 4.31213 11.6235 4.68778 11.3603 4.81939L10.439 5.28005C10.3698 5.3146 10.3138 5.37065 10.2792 5.43977L9.81859 6.36108C9.68698 6.62431 9.31133 6.62431 9.17972 6.36108L8.71906 5.43977C8.6845 5.37065 8.62846 5.3146 8.55934 5.28005L7.63803 4.81939C7.3748 4.68778 7.3748 4.31213 7.63803 4.18051L8.55934 3.71986Z" fill="currentColor"/><path d="M17.9418 3.86679C18.8379 3.08273 20.1884 3.1277 21.0303 3.96963C21.8723 4.81156 21.9172 6.16207 21.1332 7.05814L13.3103 15.9986C12.7671 13.8906 11.1093 12.2328 9.00141 11.6897L17.9418 3.86679Z" fill="currentColor"/><path d="M7.5 13C5.01472 13 3 15.0147 3 17.5V21.25C3 21.6642 3.33579 22 3.75 22H7.5C9.98528 22 12 19.9852 12 17.5C12 17.3896 11.996 17.28 11.9882 17.1714C11.8273 14.9476 10.0524 13.1726 7.82852 13.0118C7.71991 13.0039 7.61036 13 7.5 13Z" fill="currentColor"/></g></svg>