<svg width="24px" height="24px" viewBox="0 0 24 24" fill="currentColor" xmlns="http://www.w3.org/2000/svg"><g><path d="M20.9001 3.09993C19.4372 1.63701 17.0597 1.63094 15.5944 3.09625L3.09809 15.5925C2.395 16.2956 2 17.2492 2 18.2435V21.25C2 21.6642 2.33579 22 2.75 22H5.75646C6.75079 22 7.70439 21.605 8.40748 20.9019L20.9037 8.40564C22.3691 6.94033 22.363 4.56285 20.9001 3.09993Z" fill="currentColor"/><path d="M12.7461 20.5C12.3319 20.5 11.9961 20.8358 11.9961 21.25C11.9961 21.6642 12.3319 22 12.7461 22H21.2436C21.6578 22 21.9936 21.6642 21.9936 21.25C21.9936 20.8358 21.6578 20.5 21.2436 20.5H12.7461Z" fill="currentColor"/></g></svg>