<svg width="24px" height="24px" viewBox="0 0 24 24" fill="currentColor" xmlns="http://www.w3.org/2000/svg"><g><path fill-rule="evenodd" clip-rule="evenodd" d="M14.5425 3.54224C16.1755 1.9093 18.8234 1.90955 20.4566 3.54224C22.0897 5.17538 22.0896 7.82313 20.4566 9.4563L10.3696 19.5442C9.79434 20.1194 9.0568 20.5051 8.25636 20.6506L3.67823 21.4827C3.35551 21.5412 3.02442 21.4382 2.79249 21.2063C2.5608 20.9743 2.4575 20.6432 2.51612 20.3206L3.34815 15.7424C3.49374 14.9421 3.87944 14.2044 4.4546 13.6292L14.5425 3.54224ZM18.0308 5.96997C17.7379 5.67708 17.2631 5.67708 16.9702 5.96997L13.9702 8.96997C13.6776 9.26289 13.6774 9.73771 13.9702 10.0305C14.263 10.3231 14.7379 10.3231 15.0308 10.0305L18.0308 7.03052C18.3236 6.7377 18.3234 6.26288 18.0308 5.96997Z" fill="currentColor"/></g></svg>