<svg width="24px" height="24px" viewBox="0 0 24 24" fill="currentColor" xmlns="http://www.w3.org/2000/svg"><g><path fill-rule="evenodd" clip-rule="evenodd" d="M18.3712 13C18.6828 13 18.9619 13.193 19.0724 13.4844L19.2921 14.0635C19.4185 14.3965 19.7617 14.5951 20.1134 14.5381L20.7257 14.4385C21.0332 14.3886 21.3395 14.5339 21.4952 14.8037L21.7989 15.3291C21.9503 15.5916 21.9286 15.9197 21.7442 16.1602L21.3224 16.71C21.1109 16.986 21.117 17.3713 21.337 17.6406L21.798 18.2041C21.9951 18.4454 22.022 18.7838 21.8663 19.0537L21.5636 19.5791C21.412 19.8416 21.117 19.9865 20.8165 19.9473L20.129 19.8574C19.7843 19.8122 19.4535 20.0099 19.3302 20.335L19.0724 21.0156C18.962 21.3071 18.6828 21.4999 18.3712 21.5H17.7648C17.4616 21.5 17.1886 21.3171 17.0724 21.0371L16.7657 20.2998C16.6357 19.9865 16.311 19.7995 15.9747 19.8438L15.1847 19.9473C14.8841 19.9868 14.5893 19.8415 14.4376 19.5791L14.1339 19.0537C13.9782 18.784 14.0054 18.4455 14.2023 18.2041L14.6622 17.6396C14.8818 17.3704 14.8881 16.9858 14.6769 16.71L14.256 16.1602C14.0717 15.9196 14.0498 15.5916 14.2013 15.3291L14.505 14.8037C14.6608 14.534 14.9671 14.3887 15.2745 14.4385L15.9933 14.5557C16.3362 14.6112 16.6725 14.4234 16.8058 14.1025L17.0714 13.4619C17.1877 13.1821 17.4617 13 17.7648 13H18.3712ZM18.0001 15.5C17.0337 15.5001 16.2501 16.2835 16.2501 17.25C16.2501 18.2165 17.0337 18.9999 18.0001 19C18.9666 19 19.7501 18.2165 19.7501 17.25C19.7501 16.2835 18.9666 15.5 18.0001 15.5Z" fill="currentColor"/><path d="M12.0001 12.5C12.8257 12.5 13.6088 12.6104 14.3399 12.8154C13.0636 13.8701 12.2501 15.465 12.2501 17.25C12.2501 18.6834 12.7761 19.993 13.6437 21H7.79503C6.6956 20.9999 5.67627 20.5099 5.05284 19.7344C4.41143 18.9361 4.19619 17.829 4.77257 16.7568C6.14026 14.213 8.73731 12.5001 12.0001 12.5Z" fill="currentColor"/><path d="M12.0001 2C14.4853 2.00015 16.5001 4.01481 16.5001 6.5C16.5001 8.98519 14.4853 10.9999 12.0001 11C9.51489 10.9999 7.50011 8.98523 7.50011 6.5C7.50011 4.01477 9.51489 2.00008 12.0001 2Z" fill="currentColor"/></g></svg>