<svg width="24px" height="24px" viewBox="0 0 24 24" fill="currentColor" xmlns="http://www.w3.org/2000/svg"><g><path fill-rule="evenodd" clip-rule="evenodd" d="M5.75 2C3.67893 2 2 3.67893 2 5.75V14.25C2 16.3211 3.67893 18 5.75 18H6V18.6737C6 20.5108 7.48922 22 9.32626 22H18.6737C20.5108 22 22 20.5108 22 18.6737V9.75C22 7.67893 20.3211 6 18.25 6H18V5.75C18 3.67893 16.3211 2 14.25 2H5.75ZM9.75 6H16.5V5.75C16.5 4.50736 15.4926 3.5 14.25 3.5H5.75C4.50736 3.5 3.5 4.50736 3.5 5.75V14.25C3.5 15.4926 4.50736 16.5 5.75 16.5H6V9.75C6 7.67893 7.67893 6 9.75 6ZM14 16.5C11.9345 16.5 10.1422 17.8616 9.24946 19.8556C9.1103 20.1665 9.35066 20.5 9.69122 20.5H18.3088C18.6493 20.5 18.8897 20.1665 18.7505 19.8556C17.8578 17.8616 16.0655 16.5 14 16.5ZM14 15C15.3807 15 16.5 13.8807 16.5 12.5C16.5 11.1193 15.3807 10 14 10C12.6193 10 11.5 11.1193 11.5 12.5C11.5 13.8807 12.6193 15 14 15Z" fill="currentColor"/></g></svg>