<svg width="24px" height="24px" viewBox="0 0 24 24" fill="currentColor" xmlns="http://www.w3.org/2000/svg"><g><path fill-rule="evenodd" clip-rule="evenodd" d="M9 4.25V5.75C9 6.99264 10.0074 8 11.25 8H12.75C13.9926 8 15 6.99264 15 5.75V4.25C15 4.16546 14.9944 4.08212 14.9854 4H16C18.0711 4 19.75 5.67893 19.75 7.75V17.75C19.75 19.8211 18.0711 21.5 16 21.5H8C5.92893 21.5 4.25 19.8211 4.25 17.75V7.75C4.25 5.67893 5.92893 4 8 4H9.01465C9.00557 4.08212 9 4.16546 9 4.25ZM12 16.5C10.3003 16.5 8.82025 17.4423 8.05469 18.833C7.74541 19.395 8.22272 20 8.86426 20H15.1357C15.7773 20 16.2537 19.3951 15.9443 18.833C15.1787 17.4424 13.6996 16.5 12 16.5ZM12 10.125C10.6883 10.125 9.625 11.1883 9.625 12.5C9.625 13.8117 10.6883 14.875 12 14.875C13.3117 14.875 14.375 13.8117 14.375 12.5C14.375 11.1883 13.3117 10.125 12 10.125Z" fill="currentColor"/><path d="M12.75 2C13.1642 2 13.5 2.33579 13.5 2.75V5.75C13.5 6.16421 13.1642 6.5 12.75 6.5H11.25C10.8358 6.5 10.5 6.16421 10.5 5.75V2.75C10.5 2.33579 10.8358 2 11.25 2H12.75Z" fill="currentColor"/></g></svg>