<svg width="24px" height="24px" viewBox="0 0 24 24" fill="currentColor" xmlns="http://www.w3.org/2000/svg"><g><path d="M12 2C9.51472 2 7.5 4.01472 7.5 6.5C7.5 8.98528 9.51472 11 12 11C14.4853 11 16.5 8.98528 16.5 6.5C16.5 4.01472 14.4853 2 12 2Z" fill="currentColor"/><path d="M17.6588 14.6957C16.2227 13.3313 14.273 12.5 12 12.5C8.7371 12.5 6.14048 14.213 4.77278 16.7569C4.19622 17.8293 4.41122 18.9365 5.05292 19.7348C5.67643 20.5105 6.69557 21 7.79525 21H14.2001L13.4001 20.4C12.406 19.6544 12.2045 18.2441 12.9501 17.25C13.6957 16.2559 15.106 16.0544 16.1001 16.8L16.3043 16.9531L17.6588 14.6957Z" fill="currentColor"/><path d="M20.8932 15.1359C21.1063 14.7807 20.9911 14.32 20.6359 14.1069C20.2807 13.8938 19.82 14.0089 19.6069 14.3641L16.7348 19.151L15.2 18C14.8687 17.7515 14.3986 17.8186 14.15 18.15C13.9015 18.4814 13.9687 18.9515 14.3 19.2L16.5 20.85C16.6699 20.9774 16.8858 21.0268 17.0942 20.986C17.3026 20.9452 17.4839 20.8179 17.5932 20.6359L20.8932 15.1359Z" fill="currentColor"/></g></svg>