<svg width="24px" height="24px" viewBox="0 0 24 24" fill="currentColor" xmlns="http://www.w3.org/2000/svg"><g><path d="M12 2C9.51472 2 7.5 4.01472 7.5 6.5C7.5 8.98528 9.51472 11 12 11C14.4853 11 16.5 8.98528 16.5 6.5C16.5 4.01472 14.4853 2 12 2Z" fill="currentColor"/><path d="M4.33528 16.2569C5.70298 13.713 8.2996 12 11.5625 12C13.7084 12 15.5661 12.7409 16.9755 13.9718C16.1382 13.5691 15.1032 13.7148 14.409 14.409C13.5303 15.2877 13.5303 16.7123 14.409 17.591L14.818 18L14.409 18.409C13.8416 18.9764 13.6406 19.7713 13.806 20.5H7.35775C6.25807 20.5 5.23893 20.0105 4.61542 19.2348C3.97372 18.4365 3.75872 17.3293 4.33528 16.2569Z" fill="currentColor"/><path d="M20.5303 16.5303C20.8232 16.2374 20.8232 15.7626 20.5303 15.4697C20.2374 15.1768 19.7626 15.1768 19.4697 15.4697L18 16.9393L16.5303 15.4697C16.2374 15.1768 15.7626 15.1768 15.4697 15.4697C15.1768 15.7626 15.1768 16.2374 15.4697 16.5303L16.9393 18L15.4697 19.4697C15.1768 19.7626 15.1768 20.2374 15.4697 20.5303C15.7626 20.8232 16.2374 20.8232 16.5303 20.5303L18 19.0607L19.4697 20.5303C19.7626 20.8232 20.2374 20.8232 20.5303 20.5303C20.8232 20.2374 20.8232 19.7626 20.5303 19.4697L19.0607 18L20.5303 16.5303Z" fill="currentColor"/></g></svg>