<svg width="24px" height="24px" viewBox="0 0 24 24" fill="currentColor" xmlns="http://www.w3.org/2000/svg"><g><path d="M12 12.5C13.0955 12.5 14.1161 12.6931 15.04 13.0459L14.7646 13.7637L12.8828 14.4883C12.0505 14.8084 11.501 15.6083 11.501 16.5C11.501 17.3917 12.0505 18.1916 12.8828 18.5117L14.7646 19.2354L15.4434 21H7.79492C6.69547 20.9998 5.67614 20.5099 5.05273 19.7344C4.41137 18.9362 4.19613 17.829 4.77246 16.7568C6.14013 14.213 8.7372 12.5001 12 12.5Z" fill="currentColor"/><path d="M17.5 12C17.7711 12 18.014 12.167 18.1113 12.4199L18.8955 14.458C19.0098 14.7551 19.2449 14.9902 19.542 15.1045L21.5801 15.8887C21.833 15.986 22 16.2289 22 16.5C22 16.7711 21.833 17.014 21.5801 17.1113L19.542 17.8955C19.2449 18.0098 19.0098 18.2449 18.8955 18.542L18.1113 20.5801C18.014 20.833 17.7711 21 17.5 21C17.2289 21 16.986 20.833 16.8887 20.5801L16.1045 18.542C16.0878 18.4986 16.0676 18.4566 16.0459 18.416C16.0208 18.3698 15.9928 18.3254 15.9619 18.2832C15.8355 18.1101 15.6619 17.9739 15.458 17.8955L13.4199 17.1113C13.167 17.014 13 16.7711 13 16.5C13 16.2289 13.167 15.986 13.4199 15.8887L15.458 15.1045C15.7551 14.9902 15.9902 14.7551 16.1045 14.458L16.8887 12.4199C16.986 12.167 17.2289 12 17.5 12Z" fill="currentColor"/><path d="M4 7.5C4.18074 7.5 4.34234 7.61158 4.40723 7.78027L4.89062 9.03516C4.9922 9.29922 5.20078 9.5078 5.46484 9.60938L6.71973 10.0928C6.88842 10.1577 7 10.3193 7 10.5C7 10.6807 6.88842 10.8423 6.71973 10.9072L5.46484 11.3906C5.20078 11.4922 4.9922 11.7008 4.89062 11.9648L4.40723 13.2197C4.34234 13.3884 4.18074 13.5 4 13.5C3.81926 13.5 3.65766 13.3884 3.59277 13.2197L3.10938 11.9648C3.0078 11.7008 2.79922 11.4922 2.53516 11.3906L1.28027 10.9072C1.11158 10.8423 1 10.6807 1 10.5C1 10.3193 1.11158 10.1577 1.28027 10.0928L2.53516 9.60938C2.79922 9.5078 3.0078 9.29922 3.10938 9.03516L3.59277 7.78027C3.65766 7.61158 3.81926 7.5 4 7.5Z" fill="currentColor"/><path d="M12 2C14.4853 2 16.5 4.01472 16.5 6.5C16.5 8.98528 14.4853 11 12 11C9.51484 10.9999 7.5 8.9852 7.5 6.5C7.5 4.0148 9.51484 2.00014 12 2Z" fill="currentColor"/></g></svg>