<svg width="24px" height="24px" viewBox="0 0 24 24" fill="currentColor" xmlns="http://www.w3.org/2000/svg"><g><path d="M6.5 6.5C6.5 4.01472 8.51472 2 11 2C13.4853 2 15.5 4.01472 15.5 6.5C15.5 8.98528 13.4853 11 11 11C8.51472 11 6.5 8.98528 6.5 6.5Z" fill="currentColor"/><path d="M3.77277 16.7569C5.14047 14.213 7.73708 12.5 11 12.5C14.2629 12.5 16.8595 14.213 18.2272 16.7569C18.8038 17.8293 18.5888 18.9365 17.9471 19.7348C17.3236 20.5105 16.3044 21 15.2047 21H6.79526C5.69558 21 4.67643 20.5105 4.05292 19.7348C3.41122 18.9365 3.19622 17.8293 3.77277 16.7569Z" fill="currentColor"/><path d="M17.75 10.5C17.3358 10.5 17 10.8358 17 11.25C17 11.6642 17.3358 12 17.75 12H22.25C22.6642 12 23 11.6642 23 11.25C23 10.8358 22.6642 10.5 22.25 10.5H17.75Z" fill="currentColor"/></g></svg>