<svg width="24px" height="24px" viewBox="0 0 24 24" fill="currentColor" xmlns="http://www.w3.org/2000/svg"><g><path d="M12 13C8.73708 13 6.14047 14.713 4.77277 17.2569C4.19622 18.3293 4.41122 19.4365 5.05292 20.2348C5.67643 21.0105 6.69558 21.5 7.79526 21.5H16.2047C17.3044 21.5 18.3236 21.0105 18.9471 20.2348C19.5888 19.4365 19.8038 18.3293 19.2272 17.2569C17.8595 14.713 15.2629 13 12 13Z" fill="currentColor"/><path d="M12 3.5C9.79086 3.5 8 5.29086 8 7.5C8 9.70914 9.79086 11.5 12 11.5C14.2091 11.5 16 9.70914 16 7.5C16 5.29086 14.2091 3.5 12 3.5Z" fill="currentColor"/><path d="M6.87046 11.6168C6.39217 11.893 5.78058 11.7291 5.50444 11.2508C5.22829 10.7725 5.39217 10.1609 5.87046 9.88477C6.34875 9.60862 6.96034 9.7725 7.23649 10.2508C7.51263 10.7291 7.34875 11.3407 6.87046 11.6168Z" fill="currentColor"/><path d="M8.5869 1.87891C8.9419 2.30198 8.88672 2.93274 8.46364 3.28774C8.04057 3.64274 7.40981 3.58756 7.05481 3.16448C6.69981 2.74141 6.75499 2.11065 7.17807 1.75565C7.60114 1.40065 8.2319 1.45583 8.5869 1.87891Z" fill="currentColor"/><path d="M5.77147 5.38665C6.31537 5.48255 6.67853 6.00121 6.58263 6.54511C6.48673 7.089 5.96807 7.45217 5.42418 7.35627C4.88028 7.26036 4.51711 6.7417 4.61302 6.19781C4.70892 5.65391 5.22758 5.29075 5.77147 5.38665Z" fill="currentColor"/><path d="M12.9992 1C12.9992 1.55228 12.5515 2 11.9992 2C11.4469 2 10.9992 1.55228 10.9992 1C10.9992 0.447715 11.4469 0 11.9992 0C12.5515 0 12.9992 0.447715 12.9992 1Z" fill="currentColor"/><path d="M17.1279 11.6168C17.6062 11.893 18.2178 11.7291 18.4939 11.2508C18.7701 10.7725 18.6062 10.1609 18.1279 9.88477C17.6496 9.60862 17.038 9.7725 16.7619 10.2508C16.4857 10.7291 16.6496 11.3407 17.1279 11.6168Z" fill="currentColor"/><path d="M15.4115 1.87891C15.0565 2.30198 15.1116 2.93274 15.5347 3.28774C15.9578 3.64274 16.5886 3.58756 16.9436 3.16448C17.2986 2.74141 17.2434 2.11065 16.8203 1.75565C16.3972 1.40065 15.7665 1.45583 15.4115 1.87891Z" fill="currentColor"/><path d="M18.2269 5.38665C17.683 5.48255 17.3198 6.00121 17.4157 6.54511C17.5116 7.089 18.0303 7.45217 18.5742 7.35627C19.1181 7.26036 19.4813 6.7417 19.3853 6.19781C19.2894 5.65391 18.7708 5.29075 18.2269 5.38665Z" fill="currentColor"/></g></svg>