<svg width="24px" height="24px" viewBox="0 0 24 24" fill="currentColor" xmlns="http://www.w3.org/2000/svg"><g><path d="M12.25 14C14.3245 14 15.9998 15.689 16 17.7646V19.25C16 19.6642 15.6642 20 15.25 20H2.75C2.33579 20 2 19.6642 2 19.25V17.7646C2.0002 15.689 3.67553 14 5.75 14H12.25Z" fill="currentColor"/><path d="M18.25 14C20.3245 14 21.9998 15.689 22 17.7646V19C22 19.5523 21.5523 20 21 20H17.5V17.7646L17.4932 17.4941C17.424 16.1294 16.8351 14.8985 15.9189 14H18.25Z" fill="currentColor"/><path d="M9 4C11.4853 4 13.5 6.01472 13.5 8.5C13.5 10.9853 11.4853 13 9 13C6.51472 13 4.5 10.9853 4.5 8.5C4.5 6.01472 6.51472 4 9 4Z" fill="currentColor"/><path d="M15 4C17.4853 4 19.5 6.01472 19.5 8.5C19.5 10.9853 17.4853 13 15 13C14.7953 13 14.594 12.9845 14.3965 12.958C14.0679 12.8103 13.721 12.6959 13.3604 12.6182C14.3757 11.5434 15 10.0952 15 8.5C15 6.87843 14.3549 5.40892 13.3096 4.3291C13.8316 4.11733 14.402 4 15 4Z" fill="currentColor"/></g></svg>