<svg width="24px" height="24px" viewBox="0 0 24 24" fill="currentColor" xmlns="http://www.w3.org/2000/svg"><g><path fill-rule="evenodd" clip-rule="evenodd" d="M12 2C6.47656 2 2 6.47717 2 12C2 14.897 3.23047 17.5063 5.19922 19.3326C6.98438 20.9879 9.375 22 12 22C14.625 22 17.0156 20.9879 18.8008 19.3326C20.7695 17.5063 22 14.897 22 12C22 6.47717 17.5234 2 12 2ZM5.97656 17.9968C7.30078 16.174 9.41016 15 12 15C14.5898 15 16.6992 16.174 18.0234 17.9968C16.4844 19.543 14.3555 20.5 12 20.5C9.64453 20.5 7.51562 19.543 5.97656 17.9968ZM12 6.75C10.2031 6.75 8.75 8.20508 8.75 10C8.75 11.7949 10.2031 13.25 12 13.25C13.7969 13.25 15.25 11.7949 15.25 10C15.25 8.20508 13.7969 6.75 12 6.75Z" fill="currentColor"/></g></svg>