<svg width="24px" height="24px" viewBox="0 0 24 24" fill="currentColor" xmlns="http://www.w3.org/2000/svg"><g><path d="M12.0001 10.5C12.0001 10.7761 11.7753 11.0029 11.5009 10.9726C9.25049 10.7243 7.50005 8.81656 7.50005 6.5C7.50005 4.18345 9.25049 2.27574 11.5009 2.02738C11.7753 1.99709 12.0001 2.22386 12.0001 2.5V10.5Z" fill="currentColor"/><path d="M12.0001 20.5C12.0001 20.7761 11.7762 21 11.5001 21H7.15025C5.07918 21 3.33254 19.2426 4.22203 17.3723C5.49952 14.6861 8.16529 12.6954 11.5 12.5136C11.7757 12.4985 12.0001 12.7239 12.0001 13V20.5Z" fill="currentColor"/><circle cx="14.0016" cy="3.24961" r="0.9" fill="currentColor"/><circle cx="14.0016" cy="6.49961" r="0.9" fill="currentColor"/><circle cx="17" cy="5" r="0.75" fill="currentColor"/><circle cx="17" cy="8" r="0.75" fill="currentColor"/><circle cx="14.0016" cy="9.74961" r="0.9" fill="currentColor"/><circle cx="14.0016" cy="12.9996" r="0.9" fill="currentColor"/><circle cx="17" cy="13" r="0.75" fill="currentColor"/><circle cx="20" cy="16.5" r="0.75" fill="currentColor"/><circle cx="14.0016" cy="16.4996" r="0.9" fill="currentColor"/><circle cx="17.0016" cy="16.4996" r="0.9" fill="currentColor"/><circle cx="14.0016" cy="19.9996" r="0.9" fill="currentColor"/><circle cx="17.0016" cy="19.9996" r="0.9" fill="currentColor"/><circle cx="20" cy="20" r="0.75" fill="currentColor"/></g></svg>