<svg width="24px" height="24px" viewBox="0 0 24 24" fill="currentColor" xmlns="http://www.w3.org/2000/svg"><g><path d="M11.9998 10C11.0037 10 9.93207 10.577 9.00371 11.3206C8.04675 12.087 7.11832 13.1292 6.39907 14.2638C5.68368 15.3924 5.14215 16.665 5.02391 17.8938C4.90345 19.1457 5.22511 20.3947 6.28684 21.3118C7.06177 21.9812 7.89763 22.12 8.68801 21.9088C9.4135 21.7149 10.0474 21.2406 10.5432 20.8124L10.5706 20.7886L10.5957 20.7624C10.86 20.4852 11.3783 20.2827 12.0168 20.2827C12.6484 20.2827 13.2307 20.4826 13.5779 20.7991L13.5853 20.8058L13.5929 20.8124C14.0694 21.2241 14.673 21.7076 15.368 21.9055C16.147 22.1274 16.9504 21.9703 17.7127 21.3118C18.7745 20.3947 19.0961 19.1457 18.9757 17.8938C18.8574 16.665 18.3159 15.3924 17.6005 14.2638C16.8813 13.1292 15.9528 12.087 14.9959 11.3206C14.0675 10.577 12.9959 10 11.9998 10Z" fill="currentColor"/><path d="M8.92221 2.0017C8.08153 1.96652 7.43487 2.48098 7.04809 3.11307C6.66027 3.74687 6.4692 4.57901 6.50404 5.45672C6.53897 6.33648 6.79667 7.1673 7.21551 7.80428C7.62495 8.42695 8.26406 8.96436 9.07776 8.99841C9.91845 9.03359 10.5651 8.51913 10.9519 7.88704C11.3397 7.25324 11.5308 6.4211 11.4959 5.5434C11.461 4.66364 11.2033 3.83281 10.7845 3.19584C10.375 2.57316 9.73591 2.03576 8.92221 2.0017Z" fill="currentColor"/><path d="M17.4959 5.45672C17.5308 4.57901 17.3397 3.74687 16.9519 3.11307C16.5651 2.48098 15.9184 1.96652 15.0778 2.0017C14.2641 2.03576 13.625 2.57316 13.2155 3.19584C12.7967 3.83281 12.539 4.66364 12.504 5.5434C12.4692 6.4211 12.6603 7.25324 13.0481 7.88704C13.4349 8.51913 14.0815 9.03359 14.9222 8.99841C15.7359 8.96436 16.375 8.42695 16.7845 7.80428C17.2033 7.1673 17.461 6.33648 17.4959 5.45672Z" fill="currentColor"/><path d="M6.90959 8.84499C6.74428 8.03297 6.36893 7.3049 5.86251 6.78687C5.36325 6.27617 4.66017 5.90321 3.88051 6.02229C3.08675 6.14351 2.54755 6.7224 2.26783 7.3789C1.9876 8.03663 1.92525 8.84482 2.09033 9.65576C2.25564 10.4678 2.631 11.1958 3.13742 11.7139C3.63668 12.2246 4.33976 12.5975 5.11941 12.4785C5.91317 12.3572 6.45237 11.7783 6.73209 11.1218C7.01233 10.4641 7.07467 9.65593 6.90959 8.84499Z" fill="currentColor"/><path d="M20.1194 6.02229C19.3398 5.90321 18.6367 6.27617 18.1374 6.78687C17.631 7.3049 17.2556 8.03297 17.0903 8.84499C16.9252 9.65593 16.9876 10.4641 17.2678 11.1218C17.5475 11.7783 18.0868 12.3572 18.8805 12.4785C19.6602 12.5975 20.3632 12.2246 20.8625 11.7139C21.3689 11.1958 21.7443 10.4678 21.9096 9.65576C22.0747 8.84482 22.0123 8.03663 21.7321 7.3789C21.4524 6.7224 20.9132 6.14351 20.1194 6.02229Z" fill="currentColor"/></g></svg>