<svg width="24px" height="24px" viewBox="0 0 24 24" fill="currentColor" xmlns="http://www.w3.org/2000/svg"><g><path fill-rule="evenodd" clip-rule="evenodd" d="M13.749 3C15.8201 3 17.499 4.67893 17.499 6.75V17.25C17.499 19.3211 15.8201 21 13.749 21H10.249C8.17796 21 6.49902 19.3211 6.49902 17.25V6.75C6.49902 4.67893 8.17796 3 10.249 3H13.749ZM11.249 4.5C10.8348 4.5 10.499 4.83579 10.499 5.25C10.499 5.66421 10.8348 6 11.249 6H12.749C13.1632 6 13.499 5.66421 13.499 5.25C13.499 4.83579 13.1632 4.5 12.749 4.5H11.249Z" fill="currentColor"/><path d="M4.41211 15.4443C4.77226 15.2403 5.23022 15.3665 5.43457 15.7266C5.63866 16.0866 5.51216 16.5445 5.15234 16.749L3.33691 17.7793C2.97675 17.9836 2.51893 17.8571 2.31445 17.4971C2.11005 17.1368 2.23647 16.6791 2.59668 16.4746L4.41211 15.4443Z" fill="currentColor"/><path d="M18.5645 15.7266C18.7689 15.3664 19.2267 15.24 19.5869 15.4443L21.4023 16.4746C21.762 16.6792 21.8888 17.1371 21.6846 17.4971C21.4802 17.8569 21.0222 17.983 20.6621 17.7793L18.8467 16.749C18.4865 16.5446 18.3602 16.0868 18.5645 15.7266Z" fill="currentColor"/><path d="M4.24902 11.25C4.66324 11.25 4.99902 11.5858 4.99902 12C4.99902 12.4142 4.66324 12.75 4.24902 12.75H1.86328C1.44907 12.75 1.11328 12.4142 1.11328 12C1.11328 11.5858 1.44907 11.25 1.86328 11.25H4.24902Z" fill="currentColor"/><path d="M22.1348 11.25C22.549 11.25 22.8848 11.5858 22.8848 12C22.8848 12.4142 22.549 12.75 22.1348 12.75H19.749C19.3348 12.75 18.999 12.4142 18.999 12C18.999 11.5858 19.3348 11.25 19.749 11.25H22.1348Z" fill="currentColor"/><path d="M2.31445 6.50293C2.51894 6.14285 2.97675 6.01635 3.33691 6.2207L5.15234 7.25098C5.51216 7.45548 5.63868 7.91339 5.43457 8.27344C5.23023 8.63347 4.77225 8.75964 4.41211 8.55566L2.59668 7.52539C2.23648 7.32095 2.11007 6.86315 2.31445 6.50293Z" fill="currentColor"/><path d="M20.6621 6.22168C21.0223 6.0176 21.4802 6.14383 21.6846 6.50391C21.8883 6.86393 21.7621 7.32199 21.4023 7.52637L19.5869 8.55664C19.2269 8.76089 18.7691 8.63417 18.5645 8.27441C18.36 7.91419 18.4865 7.4564 18.8467 7.25195L20.6621 6.22168Z" fill="currentColor"/></g></svg>