<svg width="24px" height="24px" viewBox="0 0 24 24" fill="currentColor" xmlns="http://www.w3.org/2000/svg"><g><path d="M8.31854 16.0308C8.21541 15.3579 7.93182 14.8114 7.24346 14.5471C6.97405 14.4439 6.74073 14.2557 6.47518 14.1371C6.17354 14.0018 5.86674 13.8729 5.54834 13.7891C5.30729 13.7246 5.08299 13.8329 4.9399 14.0443C4.80455 14.2428 4.90252 14.4298 5.01596 14.596C5.14358 14.783 5.28537 14.9609 5.42846 15.1362C5.66565 15.4275 5.91701 15.7072 6.14776 16.0025C6.36819 16.2848 6.55639 16.598 6.52416 16.9718C6.45326 17.7917 6.08201 18.4711 5.48389 19.024C5.41815 19.0833 5.30213 19.1259 5.21705 19.1181C4.83549 19.0769 4.48873 18.9325 4.209 18.6657C3.88803 18.3602 3.93701 18.0005 4.32115 17.7775C4.41268 17.7246 4.50807 17.6757 4.59186 17.6112C4.82647 17.4346 4.9051 17.133 4.77748 16.8713C4.7169 16.745 4.64858 16.6083 4.54803 16.5168C4.0569 16.0695 3.57474 15.608 3.04881 15.2007C1.77388 14.2106 1.11908 12.901 1.01849 11.3154C0.90505 9.55448 1.31368 7.91092 2.2431 6.40654C2.59501 5.83549 3.00493 5.29146 3.634 5.0092C4.06197 4.81713 4.53118 4.70885 4.98885 4.58896C6.2483 4.25767 7.51928 4.00888 8.8303 4.2306C9.95952 4.4201 10.7858 5.00146 11.1648 6.11135C11.4136 6.83709 11.4729 7.58732 11.3956 8.35565C11.2435 9.86518 10.1284 11.2148 8.67432 11.6144C8.04397 11.7872 7.69979 11.6905 7.3208 11.1658C7.04881 10.7882 6.82323 10.3769 6.57959 9.97858C6.5435 9.91928 6.51772 9.85096 6.48678 9.7878C6.45713 9.72463 6.4249 9.66405 6.39397 9.60088C6.48549 10.2557 6.6376 10.8861 6.99467 11.4481C7.18803 11.7536 7.44584 11.9792 7.82354 12.0127C9.21315 12.1378 10.3862 11.6814 11.219 10.5638C12.151 9.31334 12.356 7.87474 12.0865 6.36009C12.0337 6.06103 11.9447 5.76841 11.8816 5.47064C11.839 5.27857 11.9151 5.13677 12.1046 5.06974C12.1922 5.04009 12.2825 5.0156 12.3701 4.99755C13.5071 4.75263 14.6569 4.67142 15.8158 4.78873C17.1307 4.92021 18.3746 5.28115 19.4871 6.01209C21.2287 7.15807 22.3076 8.78877 22.8941 10.7611C22.9792 11.0473 22.9921 11.3605 22.9999 11.6622C23.005 11.8633 22.8761 11.9161 22.7227 11.7898C22.5538 11.6519 22.3991 11.4946 22.2535 11.3322C22.1181 11.1788 22.0099 11.0035 21.8784 10.8423C21.7765 10.716 21.6876 10.7353 21.6386 10.8926C21.6077 10.988 21.5806 11.0821 21.5535 11.1775C21.2493 12.2629 20.7698 13.2529 19.9925 14.087C19.8842 14.2043 19.7875 14.3783 19.7746 14.533C19.7411 14.9609 19.7166 15.3979 19.7579 15.8246C19.8429 16.7412 19.9757 17.6538 20.0788 18.5691C20.1368 19.086 19.9706 19.3902 19.4846 19.5694C19.143 19.6945 18.7769 19.786 18.4159 19.8118C17.841 19.8517 17.2609 19.8234 16.6834 19.8234C16.668 19.1788 16.7234 18.5459 16.1175 18.2004C16.2348 17.7222 16.3702 17.2684 16.4514 16.8043C16.5184 16.4189 16.4617 16.0399 16.191 15.7241C15.9371 15.4263 15.6187 15.3451 15.3273 15.5153C14.4495 16.027 13.5368 16.0296 12.6073 15.6945C12.1807 15.5398 11.8829 15.6274 11.6469 16.0167C11.393 16.4357 11.286 16.9062 11.3144 17.3819C11.3505 17.9813 11.4549 18.5743 11.5348 19.1711C11.5786 19.505 11.5412 19.5913 11.21 19.6764C10.4739 19.8633 9.72495 19.884 8.97209 19.8234C8.93213 19.8195 8.89217 19.8027 8.86639 19.7963C8.82901 19.1711 8.89475 18.5214 8.14967 18.1888C8.47967 17.4888 8.43455 16.7631 8.32112 16.0373L8.31854 16.0309V16.0308ZM3.86865 13.5777C3.97822 13.4746 4.06588 13.3135 4.09681 13.1652C4.17416 12.794 3.89572 12.2964 3.57345 12.1585C3.40201 12.0837 3.25248 12.1108 3.13131 12.2474C2.83611 12.5813 2.54478 12.919 2.2547 13.2581C2.20572 13.3161 2.16189 13.3844 2.12708 13.4527C2.01107 13.6757 2.07939 13.8382 2.32689 13.8987C2.47642 13.9361 2.63111 13.9439 2.7845 13.9658C3.18411 13.9271 3.57083 13.8601 3.86861 13.5791V13.5778L3.86865 13.5777ZM3.90216 9.86647C3.90088 9.60093 3.67916 9.37921 3.41748 9.37792C3.14806 9.37663 2.91603 9.61768 2.92506 9.88323C2.93666 10.1501 3.15838 10.3641 3.42392 10.3589C3.69205 10.355 3.90603 10.1359 3.90345 9.86776L3.90216 9.86647Z" fill="currentColor"/></g></svg>