<svg width="24px" height="24px" viewBox="0 0 24 24" fill="currentColor" xmlns="http://www.w3.org/2000/svg"><g><path d="M5.99734 10.2705L5.58634 12.7363H6.57269C7.31238 12.6541 7.96994 12.4075 8.05206 11.0102C8.05206 10.5171 7.64116 10.2705 7.06581 10.2705H5.99734Z" fill="currentColor"/><path d="M17.011 10.2705L16.6 12.7363H17.5864C18.3261 12.6541 18.9837 12.4075 19.0658 11.0102C19.0658 10.5171 18.6549 10.2705 18.0796 10.2705H17.011Z" fill="currentColor"/><path fill-rule="evenodd" clip-rule="evenodd" d="M24 11.9966C24 15.4464 18.6274 18.2431 12 18.2431C5.37258 18.2431 0 15.4464 0 11.9966C0 8.54668 5.37258 5.75 12 5.75C18.6274 5.75 24 8.54668 24 11.9966ZM4.68231 9.03759L3.36719 15.6952H4.92887L5.25766 13.9691H6.73694C8.13428 14.0513 9.69588 12.9007 9.69588 10.9281C9.69588 9.77728 9.03831 9.11981 7.72328 9.03759H4.68231ZM10.7054 7.31166L9.39034 13.9691H10.952L11.6917 10.2705H12.9246C13.4999 10.2705 13.4999 10.5171 13.4178 10.9281L12.8424 13.9691H14.4862L15.0616 10.5993C15.2259 9.77728 14.7328 9.11981 13.4177 9.03759H11.9383L12.2671 7.31166H10.7054ZM15.696 9.03759L14.3809 15.6952H15.9425L16.2713 13.9691H17.7508C19.148 14.0513 20.7097 12.9007 20.7097 10.9281C20.7097 9.77728 20.0522 9.11981 18.737 9.03759H15.696Z" fill="currentColor"/></g></svg>