<svg width="24px" height="24px" viewBox="0 0 24 24" fill="currentColor" xmlns="http://www.w3.org/2000/svg"><g><path fill-rule="evenodd" clip-rule="evenodd" d="M9.81814 3.17532C10.4418 3.06617 11.1506 3.00356 11.8928 3.00015C12.635 2.99674 13.4089 3.05252 14.1547 3.17532C15.333 3.36955 16.3256 4.24376 16.3256 5.40752V9.49655C16.3256 10.6956 15.3619 11.6787 14.1547 11.6787H9.81814C8.34576 11.6787 7.10586 12.929 7.10586 14.3463V16.3083H5.6131C4.35129 16.3083 3.61426 15.4024 3.30564 14.1311C2.88933 12.4232 2.90701 11.4025 3.30564 9.76682C3.65123 8.33981 4.75611 7.58967 6.01792 7.58967H11.989V7.04414H7.64731V5.40752C7.64731 4.16832 7.98088 3.49636 9.81814 3.17532ZM10.3596 5.13725C10.3596 4.68459 9.99335 4.31645 9.54489 4.31645C9.09482 4.31645 8.73019 4.68459 8.73019 5.13725C8.73019 5.58831 9.09482 5.95306 9.54489 5.95306C9.99335 5.95306 10.3596 5.58831 10.3596 5.13725Z" fill="currentColor"/><path fill-rule="evenodd" clip-rule="evenodd" d="M16.8668 9.49643V7.58955H18.4961C19.7596 7.58955 20.3551 8.52428 20.667 9.7667C21.101 11.4923 21.1203 12.7859 20.667 14.131C20.2282 15.4376 19.7579 16.3082 18.4961 16.3082H11.9887V16.8537H16.3253V18.4903C16.3253 19.7295 15.2475 20.3594 14.1545 20.6725C12.5101 21.1444 11.1922 21.0721 9.81787 20.6725C8.67019 20.3386 7.64704 19.6541 7.64704 18.4903V14.4013C7.64704 13.2247 8.63 12.2191 9.81787 12.2191H14.1545C15.5995 12.2191 16.8668 10.9748 16.8668 9.49643ZM15.2424 18.7606C15.2424 18.3095 14.8778 17.9448 14.4277 17.9448C13.9793 17.9448 13.613 18.3095 13.613 18.7606C13.613 19.2132 13.9793 19.5814 14.4277 19.5814C14.8778 19.5814 15.2424 19.2132 15.2424 18.7606Z" fill="currentColor"/></g></svg>