<svg width="24px" height="24px" viewBox="0 0 24 24" fill="currentColor" xmlns="http://www.w3.org/2000/svg"><g><path fill-rule="evenodd" clip-rule="evenodd" d="M12 22C17.5228 22 22 17.5228 22 12C22 6.47715 17.5228 2 12 2C6.47715 2 2 6.47715 2 12C2 17.5228 6.47715 22 12 22ZM11 7.9999C11 8.60742 10.5075 9.0999 9.9 9.0999C9.29249 9.0999 8.8 8.60742 8.8 7.9999C8.8 7.39239 9.29249 6.8999 9.9 6.8999C10.5075 6.8999 11 7.39239 11 7.9999ZM13.0999 12C13.0999 12.6075 12.6074 13.1 11.9999 13.1C11.3924 13.1 10.8999 12.6075 10.8999 12C10.8999 11.3925 11.3924 10.9 11.9999 10.9C12.6074 10.9 13.0999 11.3925 13.0999 12ZM9.9 17.0999C10.5075 17.0999 11 16.6074 11 15.9999C11 15.3924 10.5075 14.8999 9.9 14.8999C9.29249 14.8999 8.8 15.3924 8.8 15.9999C8.8 16.6074 9.29249 17.0999 9.9 17.0999ZM15.2 7.9999C15.2 8.60742 14.7075 9.0999 14.1 9.0999C13.4925 9.0999 13 8.60742 13 7.9999C13 7.39239 13.4925 6.8999 14.1 6.8999C14.7075 6.8999 15.2 7.39239 15.2 7.9999ZM14.1 17.0999C14.7075 17.0999 15.2 16.6074 15.2 15.9999C15.2 15.3924 14.7075 14.8999 14.1 14.8999C13.4925 14.8999 13 15.3924 13 15.9999C13 16.6074 13.4925 17.0999 14.1 17.0999ZM8.3499 12C8.3499 12.6075 7.85742 13.1 7.2499 13.1C6.64239 13.1 6.1499 12.6075 6.1499 12C6.1499 11.3925 6.64239 10.9 7.2499 10.9C7.85742 10.9 8.3499 11.3925 8.3499 12ZM16.745 13.1C17.3525 13.1 17.845 12.6075 17.845 12C17.845 11.3925 17.3525 10.9 16.745 10.9C16.1375 10.9 15.645 11.3925 15.645 12C15.645 12.6075 16.1375 13.1 16.745 13.1Z" fill="currentColor"/></g></svg>