<svg width="24px" height="24px" viewBox="0 0 24 24" fill="currentColor" xmlns="http://www.w3.org/2000/svg"><g><path d="M3.5 7.75C3.5 6.50736 4.50736 5.5 5.75 5.5H16.25C17.4926 5.5 18.5 6.50736 18.5 7.75V11.25C18.5 11.6642 18.8358 12 19.25 12C19.6642 12 20 11.6642 20 11.25V7.75C20 5.67893 18.3211 4 16.25 4H5.75C3.67893 4 2 5.67893 2 7.75V14.25C2 16.3211 3.67893 18 5.75 18H9.25C9.66421 18 10 17.6642 10 17.25C10 16.8358 9.66421 16.5 9.25 16.5H5.75C4.50736 16.5 3.5 15.4926 3.5 14.25V7.75Z" fill="currentColor"/><path d="M14.75 14C13.2312 14 12 15.2312 12 16.75V18.25C12 19.7688 13.2312 21 14.75 21H19.25C20.7688 21 22 19.7688 22 18.25V16.75C22 15.2312 20.7688 14 19.25 14H14.75Z" fill="currentColor"/></g></svg>