<svg width="24px" height="24px" viewBox="0 0 24 24" fill="currentColor" xmlns="http://www.w3.org/2000/svg"><g><path d="M11.25 12C11.25 12.0197 11.2533 12.0391 11.2549 12.0586C11.2568 12.0832 11.2573 12.1082 11.2617 12.1328L11.2646 12.1475C11.2652 12.1504 11.266 12.1533 11.2666 12.1562C11.2754 12.1972 11.2876 12.2381 11.3037 12.2783C11.307 12.2866 11.3109 12.2946 11.3145 12.3027C11.3523 12.3886 11.4042 12.4641 11.4668 12.5273L18.5186 19.5791C16.7678 21.0863 14.4914 22 12 22C6.47715 22 2 17.5228 2 12C2 6.72951 6.07754 2.41389 11.25 2.03027V12Z" fill="currentColor"/><path d="M21.5391 8.99121C21.8383 9.94084 22 10.9515 22 12C22 14.4914 21.0863 16.7678 19.5791 18.5186L13.334 12.2734L21.5391 8.99121Z" fill="currentColor"/><path d="M12.75 2.03027C16.3725 2.29894 19.4567 4.49565 20.9805 7.59961L12.75 10.8916V2.03027Z" fill="currentColor"/></g></svg>