<svg width="24px" height="24px" viewBox="0 0 24 24" fill="currentColor" xmlns="http://www.w3.org/2000/svg"><g><path fill-rule="evenodd" clip-rule="evenodd" d="M6.90492 3.13971C5.79221 2.88901 5 3.83059 5 4.74986V6.98518C5 7.04618 4.97304 7.13131 4.89392 7.21579C4.45772 7.68154 4.0843 8.20722 3.78735 8.7794C3.70395 8.94011 3.57392 8.99987 3.48534 8.99987H2.75C1.7835 8.99987 1 9.78337 1 10.7499V13.2499C1 14.2164 1.7835 14.9999 2.75 14.9999H3.48534C3.57392 14.9999 3.70395 15.0596 3.78735 15.2203C4.0843 15.7925 4.45772 16.3182 4.89392 16.7839C4.97303 16.8684 5 16.9535 5 17.0145V19.2499C5 20.2164 5.7835 20.9999 6.75 20.9999H9.25C10.2165 20.9999 11 20.2164 11 19.2499C11 19.1118 11.1119 18.9999 11.25 18.9999H12.75C12.8881 18.9999 13 19.1118 13 19.2499C13 20.2164 13.7835 20.9999 14.75 20.9999H17.25C18.2165 20.9999 19 20.2164 19 19.2499V17.023C19 16.9619 19.0271 16.8766 19.1065 16.792C19.4265 16.4514 19.7128 16.0787 19.9602 15.679C20.3448 15.8836 20.7839 15.9999 21.25 15.9999C22.7688 15.9999 24 14.7686 24 13.2499C24 12.6003 23.7738 12.0014 23.3965 11.5308C23.1374 11.2076 22.6654 11.1556 22.3422 11.4147C22.0191 11.6738 21.9671 12.1458 22.2262 12.469C22.3978 12.6831 22.5 12.9535 22.5 13.2499C22.5 13.9402 21.9404 14.4999 21.25 14.4999C21.0156 14.4999 20.7965 14.4357 20.6089 14.3234C20.8649 13.5956 21.004 12.8133 21.004 11.9999C21.004 8.13387 17.87 4.99987 14.004 4.99987H10.1402C9.06657 3.84754 7.82595 3.34722 6.90492 3.13971ZM8.25 11.9998C8.94036 11.9998 9.5 11.4401 9.5 10.7498C9.5 10.0594 8.94036 9.49976 8.25 9.49976C7.55964 9.49976 7 10.0594 7 10.7498C7 11.4401 7.55964 11.9998 8.25 11.9998Z" fill="currentColor"/></g></svg>