<svg width="24px" height="24px" viewBox="0 0 24 24" fill="currentColor" xmlns="http://www.w3.org/2000/svg"><g><path d="M4.80556 3C3.25371 3 2 4.26159 2 5.8125C2 6.36723 2.11733 6.94227 2.21616 7.42659C2.23565 7.52209 2.25442 7.61408 2.27142 7.70168C2.38451 8.28418 2.43699 8.73348 2.35205 9.12795C2.15083 10.0624 2 11.0688 2 12C2 12.9312 2.15083 13.9376 2.35205 14.8721C2.43699 15.2665 2.38451 15.7158 2.27142 16.2983C2.25442 16.3859 2.23565 16.4779 2.21616 16.5734C2.11733 17.0577 2 17.6328 2 18.1875C2 19.7384 3.25371 21 4.80556 21C5.40225 21 6.01571 20.8576 6.52728 20.7389C6.6157 20.7184 6.7011 20.6986 6.78282 20.6804C7.39153 20.5444 7.85568 20.4765 8.26444 20.5603C9.46273 20.8059 10.788 21 12 21C13.212 21 14.5373 20.8059 15.7356 20.5603C16.1443 20.4765 16.6085 20.5444 17.2172 20.6804C17.2989 20.6986 17.3843 20.7184 17.4727 20.7389C17.9843 20.8576 18.5978 21 19.1945 21C20.7463 21 22 19.7384 22 18.1875C22 17.6328 21.8827 17.0577 21.7839 16.5734C21.7644 16.4779 21.7456 16.3859 21.7286 16.2983C21.6155 15.7158 21.563 15.2665 21.648 14.872C21.8492 13.9375 22 12.9312 22 12C22 11.0688 21.8492 10.0624 21.6479 9.12795C21.563 8.73348 21.6155 8.28418 21.7286 7.70168C21.7456 7.61408 21.7644 7.5221 21.7838 7.42659C21.8827 6.94227 22 6.36723 22 5.8125C22 4.26159 20.7463 3 19.1944 3C18.5954 3 17.9796 3.14384 17.4664 3.26372C17.3779 3.28439 17.2925 3.30434 17.2107 3.32272C16.6001 3.46 16.135 3.52863 15.7254 3.44439C14.5217 3.1968 13.1948 3 12 3C10.8052 3 9.4783 3.1968 8.27459 3.44439C7.86504 3.52863 7.3999 3.46 6.78929 3.32272C6.70753 3.30434 6.62212 3.28439 6.53366 3.26373C6.02043 3.14385 5.40462 3 4.80556 3Z" fill="currentColor"/></g></svg>