<svg width="24px" height="24px" viewBox="0 0 24 24" fill="currentColor" xmlns="http://www.w3.org/2000/svg"><g><path d="M12.7506 2C14.8216 2.00014 16.5006 3.67902 16.5006 5.75V8.6377C18.3244 9.88109 19.6102 11.8589 19.9254 14.1504C20.0722 15.2177 19.1844 15.9999 18.2506 16H12.7496V20.3975C12.7496 20.4651 12.7363 20.5325 12.7096 20.5947L12.2301 21.7139C12.1435 21.9159 11.8567 21.9159 11.7701 21.7139L11.2907 20.5947C11.264 20.5325 11.2497 20.4651 11.2496 20.3975V16H5.75062C4.81685 15.9999 3.92899 15.2177 4.07581 14.1504C4.39119 11.8589 5.67686 9.88104 7.50062 8.6377V5.75C7.50062 3.679 9.17981 2.00023 11.2506 2H12.7506Z" fill="currentColor"/></g></svg>