<svg width="24px" height="24px" viewBox="0 0 24 24" fill="currentColor" xmlns="http://www.w3.org/2000/svg"><g><path d="M13.414 8.08564C12.633 7.30459 11.3671 7.3049 10.5854 8.0859C9.80483 8.86573 9.80476 10.1327 10.5859 10.9146C11.3656 11.6952 12.6324 11.6952 13.4142 10.9141C14.1951 10.1339 14.1955 8.86719 13.414 8.08564Z" fill="currentColor"/><path fill-rule="evenodd" clip-rule="evenodd" d="M12 2C6.47715 2 2 6.47715 2 12C2 17.5228 6.47715 22 12 22C17.5228 22 22 17.5228 22 12C22 6.47715 17.5228 2 12 2ZM9.52518 7.02476C10.8919 5.65927 13.1072 5.65747 14.4747 7.02502C15.8416 8.39206 15.842 10.6089 14.4744 11.9752C13.9831 12.4661 13.382 12.7807 12.75 12.9189V17.25C12.75 17.6642 12.4142 18 12 18C11.5858 18 11.25 17.6642 11.25 17.25V12.9194C10.6177 12.7815 10.0162 12.4668 9.52466 11.9747C8.15944 10.6081 8.15727 8.39143 9.52518 7.02476Z" fill="currentColor"/></g></svg>