<svg width="24px" height="24px" viewBox="0 0 24 24" fill="currentColor" xmlns="http://www.w3.org/2000/svg"><g><path d="M12 2C6.47447 2 2 6.47784 2 12.0075C2 16.2449 4.62763 19.8663 8.35135 21.3238C8.26126 20.5274 8.18619 19.3253 8.38138 18.4538C8.56156 17.6724 9.55255 13.4801 9.55255 13.4801C9.55255 13.4801 9.25225 12.879 9.25225 11.9925C9.25225 10.595 10.0631 9.55823 11.0541 9.55823C11.9099 9.55823 12.3153 10.2044 12.3153 10.9707C12.3153 11.8272 11.7748 13.1195 11.4895 14.3065C11.2492 15.2983 11.985 16.1097 12.976 16.1097C14.7477 16.1097 16.1141 14.2314 16.1141 11.5267C16.1141 9.13749 14.3874 7.45455 11.9399 7.45455C9.1021 7.45455 7.42042 9.58828 7.42042 11.7971C7.42042 12.6536 7.75075 13.5853 8.17117 14.0811C8.24625 14.1863 8.26126 14.2615 8.24625 14.3666C8.17117 14.6822 8.00601 15.3584 7.97598 15.4936C7.93093 15.6739 7.82583 15.719 7.64565 15.6288C6.3994 15.0428 5.61862 13.2246 5.61862 11.7521C5.61862 8.59654 7.91592 5.69647 12.2252 5.69647C15.6937 5.69647 18.3814 8.17581 18.3814 11.4666C18.3814 14.9076 16.2042 17.6875 13.2012 17.6875C12.1952 17.6875 11.2342 17.1615 10.9039 16.5455C10.9039 16.5455 10.4084 18.4538 10.2883 18.9196C10.0631 19.7911 9.44745 20.873 9.04204 21.5492C9.97297 21.8347 10.964 22 12 22C17.5255 22 22 17.5222 22 11.9925C22 6.47784 17.5255 2 12 2Z" fill="currentColor"/></g></svg>