<svg width="24px" height="24px" viewBox="0 0 24 24" fill="currentColor" xmlns="http://www.w3.org/2000/svg"><g><path fill-rule="evenodd" clip-rule="evenodd" d="M9.217 19.3175L12.8167 20.5261V7.44851C12.8167 6.99476 13.1234 6.44751 13.4891 6.44751C13.9539 6.44751 14.2481 7.08001 14.2481 7.44989V12.3793C14.5451 12.5525 15.2422 12.899 15.6506 12.899H15.6823C16.2378 12.9004 18.1765 12.9059 18.1765 9.94964C18.1765 6.93564 16.5856 5.79714 15.2587 5.36401L9.217 3.47476V19.3175ZM8.21737 18.4141V16.6775C7.37862 16.9896 6.61 17.2413 6.137 17.3155C5.24738 17.453 4.28075 17.3526 4.40175 16.8466C4.50487 16.4135 6.71175 15.6449 8.21737 15.1678V13.1919C5.36287 14.0829 1 15.5899 1 16.595C1 18.0168 4.3385 18.443 5.12088 18.4898C5.57738 18.5173 6.84512 18.5626 8.21737 18.4141ZM23 15.9804C23 16.9388 17.1439 19.125 13.8177 20.2346V18.1666C15.4389 17.5782 17.0551 16.9759 18.666 16.3599C19.8499 15.8855 20.063 15.5775 19.4951 15.3176C19.128 15.1485 18.3346 15.1086 17.6485 15.3176C16.362 15.7263 15.0847 16.1636 13.8177 16.6294V14.6535C15.08 14.3098 16.4234 14.0348 17.5055 13.9908C19.623 13.9083 23 14.725 23 15.9804Z" fill="currentColor"/></g></svg>