<svg width="24px" height="24px" viewBox="0 0 24 24" fill="currentColor" xmlns="http://www.w3.org/2000/svg"><g><path d="M22.0039 4.75C22.0039 4.33579 21.6681 4 21.2539 4C20.8397 4 20.5039 4.33579 20.5039 4.75V14.1499C19.8593 13.7351 19.0676 13.5 18.2539 13.5C16.3167 13.5 14.5039 14.8328 14.5039 16.75C14.5039 18.6672 16.3167 20 18.2539 20C20.1911 20 22.0039 18.6672 22.0039 16.75V4.75Z" fill="currentColor"/><path d="M2.75 5C2.33579 5 2 5.33579 2 5.75C2 6.16421 2.33579 6.5 2.75 6.5H16.26C16.6742 6.5 17.01 6.16421 17.01 5.75C17.01 5.33579 16.6742 5 16.26 5H2.75Z" fill="currentColor"/><path d="M2.75 11.25C2.33579 11.25 2 11.5858 2 12C2 12.4142 2.33579 12.75 2.75 12.75H11.25C11.6642 12.75 12 12.4142 12 12C12 11.5858 11.6642 11.25 11.25 11.25H2.75Z" fill="currentColor"/><path d="M2.75 17.5C2.33579 17.5 2 17.8358 2 18.25C2 18.6642 2.33579 19 2.75 19H9.25C9.66421 19 10 18.6642 10 18.25C10 17.8358 9.66421 17.5 9.25 17.5H2.75Z" fill="currentColor"/></g></svg>