<svg width="24px" height="24px" viewBox="0 0 24 24" fill="currentColor" xmlns="http://www.w3.org/2000/svg"><g><path d="M19.0715 4.92893C15.1662 1.02369 8.83414 1.02369 4.92889 4.92893C1.14565 8.71217 1.02754 14.7729 4.5744 18.6985L4.92889 19.0715L4.98651 19.1223C5.28099 19.3625 5.71484 19.3458 5.98944 19.0715C6.26403 18.7969 6.28148 18.3622 6.0412 18.0676L5.98944 18.011L5.68866 17.6936C2.67372 14.3569 2.77365 9.20527 5.98944 5.98948C9.3089 2.67002 14.6915 2.67002 18.0109 5.98948C21.3304 9.30894 21.3304 14.6915 18.0109 18.011C17.718 18.3039 17.718 18.7786 18.0109 19.0715C18.3038 19.3641 18.7787 19.3643 19.0715 19.0715C22.9767 15.1663 22.9767 8.83418 19.0715 4.92893Z" fill="currentColor"/><path d="M16.0002 13.5002C16.0002 15.4529 14.6007 17.0778 12.7502 17.4289V19.5002H14.2502C14.6644 19.5002 15.0002 19.836 15.0002 20.2502C15.0002 20.6644 14.6644 21.0002 14.2502 21.0002H9.75018C9.33597 21.0002 9.00018 20.6644 9.00018 20.2502C9.00018 19.836 9.33597 19.5002 9.75018 19.5002H11.2502V17.4289C9.39964 17.0778 8.00018 15.4529 8.00018 13.5002V11.0002C8.00018 8.79108 9.79104 7.00022 12.0002 7.00022C14.2093 7.00022 16.0002 8.79108 16.0002 11.0002V13.5002Z" fill="currentColor"/></g></svg>