<svg width="24px" height="24px" viewBox="0 0 24 24" fill="currentColor" xmlns="http://www.w3.org/2000/svg"><g><path d="M21.9719 12.75H15.7596C15.4109 14.508 13.8601 15.8333 11.9996 15.8333C10.1392 15.8333 8.58835 14.508 8.23965 12.75H2.02734C2.41085 17.9226 6.72907 22 11.9996 22C17.2702 22 21.5884 17.9226 21.9719 12.75Z" fill="currentColor"/><path d="M21.9719 11.25H15.7596C15.4109 9.49194 13.8601 8.16663 11.9996 8.16663C10.1392 8.16663 8.58835 9.49194 8.23964 11.25H2.02734C2.41089 6.07743 6.7291 2 11.9996 2C17.2702 2 21.5884 6.07743 21.9719 11.25Z" fill="currentColor"/><path d="M9.66797 12.0003C9.66797 10.7117 10.7126 9.66699 12.0013 9.66699C13.29 9.66699 14.3346 10.7117 14.3346 12.0003C14.3346 13.289 13.29 14.3337 12.0013 14.3337C10.7126 14.3337 9.66797 13.289 9.66797 12.0003Z" fill="currentColor"/></g></svg>