<svg width="24px" height="24px" viewBox="0 0 24 24" fill="currentColor" xmlns="http://www.w3.org/2000/svg"><g><path fill-rule="evenodd" clip-rule="evenodd" d="M5.00002 7.75C5.00002 4.02208 8.0221 1 11.75 1H12.25C15.9779 1 19 4.02208 19 7.75V14.25C19 16.3211 17.3211 18 15.25 18H14.5V20.5C14.5 21.8807 13.3807 23 12 23C10.6193 23 9.50002 21.8807 9.50002 20.5V18H8.75002C6.67895 18 5.00002 16.3211 5.00002 14.25V12.7393C4.99999 12.7357 4.99999 12.7322 5.00002 12.7286V7.75ZM6.50002 13.0123V14.25C6.50002 15.4926 7.50738 16.5 8.75002 16.5H15.25C16.4927 16.5 17.5 15.4926 17.5 14.25V11.007C16.943 11.3852 16.2247 11.8119 15.5591 12.0006C14.1539 12.3992 13.0262 12.0121 12.1016 11.6499C12.0234 11.6193 11.9471 11.5891 11.8725 11.5596C11.0275 11.2257 10.3994 10.9775 9.65108 11.0687C8.50104 11.2089 7.37366 12.0267 6.50002 13.0123ZM11 18V20.5C11 21.0523 11.4477 21.5 12 21.5C12.5523 21.5 13 21.0523 13 20.5V18H11Z" fill="currentColor"/></g></svg>