<svg width="24px" height="24px" viewBox="0 0 24 24" fill="currentColor" xmlns="http://www.w3.org/2000/svg"><g><path fill-rule="evenodd" clip-rule="evenodd" d="M2 7.75C2 5.67893 3.67893 4 5.75 4H18.25C20.3211 4 22 5.67893 22 7.75V16.25C22 18.3211 20.3211 20 18.25 20H5.75C3.67893 20 2 18.3211 2 16.25V7.75ZM6 9.75C6 9.33579 6.33579 9 6.75 9H11.25C11.6642 9 12 9.33579 12 9.75C12 10.1642 11.6642 10.5 11.25 10.5H6.75C6.33579 10.5 6 10.1642 6 9.75ZM14 9.75C14 9.33579 14.3358 9 14.75 9H17.25C17.6642 9 18 9.33579 18 9.75V13.25C18 13.6642 17.6642 14 17.25 14H14.75C14.3358 14 14 13.6642 14 13.25V9.75ZM6 12.75C6 12.3358 6.33579 12 6.75 12H9.27C9.68421 12 10.02 12.3358 10.02 12.75C10.02 13.1642 9.68422 13.5 9.27 13.5H6.75C6.33579 13.5 6 13.1642 6 12.75Z" fill="currentColor"/></g></svg>