<svg width="24px" height="24px" viewBox="0 0 24 24" fill="currentColor" xmlns="http://www.w3.org/2000/svg"><g><path fill-rule="evenodd" clip-rule="evenodd" d="M2 7.75C2 5.67893 3.67893 4 5.75 4H18.25C20.3211 4 22 5.67893 22 7.75V16.25C22 18.3211 20.3211 20 18.25 20H5.75C3.67893 20 2 18.3211 2 16.25V7.75ZM13.75 9C12.7835 9 12 9.7835 12 10.75V13.25C12 14.2165 12.7835 15 13.75 15H16.25C17.2165 15 18 14.2165 18 13.25V10.75C18 9.7835 17.2165 9 16.25 9H13.75ZM6.75 9.25C6.33579 9.25 6 9.58579 6 10C6 10.4142 6.33579 10.75 6.75 10.75H9.25C9.66421 10.75 10 10.4142 10 10C10 9.58579 9.66421 9.25 9.25 9.25H6.75ZM6.75 13.25C6.33579 13.25 6 13.5858 6 14C6 14.4142 6.33579 14.75 6.75 14.75H9.25C9.66421 14.75 10 14.4142 10 14C10 13.5858 9.66421 13.25 9.25 13.25H6.75Z" fill="currentColor"/></g></svg>