<svg width="24px" height="24px" viewBox="0 0 24 24" fill="currentColor" xmlns="http://www.w3.org/2000/svg"><g><path d="M19.1564 10C20.9595 10 22.2754 11.7065 21.8166 13.4502L20.5646 18.2041C20.1311 19.8514 18.6421 20.9999 16.9386 21H7.06364C5.36027 20.9998 3.87117 19.8514 3.43766 18.2041L2.18571 13.4502C1.72688 11.7065 3.04287 10.0001 4.84587 10H19.1564Z" fill="currentColor"/><path d="M19.2511 6.5C19.6654 6.5 20.0011 6.83579 20.0011 7.25C20.0011 7.66421 19.6654 8 19.2511 8H4.75114C4.33701 7.9999 4.00114 7.66415 4.00114 7.25C4.00114 6.83585 4.33701 6.5001 4.75114 6.5H19.2511Z" fill="currentColor"/><path d="M17.2511 3C17.6654 3 18.0011 3.33579 18.0011 3.75C18.0011 4.16421 17.6654 4.5 17.2511 4.5H6.75114C6.33701 4.4999 6.00114 4.16415 6.00114 3.75C6.00114 3.33585 6.33701 3.0001 6.75114 3H17.2511Z" fill="currentColor"/></g></svg>