<svg width="24px" height="24px" viewBox="0 0 24 24" fill="currentColor" xmlns="http://www.w3.org/2000/svg"><g><path fill-rule="evenodd" clip-rule="evenodd" d="M17.25 5C19.3211 5 21 6.67893 21 8.75V17.25C21 19.3211 19.3211 21 17.25 21H8.75C6.67893 21 5 19.3211 5 17.25V15.75C5 15.3358 5.33579 15 5.75 15C6.16421 15 6.5 15.3358 6.5 15.75V17.25C6.5 18.0385 6.9065 18.731 7.52051 19.1328L12.835 13.4873C14.2849 11.9472 16.721 11.9105 18.2168 13.4062L19.5 14.6895V8.75C19.5 7.50736 18.4926 6.5 17.25 6.5H14.75C14.3358 6.5 14 6.16421 14 5.75C14 5.33579 14.3358 5 14.75 5H17.25Z" fill="currentColor"/><path d="M10.25 3C10.6642 3 11 3.33579 11 3.75V5C11 5.41421 10.6642 5.75 10.25 5.75C9.83579 5.75 9.5 5.41421 9.5 5V4.5H6.75V10.5H7.25C7.66421 10.5 8 10.8358 8 11.25C8 11.6642 7.66421 12 7.25 12H4.75C4.33579 12 4 11.6642 4 11.25C4 10.8358 4.33579 10.5 4.75 10.5H5.25V4.5H2.5V5C2.5 5.41421 2.16421 5.75 1.75 5.75C1.33579 5.75 1 5.41421 1 5V3.75C1 3.33579 1.33579 3 1.75 3H10.25Z" fill="currentColor"/></g></svg>