<svg width="24px" height="24px" viewBox="0 0 24 24" fill="currentColor" xmlns="http://www.w3.org/2000/svg"><g><path fill-rule="evenodd" clip-rule="evenodd" d="M17.25 3C19.3211 3 21 4.67893 21 6.75V17.25C21 19.3211 19.3211 21 17.25 21H6.75C4.67893 21 3 19.3211 3 17.25V6.75C3 4.67893 4.67893 3 6.75 3H17.25ZM12 7C11.6988 7 11.4284 7.18564 11.3203 7.4668L10.7412 8.97266C10.4286 9.78556 9.78556 10.4286 8.97266 10.7412L7.4668 11.3203C7.18564 11.4284 7 11.6988 7 12C7 12.3012 7.18564 12.5716 7.4668 12.6797L8.97266 13.2588C9.78556 13.5714 10.4286 14.2144 10.7412 15.0273L11.3203 16.5332C11.4284 16.8144 11.6988 17 12 17C12.3012 17 12.5716 16.8144 12.6797 16.5332L13.2588 15.0273C13.5714 14.2144 14.2144 13.5714 15.0273 13.2588L16.5332 12.6797C16.8144 12.5716 17 12.3012 17 12C17 11.6988 16.8144 11.4284 16.5332 11.3203L15.0273 10.7412C14.2144 10.4286 13.5714 9.78556 13.2588 8.97266L12.6797 7.4668C12.5716 7.18564 12.3012 7 12 7Z" fill="currentColor"/></g></svg>