<svg width="24px" height="24px" viewBox="0 0 24 24" fill="currentColor" xmlns="http://www.w3.org/2000/svg"><g><path d="M18.2194 12.2804L10.9079 19.5919C10.3195 20.1803 9.55177 20.5569 8.72627 20.6612L6.12763 20.9894C5.47967 21.0711 4.92859 20.5202 5.01045 19.8722L5.33857 17.2736C5.44295 16.448 5.81954 15.6803 6.40791 15.0919L13.7194 7.78039L18.2194 12.2804Z" fill="currentColor"/><path d="M16.2497 5.25011C17.4923 4.0075 19.5071 4.00756 20.7497 5.25011C21.9923 6.49275 21.9923 8.50747 20.7497 9.75011L19.28 11.2198L14.78 6.71984L16.2497 5.25011Z" fill="currentColor"/><path d="M7.25818 4.23127L6.54359 2.37334C6.45708 2.14842 6.24099 2 6 2C5.75901 2 5.54292 2.14842 5.45641 2.37334L4.74182 4.23127C4.65153 4.46602 4.46602 4.65153 4.23127 4.74182L2.37334 5.45641C2.14842 5.54292 2 5.75901 2 6C2 6.24099 2.14842 6.45708 2.37334 6.54359L4.23127 7.25818C4.46602 7.34847 4.65153 7.53398 4.74182 7.76873L5.45641 9.62666C5.54292 9.85158 5.75901 10 6 10C6.24099 10 6.45708 9.85158 6.54359 9.62666L7.25818 7.76873C7.34847 7.53398 7.53398 7.34847 7.76873 7.25818L9.62666 6.54359C9.85158 6.45708 10 6.24099 10 6C10 5.75901 9.85158 5.54292 9.62666 5.45641L7.76873 4.74182C7.53398 4.65153 7.34847 4.46602 7.25818 4.23127Z" fill="currentColor"/></g></svg>