<svg width="24px" height="24px" viewBox="0 0 24 24" fill="currentColor" xmlns="http://www.w3.org/2000/svg"><g><path d="M15.4333 11.1104C16.5434 11.1862 19.2958 11.4533 20.4958 12.2862C25.5824 15.8173 15.2214 24.4198 13.446 21.4951C12.5589 20.033 14.0973 18.6615 13.9645 16.5987C13.9227 15.9511 13.8649 15.4287 13.8122 14.9951C14.3012 14.6998 14.725 14.2807 15.0309 13.751C15.5114 12.9188 15.6121 11.9706 15.3854 11.1094C15.4013 11.1097 15.4173 11.1093 15.4333 11.1104Z" fill="currentColor"/><path d="M3.05436 8.50589C4.76424 8.46859 5.18283 10.4859 7.03581 11.4024C7.61756 11.69 8.09878 11.9012 8.50065 12.0723C8.51192 12.6434 8.66268 13.2203 8.96842 13.75C9.44886 14.5822 10.2196 15.1437 11.0788 15.378C11.0706 15.3916 11.0633 15.4057 11.0544 15.419C10.4337 16.3424 8.82672 18.5918 7.50553 19.2149C1.90397 21.8551 -0.366282 8.58114 3.05436 8.50589Z" fill="currentColor"/><path d="M11.9997 10C13.1042 10 13.9997 10.8955 13.9997 12C13.9996 13.1046 13.1042 14 11.9997 14C10.8953 13.9998 9.99971 13.1044 9.99967 12C9.99967 10.8956 10.8953 10.0003 11.9997 10Z" fill="currentColor"/><path d="M7.99967 4.50003C8.51394 -1.67119 21.1448 3.00004 19.4997 6.00003C18.677 7.4998 16.72 6.85315 14.9997 8.00003C14.4596 8.3601 14.0363 8.6711 13.6872 8.93362C13.1869 8.65782 12.6123 8.50011 12.0006 8.50003C11.0398 8.50005 10.1683 8.88679 9.53581 9.5137C9.52805 9.49973 9.51945 9.48616 9.51237 9.47171C9.02298 8.47242 7.87843 5.95568 7.99967 4.50003Z" fill="currentColor"/></g></svg>