<svg width="24px" height="24px" viewBox="0 0 24 24" fill="currentColor" xmlns="http://www.w3.org/2000/svg"><g><path d="M6 3C4.34315 3 3 4.34315 3 6C3 7.39788 3.95608 8.57245 5.25 8.90549V15.0945C3.95608 15.4275 3 16.6021 3 18C3 19.6569 4.34315 21 6 21C7.65685 21 9 19.6569 9 18C9 16.6021 8.04392 15.4275 6.75 15.0945V8.90549C8.04392 8.57245 9 7.39788 9 6C9 4.34315 7.65685 3 6 3Z" fill="currentColor"/><path d="M13.5607 5.25L14.5303 4.28033C14.8232 3.98744 14.8232 3.51256 14.5303 3.21967C14.2374 2.92678 13.7626 2.92678 13.4697 3.21967L11.2197 5.46967C10.9268 5.76256 10.9268 6.23744 11.2197 6.53033L13.4697 8.78033C13.7626 9.07322 14.2374 9.07322 14.5303 8.78033C14.8232 8.48744 14.8232 8.01256 14.5303 7.71967L13.5607 6.75H15C16.2426 6.75 17.25 7.75736 17.25 9V15.0945C15.9561 15.4275 15 16.6021 15 18C15 19.6569 16.3431 21 18 21C19.6569 21 21 19.6569 21 18C21 16.6021 20.0439 15.4275 18.75 15.0945V9C18.75 6.92893 17.0711 5.25 15 5.25H13.5607Z" fill="currentColor"/></g></svg>