<svg width="24px" height="24px" viewBox="0 0 24 24" fill="currentColor" xmlns="http://www.w3.org/2000/svg"><g><path fill-rule="evenodd" clip-rule="evenodd" d="M20.75 5C20.75 5.83934 20.233 6.55793 19.5 6.85462V19.5H20.25C20.6642 19.5 21 19.8358 21 20.25C21 20.6642 20.6642 21 20.25 21H3.75C3.33579 21 3 20.6642 3 20.25C3 19.8358 3.33579 19.5 3.75 19.5H7.1601L8.09923 17H15.9007L16.8398 19.5H18V6.85462C17.704 6.73481 17.4433 6.54621 17.2375 6.30864L12.741 8.09522L15.3458 15.5H8.65414L11.0182 8.77971L5.30371 11.0502C5.89915 11.9909 6.79042 12.668 7.80102 13.0105C8.19332 13.1434 8.40358 13.5692 8.27064 13.9615C8.1377 14.3538 7.71191 14.5641 7.31961 14.4311C5.69133 13.8794 4.29327 12.6618 3.56467 10.9544C2.83608 9.24701 2.9243 7.39516 3.65254 5.83778C3.82799 5.46257 4.2744 5.30063 4.64962 5.47608C5.02484 5.65154 5.18678 6.09794 5.01132 6.47316C4.55377 7.45166 4.42847 8.57919 4.70882 9.67247L16.7531 4.88704C16.8117 3.83502 17.6833 3 18.75 3C19.8546 3 20.75 3.89543 20.75 5ZM18.25 5C18.25 4.72386 18.4739 4.5 18.75 4.5C19.0261 4.5 19.25 4.72386 19.25 5C19.25 5.27614 19.0261 5.5 18.75 5.5C18.4739 5.5 18.25 5.27614 18.25 5Z" fill="currentColor"/></g></svg>