<svg width="24px" height="24px" viewBox="0 0 24 24" fill="currentColor" xmlns="http://www.w3.org/2000/svg"><g><path fill-rule="evenodd" clip-rule="evenodd" d="M8.21968 3.21967C8.51257 2.92678 8.98744 2.92678 9.28034 3.21967L12.7803 6.71967C13.0732 7.01256 13.0732 7.48744 12.7803 7.78033C12.4874 8.07322 12.0126 8.07322 11.7197 7.78033L9.50001 5.56066V14H20.25C20.6642 14 21 14.3358 21 14.75C21 15.1642 20.6642 15.5 20.25 15.5H9.08178L4.30496 20.7545C4.02633 21.061 3.55199 21.0836 3.2455 20.805C2.93901 20.5263 2.91642 20.052 3.19505 19.7455L8.00001 14.46V5.56066L5.78034 7.78033C5.48744 8.07322 5.01257 8.07322 4.71968 7.78033C4.42678 7.48744 4.42678 7.01256 4.71968 6.71967L8.21968 3.21967Z" fill="currentColor"/></g></svg>