<svg width="24px" height="24px" viewBox="0 0 24 24" fill="currentColor" xmlns="http://www.w3.org/2000/svg"><g><path fill-rule="evenodd" clip-rule="evenodd" d="M21.7348 12C21.7348 14.3282 20.9193 16.4658 19.5587 18.1424L21.459 20.0284C22.0767 20.6416 21.6462 21.6962 20.7762 21.701L12.1281 21.7491C12.083 21.7497 12.0377 21.75 11.9924 21.75L11.9671 21.75L11.9614 21.75C6.59501 21.7333 2.25 17.3745 2.25 12C2.25 6.61522 6.61181 2.25 11.9924 2.25C17.3729 2.25 21.7348 6.61522 21.7348 12ZM11.992 17.8987C15.2475 17.8987 17.8866 15.2576 17.8866 11.9995C17.8866 8.74148 15.2475 6.10031 11.992 6.10031C8.7365 6.10031 6.09739 8.74148 6.09739 11.9995C6.09739 15.2576 8.7365 17.8987 11.992 17.8987Z" fill="currentColor"/></g></svg>