<svg width="24px" height="24px" viewBox="0 0 24 24" fill="currentColor" xmlns="http://www.w3.org/2000/svg"><g><path fill-rule="evenodd" clip-rule="evenodd" d="M16.75 3C18.8211 3 20.5 4.67893 20.5 6.75V12.25C20.5 14.3211 18.8211 16 16.75 16H5V20.25C5 20.6642 4.66421 21 4.25 21C3.83579 21 3.5 20.6642 3.5 20.25V4.75C3.5 3.7835 4.2835 3 5.25 3H16.75ZM7 12.5V14.5H9V12.5H7ZM11 12.5V14.5H13V12.5H11ZM15 12.5V14.5H17V12.5H15ZM5 10.5V12.5H7V10.5H5ZM9 10.5V12.5H11V10.5H9ZM13 10.5V12.5H15V10.5H13ZM17 10.5V12.5H19V10.5H17ZM7 8.5V10.5H9V8.5H7ZM11 8.5V10.5H13V8.5H11ZM15 8.5V10.5H17V8.5H15ZM5 6.5V8.5H7V6.5H5ZM9 6.5V8.5H11V6.5H9ZM13 6.5V8.5H15V6.5H13ZM17 6.5V8.5H19V6.5H17ZM7 4.5V6.5H9V4.5H7ZM11 4.5V6.5H13V4.5H11ZM15 4.5V6.5H17V4.5H15Z" fill="currentColor"/></g></svg>