<svg width="24px" height="24px" viewBox="0 0 24 24" fill="currentColor" xmlns="http://www.w3.org/2000/svg"><g><path d="M12 2C10.386 2 8.86134 2.38236 7.51161 3.06144L11.9749 10.5002C11.9832 10.5001 11.9916 10.5 12 10.5C12.0084 10.5 12.0168 10.5001 12.0252 10.5002L16.4884 3.06146C15.1387 2.38237 13.614 2 12 2Z" fill="currentColor"/><path d="M10.6884 11.2716C10.5684 11.4873 10.5 11.7357 10.5 12C10.5 12.8284 11.1716 13.5 12 13.5C12.8284 13.5 13.5 12.8284 13.5 12C13.5 11.7357 13.4316 11.4873 13.3116 11.2716L14.9401 8.5575C15.8963 9.38338 16.5 10.6037 16.5 11.9644C16.5 14.4497 14.4853 16.4644 12 16.4644C9.51472 16.4644 7.5 14.4497 7.5 11.9644C7.5 10.6036 8.10369 9.38335 9.05994 8.55747L10.6884 11.2716Z" fill="currentColor"/><path d="M17.774 3.83437L15.7204 7.25695C17.108 8.35507 18 10.0553 18 11.9644C18 15.2781 15.3137 17.9644 12 17.9644C8.68629 17.9644 6 15.2781 6 11.9644C6 10.0553 6.89201 8.35504 8.27961 7.25692L6.22606 3.83435C3.66903 5.64571 2 8.62794 2 12C2 17.5228 6.47715 22 12 22C17.5228 22 22 17.5228 22 12C22 8.62796 20.331 5.64574 17.774 3.83437Z" fill="currentColor"/></g></svg>