<svg width="24px" height="24px" viewBox="0 0 24 24" fill="currentColor" xmlns="http://www.w3.org/2000/svg"><g><path d="M9.42188 3C5.86553 3 3 5.91986 3 9.5C3 13.0801 5.86553 16 9.42188 16H10.2867L9.57934 17.4148C9.3941 17.7852 9.54427 18.2357 9.91475 18.421C10.2852 18.6062 10.7357 18.4561 10.921 18.0856L11.921 16.0856C11.935 16.0575 11.9472 16.0289 11.9574 16H16.125C18.827 16 21 13.7822 21 11.0682C21 8.35412 18.827 6.13636 16.125 6.13636C15.7367 6.13636 15.3585 6.18243 14.9956 6.26957C13.8902 4.32006 11.8116 3 9.42188 3Z" fill="currentColor"/><path d="M14.171 18.8356C14.3562 18.4651 14.2061 18.0146 13.8356 17.8293C13.4651 17.6441 13.0146 17.7943 12.8293 18.1648L11.8293 20.1648C11.6441 20.5352 11.7943 20.9857 12.1648 21.171C12.5352 21.3562 12.9857 21.2061 13.171 20.8356L14.171 18.8356Z" fill="currentColor"/></g></svg>