<svg width="24px" height="24px" viewBox="0 0 24 24" fill="currentColor" xmlns="http://www.w3.org/2000/svg"><g><path fill-rule="evenodd" clip-rule="evenodd" d="M10.3393 2C9.4221 2 8.67857 2.74619 8.67857 3.66667V10.3333C8.67857 10.6402 8.43073 10.8889 8.125 10.8889C7.81927 10.8889 7.57143 10.6402 7.57143 10.3333V5.88889C7.57143 4.96841 6.8279 4.22222 5.91071 4.22222C4.99353 4.22222 4.25 4.96841 4.25 5.88889C4.25 8.63557 4.25 11.5277 4.25 14.2222C4.25 18.5178 7.71979 22 12 22C16.2802 22 19.75 18.5178 19.75 14.2222V8.11111C18.2214 8.11111 16.9821 9.35476 16.9821 10.8889V10.9828C16.9821 11.809 16.5502 12.5746 15.8443 12.9997C14.833 13.6086 14.2143 14.7054 14.2143 15.8889C14.2143 16.1957 13.9664 16.4444 13.6607 16.4444C13.355 16.4444 13.1071 16.1957 13.1071 15.8889C13.1071 14.3151 13.9299 12.8567 15.2746 12.047C15.6471 11.8227 15.875 11.4187 15.875 10.9828V10.8889C15.875 10.1369 16.0877 9.43476 16.456 8.83974C16.4382 8.78528 16.4286 8.7271 16.4286 8.66667V4.77778C16.4286 3.8573 15.685 3.11111 14.7679 3.11111C13.8507 3.11111 13.1071 3.8573 13.1071 4.77778V9.22222C13.1071 9.52905 12.8593 9.77778 12.5536 9.77778C12.2478 9.77778 12 9.52905 12 9.22222V3.66667C12 2.74619 11.2565 2 10.3393 2Z" fill="currentColor"/></g></svg>