<svg width="24px" height="24px" viewBox="0 0 24 24" fill="currentColor" xmlns="http://www.w3.org/2000/svg"><g><path d="M12 17C12.4142 17 12.75 17.3358 12.75 17.75V21.25C12.75 21.6642 12.4142 22 12 22C11.5858 22 11.25 21.6642 11.25 21.25V17.75C11.25 17.3358 11.5858 17 12 17Z" fill="currentColor"/><path d="M4.92969 4.92871C5.2226 4.63608 5.69743 4.63591 5.99023 4.92871L12.5312 11.4697C12.8235 11.7625 12.8235 12.2375 12.5312 12.5303L5.99023 19.0703C5.69742 19.3631 5.2226 19.363 4.92969 19.0703C4.637 18.7774 4.63686 18.3026 4.92969 18.0098L10.1885 12.75H2.75C2.33579 12.75 2 12.4142 2 12C2 11.5858 2.33579 11.25 2.75 11.25H10.1904L4.92969 5.98926C4.63681 5.69636 4.6368 5.22159 4.92969 4.92871Z" fill="currentColor"/><path d="M15.5361 15.5352C15.829 15.2425 16.3039 15.2423 16.5967 15.5352L19.0713 18.0098C19.3639 18.3026 19.3639 18.7775 19.0713 19.0703C18.7785 19.3631 18.3037 19.363 18.0107 19.0703L15.5361 16.5957C15.2432 16.3028 15.2432 15.828 15.5361 15.5352Z" fill="currentColor"/><path d="M21.25 11.25C21.6642 11.25 22 11.5858 22 12C22 12.4142 21.6642 12.75 21.25 12.75H17.75C17.3358 12.75 17 12.4142 17 12C17 11.5858 17.3358 11.25 17.75 11.25H21.25Z" fill="currentColor"/><path d="M18.0107 4.92871C18.3036 4.63611 18.7785 4.63603 19.0713 4.92871C19.3639 5.22154 19.3639 5.69643 19.0713 5.98926L16.5967 8.46387C16.3039 8.75668 15.829 8.75652 15.5361 8.46387C15.2434 8.17096 15.2433 7.69617 15.5361 7.40332L18.0107 4.92871Z" fill="currentColor"/><path d="M12 2C12.4142 2 12.75 2.33579 12.75 2.75V6.25C12.75 6.66421 12.4142 7 12 7C11.5858 7 11.25 6.66421 11.25 6.25V2.75C11.25 2.33579 11.5858 2 12 2Z" fill="currentColor"/></g></svg>