<svg width="24px" height="24px" viewBox="0 0 24 24" fill="currentColor" xmlns="http://www.w3.org/2000/svg"><g><path fill-rule="evenodd" clip-rule="evenodd" d="M3 12C3 7.02944 7.02944 3 12 3C14.5266 3 16.8554 4.04213 18.5118 5.72323V3.75C18.5118 3.33579 18.8476 3 19.2618 3C19.6761 3 20.0118 3.33579 20.0118 3.75V7.75C20.0118 8.16421 19.6761 8.5 19.2618 8.5H15.2618C14.8476 8.5 14.5118 8.16421 14.5118 7.75C14.5118 7.33579 14.8476 7 15.2618 7H17.6552C16.2647 5.46711 14.2242 4.5 12 4.5C7.85786 4.5 4.5 7.85786 4.5 12C4.5 12.4142 4.16421 12.75 3.75 12.75C3.33579 12.75 3 12.4142 3 12ZM11 12C11 11.4477 11.4477 11 12 11C12.5523 11 13 11.4477 13 12C13 12.5523 12.5523 13 12 13C11.4477 13 11 12.5523 11 12ZM20.25 11.25C20.6642 11.25 21 11.5858 21 12C21 16.9706 16.9706 21 12 21C9.47934 21 7.1556 19.9628 5.5 18.2888V20.25C5.5 20.6642 5.16421 21 4.75 21C4.33579 21 4 20.6642 4 20.25V16.25C4 15.8358 4.33579 15.5 4.75 15.5H8.75C9.16421 15.5 9.5 15.8358 9.5 16.25C9.5 16.6642 9.16421 17 8.75 17H6.3448C7.73538 18.533 9.77585 19.5 12 19.5C16.1421 19.5 19.5 16.1421 19.5 12C19.5 11.5858 19.8358 11.25 20.25 11.25Z" fill="currentColor"/></g></svg>