<svg width="24px" height="24px" viewBox="0 0 24 24" fill="currentColor" xmlns="http://www.w3.org/2000/svg"><g><path d="M9.74951 12C9.74951 10.7574 10.7569 9.75 11.9995 9.75C13.2422 9.75 14.2495 10.7574 14.2495 12C14.2495 13.2426 13.2422 14.25 11.9995 14.25C10.7569 14.25 9.74951 13.2426 9.74951 12Z" fill="currentColor"/><path fill-rule="evenodd" clip-rule="evenodd" d="M9.3479 3.09102C10.8124 1.62656 13.1867 1.62656 14.6512 3.09102L20.9086 9.34835C22.373 10.8128 22.373 13.1872 20.9086 14.6517L14.6512 20.909C13.1867 22.3735 10.8124 22.3735 9.34789 20.909L3.09053 14.6517C1.62607 13.1872 1.62607 10.8128 3.09054 9.34835L9.3479 3.09102ZM11.9995 8.25C9.92844 8.25 8.24951 9.92893 8.24951 12C8.24951 14.0711 9.92844 15.75 11.9995 15.75C14.0706 15.75 15.7495 14.0711 15.7495 12C15.7495 9.92893 14.0706 8.25 11.9995 8.25Z" fill="currentColor"/></g></svg>