<svg width="24px" height="24px" viewBox="0 0 24 24" fill="currentColor" xmlns="http://www.w3.org/2000/svg"><g><path fill-rule="evenodd" clip-rule="evenodd" d="M9.3479 3.09102C10.8124 1.62656 13.1867 1.62656 14.6512 3.09102L20.9086 9.34835C22.373 10.8128 22.373 13.1872 20.9086 14.6517L14.6512 20.909C13.1867 22.3735 10.8124 22.3735 9.34789 20.909L3.09053 14.6517C1.62607 13.1872 1.62607 10.8128 3.09054 9.34835L9.3479 3.09102ZM8.49951 12C8.49951 10.067 10.0665 8.5 11.9995 8.5C13.9325 8.5 15.4995 10.067 15.4995 12C15.4995 13.933 13.9325 15.5 11.9995 15.5C10.0665 15.5 8.49951 13.933 8.49951 12Z" fill="currentColor"/></g></svg>