<svg width="24px" height="24px" viewBox="0 0 24 24" fill="currentColor" xmlns="http://www.w3.org/2000/svg"><g><path d="M14.25 4C14.6642 4 15 4.33579 15 4.75C15 5.16421 14.6642 5.5 14.25 5.5H12.752V6.78027C17.8005 7.15669 21 11.3141 21 16.25C21 16.6642 20.6642 17 20.25 17H12.75V18.5H20.25C20.6642 18.5 21 18.8358 21 19.25C21 19.6642 20.6642 20 20.25 20H3.75C3.33579 20 3 19.6642 3 19.25C3 18.8358 3.33579 18.5 3.75 18.5H11.25V17H3.75C3.33579 17 3 16.6642 3 16.25C3 11.3128 6.20118 7.15485 11.252 6.78027V5.5H9.75C9.33579 5.5 9 5.16421 9 4.75C9 4.33579 9.33579 4 9.75 4H14.25Z" fill="currentColor"/></g></svg>