<svg width="24px" height="24px" viewBox="0 0 24 24" fill="currentColor" xmlns="http://www.w3.org/2000/svg"><g><path fill-rule="evenodd" clip-rule="evenodd" d="M7.75 2C5.67893 2 4 3.67893 4 5.75V21.25C4 21.544 4.17175 21.8108 4.43931 21.9326C4.70687 22.0544 5.02091 22.0086 5.24259 21.8156L7.30756 20.017L9.14606 21.7899C9.4366 22.07 9.89674 22.07 10.1873 21.7899L12 20.0419L13.8127 21.7899C14.1033 22.07 14.5634 22.07 14.8539 21.7899L16.6924 20.017L18.7574 21.8156C18.9791 22.0086 19.2931 22.0544 19.5607 21.9326C19.8283 21.8108 20 21.544 20 21.25V5.75C20 3.67893 18.3211 2 16.25 2H7.75ZM15.792 8.28033C16.0849 7.98744 16.0849 7.51256 15.792 7.21967C15.4992 6.92678 15.0243 6.92678 14.7314 7.21967L8.23139 13.7197C7.9385 14.0126 7.9385 14.4874 8.23139 14.7803C8.52428 15.0732 8.99916 15.0732 9.29205 14.7803L15.792 8.28033ZM9 9C8.44772 9 8 8.55228 8 8C8 7.44772 8.44772 7 9 7C9.55228 7 10 7.44772 10 8C10 8.55228 9.55228 9 9 9ZM14 14C14 14.5523 14.4477 15 15 15C15.5523 15 16 14.5523 16 14C16 13.4477 15.5523 13 15 13C14.4477 13 14 13.4477 14 14Z" fill="currentColor"/></g></svg>