<svg width="24px" height="24px" viewBox="0 0 24 24" fill="currentColor" xmlns="http://www.w3.org/2000/svg"><g><path fill-rule="evenodd" clip-rule="evenodd" d="M10.4741 2.5C14.7034 2.50018 18.1315 5.56109 18.1315 9.33619L18.1307 9.33861C18.1305 13.1014 14.7225 16.1559 10.512 16.1732H18.2799L21.268 21.5H13.4718L10.4813 16.1732C10.4797 16.1732 10.4781 16.174 10.4765 16.174V21.5H2.71094L5.4288 11.9992H8.02807C7.89343 11.1806 7.81914 10.2803 7.81912 9.33619C7.81912 5.56097 9.00858 2.5 10.4741 2.5ZM10.4741 3.75123C9.70745 3.75123 9.08568 6.25324 9.08568 9.33619C9.08573 12.4198 9.70663 14.9203 10.4749 14.9203C11.2421 14.9196 11.8632 12.4193 11.8632 9.33619C11.8632 6.25374 11.2421 3.75206 10.4741 3.75123Z" fill="currentColor"/></g></svg>