<svg width="24px" height="24px" viewBox="0 0 24 24" fill="currentColor" xmlns="http://www.w3.org/2000/svg"><g><g opacity="0.5"><path d="M18.7438 8.7334C19.4522 8.74968 20.3728 8.96152 20.8532 9.28711C21.2765 9.57198 21.5373 9.75123 21.7897 10.2314C21.8465 10.329 21.8382 10.4268 21.8707 10.5244C21.8625 10.696 21.7568 11.6231 21.7243 11.7939C21.6917 11.9649 21.651 12.1279 21.6022 12.2988C21.5532 12.4697 21.1953 12.5922 21.1383 12.7549C21.0162 12.2177 20.7388 11.81 20.3561 11.5332C19.9816 11.2567 19.4851 11.1107 18.9235 11.0781C18.3616 11.0456 17.7341 11.1351 17.0582 11.3467C16.3907 11.5502 15.6822 11.876 14.9576 12.3154C14.2331 12.7549 13.565 13.2675 12.9625 13.8291C12.3682 14.3907 11.8309 15.0016 11.3912 15.6201C10.9436 16.2386 10.5931 16.8812 10.3571 17.5078C10.1209 18.1427 9.9987 18.7616 10.0231 19.3232C10.0475 19.8198 10.1864 20.2434 10.4225 20.5771C10.6586 20.9108 11.0011 21.1631 11.4244 21.3096C11.8558 21.456 12.3685 21.5129 12.9381 21.4561C13.3616 21.4154 13.8265 21.3181 14.3151 21.1553L14.1188 21.2285L13.9401 21.2852L13.2965 21.4727L12.6295 21.6191L12.2623 21.6836L11.5299 21.7734L10.7809 21.8223H10.6744C10.1617 21.7978 9.7706 21.7331 9.37171 21.6436C8.98114 21.5621 8.66371 21.3667 8.39515 21.1309C8.12643 20.903 7.92257 20.6095 7.77601 20.2676C7.63761 19.9258 7.56446 19.5351 7.55628 19.0957C7.54816 18.3957 7.71921 17.6304 8.03675 16.8408C8.35431 16.0675 8.80206 15.2694 9.3639 14.4961C9.91756 13.7229 10.5855 12.9744 11.3346 12.2744C12.0837 11.5744 12.9145 10.9315 13.8102 10.3779C14.7139 9.82448 15.5933 9.4086 16.4157 9.13184C17.2134 8.86337 17.9624 8.73345 18.6461 8.7334H18.7438Z" fill="currentColor"/><path fill-rule="evenodd" clip-rule="evenodd" d="M18.8346 14.8867C19.03 14.8867 19.2095 14.9027 19.3805 14.9434C19.7225 15.0166 20.0324 15.1386 20.236 15.3584C20.4395 15.5863 20.6344 15.872 20.6588 16.2383C20.6912 16.6043 20.5776 16.9623 20.3336 17.4502C20.1301 17.8572 19.7954 18.1669 19.4616 18.582C19.1277 18.9971 18.729 19.3717 18.2731 19.7217C17.809 20.0717 17.4097 20.4056 16.8805 20.6416C16.3595 20.8695 15.879 21.1296 15.4313 21.1865C15.047 21.2284 14.6989 21.2159 14.402 21.1396L14.3991 21.1387C14.351 21.1263 14.3037 21.1135 14.2584 21.0977C13.9328 20.9918 13.6725 20.804 13.5016 20.5518C13.3307 20.2994 13.2412 19.9818 13.2575 19.6074C13.2738 19.2331 13.3876 18.8421 13.5748 18.4434C13.7621 18.0446 14.0308 17.6458 14.3483 17.2715C14.6658 16.8971 15.0483 16.5385 15.4635 16.2129C15.8788 15.8955 16.3353 15.6107 16.8239 15.3828C17.3122 15.155 17.7763 15.0088 18.2076 14.9355C18.4275 14.8948 18.6314 14.8789 18.8268 14.8789C18.8268 14.8789 18.8346 14.8786 18.8346 14.8867ZM18.4684 17.0107C18.3056 16.9701 18.1184 16.9626 17.9069 16.9951C17.6952 17.0277 17.4671 17.1003 17.2311 17.2061C16.995 17.32 16.7667 17.4586 16.5631 17.6133C16.3596 17.7761 16.1719 17.9475 16.0172 18.1348C15.8627 18.3137 15.7405 18.5089 15.651 18.7041C15.5615 18.8994 15.5133 19.0866 15.5133 19.2656C15.5133 19.4447 15.5614 19.5918 15.651 19.7139C15.7406 19.8359 15.8632 19.917 16.026 19.9658C16.1318 19.9983 16.2457 20.0146 16.3678 20.0146C16.4411 20.0146 16.5143 20.0062 16.5875 19.998C16.8074 19.9736 17.0435 19.9088 17.2877 19.7949C17.532 19.6891 17.7684 19.5427 17.9801 19.3799C18.1918 19.2089 18.3869 19.0293 18.5416 18.834C18.6963 18.6387 18.8265 18.4355 18.9078 18.2402C18.9892 18.0451 19.0302 17.8498 19.0221 17.6709C19.014 17.5 18.9567 17.3532 18.859 17.2393C18.7695 17.1335 18.6312 17.0514 18.4684 17.0107Z" fill="currentColor"/><path d="M7.4098 20.0713C7.32856 20.0469 7.25537 20.0227 7.18226 19.9902L7.4098 20.0713Z" fill="currentColor"/><path d="M16.7496 4.14941C17.2381 4.14942 17.7189 4.19042 18.0446 4.3125C18.598 4.50784 19.0942 4.84164 19.3873 5.33789L19.6071 5.83496L20.4703 8.09766L20.2018 8.1543C20.0308 7.47065 19.9331 6.9011 19.4284 6.56738C18.9316 6.24179 18.2966 6.07847 17.5719 6.07031C16.8554 6.07031 15.7316 6.28187 14.8766 6.58301C14.0298 6.87602 13.1345 7.31635 12.2145 7.90234C11.2944 8.48844 10.4307 9.17237 9.64906 9.91309C8.87565 10.6456 8.17504 11.4508 7.5807 12.2646C6.97821 13.0867 6.48941 13.9335 6.13929 14.7637C5.78917 15.602 5.58561 16.4325 5.56117 17.1895C5.55301 17.5638 5.58558 17.8978 5.65882 18.207C5.74023 18.5162 5.85476 18.793 6.00941 19.0371C6.16404 19.2812 6.35934 19.4932 6.59535 19.6641C6.7745 19.7943 6.97054 19.9007 7.18226 19.9902L6.77503 19.8438L6.06605 19.5342L5.43128 19.1924L4.76331 18.7686C4.56806 18.6384 4.39709 18.4758 4.25062 18.2969C4.1041 18.1179 3.98178 17.9144 3.89222 17.6865C3.8027 17.4669 3.73762 17.2225 3.69691 16.9541C3.65619 16.6855 3.6484 16.4079 3.66468 16.0986C3.71359 15.2929 3.94935 14.4138 4.34827 13.5186C4.73098 12.6395 5.26818 11.7355 5.91956 10.8564C6.56273 9.98565 7.32029 9.12341 8.15882 8.33398C8.99749 7.53628 9.91771 6.79508 10.903 6.16016C11.7905 5.58225 12.6541 5.1342 13.4684 4.80859C14.2986 4.48316 15.0802 4.2803 15.7965 4.20703C16.0896 4.17447 16.4239 4.15755 16.7496 4.14941Z" fill="currentColor"/><path d="M12.8893 2.06738C13.272 2.06738 13.6554 2.11555 13.9323 2.15625C14.3882 2.22139 14.8032 2.37663 15.1451 2.48242L15.7721 2.73438L16.0494 2.9541L16.5944 3.44238L17.0016 3.86621C16.7166 3.58946 16.3501 3.3939 15.9186 3.28809C15.4383 3.16605 14.8849 3.15012 14.2662 3.23145C13.6557 3.31283 12.9956 3.49123 12.2955 3.75977C11.5954 4.02834 10.8622 4.39485 10.1051 4.85059C9.1687 5.41224 8.27288 6.08056 7.45863 6.79688C6.63637 7.51308 5.88732 8.29421 5.23597 9.0918C4.57646 9.89761 4.01387 10.7277 3.59046 11.5498C3.15895 12.3881 2.8666 13.2105 2.75257 13.9756C2.72 14.1953 2.70277 14.4072 2.70277 14.6025C2.70277 14.7979 2.71937 14.985 2.74378 15.1641C2.77635 15.3431 2.81765 15.5143 2.87464 15.6689C2.9153 15.7909 2.97174 15.9048 3.03675 16.0186L2.85023 15.7178L2.74378 15.5303C2.73834 15.5192 2.53064 15.0948 2.43421 14.8057C2.34478 14.5618 2.31245 14.4152 2.2555 14.1631C2.11708 13.5689 1.99443 12.7465 2.00257 12.6162C2.01068 12.4861 1.98699 12.356 2.01136 12.2178C2.13347 11.5097 2.31211 10.7363 2.72718 9.95508C3.13431 9.18996 3.67214 8.39992 4.30726 7.63477C4.93424 6.87777 5.65936 6.13688 6.44105 5.45312C7.22262 4.76952 8.07708 4.13415 8.96449 3.58887C9.60777 3.19001 10.2275 2.87343 10.8219 2.62109C11.4162 2.36882 11.7663 2.24578 12.2955 2.13184C12.4826 2.09122 12.686 2.07552 12.8893 2.06738Z" fill="currentColor"/><path d="M9.43519 2.59668C8.72674 2.69454 7.53013 3.45147 7.04163 3.80957C6.23563 4.40371 5.78737 4.87527 5.11976 5.52637C4.44392 6.17755 4.07804 6.59327 3.58949 7.40723C3.14979 8.13982 2.87246 8.79903 2.7096 9.42578C2.69334 9.49087 2.68486 9.55635 2.66859 9.61328C2.65238 9.67822 2.64449 9.73513 2.63636 9.79199C2.62008 9.84895 2.62009 9.9059 2.61195 9.96289C2.61195 10.0036 2.60413 10.0365 2.60413 10.0771L2.61195 9.91406L2.66859 9.2793L2.77503 8.57129L2.84827 8.0498C2.85275 8.03706 3.01258 7.58168 3.14906 7.30078C3.42586 6.73114 3.66223 6.44632 4.06117 5.95801C5.05457 4.73701 5.86932 4.28893 7.22913 3.44238C7.68485 3.15768 7.94581 3.01983 8.43421 2.79199C8.72697 2.64572 9.40908 2.5719 9.48402 2.58789C9.5003 2.58789 9.48403 2.58854 9.43519 2.59668Z" fill="currentColor"/></g><path d="M20.5801 16.9287C20.5669 16.9492 20.5534 16.9694 20.54 16.9892C20.4954 17.1026 20.3953 17.3507 20.3037 17.5156C20.1897 17.7191 19.9697 18.0039 19.9697 18.0039L19.8477 18.166C19.7127 18.3406 19.4923 18.593 19.4814 18.6055L19.1797 18.9394C18.8621 19.265 18.5041 19.5748 18.1133 19.876C17.7143 20.169 17.2821 20.4459 16.8262 20.6982C16.3704 20.9504 15.8822 21.1703 15.3857 21.3574C14.889 21.5446 14.3756 21.6988 13.8545 21.8047C13.7486 21.8291 13.6504 21.846 13.5527 21.8623L13.2598 21.9111C13.214 21.9187 13.168 21.9239 13.123 21.9297C13.0722 21.9361 13.0221 21.9425 12.9746 21.9512C12.8771 21.9593 12.7877 21.9674 12.6982 21.9756L12.1367 22H12.0146L11.4121 21.9844L10.8008 21.9267C10.7955 21.9259 10.6934 21.9103 10.6299 21.9023C10.3776 21.8698 10.2309 21.846 9.97852 21.7891C9.71795 21.7402 9.32715 21.6338 9.32715 21.6338L9.00098 21.5195L8.91211 21.4795C9.14003 21.569 9.44921 21.6585 9.74219 21.6992C10.0433 21.748 10.3691 21.7724 10.7109 21.7724C11.0528 21.7806 11.4195 21.7562 11.7939 21.7236C12.1765 21.6829 12.5676 21.6175 12.9746 21.5361C13.911 21.3407 14.8481 21.0235 15.7275 20.6328C16.615 20.2421 17.4456 19.7702 18.1865 19.2412C18.9274 18.7203 19.5704 18.142 20.0996 17.5478C20.2626 17.3627 20.4052 17.1904 20.54 16.9892C20.5549 16.9517 20.5645 16.9287 20.5645 16.9287C20.5659 16.9261 20.5729 16.9148 20.5801 16.9287Z" fill="currentColor"/><path d="M21.7568 10.1982C21.7492 10.1189 21.8623 10.5488 21.8623 10.5488C21.8631 10.5537 21.9279 10.9409 21.9521 11.1836C22.0091 11.8103 22.0336 12.1685 21.9277 12.7871C21.773 13.7395 21.5205 14.3016 20.9912 15.083C20.4457 15.8725 19.6882 16.6614 18.7764 17.3857C17.8563 18.1183 16.7818 18.7941 15.6094 19.3476C14.445 19.9093 13.1992 20.3495 11.9453 20.6182C11.2939 20.7565 10.6748 20.846 10.0967 20.8867C9.51857 20.9274 8.98074 20.9189 8.49219 20.8701C8.00378 20.8212 7.56393 20.7239 7.16504 20.5937C6.77429 20.4635 6.43241 20.2923 6.14746 20.0889L5.54492 19.6162L5.04004 19.1611C5.04004 19.1611 4.69771 18.8268 4.49414 18.5908C4.34888 18.4294 4.14807 18.1562 4.14453 18.1514C4.38058 18.4199 4.66536 18.6478 5.02344 18.8349C5.44687 19.0547 5.94434 19.2256 6.52246 19.3232C7.10854 19.429 7.76781 19.4622 8.49219 19.4297C9.22499 19.3971 10.0233 19.2829 10.8701 19.0957C12.2299 18.7864 13.5901 18.3058 14.8604 17.6953C16.1304 17.0849 17.3029 16.3607 18.3125 15.5713C19.3059 14.7898 20.137 13.951 20.7314 13.1045C21.3176 12.2825 21.6754 11.4519 21.7568 10.6787C21.765 10.5974 21.7734 10.5159 21.7734 10.4346C21.7734 10.3532 21.765 10.2714 21.7568 10.1982Z" fill="currentColor"/><path d="M19.4648 5.37987L19.5459 5.43651L20.0352 6.05468L20.4824 6.71483L20.6777 7.04784C20.7347 7.15362 20.7916 7.25977 20.8242 7.38182C20.8649 7.49576 20.8975 7.6181 20.9219 7.74022C20.9456 7.85866 20.954 7.99236 20.9619 8.11913L20.9629 8.13085C20.9629 8.26909 20.9548 8.40735 20.9385 8.5537C20.8408 9.3107 20.4658 10.1173 19.8633 10.9394C19.2445 11.7695 18.3975 12.6074 17.3799 13.3887C16.3458 14.1782 15.1488 14.9116 13.8623 15.5303C12.5677 16.1488 11.1914 16.6451 9.81543 16.9707C8.83027 17.1986 7.91802 17.3288 7.0957 17.3613C6.28172 17.3938 5.55715 17.329 4.93848 17.1826C4.32778 17.0361 3.82249 16.8155 3.43164 16.5224C3.04914 16.2376 2.77185 15.8795 2.61719 15.4726L2.46289 15.0254L2.25098 14.2598L2.10449 13.4863L2.07227 13.2666L2.03125 12.8359C2.08829 13.2509 2.25911 13.6091 2.54395 13.9101C2.86149 14.252 3.32589 14.5126 3.91211 14.6836C4.50642 14.8626 5.23117 14.9436 6.06152 14.9111C6.90834 14.8867 7.86142 14.7484 8.89551 14.4961C10.1983 14.1786 11.4935 13.698 12.7148 13.1201C13.936 12.5341 15.0758 11.8506 16.0527 11.1182C17.0217 10.3856 17.8362 9.61182 18.4307 8.84667C19.0168 8.08974 19.3831 7.34906 19.4971 6.65722C19.5296 6.46191 19.5384 6.28254 19.5303 6.1035C19.5221 5.93269 19.4892 5.76978 19.4404 5.61522C19.3916 5.46064 19.3259 5.3219 19.2363 5.18358C19.1986 5.12073 19.1512 5.06262 19.1016 5.00194C19.0871 4.9843 19.0722 4.9665 19.0576 4.94823L19.4648 5.37987Z" fill="currentColor"/><path d="M14.0059 2.15819C14.1022 2.17298 14.1579 2.18183 14.2354 2.20507C14.2388 2.20589 14.4724 2.26233 14.626 2.30272C14.8377 2.38412 15.1641 2.49804 15.1641 2.49804L15.8232 2.74218L16.4746 3.04393L16.7021 3.166C16.8812 3.26364 17.0445 3.37697 17.1748 3.49901C17.3132 3.62925 17.4195 3.76785 17.501 3.93065C17.5823 4.09342 17.6309 4.27278 17.6553 4.45995C17.6797 4.65527 17.6638 4.86718 17.623 5.0869C17.5009 5.68105 17.1581 6.32383 16.6289 6.96679C16.0915 7.6261 15.367 8.29417 14.5039 8.92089C13.6327 9.5557 12.631 10.1493 11.5645 10.6621C10.4896 11.1749 9.35774 11.5986 8.21777 11.8916C7.20002 12.152 6.27972 12.2903 5.47363 12.3066C4.68401 12.3229 4.01649 12.2333 3.4873 12.0381C2.97432 11.8509 2.59094 11.5662 2.37109 11.208C2.15939 10.858 2.09467 10.4262 2.19238 9.92968L2.24121 9.71776L2.42871 9.01854L2.66504 8.34276L2.90918 7.77245L3.12891 7.30858L3.08789 7.39843L3.08008 7.41503C2.86851 7.87883 2.8278 8.28547 2.93359 8.61913C3.04759 8.961 3.3165 9.23792 3.72363 9.41698C4.13884 9.60407 4.70042 9.69368 5.37598 9.68554C6.05998 9.67741 6.86666 9.5557 7.77051 9.31151C8.67418 9.06735 9.57777 8.72526 10.4326 8.31835C11.2876 7.91135 12.0859 7.4389 12.7861 6.94237C13.478 6.44599 14.0721 5.92506 14.5117 5.40429C14.9514 4.89155 15.245 4.38675 15.3672 3.92284C15.4242 3.68679 15.432 3.46682 15.3994 3.27147C15.3587 3.07613 15.2774 2.90529 15.1553 2.75878C15.0331 2.61226 14.8702 2.49024 14.6748 2.39257C14.5446 2.32748 14.3981 2.27049 14.2354 2.22167L13.9912 2.15624L14.0059 2.15819Z" fill="currentColor"/><path d="M10.6201 2.05761C11.0271 1.9844 11.3694 1.99315 11.6787 2.01757C11.988 2.042 12.2565 2.10711 12.46 2.21288C12.6634 2.31865 12.8183 2.45677 12.8916 2.63573C12.973 2.83109 12.9815 3.05137 12.9082 3.3037C12.8105 3.62102 12.5905 3.97077 12.2812 4.31249C11.9637 4.6625 11.5478 5.02074 11.0674 5.35448C10.5789 5.69631 10.0335 6.01426 9.44727 6.291C8.86107 6.56772 8.24216 6.80337 7.61523 6.98241C6.99642 7.15335 6.44232 7.24313 5.96191 7.26757C5.48982 7.2838 5.09904 7.23502 4.79785 7.12108C4.50475 7.00714 4.30896 6.83565 4.22754 6.5996C4.14634 6.37177 4.16312 6.09485 4.30957 5.76952C4.35027 5.67197 4.40758 5.57414 4.47266 5.47655C4.48544 5.45737 4.49784 5.43766 4.51074 5.41796C4.56343 5.33765 4.6184 5.25403 4.68359 5.17577C4.76502 5.07811 4.85477 4.97169 4.94434 4.87401C4.96847 4.84988 4.99319 4.82564 5.01758 4.80077C5.09183 4.72501 5.16817 4.6467 5.25391 4.57323L5.54688 4.31249C5.97833 3.96257 6.44258 3.63737 6.92285 3.35253L7.18359 3.20604C7.17088 3.21584 6.65092 3.61687 6.39355 3.93847C6.24709 4.12557 6.13282 4.28062 6.05957 4.44335C5.99464 4.5977 5.98648 4.7361 6.03516 4.84179C6.084 4.9476 6.19035 5.02927 6.33691 5.07811C6.48347 5.12695 6.68708 5.15103 6.91504 5.13475C7.15106 5.11848 7.41959 5.0696 7.7207 4.98827C8.02191 4.89876 8.32349 4.7848 8.6084 4.64647C8.8934 4.5081 9.16231 4.35322 9.39844 4.19042C9.63454 4.02763 9.83815 3.85646 10.001 3.68554C10.1637 3.51466 10.278 3.34404 10.335 3.18944C10.3919 3.0348 10.3835 2.90463 10.3184 2.79882C10.2532 2.70118 10.139 2.62791 9.98438 2.57909C9.82972 2.5385 9.63403 2.54624 9.40625 2.5869C9.33974 2.59921 9.26886 2.6107 9.19434 2.62206C9.02262 2.64823 8.83138 2.67668 8.63281 2.73339C8.4457 2.79032 8.34016 2.83174 8.16113 2.91307C8.70665 2.62821 9.03258 2.49774 9.62695 2.31054C10.0095 2.18851 10.2701 2.12271 10.6201 2.05761Z" fill="currentColor"/></g></svg>