<svg width="24px" height="24px" viewBox="0 0 24 24" fill="currentColor" xmlns="http://www.w3.org/2000/svg"><g><path fill-rule="evenodd" clip-rule="evenodd" d="M17.25 2C18.7688 2 20 3.23122 20 4.75V21.25C20 21.6642 19.6642 22 19.25 22H6.25C5.00736 22 4 20.9926 4 19.75V5.75C4 3.67893 5.67893 2 7.75 2H17.25ZM6.25 19C5.83579 19 5.5 19.3358 5.5 19.75C5.5 20.1642 5.83579 20.5 6.25 20.5H18.5V19H6.25ZM6.25 16C5.83579 16 5.5 16.3358 5.5 16.75C5.5 17.1642 5.83579 17.5 6.25 17.5H18.5V16H6.25ZM8.75 6C8.33579 6 8 6.33579 8 6.75C8 7.16421 8.33579 7.5 8.75 7.5H15.25C15.6642 7.5 16 7.16421 16 6.75C16 6.33579 15.6642 6 15.25 6H8.75Z" fill="currentColor"/></g></svg>