<svg width="24px" height="24px" viewBox="0 0 24 24" fill="currentColor" xmlns="http://www.w3.org/2000/svg"><g><path d="M20.25 10.2499C20.6642 10.2499 21 10.5857 21 10.9999V16.2499C21 18.321 19.321 19.9999 17.25 19.9999H5.56055L7.03027 21.4697C7.32313 21.7626 7.32315 22.2373 7.03027 22.5302C6.73739 22.8231 6.26261 22.823 5.96973 22.5302L3.21973 19.7802C3.07911 19.6396 3.00002 19.4488 3 19.2499C3.00002 19.0511 3.07911 18.8603 3.21973 18.7197L5.96973 15.9697C6.26262 15.6768 6.73738 15.6768 7.03027 15.9697C7.32313 16.2626 7.32315 16.7373 7.03027 17.0302L5.56055 18.4999H17.25C18.4926 18.4999 19.5 17.4925 19.5 16.2499V10.9999C19.5 10.5857 19.8358 10.2499 20.25 10.2499Z" fill="currentColor"/><path d="M12 7.99993C12.4142 7.99993 12.75 8.33572 12.75 8.74993V11.2499H15.25C15.6642 11.2499 16 11.5857 16 11.9999C16 12.4141 15.6642 12.7499 15.25 12.7499H12.75V15.2499C12.75 15.6641 12.4142 15.9999 12 15.9999C11.5858 15.9999 11.25 15.6641 11.25 15.2499V12.7499H8.74023C8.32604 12.7499 7.99027 12.4141 7.99023 11.9999C7.99023 11.5857 8.32602 11.2499 8.74023 11.2499H11.25V8.74993C11.25 8.33572 11.5858 7.99993 12 7.99993Z" fill="currentColor"/><path d="M16.9697 1.46966C17.2626 1.17678 17.7374 1.17678 18.0303 1.46966L20.7803 4.21966C20.9208 4.36029 21 4.5511 21 4.74993C20.9999 4.94874 20.9208 5.13962 20.7803 5.28021L18.0303 8.03021C17.7374 8.32305 17.2626 8.32304 16.9697 8.03021C16.6769 7.73733 16.6769 7.26256 16.9697 6.96966L18.4395 5.49993H6.75C5.50736 5.49993 4.5 6.50729 4.5 7.74993V12.9999C4.49996 13.4141 4.16419 13.7499 3.75 13.7499C3.33581 13.7499 3.00004 13.4141 3 12.9999V7.74993C3 5.67887 4.67893 3.99993 6.75 3.99993H18.4395L16.9697 2.53021C16.6769 2.23733 16.6769 1.76256 16.9697 1.46966Z" fill="currentColor"/></g></svg>