<svg width="24px" height="24px" viewBox="0 0 24 24" fill="currentColor" xmlns="http://www.w3.org/2000/svg"><g><path fill-rule="evenodd" clip-rule="evenodd" d="M9.3479 3.09102C10.8124 1.62656 13.1867 1.62656 14.6512 3.09102L20.9086 9.34835C22.373 10.8128 22.373 13.1872 20.9086 14.6517L14.6512 20.909C13.1867 22.3735 10.8124 22.3735 9.34789 20.909L3.09053 14.6517C1.62607 13.1872 1.62607 10.8128 3.09054 9.34835L9.3479 3.09102ZM9.74951 11.25C9.3353 11.25 8.99951 11.5858 8.99951 12C8.99951 12.4142 9.3353 12.75 9.74951 12.75H14.2495C14.6637 12.75 14.9995 12.4142 14.9995 12C14.9995 11.5858 14.6637 11.25 14.2495 11.25H9.74951Z" fill="currentColor"/></g></svg>