<svg width="24px" height="24px" viewBox="0 0 24 24" fill="currentColor" xmlns="http://www.w3.org/2000/svg"><g><path fill-rule="evenodd" clip-rule="evenodd" d="M12 1C12.4142 1 12.75 1.33579 12.75 1.75V3H17.25L17.4434 3.00488C19.4246 3.10551 21 4.74378 21 6.75V17.25C21 19.3211 19.3211 21 17.25 21H12.75V22.25C12.75 22.6642 12.4142 23 12 23C11.5858 23 11.25 22.6642 11.25 22.25V21H6.75C4.74378 21 3.10551 19.4246 3.00488 17.4434L3 17.25V6.75C3 5.76565 3.37962 4.8702 4 4.20117V4H4.20215C4.87112 3.37991 5.7659 3 6.75 3H11.25V1.75C11.25 1.33579 11.5858 1 12 1ZM8 8H4.5V12H8V16H4.5V17.25L4.51172 17.4805C4.62714 18.6148 5.58517 19.5 6.75 19.5H8V16H11.25V12H8V8H11.25V4.5H8V8Z" fill="currentColor"/></g></svg>