<svg width="24px" height="24px" viewBox="0 0 24 24" fill="currentColor" xmlns="http://www.w3.org/2000/svg"><g><path d="M21.2653 10.5053C20.4529 10.9788 19.5081 11.25 18.5 11.25C15.4624 11.25 13 8.78757 13 5.75C13 5.4956 13.0173 5.24523 13.0507 5H4.71485L4.4766 3.80874C4.26626 2.75703 3.34283 2 2.27029 2H1.75C1.33579 2 1 2.33579 1 2.75C1 3.16421 1.33579 3.5 1.75 3.5H2.27029C2.6278 3.5 2.93562 3.75234 3.00573 4.10291L4.78223 12.9854C5.1328 14.7383 6.67186 16 8.45941 16H17.0658C18.8391 16 20.3701 14.7578 20.7354 13.0225L21.2653 10.5053Z" fill="currentColor"/><path d="M8 17C6.89543 17 6 17.8954 6 19C6 20.1046 6.89543 21 8 21C9.10457 21 10 20.1046 10 19C10 17.8954 9.10457 17 8 17Z" fill="currentColor"/><path d="M15 19C15 17.8954 15.8954 17 17 17C18.1046 17 19 17.8954 19 19C19 20.1046 18.1046 21 17 21C15.8954 21 15 20.1046 15 19Z" fill="currentColor"/><path fill-rule="evenodd" clip-rule="evenodd" d="M15.7197 2.71967C16.0126 2.42678 16.4874 2.42678 16.7803 2.71967L18.5 4.43934L20.2197 2.71967C20.5126 2.42678 20.9874 2.42678 21.2803 2.71967C21.5732 3.01256 21.5732 3.48744 21.2803 3.78033L19.5607 5.5L21.2803 7.21967C21.5732 7.51256 21.5732 7.98744 21.2803 8.28033C20.9874 8.57322 20.5126 8.57322 20.2197 8.28033L18.5 6.56066L16.7803 8.28033C16.4874 8.57322 16.0126 8.57322 15.7197 8.28033C15.4268 7.98744 15.4268 7.51256 15.7197 7.21967L17.4393 5.5L15.7197 3.78033C15.4268 3.48744 15.4268 3.01256 15.7197 2.71967Z" fill="currentColor"/></g></svg>