<svg width="24px" height="24px" viewBox="0 0 24 24" fill="currentColor" xmlns="http://www.w3.org/2000/svg"><g><path d="M6.5 3C4.567 3 3 4.567 3 6.5C3 8.433 4.567 10 6.5 10C8.433 10 10 8.433 10 6.5C10 4.567 8.433 3 6.5 3Z" fill="currentColor"/><path d="M16.1254 4.79425C16.426 4.50926 16.4386 4.03455 16.1536 3.73397C15.8686 3.43339 15.3939 3.42075 15.0933 3.70575L12.984 5.70575C12.8371 5.84499 12.7528 6.03767 12.7501 6.24002C12.7474 6.44238 12.8266 6.63723 12.9697 6.78033L14.9697 8.78033C15.2626 9.07322 15.7374 9.07322 16.0303 8.78033C16.3232 8.48744 16.3232 8.01256 16.0303 7.71967L15.3107 7H17.25C18.4926 7 19.5 8.00736 19.5 9.25V14.75C19.5 15.9926 18.4926 17 17.25 17H13.75C13.3358 17 13 17.3358 13 17.75C13 18.1642 13.3358 18.5 13.75 18.5H17.25C19.3211 18.5 21 16.8211 21 14.75V9.25C21 7.17893 19.3211 5.5 17.25 5.5H15.3811L16.1254 4.79425Z" fill="currentColor"/><path d="M6.5 14C4.567 14 3 15.567 3 17.5C3 19.433 4.567 21 6.5 21C8.433 21 10 19.433 10 17.5C10 15.567 8.433 14 6.5 14Z" fill="currentColor"/></g></svg>