<svg width="24px" height="24px" viewBox="0 0 24 24" fill="currentColor" xmlns="http://www.w3.org/2000/svg"><g><path d="M5.38458 7.5C6.82558 5.38587 9.25128 4 12 4C14.7179 4 17.1196 5.35469 18.5665 7.42907C18.8035 7.76881 19.271 7.85211 19.6107 7.61514C19.9504 7.37817 20.0337 6.91066 19.7968 6.57093C18.0813 4.1116 15.2289 2.5 12 2.5C8.95063 2.5 6.23748 3.93707 4.5 6.16846V3.75C4.5 3.33579 4.16421 3 3.75 3C3.33579 3 3 3.33579 3 3.75V8.25C3 8.66421 3.33579 9 3.75 9H8.25C8.66421 9 9 8.66421 9 8.25C9 7.83579 8.66421 7.5 8.25 7.5H5.38458Z" fill="currentColor"/><path d="M4 12C4 11.5858 3.66421 11.25 3.25 11.25C2.83579 11.25 2.5 11.5858 2.5 12C2.5 12.273 2.51153 12.5434 2.53416 12.8109C2.81659 16.1485 4.82319 18.9921 7.65667 20.4511C8.02493 20.6407 8.47718 20.4959 8.6668 20.1276C8.85642 19.7593 8.7116 19.3071 8.34333 19.1175C5.95418 17.8873 4.26631 15.491 4.02882 12.6844C4.00975 12.459 4 12.2307 4 12Z" fill="currentColor"/><path d="M13.5047 16C14.8828 16 16 17.1172 16 18.4953C16 20.9506 13.6416 21.0179 11.7593 20.9978C11.3451 20.9934 11.0066 20.6549 11.0022 20.2407C10.9821 18.3584 11.0494 16 13.5047 16Z" fill="currentColor"/><path d="M21.3321 10.6679C19.2303 8.7135 15.8864 12.7781 14.1831 15.0658C15.5685 15.3388 16.6601 16.4301 16.9336 17.8153C19.2518 16.0819 23.4367 12.6249 21.3321 10.6679Z" fill="currentColor"/></g></svg>