<svg width="24px" height="24px" viewBox="0 0 24 24" fill="currentColor" xmlns="http://www.w3.org/2000/svg"><g><path fill-rule="evenodd" clip-rule="evenodd" d="M5.75 4.5C4.50736 4.5 3.5 5.50736 3.5 6.75V15.25C3.5 16.4926 4.50736 17.5 5.75 17.5H7.25C7.66421 17.5 8 17.8358 8 18.25C8 18.6642 7.66421 19 7.25 19H5.75C3.67893 19 2 17.3211 2 15.25V6.75C2 4.67893 3.67893 3 5.75 3H18.25C20.3211 3 22 4.67893 22 6.75V15.25C22 17.3211 20.3211 19 18.25 19H13.6682L15.5087 20.6989C15.8131 20.9799 15.8321 21.4543 15.5511 21.7587C15.2702 22.0631 14.7957 22.0821 14.4913 21.8011L11.2413 18.8011C11.0913 18.6627 11.0042 18.4691 11.0001 18.265C10.9961 18.0609 11.0753 17.864 11.2197 17.7197L14.4697 14.4697C14.7626 14.1768 15.2374 14.1768 15.5303 14.4697C15.8232 14.7626 15.8232 15.2374 15.5303 15.5303L13.5607 17.5H18.25C19.4926 17.5 20.5 16.4926 20.5 15.25V6.75C20.5 5.50736 19.4926 4.5 18.25 4.5H5.75Z" fill="currentColor"/></g></svg>