<svg width="24px" height="24px" viewBox="0 0 24 24" fill="currentColor" xmlns="http://www.w3.org/2000/svg"><g><path d="M11.9659 8.73244H5.49394C5.34517 8.73376 5.1976 8.70575 5.05966 8.65001C4.92172 8.59428 4.79611 8.51191 4.69002 8.40761C4.58393 8.3033 4.49944 8.17912 4.44136 8.04215C4.38329 7.90518 4.35277 7.7581 4.35156 7.60933V3.8731C4.35156 3.24642 4.86802 2.75 5.49394 2.75H10.8227C11.4602 2.75 11.9659 3.25721 11.9659 3.8731V8.73244ZM18.9064 15.2491H11.9728V8.72396H18.9064C19.5771 8.72396 20.1305 9.27665 20.1305 9.9465V14.0273C20.1305 14.7095 19.5778 15.2491 18.9064 15.2491ZM10.8227 21.25H5.49394C4.86802 21.25 4.35156 20.7436 4.35156 20.1292V16.3884C4.35156 15.774 4.86802 15.2676 5.49394 15.2676H11.9659V20.1292C11.9659 20.7436 11.4494 21.25 10.8227 21.25Z" fill="currentColor"/></g></svg>