<svg width="24px" height="24px" viewBox="0 0 24 24" fill="currentColor" xmlns="http://www.w3.org/2000/svg"><g><path fill-rule="evenodd" clip-rule="evenodd" d="M12 2C13.1973 2 14.3424 2.22272 15.3975 2.62695C14.4561 2.74787 13.7491 3.55028 13.75 4.50195L13.7588 4.67969C13.8423 5.55957 14.5317 6.27552 15.4258 6.37695L15.5986 6.40234C16.2371 6.51601 16.5606 6.88088 16.6182 7.5293L16.6436 7.70898C16.8084 8.59436 17.5844 9.2509 18.502 9.25L18.6836 9.24121C19.5802 9.15439 20.3027 8.43878 20.3818 7.52441L20.4014 7.36328C20.4129 7.28989 20.4286 7.22081 20.4482 7.15625C21.1191 8.45834 21.5 9.93438 21.5 11.5V19.3975C21.5 20.2824 20.7824 21 19.8975 21H4.10254C3.21755 21 2.5 20.2824 2.5 19.3975V11.5C2.5 6.25329 6.75329 2 12 2ZM10.0322 10C8.35775 10 7 11.3577 7 13.0322V14.5C7 17.2614 9.23858 19.5 12 19.5C14.7614 19.5 17 17.2614 17 14.5V13.0322C17 11.3577 15.6423 10 13.9678 10H10.0322Z" fill="currentColor"/><path d="M18.9847 1.4329C18.9568 1.18651 18.7485 1.00025 18.5005 1C18.2525 0.999747 18.0438 1.18557 18.0154 1.43191C17.838 2.96993 16.9699 3.83801 15.4319 4.01541C15.1856 4.04382 14.9997 4.25253 15 4.5005C15.0003 4.74847 15.1865 4.9568 15.4329 4.9847C16.9491 5.15645 17.8774 6.01617 18.0141 7.55536C18.0365 7.80725 18.2477 8.00028 18.5005 8C18.7534 7.99971 18.9642 7.80621 18.986 7.55426C19.1173 6.03683 20.0368 5.11734 21.5543 4.98599C21.8062 4.96418 21.9997 4.75344 22 4.50055C22.0003 4.24766 21.8073 4.03648 21.5554 4.01411C20.0162 3.87738 19.1564 2.94911 18.9847 1.4329Z" fill="currentColor"/></g></svg>