<svg width="24px" height="24px" viewBox="0 0 24 24" fill="currentColor" xmlns="http://www.w3.org/2000/svg"><g><path fill-rule="evenodd" clip-rule="evenodd" d="M3 6.75C3 4.67893 4.67893 3 6.75 3H17.25C19.3211 3 21 4.67893 21 6.75V17.25C21 19.3211 19.3211 21 17.25 21H6.75C4.67893 21 3 19.3211 3 17.25V6.75ZM12.0149 7.48305C12.257 7.48305 12.478 7.62047 12.5852 7.83755L13.5586 9.80993L15.7353 10.1262C15.9748 10.161 16.1738 10.3288 16.2486 10.559C16.3234 10.7893 16.261 11.042 16.0877 11.2109L14.5127 12.7462L14.8845 14.9141C14.9254 15.1527 14.8273 15.3938 14.6315 15.5361C14.4356 15.6784 14.176 15.6971 13.9617 15.5845L12.0149 14.561L10.068 15.5845C9.85376 15.6971 9.59413 15.6784 9.39829 15.5361C9.20245 15.3938 9.10437 15.1527 9.14529 14.9141L9.51711 12.7462L7.94207 11.2109C7.76873 11.042 7.70634 10.7893 7.78114 10.559C7.85595 10.3288 8.05496 10.161 8.29452 10.1262L10.4712 9.80993L11.4446 7.83755C11.5517 7.62047 11.7728 7.48305 12.0149 7.48305Z" fill="currentColor"/></g></svg>