<svg width="24px" height="24px" viewBox="0 0 24 24" fill="currentColor" xmlns="http://www.w3.org/2000/svg"><g><path d="M13 0.785721C13 0.480851 12.8204 0.203501 12.5393 0.0741891C12.2582 -0.0551232 11.9263 -0.0130522 11.6879 0.182121L9.28785 2.1464C9.10546 2.29568 9 2.51682 9 2.75C9 2.98318 9.10546 3.20432 9.28785 3.3536L11.6879 5.31788C11.9263 5.51305 12.2582 5.55512 12.5393 5.42581C12.8204 5.2965 13 5.01915 13 4.71428V3.5582C17.2232 4.05313 20.5 7.64389 20.5 12C20.5 16.6944 16.6944 20.5 12 20.5C7.30558 20.5 3.5 16.6944 3.5 12C3.5 9.74982 4.37337 7.70528 5.80106 6.18419C6.08453 5.88217 6.0695 5.40754 5.76748 5.12406C5.46546 4.84059 4.99083 4.85562 4.70735 5.15764C3.02903 6.94576 2 9.35353 2 12C2 17.5228 6.47715 22 12 22C17.5228 22 22 17.5228 22 12C22 6.81465 18.0533 2.5511 13 2.04938V0.785721Z" fill="currentColor"/><path d="M9.42139 15.8145C8.97021 15.8145 8.70703 15.5244 8.70703 15.0356V9.81494H8.6748L7.93896 10.3359C7.70801 10.4863 7.57373 10.5347 7.41797 10.5347C7.12256 10.5347 6.90234 10.3145 6.90234 10.019C6.90234 9.79346 7.04199 9.59473 7.31592 9.41211L8.27734 8.74072C8.66406 8.47754 8.97021 8.37012 9.271 8.37012C9.79199 8.37012 10.1411 8.72998 10.1411 9.27246V15.0356C10.1411 15.5298 9.87793 15.8145 9.42139 15.8145Z" fill="currentColor"/><path d="M14.1802 15.9058C12.7246 15.9058 11.6934 15.084 11.6934 14.2622C11.6934 13.9023 11.9243 13.6177 12.2842 13.6177C12.5098 13.6177 12.6816 13.7144 12.8589 13.9668C13.1973 14.4717 13.627 14.7241 14.1748 14.7241C14.9858 14.7241 15.5605 14.1602 15.5605 13.3491C15.5605 12.5649 15.0073 12.0278 14.2339 12.0278C13.874 12.0278 13.5088 12.1621 13.1919 12.4092C12.875 12.6777 12.7192 12.7422 12.5205 12.7422C12.0801 12.7422 11.7793 12.4253 11.8115 11.9312L12.0103 9.17041C12.0479 8.66016 12.354 8.41309 12.9448 8.41309H15.9849C16.4146 8.41309 16.667 8.6333 16.667 9.00928C16.667 9.38525 16.4199 9.59473 15.9849 9.59473H13.208L13.0576 11.4907H13.1328C13.3853 11.147 13.9814 10.9106 14.6099 10.9106C16.0063 10.9106 16.9678 11.8774 16.9678 13.2954C16.9678 14.8584 15.8452 15.9058 14.1802 15.9058Z" fill="currentColor"/></g></svg>