<svg width="24px" height="24px" viewBox="0 0 24 24" fill="currentColor" xmlns="http://www.w3.org/2000/svg"><g><path fill-rule="evenodd" clip-rule="evenodd" d="M3.48438 4.10636C3.48438 4.71707 3.98516 5.21239 4.60263 5.21239H13.8697C14.9259 5.21239 15.7957 5.53511 16.4791 6.18054C17.1624 6.82596 17.5041 7.65557 17.5041 8.66968C17.5041 9.60696 17.1624 10.3752 16.4788 10.9743C15.7957 11.5584 14.9259 11.8502 13.8697 11.8502H9.84223C9.22445 11.8502 8.72366 12.3452 8.72366 12.9566C8.72366 13.5673 9.22445 14.0626 9.84223 14.0626H14.2895L18.2964 20.4237C18.5449 20.8081 18.8943 21 19.3446 21C19.8419 21 20.1913 20.8081 20.3931 20.4237C20.595 20.0245 20.5561 19.6018 20.2768 19.1563L16.7121 13.4863C17.6751 13.0562 18.4363 12.4262 18.9952 11.5966C19.5545 10.7516 19.8342 9.77604 19.8342 8.66968C19.8342 7.54789 19.5777 6.56464 19.0653 5.71961C18.5684 4.87425 17.8696 4.21371 16.9686 3.73736C16.0677 3.24557 15.0349 3 13.8697 3H4.60295C3.98516 3 3.48438 3.495 3.48438 4.10636Z" fill="currentColor"/></g></svg>