<svg width="24px" height="24px" viewBox="0 0 24 24" fill="currentColor" xmlns="http://www.w3.org/2000/svg"><g><path d="M14.1413 6.5106H10.0757C9.92859 6.5106 9.80422 6.56945 9.70124 6.69784L6.78577 10.3087C6.35781 10.8437 6.25082 11.3385 6.25082 12.0473V15.7385C5.30129 18.3998 4.69947 20.2053 4.25813 21.8369C4.23139 21.9412 4.27151 21.9974 4.36512 21.9974H4.80646C4.8867 21.9974 4.96694 21.9573 4.99369 21.8904C8.32375 13.4114 11.948 9.2121 14.2216 6.69784C14.3152 6.59085 14.2751 6.5106 14.1413 6.5106Z" fill="currentColor"/><path d="M14.2617 2.35137C13.9889 2.45703 13.7267 2.63623 13.6064 2.73921C12.4027 3.76899 11.6003 4.58479 10.838 5.38721C10.7444 5.48083 10.7845 5.57444 10.9182 5.57444H15.4252C15.8398 5.57444 16.0805 5.81517 16.0805 6.22975V11.3118C16.0805 11.4455 16.1875 11.4856 16.2677 11.3653L18.9826 7.82123C19.4239 7.24616 19.5577 7.0723 19.678 6.26988C19.8385 5.09299 19.7449 3.28754 19.0361 2.53861C18.4075 1.86992 15.5723 1.84317 14.2617 2.35137Z" fill="currentColor"/><path d="M14.9437 7.52701C12.1486 10.6431 9.96872 13.9196 7.94928 17.8649C7.89846 17.9639 7.96266 18.0521 8.08302 18.012L12.2556 16.7281C12.7264 16.5837 12.9912 16.3938 13.2185 16.0193L15.0775 12.9567C15.1176 12.8765 15.131 12.7829 15.131 12.716V7.60725C15.131 7.47351 15.0374 7.42002 14.9437 7.52701Z" fill="currentColor"/></g></svg>