<svg width="24px" height="24px" viewBox="0 0 24 24" fill="currentColor" xmlns="http://www.w3.org/2000/svg"><g><path fill-rule="evenodd" clip-rule="evenodd" d="M12 2C12.4142 2 12.75 2.33579 12.75 2.75V4.00293C13.6524 4.00976 14.5549 4.02905 15.458 4.06055C17.3144 4.12528 18.4927 4.14803 19.5088 4.69727C20.3433 5.14852 21.083 5.91389 21.5049 6.76367C21.771 7.30002 21.8889 7.87057 21.9453 8.53906C21.96 8.71365 21.9697 8.89887 21.9775 9.0957C22.4307 9.28341 22.75 9.72894 22.75 10.25V12.75C22.75 13.2642 22.4389 13.7046 21.9951 13.8965C21.9915 14.499 21.983 15.0147 21.9453 15.4609C21.8889 16.1294 21.7711 16.7 21.5049 17.2363C21.083 18.086 20.3433 18.8516 19.5088 19.3027C18.4928 19.8519 17.3143 19.8747 15.458 19.9395C13.1513 20.0199 10.8487 20.0199 8.54199 19.9395C6.68566 19.8747 5.50723 19.8519 4.49121 19.3027C3.6567 18.8516 2.91703 18.086 2.49512 17.2363C2.2289 16.7 2.11113 16.1294 2.05469 15.4609C2.01704 15.0147 2.00756 14.499 2.00391 13.8965C1.56058 13.7044 1.25 13.2639 1.25 12.75V10.25C1.25 9.72926 1.56872 9.28361 2.02148 9.0957C2.02935 8.89886 2.03997 8.71366 2.05469 8.53906C2.11111 7.87057 2.22896 7.30002 2.49512 6.76367C2.91697 5.91389 3.65666 5.14852 4.49121 4.69727C5.50726 4.14803 6.68556 4.12528 8.54199 4.06055C9.44512 4.02905 10.3476 4.00976 11.25 4.00293V2.75C11.25 2.33579 11.5858 2 12 2ZM9.25 9C8.55964 9 8 9.55964 8 10.25V11.75C8.00023 12.4402 8.55979 13 9.25 13C9.94021 13 10.4998 12.4402 10.5 11.75V10.25C10.5 9.55964 9.94036 9 9.25 9ZM14.75 9C14.0596 9 13.5 9.55964 13.5 10.25V11.75C13.5002 12.4402 14.0598 13 14.75 13C15.4402 13 15.9998 12.4402 16 11.75V10.25C16 9.55964 15.4404 9 14.75 9Z" fill="currentColor"/></g></svg>