<svg width="24px" height="24px" viewBox="0 0 24 24" fill="currentColor" xmlns="http://www.w3.org/2000/svg"><g><path fill-rule="evenodd" clip-rule="evenodd" d="M12 2C12.8284 2 13.5 2.67157 13.5 3.5C13.5 4.11506 13.1293 4.64253 12.5996 4.87402V6.00488C13.2144 6.0102 13.8315 6.02131 14.458 6.04297C16.3134 6.10713 17.4915 6.1297 18.5078 6.67871C19.3425 7.12978 20.0829 7.89534 20.5049 8.74512C20.7067 9.15152 20.8225 9.57826 20.8916 10.0527C21.53 10.225 22 10.8072 22 11.5V13.5C22 14.1547 21.5799 14.7093 20.9951 14.9141C20.9914 15.5149 20.9827 16.0293 20.9453 16.4746C20.8889 17.1459 20.7714 17.718 20.5049 18.2549C20.0829 19.1047 19.3425 19.8702 18.5078 20.3213C17.4914 20.8703 16.3134 20.8929 14.458 20.957C12.7973 21.0145 11.2027 21.0145 9.54199 20.957C7.68658 20.8929 6.50855 20.8703 5.49219 20.3213C4.65747 19.8702 3.91709 19.1047 3.49512 18.2549C3.22857 17.718 3.11109 17.1458 3.05469 16.4746C3.0173 16.0293 3.00764 15.5149 3.00391 14.9141C2.41959 14.7091 2 14.1543 2 13.5V11.5C2 10.8075 2.46951 10.2254 3.10742 10.0527C3.17651 9.57821 3.29331 9.15156 3.49512 8.74512C3.91712 7.89534 4.65749 7.12978 5.49219 6.67871C6.50854 6.1297 7.68663 6.10713 9.54199 6.04297C10.1685 6.02131 10.7856 6.0102 11.4004 6.00488V4.87402C10.8707 4.64253 10.5 4.11506 10.5 3.5C10.5 2.67157 11.1716 2 12 2ZM9.125 10.25C8.50375 10.25 8.00011 10.7538 8 11.375V13.125C8 13.7463 8.50368 14.25 9.125 14.25C9.74632 14.25 10.25 13.7463 10.25 13.125V11.375C10.2499 10.7538 9.74625 10.25 9.125 10.25ZM14.875 10.25C14.2537 10.25 13.7501 10.7538 13.75 11.375V13.125C13.75 13.7463 14.2537 14.25 14.875 14.25C15.4963 14.25 16 13.7463 16 13.125V11.375C15.9999 10.7538 15.4963 10.25 14.875 10.25Z" fill="currentColor"/></g></svg>