<svg width="24px" height="24px" viewBox="0 0 24 24" fill="currentColor" xmlns="http://www.w3.org/2000/svg"><g><path fill-rule="evenodd" clip-rule="evenodd" d="M21.25 8.53567C21.25 8.31511 21.25 8.09455 21.249 7.87399C21.2479 7.68796 21.2459 7.50193 21.2408 7.3159C21.23 6.91044 21.2058 6.5019 21.1339 6.10107C21.0609 5.69407 20.9412 5.31533 20.7531 4.94533C20.5681 4.58201 20.3265 4.25004 20.0383 3.96175C19.75 3.67346 19.4175 3.43193 19.0542 3.24693C18.6847 3.05885 18.3059 2.93962 17.8994 2.86614C17.4986 2.79419 17.0896 2.77004 16.6841 2.75925C16.4981 2.75411 16.312 2.75206 16.126 2.75103C15.905 2.75 15.6841 2.75 15.4631 2.75H8.5369C8.31593 2.75 8.09496 2.75 7.87399 2.75103C7.68796 2.75206 7.50193 2.75411 7.3159 2.75925C6.91044 2.77056 6.50139 2.79419 6.10056 2.86665C5.69356 2.93962 5.31533 3.05936 4.94585 3.24744C4.58253 3.43244 4.25004 3.67397 3.96175 3.96226C3.67346 4.25056 3.43193 4.58253 3.24693 4.94585C3.05885 5.31585 2.93911 5.69458 2.86614 6.10158C2.79419 6.50242 2.77004 6.91147 2.75925 7.31642C2.75411 7.50244 2.75206 7.68847 2.75103 7.8745C2.75 8.09496 2.75 8.31593 2.75 8.5369V15.4626C2.75 15.6836 2.75 15.9045 2.75103 16.1255C2.75206 16.3115 2.75411 16.4976 2.75925 16.6836C2.77004 17.089 2.79419 17.4976 2.86614 17.8984C2.93911 18.3054 3.05885 18.6842 3.24693 19.0542C3.43193 19.4175 3.67346 19.7494 3.96175 20.0377C4.25004 20.326 4.58253 20.5676 4.94585 20.7526C5.31533 20.9406 5.69407 21.0599 6.10056 21.1333C6.50139 21.2053 6.91044 21.2294 7.3159 21.2402C7.50193 21.2454 7.68796 21.2474 7.87399 21.2485C8.05073 21.2497 8.22748 21.2496 8.40422 21.2495L15.4626 21.2495C15.6836 21.2495 15.9045 21.2495 16.1255 21.2485C16.3115 21.2474 16.4976 21.2454 16.6836 21.2402C17.089 21.2294 17.4981 21.2053 17.8989 21.1333C18.3059 21.0604 18.6842 20.9406 19.0536 20.7526C19.417 20.5676 19.7494 20.326 20.0377 20.0377C20.326 19.7494 20.5676 19.4175 20.7526 19.0542C20.9406 18.6842 21.0604 18.3054 21.1333 17.8984C21.2053 17.4976 21.2294 17.0885 21.2402 16.6836C21.2454 16.4976 21.2474 16.3115 21.2485 16.1255C21.2497 15.9488 21.2496 15.772 21.2495 15.5953L21.25 8.53567ZM7.61831 17.8418C8.42492 17.8418 9.0788 17.1879 9.0788 16.3813C9.0788 15.5747 8.42492 14.9208 7.61831 14.9208C6.8117 14.9208 6.15782 15.5747 6.15782 16.3813C6.15782 17.1879 6.8117 17.8418 7.61831 17.8418ZM11.9998 17.8418C11.9998 14.6153 9.38425 11.9998 6.15782 11.9998V10.0525C10.4597 10.0525 13.9471 13.5398 13.9471 17.8418H11.9998ZM6.15782 8.10514C11.5352 8.10514 15.8944 12.4644 15.8944 17.8418H17.8418C17.8418 11.3889 12.6107 6.15782 6.15782 6.15782V8.10514Z" fill="currentColor"/></g></svg>