<svg width="24px" height="24px" viewBox="0 0 24 24" fill="currentColor" xmlns="http://www.w3.org/2000/svg"><g><path fill-rule="evenodd" clip-rule="evenodd" d="M19.0711 18.6791C20.9464 16.8037 22 14.2602 22 11.608C22 8.95584 20.9464 6.4123 19.0711 4.53693C17.1957 2.66157 14.6522 1.608 12 1.608C9.34784 1.608 6.8043 2.66157 4.92893 4.53693C3.05357 6.4123 2 8.95584 2 11.608C2 14.2602 3.05357 16.8037 4.92893 18.6791C6.8043 20.5544 9.34784 21.608 12 21.608C14.6522 21.608 17.1957 20.5544 19.0711 18.6791ZM11.8542 2.27529C11.8542 2.19452 11.9192 2.1295 12 2.1295C12.0808 2.1295 12.1458 2.19452 12.1458 2.27529V3.95699C12.1458 4.03777 12.0808 4.10279 12 4.10279C11.9192 4.10279 11.8542 4.03777 11.8542 3.95699V2.27529ZM11.0166 2.1899C11.0266 2.18874 11.0365 2.18874 11.0462 2.18978C11.1138 2.19634 11.1694 2.24948 11.1768 2.31978L11.2502 3.02333C11.2586 3.10366 11.2007 3.17509 11.1203 3.18347C11.04 3.19186 10.9686 3.13393 10.9602 3.05359L10.8867 2.35004C10.8783 2.2697 10.9362 2.19828 11.0166 2.1899ZM12.8298 2.32041C12.8372 2.25012 12.8929 2.19698 12.9605 2.19047C12.9701 2.18961 12.98 2.18962 12.99 2.19066C13.0704 2.1991 13.1283 2.27053 13.1199 2.35086L13.0459 3.05441C13.0374 3.13474 12.966 3.19262 12.8857 3.18417C12.8053 3.17572 12.7474 3.10423 12.7558 3.0239L12.8298 2.32041ZM10.037 2.33498C10.0468 2.3329 10.0567 2.33194 10.0664 2.33186C10.1343 2.33133 10.1952 2.37828 10.2098 2.44743L10.5581 4.09269C10.5748 4.17171 10.5247 4.24875 10.4457 4.26548C10.3666 4.28221 10.2895 4.23206 10.2728 4.15304L9.92453 2.50783C9.9078 2.42881 9.95796 2.35171 10.037 2.33498ZM13.7967 2.44877C13.8114 2.37964 13.8723 2.33255 13.9402 2.33325C13.9499 2.33325 13.9598 2.33437 13.9696 2.33645C14.0486 2.35323 14.0988 2.43036 14.082 2.50936L13.7325 4.15438C13.7157 4.23338 13.6386 4.2835 13.5596 4.2667C13.4806 4.24992 13.4305 4.1728 13.4473 4.09379L13.7967 2.44877ZM9.07379 2.60223C9.093 2.59586 9.11249 2.59378 9.13137 2.59551C9.18799 2.60033 9.23877 2.63818 9.25747 2.6958L9.47606 3.36858C9.50103 3.4454 9.45932 3.52735 9.3825 3.55232C9.30568 3.57728 9.22374 3.53551 9.19876 3.45869L8.98017 2.78591C8.9552 2.70909 8.99697 2.6272 9.07379 2.60223ZM14.7439 2.69616C14.7626 2.63854 14.8133 2.60067 14.87 2.59586C14.8888 2.59426 14.9084 2.59629 14.9276 2.60253C15.0044 2.6275 15.0461 2.70945 15.0212 2.78627L14.8024 3.45905C14.7775 3.53585 14.6955 3.57759 14.6187 3.55261C14.5419 3.52764 14.5002 3.44569 14.5251 3.36888L14.7439 2.69616ZM8.15014 2.94659C8.16859 2.93839 8.18776 2.93423 8.2067 2.93388C8.26352 2.93278 8.31796 2.96523 8.34255 3.02059L9.02566 4.55732C9.05847 4.63113 9.02537 4.71694 8.9516 4.74974C8.87779 4.78255 8.79198 4.74955 8.75917 4.67574L8.07614 3.13902C8.04333 3.06521 8.07637 2.9794 8.15014 2.94659ZM15.6691 3.02556C15.6938 2.97025 15.7483 2.938 15.8051 2.93904C15.824 2.93946 15.8432 2.94361 15.8616 2.95182C15.9354 2.98473 15.9683 3.0706 15.9354 3.14437L15.2503 4.68015C15.2174 4.75391 15.1315 4.7868 15.0577 4.7539C14.984 4.72099 14.9511 4.63511 14.984 4.56135L15.6691 3.02556ZM7.26536 3.40733C7.29159 3.39216 7.32043 3.38593 7.34842 3.38801C7.39508 3.39127 7.43926 3.41697 7.46451 3.4607L7.81821 4.07332C7.8586 4.14327 7.8348 4.23209 7.76485 4.27247C7.6949 4.31286 7.60609 4.28907 7.5657 4.21912L7.212 3.60649C7.17162 3.53654 7.19541 3.44772 7.26536 3.40733ZM16.5356 3.46069C16.5608 3.41696 16.6049 3.39112 16.6516 3.38801C16.6796 3.38607 16.7085 3.39219 16.7347 3.40732C16.8047 3.44771 16.8285 3.53653 16.7881 3.60648L16.4344 4.21911C16.394 4.28906 16.3052 4.31285 16.2352 4.27246C16.1653 4.23208 16.1414 4.14326 16.1818 4.07331L16.5356 3.46069ZM6.43433 3.93563C6.45885 3.91786 6.48694 3.90886 6.515 3.90782C6.56173 3.90622 6.6083 3.92719 6.63795 3.96805L7.62547 5.32928C7.67292 5.39467 7.65847 5.48548 7.59309 5.53291C7.52771 5.58032 7.43683 5.56587 7.3894 5.50049L6.40194 4.13926C6.35449 4.07387 6.36895 3.98306 6.43433 3.93563ZM17.3724 3.97526C17.4021 3.93446 17.4487 3.9135 17.4955 3.91523C17.5235 3.91624 17.5516 3.92538 17.5761 3.94319C17.6414 3.99071 17.6557 4.08155 17.6082 4.14687L16.6189 5.50678C16.5714 5.57207 16.4806 5.58637 16.4152 5.53886C16.3499 5.49134 16.3356 5.40049 16.3831 5.33517L17.3724 3.97526ZM5.66483 4.56995C5.69485 4.54293 5.73282 4.5305 5.77004 4.53258C5.80726 4.53453 5.84376 4.55073 5.87078 4.58076L6.34403 5.10649C6.39809 5.16652 6.39326 5.2584 6.33322 5.31244C6.27319 5.36649 6.18137 5.36167 6.12734 5.30163L5.65402 4.77584C5.59997 4.71581 5.6048 4.62399 5.66483 4.56995ZM18.1303 4.58181C18.1573 4.5518 18.1938 4.53569 18.231 4.53362C18.2683 4.53167 18.3062 4.54399 18.3362 4.57101C18.3962 4.62505 18.4011 4.71693 18.347 4.77696L17.8736 5.30262C17.8196 5.36263 17.7278 5.36748 17.6678 5.31343C17.6077 5.25938 17.6029 5.16751 17.657 5.10748L18.1303 4.58181ZM4.95536 5.26661C4.98238 5.2366 5.01883 5.22049 5.05604 5.21841C5.09327 5.21646 5.13119 5.22879 5.16122 5.25581L6.41114 6.38095C6.47119 6.43499 6.47596 6.5268 6.42191 6.58683C6.36787 6.64685 6.27606 6.65169 6.21603 6.59764L4.96617 5.4725C4.90615 5.41846 4.90132 5.32665 4.95536 5.26661ZM18.8432 5.26065C18.8733 5.23365 18.9113 5.22125 18.9485 5.22333C18.9857 5.22531 19.0222 5.24156 19.0492 5.27159C19.1032 5.33166 19.0983 5.42348 19.0382 5.47748L17.7875 6.60174C17.7677 6.61959 17.7444 6.631 17.7201 6.63612L13.1432 12.8052L5.03249 18.2613L5.46379 17.6799L5.15679 17.9559C5.09672 18.0099 5.0049 18.005 4.9509 17.945C4.8969 17.8849 4.90178 17.7931 4.96185 17.7391L6.21252 16.6148C6.23224 16.5971 6.25538 16.5856 6.27948 16.5805L10.8568 10.4108L18.9675 4.95473L18.535 5.53777L18.8432 5.26065ZM4.33928 6.04204C4.36895 6.00121 4.41555 5.98015 4.46229 5.98188C4.49034 5.98289 4.51848 5.99196 4.54297 6.00976L5.11526 6.42556C5.18059 6.47304 5.19495 6.5639 5.14747 6.62925C5.1 6.69461 5.0092 6.70894 4.94385 6.66146L4.37156 6.24566C4.3062 6.19818 4.2918 6.10738 4.33928 6.04204ZM19.461 6.015C19.4855 5.99719 19.5136 5.98822 19.5417 5.98718C19.5884 5.98558 19.635 6.00655 19.6646 6.04741C19.7121 6.11279 19.6977 6.2036 19.6323 6.25104L19.0597 6.66646C18.9943 6.71388 18.9035 6.69948 18.856 6.63411C18.8086 6.56873 18.8231 6.47785 18.8885 6.43042L19.461 6.015ZM3.7914 6.86893C3.81664 6.82521 3.86078 6.79938 3.90743 6.79626C3.93542 6.79432 3.96433 6.80044 3.99055 6.81557L5.44693 7.65642C5.51688 7.69681 5.54067 7.78563 5.50029 7.85558C5.4599 7.92553 5.37108 7.94933 5.30113 7.90894L3.84476 7.06809C3.77481 7.0277 3.75101 6.93888 3.7914 6.86893ZM20.0095 6.81559C20.0357 6.80041 20.0646 6.79418 20.0926 6.79626C20.1392 6.79952 20.1834 6.82523 20.2087 6.86895C20.2491 6.9389 20.2253 7.02772 20.1553 7.0681L18.6989 7.90895C18.6289 7.94934 18.5401 7.92554 18.4997 7.85559C18.4593 7.78564 18.4831 7.69683 18.5531 7.65644L20.0095 6.81559ZM3.35194 7.75075C3.37662 7.69543 3.4311 7.6629 3.48792 7.66429C3.50685 7.66467 3.52606 7.66876 3.54449 7.677L4.19053 7.96519C4.26429 7.99809 4.29724 8.08397 4.26434 8.15774C4.23143 8.23151 4.14556 8.26439 4.07179 8.23148L3.42569 7.94329C3.35192 7.91039 3.31903 7.82452 3.35194 7.75075ZM20.4583 7.683C20.4767 7.67479 20.496 7.67063 20.5149 7.67028C20.5717 7.66915 20.6261 7.70152 20.6508 7.75687C20.6836 7.83066 20.6507 7.91651 20.5769 7.94935L19.9307 8.2371C19.8569 8.26995 19.771 8.23696 19.7381 8.16317C19.7053 8.08937 19.7383 8.00355 19.8121 7.97068L20.4583 7.683ZM2.98786 8.67172C3.00663 8.61412 3.0574 8.57629 3.11403 8.57154C3.1329 8.56995 3.15248 8.572 3.17167 8.57827L4.77062 9.09928C4.84744 9.12431 4.88907 9.20629 4.86406 9.28308C4.83904 9.35987 4.75706 9.40153 4.68026 9.37653L3.0813 8.85552C3.00449 8.83049 2.96285 8.74852 2.98786 8.67172ZM20.8305 8.5845C20.8498 8.57812 20.8692 8.57605 20.8881 8.57778C20.9447 8.58258 20.9955 8.62045 21.0143 8.67807C21.0393 8.75488 20.9975 8.83683 20.9207 8.8618L19.3214 9.38168C19.2446 9.40665 19.1626 9.36493 19.1376 9.28811C19.1127 9.2113 19.1544 9.12935 19.2312 9.10438L20.8305 8.5845ZM2.73755 9.63949C2.75225 9.57036 2.81316 9.52321 2.88108 9.5239C2.89078 9.5239 2.90066 9.5251 2.91053 9.52717L3.60244 9.67423C3.68144 9.69102 3.73156 9.76813 3.71476 9.84714C3.69796 9.92614 3.62085 9.97626 3.54184 9.95946L2.84987 9.81241C2.77087 9.79561 2.72075 9.7185 2.73755 9.63949ZM21.0899 9.52841C21.0997 9.52668 21.1095 9.52537 21.1192 9.52529C21.1872 9.52471 21.2481 9.57159 21.2628 9.64073C21.2796 9.71974 21.2294 9.79684 21.1504 9.81364L20.4585 9.96063C20.3795 9.97742 20.3024 9.92726 20.2856 9.84825C20.2688 9.76924 20.3189 9.6922 20.3979 9.6754L21.0899 9.52841ZM2.57408 10.6117C2.5815 10.5414 2.63716 10.4883 2.70477 10.4819C2.71443 10.4809 2.7243 10.4809 2.73434 10.482L4.40673 10.6588C4.48706 10.6673 4.5449 10.7388 4.53642 10.8191C4.52793 10.8995 4.45641 10.9573 4.37609 10.9488L2.7037 10.772C2.62337 10.7635 2.56559 10.692 2.57408 10.6117ZM21.2672 10.4946C21.2772 10.4934 21.2871 10.4934 21.2968 10.4944C21.3644 10.501 21.42 10.5541 21.4273 10.6244C21.4357 10.7048 21.3778 10.7762 21.2974 10.7846L19.6249 10.9591C19.5445 10.9675 19.4731 10.9096 19.4647 10.8292C19.4563 10.7489 19.5142 10.6775 19.5946 10.6691L21.2672 10.4946ZM2.53066 11.6082C2.53066 11.5275 2.59568 11.4625 2.67645 11.4625H3.38384C3.46461 11.4625 3.5297 11.5275 3.5297 11.6082C3.5297 11.689 3.46461 11.754 3.38384 11.754H2.67645C2.59568 11.754 2.53066 11.689 2.53066 11.6082ZM20.4704 11.6082C20.4704 11.5275 20.5354 11.4625 20.6162 11.4625H21.3236C21.4043 11.4625 21.4694 11.5275 21.4694 11.6082C21.4694 11.689 21.4043 11.754 21.3236 11.754H20.6162C20.5354 11.754 20.4704 11.689 20.4704 11.6082ZM4.3752 12.2574C4.38525 12.2562 4.39512 12.2562 4.40478 12.2572C4.47239 12.2638 4.528 12.3169 4.53534 12.3872C4.54372 12.4676 4.48581 12.539 4.40547 12.5474L2.73282 12.7219C2.65249 12.7303 2.58107 12.6724 2.57269 12.5921C2.56431 12.5117 2.62222 12.4403 2.70256 12.4319L4.3752 12.2574ZM19.4637 12.3974C19.4711 12.3271 19.5267 12.274 19.5943 12.2676C19.604 12.2666 19.6139 12.2667 19.624 12.2677L21.2963 12.4445C21.3766 12.453 21.4345 12.5245 21.426 12.6048C21.4175 12.6852 21.346 12.743 21.2657 12.7345L19.5933 12.5577C19.513 12.5492 19.4552 12.4777 19.4637 12.3974ZM3.5416 13.2556C3.55147 13.2536 3.56134 13.2526 3.57104 13.2525C3.63896 13.2519 3.69983 13.2989 3.71451 13.368C3.73129 13.447 3.6812 13.5241 3.6022 13.5409L2.91022 13.6879C2.83121 13.7046 2.75411 13.6545 2.73731 13.5755C2.72053 13.4965 2.77061 13.4194 2.84962 13.4026L3.5416 13.2556ZM20.2853 13.3694C20.3 13.3003 20.3609 13.2532 20.4288 13.2539C20.4385 13.2539 20.4484 13.255 20.4582 13.2571L21.1501 13.4042C21.2291 13.421 21.2793 13.4981 21.2625 13.5771C21.2457 13.6561 21.1685 13.7062 21.0895 13.6894L20.3976 13.5423C20.3186 13.5256 20.2685 13.4484 20.2853 13.3694ZM4.67869 13.8349C4.69789 13.8285 4.71738 13.8264 4.73626 13.8281C4.79289 13.8329 4.84369 13.8708 4.86243 13.9284C4.8874 14.0052 4.84562 14.0872 4.7688 14.1122L3.16952 14.632C3.09271 14.657 3.01076 14.6153 2.98579 14.5385C2.96082 14.4617 3.00254 14.3797 3.07936 14.3547L4.67869 13.8349ZM19.136 13.9335C19.1548 13.8759 19.2055 13.838 19.2622 13.8333C19.281 13.8317 19.3006 13.8338 19.3198 13.84L20.9188 14.361C20.9956 14.3861 21.0373 14.468 21.0122 14.5448C20.9872 14.6216 20.9052 14.6633 20.8284 14.6383L19.2295 14.1173C19.1526 14.0923 19.111 14.0103 19.136 13.9335ZM4.0694 14.9795C4.08784 14.9712 4.10702 14.9672 4.12597 14.9668C4.18278 14.9657 4.23726 14.998 4.26188 15.0534C4.29473 15.1272 4.2618 15.213 4.18801 15.2459L3.54172 15.5336C3.46793 15.5664 3.3821 15.5335 3.34923 15.4597C3.31638 15.3859 3.34932 15.3 3.42311 15.2672L4.0694 14.9795ZM19.7357 15.0588C19.7604 15.0035 19.8149 14.971 19.8717 14.9724C19.8907 14.9727 19.9099 14.9768 19.9283 14.9851L20.5743 15.2733C20.6481 15.3062 20.681 15.392 20.6481 15.4658C20.6152 15.5396 20.5293 15.5725 20.4555 15.5395L19.8095 15.2514C19.7357 15.2185 19.7028 15.1326 19.7357 15.0588ZM5.30113 15.3076C5.32737 15.2925 5.35627 15.2862 5.38425 15.2883C5.43091 15.2916 5.47503 15.3173 5.50029 15.361C5.54067 15.4309 5.51688 15.5198 5.44693 15.5602L3.99055 16.401C3.9206 16.4414 3.83179 16.4176 3.7914 16.3476C3.75101 16.2777 3.77481 16.1889 3.84476 16.1485L5.30113 15.3076ZM18.4997 15.361C18.525 15.3173 18.5692 15.2914 18.6158 15.2883C18.6438 15.2864 18.6727 15.2925 18.6989 15.3076L20.1553 16.1485C20.2253 16.1889 20.2491 16.2777 20.2087 16.3476C20.1683 16.4176 20.0794 16.4414 20.0095 16.401L18.5531 15.5602C18.4831 15.5198 18.4593 15.4309 18.4997 15.361ZM4.94032 16.5501C4.96484 16.5323 4.99294 16.5233 5.02099 16.5222C5.06773 16.5206 5.11436 16.5416 5.14401 16.5825C5.19143 16.6479 5.17697 16.7387 5.11159 16.7861L4.53899 17.2015C4.47361 17.249 4.3828 17.2345 4.33536 17.1692C4.28794 17.1038 4.3024 17.013 4.36778 16.9655L4.94032 16.5501ZM18.8525 16.5873C18.8822 16.5465 18.9288 16.5254 18.9756 16.5272C19.0036 16.5282 19.0317 16.5373 19.0562 16.5551L19.6285 16.9709C19.6938 17.0184 19.7082 17.1092 19.6607 17.1745C19.6133 17.2399 19.5225 17.2543 19.4571 17.2068L18.8848 16.791C18.8195 16.7435 18.8051 16.6526 18.8525 16.5873ZM17.5781 16.6297C17.6051 16.5997 17.6416 16.5836 17.6788 16.5815C17.716 16.5796 17.7539 16.5919 17.784 16.6189L19.0339 17.744C19.0939 17.7981 19.0987 17.8899 19.0447 17.9499C18.9907 18.0099 18.8988 18.0148 18.8387 17.9607L17.5889 16.8356C17.5289 16.7816 17.524 16.6897 17.5781 16.6297ZM7.38114 17.7096C7.41084 17.6688 7.45749 17.6478 7.50422 17.6496C7.53227 17.6505 7.56034 17.6597 7.58483 17.6775C7.65012 17.725 7.66442 17.8159 7.6169 17.8812L6.62761 19.2411C6.5801 19.3064 6.48924 19.3207 6.42393 19.2732C6.35864 19.2257 6.34434 19.1348 6.39185 19.0695L7.38114 17.7096ZM16.407 17.6835C16.4315 17.6657 16.4596 17.6567 16.4877 17.6557C16.5344 17.6541 16.581 17.675 16.6106 17.7159L17.5981 19.0771C17.6455 19.1425 17.631 19.2333 17.5657 19.2808C17.5003 19.3282 17.4095 19.3137 17.362 19.2483L16.3746 17.8871C16.3272 17.8217 16.3416 17.7309 16.407 17.6835ZM6.12638 17.9139C6.1534 17.8839 6.1899 17.8678 6.22712 17.8657C6.26434 17.8638 6.30226 17.8761 6.33229 17.9031C6.3923 17.9571 6.39715 18.049 6.3431 18.109L5.86972 18.6347C5.81568 18.6947 5.72386 18.6996 5.66384 18.6455C5.6038 18.5915 5.59901 18.4996 5.65306 18.4396L6.12638 17.9139ZM17.6669 17.9038C17.6969 17.8768 17.7348 17.8643 17.772 17.8664C17.8092 17.8684 17.8457 17.8846 17.8727 17.9146L18.346 18.4403C18.4 18.5004 18.3952 18.5922 18.3352 18.6463C18.2751 18.7003 18.1833 18.6955 18.1293 18.6355L17.656 18.1097C17.602 18.0496 17.6068 17.9578 17.6669 17.9038ZM8.7498 18.536C8.77448 18.4807 8.8289 18.4482 8.88572 18.4496C8.90465 18.45 8.92392 18.4541 8.94234 18.4623C9.01611 18.4952 9.049 18.5811 9.01609 18.6548L8.33091 20.1906C8.29801 20.2644 8.21213 20.2973 8.13837 20.2644C8.0646 20.2315 8.03171 20.1456 8.06462 20.0718L8.7498 18.536ZM15.0484 18.4664C15.0669 18.4582 15.0861 18.4542 15.105 18.4538C15.1619 18.4527 15.2163 18.4851 15.2409 18.5404L15.9239 20.0772C15.9567 20.151 15.9237 20.2368 15.8499 20.2696C15.7761 20.3024 15.6903 20.2694 15.6575 20.1956L14.9744 18.6589C14.9416 18.5851 14.9746 18.4993 15.0484 18.4664ZM7.5657 18.9971C7.59094 18.9534 7.63508 18.9275 7.68173 18.9244C7.70972 18.9225 7.73863 18.9286 7.76485 18.9437C7.8348 18.9841 7.8586 19.0729 7.81821 19.1429L7.46451 19.7555C7.42413 19.8255 7.33531 19.8493 7.26536 19.8089C7.19541 19.7685 7.17162 19.6797 7.212 19.6097L7.5657 18.9971ZM16.2352 18.9437C16.2615 18.9286 16.2903 18.9223 16.3183 18.9244C16.3649 18.9277 16.4091 18.9534 16.4344 18.9971L16.7881 19.6097C16.8285 19.6797 16.8047 19.7685 16.7347 19.8089C16.6648 19.8493 16.5759 19.8255 16.5356 19.7555L16.1819 19.1429C16.1415 19.0729 16.1653 18.9841 16.2352 18.9437ZM10.2676 19.0619C10.2823 18.9928 10.3431 18.9457 10.4111 18.9464C10.4207 18.9464 10.4306 18.9475 10.4405 18.9496C10.5195 18.9664 10.5696 19.0435 10.5528 19.1225L10.2033 20.7675C10.1866 20.8465 10.1094 20.8966 10.0304 20.8798C9.95143 20.8631 9.90131 20.7859 9.91811 20.7069L10.2676 19.0619ZM13.5544 18.9505C13.5643 18.9485 13.5741 18.9475 13.5838 18.9474C13.6517 18.9469 13.7126 18.9939 13.7272 19.063L14.0756 20.7082C14.0923 20.7872 14.0421 20.8643 13.9631 20.881C13.8841 20.8978 13.807 20.8476 13.7903 20.7686L13.442 19.1233C13.4252 19.0443 13.4754 18.9673 13.5544 18.9505ZM11.8542 19.2591C11.8542 19.1784 11.9192 19.1133 12 19.1133C12.0808 19.1133 12.1458 19.1784 12.1458 19.2591V20.9408C12.1458 21.0216 12.0808 21.0866 12 21.0866C11.9192 21.0866 11.8542 21.0216 11.8542 20.9408V19.2591ZM9.19757 19.7571C9.21629 19.6994 9.2671 19.6616 9.32373 19.6568C9.3426 19.6552 9.36211 19.6573 9.3813 19.6635C9.4581 19.6885 9.49984 19.7704 9.47487 19.8472L9.25621 20.5199C9.23124 20.5967 9.14929 20.6386 9.07247 20.6136C8.99567 20.5886 8.95393 20.5067 8.9789 20.4298L9.19757 19.7571ZM14.6176 19.6638C14.6368 19.6574 14.6563 19.6554 14.6751 19.6571C14.7318 19.6619 14.7825 19.6998 14.8013 19.7574L15.0199 20.4302C15.0449 20.507 15.0031 20.5889 14.9263 20.6139C14.8495 20.6388 14.7675 20.5971 14.7425 20.5203L14.5239 19.8475C14.499 19.7707 14.5408 19.6888 14.6176 19.6638ZM10.9541 20.1617C10.9615 20.0914 11.0172 20.0383 11.0848 20.0318C11.0945 20.0309 11.1044 20.0309 11.1144 20.0319C11.1947 20.0404 11.2526 20.1119 11.2442 20.1922L11.1702 20.8957C11.1618 20.976 11.0903 21.0339 11.01 21.0254C10.9296 21.017 10.8718 20.9456 10.8802 20.8652L10.9541 20.1617ZM12.8797 20.0326C12.8897 20.0315 12.8996 20.0315 12.9093 20.0325C12.9769 20.0391 13.0325 20.0922 13.0399 20.1625L13.1133 20.8661C13.1217 20.9464 13.0638 21.0178 12.9834 21.0262C12.9031 21.0346 12.8317 20.9767 12.8233 20.8964L12.7498 20.1928C12.7414 20.1124 12.7993 20.041 12.8797 20.0326Z" fill="currentColor"/></g></svg>