<svg width="24px" height="24px" viewBox="0 0 24 24" fill="currentColor" xmlns="http://www.w3.org/2000/svg"><g><path d="M3.75 3C4.16421 3 4.5 3.33579 4.5 3.75V17.25C4.5 18.4926 5.50736 19.5 6.75 19.5H20.25C20.6642 19.5 21 19.8358 21 20.25C21 20.6642 20.6642 21 20.25 21H6.75C4.67893 21 3 19.3211 3 17.25V3.75C3 3.33579 3.33579 3 3.75 3Z" fill="currentColor"/><path d="M19.25 5.25C19.6642 5.25 20 5.58579 20 6C20 6.41421 19.6642 6.75 19.25 6.75C16.7284 6.75 15.0813 8.06617 13.2236 9.58105C13.0797 9.69846 12.9332 9.81561 12.7861 9.93457C12.9606 10.1223 13.1328 10.3084 13.3018 10.4922C13.6053 10.8222 13.9021 11.1429 14.1963 11.4492C15.5628 10.3668 17.1629 9.5 19.25 9.5C19.6642 9.5 20 9.83579 20 10.25C20 10.6642 19.6642 11 19.25 11C17.6799 11 16.4494 11.6063 15.2822 12.5039C16.4598 13.5482 17.6865 14.25 19.25 14.25C19.6642 14.25 20 14.5858 20 15C20 15.4142 19.6642 15.75 19.25 15.75C17.1221 15.75 15.5011 14.7358 14.127 13.4854C13.8432 13.7448 13.558 14.0158 13.2666 14.293C11.4608 16.011 9.41374 18 6.25 18C5.83579 18 5.5 17.6642 5.5 17.25C5.5 16.8358 5.83579 16.5 6.25 16.5C8.72845 16.5 10.3604 14.989 12.2334 13.207C12.5018 12.9517 12.7757 12.6906 13.0576 12.4307C12.7628 12.1209 12.4768 11.8106 12.1982 11.5078C11.9937 11.2854 11.7914 11.0679 11.5918 10.8555C10.1532 11.8884 8.4802 12.75 6.25 12.75C5.83579 12.75 5.5 12.4142 5.5 12C5.5 11.5858 5.83579 11.25 6.25 11.25C7.96503 11.25 9.27509 10.6405 10.5225 9.77441C9.25012 8.57816 7.94874 7.75 6.25 7.75C5.83579 7.75 5.5 7.41421 5.5 7C5.5 6.58579 5.83579 6.25 6.25 6.25C8.56812 6.25 10.2854 7.45267 11.7363 8.85449C11.9147 8.71145 12.095 8.56681 12.2764 8.41895C14.0975 6.93386 16.1294 5.25 19.25 5.25Z" fill="currentColor"/></g></svg>