<svg width="24px" height="24px" viewBox="0 0 24 24" fill="currentColor" xmlns="http://www.w3.org/2000/svg"><g><path d="M20.25 15C20.6642 15 21 15.3358 21 15.75V17.25C21 19.3211 19.3211 21 17.25 21H15.75C15.3358 21 15 20.6642 15 20.25C15 19.8358 15.3358 19.5 15.75 19.5H17.25C18.4926 19.5 19.5 18.4926 19.5 17.25V15.75C19.5 15.3358 19.8358 15 20.25 15Z" fill="currentColor"/><path d="M3.75 14.75C4.16421 14.75 4.5 15.0858 4.5 15.5V17L4.51172 17.2305C4.62714 18.3648 5.58517 19.25 6.75 19.25H8.25C8.66421 19.25 9 19.5858 9 20C9 20.4142 8.66421 20.75 8.25 20.75H6.75C4.74378 20.75 3.10551 19.1746 3.00488 17.1934L3 17V15.5C3 15.0858 3.33579 14.75 3.75 14.75Z" fill="currentColor"/><path d="M8 15H7V9H8V15Z" fill="currentColor"/><path d="M11 15H9V9H11V15Z" fill="currentColor"/><path d="M13 15H12V9H13V15Z" fill="currentColor"/><path d="M15 15H14V9H15V15Z" fill="currentColor"/><path d="M17 15H16V9H17V15Z" fill="currentColor"/><path d="M8.25 3C8.66421 3 9 3.33579 9 3.75C9 4.16421 8.66421 4.5 8.25 4.5H6.75C5.50736 4.5 4.5 5.50736 4.5 6.75V8.25C4.5 8.66421 4.16421 9 3.75 9C3.33579 9 3 8.66421 3 8.25V6.75C3 4.67893 4.67893 3 6.75 3H8.25Z" fill="currentColor"/><path d="M17.25 3C19.3211 3 21 4.67893 21 6.75V8.25C21 8.66421 20.6642 9 20.25 9C19.8358 9 19.5 8.66421 19.5 8.25V6.75C19.5 5.50736 18.4926 4.5 17.25 4.5H15.75C15.3358 4.5 15 4.16421 15 3.75C15 3.33579 15.3358 3 15.75 3H17.25Z" fill="currentColor"/></g></svg>