<svg width="24px" height="24px" viewBox="0 0 24 24" fill="currentColor" xmlns="http://www.w3.org/2000/svg"><g><path d="M3.75 15C4.16421 15 4.5 15.3358 4.5 15.75V17.25C4.5 18.4926 5.50736 19.5 6.75 19.5H8.25C8.66421 19.5 9 19.8358 9 20.25C9 20.6642 8.66421 21 8.25 21H6.75C4.67893 21 3 19.3211 3 17.25V15.75C3 15.3358 3.33579 15 3.75 15Z" fill="currentColor"/><path d="M20.25 15C20.6642 15 21 15.3358 21 15.75V17.25C21 19.3211 19.3211 21 17.25 21H15.75C15.3358 21 15 20.6642 15 20.25C15 19.8358 15.3358 19.5 15.75 19.5H17.25C18.4926 19.5 19.5 18.4926 19.5 17.25V15.75C19.5 15.3358 19.8358 15 20.25 15Z" fill="currentColor"/><path d="M10.3301 7C10.7443 7 11.0801 7.33579 11.0801 7.75V16.25C11.0801 16.6642 10.7443 17 10.3301 17C9.91586 17 9.58008 16.6642 9.58008 16.25V7.75C9.58008 7.33579 9.91586 7 10.3301 7Z" fill="currentColor"/><path d="M17 8.5C17.4142 8.5 17.75 8.83579 17.75 9.25V14.75C17.75 15.1642 17.4142 15.5 17 15.5C16.5858 15.5 16.25 15.1642 16.25 14.75V9.25C16.25 8.83579 16.5858 8.5 17 8.5Z" fill="currentColor"/><path d="M7 10C7.41421 10 7.75 10.3358 7.75 10.75V13.25C7.75 13.6642 7.41421 14 7 14C6.58579 14 6.25 13.6642 6.25 13.25V10.75C6.25 10.3358 6.58579 10 7 10Z" fill="currentColor"/><path d="M13.6699 10C14.0841 10 14.4199 10.3358 14.4199 10.75V13.25C14.4199 13.6642 14.0841 14 13.6699 14C13.2557 14 12.9199 13.6642 12.9199 13.25V10.75C12.9199 10.3358 13.2557 10 13.6699 10Z" fill="currentColor"/><path d="M8.25 3C8.66421 3 9 3.33579 9 3.75C9 4.16421 8.66421 4.5 8.25 4.5H6.75C5.50736 4.5 4.5 5.50736 4.5 6.75V8.25C4.5 8.66421 4.16421 9 3.75 9C3.33579 9 3 8.66421 3 8.25V6.75C3 4.67893 4.67893 3 6.75 3H8.25Z" fill="currentColor"/><path d="M17.25 3C19.3211 3 21 4.67893 21 6.75V8.25C21 8.66421 20.6642 9 20.25 9C19.8358 9 19.5 8.66421 19.5 8.25V6.75C19.5 5.50736 18.4926 4.5 17.25 4.5H15.75C15.3358 4.5 15 4.16421 15 3.75C15 3.33579 15.3358 3 15.75 3H17.25Z" fill="currentColor"/></g></svg>