<svg width="24px" height="24px" viewBox="0 0 24 24" fill="currentColor" xmlns="http://www.w3.org/2000/svg"><g><path fill-rule="evenodd" clip-rule="evenodd" d="M5.75 4C3.67893 4 2 5.67893 2 7.75V16.25C2 18.3211 3.67893 20 5.75 20H18.25C20.3211 20 22 18.3211 22 16.25V7.75C22 5.67893 20.3211 4 18.25 4H5.75ZM11.5969 8.47282C11.6434 8.58985 11.6585 8.71162 11.646 8.82872L16.2694 8.01145C16.6396 7.94603 17.0009 8.16465 17.1148 8.52283C17.2286 8.88102 17.0598 9.26815 16.7198 9.42841L11.1067 12.0743L15.572 11.506C15.9268 11.4608 16.2641 11.6725 16.3778 12.0117C16.4915 12.3508 16.3498 12.7231 16.0394 12.9008L14.1868 13.9618L17.3387 13.2676C17.7432 13.1785 18.1433 13.4341 18.2324 13.8387C18.3215 14.2432 18.0659 14.6433 17.6613 14.7324L9.7169 16.4824C9.35511 16.5621 8.98933 16.3657 8.8559 16.0201C8.72246 15.6745 8.86134 15.2833 9.18281 15.0992L12.0292 13.469L6.59469 14.1607C6.22869 14.2072 5.88317 13.9807 5.77995 13.6265C5.67673 13.2723 5.84648 12.8956 6.18021 12.7383L11.0005 10.4661L6.63055 11.2386C6.25172 11.3055 5.88365 11.075 5.77854 10.7049C5.67343 10.3349 5.86536 9.94527 6.22282 9.8031L10.6228 8.0531C11.0077 7.90002 11.4438 8.08793 11.5969 8.47282Z" fill="currentColor"/></g></svg>