<svg width="24px" height="24px" viewBox="0 0 24 24" fill="currentColor" xmlns="http://www.w3.org/2000/svg"><g><path d="M12 16C13.1046 16 14 16.8954 14 18C14 19.28 14.803 20.3691 15.9316 20.7998C15.9721 20.8153 15.9999 20.8541 16 20.8975C16 20.954 15.954 21 15.8975 21H5C3.34315 21 2 19.6569 2 18C2 16.8954 2.89543 16 4 16H12Z" fill="currentColor"/><path fill-rule="evenodd" clip-rule="evenodd" d="M17.5039 3C17.1892 3.41817 17 3.93631 17 4.5V19C17 19.5522 16.5254 20.0209 16.041 19.7559C15.4207 19.4163 15 18.7571 15 18C15 16.3431 13.6569 15 12 15H5V6C5 4.34315 6.34315 3 8 3H17.5039ZM10.585 9.8291C10.4002 9.73685 10.187 9.72555 9.99512 9.79492L9.91504 9.8291L9.07324 10.25H8.5C8.08579 10.25 7.75 10.5858 7.75 11C7.75 11.4142 8.08579 11.75 8.5 11.75H9.25C9.36629 11.75 9.48092 11.7228 9.58496 11.6709L10.25 11.3379L10.915 11.6709C11.0191 11.7228 11.1337 11.75 11.25 11.75H13.5C13.9142 11.75 14.25 11.4142 14.25 11C14.25 10.5858 13.9142 10.25 13.5 10.25H11.4268L10.585 9.8291ZM10.585 6.3291C10.4002 6.23685 10.187 6.22555 9.99512 6.29492L9.91504 6.3291L9.07324 6.75H8.5C8.08579 6.75 7.75 7.08579 7.75 7.5C7.75 7.91421 8.08579 8.25 8.5 8.25H9.25C9.36629 8.25 9.48092 8.22284 9.58496 8.1709L10.25 7.83789L10.915 8.1709C11.0191 8.22284 11.1337 8.25 11.25 8.25H13.5C13.9142 8.25 14.25 7.91421 14.25 7.5C14.25 7.08579 13.9142 6.75 13.5 6.75H11.4268L10.585 6.3291Z" fill="currentColor"/><path d="M19.5 3C20.3284 3 21 3.67157 21 4.5V7C21 8.10457 20.1046 9 19 9H18V4.5C18 3.67157 18.6716 3 19.5 3Z" fill="currentColor"/></g></svg>