<svg width="24px" height="24px" viewBox="0 0 24 24" fill="currentColor" xmlns="http://www.w3.org/2000/svg"><g><path d="M14 18C14 19.2802 14.8031 20.3696 15.932 20.8002C15.9725 20.8157 16 20.8542 16 20.8976C16 20.9541 15.9541 21 15.8976 21H5C3.34315 21 2 19.6569 2 18C2 16.8954 2.89543 16 4 16H12C13.1046 16 14 16.8954 14 18Z" fill="currentColor"/><path d="M17 19C17 19.5522 16.5254 20.0209 16.041 19.7559C15.4207 19.4163 15 18.7571 15 18C15 16.3431 13.6569 15 12 15H5V6C5 4.34315 6.34315 3 8 3H17.5039C17.1892 3.41817 17 3.93631 17 4.5V19Z" fill="currentColor"/><path d="M19.5 3C20.3284 3 21 3.67157 21 4.5V7C21 8.10457 20.1046 9 19 9H18V4.5C18 3.67157 18.6716 3 19.5 3Z" fill="currentColor"/></g></svg>