<svg width="24px" height="24px" viewBox="0 0 24 24" fill="currentColor" xmlns="http://www.w3.org/2000/svg"><g><path fill-rule="evenodd" clip-rule="evenodd" d="M7.75 2C5.67893 2 4 3.67893 4 5.75V18.25C4 20.3211 5.67893 22 7.75 22H16.25C18.3211 22 20 20.3211 20 18.25V11.8491C20 11.1552 19.8074 10.4748 19.4437 9.88376L18.3338 8.08009C18.1155 7.72548 18 7.31726 18 6.90087V5.75C18 3.67893 16.3211 2 14.25 2H7.75ZM9.25 6C9.66421 6 10 6.33579 10 6.75V9.25C10 9.66421 9.66421 10 9.25 10C8.83579 10 8.5 9.66421 8.5 9.25V6.75C8.5 6.33579 8.83579 6 9.25 6ZM13.5 6.75C13.5 6.33579 13.1642 6 12.75 6C12.3358 6 12 6.33579 12 6.75V9.25C12 9.66421 12.3358 10 12.75 10C13.1642 10 13.5 9.66421 13.5 9.25V6.75Z" fill="currentColor"/></g></svg>