<svg width="24px" height="24px" viewBox="0 0 24 24" fill="currentColor" xmlns="http://www.w3.org/2000/svg"><g><path d="M9.06641 3.23633C9.46829 3.13673 9.8748 3.38132 9.97461 3.7832C10.0741 4.18491 9.82936 4.59148 9.42773 4.69141C6.59746 5.39437 4.5002 7.95341 4.5 11C4.50026 14.5896 7.41031 17.5 11 17.5C12.795 17.5 14.4196 16.7736 15.5967 15.5967C16.4194 14.7739 17.0214 13.732 17.3096 12.5684C17.4091 12.1664 17.8158 11.9212 18.2178 12.0205C18.6198 12.1201 18.8652 12.5267 18.7656 12.9287C18.4724 14.1129 17.9145 15.1915 17.1611 16.1006L20.7803 19.7197C21.0729 20.0126 21.0729 20.4874 20.7803 20.7803C20.4874 21.0728 20.0126 21.0728 19.7197 20.7803L16.1016 17.1621C14.7172 18.3093 12.9388 19 11 19C6.58188 19 3.00026 15.4181 3 11C3.0002 7.24806 5.58312 4.10147 9.06641 3.23633Z" fill="currentColor"/><path d="M16 2C16.2409 2 16.4574 2.1482 16.5439 2.37305L17.2402 4.18555C17.3418 4.44944 17.5506 4.65819 17.8145 4.75977L19.627 5.45605C19.8518 5.5426 20 5.75906 20 6C20 6.24094 19.8518 6.4574 19.627 6.54395L17.8145 7.24023C17.5506 7.34181 17.3418 7.55056 17.2402 7.81445L16.5439 9.62695C16.4574 9.8518 16.2409 10 16 10C15.7591 10 15.5426 9.8518 15.4561 9.62695L14.7598 7.81445C14.6582 7.55056 14.4494 7.34181 14.1855 7.24023L12.373 6.54395C12.1482 6.4574 12 6.24094 12 6C12 5.75906 12.1482 5.5426 12.373 5.45605L14.1855 4.75977C14.4494 4.65819 14.6582 4.44944 14.7598 4.18555L15.4561 2.37305C15.5426 2.1482 15.7591 2 16 2Z" fill="currentColor"/></g></svg>