<svg width="24px" height="24px" viewBox="0 0 24 24" fill="currentColor" xmlns="http://www.w3.org/2000/svg"><g><path fill-rule="evenodd" clip-rule="evenodd" d="M2 7.75C2 5.67893 3.67893 4 5.75 4H18.25C20.3211 4 22 5.67893 22 7.75V16.25C22 18.3211 20.3211 20 18.25 20H5.75C3.67893 20 2 18.3211 2 16.25V7.75ZM6 8.75C6 8.33579 6.33579 8 6.75 8H10.25C10.6642 8 11 8.33579 11 8.75C11 9.16421 10.6642 9.5 10.25 9.5H6.75C6.33579 9.5 6 9.16421 6 8.75ZM13.75 8C13.3358 8 13 8.33579 13 8.75C13 9.16421 13.3358 9.5 13.75 9.5H17.25C17.6642 9.5 18 9.16421 18 8.75C18 8.33579 17.6642 8 17.25 8H13.75ZM6 12C6 11.5858 6.33579 11.25 6.75 11.25H10.25C10.6642 11.25 11 11.5858 11 12C11 12.4142 10.6642 12.75 10.25 12.75H6.75C6.33579 12.75 6 12.4142 6 12ZM13.75 11.25C13.3358 11.25 13 11.5858 13 12C13 12.4142 13.3358 12.75 13.75 12.75H17.25C17.6642 12.75 18 12.4142 18 12C18 11.5858 17.6642 11.25 17.25 11.25H13.75ZM6 15.25C6 14.8358 6.33579 14.5 6.75 14.5H10.25C10.6642 14.5 11 14.8358 11 15.25C11 15.6642 10.6642 16 10.25 16H6.75C6.33579 16 6 15.6642 6 15.25ZM13.75 14.5C13.3358 14.5 13 14.8358 13 15.25C13 15.6642 13.3358 16 13.75 16H17.25C17.6642 16 18 15.6642 18 15.25C18 14.8358 17.6642 14.5 17.25 14.5H13.75Z" fill="currentColor"/></g></svg>