<svg width="24px" height="24px" viewBox="0 0 24 24" fill="currentColor" xmlns="http://www.w3.org/2000/svg"><g><path d="M2 12C2 6.47715 6.47715 2 12 2C12.4142 2 12.75 2.33579 12.75 2.75C12.75 3.16421 12.4142 3.5 12 3.5C7.30558 3.5 3.5 7.30558 3.5 12C3.5 16.6944 7.30558 20.5 12 20.5C16.6944 20.5 20.5 16.6944 20.5 12C20.5 10.2763 19.8778 9.11155 18.9756 8.34961C18.0516 7.56937 16.7654 7.156 15.373 7.09668C13.983 7.03753 12.5498 7.33563 11.3906 7.9043C10.2227 8.47734 9.41464 9.28049 9.11426 10.1816C8.98331 10.5744 8.55884 10.7869 8.16602 10.6562C7.77306 10.5253 7.56042 10.1 7.69141 9.70703C8.16188 8.29591 9.34531 7.23615 10.7305 6.55664C12.1246 5.87283 13.8076 5.52834 15.4365 5.59766C17.0631 5.66689 18.6995 6.15281 19.9434 7.20312C21.209 8.27191 22 9.86955 22 12C22 17.5228 17.5228 22 12 22C6.47715 22 2 17.5228 2 12Z" fill="currentColor"/></g></svg>