<svg width="24px" height="24px" viewBox="0 0 24 24" fill="currentColor" xmlns="http://www.w3.org/2000/svg"><g><path fill-rule="evenodd" clip-rule="evenodd" d="M2 8C2 5.79086 3.79086 4 6 4H18C20.2091 4 22 5.79086 22 8V11.25H2V8ZM6.25 7.5C6.25 7.91421 5.91421 8.25 5.5 8.25C5.08579 8.25 4.75 7.91421 4.75 7.5C4.75 7.08579 5.08579 6.75 5.5 6.75C5.91421 6.75 6.25 7.08579 6.25 7.5Z" fill="currentColor"/><path fill-rule="evenodd" clip-rule="evenodd" d="M2 12.75H22V16C22 18.2091 20.2091 20 18 20H6C3.79086 20 2 18.2091 2 16V12.75ZM6.25 16.5C6.25 16.9142 5.91421 17.25 5.5 17.25C5.08579 17.25 4.75 16.9142 4.75 16.5C4.75 16.0858 5.08579 15.75 5.5 15.75C5.91421 15.75 6.25 16.0858 6.25 16.5Z" fill="currentColor"/></g></svg>