<svg width="24px" height="24px" viewBox="0 0 24 24" fill="currentColor" xmlns="http://www.w3.org/2000/svg"><g><path d="M9 12.75C10.9534 12.75 12.5778 14.149 12.9287 16H20.25C20.6642 16 21 16.3358 21 16.75C21 17.1642 20.6642 17.5 20.25 17.5H12.9287C12.5778 19.351 10.9534 20.75 9 20.75C7.0466 20.75 5.42223 19.351 5.07129 17.5H3.75C3.33579 17.5 3 17.1642 3 16.75C3 16.3358 3.33579 16 3.75 16H5.07129C5.42223 14.149 7.0466 12.75 9 12.75Z" fill="currentColor"/><path d="M15 3.25C16.9534 3.25 18.5778 4.64901 18.9287 6.5H20.25C20.6642 6.5 21 6.83579 21 7.25C21 7.66421 20.6642 8 20.25 8H18.9287C18.5778 9.85099 16.9534 11.25 15 11.25C13.0466 11.25 11.4222 9.85099 11.0713 8H3.75C3.33579 8 3 7.66421 3 7.25C3 6.83579 3.33579 6.5 3.75 6.5H11.0713C11.4222 4.64901 13.0466 3.25 15 3.25Z" fill="currentColor"/></g></svg>