<svg width="24px" height="24px" viewBox="0 0 24 24" fill="currentColor" xmlns="http://www.w3.org/2000/svg"><g><path fill-rule="evenodd" clip-rule="evenodd" d="M10.1289 2.96207C11.2872 2.2952 12.7128 2.2952 13.8711 2.96207L19.1211 5.98477C20.2836 6.65405 21 7.89326 21 9.23461V14.7657C21 16.1071 20.2836 17.3463 19.1211 18.0155L13.871 21.0382C12.7128 21.7051 11.2872 21.7051 10.1289 21.0383L4.87899 18.0158C3.71649 17.3466 3 16.1073 3 14.7659V9.23459C3 7.89323 3.71645 6.65402 4.87891 5.98474L10.1289 2.96207ZM8.37503 12C8.37503 9.99797 9.998 8.375 12 8.375C14.0021 8.375 15.625 9.99797 15.625 12C15.625 14.002 14.0021 15.625 12 15.625C9.998 15.625 8.37503 14.002 8.37503 12Z" fill="currentColor"/></g></svg>