<svg width="24px" height="24px" viewBox="0 0 24 24" fill="currentColor" xmlns="http://www.w3.org/2000/svg"><g><path fill-rule="evenodd" clip-rule="evenodd" d="M8.51789 3H15.4821C16.2949 2.99999 16.9506 2.99999 17.4815 3.04336C18.0281 3.08803 18.5082 3.18239 18.9525 3.40873C19.6581 3.76825 20.2317 4.34193 20.5913 5.04754C20.8176 5.49175 20.912 5.9719 20.9566 6.51853C21 7.04944 21 7.70505 21 8.51788V15.4821C21 16.295 21 16.9506 20.9566 17.4815C20.912 18.0281 20.8176 18.5082 20.5913 18.9525C20.2317 19.6581 19.6581 20.2317 18.9525 20.5913C18.5082 20.8176 18.0281 20.912 17.4815 20.9566C16.9506 21 16.295 21 15.4821 21H8.51788C7.70505 21 7.04944 21 6.51853 20.9566C5.9719 20.912 5.49175 20.8176 5.04754 20.5913C4.34193 20.2317 3.76825 19.6581 3.40873 18.9525C3.18239 18.5082 3.08803 18.0281 3.04336 17.4815C2.99999 16.9506 2.99999 16.2949 3 15.4821V8.5179C2.99999 7.70506 2.99999 7.04944 3.04336 6.51853C3.08803 5.9719 3.18239 5.49175 3.40873 5.04754C3.76825 4.34193 4.34193 3.76825 5.04754 3.40873C5.49175 3.18239 5.9719 3.08803 6.51853 3.04336C7.04944 2.99999 7.70505 2.99999 8.51789 3ZM15.536 8.44103C13.6196 6.51971 10.378 6.51932 8.46393 8.44115C6.51203 10.3998 6.51195 13.5729 8.46393 15.5315C10.2349 17.3084 13.0071 17.4728 14.9643 16.025L12.2197 13.2803C11.9268 12.9874 11.9268 12.5125 12.2197 12.2197C12.5126 11.9268 12.9875 11.9268 13.2803 12.2197L16.0241 14.9635C17.4715 13.0007 17.3088 10.2199 15.536 8.44103Z" fill="currentColor"/></g></svg>