<svg width="24px" height="24px" viewBox="0 0 24 24" fill="currentColor" xmlns="http://www.w3.org/2000/svg"><g><path d="M3.01758 17.6113C3.69651 17.3303 4.43644 17.1618 5.23926 17.2988C5.5575 17.3532 5.92293 17.574 6.37598 18.0322C6.82571 18.4871 7.27117 19.0788 7.78809 19.752C8.09418 20.1505 8.4288 20.5786 8.79395 21H6.75C4.80083 21 3.19939 19.5129 3.01758 17.6113Z" fill="currentColor"/><path d="M5.82812 11.8398C6.53166 11.6509 6.96992 11.7779 7.35938 12.0459C7.81931 12.3624 8.22465 12.8798 8.80078 13.6016C9.34852 14.2878 10.0098 15.0978 10.9238 15.7852C11.643 16.326 12.4291 16.6726 13.1572 16.9629C13.9129 17.2641 14.5683 17.4921 15.1826 17.8164C15.7739 18.1286 16.2707 18.5045 16.6582 19.0518C16.9836 19.5113 17.2547 20.128 17.4199 20.9951C17.3636 20.9976 17.307 21 17.25 21H10.8994C10.2316 20.436 9.61664 19.6698 8.97852 18.8389C8.48707 18.1989 7.97419 17.5154 7.44238 16.9775C6.91392 16.443 6.27355 15.9539 5.49121 15.8203C4.56708 15.6626 3.72685 15.7905 3 16.0225V13.4248C4.25445 12.488 5.15717 12.0201 5.82812 11.8398Z" fill="currentColor"/><path d="M11.168 3C11.0886 4.87431 11.4742 6.22482 12.25 7.23242C13.1459 8.39587 14.4666 8.96666 15.6924 9.43555C16.9746 9.92599 18.1753 10.3163 19.21 11.0615C19.912 11.5672 20.5394 12.2444 21 13.2559V17.25C21 18.7388 20.1322 20.0244 18.875 20.6299C18.6743 19.6296 18.3393 18.8316 17.8818 18.1855C17.3195 17.3914 16.6139 16.8762 15.8828 16.4902C15.1747 16.1163 14.3872 15.8381 13.7129 15.5693C13.0112 15.2896 12.3795 15.002 11.8262 14.5859C11.0781 14.0234 10.5178 13.3489 9.97266 12.666C9.45597 12.0187 8.89685 11.2822 8.20996 10.8096C7.45249 10.2884 6.56021 10.0906 5.43945 10.3916C4.72721 10.5829 3.9286 10.9757 3 11.5908V6.75C3 4.67893 4.67893 3 6.75 3H11.168Z" fill="currentColor"/><path d="M17.25 3C19.3211 3 21 4.67893 21 6.75V10.625C20.7133 10.3334 20.4073 10.0755 20.0869 9.84473C18.8508 8.95439 17.4037 8.48467 16.2285 8.03516C14.9969 7.56405 14.0512 7.11316 13.4385 6.31738C12.934 5.66224 12.5866 4.67281 12.668 3H17.25Z" fill="currentColor"/></g></svg>