<svg width="24px" height="24px" viewBox="0 0 24 24" fill="currentColor" xmlns="http://www.w3.org/2000/svg"><g><path fill-rule="evenodd" clip-rule="evenodd" d="M12 3.5V6H18.0208C16.4818 4.45569 14.3525 3.5 12 3.5ZM19.2124 7.5H12V9.5H20.1264C19.908 8.78911 19.5988 8.11794 19.2124 7.5ZM20.4418 11H12V13H20.4418C20.4802 12.672 20.5 12.3383 20.5 12C20.5 11.6617 20.4802 11.328 20.4418 11ZM20.1264 14.5H12V16.5H19.2124C19.5988 15.8821 19.908 15.2109 20.1264 14.5ZM18.0208 18H12V20.5C14.3525 20.5 16.4818 19.5443 18.0208 18ZM2 12C2 6.47715 6.47715 2 12 2C17.5228 2 22 6.47715 22 12C22 17.5228 17.5228 22 12 22C6.47715 22 2 17.5228 2 12Z" fill="currentColor"/></g></svg>