<svg width="24px" height="24px" viewBox="0 0 24 24" fill="currentColor" xmlns="http://www.w3.org/2000/svg"><g><path fill-rule="evenodd" clip-rule="evenodd" d="M17.0543 12.9532C16.6293 13.4051 16.0282 13.6875 15.3601 13.6875C14.6485 13.6875 14.013 13.3672 13.5852 12.8629C13.1575 13.3672 12.5219 13.6875 11.8104 13.6875C11.0988 13.6875 10.4633 13.3672 10.0355 12.8629C9.60775 13.3672 8.97221 13.6875 8.26064 13.6875C7.0893 13.6875 6.12398 12.8195 5.9524 11.6919L5.93727 11.6953L4.18369 3.9219L4.18164 3.91078C4.08412 3.38028 3.62744 3 3.10016 3C2.46662 3 1.95855 3.54342 2.00267 4.19175L2.72763 14.8442C2.96373 18.3134 5.8171 21 9.25119 21H11.4974C13.9265 21 16.2151 19.8447 17.6741 17.8795L21.4805 12.7526C21.7782 12.3516 21.7405 11.7733 21.2984 11.5408C20.4343 11.0865 19.3874 11.081 18.5078 11.5585C18.3788 11.6285 18.2518 11.7345 18.1109 11.8778L17.0543 12.9532ZM10.596 11.332C10.596 12.0151 11.1432 12.5625 11.8104 12.5625C12.4776 12.5625 13.0247 12.0151 13.0247 11.332V8.34375C13.0247 7.66069 12.4776 7.11328 11.8104 7.11328C11.1432 7.11328 10.596 7.66069 10.596 8.34375V11.332ZM14.1457 11.332C14.1457 12.0151 14.6929 12.5625 15.3601 12.5625C16.0273 12.5625 16.5745 12.0151 16.5745 11.332V8.94141C16.5745 8.25835 16.0273 7.71094 15.3601 7.71094C14.6929 7.71094 14.1457 8.25835 14.1457 8.94141V11.332ZM9.47502 7.74609C9.47502 7.06303 8.92785 6.51562 8.26064 6.51562C7.59343 6.51562 7.04627 7.06303 7.04627 7.74609V11.332C7.04627 12.0151 7.59343 12.5625 8.26064 12.5625C8.92785 12.5625 9.47502 12.0151 9.47502 11.332V7.74609Z" fill="currentColor"/></g></svg>