<svg width="24px" height="24px" viewBox="0 0 24 24" fill="currentColor" xmlns="http://www.w3.org/2000/svg"><g><path d="M13.75 7C13.75 5.20507 15.2051 3.75 17 3.75C18.7949 3.75 20.25 5.20507 20.25 7C20.25 8.79493 18.7949 10.25 17 10.25C15.2051 10.25 13.75 8.79493 13.75 7Z" fill="currentColor"/><path fill-rule="evenodd" clip-rule="evenodd" d="M12.9375 7C12.9375 4.75634 14.7563 2.9375 17 2.9375C19.2437 2.9375 21.0625 4.75634 21.0625 7C21.0625 9.24366 19.2437 11.0625 17 11.0625C14.7563 11.0625 12.9375 9.24366 12.9375 7ZM17 9.4375C18.3462 9.4375 19.4375 8.34619 19.4375 7C19.4375 5.65381 18.3462 4.5625 17 4.5625C15.6538 4.5625 14.5625 5.65381 14.5625 7C14.5625 8.34619 15.6538 9.4375 17 9.4375Z" fill="currentColor"/><path fill-rule="evenodd" clip-rule="evenodd" d="M7 3C7.41421 3 7.75 3.33579 7.75 3.75V6.25H10.25C10.6642 6.25 11 6.58579 11 7C11 7.41421 10.6642 7.75 10.25 7.75H7.75V10.25C7.75 10.6642 7.41421 11 7 11C6.58579 11 6.25 10.6642 6.25 10.25V7.75H3.75C3.33579 7.75 3 7.41421 3 7C3 6.58579 3.33579 6.25 3.75 6.25H6.25V3.75C6.25 3.33579 6.58579 3 7 3Z" fill="currentColor"/><path fill-rule="evenodd" clip-rule="evenodd" d="M19.8284 14.1716C20.1213 14.4645 20.1213 14.9393 19.8284 15.2322L18.0607 17L19.8284 18.7678C20.1213 19.0607 20.1213 19.5355 19.8284 19.8284C19.5355 20.1213 19.0607 20.1213 18.7678 19.8284L17 18.0607L15.2322 19.8284C14.9393 20.1213 14.4645 20.1213 14.1716 19.8284C13.8787 19.5355 13.8787 19.0607 14.1716 18.7678L15.9393 17L14.1716 15.2322C13.8787 14.9393 13.8787 14.4645 14.1716 14.1716C14.4645 13.8787 14.9393 13.8787 15.2322 14.1716L17 15.9393L18.7678 14.1716C19.0607 13.8787 19.5355 13.8787 19.8284 14.1716Z" fill="currentColor"/><path d="M3.75 15.25C3.75 14.4216 4.42157 13.75 5.25 13.75H8.75C9.57843 13.75 10.25 14.4216 10.25 15.25V18.75C10.25 19.5784 9.57843 20.25 8.75 20.25H5.25C4.42157 20.25 3.75 19.5784 3.75 18.75V15.25Z" fill="currentColor"/><path fill-rule="evenodd" clip-rule="evenodd" d="M3 15.25C3 14.0074 4.00736 13 5.25 13H8.75C9.99264 13 11 14.0074 11 15.25V18.75C11 19.9926 9.99264 21 8.75 21H5.25C4.00736 21 3 19.9926 3 18.75V15.25ZM5.25 14.5C4.83579 14.5 4.5 14.8358 4.5 15.25V18.75C4.5 19.1642 4.83579 19.5 5.25 19.5H8.75C9.16421 19.5 9.5 19.1642 9.5 18.75V15.25C9.5 14.8358 9.16421 14.5 8.75 14.5H5.25Z" fill="currentColor"/></g></svg>