<svg width="24px" height="24px" viewBox="0 0 24 24" fill="currentColor" xmlns="http://www.w3.org/2000/svg"><g><path d="M12 1C12.2063 1 12.4036 1.08502 12.5453 1.23503L16.7953 5.73503C17.0797 6.03617 17.0661 6.51085 16.765 6.79526C16.4638 7.07967 15.9891 7.06611 15.7047 6.76497L12.75 3.63642V13.25C12.75 13.6642 12.4142 14 12 14C11.5858 14 11.25 13.6642 11.25 13.25V3.63642L8.29526 6.76497C8.01085 7.06611 7.53617 7.07967 7.23503 6.79526C6.93389 6.51085 6.92033 6.03617 7.20474 5.73503L11.4547 1.23503C11.5964 1.08502 11.7937 1 12 1Z" fill="currentColor"/><path d="M4 12.75C4 10.6789 5.67893 9 7.75 9H9.75V13.25C9.75 14.4926 10.7574 15.5 12 15.5C13.2426 15.5 14.25 14.4926 14.25 13.25V9H16.25C18.3211 9 20 10.6789 20 12.75V17.25C20 19.3211 18.3211 21 16.25 21H7.75C5.67893 21 4 19.3211 4 17.25V12.75Z" fill="currentColor"/></g></svg>