<svg width="24px" height="24px" viewBox="0 0 24 24" fill="currentColor" xmlns="http://www.w3.org/2000/svg"><g><path fill-rule="evenodd" clip-rule="evenodd" d="M12.75 1.75C12.75 1.33579 12.4142 1 12 1C11.5858 1 11.25 1.33579 11.25 1.75V4H6.75C4.67893 4 3 5.67893 3 7.75V17.25C3 19.3211 4.67893 21 6.75 21H17.25C19.3211 21 21 19.3211 21 17.25V7.75C21 5.67893 19.3211 4 17.25 4H12.75V1.75ZM12.75 4H11.25V13.1893L9.03033 10.9697C8.73744 10.6768 8.26256 10.6768 7.96967 10.9697C7.67678 11.2626 7.67678 11.7374 7.96967 12.0303L11.4697 15.5303C11.7626 15.8232 12.2374 15.8232 12.5303 15.5303L16.0303 12.0303C16.3232 11.7374 16.3232 11.2626 16.0303 10.9697C15.7374 10.6768 15.2626 10.6768 14.9697 10.9697L12.75 13.1893V4Z" fill="currentColor"/></g></svg>