<svg width="24px" height="24px" viewBox="0 0 24 24" fill="currentColor" xmlns="http://www.w3.org/2000/svg"><g><path fill-rule="evenodd" clip-rule="evenodd" d="M10.5352 2.05673C11.4712 1.65964 12.5288 1.65964 13.4648 2.05673L18.7148 4.28427C20.1002 4.87217 21 6.23145 21 7.73642V13.0001C21 17.9706 16.9705 22.0001 12 22.0001C7.02946 22.0001 3.00003 17.9706 3 13.0001V7.73642C3 6.23145 3.89979 4.87217 5.28516 4.28427L10.5352 2.05673ZM12 14.5997C11.3925 14.5997 10.9004 15.0928 10.9004 15.7003C10.9005 16.3077 11.3925 16.7999 12 16.7999C12.6074 16.7998 13.0995 16.3077 13.0996 15.7003C13.0996 15.0928 12.6075 14.5998 12 14.5997ZM12 7.58017C11.743 7.58017 11.4975 7.67716 11.3252 7.8497C11.1525 8.02222 11.0671 8.25615 11.0801 8.50009C11.0834 8.56341 11.0865 8.6272 11.0898 8.69052C11.1498 9.83037 11.2095 10.9706 11.2695 12.1104C11.2729 12.1736 11.2769 12.2367 11.2803 12.2999C11.2899 12.4811 11.3739 12.6552 11.5088 12.7833C11.644 12.9114 11.8187 12.9835 12 12.9835C12.1813 12.9835 12.356 12.9114 12.4912 12.7833C12.6261 12.6552 12.7101 12.4811 12.7197 12.2999C12.7231 12.2367 12.7271 12.1736 12.7305 12.1104C12.7905 10.9706 12.8502 9.83037 12.9102 8.69052C12.9135 8.6272 12.9166 8.56341 12.9199 8.50009C12.9329 8.25615 12.8475 8.02222 12.6748 7.8497C12.5025 7.67716 12.257 7.58017 12 7.58017Z" fill="currentColor"/></g></svg>