<svg width="24px" height="24px" viewBox="0 0 24 24" fill="currentColor" xmlns="http://www.w3.org/2000/svg"><g><path fill-rule="evenodd" clip-rule="evenodd" d="M10.8141 2.35455C11.5839 2.09796 12.4161 2.09796 13.1859 2.35455L19.1196 4.33247C20.2426 4.70678 21 5.75767 21 6.94135V11.9122C21 14.6495 19.8165 16.6699 18.1412 18.2595C16.4942 19.8223 14.3404 20.9973 12.3561 22.0678C12.1338 22.1877 11.8662 22.1877 11.6439 22.0678C9.65956 20.9973 7.5058 19.8223 5.85876 18.2595C4.18351 16.6699 3 14.6495 3 11.9122V6.94135C3 5.75767 3.75743 4.70678 4.88037 4.33247L10.8141 2.35455ZM15.2803 10.0303C15.5732 9.73744 15.5732 9.26256 15.2803 8.96967C14.9874 8.67678 14.5126 8.67678 14.2197 8.96967L11 12.1893L9.78033 10.9697C9.48744 10.6768 9.01256 10.6768 8.71967 10.9697C8.42678 11.2626 8.42678 11.7374 8.71967 12.0303L10.4697 13.7803C10.6103 13.921 10.8011 14 11 14C11.1989 14 11.3897 13.921 11.5303 13.7803L15.2803 10.0303Z" fill="currentColor"/></g></svg>