<svg width="24px" height="24px" viewBox="0 0 24 24" fill="currentColor" xmlns="http://www.w3.org/2000/svg"><g><path d="M11 8.50009C12.3807 8.50009 13.5 9.61938 13.5 11.0001C13.5 12.3808 12.3807 13.5001 11 13.5001C9.6193 13.5001 8.50002 12.3808 8.5 11.0001C8.5 9.61938 9.61929 8.50009 11 8.50009Z" fill="currentColor"/><path fill-rule="evenodd" clip-rule="evenodd" d="M10.5352 2.05673C11.4712 1.65964 12.5288 1.65964 13.4648 2.05673L18.7148 4.28427C20.1002 4.87217 21 6.23145 21 7.73642V13.0001C21 17.9706 16.9705 22.0001 12 22.0001C7.02946 22.0001 3.00003 17.9706 3 13.0001V7.73642C3 6.23145 3.89979 4.87217 5.28516 4.28427L10.5352 2.05673ZM11 7.00009C8.79086 7.00009 7 8.79095 7 11.0001C7.00002 13.2092 8.79087 15.0001 11 15.0001C11.8334 15.0001 12.6064 14.7438 13.2471 14.3077L14.9697 16.0304C15.2626 16.3232 15.7374 16.3232 16.0303 16.0304C16.3232 15.7375 16.3231 15.2627 16.0303 14.9698L14.3076 13.2472C14.7437 12.6065 15 11.8335 15 11.0001C15 8.79095 13.2091 7.00009 11 7.00009Z" fill="currentColor"/></g></svg>