<svg width="24px" height="24px" viewBox="0 0 24 24" fill="currentColor" xmlns="http://www.w3.org/2000/svg"><g><path fill-rule="evenodd" clip-rule="evenodd" d="M10.8141 2.35455C11.5839 2.09796 12.4161 2.09796 13.1859 2.35455L19.1196 4.33247C20.2426 4.70678 21 5.75767 21 6.94135V11.9122C21 14.6495 19.8165 16.6699 18.1412 18.2595C16.4942 19.8223 14.3404 20.9973 12.3561 22.0678C12.1338 22.1877 11.8662 22.1877 11.6439 22.0678C9.65956 20.9973 7.5058 19.8223 5.85876 18.2595C4.18351 16.6699 3 14.6495 3 11.9122V6.94135C3 5.75767 3.75743 4.70678 4.88037 4.33247L10.8141 2.35455ZM14.25 10.25C14.25 11.2297 13.6239 12.0631 12.75 12.372V14.75C12.75 15.1642 12.4142 15.5 12 15.5C11.5858 15.5 11.25 15.1642 11.25 14.75V12.372C10.3761 12.0631 9.75 11.2297 9.75 10.25C9.75 9.00736 10.7574 8 12 8C13.2426 8 14.25 9.00736 14.25 10.25Z" fill="currentColor"/></g></svg>