<svg width="24px" height="24px" viewBox="0 0 24 24" fill="currentColor" xmlns="http://www.w3.org/2000/svg"><g><path fill-rule="evenodd" clip-rule="evenodd" d="M10.8141 2.35455C11.5839 2.09796 12.4161 2.09796 13.1859 2.35455L19.1196 4.33247C20.2426 4.70678 21 5.75767 21 6.94135V11.9122C21 14.6495 19.8165 16.6699 18.1412 18.2595C16.4942 19.8223 14.3404 20.9973 12.3561 22.0678C12.1338 22.1877 11.8662 22.1877 11.6439 22.0678C9.65956 20.9973 7.5058 19.8223 5.85876 18.2595C4.18351 16.6699 3 14.6495 3 11.9122V6.94135C3 5.75767 3.75743 4.70678 4.88037 4.33247L10.8141 2.35455ZM13.6941 14.2785C13.9862 14.5721 14.4611 14.5734 14.7548 14.2812C15.0484 13.9891 15.0497 13.5142 14.7575 13.2206L13.046 11.5001L14.7576 9.77943C15.0497 9.48576 15.0484 9.01089 14.7547 8.71878C14.4611 8.42666 13.9862 8.42793 13.6941 8.7216L11.9881 10.4367L10.2817 8.72135C9.98957 8.42769 9.5147 8.42646 9.22105 8.71859C8.92739 9.01071 8.92615 9.48559 9.21828 9.77924L10.9303 11.5002L9.21825 13.2214C8.92614 13.5151 8.9274 13.9899 9.22108 14.282C9.51475 14.5742 9.98962 14.5729 10.2817 14.2792L11.9882 12.5636L13.6941 14.2785Z" fill="currentColor"/></g></svg>