<svg width="24px" height="24px" viewBox="0 0 24 24" fill="currentColor" xmlns="http://www.w3.org/2000/svg"><g><path d="M19.4406 14.75C20.7105 14.7501 22.0001 15.75 22.0002 17.6699C22.0002 20.2299 18.6702 22.0303 18.0002 22.0303C17.3294 22.0297 14.0002 20.2195 14.0002 17.6699C14.0002 15.75 15.2907 14.75 16.5607 14.75C17.1804 14.75 17.6702 14.94 18.0002 15.1299C18.3402 14.9399 18.8306 14.75 19.4406 14.75Z" fill="currentColor"/><path fill-rule="evenodd" clip-rule="evenodd" d="M16.4269 3C18.4098 3.00007 20.0501 4.54414 20.1701 6.52344L20.588 13.4199C20.2164 13.3073 19.8304 13.25 19.4445 13.25C18.8928 13.2501 18.4073 13.3507 18.0002 13.4902C17.593 13.3507 17.1076 13.25 16.5558 13.25C15.5011 13.2501 14.4493 13.6748 13.673 14.5029C12.8857 15.3429 12.5002 16.464 12.5002 17.667C12.5003 19.0626 13.1406 20.1864 13.8332 21H6.93765C4.77754 20.9999 3.06399 19.1796 3.19449 17.0234L3.83121 6.52344C3.95117 4.5441 5.59141 3 7.57437 3H16.4269ZM15.0002 7.25C14.5861 7.25017 14.2502 7.58589 14.2502 8C14.2502 9.24264 13.2428 10.25 12.0002 10.25C10.7577 10.2498 9.75015 9.24253 9.75015 8C9.75015 7.58579 9.41437 7.25 9.00015 7.25C8.58609 7.25017 8.25015 7.58589 8.25015 8C8.25015 10.071 9.92923 11.7498 12.0002 11.75C14.0712 11.75 15.7502 10.0711 15.7502 8C15.7502 7.58579 15.4144 7.25 15.0002 7.25Z" fill="currentColor"/></g></svg>