<svg width="24px" height="24px" viewBox="0 0 24 24" fill="currentColor" xmlns="http://www.w3.org/2000/svg"><g><path fill-rule="evenodd" clip-rule="evenodd" d="M17.25 3C19.3211 3 21 4.67893 21 6.75V17.25C21 19.3211 19.3211 21 17.25 21H6.75C4.67893 21 3 19.3211 3 17.25V6.75C3 4.67893 4.67893 3 6.75 3H17.25ZM13.3652 7.8291C13.508 7.30557 12.8313 6.96125 12.4922 7.38477L8.64941 12.1875C8.38774 12.5148 8.62101 12.9998 9.04004 13H11.5L10.6348 16.1709C10.492 16.6944 11.1687 17.0388 11.5078 16.6152L15.3506 11.8125C15.6123 11.4852 15.379 11.0002 14.96 11H12.5L13.3652 7.8291Z" fill="currentColor"/></g></svg>