<svg width="24px" height="24px" viewBox="0 0 24 24" fill="currentColor" xmlns="http://www.w3.org/2000/svg"><g><path fill-rule="evenodd" clip-rule="evenodd" d="M17.8432 3.57238C17.7457 3.47483 17.5875 3.4748 17.49 3.57231L16.1963 4.86488C15.3853 5.67614 15.3852 6.99148 16.1963 7.80265C17.0076 8.61389 18.3228 8.61389 19.1341 7.80265L20.4276 6.51023C20.5252 6.41266 20.5252 6.2544 20.4276 6.15679L17.8432 3.57238ZM16.4303 2.51178C17.1134 1.82921 18.2205 1.82943 18.9033 2.51229L21.4877 5.0967C22.171 5.77995 22.1707 6.88779 21.4872 7.57076L20.1942 8.86274C18.9795 10.0774 17.1086 10.2357 15.7229 9.3378L11.3105 13.7503L12.8647 15.3045C13.9268 16.3666 13.9682 18.1448 12.7953 19.1858C9.91036 21.7461 6.75347 22.7028 3.01684 21.4573C2.79301 21.3827 2.61737 21.207 2.54276 20.9832C1.2972 17.2465 2.25379 14.0895 4.81416 11.2045C5.85512 10.0316 7.63326 10.073 8.69536 11.1351L10.2504 12.6902L14.6625 8.27805C13.7631 6.89211 13.921 5.01999 15.1362 3.80478L16.4303 2.51178Z" fill="currentColor"/></g></svg>