<svg width="24px" height="24px" viewBox="0 0 24 24" fill="currentColor" xmlns="http://www.w3.org/2000/svg"><g><path fill-rule="evenodd" clip-rule="evenodd" d="M2 12.75C2 12.3358 2.33579 12 2.75 12H21.25C21.6642 12 22 12.3358 22 12.75C22 13.1642 21.6642 13.5 21.25 13.5H2.75C2.33579 13.5 2 13.1642 2 12.75ZM5.75 15.5C6.16421 15.5 6.5 15.8358 6.5 16.25V19.1944C6.5 19.6087 6.16421 19.9444 5.75 19.9444C5.33579 19.9444 5 19.6087 5 19.1944V16.25C5 15.8358 5.33579 15.5 5.75 15.5ZM9.91667 15.5C10.3309 15.5 10.6667 15.8358 10.6667 16.25V21.25C10.6667 21.6642 10.3309 22 9.91667 22C9.50245 22 9.16667 21.6642 9.16667 21.25V16.25C9.16667 15.8358 9.50245 15.5 9.91667 15.5ZM14.0833 15.5C14.4975 15.5 14.8333 15.8358 14.8333 16.25V19.1944C14.8333 19.6087 14.4975 19.9444 14.0833 19.9444C13.6691 19.9444 13.3333 19.6087 13.3333 19.1944V16.25C13.3333 15.8358 13.6691 15.5 14.0833 15.5ZM18.25 15.5C18.6642 15.5 19 15.8358 19 16.25V21.25C19 21.6642 18.6642 22 18.25 22C17.8358 22 17.5 21.6642 17.5 21.25V16.25C17.5 15.8358 17.8358 15.5 18.25 15.5Z" fill="currentColor"/><path d="M4 5.75C4 3.67893 5.67893 2 7.75 2H16.25C18.3211 2 20 3.67893 20 5.75V10H4V5.75Z" fill="currentColor"/></g></svg>