<svg width="24px" height="24px" viewBox="0 0 24 24" fill="currentColor" xmlns="http://www.w3.org/2000/svg"><g><path fill-rule="evenodd" clip-rule="evenodd" d="M18.25 20H7.5V4H18.25C20.3211 4 22 5.67893 22 7.75V16.25C22 18.3211 20.3211 20 18.25 20ZM15.7803 10.2803C16.0732 9.98744 16.0732 9.51256 15.7803 9.21967C15.4874 8.92678 15.0126 8.92678 14.7197 9.21967L12.4697 11.4697C12.1768 11.7626 12.1768 12.2374 12.4697 12.5303L14.7197 14.7803C15.0126 15.0732 15.4874 15.0732 15.7803 14.7803C16.0732 14.4874 16.0732 14.0126 15.7803 13.7197L14.0607 12L15.7803 10.2803Z" fill="currentColor"/><path d="M5.75 4H6V20H5.75C3.67893 20 2 18.3211 2 16.25V7.75C2 5.67893 3.67893 4 5.75 4Z" fill="currentColor"/></g></svg>