<svg width="24px" height="24px" viewBox="0 0 24 24" fill="currentColor" xmlns="http://www.w3.org/2000/svg"><g><path fill-rule="evenodd" clip-rule="evenodd" d="M5.75 20C3.67893 20 2 18.3211 2 16.25V7.75C2 5.67893 3.67893 4 5.75 4H18.25C20.3211 4 22 5.67893 22 7.75V16.25C22 18.3211 20.3211 20 18.25 20H5.75ZM3.5 7.75C3.5 6.50736 4.50736 5.5 5.75 5.5H10.5V18.5H5.75C4.50736 18.5 3.5 17.4926 3.5 16.25V7.75Z" fill="currentColor"/><path fill-rule="evenodd" clip-rule="evenodd" d="M7 9.5C6.44772 9.5 6 9.05228 6 8.5C6 7.94772 6.44772 7.5 7 7.5C7.55229 7.5 8 7.94772 8 8.5C8 9.05228 7.55229 9.5 7 9.5ZM7 13C6.44772 13 6 12.5523 6 12C6 11.4477 6.44772 11 7 11C7.55229 11 8 11.4477 8 12C8 12.5523 7.55228 13 7 13ZM7 16.5C6.44772 16.5 6 16.0523 6 15.5C6 14.9477 6.44772 14.5 7 14.5C7.55228 14.5 8 14.9477 8 15.5C8 16.0523 7.55228 16.5 7 16.5Z" fill="currentColor"/></g></svg>