<svg width="24px" height="24px" viewBox="0 0 24 24" fill="currentColor" xmlns="http://www.w3.org/2000/svg"><g><path fill-rule="evenodd" clip-rule="evenodd" d="M12 1.5C16.5563 1.5 20.25 5.19365 20.25 9.75C20.25 14.3063 16.5563 18 12 18C7.44365 18 3.75 14.3063 3.75 9.75C3.75 5.19365 7.44365 1.5 12 1.5ZM11.9375 5.5C11.4055 5.5 10.935 5.60041 10.5273 5.80176C10.1197 6.00311 9.80334 6.28837 9.57715 6.65625C9.47406 6.82393 9.39399 7.00514 9.33789 7.2002C9.22101 7.60684 9.58076 7.95703 10.0039 7.95703H10.1172C10.4775 7.95703 10.7421 7.64487 10.9121 7.32715C11.0066 7.15073 11.1405 7.01533 11.3145 6.9209C11.4884 6.82644 11.6921 6.7793 11.9258 6.7793C12.1495 6.7793 12.3499 6.8236 12.5264 6.91309C12.7028 7.00009 12.8415 7.12602 12.9434 7.29004C13.0453 7.45161 13.0967 7.64445 13.0967 7.86816C13.0966 8.06931 13.0556 8.25681 12.9736 8.43066C12.8917 8.60204 12.7712 8.77723 12.6123 8.95605C12.4557 9.13503 12.2614 9.33683 12.0303 9.56055L9.57129 11.8369C9.40596 11.99 9.31264 12.2053 9.3125 12.4307C9.3125 12.8778 9.67493 13.2412 10.1221 13.2412H14.0957C14.4601 13.2412 14.7557 12.9454 14.7559 12.5811C14.7559 12.2166 14.4602 11.9209 14.0957 11.9209H11.5859C11.5657 11.9209 11.5488 11.9041 11.5488 11.8838C11.5489 11.874 11.5536 11.8643 11.5605 11.8574L12.6641 10.7764C13.1885 10.2991 13.5954 9.89035 13.8838 9.5498C14.1721 9.20676 14.3715 8.89418 14.4834 8.61328C14.5977 8.33246 14.6552 8.04804 14.6553 7.75977C14.6553 7.3199 14.5425 6.92935 14.3164 6.58887C14.0902 6.24836 13.7728 5.98242 13.3652 5.79102C12.9602 5.59718 12.4842 5.50006 11.9375 5.5Z" fill="currentColor"/><path d="M16.5 22.2939C16.5 22.79 16.0268 23.1495 15.5488 23.0166L12.2012 22.0859C12.0697 22.0494 11.9303 22.0494 11.7988 22.0859L8.45117 23.0166C7.97324 23.1495 7.5 22.79 7.5 22.2939V18.3984C8.84659 19.1005 10.3763 19.5 12 19.5C13.6237 19.5 15.1534 19.1005 16.5 18.3984V22.2939Z" fill="currentColor"/></g></svg>