<svg width="24px" height="24px" viewBox="0 0 24 24" fill="currentColor" xmlns="http://www.w3.org/2000/svg"><g><path d="M9.5 13.25C9.5 12.8358 9.83579 12.5 10.25 12.5H13.75C14.1642 12.5 14.5 12.8358 14.5 13.25V15.75C14.5 16.1642 14.1642 16.5 13.75 16.5H10.25C9.83579 16.5 9.5 16.1642 9.5 15.75V13.25Z" fill="currentColor"/><path fill-rule="evenodd" clip-rule="evenodd" d="M4 5.75C4 3.67893 5.67893 2 7.75 2H12.5931C13.8529 2 15.0611 2.50044 15.9519 3.39124L18.6088 6.0481C19.4996 6.9389 20 8.14708 20 9.40685V18.25C20 20.3211 18.3211 22 16.25 22H7.75C5.67893 22 4 20.3211 4 18.25V5.75ZM10.25 11C9.00736 11 8 12.0074 8 13.25V15.75C8 16.9926 9.00736 18 10.25 18H13.75C14.9926 18 16 16.9926 16 15.75V13.25C16 12.0074 14.9926 11 13.75 11H10.25Z" fill="currentColor"/></g></svg>