<svg width="24px" height="24px" viewBox="0 0 24 24" fill="currentColor" xmlns="http://www.w3.org/2000/svg"><g><path d="M12 1C12.4142 1 12.75 1.33579 12.75 1.75V2.775C12.75 3.18921 12.4142 3.525 12 3.525C11.5858 3.525 11.25 3.18921 11.25 2.775V1.75C11.25 1.33579 11.5858 1 12 1Z" fill="currentColor"/><path d="M4.22185 4.2218C4.51474 3.92891 4.98962 3.92891 5.28251 4.2218L6.00729 4.94659C6.30019 5.23948 6.30019 5.71435 6.00729 6.00725C5.7144 6.30014 5.23953 6.30014 4.94663 6.00725L4.22185 5.28246C3.92896 4.98957 3.92896 4.51469 4.22185 4.2218Z" fill="currentColor"/><path d="M19.7782 4.22183C20.0711 4.51472 20.0711 4.98959 19.7782 5.28249L19.0534 6.00727C18.7605 6.30016 18.2856 6.30016 17.9927 6.00727C17.6998 5.71438 17.6998 5.2395 17.9927 4.94661L18.7175 4.22183C19.0104 3.92893 19.4853 3.92893 19.7782 4.22183Z" fill="currentColor"/><path d="M18 16V12C18 8.68629 15.3137 6 12 6C8.68629 6 6 8.68629 6 12V16H11.25V13.75C11.25 13.3358 11.5858 13 12 13C12.4142 13 12.75 13.3358 12.75 13.75V16H18Z" fill="currentColor"/><path d="M1 12C1 11.5858 1.33579 11.25 1.75 11.25H2.775C3.18921 11.25 3.525 11.5858 3.525 12C3.525 12.4142 3.18921 12.75 2.775 12.75H1.75C1.33579 12.75 1 12.4142 1 12Z" fill="currentColor"/><path d="M20.475 12C20.475 11.5858 20.8108 11.25 21.225 11.25H22.25C22.6642 11.25 23 11.5858 23 12C23 12.4142 22.6642 12.75 22.25 12.75H21.225C20.8108 12.75 20.475 12.4142 20.475 12Z" fill="currentColor"/><path d="M5.25 22H18.75C19.4404 22 20 21.4404 20 20.75C20 18.9551 18.5449 17.5 16.75 17.5H7.25C5.45507 17.5 4 18.9551 4 20.75C4 21.4404 4.55964 22 5.25 22Z" fill="currentColor"/></g></svg>