<svg width="24px" height="24px" viewBox="0 0 24 24" fill="currentColor" xmlns="http://www.w3.org/2000/svg"><g><path d="M21.9917 11.5776C21.8802 8.96429 20.75 6.49859 18.8432 4.70878C16.9365 2.91896 14.4049 1.94739 11.7908 2.0022C9.17676 2.05701 6.6881 3.13386 4.85802 5.00203C3.02794 6.8702 2.002 9.38111 2 11.9968C2 12.0159 2.03064 13.1384 2.10766 13.6885C2.19047 14.2685 2.5772 15.4432 2.61778 15.4664C3.42899 17.66 4.9827 19.5 7.00899 20.6668C9.03528 21.8336 11.4061 22.2533 13.7096 21.8532C16.0131 21.4531 18.1037 20.2583 19.6182 18.4765C21.1327 16.6946 21.9755 14.4383 22 12.0996C22 12.0788 21.9934 11.6108 21.9917 11.5776ZM12.0087 20.5308C10.5772 20.5319 9.16848 20.1725 7.9123 19.4858C6.65612 18.7991 5.59289 17.8072 4.82059 16.6014C5.32921 16.8089 5.87214 16.9193 6.42135 16.927C8.40884 16.9071 10.1305 16.304 11.742 15.2427C12.2687 14.8964 13.0024 14.2925 13.5109 13.9222L12.3093 12.8286C11.1226 13.6736 9.23945 15.0224 7.76622 15.2593C5.08091 15.6914 3.28571 13.895 3.49973 11.2885C3.65625 10.1767 4.2674 9.14942 5.37046 8.70288C6.52983 8.23397 7.68341 8.35575 8.79641 8.86857C10.1529 9.48991 11.1773 10.552 12.2621 11.5329C13.2691 12.4442 14.3324 13.2892 15.3079 14.2345C16.8698 15.7539 18.5376 15.9005 19.8113 15.4623C19.1398 16.9714 18.0454 18.2533 16.6606 19.1529C15.2757 20.0525 13.6599 20.5311 12.0087 20.5308ZM19.7732 13.7374L19.7657 13.7432C19.4687 13.9698 19.1011 14.0839 18.7281 14.0655H18.7024C18.5467 14.0658 18.3914 14.0469 18.2403 14.0092H18.2312C17.0776 13.7797 16.2172 13.049 15.3734 12.3C14.0707 11.1402 12.8145 9.93314 11.4696 8.82963C9.52076 7.22295 7 6.4 4.69057 7.58611C5.52015 6.20714 6.72215 5.09059 8.15819 4.36503C9.59423 3.63946 11.2059 3.33439 12.8076 3.48493C14.4094 3.63548 15.9361 4.23552 17.2119 5.21596C18.4877 6.1964 19.4608 7.51739 20.0191 9.0268C19.2366 8.74679 18.0871 8.59932 17.0992 9.17676C16.3497 9.61418 15.6566 10.0466 14.8458 10.6083C15.2409 10.9861 16.0226 11.6679 16.0226 11.6679C16.3812 11.4078 17.9099 10.1767 18.8142 10.2148C19.8791 10.2141 20.6997 11.2945 20.6116 12.3142C20.5624 12.8841 20.2475 13.4181 19.7732 13.7374Z" fill="currentColor"/></g></svg>