<svg width="24px" height="24px" viewBox="0 0 24 24" fill="currentColor" xmlns="http://www.w3.org/2000/svg"><g><path fill-rule="evenodd" clip-rule="evenodd" d="M3.5 6.25C3.5 4.17893 5.17893 2.5 7.25 2.5H16.75C18.8211 2.5 20.5 4.17893 20.5 6.25V17.75C20.5 19.8211 18.8211 21.5 16.75 21.5H7.25C5.17893 21.5 3.5 19.8211 3.5 17.75V6.25ZM8 7.75C8 7.33579 8.33579 7 8.75 7H15.25C15.6642 7 16 7.33579 16 7.75C16 8.16421 15.6642 8.5 15.25 8.5H8.75C8.33579 8.5 8 8.16421 8 7.75ZM8 11.75C8 11.3358 8.33579 11 8.75 11H12.25C12.6642 11 13 11.3358 13 11.75C13 12.1642 12.6642 12.5 12.25 12.5H8.75C8.33579 12.5 8 12.1642 8 11.75Z" fill="currentColor"/></g></svg>