<svg width="24px" height="24px" viewBox="0 0 24 24" fill="currentColor" xmlns="http://www.w3.org/2000/svg"><g><path fill-rule="evenodd" clip-rule="evenodd" d="M7.75 22C5.67893 22 4 20.3211 4 18.25V5.75C4 3.67893 5.67893 2 7.75 2H16.25C18.3211 2 20 3.67893 20 5.75V18.25C20 20.3211 18.3211 22 16.25 22H7.75ZM8.75 11.25C8.33579 11.25 8 11.5858 8 12C8 12.4142 8.33579 12.75 8.75 12.75H11.25V15.25C11.25 15.6642 11.5858 16 12 16C12.4142 16 12.75 15.6642 12.75 15.25V12.75H15.25C15.6642 12.75 16 12.4142 16 12C16 11.5858 15.6642 11.25 15.25 11.25H12.75V8.75C12.75 8.33579 12.4142 8 12 8C11.5858 8 11.25 8.33579 11.25 8.75V11.25H8.75Z" fill="currentColor"/></g></svg>