<svg width="24px" height="24px" viewBox="0 0 24 24" fill="currentColor" xmlns="http://www.w3.org/2000/svg"><g><path fill-rule="evenodd" clip-rule="evenodd" d="M2 5.75C2 3.67893 3.67893 2 5.75 2H14.25C16.3211 2 18 3.67893 18 5.75V6.11111H18.25C20.3211 6.11111 22 7.79004 22 9.86111V18.25C22 20.3211 20.3211 22 18.25 22H9.75C7.67893 22 6 20.3211 6 18.25V18H5.75C3.67893 18 2 16.3211 2 14.25V5.75ZM16.5 6.11111H9.75C7.67893 6.11111 6 7.79004 6 9.86111V16.5H5.75C4.50736 16.5 3.5 15.4926 3.5 14.25V5.75C3.5 4.50736 4.50736 3.5 5.75 3.5H14.25C15.4926 3.5 16.5 4.50736 16.5 5.75V6.11111ZM14.8056 10.75C14.8056 10.3358 14.4698 10 14.0556 10C13.6413 10 13.3056 10.3358 13.3056 10.75V13.3056H10.75C10.3358 13.3056 10 13.6413 10 14.0556C10 14.4698 10.3358 14.8056 10.75 14.8056H13.3056V17.25C13.3056 17.6642 13.6413 18 14.0556 18C14.4698 18 14.8056 17.6642 14.8056 17.25V14.8056H17.25C17.6642 14.8056 18 14.4698 18 14.0556C18 13.6413 17.6642 13.3056 17.25 13.3056H14.8056V10.75Z" fill="currentColor"/></g></svg>