<svg width="24px" height="24px" viewBox="0 0 24 24" fill="currentColor" xmlns="http://www.w3.org/2000/svg"><g><path fill-rule="evenodd" clip-rule="evenodd" d="M5.75 4C3.67893 4 2 5.67893 2 7.75V12.25C2 14.3211 3.67893 16 5.75 16H6V16.25C6 18.3211 7.67893 20 9.75 20H18.25C20.3211 20 22 18.3211 22 16.25V11.75C22 9.67893 20.3211 8 18.25 8H18V7.75C18 5.67893 16.3211 4 14.25 4H5.75ZM6 14.5V11.75C6 9.67893 7.67893 8 9.75 8H16.5V7.75C16.5 6.50736 15.4926 5.5 14.25 5.5H5.75C4.50736 5.5 3.5 6.50736 3.5 7.75V12.25C3.5 13.4926 4.50736 14.5 5.75 14.5H6ZM11.75 14.75C11.3358 14.75 11 14.4142 11 14C11 13.5858 11.3358 13.25 11.75 13.25H13.25V11.75C13.25 11.3358 13.5858 11 14 11C14.4142 11 14.75 11.3358 14.75 11.75V13.25H16.25C16.6642 13.25 17 13.5858 17 14C17 14.4142 16.6642 14.75 16.25 14.75H14.75V16.25C14.75 16.6642 14.4142 17 14 17C13.5858 17 13.25 16.6642 13.25 16.25V14.75H11.75Z" fill="currentColor"/></g></svg>