<svg width="24px" height="24px" viewBox="0 0 24 24" fill="currentColor" xmlns="http://www.w3.org/2000/svg"><g><path fill-rule="evenodd" clip-rule="evenodd" d="M7.06057 2.1966L6.37239 4.26113C4.98294 4.81021 4 6.16532 4 7.75V16.25C4 17.8347 4.98294 19.1898 6.37239 19.7389L7.06057 21.8034C7.29877 22.518 7.96751 23 8.72076 23H15.2792C16.0325 23 16.7012 22.518 16.9394 21.8034L17.6276 19.7389C19.0171 19.1898 20 17.8347 20 16.25V7.75C20 6.16532 19.0171 4.81022 17.6276 4.26113L16.9394 2.1966C16.7012 1.482 16.0325 1 15.2792 1H8.72076C7.96751 1 7.29877 1.482 7.06057 2.1966ZM8.72076 2.5C8.61316 2.5 8.51762 2.56886 8.48359 2.67094L8.04058 4H15.9594L15.5164 2.67094C15.4824 2.56886 15.3869 2.5 15.2792 2.5H8.72076ZM15.9594 20H8.04058L8.48359 21.3291C8.51762 21.4311 8.61316 21.5 8.72076 21.5H15.2792C15.3869 21.5 15.4824 21.4311 15.5164 21.3291L15.9594 20ZM12.75 8.75C12.75 8.33579 12.4142 8 12 8C11.5858 8 11.25 8.33579 11.25 8.75V12C11.25 12.1989 11.329 12.3897 11.4697 12.5303L12.9697 14.0303C13.2626 14.3232 13.7374 14.3232 14.0303 14.0303C14.3232 13.7374 14.3232 13.2626 14.0303 12.9697L12.75 11.6893V8.75Z" fill="currentColor"/></g></svg>