<svg width="24px" height="24px" viewBox="0 0 24 24" fill="currentColor" xmlns="http://www.w3.org/2000/svg"><g><path fill-rule="evenodd" clip-rule="evenodd" d="M6.95813 4.33588L6.78017 5.93749C5.07857 7.40393 4 9.57568 4 12C4 14.4237 5.07777 16.5956 6.78019 18.0627L6.95813 19.6641C7.16914 21.5632 8.77439 23 10.6852 23H13.3149C15.2257 23 16.831 21.5632 17.042 19.6641L17.22 18.0625C18.9223 16.5955 20 14.4236 20 12C20 9.57575 18.9215 7.40406 17.22 5.93762L17.042 4.33588C16.831 2.43676 15.2257 1 13.3149 1H10.6852C8.77439 1 7.16914 2.43676 6.95813 4.33588ZM10.6852 2.5C9.53871 2.5 8.57556 3.36205 8.44896 4.50153L8.41037 4.84879C9.49058 4.30561 10.7106 4 12 4C13.2895 4 14.5095 4.30564 15.5898 4.84886L15.5512 4.50153C15.4246 3.36206 14.4614 2.5 13.3149 2.5H10.6852ZM15.5897 19.1513C14.5102 19.6943 13.2908 20 12 20C10.7093 20 9.4899 19.6943 8.41039 19.1514L8.44896 19.4985C8.57556 20.6379 9.53871 21.5 10.6852 21.5H13.3149C14.4614 21.5 15.4246 20.6379 15.5512 19.4985L15.5897 19.1513ZM12.75 8.75C12.75 8.33579 12.4142 8 12 8C11.5858 8 11.25 8.33579 11.25 8.75V12C11.25 12.1989 11.329 12.3897 11.4697 12.5303L12.9697 14.0303C13.2626 14.3232 13.7374 14.3232 14.0303 14.0303C14.3232 13.7374 14.3232 13.2626 14.0303 12.9697L12.75 11.6893V8.75Z" fill="currentColor"/></g></svg>