<svg width="24px" height="24px" viewBox="0 0 24 24" fill="currentColor" xmlns="http://www.w3.org/2000/svg"><g><path d="M21.6295 16.8937C21.5458 16.6147 21.1413 16.4194 21.1413 16.4194C21.105 16.3971 21.0687 16.3803 21.0408 16.3663C20.3684 16.0427 19.7741 15.6521 19.2747 15.2085C18.873 14.8514 18.527 14.4608 18.2508 14.0423C17.9132 13.5345 17.7542 13.1076 17.6872 12.8788C17.6482 12.7282 17.6565 12.6696 17.6872 12.5915C17.7151 12.5273 17.7905 12.4631 17.8295 12.4353C18.0555 12.2762 18.421 12.039 18.6442 11.894C18.8367 11.7684 19.0041 11.6596 19.1018 11.5927C19.417 11.3722 19.6319 11.149 19.7602 10.9063C19.9248 10.5938 19.9443 10.2478 19.816 9.91028C19.643 9.45272 19.2161 9.1793 18.6749 9.1793C18.5549 9.1793 18.4294 9.19324 18.3066 9.21835C17.9969 9.28531 17.7012 9.39693 17.4557 9.49176C17.4389 9.50013 17.4194 9.4862 17.4194 9.46665C17.4445 8.85567 17.4752 8.03538 17.4082 7.25418C17.3468 6.54831 17.2017 5.95404 16.9646 5.43509C16.7247 4.91336 16.4178 4.52834 16.1722 4.25213C15.9407 3.98708 15.5362 3.59648 14.9223 3.24493C14.0602 2.7511 13.0781 2.5 12.004 2.5C10.9326 2.5 9.9533 2.7511 9.0884 3.24215C8.44113 3.61322 8.02542 4.03172 7.83571 4.24934C7.59296 4.52834 7.28327 4.91336 7.04332 5.43231C6.80617 5.95124 6.66109 6.54552 6.59971 7.25139C6.53275 8.03262 6.56065 8.78871 6.58855 9.46389C6.58855 9.48339 6.56902 9.49738 6.55228 9.48901C6.30676 9.39412 6.01102 9.2825 5.70133 9.21554C5.57856 9.18767 5.45581 9.1765 5.33304 9.1765C4.79178 9.1765 4.36491 9.44991 4.19193 9.90747C4.06359 10.2478 4.08312 10.591 4.24773 10.9035C4.37607 11.1462 4.5909 11.3695 4.90617 11.5899C5.00382 11.6568 5.17123 11.7656 5.36374 11.8912C5.58415 12.0335 5.93848 12.2622 6.16447 12.4241C6.19237 12.4436 6.28723 12.5162 6.31792 12.5915C6.3514 12.6724 6.35698 12.731 6.31513 12.89C6.24538 13.1216 6.08635 13.5429 5.75434 14.0423C5.47812 14.4608 5.13217 14.8514 4.7304 15.2085C4.2282 15.6521 3.63392 16.0427 2.96432 16.3663C2.93364 16.3803 2.89458 16.3998 2.85272 16.4249C2.81087 16.45 2.45096 16.6286 2.37563 16.8937C2.26403 17.2843 2.55977 17.6498 2.86667 17.8478C3.3633 18.1687 3.96873 18.3417 4.32027 18.4338C4.41792 18.4589 4.5072 18.484 4.58811 18.5091C4.63833 18.5258 4.76388 18.5732 4.81968 18.643C4.88664 18.7295 4.89502 18.8383 4.92012 18.9611C4.95919 19.1675 5.04568 19.4214 5.29957 19.5972C5.57856 19.7897 5.93569 19.8037 6.38488 19.8204C6.8564 19.8372 7.4423 19.8623 8.11188 20.0827C8.42158 20.1859 8.70337 20.3589 9.02981 20.5598C9.71056 20.9782 10.5587 21.5 12.0067 21.5C13.4548 21.5 14.3085 20.9755 14.9949 20.557C15.3185 20.3589 15.5975 20.1859 15.9016 20.0855C16.5712 19.865 17.1571 19.8427 17.6286 19.8232C18.0778 19.8064 18.4349 19.7925 18.714 19.6C18.9874 19.413 19.0655 19.1313 19.1018 18.9192C19.1213 18.816 19.1352 18.7212 19.1938 18.643C19.244 18.5761 19.3612 18.5314 19.417 18.5119C19.5007 18.4868 19.59 18.4617 19.6932 18.4338C20.0448 18.3389 20.4828 18.2301 21.0185 17.926C21.6518 17.5633 21.6965 17.1141 21.6295 16.8937Z" fill="currentColor"/></g></svg>