<svg width="24px" height="24px" viewBox="0 0 24 24" fill="currentColor" xmlns="http://www.w3.org/2000/svg"><g><path d="M18 9C19.6569 9 21 7.65685 21 6C21 4.34315 19.6569 3 18 3C16.3431 3 15 4.34315 15 6C15 6.50495 15.1263 6.97993 15.3467 7.39746L10.1523 12.1201C9.35337 11.4702 8.35052 11.0607 7.25391 11.0059L7.03418 8.8125C8.18072 8.39077 9 7.29287 9 6C9 4.34315 7.65685 3 6 3C4.34315 3 3 4.34315 3 6C3 7.50111 4.10256 8.74431 5.54199 8.96484L5.76074 11.1543C3.5987 11.7056 2 13.6663 2 16C2 18.7614 4.23858 21 7 21C9.34972 21 11.3199 19.3789 11.8555 17.1943L15.0381 17.4834C15.2692 18.9105 16.5077 20 18 20C19.6569 20 21 18.6569 21 17C21 15.3431 19.6569 14 18 14C16.6977 14 15.5916 14.8306 15.1768 15.9902L11.9893 15.7002C11.9354 14.7892 11.6394 13.9439 11.1621 13.2285L16.3555 8.50684C16.828 8.81744 17.3923 9 18 9Z" fill="currentColor"/></g></svg>