<svg width="24px" height="24px" viewBox="0 0 24 24" fill="currentColor" xmlns="http://www.w3.org/2000/svg"><g><path d="M3 10V8C3 5.79086 4.79086 4 7 4H17C19.2091 4 21 5.79086 21 8V10H20C18.6193 10 17.5 11.1193 17.5 12.5H6.5C6.5 11.1193 5.38071 10 4 10H3Z" fill="currentColor"/><path d="M3 11.5C1.89543 11.5 1 12.3954 1 13.5V15C1 16.6569 2.34315 18 4 18V19.25C4 19.6642 4.33579 20 4.75 20C5.16421 20 5.5 19.6642 5.5 19.25V18H18.5V19.25C18.5 19.6642 18.8358 20 19.25 20C19.6642 20 20 19.6642 20 19.25V18C21.6569 18 23 16.6569 23 15V13.5C23 12.3954 22.1046 11.5 21 11.5C19.8954 11.5 19 12.3954 19 13.5V14H5V13.5C5 12.3954 4.10457 11.5 3 11.5Z" fill="currentColor"/></g></svg>