<svg width="24px" height="24px" viewBox="0 0 24 24" fill="currentColor" xmlns="http://www.w3.org/2000/svg"><g><path d="M15.1011 7.46295L13.359 2.93335C13.1427 2.37104 12.6025 2 12 2C11.3975 2 10.8573 2.37104 10.641 2.93335L8.89887 7.46295C8.64493 8.12318 8.12318 8.64493 7.46295 8.89887L2.93335 10.641C2.37104 10.8573 2 11.3975 2 12C2 12.6025 2.37104 13.1427 2.93335 13.359L7.46295 15.1011C8.12318 15.3551 8.64493 15.8768 8.89887 16.5371L10.641 21.0667C10.8573 21.629 11.3975 22 12 22C12.6025 22 13.1427 21.629 13.359 21.0667L15.1011 16.5371C15.3551 15.8768 15.8768 15.3551 16.5371 15.1011L21.0667 13.359C21.629 13.1427 22 12.6025 22 12C22 11.3975 21.629 10.8573 21.0667 10.641L16.5371 8.89887C15.8768 8.64493 15.3551 8.12318 15.1011 7.46295Z" fill="currentColor"/></g></svg>