<svg width="24px" height="24px" viewBox="0 0 24 24" fill="currentColor" xmlns="http://www.w3.org/2000/svg"><g><path d="M12.75 2.75C12.75 2.33579 12.4142 2 12 2C11.5858 2 11.25 2.33579 11.25 2.75C11.25 5.87025 10.5613 7.94571 9.25352 9.25352C7.94571 10.5613 5.87025 11.25 2.75 11.25C2.33579 11.25 2 11.5858 2 12C2 12.4142 2.33579 12.75 2.75 12.75C5.87025 12.75 7.94571 13.4387 9.25352 14.7465C10.5613 16.0543 11.25 18.1297 11.25 21.25C11.25 21.6642 11.5858 22 12 22C12.4142 22 12.75 21.6642 12.75 21.25C12.75 18.1297 13.4387 16.0543 14.7465 14.7465C16.0543 13.4387 18.1297 12.75 21.25 12.75C21.6642 12.75 22 12.4142 22 12C22 11.5858 21.6642 11.25 21.25 11.25C18.1297 11.25 16.0543 10.5613 14.7465 9.25352C13.4387 7.94571 12.75 5.87025 12.75 2.75Z" fill="currentColor"/></g></svg>