<svg width="24px" height="24px" viewBox="0 0 24 24" fill="currentColor" xmlns="http://www.w3.org/2000/svg"><g><path d="M12.7368 2.60967C12.6694 2.25593 12.3601 2 12 2C11.6399 2 11.3306 2.25593 11.2632 2.60967C10.7844 5.12353 9.83969 7.03715 8.43842 8.43842C7.03715 9.83969 5.12353 10.7844 2.60967 11.2632C2.25593 11.3306 2 11.6399 2 12C2 12.3601 2.25593 12.6694 2.60967 12.7368C5.12353 13.2156 7.03715 14.1603 8.43842 15.5616C9.83969 16.9629 10.7844 18.8765 11.2632 21.3903C11.3306 21.7441 11.6399 22 12 22C12.3601 22 12.6694 21.7441 12.7368 21.3903C13.2156 18.8765 14.1603 16.9629 15.5616 15.5616C16.9629 14.1603 18.8765 13.2156 21.3903 12.7368C21.7441 12.6694 22 12.3601 22 12C22 11.6399 21.7441 11.3306 21.3903 11.2632C18.8765 10.7844 16.9629 9.83969 15.5616 8.43842C14.1603 7.03715 13.2156 5.12353 12.7368 2.60967Z" fill="currentColor"/></g></svg>