<svg width="24px" height="24px" viewBox="0 0 24 24" fill="currentColor" xmlns="http://www.w3.org/2000/svg"><g><path d="M12 11.5C10.4812 11.5 9.25 12.7312 9.25 14.25C9.25 15.7688 10.4812 17 12 17C13.5188 17 14.75 15.7688 14.75 14.25C14.75 12.7312 13.5188 11.5 12 11.5Z" fill="currentColor"/><path fill-rule="evenodd" clip-rule="evenodd" d="M7.75 2C5.67893 2 4 3.67893 4 5.75V18.25C4 20.3211 5.67893 22 7.75 22H16.25C18.3211 22 20 20.3211 20 18.25V5.75C20 3.67893 18.3211 2 16.25 2H7.75ZM7.75 14.25C7.75 11.9028 9.65279 10 12 10C14.3472 10 16.25 11.9028 16.25 14.25C16.25 16.5972 14.3472 18.5 12 18.5C9.65279 18.5 7.75 16.5972 7.75 14.25ZM9.75 6C9.33579 6 9 6.33579 9 6.75C9 7.16421 9.33579 7.5 9.75 7.5H14.25C14.6642 7.5 15 7.16421 15 6.75C15 6.33579 14.6642 6 14.25 6H9.75Z" fill="currentColor"/></g></svg>