<svg width="24px" height="24px" viewBox="0 0 24 24" fill="currentColor" xmlns="http://www.w3.org/2000/svg"><g><path d="M12 2C17.5229 2.00001 22 6.47716 22 12C22 15.1747 20.5199 18.0043 18.2148 19.835C17.8905 20.0926 17.4187 20.0382 17.1611 19.7139C16.9036 19.3895 16.9569 18.9178 17.2812 18.6602C19.2435 17.1018 20.5 14.698 20.5 12C20.5 7.30558 16.6945 3.50001 12 3.5C7.3056 3.5 3.50001 7.30558 3.5 12C3.5 14.698 4.75646 17.1018 6.71875 18.6602C7.04308 18.9178 7.09645 19.3895 6.83887 19.7139C6.58127 20.0382 6.10952 20.0925 5.78516 19.835C3.48015 18.0043 2 15.1747 2 12C2.00001 6.47716 6.47717 2 12 2Z" fill="currentColor"/><path d="M10.7139 11.4668C11.56 10.7571 12.8213 10.8678 13.5312 11.7139C14.6721 13.0736 15.3651 15.4672 15.6709 16.7412C15.7612 17.1174 15.4017 17.4189 15.0469 17.2646C13.8452 16.7423 11.6077 15.6439 10.4668 14.2842C9.75713 13.438 9.86784 12.1767 10.7139 11.4668Z" fill="currentColor"/></g></svg>