<svg width="24px" height="24px" viewBox="0 0 24 24" fill="currentColor" xmlns="http://www.w3.org/2000/svg"><g><path d="M2.25586 9.74121C2.34907 9.33762 2.75266 9.08647 3.15625 9.17969C3.55958 9.2731 3.81095 9.67566 3.71777 10.0791C3.5754 10.6957 3.5 11.3386 3.5 12C3.5 14.698 4.75646 17.1018 6.71875 18.6602C7.04308 18.9178 7.09645 19.3895 6.83887 19.7139C6.58127 20.0382 6.10952 20.0925 5.78516 19.835C3.48015 18.0043 2 15.1747 2 12C2 11.2241 2.08806 10.4678 2.25586 9.74121Z" fill="currentColor"/><path d="M12 2C17.5229 2.00001 22 6.47716 22 12C22 15.1747 20.5199 18.0043 18.2148 19.835C17.8905 20.0926 17.4187 20.0382 17.1611 19.7139C16.9036 19.3895 16.9569 18.9178 17.2812 18.6602C19.2435 17.1018 20.5 14.698 20.5 12C20.5 7.30558 16.6945 3.50001 12 3.5C9.11393 3.5 6.56395 4.93799 5.02637 7.13965C4.78922 7.47922 4.32104 7.5623 3.98145 7.3252C3.64185 7.08803 3.55874 6.61987 3.7959 6.28027C5.60204 3.69409 8.60325 2 12 2Z" fill="currentColor"/><path d="M6.80469 10C6.85557 10.0003 10.8487 10.0257 13 11.2676C13.9565 11.8198 14.2844 13.0425 13.7324 13.999C13.1801 14.9556 11.9566 15.2837 11 14.7314C8.85117 13.4906 6.8346 10.0511 6.80469 10Z" fill="currentColor"/></g></svg>