<svg width="24px" height="24px" viewBox="0 0 24 24" fill="currentColor" xmlns="http://www.w3.org/2000/svg"><g><path d="M17 15.5C18.3807 15.5 19.5 16.6193 19.5 18C19.5 19.3807 18.3807 20.5 17 20.5C15.6193 20.5 14.5 19.3807 14.5 18C14.5 16.6193 15.6193 15.5 17 15.5Z" fill="currentColor"/><path d="M11 16C12.1046 16 13 16.8954 13 18C13 19.1046 12.1046 20 11 20C9.89543 20 9 19.1046 9 18C9 16.8954 9.89543 16 11 16Z" fill="currentColor"/><path d="M6 16.5C6.82843 16.5 7.5 17.1716 7.5 18C7.5 18.8284 6.82843 19.5 6 19.5C5.17157 19.5 4.5 18.8284 4.5 18C4.5 17.1716 5.17157 16.5 6 16.5Z" fill="currentColor"/><path d="M17 9.5C18.3807 9.5 19.5 10.6193 19.5 12C19.5 13.3807 18.3807 14.5 17 14.5C15.6193 14.5 14.5 13.3807 14.5 12C14.5 10.6193 15.6193 9.5 17 9.5Z" fill="currentColor"/><path d="M11 10C12.1046 10 13 10.8954 13 12C13 13.1046 12.1046 14 11 14C9.89543 14 9 13.1046 9 12C9 10.8954 9.89543 10 11 10Z" fill="currentColor"/><path d="M6 10.5C6.82843 10.5 7.5 11.1716 7.5 12C7.5 12.8284 6.82843 13.5 6 13.5C5.17157 13.5 4.5 12.8284 4.5 12C4.5 11.1716 5.17157 10.5 6 10.5Z" fill="currentColor"/><path d="M17 3.5C18.3807 3.5 19.5 4.61929 19.5 6C19.5 7.38071 18.3807 8.5 17 8.5C15.6193 8.5 14.5 7.38071 14.5 6C14.5 4.61929 15.6193 3.5 17 3.5Z" fill="currentColor"/><path d="M11 4C12.1046 4 13 4.89543 13 6C13 7.10457 12.1046 8 11 8C9.89543 8 9 7.10457 9 6C9 4.89543 9.89543 4 11 4Z" fill="currentColor"/><path d="M6 4.5C6.82843 4.5 7.5 5.17157 7.5 6C7.5 6.82843 6.82843 7.5 6 7.5C5.17157 7.5 4.5 6.82843 4.5 6C4.5 5.17157 5.17157 4.5 6 4.5Z" fill="currentColor"/></g></svg>