<svg width="24px" height="24px" viewBox="0 0 24 24" fill="currentColor" xmlns="http://www.w3.org/2000/svg"><g><path d="M10.1084 2.17902C10.5151 2.10117 10.9083 2.36811 10.9863 2.77473C11.064 3.18137 10.7973 3.57377 10.3906 3.65168C6.46583 4.40339 3.50016 7.85679 3.5 12.0003C3.5001 14.6981 4.75662 17.1022 6.71875 18.6605C7.04287 18.918 7.09622 19.3899 6.83887 19.7142C6.58123 20.0384 6.10945 20.0928 5.78516 19.8353C3.48023 18.0047 2.0001 15.1749 2 12.0003C2.00016 7.1238 5.49017 3.06363 10.1084 2.17902Z" fill="currentColor"/><path d="M13.0137 2.77473C13.0917 2.36811 13.4849 2.10117 13.8916 2.17902C18.5099 3.06363 21.9998 7.1238 22 12.0003C21.9999 15.1749 20.5198 18.0047 18.2148 19.8353C17.8905 20.0928 17.4188 20.0384 17.1611 19.7142C16.9038 19.3899 16.9571 18.918 17.2812 18.6605C19.2434 17.1022 20.4999 14.6981 20.5 12.0003C20.4998 7.85678 17.5342 4.40339 13.6094 3.65168C13.2027 3.57377 12.936 3.18138 13.0137 2.77473Z" fill="currentColor"/><path d="M11.5938 7.77277C11.7664 7.42656 12.2346 7.42656 12.4072 7.77277C12.9919 8.94522 14.0008 11.2242 14.001 12.9993C14.001 14.1037 13.1053 14.9991 12.001 14.9993C10.8964 14.9993 10.001 14.1039 10.001 12.9993C10.0011 11.2242 11.0091 8.94522 11.5938 7.77277Z" fill="currentColor"/></g></svg>