<svg width="24px" height="24px" viewBox="0 0 24 24" fill="currentColor" xmlns="http://www.w3.org/2000/svg"><g><path d="M12.0002 2C6.47735 2 2 6.47723 2 12.0001C2 17.5231 6.47735 22 12.0002 22C17.5236 22 22.0005 17.5231 22.0005 12.0001C22.0005 6.47759 17.5236 2.00048 12.0001 2.00048L12.0002 2ZM16.5862 16.423C16.4071 16.7167 16.0226 16.8099 15.7288 16.6295C13.3809 15.1954 10.4251 14.8706 6.94414 15.6659C6.60871 15.7423 6.27434 15.5321 6.19792 15.1966C6.12113 14.861 6.33047 14.5266 6.66674 14.4502C10.4761 13.5796 13.7436 13.9546 16.3796 15.5656C16.6734 15.7459 16.7665 16.1292 16.5862 16.423ZM17.8102 13.6997C17.5845 14.0669 17.1045 14.1827 16.7379 13.957C14.0498 12.3044 9.95233 11.826 6.7729 12.7911C6.36056 12.9156 5.92506 12.6832 5.79991 12.2716C5.67572 11.8593 5.90822 11.4246 6.31984 11.2992C9.95161 10.1973 14.4666 10.731 17.5535 12.6279C17.9201 12.8536 18.0359 13.3336 17.8102 13.6997ZM17.9153 10.8643C14.6923 8.94996 9.37472 8.77394 6.29751 9.70789C5.80337 9.85775 5.28081 9.5788 5.13106 9.08466C4.98132 8.59028 5.26003 8.06808 5.75453 7.91785C9.28695 6.84551 15.1592 7.05269 18.8699 9.25554C19.3153 9.51933 19.461 10.0934 19.1971 10.5372C18.9344 10.9817 18.3588 11.1282 17.9158 10.8643H17.9153Z" fill="currentColor"/></g></svg>