<svg width="24px" height="24px" viewBox="0 0 24 24" fill="currentColor" xmlns="http://www.w3.org/2000/svg"><g><path fill-rule="evenodd" clip-rule="evenodd" d="M8.5179 3L9.25 3C9.66421 3 10 3.33579 10 3.75C10 4.16421 9.66421 4.5 9.25 4.5H8.55C7.69755 4.5 7.10331 4.50058 6.64068 4.53838C6.1868 4.57547 5.92604 4.6446 5.72852 4.74524C5.30516 4.96095 4.96095 5.30516 4.74524 5.72852C4.6446 5.92604 4.57547 6.1868 4.53838 6.64068C4.50058 7.10331 4.5 7.69755 4.5 8.55V15.45C4.5 16.3025 4.50058 16.8967 4.53838 17.3593C4.57547 17.8132 4.6446 18.074 4.74524 18.2715C4.96095 18.6948 5.30516 19.0391 5.72852 19.2548C5.92604 19.3554 6.1868 19.4245 6.64068 19.4616C7.10331 19.4994 7.69755 19.5 8.55 19.5H15.45C16.3025 19.5 16.8967 19.4994 17.3593 19.4616C17.8132 19.4245 18.074 19.3554 18.2715 19.2548C18.6948 19.0391 19.0391 18.6948 19.2548 18.2715C19.3554 18.074 19.4245 17.8132 19.4616 17.3593C19.4994 16.8967 19.5 16.3025 19.5 15.45V14.75C19.5 14.3358 19.8358 14 20.25 14C20.6642 14 21 14.3358 21 14.75V15.4821C21 16.295 21 16.9506 20.9566 17.4815C20.912 18.0281 20.8176 18.5082 20.5913 18.9525C20.2318 19.6581 19.6581 20.2318 18.9525 20.5913C18.5082 20.8176 18.0281 20.912 17.4815 20.9566C16.9506 21 16.295 21 15.4821 21H8.51788C7.70505 21 7.04944 21 6.51853 20.9566C5.9719 20.912 5.49175 20.8176 5.04754 20.5913C4.34193 20.2318 3.76825 19.6581 3.40873 18.9525C3.18239 18.5082 3.08803 18.0281 3.04336 17.4815C2.99999 16.9506 2.99999 16.2949 3 15.4821V8.5179C2.99999 7.70506 2.99999 7.04944 3.04336 6.51853C3.08803 5.9719 3.18239 5.49175 3.40873 5.04754C3.76825 4.34193 4.34193 3.76825 5.04754 3.40873C5.49175 3.18239 5.9719 3.08803 6.51853 3.04336C7.04944 2.99999 7.70506 2.99999 8.5179 3ZM13 3.75C13 3.33579 13.3358 3 13.75 3H20.25C20.6642 3 21 3.33579 21 3.75V10.25C21 10.6642 20.6642 11 20.25 11C19.8358 11 19.5 10.6642 19.5 10.25V5.56066L11.5303 13.5303C11.2374 13.8232 10.7626 13.8232 10.4697 13.5303C10.1768 13.2374 10.1768 12.7626 10.4697 12.4697L18.4393 4.5H13.75C13.3358 4.5 13 4.16421 13 3.75Z" fill="currentColor"/></g></svg>