<svg width="24px" height="24px" viewBox="0 0 24 24" fill="currentColor" xmlns="http://www.w3.org/2000/svg"><g><path fill-rule="evenodd" clip-rule="evenodd" d="M7 6.75C7 4.67893 8.67893 3 10.75 3H17.25C19.3211 3 21 4.67893 21 6.75V13.26C21 15.3311 19.3211 17.01 17.25 17.01H17V17.25C17 19.3211 15.3211 21 13.25 21H6.75C4.67893 21 3 19.3211 3 17.25V10.75C3 8.67893 4.67893 7 6.75 7H7V6.75ZM17 15.51V10.75C17 8.67893 15.3211 7 13.25 7H8.5V6.75C8.5 5.50736 9.50736 4.5 10.75 4.5H17.25C18.4926 4.5 19.5 5.50736 19.5 6.75V13.26C19.5 14.5026 18.4926 15.51 17.25 15.51H17Z" fill="currentColor"/></g></svg>