<svg width="24px" height="24px" viewBox="0 0 24 24" fill="currentColor" xmlns="http://www.w3.org/2000/svg"><g><path fill-rule="evenodd" clip-rule="evenodd" d="M17.25 3C19.3211 3 21 4.67893 21 6.75V17.25C21 19.3211 19.3211 21 17.25 21H6.75C4.67893 21 3 19.3211 3 17.25V6.75C3 4.67893 4.67893 3 6.75 3H17.25ZM13.5303 10.4697C13.2374 10.1768 12.7626 10.1768 12.4697 10.4697L8.5 14.4395V11.75C8.5 11.3358 8.16421 11 7.75 11C7.33579 11 7 11.3358 7 11.75V16.25C7 16.6642 7.33579 17 7.75 17H12.25C12.6642 17 13 16.6642 13 16.25C13 15.8358 12.6642 15.5 12.25 15.5H9.56055L13.5303 11.5303C13.8232 11.2374 13.8232 10.7626 13.5303 10.4697Z" fill="currentColor"/></g></svg>