<svg width="24px" height="24px" viewBox="0 0 24 24" fill="currentColor" xmlns="http://www.w3.org/2000/svg"><g><path fill-rule="evenodd" clip-rule="evenodd" d="M17.25 3C19.3211 3 21 4.67893 21 6.75V17.25C21 19.3211 19.3211 21 17.25 21H6.75C4.67893 21 3 19.3211 3 17.25V6.75C3 4.67893 4.67893 3 6.75 3H17.25ZM11.75 7C11.3358 7 11 7.33579 11 7.75C11 8.16421 11.3358 8.5 11.75 8.5H14.4395L10.4697 12.4697C10.1768 12.7626 10.1768 13.2374 10.4697 13.5303C10.7626 13.8232 11.2374 13.8232 11.5303 13.5303L15.5 9.56055V12.25C15.5 12.6642 15.8358 13 16.25 13C16.6642 13 17 12.6642 17 12.25V7.75C17 7.33579 16.6642 7 16.25 7H11.75Z" fill="currentColor"/></g></svg>