<svg width="24px" height="24px" viewBox="0 0 24 24" fill="currentColor" xmlns="http://www.w3.org/2000/svg"><g><path fill-rule="evenodd" clip-rule="evenodd" d="M17.25 3C19.3211 3 21 4.67893 21 6.75V17.25C21 19.3211 19.3211 21 17.25 21H6.75C4.67893 21 3 19.3211 3 17.25V6.75C3 4.67893 4.67893 3 6.75 3H17.25ZM7.75 7C7.33579 7 7 7.33579 7 7.75V12.25C7 12.6642 7.33579 13 7.75 13C8.16421 13 8.5 12.6642 8.5 12.25V9.56055L12.4697 13.5303C12.7626 13.8232 13.2374 13.8232 13.5303 13.5303C13.8232 13.2374 13.8232 12.7626 13.5303 12.4697L9.56055 8.5H12.25C12.6642 8.5 13 8.16421 13 7.75C13 7.33579 12.6642 7 12.25 7H7.75Z" fill="currentColor"/></g></svg>