<svg width="24px" height="24px" viewBox="0 0 24 24" fill="currentColor" xmlns="http://www.w3.org/2000/svg"><g><path d="M17.4815 3.04336C18.0281 3.08803 18.5082 3.18239 18.9525 3.40873C19.6581 3.76825 20.2317 4.34193 20.5913 5.04754C20.8176 5.49175 20.912 5.9719 20.9566 6.51853C21 7.04944 21 7.70506 21 8.5179V10.25C21 10.6642 20.6642 11 20.25 11H13.75C13.3358 11 13 10.6642 13 10.25V3.75C13 3.33579 13.3358 3 13.75 3H15.4821C16.2949 2.99999 16.9506 2.99999 17.4815 3.04336Z" fill="currentColor"/><path d="M8.5179 3H10.25C10.6642 3 11 3.33579 11 3.75V10.25C11 10.6642 10.6642 11 10.25 11H3.75C3.33579 11 3 10.6642 3 10.25V8.5179C2.99999 7.70506 2.99999 7.04944 3.04336 6.51853C3.08803 5.9719 3.18239 5.49175 3.40873 5.04754C3.76825 4.34193 4.34193 3.76825 5.04754 3.40873C5.49175 3.18239 5.9719 3.08803 6.51853 3.04336C7.04944 2.99999 7.70506 2.99999 8.5179 3Z" fill="currentColor"/><path d="M3 13.75C3 13.3358 3.33579 13 3.75 13H10.25C10.6642 13 11 13.3358 11 13.75V20.25C11 20.6642 10.6642 21 10.25 21H8.5179C7.70506 21 7.04944 21 6.51853 20.9566C5.9719 20.912 5.49175 20.8176 5.04754 20.5913C4.34193 20.2317 3.76825 19.6581 3.40873 18.9525C3.18239 18.5082 3.08803 18.0281 3.04336 17.4815C2.99999 16.9506 2.99999 16.2949 3 15.4821V13.75Z" fill="currentColor"/><path fill-rule="evenodd" clip-rule="evenodd" d="M17 13.0078C14.7909 13.0078 13 14.7987 13 17.0078C13 19.217 14.7909 21.0078 17 21.0078C17.8352 21.0078 18.6113 20.7513 19.2528 20.3134L20.5983 21.659C20.8912 21.9519 21.3661 21.9519 21.659 21.659C21.9519 21.3661 21.9519 20.8912 21.659 20.5984L20.312 19.2513C20.7459 18.6116 21 17.839 21 17.0078C21 14.7987 19.2091 13.0078 17 13.0078ZM14.5 17.0078C14.5 15.6271 15.6193 14.5078 17 14.5078C18.3807 14.5078 19.5 15.6271 19.5 17.0078C19.5 17.6969 19.2222 18.3196 18.7708 18.7726C18.3173 19.2276 17.6921 19.5078 17 19.5078C15.6193 19.5078 14.5 18.3885 14.5 17.0078Z" fill="currentColor"/></g></svg>