<svg width="24px" height="24px" viewBox="0 0 24 24" fill="currentColor" xmlns="http://www.w3.org/2000/svg"><g><path fill-rule="evenodd" clip-rule="evenodd" d="M17.25 3C19.3211 3 21 4.67893 21 6.75V17.25C21 19.3211 19.3211 21 17.25 21H6.75C4.67893 21 3 19.3211 3 17.25V6.75C3 4.67893 4.67893 3 6.75 3H17.25ZM11.5303 10.4697C11.2374 10.1768 10.7626 10.1768 10.4697 10.4697C10.1768 10.7626 10.1768 11.2374 10.4697 11.5303L14.4395 15.5H11.75C11.3358 15.5 11 15.8358 11 16.25C11 16.6642 11.3358 17 11.75 17H16.25C16.6642 17 17 16.6642 17 16.25V11.75C17 11.3358 16.6642 11 16.25 11C15.8358 11 15.5 11.3358 15.5 11.75V14.4395L11.5303 10.4697Z" fill="currentColor"/></g></svg>