<svg width="24px" height="24px" viewBox="0 0 24 24" fill="currentColor" xmlns="http://www.w3.org/2000/svg"><g><path fill-rule="evenodd" clip-rule="evenodd" d="M7 3.25C4.92893 3.25 3.25 4.92893 3.25 7V17.5C3.25 19.5711 4.92893 21.25 7 21.25H13.8578C13.7481 21.1569 13.6413 21.0585 13.5377 20.955C11.4874 18.9047 11.4874 15.5806 13.5377 13.5303C15.5879 11.4801 18.9121 11.4801 20.9623 13.5303C21.0632 13.6312 21.1591 13.7351 21.25 13.8418V7C21.25 4.92893 19.5711 3.25 17.5 3.25H7ZM10.9896 7.15224C11.321 7.40077 11.3881 7.87087 11.1396 8.20224L9.26797 10.6978C9.02914 11.0162 8.58314 11.0926 8.25194 10.8718L7.12694 10.1218C6.7823 9.89203 6.68917 9.42637 6.91893 9.08173C7.1487 8.73708 7.61435 8.64395 7.95899 8.87372L8.49366 9.23016L9.9396 7.30224C10.1881 6.97087 10.6582 6.90371 10.9896 7.15224ZM13.058 9C13.058 8.58579 13.3937 8.25 13.808 8.25H16.308C16.7222 8.25 17.058 8.58579 17.058 9C17.058 9.41421 16.7222 9.75 16.308 9.75H13.808C13.3937 9.75 13.058 9.41421 13.058 9ZM10.9896 13.1534C11.321 13.4019 11.3881 13.872 11.1396 14.2034L9.26797 16.6989C9.02914 17.0173 8.58314 17.0937 8.25194 16.8729L7.12694 16.1229C6.7823 15.8932 6.68917 15.4275 6.91893 15.0829C7.1487 14.7382 7.61435 14.6451 7.95899 14.8748L8.49366 15.2313L9.9396 13.3034C10.1881 12.972 10.6582 12.9048 10.9896 13.1534Z" fill="currentColor"/><path fill-rule="evenodd" clip-rule="evenodd" d="M18.841 15.6517C17.9623 14.773 16.5377 14.773 15.659 15.6517C14.7803 16.5303 14.7803 17.955 15.659 18.8336C16.5377 19.7123 17.9623 19.7123 18.841 18.8336C19.7197 17.955 19.7197 16.5303 18.841 15.6517ZM14.5983 14.591C16.0628 13.1265 18.4372 13.1265 19.9016 14.591C21.1845 15.8738 21.3436 17.8549 20.3789 19.3109L21.7803 20.7123C22.0732 21.0052 22.0732 21.4801 21.7803 21.773C21.4874 22.0659 21.0126 22.0659 20.7197 21.773L19.3183 20.3716C17.8623 21.3362 15.8812 21.1771 14.5983 19.8943C13.1339 18.4298 13.1339 16.0555 14.5983 14.591Z" fill="currentColor"/></g></svg>