<svg width="24px" height="24px" viewBox="0 0 24 24" fill="currentColor" xmlns="http://www.w3.org/2000/svg"><g><path fill-rule="evenodd" clip-rule="evenodd" d="M8.5179 3H15.4821C16.2949 2.99999 16.9506 2.99999 17.4815 3.04336C18.0281 3.08803 18.5082 3.18239 18.9525 3.40873C19.6581 3.76825 20.2318 4.34193 20.5913 5.04754C20.8176 5.49176 20.912 5.9719 20.9566 6.51853C21 7.04944 21 7.70505 21 8.51788V15.4821C21 16.295 21 16.9506 20.9566 17.4815C20.912 18.0281 20.8176 18.5082 20.5913 18.9525C20.2318 19.6581 19.6581 20.2318 18.9525 20.5913C18.5082 20.8176 18.0281 20.912 17.4815 20.9566C16.9506 21 16.295 21 15.4821 21H8.51788C7.70505 21 7.04944 21 6.51853 20.9566C5.9719 20.912 5.49176 20.8176 5.04754 20.5913C4.34193 20.2318 3.76825 19.6581 3.40873 18.9525C3.18239 18.5082 3.08803 18.0281 3.04336 17.4815C2.99999 16.9506 2.99999 16.2949 3 15.4821V8.51789C2.99999 7.70505 2.99999 7.04944 3.04336 6.51853C3.08803 5.9719 3.18239 5.49176 3.40873 5.04754C3.76825 4.34193 4.34193 3.76825 5.04754 3.40873C5.49176 3.18239 5.9719 3.08803 6.51853 3.04336C7.04944 2.99999 7.70506 2.99999 8.5179 3ZM16.0271 10.4445C16.32 10.1516 16.32 9.67676 16.0271 9.38386C15.7342 9.09097 15.2593 9.09097 14.9664 9.38386L10.9968 13.3535L9.52711 11.8839C9.23421 11.591 8.75934 11.591 8.46645 11.8839C8.17355 12.1768 8.17355 12.6516 8.46645 12.9445L10.4664 14.9445C10.7593 15.2374 11.2342 15.2374 11.5271 14.9445L16.0271 10.4445Z" fill="currentColor"/></g></svg>