<svg width="24px" height="24px" viewBox="0 0 24 24" fill="currentColor" xmlns="http://www.w3.org/2000/svg"><g><path fill-rule="evenodd" clip-rule="evenodd" d="M3 6.75C3 4.67893 4.67893 3 6.75 3H17.25C19.3211 3 21 4.67893 21 6.75V17.25C21 19.3211 19.3211 21 17.25 21H6.75C4.67893 21 3 19.3211 3 17.25V6.75ZM8 14C8 13.5858 8.33579 13.25 8.75 13.25H13.25C13.6642 13.25 14 13.5858 14 14C14 14.4142 13.6642 14.75 13.25 14.75H8.75C8.33579 14.75 8 14.4142 8 14ZM8.75 9.25C8.33579 9.25 8 9.58579 8 10C8 10.4142 8.33579 10.75 8.75 10.75H15.25C15.6642 10.75 16 10.4142 16 10C16 9.58579 15.6642 9.25 15.25 9.25H8.75Z" fill="currentColor"/></g></svg>