<svg width="24px" height="24px" viewBox="0 0 24 24" fill="currentColor" xmlns="http://www.w3.org/2000/svg"><g><path fill-rule="evenodd" clip-rule="evenodd" d="M2 7.75C2 5.67893 3.67893 4 5.75 4H18.25C20.3211 4 22 5.67893 22 7.75V16.25C22 18.3211 20.3211 20 18.25 20H5.75C3.67893 20 2 18.3211 2 16.25V7.75ZM6 15.25C6 14.8358 6.33579 14.5 6.75 14.5H12.25C12.6642 14.5 13 14.8358 13 15.25C13 15.6642 12.6642 16 12.25 16H6.75C6.33579 16 6 15.6642 6 15.25ZM15 15.25C15 14.8358 15.3358 14.5 15.75 14.5H17.25C17.6642 14.5 18 14.8358 18 15.25C18 15.6642 17.6642 16 17.25 16H15.75C15.3358 16 15 15.6642 15 15.25ZM6.75 10.5C6.33579 10.5 6 10.8358 6 11.25C6 11.6642 6.33579 12 6.75 12H8.25C8.66421 12 9 11.6642 9 11.25C9 10.8358 8.66421 10.5 8.25 10.5H6.75ZM11.75 10.5C11.3358 10.5 11 10.8358 11 11.25C11 11.6642 11.3358 12 11.75 12H17.25C17.6642 12 18 11.6642 18 11.25C18 10.8358 17.6642 10.5 17.25 10.5H11.75Z" fill="currentColor"/></g></svg>