<svg width="24px" height="24px" viewBox="0 0 24 24" fill="currentColor" xmlns="http://www.w3.org/2000/svg"><g><path fill-rule="evenodd" clip-rule="evenodd" d="M3 5.7C3 4.20883 4.20883 3 5.7 3C6.11421 3 6.45 3.33579 6.45 3.75C6.45 4.16421 6.11421 4.5 5.7 4.5C5.03726 4.5 4.5 5.03726 4.5 5.7V5.75C4.5 6.16421 4.16421 6.5 3.75 6.5C3.33579 6.5 3 6.16421 3 5.75V5.7ZM9.5 3.75C9.5 3.33579 9.83579 3 10.25 3H13.75C14.1642 3 14.5 3.33579 14.5 3.75C14.5 4.16421 14.1642 4.5 13.75 4.5H10.25C9.83579 4.5 9.5 4.16421 9.5 3.75ZM17.5 3.75C17.5 3.33579 17.8358 3 18.25 3C19.7688 3 21 4.23122 21 5.75C21 6.16421 20.6642 6.5 20.25 6.5C19.8358 6.5 19.5 6.16421 19.5 5.75C19.5 5.05964 18.9404 4.5 18.25 4.5C17.8358 4.5 17.5 4.16421 17.5 3.75ZM3.75 9.5C4.16421 9.5 4.5 9.83579 4.5 10.25V13.75C4.5 14.1642 4.16421 14.5 3.75 14.5C3.33579 14.5 3 14.1642 3 13.75V10.25C3 9.83579 3.33579 9.5 3.75 9.5ZM20.25 9.5C20.6642 9.5 21 9.83579 21 10.25V13.75C21 14.1642 20.6642 14.5 20.25 14.5C19.8358 14.5 19.5 14.1642 19.5 13.75V10.25C19.5 9.83579 19.8358 9.5 20.25 9.5ZM3.75 17.5C4.16421 17.5 4.5 17.8358 4.5 18.25V18.3C4.5 18.9627 5.03726 19.5 5.7 19.5C6.11421 19.5 6.45 19.8358 6.45 20.25C6.45 20.6642 6.11421 21 5.7 21C4.20883 21 3 19.7912 3 18.3V18.25C3 17.8358 3.33579 17.5 3.75 17.5ZM20.25 17.5C20.6642 17.5 21 17.8358 21 18.25C21 19.7688 19.7688 21 18.25 21C17.8358 21 17.5 20.6642 17.5 20.25C17.5 19.8358 17.8358 19.5 18.25 19.5C18.9404 19.5 19.5 18.9404 19.5 18.25C19.5 17.8358 19.8358 17.5 20.25 17.5ZM9.5 20.25C9.5 19.8358 9.83579 19.5 10.25 19.5H13.75C14.1642 19.5 14.5 19.8358 14.5 20.25C14.5 20.6642 14.1642 21 13.75 21H10.25C9.83579 21 9.5 20.6642 9.5 20.25Z" fill="currentColor"/><path d="M6 8C6 6.89543 6.89543 6 8 6H16C17.1046 6 18 6.89543 18 8V16C18 17.1046 17.1046 18 16 18H8C6.89543 18 6 17.1046 6 16V8Z" fill="currentColor"/></g></svg>