<svg width="24px" height="24px" viewBox="0 0 24 24" fill="currentColor" xmlns="http://www.w3.org/2000/svg"><g><path fill-rule="evenodd" clip-rule="evenodd" d="M3 6.75C3 4.67893 4.67893 3 6.75 3H17.25C19.3211 3 21 4.67893 21 6.75V17.25C21 19.3211 19.3211 21 17.25 21H6.75C4.67893 21 3 19.3211 3 17.25V6.75ZM8.75 17C8.33579 17 8 16.6642 8 16.25C8 15.8358 8.33579 15.5 8.75 15.5H15.25C15.6642 15.5 16 15.8358 16 16.25C16 16.6642 15.6642 17 15.25 17H8.75ZM14.7803 11.7803L12.5303 14.0303C12.2374 14.3232 11.7626 14.3232 11.4697 14.0303L9.21967 11.7803C8.92678 11.4874 8.92678 11.0126 9.21967 10.7197C9.51256 10.4268 9.98744 10.4268 10.2803 10.7197L11.25 11.6893V7.75C11.25 7.33579 11.5858 7 12 7C12.4142 7 12.75 7.33579 12.75 7.75V11.6893L13.7197 10.7197C14.0126 10.4268 14.4874 10.4268 14.7803 10.7197C15.0732 11.0126 15.0732 11.4874 14.7803 11.7803Z" fill="currentColor"/></g></svg>