<svg width="24px" height="24px" viewBox="0 0 24 24" fill="currentColor" xmlns="http://www.w3.org/2000/svg"><g><path fill-rule="evenodd" clip-rule="evenodd" d="M7 3.25C4.92893 3.25 3.25 4.92893 3.25 7V17.5C3.25 19.5711 4.92893 21.25 7 21.25H12.5V17C12.5 13.9624 14.9624 11.5 18 11.5C19.2158 11.5 20.3395 11.8945 21.25 12.5625V7C21.25 4.92893 19.5711 3.25 17.5 3.25H7ZM10.9896 7.15224C11.321 7.40077 11.3881 7.87087 11.1396 8.20224L9.26797 10.6978C9.02914 11.0162 8.58314 11.0926 8.25194 10.8718L7.12694 10.1218C6.7823 9.89203 6.68917 9.42637 6.91893 9.08173C7.1487 8.73708 7.61435 8.64395 7.95899 8.87372L8.49366 9.23016L9.9396 7.30224C10.1881 6.97087 10.6582 6.90371 10.9896 7.15224ZM13.058 9C13.058 8.58579 13.3937 8.25 13.808 8.25H16.308C16.7222 8.25 17.058 8.58579 17.058 9C17.058 9.41421 16.7222 9.75 16.308 9.75H13.808C13.3937 9.75 13.058 9.41421 13.058 9ZM10.9896 13.1534C11.321 13.4019 11.3881 13.872 11.1396 14.2034L9.26797 16.6989C9.02914 17.0173 8.58314 17.0937 8.25194 16.8729L7.12694 16.1229C6.7823 15.8932 6.68917 15.4275 6.91893 15.0829C7.1487 14.7382 7.61435 14.6451 7.95899 14.8748L8.49366 15.2313L9.9396 13.3034C10.1881 12.972 10.6582 12.9048 10.9896 13.1534Z" fill="currentColor"/><path fill-rule="evenodd" clip-rule="evenodd" d="M14 17C14 14.7909 15.7909 13 18 13C20.2091 13 22 14.7909 22 17V20.25C22 20.6642 21.6642 21 21.25 21H14.75C14.3358 21 14 20.6642 14 20.25V17ZM18 14.5C16.6193 14.5 15.5 15.6193 15.5 17V19.5H20.5V17C20.5 15.6193 19.3807 14.5 18 14.5Z" fill="currentColor"/><path d="M18 22C19.1046 22 20 21.1046 20 20H16C16 21.1046 16.8954 22 18 22Z" fill="currentColor"/></g></svg>