<svg width="24px" height="24px" viewBox="0 0 24 24" fill="currentColor" xmlns="http://www.w3.org/2000/svg"><g><path fill-rule="evenodd" clip-rule="evenodd" d="M3.25 7C3.25 4.92893 4.92893 3.25 7 3.25H17.5C19.5711 3.25 21.25 4.92893 21.25 7V17.5C21.25 19.5711 19.5711 21.25 17.5 21.25H7C4.92893 21.25 3.25 19.5711 3.25 17.5V7ZM11.1396 8.20224C11.3881 7.87087 11.321 7.40077 10.9896 7.15224C10.6582 6.90372 10.1881 6.97087 9.9396 7.30224L8.49366 9.23016L7.95899 8.87372C7.61435 8.64395 7.1487 8.73708 6.91893 9.08173C6.68917 9.42638 6.7823 9.89203 7.12694 10.1218L8.25194 10.8718C8.58314 11.0926 9.02914 11.0162 9.26797 10.6978L11.1396 8.20224ZM13.808 8.25C13.3937 8.25 13.058 8.58579 13.058 9C13.058 9.41421 13.3937 9.75 13.808 9.75H16.308C16.7222 9.75 17.058 9.41421 17.058 9C17.058 8.58579 16.7222 8.25 16.308 8.25H13.808ZM11.1396 14.2034C11.3881 13.872 11.321 13.4019 10.9896 13.1534C10.6582 12.9048 10.1881 12.972 9.9396 13.3034L8.49366 15.2313L7.95899 14.8748C7.61435 14.6451 7.14869 14.7382 6.91893 15.0829C6.68917 15.4275 6.7823 15.8932 7.12694 16.1229L8.25194 16.8729C8.58314 17.0937 9.02914 17.0173 9.26797 16.6989L11.1396 14.2034ZM13.75 14.25C13.3358 14.25 13 14.5858 13 15C13 15.4142 13.3358 15.75 13.75 15.75H16.25C16.6642 15.75 17 15.4142 17 15C17 14.5858 16.6642 14.25 16.25 14.25H13.75Z" fill="currentColor"/></g></svg>