<svg width="24px" height="24px" viewBox="0 0 24 24" fill="currentColor" xmlns="http://www.w3.org/2000/svg"><g><path d="M3 17.25V3.75C3 3.33579 3.33579 3 3.75 3C4.16421 3 4.5 3.33579 4.5 3.75V17.25C4.5 18.4926 5.50736 19.5 6.75 19.5H20.25C20.6642 19.5 21 19.8358 21 20.25C21 20.6642 20.6642 21 20.25 21H6.75C4.67893 21 3 19.3211 3 17.25ZM7.25 17.25V12.75C7.25 12.3358 7.58579 12 8 12C8.41421 12 8.75 12.3358 8.75 12.75V17.25C8.75 17.6642 8.41421 18 8 18C7.58579 18 7.25 17.6642 7.25 17.25ZM12.25 17.25V10.75C12.25 10.3358 12.5858 10 13 10C13.4142 10 13.75 10.3358 13.75 10.75V17.25C13.75 17.6642 13.4142 18 13 18C12.5858 18 12.25 17.6642 12.25 17.25ZM17.25 17.25V13.75C17.25 13.3358 17.5858 13 18 13C18.4142 13 18.75 13.3358 18.75 13.75V17.25C18.75 17.6642 18.4142 18 18 18C17.5858 18 17.25 17.6642 17.25 17.25ZM17.25 10.25V5.75C17.25 5.33579 17.5858 5 18 5C18.4142 5 18.75 5.33579 18.75 5.75V10.25C18.75 10.6642 18.4142 11 18 11C17.5858 11 17.25 10.6642 17.25 10.25ZM7.25 9.25V5.75C7.25 5.33579 7.58579 5 8 5C8.41421 5 8.75 5.33579 8.75 5.75V9.25C8.75 9.66421 8.41421 10 8 10C7.58579 10 7.25 9.66421 7.25 9.25ZM12.25 7.25V5.75C12.25 5.33579 12.5858 5 13 5C13.4142 5 13.75 5.33579 13.75 5.75V7.25C13.75 7.66421 13.4142 8 13 8C12.5858 8 12.25 7.66421 12.25 7.25Z" fill="currentColor"/></g></svg>