<svg width="24px" height="24px" viewBox="0 0 24 24" fill="currentColor" xmlns="http://www.w3.org/2000/svg"><g><path d="M21.25 18.5C21.6642 18.5 22 18.8358 22 19.25C22 19.6642 21.6642 20 21.25 20H2.75C2.33579 20 2 19.6642 2 19.25C2 18.8358 2.33579 18.5 2.75 18.5H21.25Z" fill="currentColor"/><path d="M4.75 13C5.16421 13 5.5 13.3358 5.5 13.75V16.5C5.5 16.9142 5.16421 17.25 4.75 17.25C4.33579 17.25 4 16.9142 4 16.5V13.75C4 13.3358 4.33579 13 4.75 13Z" fill="currentColor"/><path d="M9.58398 12C9.99797 12.0003 10.334 12.3359 10.334 12.75V16.5C10.334 16.9141 9.99797 17.2497 9.58398 17.25C9.16977 17.25 8.83398 16.9142 8.83398 16.5V12.75C8.83398 12.3358 9.16977 12 9.58398 12Z" fill="currentColor"/><path d="M14.417 9.5C14.8312 9.5 15.167 9.83579 15.167 10.25V16.5C15.167 16.9142 14.8312 17.25 14.417 17.25C14.0028 17.25 13.667 16.9142 13.667 16.5V10.25C13.667 9.83579 14.0028 9.5 14.417 9.5Z" fill="currentColor"/><path d="M19.251 12.5C19.665 12.5003 20.001 12.8359 20.001 13.25V16.5C20.001 16.9141 19.665 17.2497 19.251 17.25C18.8368 17.25 18.501 16.9142 18.501 16.5V13.25C18.501 12.8358 18.8368 12.5 19.251 12.5Z" fill="currentColor"/><path d="M4.75 4C5.16421 4 5.5 4.33579 5.5 4.75V10.25C5.5 10.6642 5.16421 11 4.75 11C4.33579 11 4 10.6642 4 10.25V4.75C4 4.33579 4.33579 4 4.75 4Z" fill="currentColor"/><path d="M19.251 4C19.665 4.00026 20.001 4.33595 20.001 4.75V9.75C20.001 10.1641 19.665 10.4997 19.251 10.5C18.8368 10.5 18.501 10.1642 18.501 9.75V4.75C18.501 4.33579 18.8368 4 19.251 4Z" fill="currentColor"/><path d="M9.58398 4C9.99797 4.00026 10.334 4.33595 10.334 4.75V9.25C10.334 9.66405 9.99797 9.99974 9.58398 10C9.16977 10 8.83398 9.66421 8.83398 9.25V4.75C8.83398 4.33579 9.16977 4 9.58398 4Z" fill="currentColor"/><path d="M14.417 4C14.8312 4 15.167 4.33579 15.167 4.75V6.75C15.167 7.16421 14.8312 7.5 14.417 7.5C14.0028 7.5 13.667 7.16421 13.667 6.75V4.75C13.667 4.33579 14.0028 4 14.417 4Z" fill="currentColor"/></g></svg>