<svg width="24px" height="24px" viewBox="0 0 24 24" fill="currentColor" xmlns="http://www.w3.org/2000/svg"><g><path d="M21.0056 10.0319C20.0787 10.7255 19.262 11.5292 18.5556 12.4431L18.5847 12.4528V12.4625L18.5556 12.4431C17.8635 13.3368 17.2854 14.3133 16.8347 15.35L16.8153 15.3986C16.3719 16.4296 16.0679 17.5151 15.9111 18.6264V18.6458C15.8269 19.2421 15.7847 19.8514 15.7847 20.4736C15.7847 21.0083 15.8528 21.4847 15.9111 22H3V18.6264H14.1806L14.2486 18.2083L3.48611 15.35L4.39028 12.0444L15.2889 14.9417L15.4444 14.6111L5.64444 9.03056L7.375 6.05556L17.3111 11.7236L17.5542 11.4417L9.41667 3.42083L11.8667 1L21.0056 10.0319Z" fill="currentColor"/></g></svg>