<svg width="24px" height="24px" viewBox="0 0 24 24" fill="currentColor" xmlns="http://www.w3.org/2000/svg"><g><path d="M3 17.25V3.75C3 3.33579 3.33579 3 3.75 3C4.16421 3 4.5 3.33579 4.5 3.75V17.25C4.5 18.4926 5.50736 19.5 6.75 19.5H20.25C20.6642 19.5 21 19.8358 21 20.25C21 20.6642 20.6642 21 20.25 21H6.75C4.67893 21 3 19.3211 3 17.25Z" fill="currentColor"/><path d="M19.25 15.5C19.6642 15.5 20 15.8358 20 16.25C20 16.6642 19.6642 17 19.25 17H14.75C14.3358 17 14 16.6642 14 16.25C14 15.8358 14.3358 15.5 14.75 15.5H19.25Z" fill="currentColor"/><path d="M19.25 10.75C19.6642 10.75 20 11.0858 20 11.5C20 11.9142 19.6642 12.25 19.25 12.25H13.75C13.3358 12.25 13 11.9142 13 11.5C13 11.0858 13.3358 10.75 13.75 10.75H19.25Z" fill="currentColor"/><path d="M19.25 6C19.6642 6 20 6.33579 20 6.75C20 7.16421 19.6642 7.5 19.25 7.5H16.75C16.3358 7.5 16 7.16421 16 6.75C16 6.33579 16.3358 6 16.75 6H19.25Z" fill="currentColor"/><path d="M13.25 6C13.6642 6 14 6.33579 14 6.75C14 7.16421 13.6642 7.5 13.25 7.5H6.75C6.33579 7.5 6 7.16421 6 6.75C6 6.33579 6.33579 6 6.75 6H13.25Z" fill="currentColor"/><path d="M10.25 10.75C10.6642 10.75 11 11.0858 11 11.5C11 11.9142 10.6642 12.25 10.25 12.25H6.75C6.33579 12.25 6 11.9142 6 11.5C6 11.0858 6.33579 10.75 6.75 10.75H10.25Z" fill="currentColor"/><path d="M11.25 15.5C11.6642 15.5 12 15.8358 12 16.25C12 16.6642 11.6642 17 11.25 17H6.75C6.33579 17 6 16.6642 6 16.25C6 15.8358 6.33579 15.5 6.75 15.5H11.25Z" fill="currentColor"/></g></svg>