<svg width="24px" height="24px" viewBox="0 0 24 24" fill="currentColor" xmlns="http://www.w3.org/2000/svg"><g><path fill-rule="evenodd" clip-rule="evenodd" d="M5.93761 3C4.31521 3 3 4.31521 3 5.93761V5.98944C3 6.73536 3.29632 7.45073 3.82376 7.97817C4.33633 8.49074 4.33633 9.32176 3.82376 9.83433C3.29632 10.3618 3 11.0771 3 11.8231V12.1769C3 12.9229 3.29632 13.6382 3.82376 14.1657C4.08648 14.4284 4.21449 14.7733 4.20795 15.1188C4.20172 15.4474 4.0739 15.7717 3.82376 16.0218C3.29632 16.5493 3 17.2646 3 18.0106V18.0624C3 19.6848 4.31521 21 5.93761 21H5.98944C6.73536 21 7.45073 20.7037 7.97817 20.1762C8.49074 19.6637 9.32176 19.6637 9.83433 20.1762C10.3618 20.7037 11.0771 21 11.8231 21H12.1769C12.9229 21 13.6382 20.7037 14.1657 20.1762C14.6782 19.6637 15.5093 19.6637 16.0218 20.1762C16.5493 20.7037 17.2646 21 18.0106 21H18.0624C19.6848 21 21 19.6848 21 18.0624V18.0106C21 17.2646 20.7037 16.5493 20.1762 16.0218C19.9549 15.8005 19.8297 15.5216 19.7992 15.2333C19.7587 14.8507 19.8848 14.4571 20.1762 14.1657C20.7037 13.6382 21 12.9229 21 12.1769V11.8231C21 11.0771 20.7037 10.3618 20.1762 9.83433C19.6637 9.32176 19.6637 8.49074 20.1762 7.97817C20.7037 7.45073 21 6.73536 21 5.98943V5.93761C21 4.31521 19.6848 3 18.0624 3H18.0106C17.2646 3 16.5493 3.29632 16.0218 3.82376C15.5093 4.33633 14.6782 4.33633 14.1657 3.82376C13.6382 3.29632 12.9229 3 12.1769 3H11.8231C11.0771 3 10.3618 3.29632 9.83433 3.82376C9.32176 4.33633 8.49074 4.33633 7.97817 3.82376C7.45073 3.29632 6.73536 3 5.98943 3H5.93761ZM14.7391 16.0456C15.8539 16.3501 17.088 16.4862 18.5217 16.2088C18.6587 16.5262 18.8567 16.8236 19.1156 17.0825C19.3617 17.3286 19.5 17.6625 19.5 18.0106V18.0624C19.5 18.8564 18.8564 19.5 18.0624 19.5H18.0106C17.6625 19.5 17.3286 19.3617 17.0825 19.1156C15.9841 18.0172 14.2034 18.0172 13.105 19.1156C12.8589 19.3617 12.525 19.5 12.1769 19.5H11.8231C11.475 19.5 11.1411 19.3617 10.895 19.1156C9.79664 18.0172 8.01586 18.0172 6.91751 19.1156C6.67137 19.3617 6.33753 19.5 5.98944 19.5H5.93761C5.14364 19.5 4.5 18.8564 4.5 18.0624V18.0106C4.5 17.6625 4.63828 17.3286 4.88442 17.0825C5.31778 16.6491 5.5803 16.1085 5.67164 15.5465C6.62164 14.8939 7.43344 14.5519 8.1481 14.3993C9.26096 14.1618 10.2343 14.3629 11.2754 14.7403C11.6655 14.8817 12.0467 15.0406 12.4511 15.2091C12.5994 15.2709 12.751 15.3341 12.9071 15.3981C13.4759 15.6313 14.085 15.8669 14.7391 16.0456ZM12 8C9.65279 8 7.75 9.90279 7.75 12.25C7.75 12.4845 7.76899 12.7146 7.80552 12.9388L7.83497 12.9324C9.33607 12.612 10.6175 12.9063 11.7866 13.3302C12.2127 13.4846 12.6417 13.6634 13.0562 13.8362L13.0573 13.8366C13.1989 13.8956 13.3387 13.9539 13.4762 14.0102C14.0296 14.2372 14.5707 14.4447 15.1344 14.5986C15.2495 14.6301 15.3656 14.6593 15.483 14.686C15.9664 13.9962 16.25 13.1562 16.25 12.25C16.25 9.90279 14.3472 8 12 8Z" fill="currentColor"/></g></svg>