<svg width="24px" height="24px" viewBox="0 0 24 24" fill="currentColor" xmlns="http://www.w3.org/2000/svg"><g><path d="M13.5894 1.99755C12.9495 0.667485 11.0494 0.667485 10.4095 1.99755L8.23644 6.51389C8.19896 6.59179 8.12314 6.64774 8.03302 6.65952L3.03465 7.31296C1.56799 7.5047 0.968302 9.31183 2.05312 10.3331L5.70632 13.7724C5.77055 13.8329 5.79841 13.9201 5.78273 14.0041L4.86513 18.9186C4.59205 20.3812 6.14171 21.4835 7.43667 20.7865L11.8725 18.3989C11.9515 18.3563 12.0474 18.3563 12.1264 18.3989L16.5622 20.7865C17.8572 21.4835 19.4069 20.3812 19.1338 18.9186L18.2162 14.0041C18.2005 13.9201 18.2284 13.8329 18.2926 13.7724L21.9458 10.3331C23.0306 9.31183 22.4309 7.5047 20.9643 7.31296L15.9659 6.65952C15.8758 6.64774 15.8 6.59179 15.7625 6.51389L13.5894 1.99755Z" fill="currentColor"/></g></svg>