<svg width="24px" height="24px" viewBox="0 0 24 24" fill="currentColor" xmlns="http://www.w3.org/2000/svg"><g><path d="M11.9968 2C6.74365 2 2.44019 6.0505 2.03125 11.1981L7.39108 13.4141C7.84523 13.1035 8.39387 12.9215 8.98411 12.9215C9.037 12.9215 9.08967 12.9238 9.14189 12.9263L11.5254 9.47143V9.4226C11.5254 7.3431 13.217 5.65128 15.2968 5.65128C17.3763 5.65128 19.0679 7.3431 19.0679 9.4226C19.0679 11.5021 17.3763 13.1941 15.2968 13.1941C15.2681 13.1941 15.2396 13.1941 15.2111 13.1919L11.8116 15.6175C11.8139 15.6616 11.815 15.7066 11.815 15.7513C11.815 17.3125 10.5453 18.582 8.98433 18.582C7.6142 18.582 6.46854 17.6041 6.20902 16.309L2.37576 14.7252C3.56256 18.9227 7.41888 22 11.9968 22C17.5198 22 21.9969 17.5227 21.9969 12.0003C21.9969 6.47707 17.5196 2 11.9968 2Z" fill="currentColor"/><path d="M8.29826 17.1734L7.06986 16.6659C7.28756 17.1192 7.66417 17.4987 8.16421 17.7072C9.24522 18.1575 10.4915 17.6446 10.942 16.5626C11.1602 16.0395 11.1615 15.462 10.9452 14.9375C10.7293 14.4128 10.3219 14.0037 9.79815 13.7853C9.27845 13.569 8.72167 13.5769 8.23248 13.7616L9.50134 14.2862C10.2986 14.6185 10.6757 15.5341 10.3434 16.3314C10.0118 17.1289 9.09557 17.506 8.29826 17.1734Z" fill="currentColor"/><path fill-rule="evenodd" clip-rule="evenodd" d="M15.296 6.90975C16.6817 6.90975 17.8088 8.03709 17.8088 9.4226C17.8088 10.8081 16.6817 11.9352 15.296 11.9352C13.9105 11.9352 12.7831 10.8083 12.7831 9.4226C12.7831 8.03709 13.9105 6.90975 15.296 6.90975ZM15.3003 7.53073C14.2577 7.53073 13.4125 8.37573 13.4125 9.41831C13.4125 10.4607 14.2577 11.3059 15.3003 11.3059C16.3428 11.3059 17.1881 10.4609 17.1881 9.41831C17.1881 8.37573 16.3428 7.53073 15.3003 7.53073Z" fill="currentColor"/></g></svg>