<svg width="24px" height="24px" viewBox="0 0 24 24" fill="currentColor" xmlns="http://www.w3.org/2000/svg"><g><path fill-rule="evenodd" clip-rule="evenodd" d="M12 2C17.5228 2 22 6.47715 22 12C22 17.5228 17.5228 22 12 22C6.47715 22 2 17.5228 2 12C2 6.47715 6.47715 2 12 2ZM10 17.3682C10 15.2628 7.88786 13.8126 5.92285 14.5684L4.6123 15.0723C5.56701 17.3654 7.55738 19.1183 10 19.7471V17.3682ZM18.0771 14.5684C16.1121 13.8126 14 15.2628 14 17.3682V19.7471C16.4425 19.1183 18.432 17.3652 19.3867 15.0723L18.0771 14.5684ZM12 4C7.81005 4 4.37438 7.22126 4.03027 11.3223C10.0718 8.89338 13.9274 8.89357 19.9688 11.3223C19.6246 7.2213 16.1899 4 12 4Z" fill="currentColor"/></g></svg>