<svg width="24px" height="24px" viewBox="0 0 24 24" fill="currentColor" xmlns="http://www.w3.org/2000/svg"><g><path d="M15.5115 10C15.6742 10 15.8269 10.074 15.9382 10.1926C16.6956 10.9996 17.7713 11.5 18.9571 11.5C19.7043 11.5 20.4001 11.3037 21 10.9624V17.2501C21 19.3211 19.3211 21 17.25 21H6.75002C4.67896 21 3.00002 19.3211 3.00002 17.25V10.9626C3.59982 11.3037 4.29554 11.5 5.04263 11.5C6.22839 11.5 7.30406 10.9996 8.06149 10.1926C8.17283 10.074 8.32553 10 8.48821 10C8.64769 10 8.7978 10.0711 8.90846 10.186C9.68696 10.9939 10.7808 11.5 11.9998 11.5C13.2189 11.5 14.3127 10.994 15.0912 10.186C15.2019 10.0711 15.352 10 15.5115 10Z" fill="currentColor"/><path d="M2.54007 6.21967C2.80399 4.37224 4.38619 3 6.25238 3H8.00002L7.67509 7.54903C7.57645 8.93003 6.42733 10 5.04281 10C3.43685 10 2.20322 8.57761 2.43034 6.9878L2.54007 6.21967Z" fill="currentColor"/><path d="M16 3H17.7477C19.6139 3 21.1961 4.37224 21.46 6.21967L21.5697 6.9878C21.7968 8.57762 20.5632 10 18.9572 10C17.5727 10 16.4236 8.93003 16.325 7.54903L16 3Z" fill="currentColor"/><path d="M9.50002 3H14.5L14.7863 7.00763C14.9018 8.62461 13.6211 10 12 10C10.3789 10 9.09827 8.62461 9.21377 7.00762L9.50002 3Z" fill="currentColor"/></g></svg>