<svg width="24px" height="24px" viewBox="0 0 24 24" fill="currentColor" xmlns="http://www.w3.org/2000/svg"><g><path d="M6.1889 3C4.52887 3 3.06639 4.09141 2.59396 5.6828L2.11805 7.28593L2.11767 7.2872C1.56802 9.11497 3.00779 11 5.10694 11C6.05069 11 6.90635 10.6345 7.47952 10.0293C8.02347 10.6207 8.82777 11 9.74075 11C10.6526 11 11.4561 10.6216 12 10.0314C12.5439 10.6216 13.3474 11 14.2592 11C15.1722 11 15.9765 10.6207 16.5205 10.0293C17.0937 10.6346 17.9493 11 18.8931 11C20.9922 11 22.432 9.11496 21.8823 7.2872L21.8819 7.28592L21.406 5.68279C20.9336 4.09141 19.4711 3 17.8111 3H6.1889Z" fill="currentColor"/><path d="M3 12.0107C3.62998 12.3226 4.34562 12.5 5.10704 12.5C5.80163 12.5 6.47829 12.3589 7.09127 12.0913C7.32883 11.9876 7.60081 11.9896 7.83728 12.0958C8.41616 12.3558 9.06149 12.5 9.74086 12.5C10.4127 12.5 11.0512 12.359 11.6251 12.1045C11.8633 11.9988 12.1369 11.9988 12.3751 12.1045C12.949 12.359 13.5876 12.5 14.2594 12.5C14.9387 12.5 15.5841 12.3558 16.1629 12.0958C16.3994 11.9896 16.6714 11.9876 16.9089 12.0913C17.5219 12.3589 18.1986 12.5 18.8932 12.5C19.6545 12.5 20.3701 12.3226 21 12.0108V17.25C21 19.3211 19.3211 21 17.25 21H6.75C4.67893 21 3 19.3211 3 17.25V12.0107Z" fill="currentColor"/></g></svg>