<svg width="24px" height="24px" viewBox="0 0 24 24" fill="currentColor" xmlns="http://www.w3.org/2000/svg"><g><path d="M16 17C15.4477 17 15 17.4477 15 18C15 18.5523 15.4477 19 16 19C16.5523 19 17 18.5523 17 18C17 17.4477 16.5523 17 16 17Z" fill="currentColor"/><path d="M12 18C12 17.4477 12.4477 17 13 17C13.5523 17 14 17.4477 14 18C14 18.5523 13.5523 19 13 19C12.4477 19 12 18.5523 12 18Z" fill="currentColor"/><path fill-rule="evenodd" clip-rule="evenodd" d="M5 3.20047C4.37941 3.86954 4 4.76546 4 5.75V18.25C4 20.3211 5.67893 22 7.75 22H16.25C18.3211 22 20 20.3211 20 18.25V5.75C20 4.76546 19.6206 3.86954 19 3.20047V3H18.7995C18.1305 2.37941 17.2345 2 16.25 2H7.75C6.76546 2 5.86954 2.37941 5.20047 3H5V3.20047ZM5.5 18.25V17.75C5.5 16.5074 6.50736 15.5 7.75 15.5H16.25C17.4926 15.5 18.5 16.5074 18.5 17.75V18.25C18.5 19.4926 17.4926 20.5 16.25 20.5H7.75C6.50736 20.5 5.5 19.4926 5.5 18.25Z" fill="currentColor"/></g></svg>