<svg width="24px" height="24px" viewBox="0 0 24 24" fill="currentColor" xmlns="http://www.w3.org/2000/svg"><g><path fill-rule="evenodd" clip-rule="evenodd" d="M2 7.75C2 5.67893 3.67893 4 5.75 4H18.25C20.3211 4 22 5.67893 22 7.75V16.25C22 18.3211 20.3211 20 18.25 20H5.75C3.67893 20 2 18.3211 2 16.25V7.75ZM17.75 9.5C18.4404 9.5 19 8.94036 19 8.25C19 7.55964 18.4404 7 17.75 7C17.0596 7 16.5 7.55964 16.5 8.25C16.5 8.94036 17.0596 9.5 17.75 9.5ZM14.5 11C14.5 12.3807 13.3807 13.5 12 13.5C10.6193 13.5 9.5 12.3807 9.5 11C9.5 9.61929 10.6193 8.5 12 8.5C13.3807 8.5 14.5 9.61929 14.5 11ZM7.64872 17.7691C8.09496 16.5621 9.54538 15 12 15C14.4546 15 15.905 16.5621 16.3513 17.7691C16.4949 18.1576 16.1642 18.5 15.75 18.5H8.25C7.83579 18.5 7.50509 18.1576 7.64872 17.7691Z" fill="currentColor"/></g></svg>