<svg width="24px" height="24px" viewBox="0 0 24 24" fill="currentColor" xmlns="http://www.w3.org/2000/svg"><g><path fill-rule="evenodd" clip-rule="evenodd" d="M9.3479 2.84103C10.8124 1.37656 13.1867 1.37656 14.6512 2.84103L14.8762 3.06602C15.2982 3.48798 15.8704 3.72503 16.4672 3.72503H16.5245C18.5956 3.72503 20.2745 5.40397 20.2745 7.47503V7.53239C20.2745 8.12913 20.5116 8.70143 20.9336 9.12338L21.1586 9.34838C22.623 10.8128 22.623 13.1872 21.1586 14.6517L20.9336 14.8767C20.5116 15.2986 20.2745 15.8709 20.2745 16.4677V16.525C20.2745 18.5961 18.5956 20.275 16.5245 20.275H16.4672C15.8704 20.275 15.2982 20.5121 14.8762 20.934L14.6512 21.159C13.1867 22.6235 10.8124 22.6235 9.3479 21.159L9.1229 20.934C8.70094 20.5121 8.12864 20.275 7.53191 20.275H7.47454C5.40348 20.275 3.72455 18.5961 3.72455 16.525V16.4677C3.72455 15.8709 3.48749 15.2986 3.06554 14.8767L2.84054 14.6517C1.37607 13.1872 1.37607 10.8128 2.84054 9.34838L3.06554 9.12338C3.48749 8.70143 3.72455 8.12913 3.72455 7.53239V7.47503C3.72455 5.40396 5.40348 3.72503 7.47455 3.72503H7.53191C8.12864 3.72503 8.70094 3.48798 9.1229 3.06602L9.3479 2.84103ZM15.4354 9.86817C15.6718 9.52807 15.5878 9.06069 15.2477 8.82424C14.9076 8.58779 14.4402 8.67181 14.2038 9.01191L10.7768 13.9411L9.17535 12.5303C8.86454 12.2565 8.39062 12.2864 8.11681 12.5973C7.84299 12.9081 7.87298 13.382 8.18378 13.6558L10.4165 15.6228C10.577 15.7642 10.7902 15.8303 11.0025 15.8046C11.2148 15.7789 11.406 15.6638 11.5281 15.4882L15.4354 9.86817Z" fill="currentColor"/></g></svg>