<svg width="24px" height="24px" viewBox="0 0 24 24" fill="currentColor" xmlns="http://www.w3.org/2000/svg"><g><path fill-rule="evenodd" clip-rule="evenodd" d="M8.07501 5H6.75C4.67893 5 3 6.67893 3 8.75V17.25C3 19.0642 4.28832 20.5775 6 20.925V21.25C6 21.6642 6.33579 22 6.75 22C7.16421 22 7.5 21.6642 7.5 21.25V21H16.5V21.25C16.5 21.6642 16.8358 22 17.25 22C17.6642 22 18 21.6642 18 21.25V20.925C19.7117 20.5775 21 19.0642 21 17.25V8.75C21 6.67893 19.3211 5 17.25 5H15.925C15.5775 3.28832 14.0642 2 12.25 2H11.75C9.93578 2 8.42247 3.28832 8.07501 5ZM9.62803 5H14.372C14.0631 4.12611 13.2297 3.5 12.25 3.5H11.75C10.7703 3.5 9.93691 4.12611 9.62803 5ZM8.75 9C9.16421 9 9.5 9.33579 9.5 9.75V16.25C9.5 16.6642 9.16421 17 8.75 17C8.33579 17 8 16.6642 8 16.25V9.75C8 9.33579 8.33579 9 8.75 9ZM15.25 9C15.6642 9 16 9.33579 16 9.75V16.25C16 16.6642 15.6642 17 15.25 17C14.8358 17 14.5 16.6642 14.5 16.25V9.75C14.5 9.33579 14.8358 9 15.25 9Z" fill="currentColor"/></g></svg>