<svg width="24px" height="24px" viewBox="0 0 24 24" fill="currentColor" xmlns="http://www.w3.org/2000/svg"><g><path fill-rule="evenodd" clip-rule="evenodd" d="M17 5.75V6H18.25C20.3211 6 22 7.67893 22 9.75V17.25C22 19.3211 20.3211 21 18.25 21H5.75C3.67893 21 2 19.3211 2 17.25V9.75C2 7.67893 3.67893 6 5.75 6H7V5.75C7 3.67893 8.67893 2 10.75 2H13.25C15.3211 2 17 3.67893 17 5.75ZM8.5 5.75C8.5 4.50736 9.50736 3.5 10.75 3.5H13.25C14.4926 3.5 15.5 4.50736 15.5 5.75V6H8.5V5.75ZM6.80315 11.5214C6.28417 11.7102 6.01658 12.2841 6.20548 12.8031L6.58826 13.8548C6.77715 14.3737 7.351 14.6413 7.86998 14.4524L10.8555 13.3658C11.3744 13.1769 11.642 12.6031 11.4531 12.0841L11.0703 11.0324C10.8815 10.5134 10.3076 10.2458 9.78863 10.4347L6.80315 11.5214ZM17.9661 14.9125C17.7695 16.0969 16.7402 17 15.5 17C14.1193 17 13 15.8807 13 14.5C13 13.2598 13.9031 12.2305 15.0875 12.0339C15.3491 11.9904 15.6054 12.1054 15.7929 12.2929L17.7071 14.2071C17.8946 14.3947 18.0096 14.6509 17.9661 14.9125Z" fill="currentColor"/></g></svg>