<svg width="24px" height="24px" viewBox="0 0 24 24" fill="currentColor" xmlns="http://www.w3.org/2000/svg"><g><path fill-rule="evenodd" clip-rule="evenodd" d="M3.75 5C4.16421 5 4.5 5.33579 4.5 5.75V14.25C4.5 15.4926 5.50736 16.5 6.75 16.5H17.25V15.5C17.25 15.2135 17.4132 14.9521 17.6705 14.8263C17.9278 14.7004 18.2343 14.7321 18.4605 14.908L20.7105 16.658C20.8931 16.8001 21 17.0186 21 17.25C21 17.4814 20.8931 17.6999 20.7105 17.842L18.4605 19.592C18.2343 19.7679 17.9278 19.7996 17.6705 19.6737C17.4132 19.5479 17.25 19.2865 17.25 19V18H6.75C4.67893 18 3 16.3211 3 14.25V5.75C3 5.33579 3.33579 5 3.75 5ZM7.5 7.25C7.5 6.83579 7.83579 6.5 8.25 6.5H16.75C17.1642 6.5 17.5 6.83579 17.5 7.25C17.5 7.66421 17.1642 8 16.75 8H8.25C7.83579 8 7.5 7.66421 7.5 7.25ZM7.5 12.25C7.5 11.8358 7.83579 11.5 8.25 11.5H13.25C13.6642 11.5 14 11.8358 14 12.25C14 12.6642 13.6642 13 13.25 13H8.25C7.83579 13 7.5 12.6642 7.5 12.25Z" fill="currentColor"/></g></svg>