<svg width="24px" height="24px" viewBox="0 0 24 24" fill="currentColor" xmlns="http://www.w3.org/2000/svg"><g><path d="M12 20C12.4142 20 12.75 20.3358 12.75 20.75V21C12.75 21.4142 12.4142 21.75 12 21.75C11.5858 21.75 11.25 21.4142 11.25 21V20.75C11.25 20.3358 11.5858 20 12 20Z" fill="currentColor"/><path d="M5.28223 17.6572C5.57512 17.3643 6.04988 17.3643 6.34277 17.6572C6.63567 17.9501 6.63567 18.4249 6.34277 18.7178L6.16602 18.8945C5.8731 19.1871 5.39826 19.1873 5.10547 18.8945C4.81268 18.6017 4.81288 18.1269 5.10547 17.834L5.28223 17.6572Z" fill="currentColor"/><path d="M17.6572 17.6572C17.9501 17.3643 18.4249 17.3643 18.7178 17.6572L18.8945 17.834C19.1871 18.1269 19.1873 18.6017 18.8945 18.8945C18.6017 19.1873 18.1269 19.1871 17.834 18.8945L17.6572 18.7178C17.3643 18.4249 17.3643 17.9501 17.6572 17.6572Z" fill="currentColor"/><path d="M7.75781 7.75781C10.101 5.41467 13.899 5.41467 16.2422 7.75781C18.5853 10.101 18.5853 13.899 16.2422 16.2422C13.899 18.5853 10.101 18.5853 7.75781 16.2422C5.41467 13.899 5.41467 10.101 7.75781 7.75781Z" fill="currentColor"/><path d="M3.25 11.25C3.66421 11.25 3.99999 11.5858 4 12C4 12.4142 3.66421 12.75 3.25 12.75H3C2.58579 12.75 2.25 12.4142 2.25 12C2.25001 11.5858 2.58579 11.25 3 11.25H3.25Z" fill="currentColor"/><path d="M21 11.25C21.4142 11.25 21.75 11.5858 21.75 12C21.75 12.4142 21.4142 12.75 21 12.75H20.75C20.3358 12.75 20 12.4142 20 12C20 11.5858 20.3358 11.25 20.75 11.25H21Z" fill="currentColor"/><path d="M5.10547 5.10547C5.39826 4.81267 5.8731 4.81287 6.16602 5.10547L6.34277 5.28223C6.63567 5.57512 6.63567 6.04988 6.34277 6.34277C6.04988 6.63567 5.57512 6.63567 5.28223 6.34277L5.10547 6.16602C4.81287 5.8731 4.81267 5.39826 5.10547 5.10547Z" fill="currentColor"/><path d="M17.834 5.10547C18.1269 4.81288 18.6017 4.81269 18.8945 5.10547C19.1873 5.39826 19.1871 5.8731 18.8945 6.16602L18.7178 6.34277C18.4249 6.63568 17.9501 6.63565 17.6572 6.34277C17.3644 6.04989 17.3644 5.57512 17.6572 5.28223L17.834 5.10547Z" fill="currentColor"/><path d="M12 2.25C12.4142 2.25 12.75 2.58579 12.75 3V3.25C12.75 3.66421 12.4142 4 12 4C11.5858 4 11.25 3.66421 11.25 3.25V3C11.25 2.58579 11.5858 2.25 12 2.25Z" fill="currentColor"/></g></svg>