<svg width="24px" height="24px" viewBox="0 0 24 24" fill="currentColor" xmlns="http://www.w3.org/2000/svg"><g><path d="M8.66992 15.5391C9.36724 16.1954 10.2588 16.6499 11.25 16.8037V21.4303C11.25 21.721 11.0026 21.9515 10.7142 21.9146C8.46685 21.6264 6.4521 20.5947 4.92871 19.0713C4.74022 18.8828 4.76736 18.5743 4.97777 18.4106L8.66992 15.5391Z" fill="currentColor"/><path d="M19.0302 18.4185C19.2373 18.5796 19.2565 18.8856 19.0713 19.0713C17.5479 20.5947 15.5332 21.6264 13.2858 21.9146C12.9974 21.9515 12.75 21.721 12.75 21.4303V16.8037C13.7411 16.6501 14.6327 16.1961 15.3301 15.54L19.0302 18.4185Z" fill="currentColor"/><path d="M9.13379 8.07324C9.1585 8.05518 9.18392 8.03811 9.20898 8.02051C8.9781 8.18269 8.76129 8.36371 8.5625 8.5625C7.68374 9.44131 7.13873 10.658 7.13867 12C7.13871 12.8543 7.36083 13.6576 7.74805 14.3555L4.09315 17.1986C3.86362 17.3771 3.52969 17.3234 3.38194 17.0729C2.50455 15.5856 2 13.8516 2 12C2 9.23878 3.11989 6.73753 4.92871 4.92871L5.10543 4.75199C5.30069 4.55673 5.61728 4.55673 5.81254 4.75199L9.13379 8.07324Z" fill="currentColor"/><path d="M12 8.5C13.933 8.5 15.5 10.067 15.5 12C15.5 13.933 13.933 15.5 12 15.5C10.067 15.5 8.5 13.933 8.5 12C8.5 10.067 10.067 8.5 12 8.5Z" fill="currentColor"/><path d="M12 2C17.5228 2 22 6.47715 22 12V12.25C22 12.5261 21.7761 12.75 21.5 12.75H16.8037C16.8416 12.5055 16.8613 12.255 16.8613 12C16.8612 9.31545 14.6845 7.13879 12 7.13867C11.7163 7.1387 11.4384 7.16422 11.168 7.21094C11.1953 7.20622 11.2225 7.20055 11.25 7.19629V2.5C11.25 2.22386 11.4739 2 11.75 2H12Z" fill="currentColor"/></g></svg>