<svg width="24px" height="24px" viewBox="0 0 24 24" fill="currentColor" xmlns="http://www.w3.org/2000/svg"><g><path d="M12.75 2.75C12.75 2.33579 12.4142 2 12 2C11.5858 2 11.25 2.33579 11.25 2.75V3.77941C11.25 4.19363 11.5858 4.52941 12 4.52941C12.4142 4.52941 12.75 4.19363 12.75 3.77941V2.75Z" fill="currentColor"/><path d="M5.99071 4.93366C5.69805 4.64054 5.22318 4.64016 4.93005 4.93282C4.63693 5.22548 4.63655 5.70035 4.92921 5.99348L5.65596 6.72138C5.94862 7.01451 6.42349 7.01489 6.71662 6.72223C7.00974 6.42957 7.01012 5.95469 6.71746 5.66157L5.99071 4.93366Z" fill="currentColor"/><path d="M19.0709 5.99348C19.3635 5.70035 19.3632 5.22548 19.07 4.93282C18.7769 4.64016 18.302 4.64054 18.0094 4.93366L17.2826 5.66157C16.99 5.95469 16.9903 6.42957 17.2835 6.72223C17.5766 7.01489 18.0515 7.01451 18.3441 6.72138L19.0709 5.99348Z" fill="currentColor"/><path d="M2.75 11.5C2.33579 11.5 2 11.8358 2 12.25C2 12.6642 2.33579 13 2.75 13H3.77778C4.19199 13 4.52778 12.6642 4.52778 12.25C4.52778 11.8358 4.19199 11.5 3.77778 11.5H2.75Z" fill="currentColor"/><path d="M20.2222 11.5C19.808 11.5 19.4722 11.8358 19.4722 12.25C19.4722 12.6642 19.808 13 20.2222 13H21.25C21.6642 13 22 12.6642 22 12.25C22 11.8358 21.6642 11.5 21.25 11.5H20.2222Z" fill="currentColor"/><path d="M2.75 15.5C2.33579 15.5 2 15.8358 2 16.25C2 16.6642 2.33579 17 2.75 17H21.25C21.6642 17 22 16.6642 22 16.25C22 15.8358 21.6642 15.5 21.25 15.5H2.75Z" fill="currentColor"/><path d="M6.75 19.5C6.33579 19.5 6 19.8358 6 20.25C6 20.6642 6.33579 21 6.75 21H17.25C17.6642 21 18 20.6642 18 20.25C18 19.8358 17.6642 19.5 17.25 19.5H6.75Z" fill="currentColor"/><path d="M16.25 13C16.6642 13 17 12.6642 17 12.25V12.0068C17 9.24272 14.7625 7 12 7C9.23745 7 7 9.24272 7 12.0068V12.25C7 12.6642 7.33579 13 7.75 13C9.43062 13 14.5694 13 16.25 13Z" fill="currentColor"/></g></svg>