<svg width="24px" height="24px" viewBox="0 0 24 24" fill="currentColor" xmlns="http://www.w3.org/2000/svg"><g><path fill-rule="evenodd" clip-rule="evenodd" d="M3.75 13C3.33579 13 3 12.6642 3 12.25V12C3 7.02944 7.02944 3 12 3C16.9706 3 21 7.02944 21 12V12.25C21 12.6642 20.6642 13 20.25 13C18.5495 13 5.45046 13 3.75 13ZM1 16.25C1 15.8358 1.33579 15.5 1.75 15.5H22.25C22.6642 15.5 23 15.8358 23 16.25C23 16.6642 22.6642 17 22.25 17H1.75C1.33579 17 1 16.6642 1 16.25ZM6 20.25C6 19.8358 6.33579 19.5 6.75 19.5H17.25C17.6642 19.5 18 19.8358 18 20.25C18 20.6642 17.6642 21 17.25 21H6.75C6.33579 21 6 20.6642 6 20.25Z" fill="currentColor"/></g></svg>