<svg width="24px" height="24px" viewBox="0 0 24 24" fill="currentColor" xmlns="http://www.w3.org/2000/svg"><g><path d="M2 11.25C2 10.0862 2.88359 9.12877 4.01653 9.01197C4.28555 5.05436 7.80404 2 12 2C16.196 2 19.7144 5.05436 19.9835 9.01197C21.1164 9.12877 22 10.0862 22 11.25V14.75C22 15.8221 21.2502 16.719 20.2464 16.9451C20.1438 19.7542 17.8342 22 15 22H13C12.0335 22 11.25 21.2165 11.25 20.25V19.6429C11.25 19.2286 11.5858 18.8929 12 18.8929C12.4142 18.8929 12.75 19.2286 12.75 19.6429V20.25C12.75 20.3881 12.8619 20.5 13 20.5H15C16.9871 20.5 18.6132 18.9545 18.7418 17H18.25C17.8358 17 17.5 16.6642 17.5 16.25V9.75C17.5 9.33579 17.8358 9 18.25 9H18.4775C18.2034 5.96122 15.4536 3.5 12 3.5C8.54637 3.5 5.79665 5.96122 5.52248 9H5.75C6.16421 9 6.5 9.33579 6.5 9.75V16.25C6.5 16.6642 6.16421 17 5.75 17H4.25C3.00736 17 2 15.9926 2 14.75V11.25Z" fill="currentColor"/></g></svg>