<svg width="24px" height="24px" viewBox="0 0 24 24" fill="currentColor" xmlns="http://www.w3.org/2000/svg"><g><path fill-rule="evenodd" clip-rule="evenodd" d="M12 4.5C11.8635 4.5 11.7278 4.50244 11.5931 4.50729C10.717 4.53879 10 5.34553 10 6.42241V18.5H14V6.42241C14 5.34553 13.283 4.53879 12.4069 4.50729C12.2722 4.50244 12.1365 4.5 12 4.5ZM14.7449 20L14.75 20L14.7551 20H18.25C19.7688 20 21 18.7688 21 17.25V14.7042C21.3048 14.768 21.6654 14.7832 22.0153 14.6296C22.4333 14.4461 22.6825 14.0913 22.8195 13.7034C22.951 13.3309 23 12.8767 23 12.3631C23 8.02602 18.9682 4.92302 14.6543 4.01605C14.6335 4.01168 14.6128 4.00821 14.592 4.00563C14.0716 3.42833 13.3454 3.04006 12.4608 3.00826C12.308 3.00276 12.1544 3 12 3C11.8456 3 11.692 3.00276 11.5392 3.00826C10.6546 3.04006 9.92841 3.42833 9.40796 4.00563C9.38725 4.00821 9.36648 4.01168 9.34569 4.01605C5.0318 4.92302 1 8.02602 1 12.3631C1 12.8767 1.04898 13.3309 1.18054 13.7034C1.31753 14.0913 1.56672 14.4461 1.98475 14.6296C2.33459 14.7832 2.6952 14.768 3 14.7042V17.25C3 18.7688 4.23122 20 5.75 20H9.24487L9.25 20L9.25513 20H14.7449ZM8.5 18.5V11.9792C7.76934 12.2535 7.0712 12.6047 6.41281 12.9693C6.07834 13.1545 5.73409 13.3553 5.40008 13.5502C5.08539 13.7339 4.77978 13.9122 4.5 14.0671V17.25C4.5 17.9403 5.05964 18.5 5.75 18.5H8.5ZM15.5 11.9792V18.5H18.25C18.9404 18.5 19.5 17.9403 19.5 17.25V14.0671C19.2202 13.9122 18.9146 13.7339 18.5999 13.5502C18.2659 13.3553 17.9217 13.1545 17.5872 12.9693C16.9288 12.6047 16.2307 12.2535 15.5 11.9792Z" fill="currentColor"/></g></svg>