<svg width="24px" height="24px" viewBox="0 0 24 24" fill="currentColor" xmlns="http://www.w3.org/2000/svg"><g><path d="M13.9036 2.00117C18.2559 4.62913 21.7332 10.0645 20.2475 15.2941L20.2499 15.2953C22.64 18.2539 21.9886 21.4247 21.6826 20.8267C20.5978 18.7038 18.4417 18.8204 16.6183 19.795L16.5951 19.809L16.5928 19.8113C14.1412 21.1205 10.8469 21.2161 7.53756 19.7857C4.84294 18.6114 2.56413 16.6455 1 14.1458C4.33337 16.6252 9.18493 17.9088 12.9322 15.603C9.20159 12.7185 5.47866 8.87529 3.00531 4.79545C5.71771 7.29246 10.0042 10.426 11.5424 11.2956C8.27825 7.82754 5.40126 3.5551 5.53572 3.69149C10.6777 8.90235 15.4209 11.847 15.4209 11.847C15.5994 11.9461 15.7338 12.0265 15.8382 12.0953C17.1706 8.70574 15.9707 4.81803 13.9036 2V2.00117Z" fill="currentColor"/></g></svg>