<svg width="24px" height="24px" viewBox="0 0 24 24" fill="currentColor" xmlns="http://www.w3.org/2000/svg"><g><path d="M16.5411 3.12597C16.3756 3.01563 16.173 2.97556 15.978 3.01457C15.7829 3.05358 15.6114 3.16847 15.501 3.33398L13.4385 6.42773C13.2088 6.77237 13.3019 7.23802 13.6466 7.46779C13.9912 7.69755 14.4569 7.60442 14.6866 7.25978L15.7309 5.69343C16.4385 7.6364 15.8514 9.12018 14.8722 10.2953C13.9773 11.369 12.7974 12.134 11.9611 12.6763C11.8255 12.7642 11.6989 12.8463 11.5841 12.9228C11.2394 13.1526 11.1463 13.6183 11.376 13.9629C11.6058 14.3076 12.0715 14.4007 12.4161 14.1709C12.5117 14.1072 12.6237 14.0349 12.749 13.9541C13.5726 13.4228 14.9691 12.522 16.0245 11.2555C17.2245 9.81555 18.0328 7.84561 17.2077 5.37313L18.8028 6.43655C19.1474 6.66631 19.6131 6.57318 19.8429 6.22854C20.0726 5.88389 19.9795 5.41824 19.6349 5.18847L16.5411 3.12597Z" fill="currentColor"/><path d="M4.28033 5.28217C3.98744 4.98928 3.51256 4.98928 3.21967 5.28217C2.92678 5.57506 2.92678 6.04994 3.21967 6.34283L4.75184 7.875L3.21967 9.40717C2.92678 9.70006 2.92678 10.1749 3.21967 10.4678C3.51256 10.7607 3.98744 10.7607 4.28033 10.4678L5.8125 8.93566L7.34467 10.4678C7.63756 10.7607 8.11244 10.7607 8.40533 10.4678C8.69822 10.1749 8.69822 9.70006 8.40533 9.40717L6.87316 7.875L8.40533 6.34283C8.69822 6.04994 8.69822 5.57506 8.40533 5.28217C8.11244 4.98928 7.63756 4.98928 7.34467 5.28217L5.8125 6.81434L4.28033 5.28217Z" fill="currentColor"/><path d="M6.32812 14.3438C4.49005 14.3438 3 15.8338 3 17.6719C3 19.5099 4.49005 21 6.32812 21C8.1662 21 9.65625 19.5099 9.65625 17.6719C9.65625 15.8338 8.1662 14.3438 6.32812 14.3438Z" fill="currentColor"/><path d="M15.5947 15.5947C15.3018 15.8876 15.3018 16.3624 15.5947 16.6553L17.1268 18.1875L15.5947 19.7197C15.3018 20.0126 15.3018 20.4874 15.5947 20.7803C15.8876 21.0732 16.3624 21.0732 16.6553 20.7803L18.1875 19.2482L19.7197 20.7803C20.0126 21.0732 20.4874 21.0732 20.7803 20.7803C21.0732 20.4874 21.0732 20.0126 20.7803 19.7197L19.2482 18.1875L20.7803 16.6553C21.0732 16.3624 21.0732 15.8876 20.7803 15.5947C20.4874 15.3018 20.0126 15.3018 19.7197 15.5947L18.1875 17.1268L16.6553 15.5947C16.3624 15.3018 15.8876 15.3018 15.5947 15.5947Z" fill="currentColor"/></g></svg>