<svg width="24px" height="24px" viewBox="0 0 24 24" fill="currentColor" xmlns="http://www.w3.org/2000/svg"><g><path fill-rule="evenodd" clip-rule="evenodd" d="M12 2C17.5228 2 22 6.47715 22 12C22 17.5228 17.5228 22 12 22C6.47715 22 2 17.5228 2 12C2 6.47715 6.47715 2 12 2ZM12 6C12.4142 6 12.75 6.33579 12.75 6.75V9.75C12.75 10.1642 12.4142 10.5 12 10.5C11.5858 10.5 11.25 10.1642 11.25 9.75V6.75C11.25 6.33579 11.5858 6 12 6ZM14.25 11.25C13.8358 11.25 13.5 11.5858 13.5 12C13.5 12.4142 13.8358 12.75 14.25 12.75H17.25C17.6642 12.75 18 12.4142 18 12C18 11.5858 17.6642 11.25 17.25 11.25H14.25ZM12 13.5C12.4142 13.5 12.75 13.8358 12.75 14.25V17.25C12.75 17.6642 12.4142 18 12 18C11.5858 18 11.25 17.6642 11.25 17.25V14.25C11.25 13.8358 11.5858 13.5 12 13.5ZM6.75 11.25C6.33579 11.25 6 11.5858 6 12C6 12.4142 6.33579 12.75 6.75 12.75H9.75C10.1642 12.75 10.5 12.4142 10.5 12C10.5 11.5858 10.1642 11.25 9.75 11.25H6.75Z" fill="currentColor"/></g></svg>