<svg width="24px" height="24px" viewBox="0 0 24 24" fill="currentColor" xmlns="http://www.w3.org/2000/svg"><g><path d="M12 2C10.067 2 8.5 3.567 8.5 5.5C8.5 7.433 10.067 9 12 9C13.933 9 15.5 7.433 15.5 5.5C15.5 3.567 13.933 2 12 2Z" fill="currentColor"/><path d="M4.5 9.25C4.5 8.83579 4.16421 8.5 3.75 8.5C3.33579 8.5 3 8.83579 3 9.25V11H2.75C2.33579 11 2 11.3358 2 11.75C2 12.1642 2.33579 12.5 2.75 12.5H3V17.25C3 19.3211 4.67893 21 6.75 21H17.25C19.3211 21 21 19.3211 21 17.25V12.5H21.25C21.6642 12.5 22 12.1642 22 11.75C22 11.3358 21.6642 11 21.25 11H15.4641C14.5985 10.0777 13.3663 9.5 12 9.5C10.6337 9.5 9.40154 10.0777 8.53591 11H7V9.25C7 8.83579 6.66421 8.5 6.25 8.5C5.83579 8.5 5.5 8.83579 5.5 9.25V11H4.5V9.25Z" fill="currentColor"/></g></svg>