<svg width="24px" height="24px" viewBox="0 0 24 24" fill="currentColor" xmlns="http://www.w3.org/2000/svg"><g><path d="M6.90802 2.78958C7.16232 2.46262 7.63353 2.40372 7.96049 2.65802L12 5.79989L16.0396 2.65802C16.3665 2.40372 16.8377 2.46262 17.092 2.78958C17.3464 3.11654 17.2875 3.58775 16.9605 3.84205L14.186 6H18.25C20.3211 6 22 7.67893 22 9.75V17.25C22 19.3211 20.3211 21 18.25 21H5.75C3.67893 21 2 19.3211 2 17.25V9.75C2 7.67893 3.67893 6 5.75 6H9.81409L7.03958 3.84205C6.71262 3.58775 6.65372 3.11654 6.90802 2.78958Z" fill="currentColor"/></g></svg>