<svg width="24px" height="24px" viewBox="0 0 24 24" fill="currentColor" xmlns="http://www.w3.org/2000/svg"><g><path d="M5.8125 3C4.2592 3 3 4.2592 3 5.8125C3 14.2003 9.79968 21 18.1875 21C19.7408 21 21 19.7408 21 18.1875V16.9479C21 15.5275 20.1975 14.229 18.9271 13.5938L17.4822 12.8713C16.5833 12.4219 15.4975 12.598 14.7868 13.3087C14.5386 13.557 14.2051 13.6023 13.9638 13.4801C12.3894 12.6832 11.3168 11.6106 10.5199 10.0362C10.3977 9.7949 10.443 9.46142 10.6913 9.21316C11.402 8.50246 11.5781 7.41673 11.1287 6.51776L10.4062 5.07295C9.77103 3.80251 8.47254 3 7.05215 3H5.8125Z" fill="currentColor"/></g></svg>