<svg width="24px" height="24px" viewBox="0 0 24 24" fill="currentColor" xmlns="http://www.w3.org/2000/svg"><g><path fill-rule="evenodd" clip-rule="evenodd" d="M9 5.75C9 5.33579 9.33579 5 9.75 5H21.25C21.6642 5 22 5.33579 22 5.75C22 6.16421 21.6642 6.5 21.25 6.5H9.75C9.33579 6.5 9 6.16421 9 5.75ZM2.3961 9.33878C2.63997 9.20827 2.93588 9.22257 3.16602 9.37599L6.16602 11.376C6.37467 11.5151 6.5 11.7492 6.5 12C6.5 12.2508 6.37468 12.4849 6.16603 12.624L3.16603 14.6241C2.93589 14.7775 2.63998 14.7918 2.39611 14.6613C2.15224 14.5308 2 14.2766 2 14V10C2 9.72344 2.15224 9.4693 2.3961 9.33878ZM9 12C9 11.5858 9.33579 11.25 9.75 11.25H21.25C21.6642 11.25 22 11.5858 22 12C22 12.4142 21.6642 12.75 21.25 12.75H9.75C9.33579 12.75 9 12.4142 9 12ZM9 18.25C9 17.8358 9.33579 17.5 9.75 17.5H21.25C21.6642 17.5 22 17.8358 22 18.25C22 18.6642 21.6642 19 21.25 19H9.75C9.33579 19 9 18.6642 9 18.25Z" fill="currentColor"/></g></svg>