<svg width="24px" height="24px" viewBox="0 0 24 24" fill="currentColor" xmlns="http://www.w3.org/2000/svg"><g><path fill-rule="evenodd" clip-rule="evenodd" d="M2 3.75C2 3.33579 2.33579 3 2.75 3H11.25C11.6642 3 12 3.33579 12 3.75V5.25C12 5.66421 11.6642 6 11.25 6C10.8358 6 10.5 5.66421 10.5 5.25V4.5H7.75V11.5H8.75C9.16421 11.5 9.5 11.8358 9.5 12.25C9.5 12.6642 9.16421 13 8.75 13H5.25C4.83579 13 4.5 12.6642 4.5 12.25C4.5 11.8358 4.83579 11.5 5.25 11.5H6.25V4.5H3.5V5.25C3.5 5.66421 3.16421 6 2.75 6C2.33579 6 2 5.66421 2 5.25V3.75ZM14.25 7C14.6642 7 15 7.33579 15 7.75V20.25C15 20.6642 14.6642 21 14.25 21C13.8358 21 13.5 20.6642 13.5 20.25V7.75C13.5 7.33579 13.8358 7 14.25 7ZM17.75 10C18.1642 10 18.5 10.3358 18.5 10.75V17.25C18.5 17.6642 18.1642 18 17.75 18C17.3358 18 17 17.6642 17 17.25V10.75C17 10.3358 17.3358 10 17.75 10ZM21.25 12C21.6642 12 22 12.3358 22 12.75V15.25C22 15.6642 21.6642 16 21.25 16C20.8358 16 20.5 15.6642 20.5 15.25V12.75C20.5 12.3358 20.8358 12 21.25 12ZM10.75 14C11.1642 14 11.5 14.3358 11.5 14.75V17.25C11.5 17.6642 11.1642 18 10.75 18C10.3358 18 10 17.6642 10 17.25V14.75C10 14.3358 10.3358 14 10.75 14Z" fill="currentColor"/></g></svg>