<svg width="24px" height="24px" viewBox="0 0 24 24" fill="currentColor" xmlns="http://www.w3.org/2000/svg"><g><path d="M4.25 2C2.59315 2 1.25 3.34315 1.25 5C1.25 6.39788 2.20608 7.57245 3.5 7.90549V18.25C3.5 18.6642 3.83579 19 4.25 19C4.66421 19 5 18.6642 5 18.25V7.90549C6.29392 7.57245 7.25 6.39788 7.25 5C7.25 3.34315 5.90685 2 4.25 2Z" fill="currentColor"/><path d="M9.75 5C9.33579 5 9 5.33579 9 5.75C9 6.16421 9.33579 6.5 9.75 6.5H11.25C11.6642 6.5 12 6.16421 12 5.75C12 5.33579 11.6642 5 11.25 5H9.75Z" fill="currentColor"/><path d="M14.75 5C14.3358 5 14 5.33579 14 5.75C14 6.16421 14.3358 6.5 14.75 6.5H16.25C16.6642 6.5 17 6.16421 17 5.75C17 5.33579 16.6642 5 16.25 5H14.75Z" fill="currentColor"/><path d="M20.5 5.75C20.5 5.33579 20.1642 5 19.75 5C19.3358 5 19 5.33579 19 5.75V16.0945C17.7061 16.4275 16.75 17.6021 16.75 19C16.75 20.6569 18.0931 22 19.75 22C21.4069 22 22.75 20.6569 22.75 19C22.75 17.6021 21.7939 16.4275 20.5 16.0945V5.75Z" fill="currentColor"/><path d="M7.75 17.5C7.33579 17.5 7 17.8358 7 18.25C7 18.6642 7.33579 19 7.75 19H9.25C9.66421 19 10 18.6642 10 18.25C10 17.8358 9.66421 17.5 9.25 17.5H7.75Z" fill="currentColor"/><path d="M12.75 17.5C12.3358 17.5 12 17.8358 12 18.25C12 18.6642 12.3358 19 12.75 19H14.25C14.6642 19 15 18.6642 15 18.25C15 17.8358 14.6642 17.5 14.25 17.5H12.75Z" fill="currentColor"/></g></svg>