<svg width="24px" height="24px" viewBox="0 0 24 24" fill="currentColor" xmlns="http://www.w3.org/2000/svg"><g><path fill-rule="evenodd" clip-rule="evenodd" d="M15.5 4C15.8075 4 16.0838 4.18769 16.1972 4.47353L21.9472 18.9735C22.0999 19.3586 21.9115 19.7945 21.5265 19.9472C21.1414 20.0999 20.7055 19.9115 20.5528 19.5265L18.7578 15C18.7552 15 18.7526 15 18.75 15H12.25C12.2474 15 12.2448 15 12.2422 15L10.4472 19.5265C10.2945 19.9115 9.85857 20.0999 9.47353 19.9472C9.08849 19.7945 8.90013 19.3586 9.05282 18.9735L14.8028 4.47353C14.9162 4.18769 15.1925 4 15.5 4ZM12.837 13.5H18.163L15.5 6.78458L12.837 13.5ZM5 6.75C5 6.33579 5.33579 6 5.75 6H10.25C10.6642 6 11 6.33579 11 6.75C11 7.16421 10.6642 7.5 10.25 7.5H5.75C5.33579 7.5 5 7.16421 5 6.75ZM2 12C2 11.5858 2.33579 11.25 2.75 11.25H8.25C8.66421 11.25 9 11.5858 9 12C9 12.4142 8.66421 12.75 8.25 12.75H2.75C2.33579 12.75 2 12.4142 2 12ZM3 17.25C3 16.8358 3.33579 16.5 3.75 16.5H6.25C6.66421 16.5 7 16.8358 7 17.25C7 17.6642 6.66421 18 6.25 18H3.75C3.33579 18 3 17.6642 3 17.25Z" fill="currentColor"/></g></svg>