<svg width="24px" height="24px" viewBox="0 0 24 24" fill="currentColor" xmlns="http://www.w3.org/2000/svg"><g><path d="M6 4C4.34315 4 3 5.34315 3 7C3 8.65685 4.34315 10 6 10C7.65685 10 9 8.65685 9 7C9 5.34315 7.65685 4 6 4Z" fill="currentColor"/><path d="M12.75 4.5C12.3358 4.5 12 4.83579 12 5.25C12 5.66421 12.3358 6 12.75 6H20.25C20.6642 6 21 5.66421 21 5.25C21 4.83579 20.6642 4.5 20.25 4.5H12.75Z" fill="currentColor"/><path d="M12.75 8C12.3358 8 12 8.33579 12 8.75C12 9.16421 12.3358 9.5 12.75 9.5H17.25C17.6642 9.5 18 9.16421 18 8.75C18 8.33579 17.6642 8 17.25 8H12.75Z" fill="currentColor"/><path d="M6 14C4.34315 14 3 15.3431 3 17C3 18.6569 4.34315 20 6 20C7.65685 20 9 18.6569 9 17C9 15.3431 7.65685 14 6 14Z" fill="currentColor"/><path d="M12.75 14.5C12.3358 14.5 12 14.8358 12 15.25C12 15.6642 12.3358 16 12.75 16H20.25C20.6642 16 21 15.6642 21 15.25C21 14.8358 20.6642 14.5 20.25 14.5H12.75Z" fill="currentColor"/><path d="M12.75 18C12.3358 18 12 18.3358 12 18.75C12 19.1642 12.3358 19.5 12.75 19.5H17.25C17.6642 19.5 18 19.1642 18 18.75C18 18.3358 17.6642 18 17.25 18H12.75Z" fill="currentColor"/></g></svg>