<svg width="24px" height="24px" viewBox="0 0 24 24" fill="currentColor" xmlns="http://www.w3.org/2000/svg"><g><path fill-rule="evenodd" clip-rule="evenodd" d="M15 5.75C15 5.33579 14.6642 5 14.25 5H2.75C2.33579 5 2 5.33579 2 5.75C2 6.16421 2.33579 6.5 2.75 6.5H14.25C14.6642 6.5 15 6.16421 15 5.75Z" fill="currentColor"/><path fill-rule="evenodd" clip-rule="evenodd" d="M21.6039 9.33875C21.36 9.20823 21.0641 9.22253 20.834 9.37596L17.834 11.3759C17.6253 11.515 17.5 11.7492 17.5 12C17.5 12.2507 17.6253 12.4849 17.834 12.624L20.834 14.624C21.0641 14.7775 21.36 14.7918 21.6039 14.6613C21.8478 14.5307 22 14.2766 22 14V10C22 9.72341 21.8478 9.46926 21.6039 9.33875Z" fill="currentColor"/><path fill-rule="evenodd" clip-rule="evenodd" d="M15 12C15 11.5858 14.6642 11.25 14.25 11.25H2.75C2.33579 11.25 2 11.5858 2 12C2 12.4142 2.33579 12.75 2.75 12.75H14.25C14.6642 12.75 15 12.4142 15 12Z" fill="currentColor"/><path fill-rule="evenodd" clip-rule="evenodd" d="M15 18.25C15 17.8358 14.6642 17.5 14.25 17.5H2.75C2.33579 17.5 2 17.8358 2 18.25C2 18.6642 2.33579 19 2.75 19H14.25C14.6642 19 15 18.6642 15 18.25Z" fill="currentColor"/></g></svg>