<svg width="24px" height="24px" viewBox="0 0 24 24" fill="currentColor" xmlns="http://www.w3.org/2000/svg"><g><path d="M21.2114 5.78858C19.7758 4.35303 17.4483 4.35302 16.0128 5.78858L8.09835 13.703C7.39509 14.4063 7 15.3601 7 16.3547V19.2499C7 19.6642 7.33579 19.9999 7.75 19.9999H10.6453C11.6399 19.9999 12.5937 19.6049 13.2969 18.9016L21.2114 10.9872C22.6469 9.55162 22.6469 7.22413 21.2114 5.78858Z" fill="currentColor"/><path d="M1.75 4.99994C1.33579 4.99994 1 5.33573 1 5.74994C1 6.16416 1.33579 6.49994 1.75 6.49994H9.25C9.66421 6.49994 10 6.16416 10 5.74994C10 5.33573 9.66421 4.99994 9.25 4.99994H1.75Z" fill="currentColor"/><path d="M1.75 8.99994C1.33579 8.99994 1 9.33573 1 9.74994C1 10.1642 1.33579 10.4999 1.75 10.4999H6.25C6.66421 10.4999 7 10.1642 7 9.74994C7 9.33573 6.66421 8.99994 6.25 8.99994H1.75Z" fill="currentColor"/></g></svg>