<svg width="24px" height="24px" viewBox="0 0 24 24" fill="currentColor" xmlns="http://www.w3.org/2000/svg"><g><path d="M9.75 4C9.33579 4 9 4.33579 9 4.75C9 5.16421 9.33579 5.5 9.75 5.5H15.25V20.25C15.25 20.6642 15.5858 21 16 21C16.4142 21 16.75 20.6642 16.75 20.25V5.5H22.25C22.6642 5.5 23 5.16421 23 4.75C23 4.33579 22.6642 4 22.25 4H9.75Z" fill="currentColor"/><path d="M6.17676 20.25V11.75H1.75C1.33579 11.75 1 11.4142 1 11C1 10.5858 1.33579 10.25 1.75 10.25H6.88815C6.90094 10.2494 6.91381 10.249 6.92676 10.249C6.93971 10.249 6.95258 10.2494 6.96537 10.25H12.25C12.6642 10.25 13 10.5858 13 11C13 11.4142 12.6642 11.75 12.25 11.75H7.67676V20.25C7.67676 20.6642 7.34097 21 6.92676 21C6.51254 21 6.17676 20.6642 6.17676 20.25Z" fill="currentColor"/></g></svg>