<svg width="24px" height="24px" viewBox="0 0 24 24" fill="currentColor" xmlns="http://www.w3.org/2000/svg"><g><path fill-rule="evenodd" clip-rule="evenodd" d="M14.8717 8.05419C15.062 8.03983 15.2997 8.04152 15.5084 8.22313C15.6482 8.34501 15.753 8.53198 15.7633 8.73192V8.80809C15.7585 8.88373 15.7399 8.95835 15.7086 9.02782C15.6771 9.09746 15.6201 9.18112 15.5621 9.26024C15.5014 9.34305 15.4285 9.43493 15.3551 9.52489C15.1984 9.71675 15.0608 9.8755 14.9752 9.98192C14.2735 10.8472 13.6074 11.742 12.9801 12.6626L12.9791 12.6636C12.7869 12.9437 12.6017 13.2349 12.4137 13.5259L12.4127 13.5249C12.3104 13.69 12.1678 13.9598 11.9859 14.1528C11.8909 14.2536 11.7747 14.3469 11.6324 14.4009C11.4863 14.4562 11.3236 14.4656 11.149 14.4165C10.9501 14.3604 10.7608 14.2149 10.608 14.0776L10.1959 13.6733L9.25155 12.7641C9.04187 12.5655 8.74018 12.3123 8.55819 12.0249C8.4772 11.8969 8.45015 11.7304 8.46054 11.5845C8.47081 11.4403 8.52167 11.269 8.64804 11.1538C8.81658 11.0003 8.99681 10.9197 9.18417 10.9097C9.36786 10.8999 9.53568 10.9592 9.68026 11.0405C9.82417 11.1215 9.95688 11.2311 10.0738 11.3374C10.1326 11.3908 10.1895 11.4453 10.2428 11.4966C10.2968 11.5486 10.3472 11.5971 10.3951 11.6411L11.1949 12.3755C11.3972 12.0707 11.6397 11.7426 11.8463 11.4585C12.4485 10.6285 13.0835 9.82204 13.7486 9.04149L14.109 8.62059C14.2373 8.47565 14.3723 8.33191 14.5084 8.21044C14.6178 8.11293 14.75 8.07705 14.8463 8.05712L14.858 8.05516L14.8717 8.05419Z" fill="currentColor"/><path fill-rule="evenodd" clip-rule="evenodd" d="M14.86 2.25048C16.8765 2.25047 19.0797 2.1286 20.1578 4.16844C20.5556 4.92174 20.5767 5.91064 20.6187 7.88719L20.69 11.2456C20.712 12.2778 20.7227 12.7945 20.7115 13.31C20.7016 13.7682 20.6783 14.2263 20.6422 14.6831C20.6015 15.1972 20.5393 15.7101 20.4137 16.7349L20.4019 16.8315C20.1886 18.5722 20.0816 19.443 19.6734 20.0991C19.3137 20.6771 18.7929 21.1376 18.1754 21.4243C17.4744 21.7497 16.5973 21.7505 14.8433 21.7505H9.1539C7.39997 21.7505 6.52281 21.7497 5.82186 21.4243C5.20443 21.1376 4.68348 20.6771 4.32382 20.0991C3.9157 19.443 3.80867 18.5722 3.5953 16.8315L3.58358 16.7349C3.45797 15.7101 3.39577 15.1972 3.35507 14.6831C3.31891 14.2263 3.29568 13.7682 3.28573 13.31C3.27455 12.7945 3.28525 12.2778 3.30722 11.2456L3.3785 7.88719C3.42056 5.91064 3.4416 4.92174 3.83944 4.16844C4.91749 2.12857 7.12072 2.25047 9.13729 2.25048H14.86ZM8.3912 5.7495C7.28984 5.7495 6.7388 5.74954 6.31503 5.96239C5.94225 6.14978 5.63718 6.44957 5.44296 6.81883C5.22226 7.23868 5.212 7.78981 5.19198 8.8911L5.09921 13.9995C5.0992 14.2316 5.09899 14.3481 5.10897 14.4477C5.19829 15.337 5.86699 16.0587 6.74667 16.2163C6.84531 16.2339 6.96141 16.2434 7.19296 16.2612L7.83261 16.31C8.2482 16.3421 8.45639 16.3587 8.62069 16.435C8.85809 16.5456 9.0433 16.7455 9.13534 16.9907C9.19896 17.1605 9.19882 17.3695 9.19882 17.7866V17.8999C9.19882 18.4596 9.19933 18.7398 9.30819 18.9536C9.404 19.1415 9.5568 19.2943 9.74472 19.3901C9.95857 19.4991 10.2387 19.4995 10.7984 19.4995H13.1988C13.7588 19.4995 14.0386 19.4991 14.2525 19.3901C14.4407 19.2942 14.5942 19.1417 14.69 18.9536C14.7989 18.7398 14.7984 18.4595 14.7984 17.8999V17.8452C14.7984 17.3399 14.799 17.0866 14.8932 16.8852C14.9761 16.7081 15.1092 16.5588 15.276 16.4565C15.4654 16.3404 15.7172 16.3122 16.2193 16.2554L16.9488 16.1724C16.972 16.1715 16.9838 16.1709 16.9937 16.1704C18.0526 16.1202 18.8885 15.2529 18.899 14.1929V13.9995L18.8082 8.89305C18.7886 7.79122 18.7788 7.23986 18.5582 6.81981C18.364 6.45029 18.0591 6.14992 17.6861 5.96239C17.2622 5.74942 16.7108 5.7495 15.609 5.7495H8.3912Z" fill="currentColor"/><path opacity="0.4" d="M14.8555 17C14.8033 17.1858 14.8027 17.4306 14.8027 17.8457V17.9004C14.8027 18.4598 14.8021 18.7403 14.6934 18.9541C14.5976 19.1419 14.4446 19.2948 14.2568 19.3906C14.043 19.4995 13.7626 19.5 13.2031 19.5H10.8027C10.243 19.5 9.96288 19.4995 9.74902 19.3906C9.56103 19.2947 9.40734 19.1421 9.31152 18.9541C9.20277 18.7403 9.20312 18.4598 9.20312 17.9004V17.7871C9.20312 17.3766 9.20133 17.1683 9.14062 17H14.8555Z" fill="currentColor"/></g></svg>