<svg width="24px" height="24px" viewBox="0 0 24 24" fill="currentColor" xmlns="http://www.w3.org/2000/svg"><g><path d="M11.9688 1.5C12.8555 1.5 13.5954 2.14783 13.7286 3H19.25C19.6642 3 20 3.33579 20 3.75C20 4.16421 19.6642 4.5 19.25 4.5H19V9.86393L5 7.53125V4.5H4.75C4.33579 4.5 4 4.16421 4 3.75C4 3.33579 4.33579 3 4.75 3H10.2089C10.3421 2.14783 11.082 1.5 11.9688 1.5Z" fill="currentColor"/><path d="M5 9.05176L19 11.3844V14.8638L5 12.5311V9.05176Z" fill="currentColor"/><path d="M5 14.0518V19.4998H4.75C4.33579 19.4998 4 19.8356 4 20.2498C4 20.664 4.33579 20.9998 4.75 20.9998H10.2052C10.3265 21.8479 11.0559 22.4998 11.9375 22.4998H12C12.8816 22.4998 13.611 21.8479 13.7323 20.9998H19.25C19.6642 20.9998 20 20.664 20 20.2498C20 19.8356 19.6642 19.4998 19.25 19.4998H19V16.3844L5 14.0518Z" fill="currentColor"/></g></svg>