<svg width="24px" height="24px" viewBox="0 0 24 24" fill="currentColor" xmlns="http://www.w3.org/2000/svg"><g><path d="M13.1181 2.04792C12.6817 1.94211 12.2504 2.20028 12.0773 2.61462C11 6.50002 8 8.55501 8 11.2699V17.7252C8 18.8717 8.66361 20.0005 9.83559 20.4273C12.4864 21.3926 14.2335 21.589 16.9595 21.3527C19.0504 21.1715 20.6221 19.5685 21.0577 17.6326L21.9024 13.8781C22.4651 11.3773 20.5633 9.00007 18 9.00007L15 9.00002C15.4693 6.18434 16.615 2.89587 13.1181 2.04792Z" fill="currentColor"/><path d="M2 11.5C2 10.3954 2.89543 9.5 4 9.5H4.5C5.88071 9.5 7 10.6193 7 12V18C7 19.3807 5.88071 20.5 4.5 20.5H4C2.89543 20.5 2 19.6046 2 18.5V11.5Z" fill="currentColor"/></g></svg>