<svg width="24px" height="24px" viewBox="0 0 24 24" fill="currentColor" xmlns="http://www.w3.org/2000/svg"><g><path d="M10.25 2C8.17893 2 6.5 3.67893 6.5 5.75V6.99695C6.5 8.72086 5.81518 10.3742 4.5962 11.5931L4.21967 11.9697C4.07902 12.1103 4 12.3011 4 12.5V15.25C4 15.4489 4.07902 15.6397 4.21967 15.7803C4.36032 15.921 4.55109 16 4.75 16H11.25V21.25C11.25 21.6642 11.5858 22 12 22C12.4142 22 12.75 21.6642 12.75 21.25V16H19.25C19.6642 16 20 15.6642 20 15.25V12.5C20 12.3011 19.921 12.1103 19.7803 11.9697L19.4038 11.5931C18.1848 10.3742 17.5 8.72086 17.5 6.99695V5.75C17.5 3.67893 15.8211 2 13.75 2H10.25Z" fill="currentColor"/></g></svg>