<svg width="24px" height="24px" viewBox="0 0 24 24" fill="currentColor" xmlns="http://www.w3.org/2000/svg"><g><path d="M10.8836 21.9521C11.32 22.0579 11.7513 21.7997 11.9244 21.3854C13.0017 17.5 16.0017 15.445 16.0017 12.7301V6.27476C16.0017 5.12833 15.3381 3.9995 14.1661 3.57273C11.5152 2.60744 9.76815 2.41102 7.04211 2.64726C4.95127 2.82846 3.37955 4.43151 2.94397 6.36742L2.09922 10.1219C1.53654 12.6227 3.43833 14.9999 6.00166 14.9999L9.00166 15C8.53238 17.8157 7.38664 21.1041 10.8836 21.9521Z" fill="currentColor"/><path d="M22.0017 12.5C22.0017 13.6046 21.1062 14.5 20.0017 14.5H19.5017C18.1209 14.5 17.0017 13.3807 17.0017 12V5.99999C17.0017 4.61928 18.1209 3.49999 19.5017 3.49999H20.0017C21.1062 3.49999 22.0017 4.39542 22.0017 5.49999V12.5Z" fill="currentColor"/></g></svg>