<svg width="24px" height="24px" viewBox="0 0 24 24" fill="currentColor" xmlns="http://www.w3.org/2000/svg"><g><path fill-rule="evenodd" clip-rule="evenodd" d="M2 7.75C2 5.67893 3.67893 4 5.75 4H18.25C20.3211 4 22 5.67893 22 7.75V9.25C22 9.58821 21.7736 9.88458 21.4473 9.97357C19.4342 10.5226 19.4342 13.4774 21.4473 14.0264C21.7736 14.1154 22 14.4118 22 14.75V16.25C22 18.3211 20.3211 20 18.25 20H5.75C3.67893 20 2 18.3211 2 16.25V14.75C2 14.4118 2.22637 14.1154 2.55266 14.0264C4.56578 13.4774 4.56578 10.5226 2.55266 9.97357C2.22637 9.88458 2 9.58821 2 9.25V7.75ZM15.25 7C15.6642 7 16 7.33579 16 7.75V8.25C16 8.66421 15.6642 9 15.25 9C14.8358 9 14.5 8.66421 14.5 8.25V7.75C14.5 7.33579 14.8358 7 15.25 7ZM15.25 11C15.6642 11 16 11.3358 16 11.75V12.25C16 12.6642 15.6642 13 15.25 13C14.8358 13 14.5 12.6642 14.5 12.25V11.75C14.5 11.3358 14.8358 11 15.25 11ZM15.25 15C15.6642 15 16 15.3358 16 15.75V16.25C16 16.6642 15.6642 17 15.25 17C14.8358 17 14.5 16.6642 14.5 16.25V15.75C14.5 15.3358 14.8358 15 15.25 15Z" fill="currentColor"/></g></svg>