<svg width="24px" height="24px" viewBox="0 0 24 24" fill="currentColor" xmlns="http://www.w3.org/2000/svg"><g><path fill-rule="evenodd" clip-rule="evenodd" d="M7 12C7 7.58172 10.5817 4 15 4C19.4183 4 23 7.58172 23 12C23 16.4183 19.4183 20 15 20C10.5817 20 7 16.4183 7 12ZM2 7.75C2 7.33579 2.33579 7 2.75 7H5.25C5.66421 7 6 7.33579 6 7.75C6 8.16421 5.66421 8.5 5.25 8.5H2.75C2.33579 8.5 2 8.16421 2 7.75ZM15 8C15.4142 8 15.75 8.33579 15.75 8.75V11.6893L17.5303 13.4697C17.8232 13.7626 17.8232 14.2374 17.5303 14.5303C17.2374 14.8232 16.7626 14.8232 16.4697 14.5303L14.4697 12.5303C14.329 12.3897 14.25 12.1989 14.25 12V8.75C14.25 8.33579 14.5858 8 15 8ZM1 12C1 11.5858 1.33579 11.25 1.75 11.25H4.25C4.66421 11.25 5 11.5858 5 12C5 12.4142 4.66421 12.75 4.25 12.75H1.75C1.33579 12.75 1 12.4142 1 12ZM2 16.25C2 15.8358 2.33579 15.5 2.75 15.5H5.25C5.66421 15.5 6 15.8358 6 16.25C6 16.6642 5.66421 17 5.25 17H2.75C2.33579 17 2 16.6642 2 16.25Z" fill="currentColor"/></g></svg>