<svg width="24px" height="24px" viewBox="0 0 24 24" fill="currentColor" xmlns="http://www.w3.org/2000/svg"><g><path d="M2.00797 18.6467C2.52996 18.6467 2.82695 18.3947 3.01594 17.8097L3.99691 15.0198H8.96477L9.95475 17.8187C10.1347 18.3947 10.4317 18.6467 10.9717 18.6467C11.5567 18.6467 11.9797 18.2597 11.9797 17.7287C11.9797 17.5577 11.9437 17.3867 11.8537 17.1347L7.8938 6.41604C7.62381 5.69606 7.19182 5.37207 6.48984 5.37207C5.77886 5.37207 5.33788 5.70506 5.07688 6.42504L1.126 17.1347C1.036 17.3777 1 17.5757 1 17.7287C1 18.2777 1.40499 18.6467 2.00797 18.6467ZM4.5099 13.3728L6.44485 7.676H6.49884L8.45179 13.3728H4.5099Z" fill="currentColor"/><path d="M17.1041 18.6647C18.3371 18.6647 19.5431 17.9987 20.0921 16.9457H20.1371V17.7467C20.1551 18.3227 20.524 18.6737 21.064 18.6737C21.613 18.6737 22 18.3047 22 17.6927V11.9779C22 10.0789 20.533 8.86397 18.2381 8.86397C16.5372 8.86397 15.1062 9.54795 14.6112 10.6189C14.4942 10.8349 14.4402 11.0509 14.4402 11.2489C14.4402 11.7349 14.7912 12.0589 15.2772 12.0589C15.6192 12.0589 15.8712 11.9329 16.0692 11.6449C16.6092 10.7809 17.2301 10.4479 18.1661 10.4479C19.3541 10.4479 20.0651 11.0779 20.0651 12.1309V12.8599L17.4641 13.0129C15.2232 13.1388 13.9452 14.1558 13.9452 15.8118C13.9452 17.5127 15.2502 18.6647 17.1041 18.6647ZM17.6351 17.1257C16.6002 17.1257 15.9072 16.5858 15.9072 15.7578C15.9072 14.9478 16.5642 14.4348 17.7251 14.3538L20.0651 14.2098V14.9568C20.0651 16.1898 18.9941 17.1257 17.6351 17.1257Z" fill="currentColor"/></g></svg>