<svg width="24px" height="24px" viewBox="0 0 24 24" fill="currentColor" xmlns="http://www.w3.org/2000/svg"><g><path fill-rule="evenodd" clip-rule="evenodd" d="M18.6333 14.6938C18.0844 15.0446 17.4525 15.2557 16.7935 15.2973L15.4282 15.3833C14.8526 15.4196 14.3089 15.6649 13.9009 16.0727L9.28956 20.684C8.18441 21.789 6.39276 21.7891 5.28761 20.684L3.31495 18.7114C2.2102 17.6062 2.21004 15.8145 3.31495 14.7094L7.92628 10.0981C8.33413 9.69007 8.5795 9.14654 8.61574 8.57076L8.70167 7.20552C8.74332 6.54639 8.95327 5.91373 9.30421 5.3647L18.6333 14.6938ZM12.0298 11.9692C11.737 11.6767 11.2621 11.6768 10.9693 11.9692L9.46925 13.4692C9.17654 13.762 9.17666 14.2369 9.46925 14.5297C9.76211 14.8226 10.2369 14.8225 10.5298 14.5297L12.0298 13.0297C12.3223 12.7368 12.3226 12.262 12.0298 11.9692Z" fill="currentColor"/><path d="M11.4751 3.0649C12.5802 1.96017 14.373 1.96011 15.478 3.0649L20.9341 8.52095C22.0392 9.62601 22.0389 11.4187 20.9341 12.5239L19.7593 13.6987L10.3003 4.2397L11.4751 3.0649Z" fill="currentColor"/></g></svg>