<svg width="24px" height="24px" viewBox="0 0 24 24" fill="currentColor" xmlns="http://www.w3.org/2000/svg"><g><path d="M10.3112 8.89861L7.20075 10.0329C5.97431 10.4855 4.60493 9.91382 4.07188 8.72657C3.89712 8.33735 4.0509 7.87997 4.426 7.67329L11.3778 3.8428C12.381 3.29003 13.5092 3 14.6563 3H18.1222C18.6141 3 19.034 3.35341 19.1149 3.8356L19.9863 9.03108C20.0555 9.44398 19.8586 9.85604 19.4929 10.0637L17.9893 10.9175C16.8083 11.5881 15.423 11.8115 14.0892 11.5464L11.4861 11.0291C11.019 10.9363 10.7542 10.4421 10.9374 10.0052L11.496 8.67308C11.7304 8.11411 12.28 7.75 12.8894 7.75H14.8214C15.0975 7.75 15.3214 7.52614 15.3214 7.25C15.3214 6.97386 15.0975 6.75 14.8214 6.75H12.8894C11.8737 6.75 10.9577 7.35684 10.567 8.28846L10.3112 8.89861Z" fill="currentColor"/><path fill-rule="evenodd" clip-rule="evenodd" d="M8.46967 13.9697C8.76256 13.6768 9.23744 13.6768 9.53033 13.9697C9.54316 13.9825 9.55597 13.9953 9.56878 14.0081C10.29 14.7292 10.9829 15.4219 11.4729 16.3319C11.9289 17.1788 12.1896 18.1694 12.2407 19.5H12.25C12.25 17.4087 13.4805 16.3326 14.4649 15.4716C14.4787 15.4596 14.4924 15.4475 14.5061 15.4356C14.8178 15.1628 15.2917 15.1944 15.5644 15.5061C15.8372 15.8178 15.8056 16.2917 15.4939 16.5644C14.4848 17.4473 13.75 18.1206 13.75 19.5H15.2499C15.2498 19.3782 15.2794 19.2546 15.342 19.1401C15.9154 18.0916 17.0135 16.9229 18.584 15.876C18.9286 15.6462 19.3943 15.7393 19.624 16.084C19.8538 16.4286 19.7607 16.8943 19.416 17.124C18.1979 17.9361 17.3629 18.7843 16.8787 19.5H20.25C20.6642 19.5 21 19.8358 21 20.25C21 20.6642 20.6642 21 20.25 21H3.75C3.33579 21 3 20.6642 3 20.25C3 19.8358 3.33579 19.5 3.75 19.5H7.88713C7.60535 19.0084 7.35102 18.6617 7.03217 18.3428C6.54283 17.8535 5.86773 17.3953 4.61413 16.6431C4.25894 16.43 4.14377 15.9693 4.35688 15.6141C4.56999 15.2589 5.03069 15.1438 5.38587 15.3569C6.63227 16.1047 7.45717 16.6465 8.09283 17.2822C8.70796 17.8973 9.11556 18.5691 9.58794 19.5H10.7394C10.69 18.3757 10.4708 17.6348 10.1521 17.0431C9.77584 16.3442 9.23467 15.7953 8.46967 15.0303C8.17678 14.7374 8.17678 14.2626 8.46967 13.9697Z" fill="currentColor"/></g></svg>