<svg width="24px" height="24px" viewBox="0 0 24 24" fill="currentColor" xmlns="http://www.w3.org/2000/svg"><g><path d="M13.25 8.25V11H16.5385C18.4502 11 20 12.5498 20 14.4615V16.2308C20 19.417 17.417 22 14.2308 22H13.1665C11.607 22 10.1529 21.2124 9.30087 19.9063L6.21101 15.1696C6.0786 14.9666 6.05243 14.7122 6.14077 14.4865L6.27412 14.1458C6.75826 12.9088 8.18408 12.335 9.39013 12.8916L9.75 13.0577V8.25C9.75 7.2835 10.5335 6.5 11.5 6.5C12.4665 6.5 13.25 7.2835 13.25 8.25Z" fill="currentColor"/><path fill-rule="evenodd" clip-rule="evenodd" d="M11.4722 3.5C8.44364 3.5 6 5.93145 6 8.91667C6 9.22472 6.0259 9.5262 6.07551 9.81927C6.14465 10.2277 5.86961 10.6148 5.46121 10.6839C5.05281 10.7531 4.66569 10.478 4.59655 10.0696C4.533 9.6942 4.5 9.30897 4.5 8.91667C4.5 5.09037 7.62793 2 11.4722 2C14.9225 2 17.7933 4.4876 18.3479 7.76371C18.417 8.17211 18.142 8.55923 17.7336 8.62837C17.3252 8.6975 16.9381 8.42247 16.8689 8.01407C16.4361 5.4571 14.1882 3.5 11.4722 3.5Z" fill="currentColor"/></g></svg>