<svg width="24px" height="24px" viewBox="0 0 24 24" fill="currentColor" xmlns="http://www.w3.org/2000/svg"><g><path d="M7.75 2.75C7.75 2.33579 7.41421 2 7 2C6.58579 2 6.25 2.33579 6.25 2.75V10.033C4.41532 10.2775 3 11.8485 3 13.75V15.25C3 17.1515 4.41532 18.7225 6.25 18.967V21.25C6.25 21.6642 6.58579 22 7 22C7.41421 22 7.75 21.6642 7.75 21.25V18.967C9.58468 18.7225 11 17.1515 11 15.25V13.75C11 11.8485 9.58468 10.2775 7.75 10.033V2.75Z" fill="currentColor"/><path d="M17.75 2.75001C17.75 2.3358 17.4142 2.00001 17 2.00001C16.5858 2.00001 16.25 2.3358 16.25 2.75001V5.03304C14.4153 5.27749 13 6.84846 13 8.75V15.25C13 17.1515 14.4153 18.7225 16.25 18.967V21.25C16.25 21.6642 16.5858 22 17 22C17.4142 22 17.75 21.6642 17.75 21.25V18.967C19.5847 18.7225 21 17.1515 21 15.25V8.75C21 6.84846 19.5847 5.27749 17.75 5.03304V2.75001Z" fill="currentColor"/></g></svg>