<svg width="24px" height="24px" viewBox="0 0 24 24" fill="currentColor" xmlns="http://www.w3.org/2000/svg"><g><path fill-rule="evenodd" clip-rule="evenodd" d="M9.25 3C9.66421 3 10 3.33579 10 3.75V12.25C10 12.6642 9.66421 13 9.25 13C8.83579 13 8.5 12.6642 8.5 12.25V3.75C8.5 3.33579 8.83579 3 9.25 3ZM3.75 7C4.16421 7 4.5 7.33579 4.5 7.75V16.25C4.5 16.6642 4.16421 17 3.75 17C3.33579 17 3 16.6642 3 16.25V7.75C3 7.33579 3.33579 7 3.75 7ZM20.25 7C20.6642 7 21 7.33579 21 7.75V16.25C21 16.6642 20.6642 17 20.25 17C19.8358 17 19.5 16.6642 19.5 16.25V7.75C19.5 7.33579 19.8358 7 20.25 7ZM14.75 11C15.1642 11 15.5 11.3358 15.5 11.75V20.25C15.5 20.6642 15.1642 21 14.75 21C14.3358 21 14 20.6642 14 20.25V11.75C14 11.3358 14.3358 11 14.75 11Z" fill="currentColor"/></g></svg>