<svg width="24px" height="24px" viewBox="0 0 24 24" fill="currentColor" xmlns="http://www.w3.org/2000/svg"><g><path d="M7.83615 2C6.95889 2 6.10939 2.30756 5.43546 2.86917L4.34931 3.77429C3.49434 4.48677 3 5.5422 3 6.65512V10.5H21V6.65512C21 5.5422 20.5057 4.48677 19.6507 3.7743L18.5645 2.86917C17.8906 2.30756 17.0411 2 16.1638 2H7.83615Z" fill="currentColor"/><path fill-rule="evenodd" clip-rule="evenodd" d="M3 14.25V12H21V14.25C21 16.2916 19.3685 17.9521 17.3382 17.999L19.3387 22H17.6616L15.6616 18H8.33867L6.33867 22H4.66162L6.66213 17.999C4.63165 17.9523 3 16.2917 3 14.25ZM7 16C7.55228 16 8 15.5523 8 15C8 14.4477 7.55228 14 7 14C6.44772 14 6 14.4477 6 15C6 15.5523 6.44772 16 7 16ZM18 15C18 15.5523 17.5523 16 17 16C16.4477 16 16 15.5523 16 15C16 14.4477 16.4477 14 17 14C17.5523 14 18 14.4477 18 15Z" fill="currentColor"/></g></svg>