<svg width="24px" height="24px" viewBox="0 0 24 24" fill="currentColor" xmlns="http://www.w3.org/2000/svg"><g><path fill-rule="evenodd" clip-rule="evenodd" d="M8 3C8.41421 3 8.75 3.33579 8.75 3.75V5.06665H12.25C12.6642 5.06665 13 5.40244 13 5.81665C13 6.23086 12.6642 6.56665 12.25 6.56665H11.4248C11.0845 8.68318 10.3904 10.4216 9.24913 11.7779C9.16995 11.872 9.08886 11.964 9.00585 12.0539C9.85346 12.7037 10.9016 13.1911 12.1879 13.5239C12.5889 13.6277 12.8298 14.0368 12.7261 14.4379C12.6223 14.8389 12.2132 15.0798 11.8121 14.9761C10.2577 14.5739 8.94367 13.9504 7.87142 13.0683C6.84632 13.8244 5.61619 14.3675 4.18262 14.7274C3.78088 14.8283 3.37343 14.5844 3.27257 14.1826C3.17171 13.7809 3.41563 13.3734 3.81738 13.2726C5.00169 12.9752 5.98351 12.5511 6.79235 11.9953C6.77568 11.9753 6.75909 11.9552 6.74259 11.9349C5.60291 10.5381 4.91109 8.74802 4.5729 6.56665H3.75C3.33579 6.56665 3 6.23086 3 5.81665C3 5.40244 3.33579 5.06665 3.75 5.06665H7.25V3.75C7.25 3.33579 7.58579 3 8 3ZM6.09251 6.56665C6.41346 8.45521 7.01656 9.89801 7.90481 10.9867C7.9118 10.9952 7.9188 11.0038 7.92582 11.0123C7.98573 10.9468 8.04424 10.88 8.10138 10.8121C8.98238 9.76511 9.58205 8.37972 9.90358 6.56665H6.09251ZM15.3629 10.2111C15.9329 8.70241 18.0671 8.7024 18.6371 10.2111L21.9516 18.9849C22.098 19.3724 21.9025 19.8052 21.5151 19.9515C21.1276 20.0979 20.6948 19.9025 20.5484 19.515L19.9119 17.8302C19.8321 17.8592 19.746 17.8749 19.6562 17.8749H14.3438C14.254 17.8749 14.1679 17.8592 14.0881 17.8302L13.4516 19.515C13.3052 19.9025 12.8724 20.0979 12.4849 19.9515C12.0975 19.8052 11.902 19.3724 12.0484 18.9849L15.3629 10.2111ZM14.6378 16.3749H19.3622L17.2339 10.7412C17.1524 10.5257 16.8476 10.5257 16.7661 10.7412L14.6378 16.3749Z" fill="currentColor"/></g></svg>