<svg width="24px" height="24px" viewBox="0 0 24 24" fill="currentColor" xmlns="http://www.w3.org/2000/svg"><g><path fill-rule="evenodd" clip-rule="evenodd" d="M7.86853 5H3.25C2.83579 5 2.5 5.33579 2.5 5.75C2.5 6.16421 2.83579 6.5 3.25 6.5H3.99997C3.99999 6.5174 4.00061 6.53492 4.00184 6.55253L4.84166 18.5127C4.97959 20.477 6.61331 22 8.58245 22H15.4176C17.3867 22 19.0204 20.477 19.1583 18.5127L19.9982 6.55253C19.9994 6.53492 20 6.5174 20 6.5H20.75C21.1642 6.5 21.5 6.16421 21.5 5.75C21.5 5.33579 21.1642 5 20.75 5H16.1316C15.6816 3.13507 14.0031 1.75 12.0001 1.75C9.99707 1.75 8.3185 3.13507 7.86853 5ZM9.43734 5H14.5628C14.1628 3.97583 13.1658 3.25 12.0001 3.25C10.8343 3.25 9.8373 3.97583 9.43734 5ZM10 9.75C10.4142 9.75 10.75 10.0858 10.75 10.5V16.25C10.75 16.6642 10.4142 17 10 17C9.58579 17 9.25 16.6642 9.25 16.25V10.5C9.25 10.0858 9.58579 9.75 10 9.75ZM14 9.75C14.4142 9.75 14.75 10.0858 14.75 10.5V16.25C14.75 16.6642 14.4142 17 14 17C13.5858 17 13.25 16.6642 13.25 16.25V10.5C13.25 10.0858 13.5858 9.75 14 9.75Z" fill="currentColor"/></g></svg>