<svg width="24px" height="24px" viewBox="0 0 24 24" fill="currentColor" xmlns="http://www.w3.org/2000/svg"><g><path d="M2.75 4C3.16421 4 3.5 4.33579 3.5 4.75V16.25C3.5 17.4926 4.50736 18.5 5.75 18.5H21.25C21.6642 18.5 22 18.8358 22 19.25C22 19.6642 21.6642 20 21.25 20H5.75C3.67893 20 2 18.3211 2 16.25V4.75C2 4.33579 2.33579 4 2.75 4Z" fill="currentColor"/><path d="M18.5 8.56066V11.25C18.5 11.6642 18.8358 12 19.25 12C19.6642 12 20 11.6642 20 11.25V6.75C20 6.33579 19.6642 6 19.25 6H14.75C14.3358 6 14 6.33579 14 6.75C14 7.16421 14.3358 7.5 14.75 7.5H17.4393L13.4697 11.4697C13.2103 11.7291 12.7897 11.7291 12.5303 11.4697C11.6852 10.6245 10.3148 10.6245 9.46967 11.4697L6.21967 14.7197C5.92678 15.0126 5.92678 15.4874 6.21967 15.7803C6.51256 16.0732 6.98744 16.0732 7.28033 15.7803L10.5303 12.5303C10.7897 12.2709 11.2103 12.2709 11.4697 12.5303C12.3148 13.3755 13.6852 13.3755 14.5303 12.5303L18.5 8.56066Z" fill="currentColor"/></g></svg>