<svg width="24px" height="24px" viewBox="0 0 24 24" fill="currentColor" xmlns="http://www.w3.org/2000/svg"><g><path fill-rule="evenodd" clip-rule="evenodd" d="M3.75 3C4.16421 3 4.5 3.33579 4.5 3.75V15.3456L7.60248 12.2431C8.60731 11.2383 10.2364 11.2383 11.2413 12.2431C11.6603 12.6621 12.3397 12.6621 12.7587 12.2431L14.5634 10.4384C15.9954 9.00644 18.3171 9.00644 19.7491 10.4384C20.042 10.7313 20.042 11.2062 19.7491 11.4991C19.4562 11.792 18.9813 11.792 18.6884 11.4991C17.8422 10.6529 16.4703 10.6529 15.6241 11.4991L13.8194 13.3038C12.8146 14.3086 11.1854 14.3086 10.1806 13.3038C9.76157 12.8847 9.08218 12.8847 8.66314 13.3038L4.50944 17.4575C4.61415 18.6029 5.57731 19.5 6.75 19.5H20.25C20.6642 19.5 21 19.8358 21 20.25C21 20.6642 20.6642 21 20.25 21H6.75C4.67893 21 3 19.3211 3 17.25V3.75C3 3.33579 3.33579 3 3.75 3Z" fill="currentColor"/></g></svg>