<svg width="24px" height="24px" viewBox="0 0 24 24" fill="currentColor" xmlns="http://www.w3.org/2000/svg"><g><path d="M11.8849 4.2736C13.5249 2.88646 15.419 2.47449 17.1378 2.85856C19.0275 3.28104 20.6353 4.65006 21.4024 6.56755C22.9712 10.4889 20.9717 16.2268 12.252 21.1261C11.891 21.3285 11.4333 21.1999 11.2306 20.839C11.028 20.4781 11.1569 20.0205 11.5177 19.8175C19.9874 15.0585 21.1552 9.98712 20.0099 7.12419C19.4199 5.64987 18.2002 4.63312 16.8106 4.32243C15.4398 4.01614 13.8334 4.3825 12.42 5.8195C12.279 5.96272 12.0858 6.04411 11.8849 6.04411C11.6839 6.04402 11.4906 5.96278 11.3497 5.8195C10.0666 4.51506 8.62719 4.09608 7.35556 4.25407C6.06965 4.41402 4.89076 5.17126 4.15634 6.34392C2.80218 8.50653 2.86189 12.3805 7.50009 16.5021V13.7502C7.50015 13.336 7.83592 13.0002 8.25009 13.0002C8.66419 13.0002 9.00002 13.3361 9.00009 13.7502V18.2502C9.00009 18.6643 8.66423 19.0001 8.25009 19.0002H3.75009C3.33588 19.0002 3.00009 18.6644 3.00009 18.2502C3.00015 17.836 3.33592 17.5002 3.75009 17.5002H6.3663C1.51659 13.1053 1.02392 8.52003 2.88485 5.54802C3.84774 4.01048 5.41678 2.98287 7.17099 2.76481C8.74522 2.56929 10.4177 3.03267 11.8849 4.2736Z" fill="currentColor"/></g></svg>