<svg width="24px" height="24px" viewBox="0 0 24 24" fill="currentColor" xmlns="http://www.w3.org/2000/svg"><g><path fill-rule="evenodd" clip-rule="evenodd" d="M19.9905 17C19.8629 18.6781 18.4608 20 16.75 20C15.0392 20 13.6371 18.6781 13.5095 17H10.4905C10.3629 18.6781 8.96081 20 7.25 20C5.50738 20 4.0851 18.6285 4.00368 16.906C2.84928 16.5937 2 15.5389 2 14.2857V10.9371C2 10.1744 2.2326 9.42973 2.66678 8.80259L3.48864 7.61546C4.18908 6.60372 5.34132 6 6.57186 6H8.12651C8.485 4.84155 9.56467 4 10.8409 4H19C20.6569 4 22 5.34315 22 7V15C22 16.1046 21.1046 17 20 17C19.9968 17 19.9937 17 19.9905 17ZM8 7.5H6.57186C5.83353 7.5 5.14219 7.86223 4.72193 8.46928L3.90007 9.65641C3.63956 10.0327 3.5 10.4795 3.5 10.9371V14.2857C3.5 14.8045 3.82536 15.2473 4.28316 15.4212C4.79113 14.2888 5.92845 13.5 7.25 13.5C7.50813 13.5 7.75924 13.5301 8 13.587V7.5ZM16.75 15C15.7835 15 15 15.7835 15 16.75C15 17.7165 15.7835 18.5 16.75 18.5C17.7165 18.5 18.5 17.7165 18.5 16.75C18.5 16.5678 18.4722 16.3922 18.4205 16.227C18.2852 16.0531 18.178 15.8563 18.1057 15.6433C17.7848 15.2507 17.2967 15 16.75 15ZM7.25 15C6.2835 15 5.5 15.7835 5.5 16.75C5.5 17.7165 6.2835 18.5 7.25 18.5C8.2165 18.5 9 17.7165 9 16.75C9 15.7835 8.2165 15 7.25 15Z" fill="currentColor"/></g></svg>