<svg width="24px" height="24px" viewBox="0 0 24 24" fill="currentColor" xmlns="http://www.w3.org/2000/svg"><g><path fill-rule="evenodd" clip-rule="evenodd" d="M7.16146 3H16.8386C17.3657 2.99998 17.8205 2.99997 18.195 3.03057C18.5904 3.06287 18.9836 3.13419 19.362 3.32698C19.9265 3.6146 20.3854 4.07355 20.673 4.63803C20.8658 5.01641 20.9371 5.40963 20.9694 5.80498C21 6.17954 21 6.6343 21 7.16144V16.8386C21 17.3657 21 17.8205 20.9694 18.195C20.9371 18.5904 20.8658 18.9836 20.673 19.362C20.3854 19.9265 19.9265 20.3854 19.362 20.673C18.9836 20.8658 18.5904 20.9371 18.195 20.9694C17.8205 21 17.3657 21 16.8386 21H7.16144C6.6343 21 6.17954 21 5.80498 20.9694C5.40963 20.9371 5.01641 20.8658 4.63803 20.673C4.07355 20.3854 3.6146 19.9265 3.32698 19.362C3.13419 18.9836 3.06287 18.5904 3.03057 18.195C2.99997 17.8205 2.99998 17.3657 3 16.8386V7.16142C2.99998 6.6343 2.99997 6.17953 3.03057 5.80498C3.06287 5.40963 3.13419 5.01641 3.32698 4.63803C3.6146 4.07355 4.07355 3.6146 4.63803 3.32698C5.01641 3.13419 5.40963 3.06287 5.80498 3.03057C6.17953 2.99997 6.63434 2.99998 7.16146 3ZM11.5348 12.825H13.5058V11.538H8.05184V12.825H10.0318V18H11.5348V12.825ZM14.4969 15.867L13.5699 16.902C14.1009 17.64 15.2709 18.099 16.3419 18.099C17.7729 18.099 18.9519 17.316 18.9519 15.966C18.9519 14.5505 17.7035 14.2854 16.6889 14.07L16.6749 14.067L16.6433 14.0601C15.8357 13.8846 15.4059 13.7912 15.4059 13.347C15.4059 12.933 15.8019 12.681 16.3689 12.681C17.0529 12.681 17.5839 13.005 17.9799 13.509L18.8889 12.519C18.4119 11.916 17.5299 11.439 16.4139 11.439C15.0369 11.439 13.9389 12.231 13.9389 13.5C13.9389 14.796 14.9829 15.111 15.9369 15.318C16.0185 15.336 16.097 15.3529 16.1726 15.3692C17.0054 15.549 17.4669 15.6487 17.4669 16.119C17.4669 16.605 17.0259 16.857 16.4049 16.857C15.7119 16.857 15.0009 16.515 14.4969 15.867Z" fill="currentColor"/></g></svg>