<svg width="24px" height="24px" viewBox="0 0 24 24" fill="currentColor" xmlns="http://www.w3.org/2000/svg"><g><path d="M12.749 2.75C12.749 2.33579 12.4132 2 11.999 2C11.5848 2 11.249 2.33579 11.249 2.75V4.02152C7.67247 4.22733 4.52112 5.89476 2.56953 8.39234C1.75724 9.43189 1.82454 10.6389 2.43736 11.547C3.02894 12.4236 4.10498 13.003 5.31104 13.003H18.6873C19.8934 13.003 20.9694 12.4236 21.561 11.547C22.1738 10.6389 22.2411 9.43189 21.4288 8.39234C19.4772 5.89469 16.3257 4.22724 12.749 4.0215V2.75Z" fill="currentColor"/><path d="M12.7492 15.25C12.7492 14.8358 12.4134 14.5 11.9992 14.5C11.585 14.5 11.2492 14.8358 11.2492 15.25V19.3267C11.2492 19.9747 10.7239 20.5 10.0759 20.5C9.5166 20.5 9.03507 20.1052 8.92538 19.5568L8.7346 18.6029C8.65337 18.1967 8.25825 17.9333 7.85208 18.0146C7.44591 18.0958 7.1825 18.4909 7.26373 18.8971L7.45451 19.851C7.70442 21.1005 8.80158 22 10.0759 22C11.5523 22 12.7492 20.8031 12.7492 19.3267V15.25Z" fill="currentColor"/></g></svg>