<svg width="24px" height="24px" viewBox="0 0 24 24" fill="currentColor" xmlns="http://www.w3.org/2000/svg"><g><path fill-rule="evenodd" clip-rule="evenodd" d="M9.85655 2.30892C10.1002 2.64391 10.0261 3.11298 9.69113 3.3566L6.05639 6.00005H17.9436L14.3089 3.3566C13.9739 3.11298 13.8998 2.64391 14.1434 2.30892C14.3871 1.97393 14.8561 1.89987 15.1911 2.1435L20.6911 6.1435C20.8852 6.28463 21 6.5101 21 6.75005V17.2501C21 19.3211 19.3211 21.0001 17.25 21.0001H6.75C4.67893 21.0001 3 19.3211 3 17.2501V6.75005C3 6.5101 3.11481 6.28463 3.30887 6.1435L8.80887 2.1435C9.14386 1.89987 9.61292 1.97393 9.85655 2.30892ZM9 11.2501C9 10.8358 9.33579 10.5001 9.75 10.5001H14.25C14.6642 10.5001 15 10.8358 15 11.2501C15 11.6643 14.6642 12.0001 14.25 12.0001H9.75C9.33579 12.0001 9 11.6643 9 11.2501Z" fill="currentColor"/></g></svg>