<svg width="24px" height="24px" viewBox="0 0 24 24" fill="currentColor" xmlns="http://www.w3.org/2000/svg"><g><path d="M17.3343 18.3947L20.7197 21.7801C21.0126 22.073 21.4874 22.073 21.7803 21.7801C22.0732 21.4872 22.0732 21.0123 21.7803 20.7194L3.28033 2.21943C2.98744 1.92653 2.51256 1.92653 2.21967 2.21943C1.92678 2.51232 1.92678 2.98719 2.21967 3.28009L5.60501 6.66543C2.93172 7.33086 1.75444 10.8148 3.89529 12.9556L6.93937 15.9997L3.2197 19.7194C2.92681 20.0123 2.92681 20.4871 3.2197 20.78C3.5126 21.0729 3.98747 21.0729 4.28036 20.78L8.00003 17.0604L11.0441 20.1044C13.1849 22.2453 16.6689 21.068 17.3343 18.3947Z" fill="currentColor"/><path d="M18.8762 12.4982C18.0616 12.7698 17.485 13.4749 17.3622 14.3012L9.6985 6.63759C10.5248 6.51478 11.23 5.93814 11.5015 5.1235L11.7535 4.36755C12.6351 1.72292 15.9915 0.930563 17.9627 2.90175L21.098 6.03702C23.0692 8.00821 22.2768 11.3647 19.6322 12.2462L18.8762 12.4982Z" fill="currentColor"/></g></svg>