<svg width="24px" height="24px" viewBox="0 0 24 24" fill="currentColor" xmlns="http://www.w3.org/2000/svg"><g><path d="M10.75 5.75C10.75 5.33579 10.4142 5 10 5C9.58579 5 9.25 5.33579 9.25 5.75V7.25C9.25 7.66421 9.58579 8 10 8C10.4142 8 10.75 7.66421 10.75 7.25V5.75Z" fill="currentColor"/><path d="M14 5C14.4142 5 14.75 5.33579 14.75 5.75V7.25C14.75 7.66421 14.4142 8 14 8C13.5858 8 13.25 7.66421 13.25 7.25V5.75C13.25 5.33579 13.5858 5 14 5Z" fill="currentColor"/><path fill-rule="evenodd" clip-rule="evenodd" d="M5.75 2C5.33579 2 5 2.33579 5 2.75V9.5H3.75C3.33579 9.5 3 9.83579 3 10.25V18.25C3 20.3211 4.67893 22 6.75 22H17.25C19.3211 22 21 20.3211 21 18.25V10.25C21 9.83579 20.6642 9.5 20.25 9.5H19V2.75C19 2.33579 18.6642 2 18.25 2H5.75ZM17.5 9.5V3.5H6.5V9.5H17.5Z" fill="currentColor"/></g></svg>