<svg width="24px" height="24px" viewBox="0 0 24 24" fill="currentColor" xmlns="http://www.w3.org/2000/svg"><g><path d="M18 14C18.9164 13.6165 19.892 13.4387 20.6875 13.8936C21.633 14.4343 22.2529 15.4687 22.2529 16.6904C22.2527 18.3433 21.111 19.5059 20.2285 20.1699C19.5451 20.6841 18.7938 21.0659 18.001 21.3779C17.2087 21.0652 16.4576 20.684 15.7744 20.1699C14.8919 19.5059 13.7502 18.3434 13.75 16.6904C13.75 15.4666 14.3339 14.4549 15.3154 13.8936C16.1108 13.4388 17.0837 13.6168 18 14Z" fill="currentColor"/><path d="M8.06934 12.1094C9.14306 12.979 10.5107 13.5 12 13.5C12.5747 13.5 13.1307 13.4207 13.6592 13.2754C12.755 14.1458 12.2501 15.3549 12.25 16.6904C12.2506 18.7335 13.4527 20.1658 14.416 21H6.5957C5.16224 20.9998 4.00024 19.8378 4 18.4043C4 15.6021 5.6706 13.1915 8.06934 12.1094Z" fill="currentColor"/><path d="M12 2.5C14.6234 2.5 16.75 4.62665 16.75 7.25C16.75 9.87335 14.6234 12 12 12C9.37665 12 7.25 9.87335 7.25 7.25C7.25 4.62665 9.37665 2.5 12 2.5Z" fill="currentColor"/></g></svg>