<svg width="24px" height="24px" viewBox="0 0 24 24" fill="currentColor" xmlns="http://www.w3.org/2000/svg"><g><path d="M8.39942 12.3564C9.41757 13.0758 10.6596 13.5 12.001 13.5C12.731 13.4999 13.4311 13.3732 14.082 13.1426C13.1048 14.1353 12.501 15.4969 12.501 17C12.501 18.5767 13.1656 19.9972 14.2285 21H7.75099C5.542 21 3.61191 19.1558 4.28419 17.0518C4.93006 15.0314 6.21293 13.461 8.39942 12.3564Z" fill="currentColor"/><path d="M18.001 13C18.415 13.0002 18.751 13.3359 18.751 13.75V16.25H21.251C21.665 16.2502 22.001 16.5859 22.001 17C22.001 17.4141 21.665 17.7498 21.251 17.75H18.751V20.25C18.751 20.6641 18.415 20.9998 18.001 21C17.5868 21 17.251 20.6642 17.251 20.25V17.75H14.751C14.3368 17.75 14.001 17.4142 14.001 17C14.001 16.5858 14.3368 16.25 14.751 16.25H17.251V13.75C17.251 13.3358 17.5868 13 18.001 13Z" fill="currentColor"/><path d="M12.001 2.5C14.6241 2.50024 16.751 4.6268 16.751 7.25C16.751 9.8732 14.6241 11.9998 12.001 12C9.37763 12 7.25099 9.87335 7.25099 7.25C7.25099 4.62665 9.37763 2.5 12.001 2.5Z" fill="currentColor"/></g></svg>