<svg width="24px" height="24px" viewBox="0 0 24 24" fill="currentColor" xmlns="http://www.w3.org/2000/svg"><g><path d="M12.9297 12.1094C15.3289 13.1913 17 15.6018 17 18.4043C16.9998 19.8378 15.8378 20.9998 14.4043 21H3.5957C2.16224 20.9998 1.00024 19.8378 1 18.4043C1 15.6021 2.6706 13.1915 5.06934 12.1094C6.14306 12.979 7.51066 13.5 9 13.5C10.4891 13.5 11.856 12.9787 12.9297 12.1094Z" fill="currentColor"/><path d="M20 7.5C20.4142 7.5 20.75 7.83579 20.75 8.25V10.75H23.25C23.6642 10.75 24 11.0858 24 11.5C24 11.9142 23.6642 12.25 23.25 12.25H20.75V14.75C20.75 15.1642 20.4142 15.5 20 15.5C19.5858 15.5 19.25 15.1642 19.25 14.75V12.25H16.75C16.3358 12.25 16 11.9142 16 11.5C16 11.0858 16.3358 10.75 16.75 10.75H19.25V8.25C19.25 7.83579 19.5858 7.5 20 7.5Z" fill="currentColor"/><path d="M9 2.5C11.6234 2.5 13.75 4.62665 13.75 7.25C13.75 9.87335 11.6234 12 9 12C6.37665 12 4.25 9.87335 4.25 7.25C4.25 4.62665 6.37665 2.5 9 2.5Z" fill="currentColor"/></g></svg>