<svg width="24px" height="24px" viewBox="0 0 24 24" fill="currentColor" xmlns="http://www.w3.org/2000/svg"><g><path fill-rule="evenodd" clip-rule="evenodd" d="M10.1257 2.71627C11.2859 2.0464 12.7154 2.0464 13.8757 2.71627L19.1029 5.73422C20.2632 6.40409 20.9779 7.64207 20.9779 8.98182V15.0177C20.9779 16.3575 20.2632 17.5954 19.1029 18.2653L13.8757 21.2833C12.7154 21.9531 11.2859 21.9531 10.1257 21.2833L4.89844 18.2653C3.73818 17.5954 3.02344 16.3575 3.02344 15.0177V8.98182C3.02344 7.64207 3.73818 6.40409 4.89844 5.73422L10.1257 2.71627ZM9.75073 11.9998C9.75073 10.7571 10.7581 9.74976 12.0007 9.74976C13.2434 9.74976 14.2507 10.7571 14.2507 11.9998C14.2507 13.2424 13.2434 14.2498 12.0007 14.2498C10.7581 14.2498 9.75073 13.2424 9.75073 11.9998Z" fill="currentColor"/></g></svg>