<svg width="24px" height="24px" viewBox="0 0 24 24" fill="currentColor" xmlns="http://www.w3.org/2000/svg"><g><path fill-rule="evenodd" clip-rule="evenodd" d="M6.75 3C4.67893 3 3 4.67893 3 6.75V15.25C3 17.0642 4.28832 18.5775 6 18.925V20.25C6 20.6642 6.33579 21 6.75 21C7.16421 21 7.5 20.6642 7.5 20.25V19H16.5V20.25C16.5 20.6642 16.8358 21 17.25 21C17.6642 21 18 20.6642 18 20.25V18.925C19.7117 18.5775 21 17.0642 21 15.25V6.75C21 4.67893 19.3211 3 17.25 3H6.75ZM16.5 11C16.5 13.4853 14.4853 15.5 12 15.5C9.76161 15.5 7.90494 13.8657 7.55814 11.7252C7.61938 11.7414 7.68368 11.75 7.75 11.75H11.25C11.6642 11.75 12 11.4142 12 11C12 10.5858 11.6642 10.25 11.25 10.25H7.75C7.68368 10.25 7.61938 10.2586 7.55814 10.2748C7.90494 8.13431 9.76161 6.5 12 6.5C14.4853 6.5 16.5 8.51472 16.5 11Z" fill="currentColor"/></g></svg>