<svg width="24px" height="24px" viewBox="0 0 24 24" fill="currentColor" xmlns="http://www.w3.org/2000/svg"><g><path d="M4.5 3.75C4.5 3.33579 4.16421 3 3.75 3C3.33579 3 3 3.33579 3 3.75V20.25C3 20.6642 3.33579 21 3.75 21C4.16421 21 4.5 20.6642 4.5 20.25V3.75Z" fill="currentColor"/><path d="M8.5 6C7.11929 6 6 7.11929 6 8.5C6 9.88071 7.11929 11 8.5 11H18.5C19.8807 11 21 9.88071 21 8.5C21 7.11929 19.8807 6 18.5 6H8.5Z" fill="currentColor"/><path d="M8.5 13C7.11929 13 6 14.1193 6 15.5C6 16.8807 7.11929 18 8.5 18H14.5C15.8807 18 17 16.8807 17 15.5C17 14.1193 15.8807 13 14.5 13H8.5Z" fill="currentColor"/></g></svg>