<svg width="24px" height="24px" viewBox="0 0 24 24" fill="currentColor" xmlns="http://www.w3.org/2000/svg"><g><path d="M21 3.75C21 3.33579 20.6642 3 20.25 3C19.8358 3 19.5 3.33579 19.5 3.75V20.25C19.5 20.6642 19.8358 21 20.25 21C20.6642 21 21 20.6642 21 20.25V3.75Z" fill="currentColor"/><path d="M5.5 6C4.11929 6 3 7.11929 3 8.5C3 9.88071 4.11929 11 5.5 11H15.5C16.8807 11 18 9.88071 18 8.5C18 7.11929 16.8807 6 15.5 6H5.5Z" fill="currentColor"/><path d="M9.5 13C8.11929 13 7 14.1193 7 15.5C7 16.8807 8.11929 18 9.5 18H15.5C16.8807 18 18 16.8807 18 15.5C18 14.1193 16.8807 13 15.5 13H9.5Z" fill="currentColor"/></g></svg>