<svg width="24px" height="24px" viewBox="0 0 24 24" fill="currentColor" xmlns="http://www.w3.org/2000/svg"><g><path d="M12.75 3.75C12.75 3.33579 12.4142 3 12 3C11.5858 3 11.25 3.33579 11.25 3.75V6H6.5C5.11929 6 4 7.11929 4 8.5C4 9.88071 5.11929 11 6.5 11H11.25V13H8.5C7.11929 13 6 14.1193 6 15.5C6 16.8807 7.11929 18 8.5 18H11.25V20.25C11.25 20.6642 11.5858 21 12 21C12.4142 21 12.75 20.6642 12.75 20.25V18H15.5C16.8807 18 18 16.8807 18 15.5C18 14.1193 16.8807 13 15.5 13H12.75V11H17.5C18.8807 11 20 9.88071 20 8.5C20 7.11929 18.8807 6 17.5 6H12.75V3.75Z" fill="currentColor"/></g></svg>