<svg width="24px" height="24px" viewBox="0 0 24 24" fill="currentColor" xmlns="http://www.w3.org/2000/svg"><g><path d="M8.00028 13C8.8021 13 9.57193 13.1365 10.2893 13.3848L9.11356 17.5H7.00028C5.61959 17.5 4.50028 18.6193 4.50028 20C4.50028 20.3559 4.57621 20.6935 4.71024 21H2.00028C1.44802 21 0.994391 20.5507 1.04715 20.001C1.40651 16.2577 3.79618 13 8.00028 13Z" fill="currentColor"/><path d="M20.9261 12.2998C22.0879 12.3 22.9269 13.4118 22.6087 14.5293L21.1282 19.7295C20.9139 20.4811 20.2272 20.9999 19.4456 21H6.75028C6.33626 20.9998 6.00038 20.664 6.00028 20.25C6.00028 19.8359 6.33619 19.5001 6.75028 19.5H10.1341L11.7708 13.752L11.8225 13.5938C12.1137 12.8208 12.8563 12.3001 13.6936 12.2998H20.9261Z" fill="currentColor"/><path d="M8.50028 3.5C10.7094 3.5 12.5003 5.29086 12.5003 7.5C12.5003 9.70914 10.7094 11.5 8.50028 11.5C6.29126 11.4999 4.50028 9.70905 4.50028 7.5C4.50028 5.29095 6.29126 3.50015 8.50028 3.5Z" fill="currentColor"/><path d="M18.5013 2C18.7491 2.00035 18.9576 2.18641 18.9856 2.43262C19.1574 3.94882 20.0168 4.87694 21.5559 5.01367C21.8078 5.03605 22.0006 5.24809 22.0003 5.50098C21.9998 5.75364 21.8067 5.96448 21.555 5.98633C20.0375 6.11768 19.118 7.03726 18.9866 8.55469C18.9646 8.80638 18.7539 8.99964 18.5013 9C18.2485 9.00028 18.0375 8.8074 18.0149 8.55566C17.8782 7.0166 16.9499 6.15621 15.4339 5.98438C15.1876 5.95648 15.0008 5.74874 15.0003 5.50098C15 5.253 15.1866 5.04404 15.4329 5.01563C16.9707 4.83813 17.8385 3.96953 18.0159 2.43164C18.0444 2.18543 18.2534 1.99975 18.5013 2Z" fill="currentColor"/></g></svg>