<svg width="24px" height="24px" viewBox="0 0 24 24" fill="currentColor" xmlns="http://www.w3.org/2000/svg"><g><path fill-rule="evenodd" clip-rule="evenodd" d="M22 12C22 15.5886 20.1097 18.7358 17.2704 20.5H21.25C21.6642 20.5 22 20.8358 22 21.25C22 21.6642 21.6642 22 21.25 22H12C6.47715 22 2 17.5228 2 12C2 6.47715 6.47715 2 12 2C17.5228 2 22 6.47715 22 12ZM7.5 10C6.39543 10 5.5 10.8954 5.5 12C5.5 13.1046 6.39543 14 7.5 14C8.60457 14 9.5 13.1046 9.5 12C9.5 10.8954 8.60457 10 7.5 10ZM10 7.5C10 6.39543 10.8954 5.5 12 5.5C13.1046 5.5 14 6.39543 14 7.5C14 8.60457 13.1046 9.5 12 9.5C10.8954 9.5 10 8.60457 10 7.5ZM12 14.5C10.8954 14.5 10 15.3954 10 16.5C10 17.6046 10.8954 18.5 12 18.5C13.1046 18.5 14 17.6046 14 16.5C14 15.3954 13.1046 14.5 12 14.5ZM14.5 12C14.5 10.8954 15.3954 10 16.5 10C17.6046 10 18.5 10.8954 18.5 12C18.5 13.1046 17.6046 14 16.5 14C15.3954 14 14.5 13.1046 14.5 12Z" fill="currentColor"/></g></svg>