<svg width="24px" height="24px" viewBox="0 0 24 24" fill="currentColor" xmlns="http://www.w3.org/2000/svg"><g><path d="M2.59032 2.53737C2.3348 2.21136 1.86338 2.15422 1.53737 2.40974C1.21136 2.66526 1.15422 3.13668 1.40974 3.46269L2.87911 5.3374C2.33053 5.98951 2.00006 6.83118 2.00006 7.75003V16.25C2.00006 18.3211 3.67899 20 5.75006 20H12.2501C12.8913 20 13.495 19.8391 14.0229 19.5553L15.9097 21.9627C16.1653 22.2887 16.6367 22.3458 16.9627 22.0903C17.2887 21.8348 17.3458 21.3634 17.0903 21.0374L2.59032 2.53737Z" fill="currentColor"/><path fill-rule="evenodd" clip-rule="evenodd" d="M16.0001 16.25C16.0001 16.54 15.9672 16.8222 15.9049 17.0933L5.64375 4.00151C5.67907 4.00053 5.71451 4.00003 5.75006 4.00003H12.2501C14.3211 4.00003 16.0001 5.67896 16.0001 7.75003V8.78651L19.4674 7.05282C20.631 6.47104 22.0001 7.31715 22.0001 8.61807V15.382C22.0001 16.6829 20.631 17.529 19.4674 16.9473L16.0001 15.2136V16.25ZM16.0001 13.5365L20.1383 15.6056C20.3045 15.6887 20.5001 15.5678 20.5001 15.382V8.61807C20.5001 8.43223 20.3045 8.31135 20.1383 8.39447L16.0001 10.4636V13.5365Z" fill="currentColor"/></g></svg>