<svg width="24px" height="24px" viewBox="0 0 24 24" fill="currentColor" xmlns="http://www.w3.org/2000/svg"><g><path fill-rule="evenodd" clip-rule="evenodd" d="M3 6.75C3 4.67893 4.67893 3 6.75 3H17.25C19.3211 3 21 4.67893 21 6.75V17.25C21 19.3211 19.3211 21 17.25 21H6.75C4.67893 21 3 19.3211 3 17.25V6.75ZM6.75 4.5C5.50736 4.5 4.5 5.50736 4.5 6.75V7.125H7V4.5H6.75ZM17 4.5V7.125H19.5V6.75C19.5 5.50736 18.4926 4.5 17.25 4.5H17ZM19.5 8.625H17V11.25H19.5V8.625ZM19.5 12.75H17V15.8333H19.5V12.75ZM19.4985 17.3333H17V19.5H17.25C18.4647 19.5 19.4546 18.5374 19.4985 17.3333ZM15.5 12.75V11.25H8.5V12.75H15.5ZM7 19.5V16.875H4.5V17.25C4.5 18.4926 5.50736 19.5 6.75 19.5H7ZM4.5 15.375H7V12.75H4.5V15.375ZM4.5 11.25H7V8.625H4.5V11.25Z" fill="currentColor"/></g></svg>