<svg width="24px" height="24px" viewBox="0 0 24 24" fill="currentColor" xmlns="http://www.w3.org/2000/svg"><g><path fill-rule="evenodd" clip-rule="evenodd" d="M12 22C17.5228 22 22 17.5228 22 12C22 6.47715 17.5228 2 12 2C6.47715 2 2 6.47715 2 12C2 17.5228 6.47715 22 12 22ZM12 8.5C12.5523 8.5 13 8.05229 13 7.5C13 6.94772 12.5523 6.5 12 6.5C11.4477 6.5 11 6.94772 11 7.5C11 8.05229 11.4477 8.5 12 8.5ZM16.5 13C17.0523 13 17.5 12.5523 17.5 12C17.5 11.4477 17.0523 11 16.5 11C15.9477 11 15.5 11.4477 15.5 12C15.5 12.5523 15.9477 13 16.5 13ZM8.5 12C8.5 12.5523 8.05229 13 7.5 13C6.94772 13 6.5 12.5523 6.5 12C6.5 11.4477 6.94772 11 7.5 11C8.05229 11 8.5 11.4477 8.5 12ZM12 17.5C12.5523 17.5 13 17.0523 13 16.5C13 15.9477 12.5523 15.5 12 15.5C11.4477 15.5 11 15.9477 11 16.5C11 17.0523 11.4477 17.5 12 17.5ZM9.52513 8.11091C9.91565 8.50144 9.91565 9.1346 9.52513 9.52513C9.1346 9.91565 8.50144 9.91565 8.11091 9.52513C7.72039 9.1346 7.72039 8.50144 8.11091 8.11091C8.50144 7.72039 9.1346 7.72039 9.52513 8.11091ZM15.8891 9.52513C16.2796 9.1346 16.2796 8.50144 15.8891 8.11091C15.4986 7.72039 14.8654 7.72039 14.4749 8.11091C14.0843 8.50144 14.0843 9.1346 14.4749 9.52513C14.8654 9.91565 15.4986 9.91565 15.8891 9.52513ZM9.52513 14.4749C9.91565 14.8654 9.91565 15.4986 9.52513 15.8891C9.1346 16.2796 8.50144 16.2796 8.11091 15.8891C7.72039 15.4986 7.72039 14.8654 8.11091 14.4749C8.50144 14.0843 9.1346 14.0843 9.52513 14.4749ZM15.8891 15.8891C16.2796 15.4986 16.2796 14.8654 15.8891 14.4749C15.4986 14.0843 14.8654 14.0843 14.4749 14.4749C14.0843 14.8654 14.0843 15.4986 14.4749 15.8891C14.8654 16.2796 15.4986 16.2796 15.8891 15.8891Z" fill="currentColor"/></g></svg>