<svg width="24px" height="24px" viewBox="0 0 24 24" fill="currentColor" xmlns="http://www.w3.org/2000/svg"><g><path fill-rule="evenodd" clip-rule="evenodd" d="M3 7.75C3 5.67894 4.67893 4 6.75 4H19.25C21.3211 4 23 5.67893 23 7.75V14.1786C23 15.9936 21.7105 17.5075 19.9976 17.854C19.9433 19.0484 18.9578 20 17.75 20H8.25C7.04223 20 6.05672 19.0484 6.00237 17.854C4.28951 17.5075 3 15.9936 3 14.1786V7.75ZM18.5 17.75C18.5 17.3358 18.1642 17 17.75 17H8.25C7.83579 17 7.5 17.3358 7.5 17.75C7.5 18.1642 7.83579 18.5 8.25 18.5H17.75C18.1642 18.5 18.5 18.1642 18.5 17.75ZM0.75 8C1.16421 8 1.5 8.33579 1.5 8.75V13.25C1.5 13.6642 1.16421 14 0.75 14C0.335786 14 0 13.6642 0 13.25V8.75C0 8.33579 0.335786 8 0.75 8Z" fill="currentColor"/></g></svg>