<svg width="24px" height="24px" viewBox="0 0 24 24" fill="currentColor" xmlns="http://www.w3.org/2000/svg"><g><path fill-rule="evenodd" clip-rule="evenodd" d="M18.0103 5.98961C15.2545 3.23382 11.0755 2.76506 7.83627 4.5869C7.47524 4.78996 7.01796 4.66189 6.81491 4.30086C6.61186 3.93983 6.73992 3.48255 7.10095 3.2795C10.9111 1.13656 15.8272 1.68519 19.071 4.92895C22.3147 8.17272 22.8634 13.0888 20.7204 16.899C20.5174 17.26 20.0601 17.3881 19.6991 17.185C19.338 16.982 19.21 16.5247 19.413 16.1636C21.2349 12.9244 20.7661 8.7454 18.0103 5.98961ZM4.30074 6.81503C4.66177 7.01809 4.78983 7.47537 4.58678 7.8364C2.76494 11.0757 3.2337 15.2546 5.98949 18.0104C8.74528 20.7662 12.9243 21.235 16.1635 19.4131C16.5246 19.2101 16.9818 19.3382 17.1849 19.6992C17.3879 20.0602 17.2599 20.5175 16.8988 20.7205C13.0887 22.8635 8.1726 22.3149 4.92883 19.0711C1.68507 15.8273 1.13644 10.9112 3.27938 7.10108C3.48243 6.74005 3.93971 6.61198 4.30074 6.81503ZM12 7.50002C13.695 7.50002 15.2964 8.39261 16.6849 9.9787C17.6964 11.1341 17.6964 12.8659 16.6849 14.0213C15.2964 15.6074 13.695 16.5 12 16.5C10.305 16.5 8.70361 15.6074 7.31513 14.0213C6.30368 12.8659 6.30368 11.1341 7.31513 9.9787C8.70361 8.39261 10.305 7.50002 12 7.50002ZM10.7499 12C10.7499 11.3097 11.3095 10.75 11.9999 10.75C12.6903 10.75 13.2499 11.3097 13.2499 12C13.2499 12.6904 12.6903 13.25 11.9999 13.25C11.3095 13.25 10.7499 12.6904 10.7499 12Z" fill="currentColor"/></g></svg>