<svg width="24px" height="24px" viewBox="0 0 24 24" fill="currentColor" xmlns="http://www.w3.org/2000/svg"><g><path d="M7.75 5C8.16421 5 8.5 5.33579 8.5 5.75V18.25C8.5 18.6642 8.16421 19 7.75 19C7.33579 19 7 18.6642 7 18.25V5.75C7 5.33579 7.33579 5 7.75 5Z" fill="currentColor"/><path d="M16.25 7C16.6642 7 17 7.33579 17 7.75V16.25C17 16.6642 16.6642 17 16.25 17C15.8358 17 15.5 16.6642 15.5 16.25V7.75C15.5 7.33579 15.8358 7 16.25 7Z" fill="currentColor"/><path d="M12 9C12.4142 9 12.75 9.33579 12.75 9.75V14.25C12.75 14.6642 12.4142 15 12 15C11.5858 15 11.25 14.6642 11.25 14.25V9.75C11.25 9.33579 11.5858 9 12 9Z" fill="currentColor"/><path d="M3.75 10C4.16421 10 4.5 10.3358 4.5 10.75V13.25C4.5 13.6642 4.16421 14 3.75 14C3.33579 14 3 13.6642 3 13.25V10.75C3 10.3358 3.33579 10 3.75 10Z" fill="currentColor"/><path d="M20.25 10C20.6642 10 21 10.3358 21 10.75V13.25C21 13.6642 20.6642 14 20.25 14C19.8358 14 19.5 13.6642 19.5 13.25V10.75C19.5 10.3358 19.8358 10 20.25 10Z" fill="currentColor"/></g></svg>