<svg width="24px" height="24px" viewBox="0 0 24 24" fill="currentColor" xmlns="http://www.w3.org/2000/svg"><g><path d="M7.75 6C8.16421 6 8.5 6.33579 8.5 6.75V17.25C8.5 17.6642 8.16421 18 7.75 18C7.33579 18 7 17.6642 7 17.25V6.75C7 6.33579 7.33579 6 7.75 6Z" fill="currentColor"/><path d="M16.25 8C16.6642 8 17 8.33579 17 8.75V15.25C17 15.6642 16.6642 16 16.25 16C15.8358 16 15.5 15.6642 15.5 15.25V8.75C15.5 8.33579 15.8358 8 16.25 8Z" fill="currentColor"/><path d="M12 10C12.4142 10 12.75 10.3358 12.75 10.75V13.25C12.75 13.6642 12.4142 14 12 14C11.5858 14 11.25 13.6642 11.25 13.25V10.75C11.25 10.3358 11.5858 10 12 10Z" fill="currentColor"/><path d="M3.75 10.5C4.16421 10.5 4.5 10.8358 4.5 11.25V12.75C4.5 13.1642 4.16421 13.5 3.75 13.5C3.33579 13.5 3 13.1642 3 12.75V11.25C3 10.8358 3.33579 10.5 3.75 10.5Z" fill="currentColor"/><path d="M20.25 10.5C20.6642 10.5 21 10.8358 21 11.25V12.75C21 13.1642 20.6642 13.5 20.25 13.5C19.8358 13.5 19.5 13.1642 19.5 12.75V11.25C19.5 10.8358 19.8358 10.5 20.25 10.5Z" fill="currentColor"/></g></svg>