<svg width="24px" height="24px" viewBox="0 0 24 24" fill="currentColor" xmlns="http://www.w3.org/2000/svg"><g><path d="M6.40332 10.2496C7.69899 10.2496 8.74981 11.3007 8.75 12.5963V19.4029C8.75 20.6987 7.69911 21.7496 6.40332 21.7496C5.57942 21.7495 4.81557 21.3174 4.3916 20.6109L3.72852 19.5055C3.63329 19.3471 3.46216 19.2497 3.27734 19.2496C2.15787 19.2496 1.25 18.3417 1.25 17.2223V14.777C1.25019 13.6577 2.15799 12.7496 3.27734 12.7496C3.46226 12.7495 3.63332 12.6523 3.72852 12.4938L4.3916 11.3883C4.8156 10.682 5.57952 10.2498 6.40332 10.2496Z" fill="currentColor"/><path d="M10.0156 12.9869C10.2989 12.685 10.7731 12.6697 11.0752 12.9527C11.9225 13.7471 12.3124 14.8991 12.3125 15.9996C12.3125 17.1002 11.9224 18.2521 11.0752 19.0465C10.773 19.3298 10.2989 19.3145 10.0156 19.0123C9.73251 18.7101 9.74768 18.236 10.0498 17.9527C10.5357 17.4971 10.8125 16.7739 10.8125 15.9996C10.8124 15.2254 10.5357 14.502 10.0498 14.0465C9.74779 13.7632 9.73238 13.2891 10.0156 12.9869Z" fill="currentColor"/><path d="M14.2334 2.25255C17.5144 2.34499 20.6756 4.37429 22.6641 8.15001C22.7792 8.3686 22.779 8.63058 22.6641 8.84923C20.7403 12.5021 17.719 14.5203 14.5498 14.7311C14.1367 14.7583 13.7794 14.446 13.752 14.0328C13.7247 13.6197 14.038 13.2624 14.4512 13.235C16.9181 13.0707 19.4224 11.5435 21.1455 8.49962C19.3627 5.35021 16.7439 3.8245 14.1914 3.75255C11.5473 3.67821 8.79566 5.15871 6.92578 8.37657C6.71769 8.73454 6.25846 8.85596 5.90039 8.64806C5.54235 8.43992 5.42084 7.98077 5.62891 7.62267C7.72707 4.01202 10.9512 2.16034 14.2334 2.25255Z" fill="currentColor"/><path fill-rule="evenodd" clip-rule="evenodd" d="M14 5.49962C15.6567 5.49962 16.9998 6.84293 17 8.49962C17 10.1565 15.6569 11.4996 14 11.4996C12.3431 11.4996 11 10.1565 11 8.49962C11.0002 6.84293 12.3433 5.49962 14 5.49962ZM14 6.99962C13.1717 6.99962 12.5002 7.67136 12.5 8.49962C12.5 9.32805 13.1716 9.99962 14 9.99962C14.8284 9.99962 15.5 9.32805 15.5 8.49962C15.4998 7.67136 14.8283 6.99962 14 6.99962Z" fill="currentColor"/></g></svg>