<svg width="24px" height="24px" viewBox="0 0 24 24" fill="currentColor" xmlns="http://www.w3.org/2000/svg"><g><path d="M7.75 3C8.16421 3 8.5 3.33579 8.5 3.75V20.25C8.5 20.6642 8.16421 21 7.75 21C7.33579 21 7 20.6642 7 20.25V3.75C7 3.33579 7.33579 3 7.75 3Z" fill="currentColor"/><path d="M20.25 12C20.6642 12 21 12.3358 21 12.75V16.75C21 17.1642 20.6642 17.5 20.25 17.5C19.8358 17.5 19.5 17.1642 19.5 16.75V14.4443C18.6169 15.2845 18.0441 16.0261 17.6709 16.7725C17.1797 17.7548 17 18.814 17 20.25C17 20.6642 16.6642 21 16.25 21C15.8358 21 15.5 20.6642 15.5 20.25C15.5 18.6862 15.6954 17.3701 16.3291 16.1025C16.7772 15.2063 17.4292 14.371 18.3223 13.5H16.25C15.8358 13.5 15.5 13.1642 15.5 12.75C15.5 12.3358 15.8358 12 16.25 12H20.25Z" fill="currentColor"/><path d="M12 7C12.4142 7 12.75 7.33579 12.75 7.75V16.25C12.75 16.6642 12.4142 17 12 17C11.5858 17 11.25 16.6642 11.25 16.25V7.75C11.25 7.33579 11.5858 7 12 7Z" fill="currentColor"/><path d="M3.75 9C4.16421 9 4.5 9.33579 4.5 9.75V14.25C4.5 14.6642 4.16421 15 3.75 15C3.33579 15 3 14.6642 3 14.25V9.75C3 9.33579 3.33579 9 3.75 9Z" fill="currentColor"/><path d="M16.25 5C16.6642 5 17 5.33579 17 5.75V9.25C17 9.66421 16.6642 10 16.25 10C15.8358 10 15.5 9.66421 15.5 9.25V5.75C15.5 5.33579 15.8358 5 16.25 5Z" fill="currentColor"/></g></svg>