<svg width="24px" height="24px" viewBox="0 0 24 24" fill="currentColor" xmlns="http://www.w3.org/2000/svg"><g><path d="M10.1568 3.46416C11.3026 2.54749 13 3.36329 13 4.83068V19.1694C13 20.6368 11.3026 21.4526 10.1568 20.5359L6.07931 17.274C5.85767 17.0967 5.58228 17.0001 5.29844 17.0001H3.75C2.23122 17.0001 1 15.7688 1 14.2501V9.75005C1 8.23127 2.23122 7.00005 3.75 7.00005H5.29844C5.58228 7.00005 5.85767 6.90345 6.07931 6.72614L10.1568 3.46416Z" fill="currentColor"/><path d="M16.114 9.62433C15.9066 9.26578 15.4478 9.14327 15.0893 9.35068C14.7307 9.5581 14.6082 10.0169 14.8156 10.3754C15.0917 10.8527 15.25 11.4067 15.25 11.9999C15.25 12.5932 15.0917 13.1472 14.8156 13.6244C14.6082 13.983 14.7307 14.4418 15.0893 14.6492C15.4478 14.8566 15.9066 14.7341 16.114 14.3756C16.5187 13.6761 16.75 12.8639 16.75 11.9999C16.75 11.136 16.5187 10.3238 16.114 9.62433Z" fill="currentColor"/></g></svg>