<svg width="24px" height="24px" viewBox="0 0 24 24" fill="currentColor" xmlns="http://www.w3.org/2000/svg"><g><path d="M13 4.83068C13 3.36329 11.3026 2.54749 10.1568 3.46416L6.07931 6.72614C5.85767 6.90345 5.58228 7.00005 5.29844 7.00005H3.75C2.23122 7.00005 1 8.23127 1 9.75005V14.2501C1 15.7688 2.23122 17.0001 3.75 17.0001H5.29844C5.58228 17.0001 5.85767 17.0967 6.07931 17.274L10.1568 20.5359C11.3026 21.4526 13 20.6368 13 19.1694V4.83068Z" fill="currentColor"/><path d="M18.7175 4.22162C19.0104 3.92873 19.4852 3.92873 19.7781 4.22162C21.7679 6.21141 23 8.96244 23 11.9998C23 15.0372 21.7679 17.7882 19.7781 19.778C19.4852 20.0709 19.0104 20.0709 18.7175 19.778C18.4246 19.4851 18.4246 19.0102 18.7175 18.7173C20.4375 16.9973 21.5 14.6234 21.5 11.9998C21.5 9.37624 20.4375 7.00227 18.7175 5.28228C18.4246 4.98939 18.4246 4.51452 18.7175 4.22162Z" fill="currentColor"/><path d="M16.4195 7.581C16.1266 7.28811 15.6517 7.28811 15.3588 7.581C15.0659 7.87389 15.0659 8.34876 15.3588 8.64166C16.2192 9.50206 16.7501 10.6885 16.7501 12.0004C16.7501 13.3123 16.2192 14.4988 15.3588 15.3592C15.0659 15.6521 15.0659 16.1269 15.3588 16.4198C15.6517 16.7127 16.1266 16.7127 16.4195 16.4198C17.5497 15.2896 18.2501 13.7261 18.2501 12.0004C18.2501 10.2747 17.5497 8.7112 16.4195 7.581Z" fill="currentColor"/></g></svg>