<svg width="24px" height="24px" viewBox="0 0 24 24" fill="currentColor" xmlns="http://www.w3.org/2000/svg"><g><path d="M10.1568 3.46416C11.3026 2.54749 13 3.36329 13 4.83068V19.1694C13 20.6368 11.3026 21.4526 10.1568 20.5359L6.07931 17.274C5.85767 17.0967 5.58228 17.0001 5.29844 17.0001H3.75C2.23122 17.0001 1 15.7688 1 14.2501V9.75005C1 8.23127 2.23122 7.00005 3.75 7.00005H5.29844C5.58228 7.00005 5.85767 6.90345 6.07931 6.72614L10.1568 3.46416Z" fill="currentColor"/><path d="M19.75 8.75C19.75 8.33579 19.4142 8 19 8C18.5858 8 18.25 8.33579 18.25 8.75V11.25H15.75C15.3358 11.25 15 11.5858 15 12C15 12.4142 15.3358 12.75 15.75 12.75H18.25V15.25C18.25 15.6642 18.5858 16 19 16C19.4142 16 19.75 15.6642 19.75 15.25V12.75H22.25C22.6642 12.75 23 12.4142 23 12C23 11.5858 22.6642 11.25 22.25 11.25H19.75V8.75Z" fill="currentColor"/></g></svg>