<svg width="24px" height="24px" viewBox="0 0 24 24" fill="currentColor" xmlns="http://www.w3.org/2000/svg"><g><path fill-rule="evenodd" clip-rule="evenodd" d="M2 7.75C2 5.67893 3.67893 4 5.75 4H18.25C20.3211 4 22 5.67893 22 7.75V16.25C22 18.3211 20.3211 20 18.25 20H5.75C3.67893 20 2 18.3211 2 16.25V7.75ZM3.62803 7H20.372C20.0631 6.12611 19.2297 5.5 18.25 5.5H5.75C4.77034 5.5 3.93691 6.12611 3.62803 7ZM20.5 8.5H3.5V10H8.75C9.16421 10 9.5 10.3358 9.5 10.75C9.5 11.7165 10.2835 12.5 11.25 12.5H12.75C13.7165 12.5 14.5 11.7165 14.5 10.75C14.5 10.3358 14.8358 10 15.25 10H20.5V8.5Z" fill="currentColor"/></g></svg>