<svg width="24px" height="24px" viewBox="0 0 24 24" fill="currentColor" xmlns="http://www.w3.org/2000/svg"><g><path d="M5.75 4C3.67893 4 2 5.67893 2 7.75V13.1527C2.30318 12.9899 2.65945 12.7918 3.06142 12.5682C3.24177 12.4679 3.43131 12.3625 3.62939 12.2528C4.43759 11.8055 5.3683 11.2991 6.33084 10.8232C7.29179 10.3481 8.2972 9.89699 9.25576 9.56342C10.2041 9.23341 11.1575 9 12 9C12.8425 9 13.7959 9.23341 14.7442 9.56342C15.7028 9.89699 16.7082 10.3481 17.6692 10.8232C18.6317 11.2991 19.5624 11.8055 20.3706 12.2528C20.5686 12.3624 20.7581 12.4678 20.9384 12.5681C21.3404 12.7917 21.6968 12.9899 22 13.1527V7.75C22 5.67893 20.3211 4 18.25 4H5.75Z" fill="currentColor"/><path d="M22 14.8424L21.6584 14.6677C21.2692 14.4686 20.7611 14.186 20.1891 13.8678C20.013 13.7699 19.8308 13.6685 19.6442 13.5652C18.8413 13.1208 17.935 12.628 17.0044 12.1678C16.0721 11.7069 15.1282 11.2853 14.2513 10.9801C13.5363 10.7313 12.8985 10.5717 12.366 10.5191C12.3263 10.5756 12.2826 10.6388 12.2358 10.7079C12.0221 11.0238 11.7512 11.4549 11.513 11.9257C11.2717 12.4026 11.0814 12.8862 11.0034 13.3127C10.9238 13.7475 10.9787 14.0165 11.0838 14.1755C11.1379 14.2572 11.3 14.3843 11.8322 14.4235C12.2571 14.4548 12.7459 14.421 13.3037 14.3824C13.4226 14.3742 13.5446 14.3657 13.6698 14.3577C14.3288 14.3152 15.0982 14.2812 15.7509 14.4427C16.0896 14.5264 16.4376 14.6716 16.7335 14.9281C17.0381 15.1922 17.2484 15.541 17.3529 15.9623C17.533 16.6879 17.3943 17.3198 17.0269 17.8357C16.688 18.3117 16.1893 18.6393 15.7358 18.8835C15.4213 19.0529 15.0651 19.2132 14.7486 19.3556C14.6164 19.4151 14.4909 19.4715 14.3785 19.5242C13.9775 19.7118 13.7147 19.862 13.5623 20H18.25C20.3211 20 22 18.3211 22 16.25V14.8424Z" fill="currentColor"/><path d="M11.6911 20C11.881 19.6862 12.1504 19.289 12.4697 18.9697C12.8233 18.6161 13.3195 18.3636 13.7426 18.1656C13.8996 18.0921 14.0497 18.0247 14.1949 17.9594C14.4864 17.8285 14.7579 17.7065 15.0246 17.5629C15.4166 17.3517 15.6688 17.157 15.8051 16.9656C15.913 16.8141 15.974 16.6335 15.8971 16.3234C15.8622 16.183 15.8075 16.1105 15.7508 16.0614C15.6854 16.0047 15.576 15.9446 15.3908 15.8988C14.9956 15.801 14.4508 15.8104 13.7663 15.8546C13.6624 15.8613 13.5548 15.8688 13.4448 15.8766C12.8869 15.9158 12.2649 15.9595 11.722 15.9195C11.0887 15.8728 10.2926 15.6981 9.83283 15.0031C9.42408 14.3853 9.41473 13.661 9.52788 13.0427C9.64253 12.4162 9.90196 11.7872 10.1745 11.2484C10.2598 11.08 10.3481 10.917 10.4363 10.7619C10.2164 10.8243 9.98684 10.8972 9.74875 10.9801C8.87175 11.2853 7.92786 11.7069 6.99564 12.1678C6.065 12.628 5.15866 13.1208 4.35582 13.5652C4.16949 13.6683 3.98761 13.7695 3.81176 13.8673L3.81086 13.8678C3.23894 14.186 2.73078 14.4686 2.34156 14.6677L2 14.8424V16.25C2 18.3211 3.67893 20 5.75 20H11.6911Z" fill="currentColor"/></g></svg>