<svg width="24px" height="24px" viewBox="0 0 24 24" fill="currentColor" xmlns="http://www.w3.org/2000/svg"><g><path fill-rule="evenodd" clip-rule="evenodd" d="M5.75 4C3.67893 4 2 5.67893 2 7.75V16.25C2 18.3211 3.67893 20 5.75 20H18.25C20.3211 20 22 18.3211 22 16.25V7.75C22 5.67893 20.3211 4 18.25 4H5.75ZM4.5 7.5C4.5 6.94772 4.94772 6.5 5.5 6.5H18.5C19.0523 6.5 19.5 6.94772 19.5 7.5V10H17.1773C16.4222 10 15.6846 10.228 15.0612 10.6541L14.7807 10.8459C14.1573 11.272 13.4197 11.5 12.6645 11.5H11.3355C10.5803 11.5 9.84274 11.272 9.2193 10.8459L8.93881 10.6541C8.31538 10.228 7.57781 10 6.82265 10H4.5V7.5Z" fill="currentColor"/></g></svg>