<svg width="24px" height="24px" viewBox="0 0 24 24" fill="currentColor" xmlns="http://www.w3.org/2000/svg"><g><path fill-rule="evenodd" clip-rule="evenodd" d="M6.5 3C4.567 3 3 4.567 3 6.5V17.25C3 19.3211 4.67893 21 6.75 21H17.25C19.3211 21 21 19.3211 21 17.25V11.75C21 9.67893 19.3211 8 17.25 8H17V5.83333C17 4.26853 15.7315 3 14.1667 3H6.5ZM15.5 8V5.83333C15.5 5.09695 14.903 4.5 14.1667 4.5H6.5C5.39543 4.5 4.5 5.39543 4.5 6.5C4.5 7.32843 5.17157 8 6 8H15.5ZM15.5 15.5C16.0523 15.5 16.5 15.0523 16.5 14.5C16.5 13.9477 16.0523 13.5 15.5 13.5C14.9477 13.5 14.5 13.9477 14.5 14.5C14.5 15.0523 14.9477 15.5 15.5 15.5Z" fill="currentColor"/></g></svg>