<svg width="24px" height="24px" viewBox="0 0 24 24" fill="currentColor" xmlns="http://www.w3.org/2000/svg"><g><path fill-rule="evenodd" clip-rule="evenodd" d="M1.94922 6C1.94922 4.89543 2.84465 4 3.94922 4H16.7493C18.4438 4 19.8354 5.29681 19.9858 6.95212C21.1553 7.587 21.9492 8.82578 21.9492 10.25V16.25C21.9492 18.3211 20.2703 20 18.1992 20H4.69922C3.18044 20 1.94922 18.7688 1.94922 17.25L1.94922 6ZM3.44922 6C3.44922 6.27614 3.67308 6.5 3.94922 6.5H18.1992C18.2436 6.5 18.2879 6.50077 18.332 6.50231C18.0516 5.90983 17.4483 5.5 16.7493 5.5H3.94922C3.67308 5.5 3.44922 5.72386 3.44922 6ZM14.9993 13.25C14.9993 12.4216 15.6708 11.75 16.4993 11.75C17.3277 11.75 17.9993 12.4216 17.9993 13.25C17.9993 14.0784 17.3277 14.75 16.4993 14.75C15.6708 14.75 14.9993 14.0784 14.9993 13.25Z" fill="currentColor"/></g></svg>