<svg width="24px" height="24px" viewBox="0 0 24 24" fill="currentColor" xmlns="http://www.w3.org/2000/svg"><g><path fill-rule="evenodd" clip-rule="evenodd" d="M9.1098 3C7.37905 3 5.87312 4.18447 5.46536 5.8665L2.02129 20.0733C1.9237 20.4759 2.17092 20.8813 2.57347 20.9789C2.97603 21.0765 3.38147 20.8293 3.47906 20.4267L4.18856 17.5H13.1451L12.5213 20.0733C12.4237 20.4759 12.6709 20.8813 13.0735 20.9789C13.476 21.0765 13.8815 20.8293 13.9791 20.4267L14.6886 17.5H19.8118L20.5213 20.4267C20.6189 20.8293 21.0243 21.0765 21.4269 20.9789C21.8294 20.8813 22.0767 20.4759 21.9791 20.0733L18.535 5.8665C18.1272 4.18447 16.6213 3 14.8906 3H9.1098ZM17.2496 6.93098C17.2435 6.9592 17.2371 6.98744 17.2302 7.0157L15.0522 16H19.4481L17.2496 6.93098Z" fill="currentColor"/></g></svg>