<svg width="24px" height="24px" viewBox="0 0 24 24" fill="currentColor" xmlns="http://www.w3.org/2000/svg"><g><path d="M8.42004 2C7.17093 2 6.00383 2.62195 5.30726 3.65879L5.07803 4H3.75C3.33579 4 3 4.33579 3 4.75C3 5.16421 3.33579 5.5 3.75 5.5H20.25C20.6642 5.5 21 5.16421 21 4.75C21 4.33579 20.6642 4 20.25 4H18.9218L18.6926 3.65879C17.996 2.62195 16.8289 2 15.5798 2H8.42004Z" fill="currentColor"/><path d="M8.59084 22C6.61734 22 4.98156 20.4704 4.84928 18.5014L4.0766 7H19.8861L19.042 15.3766C18.3707 14.9785 17.587 14.75 16.75 14.75C14.2647 14.75 12.25 16.7647 12.25 19.25C12.25 20.2856 12.5998 21.2395 13.1878 22H8.59084Z" fill="currentColor"/><path d="M19.75 19.25C19.75 20.9069 18.4069 22.25 16.75 22.25C15.0931 22.25 13.75 20.9069 13.75 19.25C13.75 17.5931 15.0931 16.25 16.75 16.25C18.4069 16.25 19.75 17.5931 19.75 19.25Z" fill="currentColor"/></g></svg>