<svg width="24px" height="24px" viewBox="0 0 24 24" fill="currentColor" xmlns="http://www.w3.org/2000/svg"><g><path d="M4.69238 11.8477C5.05417 11.6462 5.51033 11.7761 5.71191 12.1377C5.9134 12.4996 5.78378 12.9567 5.42188 13.1582C4.42304 13.7143 3.75 14.779 3.75 16C3.75 17.7949 5.20507 19.25 7 19.25C8.51631 19.25 9.79146 18.2107 10.1494 16.8047C10.3417 16.0495 11.0012 15.25 12 15.25H15.4209C15.702 14.6593 16.3023 14.25 17 14.25C17.9665 14.25 18.75 15.0335 18.75 16C18.75 16.9665 17.9665 17.75 17 17.75C16.3023 17.75 15.702 17.3407 15.4209 16.75H12C11.9403 16.75 11.8695 16.7728 11.792 16.8447C11.7105 16.9204 11.6385 17.0377 11.6035 17.1748C11.0804 19.2295 9.21866 20.75 7 20.75C4.37665 20.75 2.25 18.6234 2.25 16C2.25 14.213 3.23725 12.6578 4.69238 11.8477Z" fill="currentColor"/><path d="M12 5.25C12.9665 5.25 13.75 6.0335 13.75 7C13.75 7.37967 13.6273 7.72981 13.4219 8.0166L15.2266 11.2637C15.2556 11.3159 15.3101 11.3673 15.4111 11.4004C15.5174 11.4351 15.6557 11.4412 15.793 11.4053C16.1791 11.3041 16.584 11.25 17 11.25C19.6234 11.25 21.75 13.3766 21.75 16C21.75 18.6234 19.6234 20.75 17 20.75C16.1639 20.75 15.3763 20.5331 14.6924 20.1523C14.3306 19.9509 14.2002 19.4946 14.4014 19.1328C14.6028 18.7709 15.06 18.6404 15.4219 18.8418C15.8884 19.1016 16.4258 19.25 17 19.25C18.7949 19.25 20.25 17.7949 20.25 16C20.25 14.2051 18.7949 12.75 17 12.75C16.7136 12.75 16.4368 12.7866 16.1738 12.8555C15.4206 13.0528 14.4003 12.8656 13.915 11.9922L12.1113 8.74414C12.0745 8.74646 12.0374 8.75 12 8.75C11.0335 8.75 10.25 7.9665 10.25 7C10.25 6.0335 11.0335 5.25 12 5.25Z" fill="currentColor"/><path d="M12 2.25C14.6234 2.25 16.75 4.37665 16.75 7C16.75 7.41421 16.4142 7.75 16 7.75C15.5858 7.75 15.25 7.41421 15.25 7C15.25 5.20507 13.7949 3.75 12 3.75C10.2051 3.75 8.75 5.20507 8.75 7C8.75 7.93088 9.14045 8.76982 9.76855 9.36328C10.3351 9.89878 10.7116 10.8626 10.2275 11.7344L8.42188 14.9824C8.62757 15.2693 8.75 15.62 8.75 16C8.75 16.9665 7.9665 17.75 7 17.75C6.0335 17.75 5.25 16.9665 5.25 16C5.25 15.0335 6.0335 14.25 7 14.25C7.03742 14.25 7.07449 14.2526 7.11133 14.2549L8.91602 11.0068C8.94509 10.9545 8.95968 10.8812 8.93457 10.7783C8.90812 10.6701 8.84091 10.5501 8.73828 10.4531C7.8228 9.58813 7.25 8.36034 7.25 7C7.25 4.37665 9.37665 2.25 12 2.25Z" fill="currentColor"/></g></svg>