<svg width="24px" height="24px" viewBox="0 0 24 24" fill="currentColor" xmlns="http://www.w3.org/2000/svg"><g><path d="M0.5 14.7759C0.5 11.5804 3.59065 8.97372 7.39623 8.97372C11.2018 8.97372 14.2713 11.5804 14.2713 14.7759C14.2713 17.9715 11.1806 20.5782 7.37507 20.5782C6.63898 20.5782 5.94522 20.4944 5.29378 20.3049C5.10424 20.2626 4.89445 20.2837 4.70491 20.3684L3.00178 21.2931C2.89689 21.3566 2.74967 21.2508 2.792 21.1247L3.12876 19.7583C3.17108 19.5486 3.10759 19.3379 2.91897 19.2118C1.44587 18.1399 0.5 16.5628 0.5 14.7759ZM9.85569 14.0196C10.3811 14.0196 10.8016 13.5991 10.8016 13.0737C10.8016 12.5484 10.3811 12.1279 9.85569 12.1279C9.33031 12.1279 8.90981 12.5484 8.90981 13.0737C8.90981 13.5991 9.33031 14.0196 9.85569 14.0196ZM5.20913 14.0196C5.73451 14.0196 6.155 13.5991 6.155 13.0737C6.155 12.5484 5.73451 12.1279 5.20913 12.1279C4.68374 12.1279 4.26325 12.5484 4.26325 13.0737C4.26325 13.5991 4.70491 14.0196 5.20913 14.0196Z" fill="currentColor"/><path d="M14.8378 14.7971C14.8378 11.2445 11.4739 8.36367 7.31127 8.36367H6.99567C7.66919 5.14696 11.0745 2.6875 15.1745 2.6875C19.7788 2.6875 23.4997 5.75699 23.4997 9.56257C23.4997 11.665 22.3431 13.5568 20.5351 14.8182C20.409 14.902 20.3667 15.0492 20.3879 15.1964L21.0182 17.4249C21.0605 17.5721 20.8921 17.7194 20.7449 17.6347L18.2854 16.1634C18.1171 16.0586 17.9284 16.0374 17.7389 16.1C16.9191 16.3097 16.0569 16.4367 15.1736 16.4367C14.9841 16.4367 14.7955 16.4367 14.5847 16.4156C14.754 15.8902 14.8378 15.3436 14.8378 14.7971ZM12.3783 6.3247C11.7683 6.3247 11.2641 6.82892 11.2641 7.43895C11.2641 8.04899 11.7683 8.55321 12.3783 8.55321C12.9884 8.55321 13.4926 8.04899 13.4926 7.43895C13.4926 6.82892 12.9874 6.3247 12.3783 6.3247ZM17.9708 8.55321C18.5808 8.55321 19.085 8.04899 19.085 7.43895C19.085 6.82892 18.5808 6.3247 17.9708 6.3247C17.3607 6.3247 16.8565 6.82892 16.8565 7.43895C16.8565 8.04899 17.3396 8.55321 17.9708 8.55321Z" fill="currentColor"/></g></svg>