<svg width="24px" height="24px" viewBox="0 0 24 24" fill="currentColor" xmlns="http://www.w3.org/2000/svg"><g><path fill-rule="evenodd" clip-rule="evenodd" d="M10.5 5C10.5 3.34315 11.8431 2 13.5 2C15.1569 2 16.5 3.34315 16.5 5C16.5 6.65685 15.1569 8 13.5 8C11.8431 8 10.5 6.65685 10.5 5ZM13.5 3.5C12.6716 3.5 12 4.17157 12 5C12 5.82843 12.6716 6.5 13.5 6.5C14.3284 6.5 15 5.82843 15 5C15 4.17157 14.3284 3.5 13.5 3.5Z" fill="currentColor"/><path d="M4 15.5C4 12.0735 6.65136 9.26624 10.0144 9.01788L8.97389 12.1963C8.55389 13.5763 8.82389 15.0263 9.67389 16.1863C10.5239 17.3463 11.8439 18.0063 13.2839 18.0063H15.9939L15.5112 19.6401C14.3189 21.0816 12.5167 22 10.5 22C6.91015 22 4 19.0899 4 15.5Z" fill="currentColor"/><path d="M11.9518 12.7485L11.8462 13.0716C11.5596 14.0326 12.2795 15 13.2837 15H16.3271C18.1631 15 19.4834 16.7646 18.9654 18.5259L18.4696 20.2116C18.3527 20.609 17.9358 20.8364 17.5385 20.7195C17.1411 20.6026 16.9137 20.1857 17.0306 19.7883L17.5263 18.1027C17.7618 17.3021 17.1616 16.5 16.3271 16.5H13.2837C11.2703 16.5 9.8285 14.5559 10.4129 12.6292L10.4177 12.6139L11.3525 9.75473C11.4812 9.36102 11.9047 9.14621 12.2984 9.27492C12.6921 9.40364 12.9069 9.82715 12.7782 10.2209L12.4417 11.25H16C16.4142 11.25 16.75 11.5858 16.75 12C16.75 12.4142 16.4142 12.75 16 12.75H12C11.9838 12.75 11.9678 12.7495 11.9518 12.7485Z" fill="currentColor"/></g></svg>