<svg width="24px" height="24px" viewBox="0 0 24 24" fill="currentColor" xmlns="http://www.w3.org/2000/svg"><g><path d="M12.7502 3.25C12.7502 2.83579 12.4144 2.5 12.0002 2.5C11.586 2.5 11.2502 2.83579 11.2502 3.25V4H2.75C2.33579 4 2 4.33579 2 4.75C2 5.16421 2.33579 5.5 2.75 5.5H3V18.5H2.75C2.33579 18.5 2 18.8358 2 19.25C2 19.6642 2.33579 20 2.75 20H21.25C21.6642 20 22 19.6642 22 19.25C22 18.8358 21.6642 18.5 21.25 18.5H21V5.5H21.25C21.6642 5.5 22 5.16421 22 4.75C22 4.33579 21.6642 4 21.25 4H12.7502V3.25Z" fill="currentColor"/></g></svg>