<svg width="24px" height="24px" viewBox="0 0 24 24" fill="currentColor" xmlns="http://www.w3.org/2000/svg"><g><path d="M15.6091 14.6086C15.3162 14.9015 14.8413 14.9015 14.5484 14.6086L12.0004 12.0605L9.45221 14.6087C9.15931 14.9016 8.68444 14.9016 8.39154 14.6087C8.09865 14.3158 8.09865 13.8409 8.39154 13.548L10.9397 10.9999L8.39156 8.45172C8.09867 8.15882 8.09867 7.68395 8.39156 7.39106C8.68445 7.09816 9.15933 7.09816 9.45222 7.39106L12.0004 9.93921L14.5484 7.39119C14.8413 7.0983 15.3162 7.0983 15.6091 7.39119C15.902 7.68408 15.902 8.15896 15.6091 8.45185L13.061 10.9999L15.6091 13.5479C15.902 13.8408 15.902 14.3157 15.6091 14.6086Z" fill="currentColor"/><path d="M12.0003 19.9999C12.5526 19.9999 13.0003 19.5522 13.0003 18.9999C13.0003 18.4476 12.5526 17.9999 12.0003 17.9999C11.448 17.9999 11.0003 18.4476 11.0003 18.9999C11.0003 19.5522 11.448 19.9999 12.0003 19.9999Z" fill="currentColor"/></g></svg>