<svg width="24px" height="24px" viewBox="0 0 24 24" fill="currentColor" xmlns="http://www.w3.org/2000/svg"><g><path d="M16.7878 13.9058C13.9969 11.7293 10.0021 11.7293 7.21126 13.9058C6.88464 14.1606 6.41335 14.1023 6.15862 13.7757C5.90389 13.449 5.96218 12.9778 6.2888 12.723C9.62194 10.1236 14.3771 10.1236 17.7103 12.723C18.0369 12.9778 18.0952 13.449 17.8404 13.7757C17.5857 14.1023 17.1144 14.1606 16.7878 13.9058Z" fill="currentColor"/><path d="M11.9991 20C12.5514 20 12.9991 19.5523 12.9991 19C12.9991 18.4477 12.5514 18 11.9991 18C11.4468 18 10.9991 18.4477 10.9991 19C10.9991 19.5523 11.4468 20 11.9991 20Z" fill="currentColor"/></g></svg>