<svg width="24px" height="24px" viewBox="0 0 24 24" fill="currentColor" xmlns="http://www.w3.org/2000/svg"><g><path fill-rule="evenodd" clip-rule="evenodd" d="M8.5179 3H15.4821C16.2949 2.99999 16.9506 2.99999 17.4815 3.04336C18.0281 3.08803 18.5082 3.18239 18.9525 3.40873C19.6581 3.76825 20.2317 4.34193 20.5913 5.04754C20.8176 5.49175 20.912 5.9719 20.9566 6.51853C21 7.04944 21 7.70505 21 8.51788V15.4821C21 16.295 21 16.9506 20.9566 17.4815C20.912 18.0281 20.8176 18.5082 20.5913 18.9525C20.2317 19.6581 19.6581 20.2317 18.9525 20.5913C18.5082 20.8176 18.0281 20.912 17.4815 20.9566C16.9506 21 16.295 21 15.4821 21H8.51788C7.70505 21 7.04944 21 6.51853 20.9566C5.9719 20.912 5.49175 20.8176 5.04754 20.5913C4.34193 20.2317 3.76825 19.6581 3.40873 18.9525C3.18239 18.5082 3.08803 18.0281 3.04336 17.4815C2.99999 16.9506 2.99999 16.2949 3 15.4821V8.5179C2.99999 7.70506 2.99999 7.04944 3.04336 6.51853C3.08803 5.9719 3.18239 5.49175 3.40873 5.04754C3.76825 4.34193 4.34193 3.76825 5.04754 3.40873C5.49175 3.18239 5.9719 3.08803 6.51853 3.04336C7.04944 2.99999 7.70506 2.99999 8.5179 3ZM13 16C13 16.5523 12.5523 17 12 17C11.4477 17 11 16.5523 11 16C11 15.4477 11.4477 15 12 15C12.5523 15 13 15.4477 13 16ZM7.62274 8.17393C8.96905 7.39038 10.4858 7 12 7C13.5142 7 15.031 7.39038 16.3773 8.17393C16.7353 8.38229 16.8566 8.8414 16.6482 9.1994C16.4399 9.5574 15.9807 9.6787 15.6227 9.47035C14.5128 8.82438 13.2577 8.5 12 8.5C10.7423 8.5 9.48717 8.82438 8.37726 9.47035C8.01926 9.6787 7.56014 9.5574 7.35179 9.1994C7.14344 8.8414 7.26475 8.38229 7.62274 8.17393ZM10.3228 12.8762C10.8487 12.626 11.4235 12.5 12 12.5C12.5766 12.5 13.1516 12.6259 13.6779 12.8763C14.0519 13.0541 14.4994 12.8951 14.6773 12.5211C14.8552 12.147 14.6962 11.6995 14.3221 11.5216C13.5897 11.1733 12.794 11 12 11C11.206 11 10.4105 11.1734 9.67834 11.5217C9.3043 11.6996 9.14534 12.1471 9.32329 12.5211C9.50124 12.8952 9.94871 13.0542 10.3228 12.8762Z" fill="currentColor"/></g></svg>