<svg width="24px" height="24px" viewBox="0 0 24 24" fill="currentColor" xmlns="http://www.w3.org/2000/svg"><g><path d="M5.75 7C5.33579 7 5 7.33579 5 7.75C5 8.16421 5.33579 8.5 5.75 8.5C6.16421 8.5 6.5 8.16421 6.5 7.75C6.5 7.33579 6.16421 7 5.75 7Z" fill="currentColor"/><path d="M7.5 7.75C7.5 7.33579 7.83579 7 8.25 7C8.66421 7 9 7.33579 9 7.75C9 8.16421 8.66421 8.5 8.25 8.5C7.83579 8.5 7.5 8.16421 7.5 7.75Z" fill="currentColor"/><path d="M10.75 7C10.3358 7 10 7.33579 10 7.75C10 8.16421 10.3358 8.5 10.75 8.5C11.1642 8.5 11.5 8.16421 11.5 7.75C11.5 7.33579 11.1642 7 10.75 7Z" fill="currentColor"/><path fill-rule="evenodd" clip-rule="evenodd" d="M2 7.75C2 5.67893 3.67893 4 5.75 4H18.25C20.3211 4 22 5.67893 22 7.75V16.25C22 18.3211 20.3211 20 18.25 20H5.75C3.67893 20 2 18.3211 2 16.25V7.75ZM20.5 7.75V10H3.5V7.75C3.5 6.50736 4.50736 5.5 5.75 5.5H18.25C19.4926 5.5 20.5 6.50736 20.5 7.75Z" fill="currentColor"/></g></svg>