<svg width="24px" height="24px" viewBox="0 0 24 24" fill="currentColor" xmlns="http://www.w3.org/2000/svg"><g><path fill-rule="evenodd" clip-rule="evenodd" d="M5.75 4C3.67893 4 2 5.67893 2 7.75V9.5H22V7.75C22 5.67893 20.3211 4 18.25 4H5.75ZM4 6.75C4 6.33579 4.33579 6 4.75 6C5.16421 6 5.5 6.33579 5.5 6.75C5.5 7.16421 5.16421 7.5 4.75 7.5C4.33579 7.5 4 7.16421 4 6.75ZM7.25 6C6.83579 6 6.5 6.33579 6.5 6.75C6.5 7.16421 6.83579 7.5 7.25 7.5C7.66421 7.5 8 7.16421 8 6.75C8 6.33579 7.66421 6 7.25 6ZM9 6.75C9 6.33579 9.33579 6 9.75 6C10.1642 6 10.5 6.33579 10.5 6.75C10.5 7.16421 10.1642 7.5 9.75 7.5C9.33579 7.5 9 7.16421 9 6.75Z" fill="currentColor"/><path d="M22 11H2V16.25C2 18.3211 3.67893 20 5.75 20H18.25C20.3211 20 22 18.3211 22 16.25V11Z" fill="currentColor"/></g></svg>