<svg width="24px" height="24px" viewBox="0 0 24 24" fill="currentColor" xmlns="http://www.w3.org/2000/svg"><g><path fill-rule="evenodd" clip-rule="evenodd" d="M4.59772 7.8189C3.8989 9.05344 3.5 10.4801 3.5 12C3.5 14.0772 4.24511 15.9804 5.48263 17.4569L8.77446 14.165C7.18407 12.4893 5.93655 10.7647 5.18607 9.26371C4.93786 8.76728 4.7369 8.28128 4.59772 7.8189ZM7.81933 4.59748C8.28167 4.73666 8.76762 4.9376 9.264 5.18579C10.765 5.93627 12.4895 7.18378 14.1653 8.77417L17.4569 5.48263C15.9804 4.24511 14.0772 3.5 12 3.5C10.4803 3.5 9.05377 3.89881 7.81933 4.59748ZM18.521 4.41847C16.7702 2.91117 14.4915 2 12 2C6.47715 2 2 6.47715 2 12C2 14.4915 2.91117 16.7702 4.41847 18.521L3.69164 19.2479C3.39875 19.5408 3.39875 20.0156 3.69164 20.3085C3.98453 20.6014 4.45941 20.6014 4.7523 20.3085L5.47914 19.5817C7.22995 21.0889 9.50857 22 12 22C17.5228 22 22 17.5228 22 12C22 9.50857 21.0889 7.22995 19.5817 5.47914L20.3087 4.75217C20.6015 4.45928 20.6015 3.9844 20.3087 3.69151C20.0158 3.39862 19.5409 3.39862 19.248 3.69151L18.521 4.41847ZM18.5175 6.54331L15.226 9.83483C16.8164 11.5106 18.064 13.2353 18.8145 14.7363C19.0626 15.2325 19.2635 15.7183 19.4026 16.1805C20.1012 14.9461 20.5 13.5196 20.5 12C20.5 9.92287 19.7549 8.01975 18.5175 6.54331ZM16.1809 19.4024C15.7186 19.2632 15.2328 19.0623 14.7366 18.8142C13.2356 18.0637 11.5109 16.8161 9.83511 15.2257L6.54331 18.5175C8.01975 19.7549 9.92287 20.5 12 20.5C13.5198 20.5 14.9464 20.1011 16.1809 19.4024ZM10.8962 14.1647C12.4812 15.6646 14.0757 16.8067 15.4074 17.4726C16.1523 17.845 16.7763 18.0488 17.2471 18.1046C17.7286 18.1617 17.9182 18.0535 17.986 17.9857C18.0537 17.918 18.162 17.7283 18.1049 17.2468C18.0491 16.776 17.8453 16.152 17.4728 15.4071C16.807 14.0754 15.6649 12.4809 14.165 10.8959L10.8962 14.1647ZM13.1043 9.83521C11.5193 8.33534 9.92486 7.19327 8.59318 6.52743C7.84824 6.15496 7.2243 5.95115 6.75348 5.89535C6.27197 5.83829 6.08232 5.94653 6.01457 6.01428C5.94682 6.08203 5.83858 6.27168 5.89564 6.75319C5.95144 7.22401 6.15525 7.84795 6.52772 8.59289C7.19356 9.92458 8.33563 11.519 9.83549 13.104L13.1043 9.83521Z" fill="currentColor"/></g></svg>