<svg width="24px" height="24px" viewBox="0 0 24 24" fill="currentColor" xmlns="http://www.w3.org/2000/svg"><g><path d="M16.2197 3.71965C17.341 2.59833 19.159 2.59833 20.2803 3.71965C21.4016 4.84097 21.4017 6.65899 20.2803 7.78031L16.159 11.9016C15.4557 12.6049 14.5019 13 13.5074 13H11.75C11.3358 13 11 12.6642 11 12.25V10.4926C11 9.49806 11.3951 8.54423 12.0983 7.84097L16.2197 3.71965Z" fill="currentColor"/><path d="M5.75 11.5C4.23122 11.5 3 12.7312 3 14.25C3 15.7688 4.23122 17 5.75 17H16.25C16.9404 17 17.5 17.5596 17.5 18.25C17.5 18.9404 16.9404 19.5 16.25 19.5H11.75C11.3358 19.5 11 19.8358 11 20.25C11 20.6642 11.3358 21 11.75 21H16.25C17.7688 21 19 19.7688 19 18.25C19 16.7312 17.7688 15.5 16.25 15.5H5.75C5.05964 15.5 4.5 14.9404 4.5 14.25C4.5 13.5596 5.05964 13 5.75 13H8.25C8.66421 13 9 12.6642 9 12.25C9 11.8358 8.66421 11.5 8.25 11.5H5.75Z" fill="currentColor"/></g></svg>