<svg width="24px" height="24px" viewBox="0 0 24 24" fill="currentColor" xmlns="http://www.w3.org/2000/svg"><g><path d="M11.0028 21.9589C9.46209 21.8114 7.90234 21.2585 6.56249 20.3847C5.43975 19.6529 5.18638 19.3516 5.18638 18.751C5.18638 17.5446 6.51368 15.4311 8.78473 13.0224C10.0741 11.654 11.8705 10.051 12.0646 10.0942C12.4426 10.1785 15.4621 13.1223 16.5928 14.5083C18.3803 16.6991 19.2018 18.4936 18.7843 19.2935C18.467 19.9015 16.4977 21.09 15.0512 21.5465C13.8587 21.9229 12.2927 22.0823 11.0028 21.9589ZM3.66986 17.4967C2.7368 16.0661 2.26539 14.6577 2.03805 12.6207C1.96274 11.9481 1.98924 11.5636 2.20844 10.1827C2.4811 8.46352 3.46135 6.47252 4.63988 5.24818C5.14151 4.72777 5.18614 4.71383 5.79796 4.9206C6.53948 5.17151 7.33214 5.71886 8.56181 6.83029L9.28009 7.4794L8.88724 7.96031C7.06761 10.1929 5.14709 13.3595 4.42417 15.318C4.03132 16.382 3.87326 17.4507 4.04295 17.8956C4.15685 18.1962 4.05224 18.0842 3.6687 17.4974L3.66986 17.4967ZM20.0468 17.7399C20.1391 17.2902 20.0224 16.4645 19.7492 15.6314C19.1577 13.8274 17.1797 10.4715 15.3636 8.18961L14.7917 7.47127L15.4105 6.90371C16.2181 6.1626 16.7787 5.71886 17.3841 5.3418C17.8613 5.04443 18.5435 4.78121 18.8369 4.78121C19.0175 4.78121 19.6542 5.44333 20.1679 6.16353C20.9638 7.27868 21.5491 8.63312 21.8457 10.041C22.0375 10.9517 22.0535 12.8986 21.8766 13.8069C21.7302 14.5522 21.4234 15.5182 21.1258 16.1736C20.9003 16.6645 20.3448 17.6182 20.1007 17.9286C19.9752 18.0882 19.9752 18.088 20.0449 17.7437L20.0468 17.7399ZM11.1678 4.44062C10.3296 4.01547 9.03671 3.55896 8.32262 3.43583C8.0725 3.39285 7.64548 3.36845 7.37421 3.38239C6.78472 3.41213 6.81098 3.38146 7.75613 2.93517C8.54182 2.56415 9.19733 2.346 10.0876 2.15921C11.0883 1.94896 12.97 1.94664 13.9549 2.1541C15.0184 2.37829 16.2711 2.8441 16.9768 3.27854L17.1869 3.40725L16.7058 3.38309C15.749 3.33476 14.3547 3.72112 12.8577 4.44875C12.4063 4.66853 12.014 4.8437 11.9851 4.83905C11.9565 4.83348 11.5886 4.65436 11.1669 4.44062H11.1678Z" fill="currentColor"/></g></svg>