<svg width="24px" height="24px" viewBox="0 0 24 24" fill="currentColor" xmlns="http://www.w3.org/2000/svg"><g><path d="M10.5 16V14.5H13.5V16C13.5 16.8284 12.8284 17.5 12 17.5C11.1716 17.5 10.5 16.8284 10.5 16Z" fill="currentColor"/><path fill-rule="evenodd" clip-rule="evenodd" d="M3 6.75001C2.99999 4.67894 4.67893 3 6.75 3H17.25C19.3211 3 21 4.67893 21 6.75L21 17.25C21 19.3211 19.3211 21 17.25 21H6.75001C4.67894 21 3 19.3211 3.00001 17.25L3 6.75001ZM9.75 5C9.33579 5 9 5.33579 9 5.75C9 6.16421 9.33579 6.5 9.75 6.5H14.25C14.6642 6.5 15 6.16421 15 5.75C15 5.33579 14.6642 5 14.25 5H9.75ZM9 9.75C9 9.33579 9.33579 9 9.75 9H14.25C14.6642 9 15 9.33579 15 9.75C15 10.1642 14.6642 10.5 14.25 10.5H9.75C9.33579 10.5 9 10.1642 9 9.75ZM9.75 13C9.33579 13 9 13.3358 9 13.75V16C9 17.6569 10.3431 19 12 19C13.6569 19 15 17.6569 15 16V13.75C15 13.3358 14.6642 13 14.25 13H9.75Z" fill="currentColor"/></g></svg>